<svg xmlns="http://www.w3.org/2000/svg" viewBox="0 0 640 512"><path d="M225.8 273.6l-83.2 49.9c-15.2 9.1-20.1 28.7-11 43.9s28.7 20.1 43.9 11l104.3-62.6-54-42.2zM287 321.5V447c0 17.7 14.3 32 32 32s32-14.3 32-32v-75.3l-64-50.2zM630.8 469.1l-126.1-98.9c.7-.9 1.3-1.8 1.8-2.7c9.1-15.2 4.2-34.8-11-43.9L381.2 255l114.2-68.5c15.2-9.1 20.1-28.7 11-43.9s-28.7-20.1-43.9-11L351 198.5V63c0-17.7-14.3-32-32-32s-32 14.3-32 32v135.5l-6.2-3.7L38.8 5.1C28.4-3.1 13.3-1.2 5.1 9.2C-2.7 19-1.4 33.1 7.6 41.5l590.2 462.6c.6 .4 1.1 .9 1.6 1.4l1.8 1.4c10.4 8.2 25.5 6.3 33.7-4.1s6.3-25.5-4.1-33.7z"/></svg>