<svg xmlns="http://www.w3.org/2000/svg" viewBox="0 0 100 100">
    <title>Craft CMS Stack Exchange</title>
    <path fill="#db5a48" d="M74.11,15H25.89A10.91,10.91,0,0,0,15,25.89V74.11A10.91,10.91,0,0,0,25.89,85H56.12v15l15-15h3A10.91,10.91,0,0,0,85,74.11V25.89A10.91,10.91,0,0,0,74.11,15Z"/>
    <path fill="#ffffff" d="M62,38.83A14,14,0,0,0,53.54,36c-7.88,0-13.8,6.9-13.8,14.86C39.73,57.75,44.48,62,50.32,62a16.25,16.25,0,0,0,8.47-2.63l1.31,2.71A18.32,18.32,0,0,1,49.89,65a13.52,13.52,0,0,1-13.63-13.8A18.21,18.21,0,0,1,54,33a16.82,16.82,0,0,1,9.7,3.18Z"/>
</svg>
