<svg xmlns="http://www.w3.org/2000/svg" viewBox="0 0 512 512"><path d="M473.1 336.9V175.1c9.1-7.3 14.9-18.5 14.9-31.1c0-22.1-17.9-40-40-40c-5.5 0-10.7 1.1-15.4 3.1l-138.7-80C288.5 11.4 273.6 0 256 0s-32.5 11.4-37.9 27.1l-138.5 80c-4.8-2-10.1-3.1-15.6-3.1c-22.1 0-40 17.9-40 40c0 12.6 5.8 23.8 14.9 31.1v161.8C29.8 344.2 24 355.4 24 368c0 22.1 17.9 40 40 40c5.5 0 10.7-1.1 15.4-3.1l138.7 79.9c5.4 15.8 20.3 27.1 37.9 27.1s32.5-11.4 37.9-27.1l138.5-80c4.8 2 10.1 3.1 15.6 3.1c22.1 0 40-17.9 40-40c0-12.5-5.8-23.7-14.9-31zM279.6 439.7c-6.6-4.8-14.7-7.7-23.6-7.7c-8.8 0-16.9 2.8-23.5 7.6L163.8 400h184.4l-68.6 39.7zM103.9 146.6l76-43.9L85.2 258.2v-80.3c10.6-6.6 17.9-18.1 18.7-31.3zm322.9 31.3v80.3l-94.7-155.5 76 43.9c.8 13.2 8.1 24.7 18.7 31.3zM86.1 334.7l156.5-257c4.2 1.5 8.7 2.3 13.4 2.3s9.2-.8 13.4-2.3l156.5 257c-8.5 5.7-14.8 14.5-17 24.8H103.1c-2.3-10.3-8.5-19.2-17-24.8z"/></svg>