<svg xmlns="http://www.w3.org/2000/svg" viewBox="0 0 640 512"><path d="M406.3 415H279h-32-96c-9.2 0-17.6-5.3-21.6-13.6s-2.9-18.2 2.9-25.4l64-80c4.5-5.7 11.5-9 18.7-9s14.1 3.3 18.7 9l26.5 33.1 12.7-18.6L63 145.9V415c0 35.3 28.7 64 64 64h360.9l-81.6-64zm224.5 54.1l-56.5-44.3c.5-3.2 .7-6.5 .7-9.8V95c0-35.3-28.7-64-64-64H127c-14.5 0-27.9 4.8-38.6 13L38.8 5.1C28.4-3.1 13.3-1.2 5.1 9.2C-2.7 19-1.4 33.1 7.6 41.5l590.2 462.6c.6 .4 1.1 .9 1.6 1.4l1.8 1.4c10.4 8.2 25.5 6.3 33.7-4.1s6.3-25.5-4.1-33.7zM222.6 149.2l-64.9-50.9C163 96.2 168.9 95 175 95c26.5 0 48 21.5 48 48c0 2.1-.1 4.1-.4 6.2zM327.1 231l20.1-29.5c4.4-6.6 11.9-10.5 19.8-10.5s15.3 3.9 19.8 10.5h0l111.8 164L327.1 231z"/></svg>