<svg xmlns="http://www.w3.org/2000/svg" viewBox="0 0 512 512"><path d="M424 48c-13.3 0-24 10.7-24 24v48c0 13.3 10.7 24 24 24h48c13.3 0 24-10.7 24-24V72c0-13.3-10.7-24-24-24H424zM32 64C14.3 64 0 78.3 0 96s14.3 32 32 32h288c17.7 0 32-14.3 32-32s-14.3-32-32-32H32zm0 160c-17.7 0-32 14.3-32 32s14.3 32 32 32h288c17.7 0 32-14.3 32-32s-14.3-32-32-32H32zm0 160c-17.7 0-32 14.3-32 32s14.3 32 32 32h288c17.7 0 32-14.3 32-32s-14.3-32-32-32H32zM472 208h-48c-13.3 0-24 10.7-24 24v48c0 13.3 10.7 24 24 24h48c13.3 0 24-10.7 24-24v-48c0-13.3-10.7-24-24-24zM424 368c-13.3 0-24 10.7-24 24v48c0 13.3 10.7 24 24 24h48c13.3 0 24-10.7 24-24v-48c0-13.3-10.7-24-24-24H424z"/></svg>