<svg xmlns="http://www.w3.org/2000/svg" viewBox="0 0 512 512"><path d="M440 48c-13.3 0-24 10.7-24 24v48c0 13.3 10.7 24 24 24v88h-56c0-13.3-10.7-24-24-24h-48c-13.3 0-24 10.7-24 24v48c0 13.3 10.7 24 24 24h48c13.3 0 24-10.7 24-24h56v104c0 4.4-3.6 8-8 8h-48c0-13.3-10.7-24-24-24h-48c-13.3 0-24 10.7-24 24v48c0 13.3 10.7 24 24 24h48c13.3 0 24-10.7 24-24h48c30.9 0 56-25.1 56-56V256 144c13.3 0 24-10.7 24-24V72c0-13.3-10.7-24-24-24H440zM320 64H32C14.3 64 0 78.3 0 96s14.3 32 32 32h288c17.7 0 32-14.3 32-32s-14.3-32-32-32zM192 224H32c-17.7 0-32 14.3-32 32s14.3 32 32 32h160c17.7 0 32-14.3 32-32s-14.3-32-32-32zm0 160H32c-17.7 0-32 14.3-32 32s14.3 32 32 32h160c17.7 0 32-14.3 32-32s-14.3-32-32-32z"/></svg>