<?xml version="1.0" encoding="UTF-8"?>
<svg width="100px" height="100px" viewBox="0 0 100 100" version="1.1" xmlns="http://www.w3.org/2000/svg" xmlns:xlink="http://www.w3.org/1999/xlink">
    <!-- Generator: Sketch 42 (36781) - http://www.bohemiancoding.com/sketch -->
    <title>arrow-up</title>
    <desc>Created with Sketch.</desc>
    <defs></defs>
    <g id="Page-1" stroke="none" stroke-width="1" fill="none" fill-rule="evenodd">
        <g id="arrow-up" fill-rule="nonzero" fill="#000000">
            <path d="M96.8149038,54.1852679 C96.8149038,56.0825893 95.9735577,57.8683036 94.5913462,59.2075893 L90.0841346,63.3928571 C88.6418269,64.7321429 86.6586538,65.5133929 84.6153846,65.5133929 C82.5721154,65.5133929 80.5889423,64.7321429 79.2067308,63.3928571 L61.5384615,47.0424107 L61.5384615,86.328125 C61.5384615,90.3459821 57.9326923,92.8571429 53.8461538,92.8571429 L46.1538462,92.8571429 C42.0673077,92.8571429 38.4615385,90.3459821 38.4615385,86.328125 L38.4615385,47.0424107 L20.7932692,63.3928571 C19.4110577,64.7321429 17.4278846,65.5133929 15.3846154,65.5133929 C13.3413462,65.5133929 11.3581731,64.7321429 9.97596154,63.3928571 L5.46875,59.2075893 C4.02644231,57.8683036 3.18509615,56.0825893 3.18509615,54.1852679 C3.18509615,52.2879464 4.02644231,50.4464286 5.46875,49.1071429 L44.5913462,12.7790179 C45.9735577,11.4397321 47.9567308,10.7142857 50,10.7142857 C52.0432692,10.7142857 54.0264423,11.4397321 55.46875,12.7790179 L94.5913462,49.1071429 C95.9735577,50.4464286 96.8149038,52.2879464 96.8149038,54.1852679 Z" id="Shape"></path>
        </g>
    </g>
</svg>