<?xml version="1.0" encoding="utf-8"?>
<!-- Generator: Adobe Illustrator 23.0.2, SVG Export Plug-In . SVG Version: 6.00 Build 0)  -->
<svg version="1.1" id="Layer_1" xmlns="http://www.w3.org/2000/svg" xmlns:xlink="http://www.w3.org/1999/xlink" x="0px" y="0px"
	 viewBox="0 0 417 448" style="enable-background:new 0 0 417 448;" xml:space="preserve">
<path d="M409.8,119.5c6.2,9,8,20.8,4.5,32.3l-68.8,226.5c-6.2,21.2-28.2,37.8-49.8,37.8H65c-25.5,0-52.8-20.2-62-46.2
	c-4-11.2-4-22.2-0.5-31.8c0.5-5,1.5-10,1.8-16c0.2-4-2-7.2-1.5-10.2c1-6,6.2-10.2,10.2-17c7.5-12.5,16-32.8,18.8-45.8
	c1.2-4.8-1.2-10.2,0-14.5c1.2-4.8,6-8.2,8.5-12.8C47,210.2,55.8,188,57,176.2c0.5-5.2-2-11-0.5-15c1.8-5.8,7.2-8.2,11-13.2
	c6-8.2,16-32,17.5-45.3c0.5-4.2-2-8.5-1.2-13c1-4.8,7-9.8,11-15.5c10.5-15.5,12.5-49.8,44.2-40.8l-0.2,0.8c4.2-1,8.5-2.2,12.8-2.2
	h190.2c11.8,0,22.2,5.2,28.5,14c6.5,9,8,20.8,4.5,32.5L306.2,305c-11.8,38.5-18.2,47-50,47H39c-3.2,0-7.2,0.8-9.5,3.8
	c-2,3-2.2,5.2-0.2,10.8c5,14.5,22.2,17.5,36,17.5H296c9.2,0,20-5.2,22.8-14.2l75-246.8c1.5-4.8,1.5-9.8,1.2-14.2
	C400.8,111,406,114.5,409.8,119.5z M143.8,120c-1.5,4.5,1,8,5.5,8h152c4.2,0,9-3.5,10.5-8l5.2-16c1.5-4.5-1-8-5.5-8h-152
	c-4.2,0-9,3.5-10.5,8L143.8,120z M123,184c-1.5,4.5,1,8,5.5,8h152c4.2,0,9-3.5,10.5-8l5.2-16c1.5-4.5-1-8-5.5-8h-152
	c-4.2,0-9,3.5-10.5,8L123,184z"/>
</svg>
