<?xml version="1.0" encoding="UTF-8"?>
<svg width="100px" height="100px" viewBox="0 0 100 100" version="1.1"
     xmlns="http://www.w3.org/2000/svg"
>
    <title>bug</title>
    <g stroke="none" stroke-width="1" fill="none"
       fill-rule="evenodd">
        <g id="bug" fill="#000000">
            <path d="M100,57 C100,59.1875 98.1875,61 96,61 L82,61 C82,68.8125 80.3125,74.6875 77.8125,79.125 L90.8125,92.1875 C92.375,93.75 92.375,96.25 90.8125,97.8125 C90.0625,98.625 89,99 88,99 C87,99 85.9375,98.625 85.1875,97.8125 L72.8125,85.5 C72.8125,85.5 64.625,93 54,93 L54,37 L46,37 L46,93 C34.6875,93 26.4375,84.75 26.4375,84.75 L15,97.6875 C14.1875,98.5625 13.125,99 12,99 C11.0625,99 10.125,98.6875 9.3125,98 C7.6875,96.5 7.5625,94 9,92.3125 L21.625,78.125 C19.4375,73.8125 18,68.25 18,61 L4,61 C1.8125,61 0,59.1875 0,57 C0,54.8125 1.8125,53 4,53 L18,53 L18,34.625 L7.1875,23.8125 C5.625,22.25 5.625,19.75 7.1875,18.1875 C8.75,16.625 11.25,16.625 12.8125,18.1875 L23.625,29 L76.375,29 L87.1875,18.1875 C88.75,16.625 91.25,16.625 92.8125,18.1875 C94.375,19.75 94.375,22.25 92.8125,23.8125 L82,34.625 L82,53 L96,53 C98.1875,53 100,54.8125 100,57 Z M70,21 L30,21 C30,9.9375 38.9375,1 50,1 C61.0625,1 70,9.9375 70,21 Z"
                  id="Shape"></path>
        </g>
    </g>
</svg>