<?xml version="1.0" encoding="utf-8"?>
<svg version="1.1" xmlns="http://www.w3.org/2000/svg" xmlns:xlink="http://www.w3.org/1999/xlink" x="0px" y="0px"
	 viewBox="0 0 448 448" style="enable-background:new 0 0 448 448;" xml:space="preserve">
<path d="M416,160c17.8,0,32,14.2,32,32s-14.2,32-32,32v96c0,17.5-14.5,32-32,32c-44.5-37-116.2-87.8-203-95
	c-29.8,10-40,44.8-20.5,64.8c-17.5,28.8,5,49,31.5,69.8c-15.5,30.5-80,31-103,9.8c-14.5-44.5-36-89-18.5-145.2H40c-22,0-40-18-40-40
	v-48c0-22,18-40,40-40h120c96,0,176-56,224-96c17.5,0,32,14.5,32,32V160z M384,311V72.5c-65.2,50-128.5,78.8-192,85.8v67.5
	C255.5,232.8,318.8,261,384,311z"/>
</svg>
