<?xml version="1.0" encoding="utf-8"?>
<svg version="1.1" xmlns="http://www.w3.org/2000/svg" xmlns:xlink="http://www.w3.org/1999/xlink" x="0px" y="0px"
	 viewBox="0 0 448 448" style="enable-background:new 0 0 448 448;" xml:space="preserve">
<path d="M224,0c123.8,0,224,100.2,224,224S347.8,448,224,448S0,347.8,0,224S100.2,0,224,0z M224,32c-32.5,0-63.2,8.2-90.2,22.5
	l48.5,48.5c13.2-4.5,27.2-7,41.8-7c14.8,0,28.5,2.5,41.8,7l48.5-48.5C287.2,40.2,256.5,32,224,32z M54.5,314.2l48.5-48.5
	c-4.5-13.2-7-27.2-7-41.8c0-14.8,2.5-28.5,7-41.8l-48.5-48.5C40.2,160.8,32,191.5,32,224S40.2,287.2,54.5,314.2z M224,416
	c32.5,0,63.2-8.2,90.2-22.5L265.8,345c-13.2,4.5-27,7-41.8,7c-14.5,0-28.5-2.5-41.8-7l-48.5,48.5C160.8,407.8,191.5,416,224,416z
	 M224,320c53,0,96-43,96-96s-43-96-96-96s-96,43-96,96S171,320,224,320z M345,265.8l48.5,48.5c14.2-27,22.5-57.8,22.5-90.2
	s-8.2-63.2-22.5-90.2L345,182.2c4.5,13.2,7,27.2,7,41.8S349.5,252.5,345,265.8z"/>
</svg>
