<?xml version="1.0" encoding="UTF-8"?>
<svg width="108px" height="108px" viewBox="0 0 108 108" version="1.1" xmlns="http://www.w3.org/2000/svg" xmlns:xlink="http://www.w3.org/1999/xlink">
    <title>Craft icon</title>
    <g id="c-outline-2" stroke="none" stroke-width="1" fill="none" fill-rule="evenodd">
        <path d="M95,0 C102.179702,-1.31888981e-15 108,5.82029825 108,13 L108,95 C108,102.179702 102.179702,108 95,108 L13,108 C5.82029825,108 8.79259876e-16,102.179702 0,95 L0,13 C-8.79259876e-16,5.82029825 5.82029825,1.31888981e-15 13,0 L95,0 Z M94.2631577,3 L13.7368421,3 C7.77192981,3 3,7.77192981 3,13.7368421 L3,94.2631577 C3,100.22807 7.77192981,105 13.7368421,105 L94.2631577,105 C100.108772,105 105,100.22807 105,94.2631577 L105,13.7368421 C105,7.77192981 100.22807,3 94.2631577,3 Z M53.3227923,65.4539474 C56.6537595,65.4539474 60.2226527,64.1151317 63.6725827,60.950658 L68.4311069,66.5493422 C63.4346565,70.6875 57.7244275,73 52.0141981,73 C40.7127032,73 33.5749168,65.3322369 35.2404004,54.5 C36.9058838,43.6677631 46.5418953,36 57.8433906,36 C63.3156934,36 68.4311069,38.1907895 72,42.2072368 L65.3380661,47.8059209 C63.4346565,45.2499999 60.2226527,43.5460526 56.6537595,43.5460526 C49.8728622,43.5460526 44.6384856,48.049342 43.5678177,54.5 C42.6161129,60.950658 46.4229322,65.4539474 53.3227923,65.4539474" id="Shape" fill="#000000" fill-rule="nonzero"></path>
    </g>
</svg>
