<?xml version="1.0" encoding="UTF-8"?>
<svg width="100px" height="100px" viewBox="0 0 100 100" version="1.1" xmlns="http://www.w3.org/2000/svg" xmlns:xlink="http://www.w3.org/1999/xlink">
    <!-- Generator: Sketch 41.2 (35397) - http://www.bohemiancoding.com/sketch -->
    <title>chat-bubbles</title>
    <desc>Created with Sketch.</desc>
    <defs></defs>
    <g id="Page-1" stroke="none" stroke-width="1" fill="none" fill-rule="evenodd">
        <g id="chat-bubbles" fill="#000000">
            <path d="M78.5714286,39.5714286 C78.5714286,55.3638393 60.9933036,68.1428571 39.2857143,68.1428571 C35.8816964,68.1428571 32.5892857,67.8080357 29.4642857,67.25 C24.8325893,70.5424107 19.5870536,72.9419643 13.9508929,74.3928571 C12.4441964,74.7834821 10.8258929,75.0625 9.15178571,75.2857143 L8.984375,75.2857143 C8.14732143,75.2857143 7.36607143,74.6160714 7.19866071,73.6674107 L7.19866071,73.6674107 C6.97544643,72.6071429 7.70089286,71.9375 8.31473214,71.2120536 C10.4910714,68.7566964 12.9464286,66.5803571 14.84375,61.9486607 C5.80357143,56.703125 0,48.6116071 0,39.5714286 C0,23.7790179 17.578125,11 39.2857143,11 C60.9933036,11 78.5714286,23.7790179 78.5714286,39.5714286 Z M100,53.8571429 C100,62.953125 94.1964286,70.9888393 85.15625,76.234375 C87.0535714,80.8660714 89.5089286,83.0424107 91.6852679,85.4977679 C92.2991071,86.2232143 93.0245536,86.8928571 92.8013393,87.953125 L92.8013393,87.953125 C92.578125,88.9575893 91.7410714,89.6830357 90.8482143,89.5714286 C89.1741071,89.3482143 87.5558036,89.0691964 86.0491071,88.6785714 C80.4129464,87.2276786 75.1674107,84.828125 70.5357143,81.5357143 C67.4107143,82.09375 64.1183036,82.4285714 60.7142857,82.4285714 C50.6138393,82.4285714 41.3504464,79.6383929 34.375,75.0625 C35.9933036,75.1741071 37.6674107,75.2857143 39.2857143,75.2857143 C51.2834821,75.2857143 62.6116071,71.8258929 71.2611607,65.5758929 C80.5803571,58.7678571 85.7142857,49.5602679 85.7142857,39.5714286 C85.7142857,36.6696429 85.2678571,33.8236607 84.4308036,31.0892857 C93.8616071,36.2790179 100,44.5379464 100,53.8571429 Z" id="Shape"></path>
        </g>
    </g>
</svg>