<?xml version="1.0" encoding="UTF-8"?>
<svg width="100px" height="100px" viewBox="0 0 100 100" version="1.1"
     xmlns="http://www.w3.org/2000/svg"
>
    <title>check</title>
    <g stroke="none" stroke-width="1" fill="none"
       fill-rule="evenodd">
        <g id="check" fill="#000000">
            <path d="M100.006315,26.9686872 C100.006315,28.5816922 99.3611131,30.1946973 98.1997494,31.356061 L42.7123746,86.8434358 C41.5510109,88.0047995 39.9380058,88.6500015 38.3250008,88.6500015 C36.7119957,88.6500015 35.0989906,88.0047995 33.9376269,86.8434358 L1.80656569,54.7123746 C0.645202033,53.5510109 0,51.9380058 0,50.3250008 C0,48.7119957 0.645202033,47.0989906 1.80656569,45.9376269 L10.5813133,37.1628793 C11.742677,36.0015156 13.3556821,35.3563136 14.9686872,35.3563136 C16.5816922,35.3563136 18.1946973,36.0015156 19.356061,37.1628793 L38.3250008,56.1963393 L80.6502541,13.8065657 C81.8116178,12.645202 83.4246229,12 85.037628,12 C86.650633,12 88.2636381,12.645202 89.4250018,13.8065657 L98.1997494,22.5813133 C99.3611131,23.742677 100.006315,25.3556821 100.006315,26.9686872 Z"
                  id="Shape"></path>
        </g>
    </g>
</svg>