<?xml version="1.0" encoding="utf-8"?>
<!-- Generator: Adobe Illustrator 22.0.1, SVG Export Plug-In . SVG Version: 6.00 Build 0)  -->
<svg version="1.1" xmlns="http://www.w3.org/2000/svg" xmlns:xlink="http://www.w3.org/1999/xlink" x="0px" y="0px"
	 viewBox="0 0 102 102" style="enable-background:new 0 0 102 102;" xml:space="preserve">
<style type="text/css">
	.st0{fill:#231F20;}
	.st1{fill:none;stroke:#231F20;}
</style>
<g id="Layer_1">
	<g>
		<path class="st0" d="M51,0C22.8,0,0,22.8,0,51s22.8,51,51,51s51-22.8,51-51S79.2,0,51,0z M51,98.5C24.8,98.5,3.5,77.2,3.5,51
			S24.8,3.5,51,3.5S98.5,24.8,98.5,51S77.2,98.5,51,98.5z"/>
	</g>
</g>
<g id="Layer_2">
	<g>
		<path class="st1" d="M67.7,36l-3.5,2.8c-0.2-0.2-0.5-0.4-0.7-0.6c-6.2-4.7-15.5-2.8-20.8,4.4c-5.4,7.1-4.7,16.6,1.5,21.3
			c4.7,3.5,11.1,3.2,16.3-0.1l3.3,2.6c-7,5.5-16.3,6.3-22.9,1.3c-8.1-6.1-9-18.5-2-27.7c6.9-9.2,19.1-11.8,27.2-5.6
			C66.7,34.8,67.3,35.4,67.7,36L67.7,36z"/>
	</g>
	<g>
		<path class="st0" d="M67.7,36l-3.5,2.8c-0.2-0.2-0.5-0.4-0.7-0.6c-6.2-4.7-15.5-2.8-20.8,4.4c-5.4,7.1-4.7,16.6,1.5,21.3
			c4.7,3.5,11.1,3.2,16.3-0.1l3.3,2.6c-7,5.5-16.3,6.3-22.9,1.3c-8.1-6.1-9-18.5-2-27.7c6.9-9.2,19.1-11.8,27.2-5.6
			C66.7,34.8,67.3,35.4,67.7,36L67.7,36z"/>
	</g>
</g>
</svg>
