<?xml version="1.0" encoding="UTF-8"?>
<svg width="100px" height="100px" viewBox="0 0 100 100" version="1.1" xmlns="http://www.w3.org/2000/svg" xmlns:xlink="http://www.w3.org/1999/xlink">
    <!-- Generator: Sketch 41.2 (35397) - http://www.bohemiancoding.com/sketch -->
    <title>chat-bubbles</title>
    <desc>Created with Sketch.</desc>
    <defs></defs>
    <g id="Page-1" stroke="none" stroke-width="1" fill="none" fill-rule="evenodd">
        <g id="chat-bubbles" fill="#000000">
            <path d="M58.3333333,27.0833333 L58.3333333,56.25 C58.3333333,57.421875 57.421875,58.3333333 56.25,58.3333333 L35.4166667,58.3333333 C34.2447917,58.3333333 33.3333333,57.421875 33.3333333,56.25 L33.3333333,52.0833333 C33.3333333,50.9114583 34.2447917,50 35.4166667,50 L50,50 L50,27.0833333 C50,25.9114583 50.9114583,25 52.0833333,25 L56.25,25 C57.421875,25 58.3333333,25.9114583 58.3333333,27.0833333 Z M85.4166667,50 C85.4166667,30.46875 69.53125,14.5833333 50,14.5833333 C30.46875,14.5833333 14.5833333,30.46875 14.5833333,50 C14.5833333,69.53125 30.46875,85.4166667 50,85.4166667 C69.53125,85.4166667 85.4166667,69.53125 85.4166667,50 Z M100,50 C100,77.6041667 77.6041667,100 50,100 C22.3958333,100 0,77.6041667 0,50 C0,22.3958333 22.3958333,0 50,0 C77.6041667,0 100,22.3958333 100,50 Z" id="Shape"></path>
        </g>
    </g>
</svg>