<?xml version="1.0" encoding="UTF-8"?>
<svg width="100px" height="100px" viewBox="0 0 100 100" version="1.1"
     xmlns="http://www.w3.org/2000/svg"
>
    <title>database</title>
    <g stroke="none" stroke-width="1" fill="none"
       fill-rule="evenodd">
        <g id="database" fill="#000000">
            <path d="M49.8571429,42.8571429 C66.6540179,42.8571429 83.5066964,39.84375 92.7142857,33.3705357 L92.7142857,42.8571429 C92.7142857,50.7254464 73.5178571,57.1428571 49.8571429,57.1428571 C26.1964286,57.1428571 7,50.7254464 7,42.8571429 L7,33.3705357 C16.2075893,39.84375 33.0602679,42.8571429 49.8571429,42.8571429 Z M49.8571429,85.7142857 C66.6540179,85.7142857 83.5066964,82.7008929 92.7142857,76.2276786 L92.7142857,85.7142857 C92.7142857,93.5825893 73.5178571,100 49.8571429,100 C26.1964286,100 7,93.5825893 7,85.7142857 L7,76.2276786 C16.2075893,82.7008929 33.0602679,85.7142857 49.8571429,85.7142857 Z M49.8571429,64.2857143 C66.6540179,64.2857143 83.5066964,61.2723214 92.7142857,54.7991071 L92.7142857,64.2857143 C92.7142857,72.1540179 73.5178571,78.5714286 49.8571429,78.5714286 C26.1964286,78.5714286 7,72.1540179 7,64.2857143 L7,54.7991071 C16.2075893,61.2723214 33.0602679,64.2857143 49.8571429,64.2857143 Z M49.8571429,0 C73.5178571,0 92.7142857,6.41741071 92.7142857,14.2857143 L92.7142857,21.4285714 C92.7142857,29.296875 73.5178571,35.7142857 49.8571429,35.7142857 C26.1964286,35.7142857 7,29.296875 7,21.4285714 L7,14.2857143 C7,6.41741071 26.1964286,0 49.8571429,0 Z"
                  id="Shape"></path>
        </g>
    </g>
</svg>