<?xml version="1.0" encoding="utf-8"?>
<svg version="1.1" id="Layer_1" xmlns="http://www.w3.org/2000/svg" xmlns:xlink="http://www.w3.org/1999/xlink" x="0px" y="0px"
	 viewBox="0 0 384 448" style="enable-background:new 0 0 384 448;" xml:space="preserve">
<path d="M367,95c9.2,9.2,17,27.8,17,41v288c0,13.2-10.8,24-24,24H24c-13.2,0-24-10.8-24-24V24C0,10.8,10.8,0,24,0h224
	c13.2,0,31.8,7.8,41,17L367,95z M256,34v94h94c-1.5-4.2-3.8-8.5-5.5-10.2l-78.2-78.2C264.5,37.8,260.2,35.5,256,34L256,34z M352,416
	V160H248c-13.2,0-24-10.8-24-24V32H32v384H352z"/>
<path d="M84,322c-1.3,0-2.6-0.2-3.9-0.6c-7.4-2.2-11.7-9.9-9.5-17.3c0.3-0.9,6.9-23.4,20-45.8c13.3-22.6,35.9-49.4,68.6-48.3
	c15.7,0.6,28,7.2,36.7,19.9c6.7,9.7,10.2,21.4,13.5,32.6c7.3,24.4,11.3,31.5,24,31.5c10.6,0,26.7-6.1,44-35.1
	c11.4-19.3,17.2-38.6,17.3-38.8c2.2-7.4,10-11.6,17.4-9.4s11.6,10,9.4,17.4c-0.3,0.9-6.9,22.9-20,45.2c-18.9,32-42.5,48.9-68,48.9
	c-15.9,0-28.4-6.4-37.2-18.9c-6.7-9.6-10.2-21.3-13.6-32.6c-8.7-29.1-13.9-32.1-24.4-32.5c-10.4-0.4-26.4,5.3-43.4,34.4
	c-11.4,19.5-17.2,39.3-17.3,39.5C95.7,318,90.1,322,84,322L84,322z"/>
</svg>
