<?xml version="1.0" encoding="utf-8"?>
<!-- Generator: Adobe Illustrator 27.5.0, SVG Export Plug-In . SVG Version: 6.00 Build 0)  -->
<svg version="1.1" id="Layer_1" xmlns="http://www.w3.org/2000/svg" xmlns:xlink="http://www.w3.org/1999/xlink" x="0px" y="0px"
	 viewBox="0 0 512 512" style="enable-background:new 0 0 512 512;" xml:space="preserve">
<path d="M458.9,178.5c-11.1-15.1-26.6-32.9-43.6-49.9s-34.7-32.5-49.9-43.6C339.7,66.2,327.2,64,320,64H136c-22.1,0-40,17.9-40,40
	v368c0,22.1,17.9,40,40,40h304c22.1,0,40-17.9,40-40V224C480,216.8,477.8,204.3,458.9,178.5z M392.7,151.3
	c15.4,15.4,27.4,29.2,36.3,40.7h-77v-77C363.5,123.9,377.3,136,392.7,151.3L392.7,151.3L392.7,151.3z M448,472c0,4.3-3.7,8-8,8H136
	c-4.3,0-8-3.7-8-8V104c0-4.3,3.7-8,8-8c0,0,184,0,184,0v112c0,8.8,7.2,16,16,16h112V472z"/>
<path d="M301.5,21.1C275.7,2.2,263.2,0,256,0H72C49.9,0,32,17.9,32,40v368c0,19.3,13.8,35.5,32,39.2V40c0-4.3,3.7-8,8-8h243.4
	C310.6,28,305.9,24.4,301.5,21.1L301.5,21.1z"/>
</svg>
