<?xml version="1.0" encoding="UTF-8"?>
<svg width="100px" height="100px" viewBox="0 0 100 100" version="1.1" xmlns="http://www.w3.org/2000/svg" xmlns:xlink="http://www.w3.org/1999/xlink">
    <title>envelope</title>
    <g stroke="none" stroke-width="1" fill="none" fill-rule="evenodd">
        <g id="envelope" fill-rule="nonzero" fill="#000000">
            <path d="M100,36.3348214 L100,80.6428571 C100,85.5535714 95.9821429,89.5714286 91.0714286,89.5714286 L8.92857143,89.5714286 C4.01785714,89.5714286 0,85.5535714 0,80.6428571 L0,36.3348214 C1.67410714,38.1763393 3.57142857,39.7946429 5.63616071,41.1897321 C14.8995536,47.4955357 24.2745536,53.8013393 33.3705357,60.4419643 C38.0580357,63.9017857 43.8616071,68.1428571 49.9441964,68.1428571 L50.0558036,68.1428571 C56.1383929,68.1428571 61.9419643,63.9017857 66.6294643,60.4419643 C75.7254464,53.8571429 85.1004464,47.4955357 94.4196429,41.1897321 C96.4285714,39.7946429 98.3258929,38.1763393 100,36.3348214 Z M100,19.9285714 C100,26.1785714 95.3683036,31.8147321 90.4575893,35.21875 C81.7522321,41.2455357 72.9910714,47.2723214 64.3415179,53.3549107 C60.7142857,55.8660714 54.5758929,61 50.0558036,61 L49.9441964,61 C45.4241071,61 39.2857143,55.8660714 35.6584821,53.3549107 C27.0089286,47.2723214 18.2477679,41.2455357 9.59821429,35.21875 C5.63616071,32.5401786 0,26.234375 0,21.15625 C0,15.6875 2.95758929,11 8.92857143,11 L91.0714286,11 C95.9263393,11 100,15.0178571 100,19.9285714 Z" id="Shape"></path>
        </g>
    </g>
</svg>