<?xml version="1.0" encoding="UTF-8"?>
<svg width="100px" height="100px" viewBox="0 0 100 100" version="1.1" xmlns="http://www.w3.org/2000/svg" xmlns:xlink="http://www.w3.org/1999/xlink">
    <!-- Generator: Sketch 42 (36781) - http://www.bohemiancoding.com/sketch -->
    <title>excite</title>
    <desc>Created with Sketch.</desc>
    <defs></defs>
    <g id="Page-1" stroke="none" stroke-width="1" fill="none" fill-rule="evenodd">
        <g id="excite" fill-rule="nonzero" fill="#000000">
            <path d="M89.5787272,49.9859267 L98.5620567,58.77644 C99.7988919,59.9485084 100.254568,61.7066111 99.8639885,63.3344839 C99.4083124,64.9623567 98.1063806,66.264655 96.4789658,66.6553445 L84.2408068,69.7808603 L87.6909261,81.8922342 C88.1466022,83.520107 87.6909261,85.2782097 86.4540908,86.4502781 C85.2823522,87.6874615 83.5247443,88.1432659 81.8973295,87.6874615 L69.7893636,84.2363711 L66.6647272,96.4779748 C66.2741477,98.1058476 64.9722159,99.4081459 63.3448011,99.8639503 C62.9542216,99.9290652 62.4985454,99.9941801 62.1079659,99.9941801 C60.8711307,99.9941801 59.6342954,99.4732608 58.7880398,98.561652 L50,89.575794 L41.2119602,98.561652 C40.0402216,99.7988353 38.2826137,100.25464 36.6551989,99.8639503 C34.9626875,99.4081459 33.7258523,98.1058476 33.3352728,96.4779748 L30.2106364,84.2363711 L18.1026705,87.6874615 C16.4752557,88.1432659 14.7176478,87.6874615 13.5459092,86.4502781 C12.3090739,85.2782097 11.8533978,83.520107 12.3090739,81.8922342 L15.7591932,69.7808603 L3.52103418,66.6553445 C1.89361941,66.264655 0.591687595,64.9623567 0.136011459,63.3344839 C-0.254568085,61.7066111 0.20110805,59.9485084 1.43794327,58.77644 L10.4212728,49.9859267 L1.43794327,41.1954134 C0.20110805,40.023345 -0.254568085,38.2652423 0.136011459,36.6373695 C0.591687595,35.0094966 1.89361941,33.7071984 3.52103418,33.3165089 L15.7591932,30.190993 L12.3090739,18.0796192 C11.8533978,16.4517463 12.3090739,14.6936437 13.5459092,13.5215752 C14.7176478,12.2843919 16.4752557,11.8285875 18.1026705,12.2843919 L30.2106364,15.7354823 L33.3352728,3.4938786 C33.7258523,1.86600577 35.0277841,0.563707504 36.6551989,0.173018025 C38.2826137,-0.282786368 40.0402216,0.173018025 41.2119602,1.41020138 L50,10.4611743 L58.7880398,1.41020138 C59.9597784,0.173018025 61.6522898,-0.282786368 63.3448011,0.173018025 C64.9722159,0.563707504 66.2741477,1.86600577 66.6647272,3.4938786 L69.7893636,15.7354823 L81.8973295,12.2843919 C83.5247443,11.8285875 85.2823522,12.2843919 86.4540908,13.5215752 C87.6909261,14.6936437 88.1466022,16.4517463 87.6909261,18.0796192 L84.2408068,30.190993 L96.4789658,33.3165089 C98.1063806,33.7071984 99.4083124,35.0094966 99.8639885,36.6373695 C100.254568,38.2652423 99.7988919,40.023345 98.5620567,41.1954134 L89.5787272,49.9859267 Z" id="Shape"></path>
        </g>
    </g>
</svg>