<?xml version="1.0" encoding="UTF-8"?>
<svg width="100px" height="100px" viewBox="0 0 100 100" version="1.1" xmlns="http://www.w3.org/2000/svg" xmlns:xlink="http://www.w3.org/1999/xlink">
    <!-- Generator: Sketch 41.2 (35397) - http://www.bohemiancoding.com/sketch -->
    <title>excite</title>
    <desc>Created with Sketch.</desc>
    <defs></defs>
    <g id="Page-1" stroke="none" stroke-width="1" fill="none" fill-rule="evenodd">
        <g id="excite" fill="#000000">
            <path d="M46.017521,29.9913663 L38.847219,23.0757969 L38.6658999,33.0370815 L29.3915498,29.3915498 L33.0370815,38.6658999 L23.0757969,38.847219 L29.9914593,46.0176174 L20.854733,49.9988449 L29.9912732,53.9791942 L23.0739335,61.1523564 L33.0370815,61.3337095 L29.3915498,70.6080596 L38.6659024,66.9625269 L38.8472268,76.9242187 L46.0176595,70.0086372 L49.9988449,79.145267 L53.9791522,70.0088232 L61.1523486,76.9260821 L61.333707,66.9625269 L70.6080596,70.6080596 L66.9625269,61.333707 L76.9260821,61.1523486 L70.0088232,53.9791522 L79.145267,49.9988449 L70.0086372,46.0176595 L76.9242187,38.8472268 L66.9625269,38.6659024 L70.6080596,29.3915498 L61.3337095,33.0370815 L61.1523564,23.0739335 L53.9790977,29.9913662 L49.9988218,20.854733 L46.017521,29.9913663 Z M43.1705078,15.6724609 L49.9998047,0 L56.8273437,15.6724609 L69.1330078,3.80566406 L69.4441406,20.8986328 L85.3552734,14.6443359 L79.1009766,30.5554687 L96.1941406,30.8666016 L84.3275391,43.1705078 L100,49.9996094 L84.3275391,56.8273438 L96.1941406,69.1330078 L79.1009766,69.4441406 L85.3552734,85.3552734 L69.4441406,79.1009766 L69.1330078,96.1941406 L56.8273437,84.3275391 L49.9996094,100 L43.1705078,84.3275391 L30.8666016,96.1941406 L30.5554688,79.1009766 L14.6443359,85.3552734 L20.8986328,69.4441406 L3.80566406,69.1330078 L15.6724609,56.8273438 L0,49.9996094 L15.6724609,43.1705078 L3.80566406,30.8666016 L20.8986328,30.5554687 L14.6443359,14.6443359 L30.5554688,20.8986328 L30.8666016,3.80566406 L43.1705078,15.6724609 Z" id="Shape"></path>
        </g>
    </g>
</svg>