<?xml version="1.0" encoding="UTF-8"?>
<svg width="100px" height="100px" viewBox="0 0 100 100" version="1.1" xmlns="http://www.w3.org/2000/svg" xmlns:xlink="http://www.w3.org/1999/xlink">
    <!-- Generator: Sketch 41.2 (35397) - http://www.bohemiancoding.com/sketch -->
    <title>feed</title>
    <desc>Created with Sketch.</desc>
    <defs></defs>
    <g id="Page-1" stroke="none" stroke-width="1" fill="none" fill-rule="evenodd">
        <g id="feed" fill="#000000">
            <path d="M27.2706521,86.357065 C27.2706521,93.8849012 21.1631623,99.992391 13.635326,99.992391 C6.10748979,99.992391 0,93.8849012 0,86.357065 C0,78.8292287 6.10748979,72.7217389 13.635326,72.7217389 C21.1631623,72.7217389 27.2706521,78.8292287 27.2706521,86.357065 Z M63.6315215,95.0921957 C63.7025389,96.3705075 63.2764349,97.577802 62.4242271,98.5010272 C61.5720192,99.4952697 60.3647247,99.992391 59.0864129,99.992391 L49.4990742,99.992391 C47.1555026,99.992391 45.2380348,98.2169579 45.0249829,95.8733863 C42.9654805,74.2131027 25.7792883,57.0269105 4.11900474,54.9674081 C1.77543308,54.7543562 0,52.8368884 0,50.4933168 L0,40.9059781 C0,39.6276663 0.497121262,38.4203718 1.49136379,37.5681639 C2.27255434,36.7869734 3.40883151,36.3608695 4.54510868,36.3608695 L4.9001953,36.3608695 C20.0268851,37.5681639 34.3013671,44.172775 45.0249829,54.9674081 C55.819616,65.6910239 62.4242271,79.9655059 63.6315215,95.0921957 Z M99.992391,95.2342303 C100.063408,96.4415248 99.6373044,97.6488193 98.7140792,98.5720445 C97.8618713,99.4952697 96.7255941,99.992391 95.4472823,99.992391 L85.2918051,99.992391 C82.8772161,99.992391 80.8887311,98.1459406 80.7466964,95.7313516 C78.4031248,54.4702869 45.5221041,21.5892662 4.26103939,19.1746773 C1.8464504,19.0326426 0,17.0441576 0,14.7005859 L0,4.54510868 C0,3.26679687 0.497121262,2.13051969 1.42034646,1.27831182 C2.27255434,0.426103939 3.40883151,0 4.54510868,0 L4.75816065,0 C29.6142238,1.27831182 52.9789231,11.7178583 70.5912192,29.4011718 C88.2745327,47.0134679 98.7140792,70.3781672 99.992391,95.2342303 Z" id="Shape"></path>
        </g>
    </g>
</svg>