<?xml version="1.0" encoding="UTF-8"?>
<svg width="100px" height="100px" viewBox="0 0 100 100" version="1.1" xmlns="http://www.w3.org/2000/svg" xmlns:xlink="http://www.w3.org/1999/xlink">
    <title>field</title>
    <g id="Page-1" stroke="none" stroke-width="1" fill="none" fill-rule="evenodd">
        <g id="field" fill-rule="nonzero" fill="#000000">
            <path d="M49.5535714,66.0714286 L56.0267857,59.5982143 L47.5446429,51.1160714 L41.0714286,57.5892857 L41.0714286,60.7142857 L46.4285714,60.7142857 L46.4285714,66.0714286 L49.5535714,66.0714286 Z M74.1071429,25.8928571 C73.6049107,25.390625 72.7678571,25.4464286 72.265625,25.9486607 L52.734375,45.4799107 C52.2321429,45.9821429 52.1763393,46.8191964 52.6785714,47.3214286 C53.1808036,47.8236607 54.0178571,47.7678571 54.5200893,47.265625 L74.0513393,27.734375 C74.5535714,27.2321429 74.609375,26.3950893 74.1071429,25.8928571 Z M78.5714286,59.0401786 L78.5714286,69.6428571 C78.5714286,78.515625 71.3727679,85.7142857 62.5,85.7142857 L16.0714286,85.7142857 C7.19866071,85.7142857 0,78.515625 0,69.6428571 L0,23.2142857 C0,14.3415179 7.19866071,7.14285714 16.0714286,7.14285714 L62.5,7.14285714 C64.7321429,7.14285714 66.9642857,7.58928571 69.0290179,8.53794643 C69.53125,8.76116071 69.921875,9.26339286 70.0334821,9.82142857 C70.1450893,10.4352679 69.9776786,10.9933036 69.53125,11.4397321 L66.796875,14.1741071 C66.2946429,14.6763393 65.625,14.84375 65.0111607,14.6205357 C64.1741071,14.3973214 63.3370536,14.2857143 62.5,14.2857143 L16.0714286,14.2857143 C11.1607143,14.2857143 7.14285714,18.3035714 7.14285714,23.2142857 L7.14285714,69.6428571 C7.14285714,74.5535714 11.1607143,78.5714286 16.0714286,78.5714286 L62.5,78.5714286 C67.4107143,78.5714286 71.4285714,74.5535714 71.4285714,69.6428571 L71.4285714,62.6116071 C71.4285714,62.1651786 71.5959821,61.71875 71.9308036,61.3839286 L75.5022321,57.8125 C76.0602679,57.2544643 76.7857143,57.1428571 77.4553571,57.421875 C78.125,57.7008929 78.5714286,58.3147321 78.5714286,59.0401786 Z M73.2142857,17.8571429 L89.2857143,33.9285714 L51.7857143,71.4285714 L35.7142857,71.4285714 L35.7142857,55.3571429 L73.2142857,17.8571429 Z M97.9910714,25.2232143 L92.8571429,30.3571429 L76.7857143,14.2857143 L81.9196429,9.15178571 C83.984375,7.08705357 87.4441964,7.08705357 89.5089286,9.15178571 L97.9910714,17.6339286 C100.055804,19.6986607 100.055804,23.1584821 97.9910714,25.2232143 Z" id="Shape"></path>
        </g>
    </g>
</svg>