<?xml version="1.0" encoding="UTF-8"?>
<svg width="100px" height="100px" viewBox="0 0 100 100" version="1.1" xmlns="http://www.w3.org/2000/svg" xmlns:xlink="http://www.w3.org/1999/xlink">
    <title>folder-open</title>
    <g stroke="none" stroke-width="1" fill="none" fill-rule="evenodd">
        <g id="folder-open" fill-rule="nonzero" fill="#000000">
            <path d="M100,56.8531134 C100,58.1303885 99.201703,59.4076637 98.3501863,60.36562 L80.4683342,81.4406599 C77.3815859,85.0596062 71.1016498,87.9334753 66.4183076,87.9334753 L8.51516764,87.9334753 C6.59925492,87.9334753 3.88504524,87.3480575 3.88504524,84.9531666 C3.88504524,83.6758914 4.6833422,82.3986163 5.53485897,81.4406599 L23.416711,60.36562 C26.5034593,56.7466738 32.7833954,53.8728047 37.4667376,53.8728047 L95.3698776,53.8728047 C97.2857903,53.8728047 100,54.4582225 100,56.8531134 Z M81.7456094,38.5455029 L81.7456094,47.0606706 L37.4667376,47.0606706 C30.8142629,47.0606706 22.5651943,50.8392762 18.2543906,55.9483768 L0.0532197978,77.3427355 C0.0532197978,76.9169771 0,76.4379989 0,76.0122406 L0,24.9212347 C0,18.3751996 5.37519957,13 11.9212347,13 L28.95157,13 C35.4976051,13 40.8728047,18.3751996 40.8728047,24.9212347 L40.8728047,26.6242682 L69.8243747,26.6242682 C76.3704098,26.6242682 81.7456094,31.9994678 81.7456094,38.5455029 Z" id="Shape"></path>
        </g>
    </g>
</svg>