<?xml version="1.0" encoding="utf-8"?>
<svg version="1.1" id="Layer_1" xmlns="http://www.w3.org/2000/svg" xmlns:xlink="http://www.w3.org/1999/xlink" x="0px" y="0px"
	 viewBox="0 0 340 340" style="enable-background:new 0 0 340 340;" xml:space="preserve">
	<g>
	<path style="fill:hsl(210, 10%, 53%);" d="M50,293c-19.3,0-35-15.5-35-34.5V81.3c0-19,15.7-34.5,35-34.5h107.1l30,29.5h103c19.3,0,35,15.5,35,34.5v147.7
		c0,19-15.7,34.5-35,34.5H50z"/>
		<path style="fill:hsl(212, 50%, 93%);" d="M155,51.8l30,29.5h105c16.6,0,30,13.3,30,29.5v147.7c0,16.3-13.5,29.5-30,29.5H50c-16.6,0-30-13.3-30-29.5
		V81.3c0-16.2,13.5-29.5,30-29.5H155 M159.1,41.8H155H50c-22,0-40,17.7-40,39.5v177.2c0,21.8,17.9,39.5,40,39.5h240
		c22,0,40-17.7,40-39.5V110.8c0-21.8-17.9-39.5-40-39.5H189.1L162,44.7L159.1,41.8L159.1,41.8z"/>
</g>
</svg>
