<svg xmlns="http://www.w3.org/2000/svg" viewBox="0 0 100 100">
    <title>GitHub</title>
    <path fill="#181616" d="M50,1.23A50,50,0,0,0,34.2,98.68c2.5.46,3.41-1.09,3.41-2.41s0-4.33-.07-8.5c-13.91,3-16.84-6.7-16.84-6.7-2.27-5.78-5.55-7.31-5.55-7.31-4.54-3.1.34-3,.34-3,5,.35,7.66,5.15,7.66,5.15C27.61,83.5,34.85,81.3,37.7,80a10.68,10.68,0,0,1,3.17-6.68C29.77,72.07,18.1,67.78,18.1,48.62A19.33,19.33,0,0,1,23.25,35.2c-.51-1.26-2.23-6.35.49-13.23,0,0,4.2-1.34,13.75,5.13a47.39,47.39,0,0,1,25,0C72.07,20.63,76.26,22,76.26,22c2.73,6.88,1,12,.5,13.23a19.29,19.29,0,0,1,5.14,13.42c0,19.21-11.69,23.43-22.83,24.67,1.8,1.54,3.39,4.6,3.39,9.26,0,6.68-.06,12.08-.06,13.72,0,1.34.9,2.89,3.44,2.4A50,50,0,0,0,50,1.23Z"/>
</svg>
