<?xml version="1.0" encoding="UTF-8"?>
<svg width="100px" height="100px" viewBox="0 0 100 100" version="1.1" xmlns="http://www.w3.org/2000/svg" xmlns:xlink="http://www.w3.org/1999/xlink">
    <title>globe</title>
    <g stroke="none" stroke-width="1" fill="none" fill-rule="evenodd">
        <g id="globe" fill-rule="nonzero" fill="#000000">
            <path d="M49.875,3 C23.9867187,3 3,23.9867187 3,49.875 C3,75.7632812 23.9865234,96.75 49.875,96.75 C75.7632812,96.75 96.75,75.7632812 96.75,49.875 C96.75,23.9867187 75.7632812,3 49.875,3 Z M76.3976562,65.5 C77.2357422,61.5492187 77.7644531,57.35625 77.9365234,53 L90.3826172,53 C90.0568359,57.3162109 89.0519531,61.5072266 87.3867188,65.5 L76.3978516,65.5 L76.3976562,65.5 Z M23.3523437,34.25 C22.5144531,38.2005859 21.9855469,42.39375 21.8134766,46.75 L9.36796875,46.75 C9.69394531,42.4341797 10.6984375,38.2429688 12.3640625,34.25 L23.3525391,34.25 L23.3523437,34.25 Z M69.9958984,34.25 C70.9347656,38.2501953 71.4998047,42.4388672 71.6833984,46.75 L53,46.75 L53,34.25 L69.9958984,34.25 Z M53,28 L53,9.70546875 C54.4248047,10.1203125 55.8363281,10.815625 57.2212891,11.7921875 C59.8171875,13.6224609 62.3003906,16.4412109 64.403125,19.9451172 C65.8564453,22.3671875 67.1130859,25.0638672 68.1625,28.0003906 L53,28.0003906 L53,28 Z M35.346875,19.9447266 C37.4490234,16.4410156 39.9322266,13.6216797 42.5285156,11.7917969 C43.9134766,10.8152344 45.3251953,10.1193359 46.7498047,9.70507813 L46.7498047,28 L31.5873047,28 C32.6367188,25.0638672 33.8935547,22.3671875 35.3466797,19.9447266 L35.346875,19.9447266 Z M46.75,34.25 L46.75,46.75 L28.0669922,46.75 C28.2505859,42.4388672 28.815625,38.2501953 29.7542969,34.25 L46.7501953,34.25 L46.75,34.25 Z M12.3640625,65.5 C10.6984375,61.5072266 9.69394531,57.3162109 9.36796875,53 L21.8136719,53 C21.9857422,57.35625 22.5144531,61.5492187 23.3525391,65.5 L12.3640625,65.5 L12.3640625,65.5 Z M28.0669922,53 L46.75,53 L46.75,65.5 L29.7541016,65.5 C28.815625,61.5 28.2505859,57.3111328 28.0667969,53 L28.0669922,53 Z M46.75,71.75 L46.75,90.0447266 C45.3255859,89.6300781 43.9134766,88.934375 42.5287109,87.9578125 C39.9328125,86.1277344 37.4492187,83.3083984 35.3470703,79.8048828 C33.89375,77.3826172 32.6371094,74.6859375 31.5875,71.7496094 L46.7501953,71.7496094 L46.75,71.75 Z M64.403125,79.8052734 C62.3007812,83.3087891 59.8173828,86.128125 57.2214844,87.9582031 C55.8365234,88.9345703 54.4248047,89.6306641 53.0001953,90.0451172 L53.0001953,71.7501953 L68.1628906,71.7501953 C67.1134766,74.6863281 65.8566406,77.3830078 64.4033203,79.8054687 L64.403125,79.8052734 Z M53,65.5 L53,53 L71.6830078,53 C71.4994141,57.3111328 70.934375,61.5 69.9955078,65.5 L53,65.5 Z M77.9365234,46.75 C77.7644531,42.39375 77.2355469,38.2005859 76.3976562,34.25 L87.3863281,34.25 C89.0519531,38.2429687 90.0566406,42.4341797 90.3822266,46.75 L77.9363281,46.75 L77.9365234,46.75 Z M84.1189453,28 L74.7537109,28 C72.9335938,22.2615234 70.4201172,17.2289063 67.3984375,13.2119141 C71.5525391,15.1984375 75.3142578,17.8619141 78.6007813,21.1484375 C80.6984375,23.2458984 82.5425781,25.5371094 84.11875,27.9998047 L84.1189453,28 Z M21.1488281,21.1488281 C24.4357422,17.8619141 28.1978516,15.1984375 32.3511719,13.2123047 C29.3294922,17.2292969 26.8164062,22.2617188 24.9958984,28.0003906 L15.6310547,28.0001953 C17.2070312,25.5375 19.0511719,23.2462891 21.1488281,21.1490234 L21.1488281,21.1488281 Z M15.63125,71.75 L24.9960938,71.75 C26.8164062,77.4882812 29.3298828,82.5208984 32.3515625,86.5382812 C28.1976562,84.5517578 24.4357422,81.8882813 21.1492187,78.6013672 C19.0515625,76.5037109 17.2072266,74.2128906 15.63125,71.75 L15.63125,71.75 Z M78.6009766,78.6009766 C75.3144531,81.8878906 71.5519531,84.5515625 67.3986328,86.5378906 C70.4203125,82.5208984 72.9335938,77.4882812 74.7539063,71.7496094 L84.1191406,71.7496094 C82.5429688,74.2126953 80.6990234,76.5037109 78.6011719,78.6009766 L78.6009766,78.6009766 Z" id="Shape"></path>
        </g>
    </g>
</svg>