<?xml version="1.0" encoding="UTF-8"?>
<svg width="100px" height="100px" viewBox="0 0 100 100" version="1.1"
     xmlns="http://www.w3.org/2000/svg"
>
    <title>info-circle</title>
    <g stroke="none" stroke-width="1" fill="none"
       fill-rule="evenodd">
        <g id="info-circle" fill="#000000">
            <path d="M66.6666667,81.25 L66.6666667,70.8333333 C66.6666667,69.6614583 65.7552083,68.75 64.5833333,68.75 L58.3333333,68.75 L58.3333333,35.4166667 C58.3333333,34.2447917 57.421875,33.3333333 56.25,33.3333333 L35.4166667,33.3333333 C34.2447917,33.3333333 33.3333333,34.2447917 33.3333333,35.4166667 L33.3333333,45.8333333 C33.3333333,47.0052083 34.2447917,47.9166667 35.4166667,47.9166667 L41.6666667,47.9166667 L41.6666667,68.75 L35.4166667,68.75 C34.2447917,68.75 33.3333333,69.6614583 33.3333333,70.8333333 L33.3333333,81.25 C33.3333333,82.421875 34.2447917,83.3333333 35.4166667,83.3333333 L64.5833333,83.3333333 C65.7552083,83.3333333 66.6666667,82.421875 66.6666667,81.25 Z M58.3333333,22.9166667 L58.3333333,12.5 C58.3333333,11.328125 57.421875,10.4166667 56.25,10.4166667 L43.75,10.4166667 C42.578125,10.4166667 41.6666667,11.328125 41.6666667,12.5 L41.6666667,22.9166667 C41.6666667,24.0885417 42.578125,25 43.75,25 L56.25,25 C57.421875,25 58.3333333,24.0885417 58.3333333,22.9166667 Z M100,50 C100,77.6041667 77.6041667,100 50,100 C22.3958333,100 0,77.6041667 0,50 C0,22.3958333 22.3958333,0 50,0 C77.6041667,0 100,22.3958333 100,50 Z"
                  id="Shape"></path>
        </g>
    </g>
</svg>