<?xml version="1.0" encoding="utf-8"?>
<!-- Generator: Adobe Illustrator 23.0.2, SVG Export Plug-In . SVG Version: 6.00 Build 0)  -->
<svg version="1.1" id="Layer_1" xmlns="http://www.w3.org/2000/svg" xmlns:xlink="http://www.w3.org/1999/xlink" x="0px" y="0px"
	 viewBox="0 0 416 448" style="enable-background:new 0 0 416 448;" xml:space="preserve">
<path d="M288,208c0-61.8-50.2-112-112-112S64,146.2,64,208s50.2,112,112,112S288,269.8,288,208z M416,416c0,17.5-14.5,32-32,32
	c-8.5,0-16.8-3.5-22.5-9.5L275.8,353c-29.2,20.2-64.2,31-99.8,31C78.8,384,0,305.2,0,208S78.8,32,176,32s176,78.8,176,176
	c0,35.5-10.8,70.5-31,99.8l85.8,85.8C412.5,399.2,416,407.5,416,416z"/>
</svg>
