<?xml version="1.0" encoding="UTF-8"?>
<svg width="100px" height="100px" viewBox="0 0 100 100" version="1.1" xmlns="http://www.w3.org/2000/svg" xmlns:xlink="http://www.w3.org/1999/xlink">
    <!-- Generator: Sketch 42 (36781) - http://www.bohemiancoding.com/sketch -->
    <title>newspaper</title>
    <desc>Created with Sketch.</desc>
    <defs></defs>
    <g id="Page-1" stroke="none" stroke-width="1" fill="none" fill-rule="evenodd">
        <g id="newspaper" fill-rule="nonzero" fill="#000000">
            <path d="M50,34.75 L31.25,34.75 L31.25,53.5 L50,53.5 L50,34.75 Z M56.25,66 L56.25,72.25 L25,72.25 L25,66 L56.25,66 Z M56.25,28.5 L56.25,59.75 L25,59.75 L25,28.5 L56.25,28.5 Z M87.5,66 L87.5,72.25 L62.5,72.25 L62.5,66 L87.5,66 Z M87.5,53.5 L87.5,59.75 L62.5,59.75 L62.5,53.5 L87.5,53.5 Z M87.5,41 L87.5,47.25 L62.5,47.25 L62.5,41 L87.5,41 Z M87.5,28.5 L87.5,34.75 L62.5,34.75 L62.5,28.5 L87.5,28.5 Z M12.5,75.375 L12.5,28.5 L6.25,28.5 L6.25,75.375 C6.25,77.0839844 7.66601562,78.5 9.375,78.5 C11.0839844,78.5 12.5,77.0839844 12.5,75.375 Z M93.75,75.375 L93.75,22.25 L18.75,22.25 L18.75,75.375 C18.75,76.4492188 18.5546875,77.5234375 18.2128906,78.5 L90.625,78.5 C92.3339844,78.5 93.75,77.0839844 93.75,75.375 Z M100,16 L100,75.375 C100,80.5507812 95.8007812,84.75 90.625,84.75 L9.375,84.75 C4.19921875,84.75 0,80.5507812 0,75.375 L0,22.25 L12.5,22.25 L12.5,16 L100,16 Z" id="Shape"></path>
        </g>
    </g>
</svg>