<?xml version="1.0" encoding="utf-8"?>
<svg version="1.1" xmlns="http://www.w3.org/2000/svg" xmlns:xlink="http://www.w3.org/1999/xlink" x="0px" y="0px"
     viewBox="0 0 326 458" style="enable-background:new 0 0 326 458;" xml:space="preserve">
<path d="M0 10C0 4.47716 4.47715 0 10 0H110C115.523 0 120 4.47715 120 10V448C120 453.523 115.523 458 110 458H10C4.47715 458 0 453.523 0 448V10Z"/>
<path d="M206 10C206 4.47716 210.477 0 216 0H316C321.523 0 326 4.47715 326 10V448C326 453.523 321.523 458 316 458H216C210.477 458 206 453.523 206 448V10Z"/>
</svg>
