<?xml version="1.0" encoding="UTF-8"?>
<svg width="100px" height="100px" viewBox="0 0 100 100" version="1.1" xmlns="http://www.w3.org/2000/svg" xmlns:xlink="http://www.w3.org/1999/xlink">
    <!-- Generator: Sketch 42 (36781) - http://www.bohemiancoding.com/sketch -->
    <title>photo</title>
    <desc>Created with Sketch.</desc>
    <defs></defs>
    <g id="Page-1" stroke="none" stroke-width="1" fill="none" fill-rule="evenodd">
        <g id="photo" fill-rule="nonzero" fill="#000000">
            <path d="M33.3333333,33.3333333 C33.3333333,38.8541667 28.8541667,43.3333333 23.3333333,43.3333333 C17.8125,43.3333333 13.3333333,38.8541667 13.3333333,33.3333333 C13.3333333,27.8125 17.8125,23.3333333 23.3333333,23.3333333 C28.8541667,23.3333333 33.3333333,27.8125 33.3333333,33.3333333 Z M86.6666667,53.3333333 L86.6666667,76.6666667 L13.3333333,76.6666667 L13.3333333,66.6666667 L30,50 L38.3333333,58.3333333 L65,31.6666667 L86.6666667,53.3333333 Z M91.6666667,16.6666667 L8.33333333,16.6666667 C7.44791667,16.6666667 6.66666667,17.4479167 6.66666667,18.3333333 L6.66666667,81.6666667 C6.66666667,82.5520833 7.44791667,83.3333333 8.33333333,83.3333333 L91.6666667,83.3333333 C92.5520833,83.3333333 93.3333333,82.5520833 93.3333333,81.6666667 L93.3333333,18.3333333 C93.3333333,17.4479167 92.5520833,16.6666667 91.6666667,16.6666667 Z M100,18.3333333 L100,81.6666667 C100,86.25 96.25,90 91.6666667,90 L8.33333333,90 C3.75,90 0,86.25 0,81.6666667 L0,18.3333333 C0,13.75 3.75,10 8.33333333,10 L91.6666667,10 C96.25,10 100,13.75 100,18.3333333 Z" id="Shape"></path>
        </g>
    </g>
</svg>