<?xml version="1.0" encoding="UTF-8"?>
<svg width="100px" height="100px" viewBox="0 0 100 100" version="1.1" xmlns="http://www.w3.org/2000/svg" xmlns:xlink="http://www.w3.org/1999/xlink">
    <title>plugin</title>
    <g stroke="none" stroke-width="1" fill="none" fill-rule="evenodd">
        <g id="plugin" fill-rule="nonzero" fill="#000000">
            <path d="M97.2838137,26.0970067 C100,28.8686253 100,33.3586475 97.2838137,36.1302661 L75.0554324,58.3032151 L83.3702882,66.618071 L74.5011086,75.4872506 C62.3614191,87.6269401 43.8470067,89.3453437 30.0997783,80.2544346 L10.0332594,100.320953 L0,100.320953 L0,90.287694 L20.0665188,70.2211752 C10.9756098,56.4739468 12.6940133,37.9595344 24.8337029,25.8198448 L33.7028825,16.9506652 L42.0177384,25.2655211 L64.1906874,3.03713969 C66.962306,0.320953437 71.4523282,0.320953437 74.2239468,3.03713969 C76.9955654,5.80875831 76.9955654,10.3542129 74.2239468,13.0703991 L52.0509978,35.2987805 L65.0221729,48.2699557 L87.2505543,26.0970067 C90.0221729,23.325388 94.5121951,23.325388 97.2838137,26.0970067 Z" id="Shape"></path>
        </g>
    </g>
</svg>