<?xml version="1.0" encoding="UTF-8"?>
<svg width="100px" height="100px" viewBox="0 0 100 100" version="1.1" xmlns="http://www.w3.org/2000/svg" xmlns:xlink="http://www.w3.org/1999/xlink">
    <title>routes</title>
    <g stroke="none" stroke-width="1" fill="none" fill-rule="evenodd">
        <g id="routes" fill-rule="nonzero" fill="#000000">
            <path d="M97.3772321,16.5736607 C98.1026786,17.2991071 98.1026786,18.4151786 97.3772321,19.140625 L89.5089286,27.0089286 C88.5044643,28.0133929 87.109375,28.5714286 85.7142857,28.5714286 L10.7142857,28.5714286 C8.76116071,28.5714286 7.14285714,26.953125 7.14285714,25 L7.14285714,10.7142857 C7.14285714,8.76116071 8.76116071,7.14285714 10.7142857,7.14285714 L42.8571429,7.14285714 L42.8571429,3.57142857 C42.8571429,1.61830357 44.4754464,0 46.4285714,0 L53.5714286,0 C55.5245536,0 57.1428571,1.61830357 57.1428571,3.57142857 L57.1428571,7.14285714 L85.7142857,7.14285714 C87.109375,7.14285714 88.5044643,7.70089286 89.5089286,8.70535714 L97.3772321,16.5736607 Z M42.8571429,67.8571429 L57.1428571,67.8571429 L57.1428571,96.4285714 C57.1428571,98.3816964 55.5245536,100 53.5714286,100 L46.4285714,100 C44.4754464,100 42.8571429,98.3816964 42.8571429,96.4285714 L42.8571429,67.8571429 Z M89.2857143,42.8571429 C91.2388393,42.8571429 92.8571429,44.4754464 92.8571429,46.4285714 L92.8571429,60.7142857 C92.8571429,62.6674107 91.2388393,64.2857143 89.2857143,64.2857143 L14.2857143,64.2857143 C12.890625,64.2857143 11.4955357,63.7276786 10.4910714,62.7232143 L2.62276786,54.8549107 C1.89732143,54.1294643 1.89732143,53.0133929 2.62276786,52.2879464 L10.4910714,44.4196429 C11.4955357,43.4151786 12.890625,42.8571429 14.2857143,42.8571429 L42.8571429,42.8571429 L42.8571429,32.1428571 L57.1428571,32.1428571 L57.1428571,42.8571429 L89.2857143,42.8571429 Z" id="Shape"></path>
        </g>
    </g>
</svg>