<?xml version="1.0" encoding="UTF-8"?>
<svg width="100px" height="100px" viewBox="0 0 100 100" version="1.1" xmlns="http://www.w3.org/2000/svg" xmlns:xlink="http://www.w3.org/1999/xlink">
    <title>search</title>
    <g stroke="none" stroke-width="1" fill="none" fill-rule="evenodd">
        <g id="search" fill="#000000">
            <path d="M69.2307692,42.3076923 C69.2307692,27.4639423 57.1514423,15.3846154 42.3076923,15.3846154 C27.4639423,15.3846154 15.3846154,27.4639423 15.3846154,42.3076923 C15.3846154,57.1514423 27.4639423,69.2307692 42.3076923,69.2307692 C57.1514423,69.2307692 69.2307692,57.1514423 69.2307692,42.3076923 Z M100,92.3076923 C100,96.5144231 96.5144231,100 92.3076923,100 C90.2644231,100 88.28125,99.1586538 86.8990385,97.7163462 L66.2860577,77.1634615 C59.2548077,82.03125 50.8413462,84.6153846 42.3076923,84.6153846 C18.9302885,84.6153846 0,65.6850962 0,42.3076923 C0,18.9302885 18.9302885,0 42.3076923,0 C65.6850962,0 84.6153846,18.9302885 84.6153846,42.3076923 C84.6153846,50.8413462 82.03125,59.2548077 77.1634615,66.2860577 L97.7764423,86.8990385 C99.1586538,88.28125 100,90.2644231 100,92.3076923 Z" id="Shape"></path>
        </g>
    </g>
</svg>