<?xml version="1.0" encoding="UTF-8"?>
<svg width="100px" height="100px" viewBox="0 0 100 100" version="1.1" xmlns="http://www.w3.org/2000/svg" xmlns:xlink="http://www.w3.org/1999/xlink">
    <title>sliders</title>
    <g stroke="none" stroke-width="1" fill="none" fill-rule="evenodd">
        <g id="sliders" fill-rule="nonzero" fill="#000000">
            <path d="M26.6428571,78.5714286 L26.6428571,85.7142857 L7,85.7142857 L7,78.5714286 L26.6428571,78.5714286 Z M46.2857143,71.4285714 C48.2388393,71.4285714 49.8571429,73.046875 49.8571429,75 L49.8571429,89.2857143 C49.8571429,91.2388393 48.2388393,92.8571429 46.2857143,92.8571429 L32,92.8571429 C30.046875,92.8571429 28.4285714,91.2388393 28.4285714,89.2857143 L28.4285714,75 C28.4285714,73.046875 30.046875,71.4285714 32,71.4285714 L46.2857143,71.4285714 Z M55.2142857,50 L55.2142857,57.1428571 L7,57.1428571 L7,50 L55.2142857,50 Z M19.5,21.4285714 L19.5,28.5714286 L7,28.5714286 L7,21.4285714 L19.5,21.4285714 Z M92.7142857,78.5714286 L92.7142857,85.7142857 L51.6428571,85.7142857 L51.6428571,78.5714286 L92.7142857,78.5714286 Z M39.1428571,14.2857143 C41.0959821,14.2857143 42.7142857,15.9040179 42.7142857,17.8571429 L42.7142857,32.1428571 C42.7142857,34.0959821 41.0959821,35.7142857 39.1428571,35.7142857 L24.8571429,35.7142857 C22.9040179,35.7142857 21.2857143,34.0959821 21.2857143,32.1428571 L21.2857143,17.8571429 C21.2857143,15.9040179 22.9040179,14.2857143 24.8571429,14.2857143 L39.1428571,14.2857143 Z M74.8571429,42.8571429 C76.8102679,42.8571429 78.4285714,44.4754464 78.4285714,46.4285714 L78.4285714,60.7142857 C78.4285714,62.6674107 76.8102679,64.2857143 74.8571429,64.2857143 L60.5714286,64.2857143 C58.6183036,64.2857143 57,62.6674107 57,60.7142857 L57,46.4285714 C57,44.4754464 58.6183036,42.8571429 60.5714286,42.8571429 L74.8571429,42.8571429 Z M92.7142857,50 L92.7142857,57.1428571 L80.2142857,57.1428571 L80.2142857,50 L92.7142857,50 Z M92.7142857,21.4285714 L92.7142857,28.5714286 L44.5,28.5714286 L44.5,21.4285714 L92.7142857,21.4285714 Z" id="Shape"></path>
        </g>
    </g>
</svg>