<?xml version="1.0" encoding="UTF-8"?>
<svg width="100px" height="100px" viewBox="0 0 100 100" version="1.1" xmlns="http://www.w3.org/2000/svg" xmlns:xlink="http://www.w3.org/1999/xlink">
    <!-- Generator: Sketch 42 (36781) - http://www.bohemiancoding.com/sketch -->
    <title>tags</title>
    <desc>Created with Sketch.</desc>
    <defs></defs>
    <g id="Page-1" stroke="none" stroke-width="1" fill="none" fill-rule="evenodd">
        <g id="tags" fill-rule="nonzero" fill="#000000">
            <path d="M23.5789474,26.8421053 C23.5789474,23.1052632 20.5789474,20.1052632 16.8421053,20.1052632 C13.1052632,20.1052632 10.1052632,23.1052632 10.1052632,26.8421053 C10.1052632,30.5789474 13.1052632,33.5789474 16.8421053,33.5789474 C20.5789474,33.5789474 23.5789474,30.5789474 23.5789474,26.8421053 Z M79.7368421,57.1578947 C79.7368421,58.9473684 79,60.6842105 77.7894737,61.8947368 L51.9473684,87.7894737 C50.6842105,89 48.9473684,89.7368421 47.1578947,89.7368421 C45.3684211,89.7368421 43.6315789,89 42.4210526,87.7894737 L4.78947368,50.1052632 C2.10526316,47.4736842 0,42.3684211 0,38.6315789 L0,16.7368421 C0,13.0526316 3.05263158,10 6.73684211,10 L28.6315789,10 C32.3684211,10 37.4736842,12.1052632 40.1578947,14.7894737 L77.7894737,52.3684211 C79,53.6315789 79.7368421,55.3684211 79.7368421,57.1578947 Z M99.9473684,57.1578947 C99.9473684,58.9473684 99.2105263,60.6842105 98,61.8947368 L72.1578947,87.7894737 C70.8947368,89 69.1578947,89.7368421 67.3684211,89.7368421 C64.6315789,89.7368421 63.2631579,88.4736842 61.4736842,86.6315789 L86.2105263,61.8947368 C87.4210526,60.6842105 88.1578947,58.9473684 88.1578947,57.1578947 C88.1578947,55.3684211 87.4210526,53.6315789 86.2105263,52.3684211 L48.5789474,14.7894737 C45.8947368,12.1052632 40.7894737,10 37.0526316,10 L48.8421053,10 C52.5789474,10 57.6842105,12.1052632 60.3684211,14.7894737 L98,52.3684211 C99.2105263,53.6315789 99.9473684,55.3684211 99.9473684,57.1578947 Z" id="Shape"></path>
        </g>
    </g>
</svg>