<?xml version="1.0" encoding="utf-8"?>
<!-- Generator: Adobe Illustrator 24.2.1, SVG Export Plug-In . SVG Version: 6.00 Build 0)  -->
<svg version="1.1" id="Layer_1" xmlns="http://www.w3.org/2000/svg" xmlns:xlink="http://www.w3.org/1999/xlink" x="0px" y="0px"
	 viewBox="0 0 384 448" style="enable-background:new 0 0 384 448;" xml:space="preserve">
<path d="M367,95c9.2,9.2,17,27.8,17,41v288c0,13.2-10.8,24-24,24H24c-13.2,0-24-10.8-24-24V24C0,10.8,10.8,0,24,0h224
	c13.2,0,31.8,7.8,41,17L367,95z M256,34v94h94c-1.5-4.2-3.8-8.5-5.5-10.2l-78.2-78.2C264.5,37.8,260.2,35.5,256,34z M352,416V160
	H248c-13.2,0-24-10.8-24-24V32H32v384H352z M120,192c2.8-3.5,7.8-4.2,11.2-1.5L144,200c3.5,2.8,4.2,7.8,1.5,11.2L100,272l45.5,60.8
	c2.8,3.5,2,8.5-1.5,11.2l-12.8,9.5c-3.5,2.8-8.5,2-11.2-1.5l-56.5-75.2c-2-2.8-2-6.8,0-9.5L120,192z M320.5,267.2c2,2.8,2,6.8,0,9.5
	L264,352c-2.8,3.5-7.8,4.2-11.2,1.5L240,344c-3.5-2.8-4.2-7.8-1.5-11.2L284,272l-45.5-60.8c-2.8-3.5-2-8.5,1.5-11.2l12.8-9.5
	c3.5-2.8,8.5-2,11.2,1.5L320.5,267.2z M165.5,382.5c-4.5-0.8-7.2-5-6.5-9.2l34.5-207.8c0.8-4.5,5-7.2,9.2-6.5l15.8,2.5
	c4.5,0.8,7.2,5,6.5,9.2l-34.5,207.8c-0.8,4.5-5,7.2-9.2,6.5L165.5,382.5z"/>
</svg>
