<?xml version="1.0" encoding="utf-8"?>
<!-- Generator: Adobe Illustrator 24.2.1, SVG Export Plug-In . SVG Version: 6.00 Build 0)  -->
<svg version="1.1" id="Layer_1" xmlns="http://www.w3.org/2000/svg" xmlns:xlink="http://www.w3.org/1999/xlink" x="0px" y="0px"
	 viewBox="0 0 256 448" style="enable-background:new 0 0 256 448;" xml:space="preserve">
<path d="M184,144c0,4.2-3.8,8-8,8s-8-3.8-8-8c0-17.2-26.8-24-40-24c-4.2,0-8-3.8-8-8s3.8-8,8-8C151.2,104,184,116.2,184,144z
	 M224,144c0-50-50.8-80-96-80s-96,30-96,80c0,16,6.5,32.8,17,45c4.8,5.5,10.2,10.8,15.2,16.5C82,226.8,97,251.8,99.5,280h57
	c2.5-28.2,17.5-53.2,35.2-74.5c5-5.8,10.5-11,15.2-16.5C217.5,176.8,224,160,224,144z M256,144c0,25.8-8.5,48-25.8,67
	s-40,45.8-42,72.5c7.2,4.2,11.8,12.2,11.8,20.5c0,6-2.2,11.8-6.2,16c4,4.2,6.2,10,6.2,16c0,8.2-4.2,15.8-11.2,20.2
	c2,3.5,3.2,7.8,3.2,11.8c0,16.2-12.8,24-27.2,24c-6.5,14.5-21,24-36.8,24s-30.2-9.5-36.8-24c-14.5,0-27.2-7.8-27.2-24
	c0-4,1.2-8.2,3.2-11.8c-7-4.5-11.2-12-11.2-20.2c0-6,2.2-11.8,6.2-16c-4-4.2-6.2-10-6.2-16c0-8.2,4.5-16.2,11.8-20.5
	c-2-26.8-24.8-53.5-42-72.5S0,169.8,0,144C0,76,64.8,32,128,32S256,76,256,144z"/>
</svg>
