<?xml version="1.0" encoding="UTF-8"?>
<svg width="100px" height="100px" viewBox="0 0 100 100" version="1.1" xmlns="http://www.w3.org/2000/svg" xmlns:xlink="http://www.w3.org/1999/xlink">
    <!-- Generator: Sketch 41.2 (35397) - http://www.bohemiancoding.com/sketch -->
    <title>trash</title>
    <desc>Created with Sketch.</desc>
    <defs></defs>
    <g id="Page-1" stroke="none" stroke-width="1" fill="none" fill-rule="evenodd">
        <g id="trash" fill="#000000">
            <path d="M37.3333333,39.5833333 L37.3333333,77.0833333 C37.3333333,78.2552083 36.421875,79.1666667 35.25,79.1666667 L31.0833333,79.1666667 C29.9114583,79.1666667 29,78.2552083 29,77.0833333 L29,39.5833333 C29,38.4114583 29.9114583,37.5 31.0833333,37.5 L35.25,37.5 C36.421875,37.5 37.3333333,38.4114583 37.3333333,39.5833333 Z M54,39.5833333 L54,77.0833333 C54,78.2552083 53.0885417,79.1666667 51.9166667,79.1666667 L47.75,79.1666667 C46.578125,79.1666667 45.6666667,78.2552083 45.6666667,77.0833333 L45.6666667,39.5833333 C45.6666667,38.4114583 46.578125,37.5 47.75,37.5 L51.9166667,37.5 C53.0885417,37.5 54,38.4114583 54,39.5833333 Z M70.6666667,39.5833333 L70.6666667,77.0833333 C70.6666667,78.2552083 69.7552083,79.1666667 68.5833333,79.1666667 L64.4166667,79.1666667 C63.2447917,79.1666667 62.3333333,78.2552083 62.3333333,77.0833333 L62.3333333,39.5833333 C62.3333333,38.4114583 63.2447917,37.5 64.4166667,37.5 L68.5833333,37.5 C69.7552083,37.5 70.6666667,38.4114583 70.6666667,39.5833333 Z M79,86.71875 L79,25 L20.6666667,25 L20.6666667,86.71875 C20.6666667,89.84375 22.4244792,91.6666667 22.75,91.6666667 L76.9166667,91.6666667 C77.2421875,91.6666667 79,89.84375 79,86.71875 Z M35.25,16.6666667 L64.4166667,16.6666667 L61.2916667,9.04947917 C61.0963542,8.7890625 60.5104167,8.3984375 60.1848958,8.33333333 L39.546875,8.33333333 C39.15625,8.3984375 38.6354167,8.7890625 38.4401042,9.04947917 L35.25,16.6666667 Z M95.6666667,18.75 L95.6666667,22.9166667 C95.6666667,24.0885417 94.7552083,25 93.5833333,25 L87.3333333,25 L87.3333333,86.71875 C87.3333333,93.8802083 82.6458333,100 76.9166667,100 L22.75,100 C17.0208333,100 12.3333333,94.140625 12.3333333,86.9791667 L12.3333333,25 L6.08333333,25 C4.91145833,25 4,24.0885417 4,22.9166667 L4,18.75 C4,17.578125 4.91145833,16.6666667 6.08333333,16.6666667 L26.2005208,16.6666667 L30.7578125,5.79427083 C32.0598958,2.60416667 35.9661458,0 39.4166667,0 L60.25,0 C63.7005208,0 67.6067708,2.60416667 68.9088542,5.79427083 L73.4661458,16.6666667 L93.5833333,16.6666667 C94.7552083,16.6666667 95.6666667,17.578125 95.6666667,18.75 Z" id="Shape"></path>
        </g>
    </g>
</svg>