<?xml version="1.0" encoding="UTF-8"?>
<svg width="100px" height="100px" viewBox="0 0 100 100" version="1.1" xmlns="http://www.w3.org/2000/svg" xmlns:xlink="http://www.w3.org/1999/xlink">
    <title>Artboard</title>
    <g id="Artboard" stroke="none" stroke-width="1" fill="none" fill-rule="evenodd">
        <path d="M80,0 C91.045695,-2.02906125e-15 100,8.954305 100,20 L100,80 C100,91.045695 91.045695,100 80,100 L20,100 C8.954305,100 1.3527075e-15,91.045695 0,80 L0,20 C-1.3527075e-15,8.954305 8.954305,2.02906125e-15 20,0 L80,0 Z M50,25 C49.5,25 48.9375,25.1875 48.5625,25.5625 L26.625,47.5 C26.25,47.9375 26,48.4375 26,49 C26,50.125 26.875,51 28,51 L42,51 L42,73 C42,74.0625 42.9375,75 44,75 L56,75 C57.0625,75 58,74.0625 58,73 L58,51 L72,51 C73.125,51 74,50.0625 74,49 C74,48.5 73.8125,47.9375 73.4375,47.5625 L51.4375,25.5625 C51.0625,25.1875 50.5625,25 50,25 Z" id="Combined-Shape" fill="#000000"></path>
    </g>
</svg>