<?xml version="1.0" encoding="UTF-8"?>
<svg width="100px" height="100px" viewBox="0 0 100 100" version="1.1" xmlns="http://www.w3.org/2000/svg" xmlns:xlink="http://www.w3.org/1999/xlink">
    <!-- Generator: Sketch 41.2 (35397) - http://www.bohemiancoding.com/sketch -->
    <title>users</title>
    <desc>Created with Sketch.</desc>
    <defs></defs>
    <g id="Page-1" stroke="none" stroke-width="1" fill="none" fill-rule="evenodd">
        <g id="users" fill="#000000">
            <path d="M30.8855382,49.6663699 C25.468906,49.8226189 20.5731038,52.166354 17.0835427,56.3329941 L10.1044204,56.3329941 C4.89612019,56.3329941 0.000317992211,53.83301 0.000317992211,48.0517968 C0.000317992211,43.8330736 -0.155931014,29.6664971 6.45861025,29.6664971 C7.5523533,29.6664971 12.9689855,34.0935522 20.0001908,34.0935522 C22.3960089,34.0935522 24.687661,33.6768882 26.9272301,32.8956432 C26.7709811,34.0414692 26.6668151,35.1872953 26.6668151,36.3331213 C26.6668151,41.0726745 28.1772221,45.7601447 30.8855382,49.6663699 Z M86.6664335,82.8432422 C86.6664335,91.2806885 81.0935522,96.3327397 72.7602719,96.3327397 L27.2397281,96.3327397 C18.9064478,96.3327397 13.3335665,91.2806885 13.3335665,82.8432422 C13.3335665,71.0724837 16.0939656,52.999682 31.3542853,52.999682 C33.1251073,52.999682 39.5833996,60.2392193 50,60.2392193 C60.4166004,60.2392193 66.8748927,52.999682 68.6457147,52.999682 C83.9060344,52.999682 86.6664335,71.0724837 86.6664335,82.8432422 Z M33.3334393,16.3332485 C33.3334393,23.6769518 27.3438941,29.6664971 20.0001908,29.6664971 C12.6564875,29.6664971 6.66694226,23.6769518 6.66694226,16.3332485 C6.66694226,8.98954524 12.6564875,3 20.0001908,3 C27.3438941,3 33.3334393,8.98954524 33.3334393,16.3332485 Z M69.9998728,36.3331213 C69.9998728,47.3747178 61.0415964,56.3329941 50,56.3329941 C38.9584036,56.3329941 30.0001272,47.3747178 30.0001272,36.3331213 C30.0001272,25.2915249 38.9584036,16.3332485 50,16.3332485 C61.0415964,16.3332485 69.9998728,25.2915249 69.9998728,36.3331213 Z M99.999682,48.0517968 C99.999682,53.83301 95.1038798,56.3329941 89.8955796,56.3329941 L82.9164573,56.3329941 C79.4268962,52.166354 74.531094,49.8226189 69.1144618,49.6663699 C71.8227779,45.7601447 73.3331849,41.0726745 73.3331849,36.3331213 C73.3331849,35.1872953 73.2290189,34.0414692 73.0727699,32.8956432 C75.312339,33.6768882 77.6039911,34.0935522 79.9998092,34.0935522 C87.0310145,34.0935522 92.4476467,29.6664971 93.5413897,29.6664971 C100.155931,29.6664971 99.999682,43.8330736 99.999682,48.0517968 Z M93.3330577,16.3332485 C93.3330577,23.6769518 87.3435125,29.6664971 79.9998092,29.6664971 C72.6561059,29.6664971 66.6665607,23.6769518 66.6665607,16.3332485 C66.6665607,8.98954524 72.6561059,3 79.9998092,3 C87.3435125,3 93.3330577,8.98954524 93.3330577,16.3332485 Z" id="Shape"></path>
        </g>
    </g>
</svg>