<?xml version="1.0" encoding="UTF-8"?>
<svg width="100px" height="100px" viewBox="0 0 100 100" version="1.1" xmlns="http://www.w3.org/2000/svg" xmlns:xlink="http://www.w3.org/1999/xlink">
    <!-- Generator: Sketch 42 (36781) - http://www.bohemiancoding.com/sketch -->
    <title>group</title>
    <desc>Created with Sketch.</desc>
    <defs></defs>
    <g id="Page-1" stroke="none" stroke-width="1" fill="none" fill-rule="evenodd">
        <g id="group" fill-rule="nonzero" fill="#000000">
            <path d="M30.9647303,50.473029 C25.5705394,50.6286307 20.6950207,52.9626556 17.219917,57.1120332 L10.2697095,57.1120332 C5.08298755,57.1120332 0.20746888,54.6224066 0.20746888,48.8651452 C0.20746888,44.6639004 0.0518672199,30.5560166 6.63900415,30.5560166 C7.72821577,30.5560166 13.1224066,34.9647303 20.1244813,34.9647303 C22.5103734,34.9647303 24.7925311,34.5497925 27.0228216,33.7717842 C26.8672199,34.9128631 26.7634855,36.0539419 26.7634855,37.1950207 C26.7634855,41.9149378 28.2676349,46.5829876 30.9647303,50.473029 Z M86.5145228,83.5124481 C86.5145228,91.9149378 80.9647303,96.9460581 72.6659751,96.9460581 L27.3340249,96.9460581 C19.0352697,96.9460581 13.4854772,91.9149378 13.4854772,83.5124481 C13.4854772,71.7904564 16.2344398,53.7925311 31.4315353,53.7925311 C33.1950207,53.7925311 39.626556,61.0020747 50,61.0020747 C60.373444,61.0020747 66.8049793,53.7925311 68.5684647,53.7925311 C83.7655602,53.7925311 86.5145228,71.7904564 86.5145228,83.5124481 Z M33.4024896,17.2780083 C33.4024896,24.5912863 27.4377593,30.5560166 20.1244813,30.5560166 C12.8112033,30.5560166 6.84647303,24.5912863 6.84647303,17.2780083 C6.84647303,9.96473029 12.8112033,4 20.1244813,4 C27.4377593,4 33.4024896,9.96473029 33.4024896,17.2780083 Z M69.9170124,37.1950207 C69.9170124,48.1908714 60.9958506,57.1120332 50,57.1120332 C39.0041494,57.1120332 30.0829876,48.1908714 30.0829876,37.1950207 C30.0829876,26.1991701 39.0041494,17.2780083 50,17.2780083 C60.9958506,17.2780083 69.9170124,26.1991701 69.9170124,37.1950207 Z M99.7925311,48.8651452 C99.7925311,54.6224066 94.9170124,57.1120332 89.7302905,57.1120332 L82.780083,57.1120332 C79.3049793,52.9626556 74.4294606,50.6286307 69.0352697,50.473029 C71.7323651,46.5829876 73.2365145,41.9149378 73.2365145,37.1950207 C73.2365145,36.0539419 73.1327801,34.9128631 72.9771784,33.7717842 C75.2074689,34.5497925 77.4896266,34.9647303 79.8755187,34.9647303 C86.8775934,34.9647303 92.2717842,30.5560166 93.3609959,30.5560166 C99.9481328,30.5560166 99.7925311,44.6639004 99.7925311,48.8651452 Z M93.153527,17.2780083 C93.153527,24.5912863 87.1887967,30.5560166 79.8755187,30.5560166 C72.5622407,30.5560166 66.5975104,24.5912863 66.5975104,17.2780083 C66.5975104,9.96473029 72.5622407,4 79.8755187,4 C87.1887967,4 93.153527,9.96473029 93.153527,17.2780083 Z" id="Shape"></path>
        </g>
    </g>
</svg>