<?xml version="1.0" encoding="UTF-8"?>
<svg width="100px" height="100px" viewBox="0 0 100 100" version="1.1" xmlns="http://www.w3.org/2000/svg" xmlns:xlink="http://www.w3.org/1999/xlink">
    <title>search</title>
    <g stroke="none" stroke-width="1" fill="none" fill-rule="evenodd">
        <g id="search" fill="#000000">
            <path d="M71.0445938,35.4917532 L88.9431888,17.5931582 L82.4068418,11.0568112 L64.5082468,28.9554062 L71.0445938,35.4917532 Z M98.3506414,17.5931582 C98.3506414,18.6316432 97.9841173,19.6090409 97.251069,20.3420892 L18.6927306,98.9004276 C17.9596823,99.6334759 16.9822847,100 15.9437996,100 C14.9053146,100 13.9279169,99.6334759 13.1948687,98.9004276 L1.09957239,86.8051313 C0.36652413,86.0720831 0,85.0946854 0,84.0562004 C0,83.0177153 0.36652413,82.0403177 1.09957239,81.3072694 L79.6579108,2.74893097 C80.3909591,2.01588271 81.3683568,1.64935858 82.4068418,1.64935858 C83.4453268,1.64935858 84.4227245,2.01588271 85.1557728,2.74893097 L97.251069,14.8442272 C97.9841173,15.5772755 98.3506414,16.5546732 98.3506414,17.5931582 Z M15.8216249,5.98656078 L21.8081857,7.81918143 L15.8216249,9.65180208 L13.9890043,15.6383629 L12.1563836,9.65180208 L6.16982285,7.81918143 L12.1563836,5.98656078 L13.9890043,0 L15.8216249,5.98656078 Z M37.2021991,15.8827123 L49.1753207,19.5479536 L37.2021991,23.2131949 L33.5369578,35.1863164 L29.8717166,23.2131949 L17.898595,19.5479536 L29.8717166,15.8827123 L33.5369578,3.90959071 L37.2021991,15.8827123 Z M94.0134392,45.0824679 L100,46.9150886 L94.0134392,48.7477092 L92.1808186,54.73427 L90.3481979,48.7477092 L84.3616371,46.9150886 L90.3481979,45.0824679 L92.1808186,39.0959071 L94.0134392,45.0824679 Z M54.9175321,5.98656078 L60.9040929,7.81918143 L54.9175321,9.65180208 L53.0849114,15.6383629 L51.2522908,9.65180208 L45.26573,7.81918143 L51.2522908,5.98656078 L53.0849114,0 L54.9175321,5.98656078 Z" id="Shape"></path>
        </g>
    </g>
</svg>