<?xml version="1.0" encoding="UTF-8"?>
<svg width="100px" height="100px" viewBox="0 0 100 100" version="1.1" xmlns="http://www.w3.org/2000/svg" xmlns:xlink="http://www.w3.org/1999/xlink">
    <!-- Generator: Sketch 47.1 (45422) - http://www.bohemiancoding.com/sketch -->
    <title>craftid*</title>
    <desc>Created with Sketch.</desc>
    <defs></defs>
    <g id="Icons" stroke="none" stroke-width="1" fill="none" fill-rule="evenodd">
        <g id="craftid*">
            <g id="Group">
                <circle id="Oval" fill="#0D78F2" cx="50" cy="50" r="50"></circle>
                <path d="M68.1428571,28.6428571 L68.1428571,71.3571429 C68.1428571,72.633935 67.6882486,73.72693 66.7790179,74.6361607 C65.8697871,75.5453915 64.7767921,76 63.5,76 L35.6428571,76 C34.366065,76 33.27307,75.5453915 32.3638393,74.6361607 C31.4546085,73.72693 31,72.633935 31,71.3571429 L31,28.6428571 C31,27.366065 31.4546085,26.27307 32.3638393,25.3638393 C33.27307,24.4546085 34.366065,24 35.6428571,24 L63.5,24 C64.7767921,24 65.8697871,24.4546085 66.7790179,25.3638393 C67.6882486,26.27307 68.1428571,27.366065 68.1428571,28.6428571 Z M45,28 C43.8954305,28 43,28.8954305 43,30 L43,31 C43,32.1045695 43.8954305,33 45,33 L54,33 C55.1045695,33 56,32.1045695 56,31 L56,30 C56,28.8954305 55.1045695,28 54,28 L45,28 Z M62.0965692,65.2686143 C62.0965692,64.3717479 62.0411297,63.5250133 61.9302489,62.728385 C61.8193681,61.9317567 61.6139156,61.1298647 61.3138852,60.3226851 C61.0138547,59.5155054 60.6323001,58.8244011 60.1692097,58.2493515 C59.7061193,57.674302 59.0930228,57.2047731 58.329902,56.8407509 C57.5667812,56.4767287 56.6895316,56.2947203 55.6981268,56.2947203 C53.9892579,57.6452955 51.966564,58.6975204 49.5924103,58.6975204 C47.2182567,58.6975204 45.1579895,57.6452955 43.4491207,56.2947203 C42.4577159,56.2947203 41.5804662,56.4767287 40.8173454,56.8407509 C40.0542246,57.2047731 39.4411282,57.674302 38.9780378,58.2493515 C38.5149474,58.8244011 38.1333927,59.5155054 37.8333623,60.3226851 C37.5333319,61.1298647 37.3278794,61.9317567 37.2169985,62.728385 C37.1061177,63.5250133 37.0506782,64.3717479 37.0506782,65.2686143 C37.0506782,66.4187134 37.4583221,67.4052516 38.2736221,68.2282583 C39.0889221,69.051265 40.0705286,69.4627622 41.218471,69.4627622 L57.9287764,69.4627622 C59.0767189,69.4627622 60.0583253,69.051265 60.8736253,68.2282583 C61.6889254,67.4052516 62.0965692,66.4187134 62.0965692,65.2686143 Z M54.8763085,44.7305628 C53.4152908,43.2565004 51.6477469,42.5194802 49.5736237,42.5194802 C47.4995005,42.5194802 45.7286954,43.2532392 44.2611554,44.7207793 C42.7936154,46.1883193 42.0598564,47.9591243 42.0598564,50.0332476 C42.0598564,52.1073708 42.7936154,53.8781758 44.2611554,55.3457159 C45.7286954,56.8132559 47.4995005,57.5470149 49.5736237,57.5470149 C51.6477469,57.5470149 53.418552,56.8132559 54.886092,55.3457159 C56.353632,53.8781758 57.087391,52.1073708 57.087391,50.0332476 C57.087391,47.9591243 56.3503709,46.1915804 54.8763085,44.7305628 Z" id="Combined-Shape" fill="#FFFFFF"></path>
            </g>
        </g>
    </g>
</svg>