<?xml version="1.0" encoding="utf-8"?>
<!-- Generator: Adobe Illustrator 27.1.1, SVG Export Plug-In . SVG Version: 6.00 Build 0)  -->
<svg version="1.1" id="Layer_1" xmlns:sketch="http://www.bohemiancoding.com/sketch/ns"
	 xmlns="http://www.w3.org/2000/svg" xmlns:xlink="http://www.w3.org/1999/xlink" x="0px" y="0px" viewBox="0 0 1000 1000"
	 style="enable-background:new 0 0 1000 1000;" xml:space="preserve">
<style type="text/css">
	.st0{fill-rule:evenodd;clip-rule:evenodd;fill:hsl(210, 10%, 53%);}
</style>
<path sketch:type="MSShapeGroup" class="st0" d="M592.1,662.3c33.9-36.1,59.6-92.7,86-159.7c15.3-38.8,12.7-71.9,12.7-119
	c0-34.8,6.6-90.6-2.1-121.3C659.4,158.6,585.5,130,498.8,130c-86.7,0-160.7,28.7-190,132.6c-8.6,30.6-2,86.3-2,121
	c0,47.2-2.6,80.4,12.8,119.3c26.6,67.3,51.9,123.8,85.7,159.7c-131.6,24.1-220.6,92.4-280.6,119C0.6,836.8,0,897.2,0,897.2v102.5
	l1000-0.1V897.2c0,0-0.6-60.5-125.2-115.7C814.4,754.8,724.8,686,592.1,662.3z"/>
</svg>
