<?xml version="1.0" encoding="utf-8"?>
<!-- Generator: Adobe Illustrator 24.0.3, SVG Export Plug-In . SVG Version: 6.00 Build 0)  -->
<svg version="1.1" id="Layer_1" xmlns="http://www.w3.org/2000/svg" xmlns:xlink="http://www.w3.org/1999/xlink" x="0px" y="0px"
	 viewBox="0 0 100 100" style="enable-background:new 0 0 100 100;" xml:space="preserve">
<title>Craft CMS icon</title>
<desc>Craft CMS icon</desc>
<style type="text/css">
	.st0{fill:#E5422B;}
</style>
<path class="st0" d="M89.6,0H10.5C4.7,0,0,4.7,0,10.5v78.9C0,95.3,4.7,100,10.5,100h79c5.7,0,10.5-4.7,10.5-10.5v-79
	C100.1,4.7,95.4,0,89.6,0z M49.8,60.9c3.3,0,6.8-1.3,10.2-4.3l4.7,5.4c-4.9,4-10.5,6.2-16.1,6.2c-11.1,0-18.1-7.4-16.5-17.8
	C33.7,40,43.2,32.6,54.4,32.6c5.4,0,10.4,2.1,13.9,6L61.7,44c-1.9-2.5-5-4.1-8.5-4.1c-6.7,0-11.8,4.3-12.9,10.5
	C39.3,56.6,43,60.9,49.8,60.9z"/>
</svg>
