<?xml version="1.0" standalone="no"?>
<!DOCTYPE svg PUBLIC "-//W3C//DTD SVG 20010904//EN"
 "http://www.w3.org/TR/2001/REC-SVG-20010904/DTD/svg10.dtd">
<svg version="1.0" xmlns="http://www.w3.org/2000/svg"
 width="700.000000pt" height="700.000000pt" viewBox="0 0 700.000000 700.000000"
 preserveAspectRatio="xMidYMid meet">
<metadata>
Created by potrace 1.11, written by Peter Selinger 2001-2013
</metadata>
<g transform="translate(0.000000,700.000000) scale(0.100000,-0.100000)"
fill="#000000" stroke="none">
<path d="M585 6983 c-298 -63 -529 -306 -575 -603 -8 -56 -10 -810 -8 -2925 3
-2706 4 -2853 21 -2910 10 -33 37 -98 60 -145 34 -70 58 -102 136 -181 79 -78
111 -102 181 -136 47 -23 112 -50 145 -60 57 -17 203 -18 2920 -21 2593 -2
2867 -1 2940 14 242 48 442 214 542 449 57 133 54 -46 51 3070 -3 2717 -4
2863 -21 2920 -77 255 -266 444 -522 522 -57 17 -193 18 -2930 20 -2517 1
-2879 0 -2940 -14z m3450 -2289 c260 -42 476 -149 679 -335 31 -28 55 -55 54
-60 -2 -4 -84 -74 -183 -155 -99 -81 -200 -164 -224 -185 l-44 -37 -50 54
c-141 155 -395 249 -622 230 -242 -20 -420 -101 -585 -266 -160 -160 -238
-334 -248 -552 -6 -145 7 -217 59 -325 110 -231 383 -354 711 -321 185 18 389
108 556 244 30 24 57 44 61 44 10 0 321 -357 321 -368 0 -14 -186 -144 -285
-200 -165 -94 -343 -162 -530 -203 -116 -26 -385 -36 -508 -20 -419 56 -744
277 -884 602 -56 129 -74 217 -80 384 -10 297 64 554 233 811 77 117 278 318
398 398 347 231 772 325 1171 260z"/>
</g>
</svg>
