<?xml version="1.0" encoding="UTF-8" standalone="no"?>
<svg width="20px" height="20px" viewBox="0 0 20 20" version="1.1" xmlns="http://www.w3.org/2000/svg" xmlns:xlink="http://www.w3.org/1999/xlink" xmlns:sketch="http://www.bohemiancoding.com/sketch/ns">
    <!-- Generator: Sketch 3.4 (15575) - http://www.bohemiancoding.com/sketch -->
    <title>feed</title>
    <desc>Created with Sketch.</desc>
    <defs></defs>
    <g id="Page-1" stroke="none" stroke-width="1" fill="none" fill-rule="evenodd" sketch:type="MSPage">
        <g id="feed" sketch:type="MSLayerGroup" fill="#000000">
            <path d="M0,2.93996127 L0,0.908973531 C0,0.643856251 0.0946847428,0.426081343 0.284054229,0.255648806 C0.454486766,0.0852162686 0.6627932,0 0.908973531,0 L0.951581666,0 C3.43232193,0.123090166 5.80654185,0.691198623 8.07424145,1.70432537 C10.341941,2.71745212 12.3563589,4.10931784 14.1174952,5.87992253 C15.8880998,7.64105875 17.2799656,9.65547665 18.2930923,11.9231762 C19.3062191,14.1908758 19.8743275,16.5650958 19.9974177,19.045836 C20.0163546,19.3014848 19.9311384,19.523994 19.7417689,19.7133635 C19.5713363,19.9027329 19.3535614,19.9974177 19.0884442,19.9974177 L17.0574564,19.9974177 C16.8112761,19.9974177 16.6006025,19.9145685 16.4254358,19.7488702 C16.250269,19.5831719 16.1579514,19.3819669 16.1484829,19.145255 C16.0348612,17.109533 15.5567032,15.1755972 14.714009,13.3434474 C13.8713148,11.5112976 12.7753389,9.92059393 11.4260813,8.57133635 C10.0768238,7.22207876 8.48612008,6.12610286 6.6539703,5.28340865 C4.82182053,4.44071444 2.88788466,3.95782225 0.852162686,3.83473209 C0.615450828,3.82526361 0.41424575,3.73294599 0.24854745,3.55777921 C0.08284915,3.38261244 0,3.17667312 0,2.93996127 L0,2.93996127 Z" id="Path" sketch:type="MSShapeGroup"></path>
            <path d="M0,10.0981278 L0,8.18076178 C0,7.90617603 0.09941898,7.68366688 0.29825694,7.51323434 C0.459221003,7.35227028 0.6627932,7.27178825 0.908973531,7.27178825 L0.979987088,7.27178825 C2.49494297,7.39487842 3.94361954,7.77598451 5.32601679,8.41510652 C6.70841403,9.05422853 7.93458145,9.91349258 9.00451904,10.9928986 C10.0839251,12.0628362 10.9431892,13.2890037 11.5823112,14.6714009 C12.2214332,16.0537981 12.6025393,17.5024747 12.7256294,19.0174306 C12.7445664,19.2825479 12.6640844,19.5097913 12.4841833,19.6991607 C12.3137508,19.8979987 12.0912417,19.9974177 11.8166559,19.9974177 L9.89928986,19.9974177 C9.66257801,19.9974177 9.45900581,19.9193028 9.28857327,19.763073 C9.11814074,19.6068431 9.02345599,19.4103723 9.00451904,19.1736604 C8.79621261,17.0053798 7.92274586,15.151926 6.38411879,13.6132989 C4.84549172,12.0746718 2.99203787,11.2012051 0.823757263,10.9928986 C0.587045406,10.9739617 0.390574564,10.879277 0.234344739,10.7088444 C0.0781149128,10.5384119 0,10.3348397 0,10.0981278 L0,10.0981278 Z" id="Path" sketch:type="MSShapeGroup"></path>
            <path d="M0,17.2704971 C0,16.5130192 0.26511728,15.8691629 0.79535184,15.3389283 C1.3255864,14.8086938 1.96944265,14.5435765 2.72692059,14.5435765 C3.48439854,14.5435765 4.12825479,14.8086938 4.65848935,15.3389283 C5.18872391,15.8691629 5.45384119,16.5130192 5.45384119,17.2704971 C5.45384119,18.027975 5.18872391,18.6718313 4.65848935,19.2020658 C4.12825479,19.7323004 3.48439854,19.9974177 2.72692059,19.9974177 C1.96944265,19.9974177 1.3255864,19.7323004 0.79535184,19.2020658 C0.26511728,18.6718313 0,18.027975 0,17.2704971 L0,17.2704971 Z" id="Path" sketch:type="MSShapeGroup"></path>
        </g>
    </g>
</svg>