<?xml version="1.0" encoding="UTF-8" standalone="no"?>
<svg width="20px" height="16px" viewBox="0 0 20 16" version="1.1" xmlns="http://www.w3.org/2000/svg" xmlns:xlink="http://www.w3.org/1999/xlink" xmlns:sketch="http://www.bohemiancoding.com/sketch/ns">
    <!-- Generator: Sketch 3.4 (15575) - http://www.bohemiancoding.com/sketch -->
    <title>get-help</title>
    <desc>Created with Sketch.</desc>
    <defs></defs>
    <g id="Page-1" stroke="none" stroke-width="1" fill="none" fill-rule="evenodd" sketch:type="MSPage">
        <g id="get-help" sketch:type="MSLayerGroup" fill="#000000">
            <path d="M15.7145089,5.71357147 C15.7145089,6.7477058 15.3647282,7.7037176 14.6651667,8.5816068 C13.9656053,9.45949607 13.0114684,10.1532244 11.8027561,10.6627918 C10.5940439,11.1723592 9.27887673,11.4271429 7.85725447,11.4271429 C7.21727447,11.4271429 6.56250325,11.3675614 5.89294085,11.2483985 C4.97046967,11.9029613 3.93633532,12.3791965 2.79053779,12.6771039 C2.5226295,12.7441851 2.2026395,12.8037665 1.83056779,12.8558483 L1.79681885,12.8558483 C1.71515473,12.8558483 1.63890712,12.8260575 1.568076,12.7664761 C1.49724488,12.7068946 1.45453788,12.628772 1.439955,12.5321084 C1.43245523,12.5096091 1.42870535,12.4854431 1.42870535,12.4596107 C1.42870535,12.4337781 1.43058029,12.4096122 1.43433018,12.3871129 C1.43808006,12.3646136 1.44557983,12.3423227 1.45682947,12.32024 L1.48495359,12.2646167 C1.48495359,12.2646167 1.49807819,12.2442007 1.52432737,12.2033687 C1.55057655,12.1625366 1.56536775,12.1439955 1.56870098,12.1477454 C1.57203421,12.1514953 1.58870035,12.1329542 1.61869941,12.0921221 C1.64869848,12.0512901 1.66348968,12.0346239 1.66307303,12.0421237 C1.70015521,11.9975417 1.78577753,11.904628 1.91994,11.7633824 C2.05410247,11.6221368 2.15076612,11.5123486 2.20993094,11.4340177 C2.26909576,11.3556868 2.35284314,11.2477735 2.46117309,11.1102778 C2.56950303,10.9727821 2.6624168,10.8294533 2.73991438,10.6802913 C2.81741195,10.5311293 2.89365957,10.3673843 2.96865723,10.1890566 C2.04618606,9.65324 1.32079206,8.99471893 0.792475233,8.21349333 C0.264158412,7.43226773 -9.2560868e-17,6.59896047 0,5.71357147 C0,4.67943713 0.349780736,3.72342533 1.04934221,2.84553607 C1.74890368,1.96764687 2.70304053,1.27391853 3.91175276,0.764351133 C5.12046499,0.254783733 6.43542389,0 7.85662947,0 C9.27783507,0 10.5930023,0.254783733 11.8021312,0.764351133 C13.0112601,1.27391853 13.9653969,1.96764687 14.6645417,2.84553607 C15.3636865,3.72342533 15.7134673,4.67943713 15.7138839,5.71357147 L15.7145089,5.71357147 L15.7145089,5.71357147 Z" id="Path" sketch:type="MSShapeGroup"></path>
            <path d="M20,8.57098213 C20,9.46387093 19.7358416,10.2990531 19.2075247,11.0765289 C18.6792079,11.8540045 17.9538139,12.5106507 17.0313428,13.0464673 C17.1059238,13.2252117 17.1821714,13.3889566 17.2600856,13.5377019 C17.3379999,13.6864473 17.4309136,13.8297761 17.5388269,13.9676885 C17.6467402,14.1056009 17.7304876,14.2135141 17.7900691,14.2914284 C17.8496505,14.3693426 17.9463142,14.4791309 18.08006,14.6207931 C18.2138058,14.7624553 18.2994281,14.8553691 18.336927,14.8995344 C18.3444267,14.9070341 18.3592179,14.9237003 18.3813006,14.9495328 C18.4033832,14.9753653 18.4200494,14.9939065 18.431299,15.0051561 C18.4425487,15.0164057 18.4573399,15.0349468 18.4756727,15.0607793 C18.4940054,15.0866119 18.50713,15.1070279 18.5150464,15.1220275 L18.5431705,15.1776507 C18.5431705,15.1776507 18.5506703,15.1999417 18.5656698,15.2445236 C18.5806693,15.2891055 18.5825443,15.3132715 18.5712947,15.3170213 C18.560045,15.3207712 18.5562951,15.3449371 18.560045,15.3895191 C18.5375457,15.4936825 18.4892139,15.5755549 18.4150495,15.6351364 C18.3408852,15.6947179 18.2590127,15.7207587 18.1694322,15.7132589 C17.7973605,15.6611773 17.4773705,15.6015958 17.2094622,15.5345145 C16.0636647,15.2370239 15.0295303,14.7607887 14.1070591,14.1058092 C13.4374967,14.2249721 12.7827255,14.2845536 12.1427455,14.2845536 C10.1265585,14.2845536 8.37057173,13.7935273 6.87478513,12.8114747 C7.30643833,12.8410571 7.6337198,12.8558483 7.85662947,12.8558483 C9.05450873,12.8558483 10.2040561,12.6883535 11.3052717,12.3533639 C12.4064873,12.0183744 13.3885399,11.5383894 14.2514297,10.9134089 C15.1814006,10.228847 15.8957533,9.44012167 16.3944877,8.54723287 C16.8932221,7.65434413 17.142381,6.70937367 17.1419643,5.71232147 C17.1419643,5.13942273 17.056342,4.57402373 16.8850973,4.01612447 C17.8450673,4.54444133 18.6040019,5.20671227 19.1619012,6.0029374 C19.7198004,6.79916253 19.9987501,7.6547608 19.9987501,8.5697322 L20,8.57098213 L20,8.57098213 Z" id="Path" sketch:type="MSShapeGroup"></path>
        </g>
    </g>
</svg>