<?xml version="1.0" encoding="UTF-8" standalone="no"?>
<svg width="30px" height="30px" viewBox="0 0 30 30" version="1.1" xmlns="http://www.w3.org/2000/svg" xmlns:xlink="http://www.w3.org/1999/xlink" xmlns:sketch="http://www.bohemiancoding.com/sketch/ns">
    <!-- Generator: Sketch 3.3.3 (12072) - http://www.bohemiancoding.com/sketch -->
    <title>get-help</title>
    <desc>Created with Sketch.</desc>
    <defs></defs>
    <g id="Dashboard" stroke="none" stroke-width="1" fill="none" fill-rule="evenodd" sketch:type="MSPage">
        <g id="Icons@2x" sketch:type="MSLayerGroup" transform="translate(0.000000, -46.000000)">
            <path d="M23.5717634,57.5703572 C23.5717634,59.1215587 23.0470923,60.5555764 21.9977501,61.8724102 C20.9484079,63.1892441 19.5172026,64.2298366 17.7041342,64.9941877 C15.8910659,65.7585388 13.9183151,66.1407144 11.7858817,66.1407144 C10.8259117,66.1407144 9.84375488,66.0513421 8.83941127,65.8725977 C7.45570451,66.854442 5.90450298,67.5687947 4.18580669,68.0156558 C3.78394425,68.1162776 3.30395925,68.2056498 2.74585169,68.2837724 L2.69522827,68.2837724 C2.5727321,68.2837724 2.45836068,68.2390863 2.352114,68.1497141 C2.24586732,68.0603419 2.18180682,67.943158 2.1599325,67.7981626 C2.14868285,67.7644136 2.14305803,67.7281647 2.14305803,67.689416 C2.14305803,67.6506672 2.14587044,67.6144183 2.15149527,67.5806694 C2.15712009,67.5469204 2.16836974,67.513484 2.18524421,67.48036 L2.22743039,67.3969251 C2.22743039,67.3969251 2.24711728,67.3663011 2.28649105,67.305053 C2.32586482,67.2438049 2.34805162,67.2159933 2.35305147,67.2216181 C2.35805131,67.2272429 2.38305053,67.1994313 2.42804912,67.1381832 C2.47304772,67.0769351 2.49523452,67.0519359 2.49460954,67.0631855 C2.55023281,66.9963126 2.67866629,66.856942 2.87991,66.6450736 C3.08115371,66.4332052 3.22614918,66.2685229 3.31489641,66.1510265 C3.40364364,66.0335302 3.52926471,65.8716603 3.69175963,65.6654167 C3.85425455,65.4591732 3.9936252,65.2441799 4.10987157,65.0204369 C4.22611793,64.7966939 4.34048936,64.5510765 4.45298584,64.2835849 C3.06927909,63.47986 1.98118809,62.4920784 1.18871285,61.32024 C0.396237618,60.1484016 -1.38841302e-16,58.8984407 0,57.5703572 C0,56.0191557 0.524671104,54.585138 1.57401331,53.2683041 C2.62335552,51.9514703 4.05456079,50.9108778 5.86762914,50.1465267 C7.68069748,49.3821756 9.65313584,49 11.7849442,49 C13.9167526,49 15.8895035,49.3821756 17.7031968,50.1465267 C19.5168901,50.9108778 20.9480954,51.9514703 21.9968126,53.2683041 C23.0455298,54.585138 23.5702009,56.0191557 23.5708259,57.5703572 L23.5717634,57.5703572 Z M30,61.8564732 C30,63.1958064 29.6037624,64.4485797 28.8112871,65.6147933 C28.0188119,66.7810068 26.9307209,67.7659761 25.5470142,68.5697009 C25.6588857,68.8378176 25.7732571,69.0834349 25.8901284,69.3065529 C26.0069998,69.5296709 26.1463704,69.7446642 26.3082404,69.9515328 C26.4701103,70.1584013 26.5957314,70.3202712 26.6851036,70.4371426 C26.7744758,70.5540139 26.9194713,70.7186963 27.12009,70.9311897 C27.3207087,71.143683 27.4491422,71.2830537 27.5053905,71.3493016 C27.5166401,71.3605512 27.5388269,71.3855505 27.5719509,71.4242992 C27.6050748,71.463048 27.6300741,71.4908597 27.6469485,71.5077341 C27.663823,71.5246086 27.6860098,71.5524202 27.713509,71.591169 C27.7410081,71.6299178 27.760695,71.6605419 27.7725696,71.6830412 L27.8147558,71.766476 C27.8147558,71.766476 27.8260054,71.7999125 27.8485047,71.8667854 C27.871004,71.9336583 27.8738164,71.9699072 27.856942,71.975532 C27.8400675,71.9811568 27.8344427,72.0174057 27.8400675,72.0842786 C27.8063186,72.2405237 27.7338208,72.3633324 27.6225743,72.4527046 C27.5113278,72.5420768 27.3885191,72.5811381 27.2541483,72.5698884 C26.6960407,72.4917659 26.2160557,72.4023937 25.8141933,72.3017718 C24.095497,71.8555358 22.5442955,71.1411831 21.1605887,70.1587138 C20.1562451,70.3374582 19.1740883,70.4268304 18.2141183,70.4268304 C15.1898378,70.4268304 12.5558576,69.6902909 10.3121777,68.217212 C10.9596575,68.2615856 11.4505797,68.2837724 11.7849442,68.2837724 C13.5817631,68.2837724 15.3060842,68.0325302 16.9579076,67.5300459 C18.6097309,67.0275616 20.0828099,66.3075841 21.3771445,65.3701134 C22.7721009,64.3432705 23.8436299,63.1601825 24.5917315,61.8208493 C25.3398331,60.4815162 25.7135715,59.0640605 25.7129465,57.5684822 C25.7129465,56.7091341 25.584513,55.8610356 25.327646,55.0241867 C26.767601,55.816662 27.9060029,56.8100684 28.7428518,58.0044061 C29.5797006,59.1987438 29.9981251,60.4821412 29.9981251,61.8545983 L30,61.8564732 Z" id="get-help" fill="#8F98A4" sketch:type="MSShapeGroup"></path>
            <g id="Slices"></g>
        </g>
    </g>
</svg>