<?xml version="1.0" encoding="UTF-8" standalone="no"?>
<svg width="32px" height="29px" viewBox="0 0 32 29" version="1.1" xmlns="http://www.w3.org/2000/svg" xmlns:xlink="http://www.w3.org/1999/xlink" xmlns:sketch="http://www.bohemiancoding.com/sketch/ns">
    <!-- Generator: Sketch 3.5.2 (25235) - http://www.bohemiancoding.com/sketch -->
    <title>new-users</title>
    <desc>Created with Sketch.</desc>
    <defs></defs>
    <g id="UI-Kit" stroke="none" stroke-width="1" fill="none" fill-rule="evenodd" sketch:type="MSPage">
        <g id="-Icons" sketch:type="MSArtboardGroup" transform="translate(-1292.000000, -1070.000000)" fill="#444444">
            <path d="M1314.967,1092.113 C1314.375,1092.02 1314.361,1090.405 1314.361,1090.405 C1314.361,1090.405 1316.101,1088.697 1316.48,1086.4 C1317.5,1086.4 1318.13,1083.958 1317.11,1083.099 C1317.153,1082.195 1318.421,1076 1311.998,1076 C1305.575,1076 1306.843,1082.195 1306.886,1083.099 C1305.866,1083.958 1306.496,1086.4 1307.516,1086.4 C1307.895,1088.697 1309.636,1090.405 1309.636,1090.405 C1309.636,1090.405 1309.622,1092.02 1309.03,1092.113 C1307.122,1092.414 1299.998,1095.529 1299.998,1098.945 L1323.998,1098.945 C1323.998,1095.529 1316.874,1092.414 1314.967,1092.113 L1314.967,1092.113 Z M1302.75,1092.658 C1304.128,1091.81 1305.801,1091.023 1307.173,1090.551 C1306.681,1089.85 1306.133,1088.897 1305.788,1087.768 C1305.307,1087.375 1304.915,1086.814 1304.663,1086.124 C1304.411,1085.433 1304.315,1084.66 1304.394,1083.946 C1304.45,1083.434 1304.596,1082.956 1304.821,1082.537 C1304.685,1081.081 1304.589,1078.223 1306.46,1076.139 C1307.185,1075.331 1308.102,1074.75 1309.201,1074.399 C1309.005,1072.375 1307.977,1070 1303.999,1070 C1297.575,1070 1298.844,1076.195 1298.887,1077.099 C1297.867,1077.958 1298.497,1080.4 1299.517,1080.4 C1299.896,1082.697 1301.637,1084.405 1301.637,1084.405 C1301.637,1084.405 1301.623,1086.02 1301.031,1086.113 C1299.123,1086.414 1292,1089.529 1292,1092.945 L1302.3,1092.945 C1302.447,1092.849 1302.597,1092.753 1302.752,1092.658 L1302.75,1092.658 Z" id="new-users" sketch:type="MSShapeGroup"></path>
        </g>
    </g>
</svg>