<?xml version="1.0" encoding="UTF-8" standalone="no"?>
<svg width="30px" height="30px" viewBox="0 0 30 30" version="1.1" xmlns="http://www.w3.org/2000/svg" xmlns:xlink="http://www.w3.org/1999/xlink" xmlns:sketch="http://www.bohemiancoding.com/sketch/ns">
    <!-- Generator: Sketch 3.3.3 (12072) - http://www.bohemiancoding.com/sketch -->
    <title>quick-post</title>
    <desc>Created with Sketch.</desc>
    <defs></defs>
    <g id="Dashboard" stroke="none" stroke-width="1" fill="none" fill-rule="evenodd" sketch:type="MSPage">
        <g id="Icons@2x" sketch:type="MSLayerGroup" transform="translate(0.000000, -94.000000)">
            <path d="M0.00104724894,118.747294 L0.00104724894,101.49701 C0.00104724894,101.078808 0.0740055919,100.796749 0.219922278,100.650833 C0.365838964,100.504916 0.641614518,100.431958 1.04724894,100.431958 L4.31885464,100.431958 L4.31885464,97.0462017 C4.31885464,96.6280003 4.39181298,96.349083 4.53772966,96.2094498 C4.68364635,96.0698166 4.9657054,96 5.38390681,96 L28.9491025,96 C29.3673039,96 29.6462212,96.0729583 29.7858544,96.218875 C29.9254876,96.3647917 29.9953042,96.6405673 29.9953042,97.0462017 L29.9953042,120.534948 C29.9953042,120.95315 29.9254876,121.235209 29.7858544,121.381125 C29.6462212,121.527042 29.3673039,121.6 28.9491025,121.6 L2.85375337,121.6 C2.4858199,121.6 2.13394426,121.508192 1.79812643,121.324574 C1.46230861,121.140956 1.16419174,120.912656 0.903775837,120.639673 C0.643359933,120.36669 0.427626651,120.06229 0.256575991,119.726472 C0.0855253302,119.390654 1.16267989e-16,119.064262 0,118.747294 L0.00104724894,118.747294 Z M1.78870119,118.747294 C1.81383517,118.924628 1.95032661,119.143503 2.19817553,119.403919 C2.44602444,119.664335 2.66489947,119.794194 2.85480062,119.793496 L28.2076502,119.793496 L28.2076502,97.7876539 L6.12640631,97.7876539 L6.12640631,118.195394 L4.31990188,118.195394 L4.31990188,102.237415 L1.78974844,102.237415 L1.78974844,118.746247 L1.78870119,118.747294 Z M8.4649132,116.217141 L8.4649132,114.886087 L25.6397958,114.886087 L25.6397958,116.217141 L8.4649132,116.217141 L8.4649132,116.217141 Z M8.4649132,112.089933 L8.4649132,110.758879 L25.6397958,110.758879 L25.6397958,112.089933 L8.4649132,112.089933 L8.4649132,112.089933 Z M8.4649132,108.076875 L8.4649132,100.08846 L16.4721786,100.08846 L16.4721786,108.076875 L8.4649132,108.076875 L8.4649132,108.076875 Z M18.9258829,106.631671 L18.9258829,105.300618 L25.6397958,105.300618 L25.6397958,106.631671 L18.9258829,106.631671 L18.9258829,106.631671 Z M18.9258829,102.504463 L18.9258829,101.17341 L25.6397958,101.17341 L25.6397958,102.504463 L18.9258829,102.504463 L18.9258829,102.504463 Z" id="quick-post" fill="#8F98A4" sketch:type="MSShapeGroup"></path>
            <g id="Slices"></g>
        </g>
    </g>
</svg>