<?xml version="1.0" encoding="UTF-8" standalone="no"?>
<svg width="20px" height="18px" viewBox="0 0 20 18" version="1.1" xmlns="http://www.w3.org/2000/svg" xmlns:xlink="http://www.w3.org/1999/xlink" xmlns:sketch="http://www.bohemiancoding.com/sketch/ns">
    <!-- Generator: Sketch 3.4 (15575) - http://www.bohemiancoding.com/sketch -->
    <title>quick-post</title>
    <desc>Created with Sketch.</desc>
    <defs></defs>
    <g id="Page-1" stroke="none" stroke-width="1" fill="none" fill-rule="evenodd" sketch:type="MSPage">
        <path d="M0.000698275259,15.1672367 L0.000698275259,3.66524704 C0.000698275259,3.38640206 0.049344785,3.19833329 0.146637805,3.10104073 C0.243930824,3.0037475 0.427809976,2.95510122 0.698275259,2.95510122 L2.87968717,2.95510122 L2.87968717,0.697576989 C2.87968717,0.418732409 2.92833368,0.232758433 3.0256267,0.13965506 C3.12291972,0.0465516866 3.31098852,0 3.58983311,0 L19.302423,0 C19.5812676,0 19.7672416,0.0486464811 19.8603449,0.14593951 C19.9534483,0.243232539 20,0.427111721 20,0.697576989 L20,16.3591926 C20,16.6380376 19.9534483,16.8261064 19.8603449,16.923399 C19.7672416,17.0206922 19.5812676,17.0693385 19.302423,17.0693385 L1.90280009,17.0693385 C1.65747271,17.0693385 1.42285222,17.0081236 1.19893862,16.8856924 C0.975025024,16.7632612 0.77624933,16.6110374 0.602611549,16.4290202 C0.428973768,16.2470031 0.285129064,16.044038 0.171077439,15.8201243 C0.0570258129,15.5962106 7.75241273e-17,15.3785818 0,15.1672367 L0.000698275259,15.1672367 L0.000698275259,15.1672367 Z M1.19265414,15.1672367 C1.20941275,15.2854779 1.30042129,15.4314174 1.46567977,15.6050553 C1.63093825,15.7786931 1.77687778,15.8652793 1.90349836,15.8648139 L18.8080441,15.8648139 L18.8080441,1.19195584 L4.08491027,1.19195584 L4.08491027,14.7992458 L2.88038544,14.7992458 L2.88038544,4.15892765 L1.19335242,4.15892765 L1.19335242,15.1665386 L1.19265414,15.1672367 L1.19265414,15.1672367 Z M5.64415893,13.480204 L5.64415893,12.5926958 L17.0958732,12.5926958 L17.0958732,13.480204 L5.64415893,13.480204 L5.64415893,13.480204 L5.64415893,13.480204 Z M5.64415893,10.7283013 L5.64415893,9.84079301 L17.0958732,9.84079301 L17.0958732,10.7283013 L5.64415893,10.7283013 L5.64415893,10.7283013 L5.64415893,10.7283013 Z M5.64415893,8.05251043 L5.64415893,2.7260667 L10.9831716,2.7260667 L10.9831716,8.05251043 L5.64415893,8.05251043 L5.64415893,8.05251043 L5.64415893,8.05251043 Z M12.6192305,7.08889027 L12.6192305,6.20138268 L17.0958732,6.20138268 L17.0958732,7.08889027 L12.6192305,7.08889027 L12.6192305,7.08889027 L12.6192305,7.08889027 Z M12.6192305,4.33698752 L12.6192305,3.44947994 L17.0958732,3.44947994 L17.0958732,4.33698752 L12.6192305,4.33698752 L12.6192305,4.33698752 L12.6192305,4.33698752 Z" id="quick-post" fill="#000000" sketch:type="MSShapeGroup"></path>
    </g>
</svg>