<?xml version="1.0" encoding="UTF-8" standalone="no"?>
<svg width="20px" height="20px" viewBox="0 0 20 20" version="1.1" xmlns="http://www.w3.org/2000/svg" xmlns:xlink="http://www.w3.org/1999/xlink" xmlns:sketch="http://www.bohemiancoding.com/sketch/ns">
    <!-- Generator: Sketch 3.4 (15575) - http://www.bohemiancoding.com/sketch -->
    <title>updates</title>
    <desc>Created with Sketch.</desc>
    <defs></defs>
    <g id="Page-1" stroke="none" stroke-width="1" fill="none" fill-rule="evenodd" sketch:type="MSPage">
        <g id="updates" sketch:type="MSLayerGroup" fill="#000000">
            <path d="M9.99968753,0 L11.3651845,3.13408133 L13.8262038,0.761178667 L13.8886979,4.179608 L17.0708996,2.92910067 L15.8203919,6.111302 L19.2388213,6.173796 L16.8659188,8.63419067 L20,9.99968733 L16.8659188,11.3651847 L19.2388213,13.826204 L15.8203919,13.888698 L17.0708996,17.0708993 L13.8886979,15.820392 L13.8262038,19.2388213 L11.3651845,16.8659187 L9.99968753,20 L8.63419053,16.8659187 L6.17379621,19.2388213 L6.11130207,15.820392 L2.9291004,17.0708993 L4.17960816,13.888698 L0.76117864,13.826204 L3.13408118,11.3651847 L0,9.99968733 L3.13408118,8.63419067 L0.76117864,6.173796 L4.17960816,6.111302 L2.9291004,2.92910067 L6.11130207,4.179608 L6.17379621,0.761178667 L8.63419053,3.13408133 L9.99968753,0 L9.99968753,0 Z" sketch:type="MSShapeGroup"></path>
        </g>
    </g>
</svg>