<?xml version="1.0" encoding="UTF-8" standalone="no"?>
<svg width="30px" height="30px" viewBox="0 0 30 30" version="1.1" xmlns="http://www.w3.org/2000/svg" xmlns:xlink="http://www.w3.org/1999/xlink" xmlns:sketch="http://www.bohemiancoding.com/sketch/ns">
    <!-- Generator: Sketch 3.3.3 (12072) - http://www.bohemiancoding.com/sketch -->
    <title>updates</title>
    <desc>Created with Sketch.</desc>
    <defs></defs>
    <g id="Dashboard" stroke="none" stroke-width="1" fill="none" fill-rule="evenodd" sketch:type="MSPage">
        <g id="Icons@2x" sketch:type="MSLayerGroup" transform="translate(0.000000, -190.000000)">
            <path d="M14.9995313,190 L17.0477768,194.701122 L20.7393057,191.141768 L20.8330469,196.269412 L25.6063494,194.393651 L23.7305878,199.166953 L28.858232,199.260694 L25.2988782,202.951286 L30,204.999531 L25.2988782,207.047777 L28.858232,210.739306 L23.7305878,210.833047 L25.6063494,215.606349 L20.8330469,213.730588 L20.7393057,218.858232 L17.0477768,215.298878 L14.9995313,220 L12.9512858,215.298878 L9.26069431,218.858232 L9.1669531,213.730588 L4.3936506,215.606349 L6.26941224,210.833047 L1.14176796,210.739306 L4.70112177,207.047777 L0,204.999531 L4.70112177,202.951286 L1.14176796,199.260694 L6.26941224,199.166953 L4.3936506,194.393651 L9.1669531,196.269412 L9.26069431,191.141768 L12.9512858,194.701122 L14.9995313,190 Z" id="updates" fill="#8F98A4" sketch:type="MSShapeGroup"></path>
            <g id="Slices"></g>
        </g>
    </g>
</svg>