<svg xmlns="http://www.w3.org/2000/svg" width="104" height="26" viewBox="0 0 104 26">
  <path fill="#596673" d="M36.0159091 15.3931818C34.3022727 15.3931818 33.3568182 14.3 33.5931818 12.7340909 33.8590909 11.1386364 35.1590909 10.075 36.8431818 10.075 37.7295455 10.075 38.5272727 10.4886364 39 11.1090909L40.6545455 9.75C39.7681818 8.74545455 38.4977273 8.24318182 37.1386364 8.24318182 34.3613636 8.24318182 31.9386364 10.1045455 31.525 12.7340909 31.1113636 15.3931818 32.8840909 17.225 35.6909091 17.225 37.1090909 17.225 38.5272727 16.6340909 39.7681818 15.6590909L38.5863636 14.3C37.7295455 15.0681818 36.8431818 15.3931818 36.0159091 15.3931818M47.125 8.33181818C47.125 8.33181818 46.7704545 8.27272727 46.7409091 8.27272727 46.3568182 8.21363636 45.9431818 8.24318182 45.5590909 8.27272727 45.2045455 8.30227273 44.85 8.36136364 44.4954545 8.47954545 44.2 8.56818182 43.875 8.68636364 43.6090909 8.86363636L43.6681818 8.45 41.6590909 8.45 40.3 17.0181818 42.3090909 17.0181818 43.1068182 12.025C43.1363636 11.7295455 43.2545455 11.4636364 43.4022727 11.2272727 43.55 10.9909091 43.7568182 10.7840909 43.9931818 10.6363636 44.2295455 10.4590909 44.4659091 10.3409091 44.7318182 10.2522727 44.9977273 10.1636364 45.2636364 10.1045455 45.5590909 10.075 45.9431818 10.0454545 46.3568182 10.075 46.7409091 10.1636364 46.7409091 10.1636364 46.7704545 10.1636364 46.7704545 10.1636364 46.8295455 10.1636364 47.125 8.33181818 47.125 8.33181818M54.1568182 8.98181818C53.5954545 8.50909091 52.7386364 8.24318182 51.7340909 8.24318182 49.2227273 8.24318182 46.9477273 10.0454545 46.5045455 12.7045455 46.0909091 15.3636364 47.8340909 17.1659091 50.2568182 17.1659091 51.35 17.1659091 52.2659091 17.0181818 53.0340909 16.4863636L52.975 16.9590909 54.8068182 16.9590909 56.1363636 8.45 54.2454545 8.45 54.1568182 8.98181818zM53.7431818 12.7045455L53.7431818 12.7045455C53.4772727 14.3295455 52.2659091 15.4522727 50.7 15.4522727 49.1045455 15.4522727 48.1886364 14.2704545 48.4545455 12.675 48.7204545 11.0795455 49.9909091 9.95681818 51.5568182 9.95681818 53.1227273 9.98636364 53.9795455 11.0795455 53.7431818 12.7045455L53.7431818 12.7045455zM65.4136364 8.45L65.7977273 6.02727273 63.4931818 7.68181818 63.375 8.47954545 60.775 8.47954545 61.0409091 6.85454545C61.1886364 6.08636364 62.0159091 6.11590909 62.0159091 6.11590909L62.9909091 6.11590909 63.2863636 4.34318182 62.1636364 4.34318182 61.8977273 4.34318182C59.15 4.34318182 59.0613636 6.47045455 59.0613636 6.47045455L58.8840909 7.475 58.7363636 8.47954545 58.5590909 8.47954545 56.3136364 10.2522727 58.4409091 10.2522727 57.0818182 18.9090909 59.15 18.9090909 60.5090909 10.2227273 63.1090909 10.2227273 62.0454545 17.0181818 64.0840909 17.0181818 65.1477273 10.2227273 67.6886364 10.2227273 67.9840909 8.45 65.4136364 8.45zM70.8795455 12.7340909C71.2931818 10.1045455 73.6863636 8.24318182 76.4931818 8.24318182 77.8522727 8.24318182 79.1227273 8.775 80.0090909 9.75L78.3545455 11.1090909C77.8818182 10.4886364 77.0840909 10.075 76.1977273 10.075 74.5136364 10.075 73.2136364 11.1681818 72.9477273 12.7340909 72.7113636 14.3 73.6568182 15.3931818 75.3704545 15.3931818 76.1977273 15.3931818 77.0840909 15.0681818 77.9409091 14.3L79.1227273 15.6590909C77.8818182 16.6636364 76.4636364 17.225 75.0454545 17.225 72.2386364 17.225 70.4659091 15.3931818 70.8795455 12.7340909M94.8113636 11.8181818L94.0136364 17.0181818 92.0045455 17.0181818 92.8022727 11.9659091C93.0090909 10.7840909 92.3590909 10.075 91.2068182 10.075 89.9954545 10.075 88.7840909 10.8136364 88.6068182 12.025L87.8090909 17.0181818 85.8 17.0181818 86.5977273 11.9659091C86.775 10.8136364 86.0954545 10.1045455 85.0022727 10.075 83.8795455 10.1340909 82.5795455 10.8431818 82.4022727 12.025L81.6045455 17.0181818 79.5954545 17.0181818 80.9545455 8.45 82.9636364 8.45 82.9045455 8.86363636C83.5840909 8.45 84.3522727 8.27272727 85.3272727 8.24318182L85.5045455 8.24318182C86.7454545 8.24318182 87.75 8.74545455 88.2818182 9.60227273 89.1090909 8.74545455 90.3795455 8.24318182 91.65 8.24318182 93.8363636 8.24318182 95.1659091 9.69090909 94.8113636 11.8181818M94.7227273 15.9840909L95.9636364 14.4477273C96.6431818 14.9795455 97.9431818 15.3931818 99.0363636 15.3931818 100.040909 15.3931818 101.045455 15.1863636 101.163636 14.5068182 101.252273 13.975 100.277273 13.7977273 99.1840909 13.6204545 96.9090909 13.2363636 95.7568182 12.7636364 95.9931818 11.05 96.3477273 8.89318182 98.5636364 8.27272727 100.395455 8.27272727 101.695455 8.27272727 103.054545 8.71590909 103.970455 9.33636364L102.729545 10.8727273C102.020455 10.4295455 101.104545 10.1045455 100.070455 10.1045455 98.8590909 10.1045455 98.15 10.4590909 98.0613636 11.0204545 98.0022727 11.4045455 98.3272727 11.5522727 99.7454545 11.7886364 101.813636 12.1431818 103.527273 12.4681818 103.202273 14.4477273 102.936364 16.25 101.104545 17.2545455 98.7113636 17.2545455 97.3818182 17.225 95.6681818 16.7522727 94.7227273 15.9840909M22.6022727 0L2.65909091 0C1.18181818 0 0 1.18181818 0 2.65909091L0 22.6022727C0 24.0795455 1.18181818 25.2613636 2.65909091 25.2613636L22.6022727 25.2613636C24.05 25.2613636 25.2613636 24.0795455 25.2613636 22.6022727L25.2613636 2.65909091C25.2613636 1.18181818 24.0795455 0 22.6022727 0M12.5863636 15.3931818C13.4136364 15.3931818 14.3 15.0681818 15.1568182 14.3L16.3386364 15.6590909C15.0977273 16.6636364 13.6795455 17.225 12.2613636 17.225 9.45454545 17.225 7.68181818 15.3636364 8.09545455 12.7340909 8.50909091 10.1045455 10.9022727 8.24318182 13.7090909 8.24318182 15.0681818 8.24318182 16.3386364 8.775 17.225 9.75L15.5704545 11.1090909C15.0977273 10.4886364 14.3 10.075 13.4136364 10.075 11.7295455 10.075 10.4295455 11.1681818 10.1636364 12.7340909 9.92727273 14.3 10.8727273 15.3931818 12.5863636 15.3931818"/>
</svg>
