<?xml version="1.0" encoding="UTF-8"?>
<svg width="34px" height="28px" viewBox="0 0 34 28" version="1.1" xmlns="http://www.w3.org/2000/svg" xmlns:xlink="http://www.w3.org/1999/xlink">
    <title>desktop</title>
    <g id="Page-1" stroke="none" stroke-width="1" fill="none" fill-rule="evenodd">
        <g id="desktop" fill="#97ACC2" fill-rule="nonzero">
            <path d="M32.9860557,0 L17.2808747,0 L16.7459473,0 L1.04152176,0 C0.482039088,0 0,0.437238872 0,1.01232836 L0,20.9117451 L0,20.9820295 L0,22.8253447 L0,22.9414499 C0,23.516151 0.481661315,23.9999873 1.04152176,23.9999873 L14.9035219,23.9999873 C14.8887887,24.3292756 14.4975924,26.2324707 13.8410219,26.9201706 C13.4818684,27.2963539 12.931385,27.721766 11.9474959,27.721766 C11.8203449,27.721766 11.6862679,27.721766 11.6862679,27.8625928 C11.6862679,28.0034196 11.8177509,28 11.9474959,28 C13.5655002,28 16.3866941,28 17.0285219,28 C17.4501346,28 20.479879,28 22.1542015,28 C22.2638302,28 22.3175097,27.9455771 22.3175097,27.8625928 C22.3175097,27.7726247 22.2455587,27.721766 22.1542015,27.721766 C21.0024033,27.721766 20.5243852,27.242248 20.2160219,26.9201706 C19.5598292,26.2324707 19.1682551,24.3304405 19.1535219,24.0007639 L32.987189,24.0007639 C33.5470495,24.0007639 34,23.5177043 34,22.9422265 L34,22.8261213 L34,20.9828061 L34,20.9125217 L34,1.01310499 C33.9992445,0.437238872 33.5455384,0 32.9860557,0 Z M32.5655937,19.4388791 L1.43402851,19.4388791 L1.43402851,1.40413478 L32.5659715,1.40413478 L32.5659715,19.4388791 L32.5655937,19.4388791 Z" id="Shape"></path>
        </g>
    </g>
</svg>