<?xml version="1.0" encoding="UTF-8"?>
<svg width="965px" height="799px" viewBox="0 0 965 799" version="1.1" xmlns="http://www.w3.org/2000/svg" xmlns:xlink="http://www.w3.org/1999/xlink">
    <!-- Generator: Sketch 51.3 (57544) - http://www.bohemiancoding.com/sketch -->
    <title>iMac</title>
    <desc>Created with Sketch.</desc>
    <defs></defs>
    <g id="Page-1" stroke="none" stroke-width="1" fill="none" fill-rule="evenodd">
        <g id="iMac" fill="#2F2F2F" fill-rule="nonzero">
            <path d="M933.994615,0 L31.007667,0 C13.9118669,0 0,13.916188 0,31.017298 L0,635.847216 C0,652.948326 13.9118669,666.859591 31.007667,666.859591 L384.409439,666.859591 L377.224676,742.396876 C377.219754,742.569167 376.570173,759.463528 367.564614,765.469098 C359.129898,771.090707 344.228896,780.527329 344.228896,780.527329 L337.654346,784.598319 C335.597338,786.006181 333.663357,788.575778 334.416281,791.558874 C335.484153,795.772619 340.769383,796.860513 345.252478,797.338005 C356.748099,798.553888 371.506391,798.519429 378.538601,798.499739 L584.564147,798.494816 L586.46368,798.499739 C587.438053,798.499739 588.560056,798.504662 589.800166,798.504662 C597.541011,798.504662 609.843687,798.386519 619.749803,797.338005 C624.232898,796.860513 629.518128,795.772619 630.586,791.558874 C631.338924,788.575779 629.404944,786.006183 627.200304,784.499867 L620.807833,780.54702 C620.797991,780.542097 605.882226,771.09563 597.437668,765.469098 C588.432109,759.463528 587.782528,742.569167 587.762844,742.155669 L580.593459,666.859591 L933.994616,666.859591 C951.090416,666.859591 965.002283,652.948326 965.002283,635.847216 L965.002283,31.017298 C965.002281,13.916188 951.090414,0 933.994615,0 Z M593.244916,771.76018 C601.748526,777.426091 616.762713,786.936553 616.797161,786.956243 L620.891492,789.555376 C620.345253,789.648905 619.705514,789.737512 618.95259,789.816273 C607.87526,790.997697 593.417154,790.928781 586.483365,790.938626 L380.438135,790.933703 L378.518918,790.938626 C371.59005,790.923858 357.131945,790.992774 346.049693,789.816273 C345.2574,789.732589 344.588135,789.63906 344.022212,789.540607 L348.239569,786.936552 C348.239569,786.936552 363.253756,777.42609 371.757366,771.760179 C384.015753,763.583741 384.753914,743.479846 384.768677,742.874366 L392.006341,666.859589 L572.99594,666.859589 L580.218842,742.628236 C580.248368,743.479847 580.986529,763.583742 593.244916,771.76018 Z M957.443516,635.847216 C957.443516,648.778884 946.922267,659.298479 933.994614,659.298479 L31.007667,659.298479 C18.0800147,659.298479 7.5587646,648.778885 7.5587646,635.847216 L7.5587646,577.214137 L957.443516,577.214137 L957.443516,635.847216 Z" id="Shape"></path>
        </g>
    </g>
</svg>