<?xml version="1.0" encoding="UTF-8"?>
<svg width="841px" height="1252px" viewBox="0 0 841 1252" version="1.1" xmlns="http://www.w3.org/2000/svg" xmlns:xlink="http://www.w3.org/1999/xlink">
    <!-- Generator: Sketch 51.3 (57544) - http://www.bohemiancoding.com/sketch -->
    <title>iPad</title>
    <desc>Created with Sketch.</desc>
    <defs></defs>
    <g id="Page-1" stroke="none" stroke-width="1" fill="none" fill-rule="evenodd">
        <g id="iPad" fill="#2F2F2F" fill-rule="nonzero">
            <path d="M780.507286,0 L60.4927136,0 C27.1345918,0 0,27.1358144 0,60.4875932 L0,1191.51241 C0,1224.86419 27.1345918,1252 60.4927136,1252 L780.507286,1252 C813.865408,1252 841,1224.86419 841,1191.51241 L841,60.4875932 C841,27.1358131 813.865408,0 780.507286,0 Z M827.927395,1191.51241 C827.927395,1217.65903 806.652496,1238.92988 780.507286,1238.92988 L60.4927136,1238.92988 C34.3475036,1238.92988 13.072605,1217.65903 13.072605,1191.51241 L13.072605,60.4875932 C13.072605,34.3409725 34.3475036,13.0701193 60.4927136,13.0701193 L780.507286,13.0701193 C806.652496,13.0701193 827.927395,34.3409725 827.927395,60.4875932 L827.927395,1191.51241 Z" id="Shape"></path>
            <polygon id="Shape" points="37 1131 805 1131 805 125 37 125"></polygon>
            <path d="M420.5,1157 C402.582431,1157 388,1171.58243 388,1189.5 C388,1207.41757 402.582431,1222 420.5,1222 C438.417569,1222 453,1207.41757 453,1189.5 C453,1171.58243 438.417569,1157 420.5,1157 Z M420.5,1208.8899 C409.809631,1208.8899 401.110104,1200.19037 401.110104,1189.5 C401.110104,1178.80963 409.809631,1170.1101 420.5,1170.1101 C431.190369,1170.1101 439.889896,1178.80963 439.889896,1189.5 C439.889896,1200.19037 431.190369,1208.8899 420.5,1208.8899 Z" id="Shape"></path>
            <circle id="Oval" cx="419.5" cy="69.5" r="8.5"></circle>
        </g>
    </g>
</svg>