<?xml version="1.0" encoding="UTF-8"?>
<svg width="426px" height="853px" viewBox="0 0 426 853" version="1.1" xmlns="http://www.w3.org/2000/svg" xmlns:xlink="http://www.w3.org/1999/xlink">
    <!-- Generator: Sketch 51.3 (57544) - http://www.bohemiancoding.com/sketch -->
    <title>iPhone</title>
    <desc>Created with Sketch.</desc>
    <defs></defs>
    <g id="Page-1" stroke="none" stroke-width="1" fill="none" fill-rule="evenodd">
        <g id="iPhone" fill="#2F2F2F" fill-rule="nonzero">
            <path d="M358.896252,0 L67.1037471,0 C30.1052998,0 0,30.0883291 0,67.0756162 L0,785.924384 C0,822.911671 30.1052998,853 67.1037471,853 L358.896253,853 C395.8947,853 426,822.911671 426,785.924384 L426,67.0756162 C425.999999,30.0883291 395.894699,0 358.896252,0 Z M419.315735,785.924385 C419.315735,819.227297 392.213132,846.318539 358.896252,846.318539 L67.1037471,846.318539 C33.7868678,846.318539 6.68426428,819.227298 6.68426428,785.924385 L6.68426428,67.0756162 C6.68426428,33.7727038 33.7868669,6.68146214 67.1037471,6.68146214 L358.896253,6.68146214 C392.213132,6.68146214 419.315736,33.7727029 419.315736,67.0756162 L419.315736,785.924385 L419.315735,785.924385 Z" id="Shape"></path>
            <rect id="Rectangle-path" x="26" y="98" width="375" height="653"></rect>
            <path d="M213,762 C194.249487,762 179,777.253842 179,796 C179,814.746158 194.249487,830 213,830 C231.750513,830 247,814.746158 247,796 C247,777.253842 231.750513,762 213,762 Z M213,823.311475 C197.94211,823.311475 185.688525,811.05789 185.688525,796 C185.688525,780.94211 197.94211,768.688525 213,768.688525 C228.05789,768.688525 240.311475,780.94211 240.311475,796 C240.311475,811.05789 228.05789,823.311475 213,823.311475 Z" id="Shape"></path>
            <circle id="Oval" cx="148" cy="54" r="11"></circle>
            <circle id="Oval" cx="213.5" cy="27.5" r="5.5"></circle>
            <path d="M180.469582,58 L246.530418,58 C248.438689,58 250,56.4250004 250,54.5 C250,52.5749996 248.438689,51 246.530418,51 L180.469582,51 C178.561311,51 177,52.5749996 177,54.5 C177,56.4250004 178.561312,58 180.469582,58 Z" id="Shape"></path>
        </g>
    </g>
</svg>