<?xml version="1.0" encoding="utf-8"?>
<!-- Generator: Adobe Illustrator 23.0.2, SVG Export Plug-In . SVG Version: 6.00 Build 0)  -->
<svg version="1.1" id="Layer_1" xmlns:serif="http://www.serif.com/"
	 xmlns="http://www.w3.org/2000/svg" xmlns:xlink="http://www.w3.org/1999/xlink" x="0px" y="0px" viewBox="0 0 594.9 172.5"
	 style="enable-background:new 0 0 594.9 172.5;" xml:space="preserve">
<style type="text/css">
	.st0{fill:#FB8700;}
	.st1{fill:#212529;}
</style>
<g>
	<path class="st0" d="M54.3,118.1l-1.8-11.5c-6.6,5.6-13.3,7.5-20,7.5c-11.3,0-19.8-7.8-19.8-24.1c0-15.5,7.8-24,19.3-24
		c7.8,0,14,2.8,19.8,7.5l1.8-12.3C49.1,58,41.9,55,32.2,55C14.1,54.9,0,67.2,0,90c0,22.4,13.3,35,31.3,35
		C40.9,125,48.1,122.8,54.3,118.1z"/>
	<path class="st0" d="M107.4,66.9l-2-12c-11,0.6-18.8,7.5-23.6,15.1l-2.1-13.7h-10v67.3h12.6V83.8C86.8,74.9,96.2,67.5,107.4,66.9z"
		/>
	<path class="st0" d="M156.1,105.1c-5.6,5.8-12.7,9.5-20,9.5c-6.3,0-10-3.5-10-9c0-6.9,5.2-13.7,30.1-16.1v15.6H156.1z M168.6,123.6
		V76.5c0-15-7.9-21.6-24.3-21.6c-10.4,0-18.1,2.4-26.1,5.6l1.7,10.9c7.3-3.2,15.1-5.8,23.3-5.8c7.8,0,12.8,3,12.8,11.4v2.8
		c-28.1,3-42.5,9.6-42.5,26.4c0,11.4,7.6,18.8,19.8,18.8c11,0,18.3-4.9,23.7-10.4l1.4,9C158.4,123.6,168.6,123.6,168.6,123.6z"/>
	<path class="st0" d="M220,34.3l-1.8-11.4c-1.7-0.1-3.4-0.3-5.4-0.3c-12,0-20.9,5.1-20.9,18.5v15.2h-10.2v10.6h10.2v56.7h12.3V66.9
		h15.1l-1.6-10.6h-13.5v-14c0-6.2,3.5-8.6,9.3-8.6C216,33.7,218.6,34,220,34.3z"/>
	<path class="st0" d="M265.6,123.9l-1.7-10.7c-1.6,0.3-3.5,0.4-5.8,0.4c-7.1,0-9.3-3.4-9.3-8.9V66.9H265l-1.7-10.6h-14.5V32.1
		l-12.3,1.8v22.4h-10.2v10.6h10.2V107c0,13.5,7.8,17.8,19.6,17.8C260.5,124.8,263.4,124.3,265.6,123.9z"/>
	<path class="st1" d="M335.7,148V59.7c-8.9-2.7-16.1-4.2-26.2-4.2c-19.5,0-33,11.9-33,36.4c0,22.6,12,33.2,26.5,33.2
		c9.2,0,15.7-4.7,20.2-9.2v34L335.7,148z M289.1,91.3c0-17.2,7.3-25.1,20.5-25.1c6.2,0,9.3,0.8,13.5,2.4v34.3
		c-5.1,6.3-11.3,11-18.3,11C295.8,113.9,289.1,106.1,289.1,91.3z"/>
	<path class="st1" d="M355.2,56.3v49c0,12.1,6.6,19.8,19.5,19.8c9.5,0,17.5-5.2,23.8-11.1l1.6,9.7h10V56.3h-12.6v46.6
		c-6.1,6.5-12.8,10.9-19.5,10.9c-7.3,0-10.3-4.7-10.3-11.6V56.3H355.2z"/>
	<path class="st1" d="M455.5,64.8c9.7,0,14.5,6.2,16.1,17.1h-32.5C441.1,70.4,447.7,64.8,455.5,64.8z M484.1,116l-1.8-11.3
		c-7.3,5.8-14.4,9.6-24.1,9.6c-11.7,0-19-7.3-19.6-23h45.7v-2.7c0-18.6-9-33.7-28.6-33.7c-16.9,0-29.6,13.3-29.6,34.9
		c0,24.7,13.7,35.3,31.2,35.3C468.3,125,476.9,121.7,484.1,116z"/>
	<path class="st1" d="M547.2,104.9c0-12.8-7.5-17.6-24.1-21.9c-10.6-2.7-14-5.2-14-9.7c0-4.8,4-7.8,11.6-7.8
		c7.1,0,14.5,2.4,20.5,5.8l2-11.9c-6.3-2.8-13.8-4.5-22.2-4.5c-14.7,0-23.7,7.9-23.7,18.6c0,12,6.3,16.8,22.2,20.7
		c12.1,3,15.9,5.2,15.9,11.4c0,5.6-5.1,8.9-13.7,8.9c-9.2,0-17.4-3.4-23.7-7.8l-1.8,11.9c5.8,3.2,15.7,6.3,24.6,6.3
		C538,125,547.2,117.1,547.2,104.9z"/>
	<path class="st1" d="M594.9,123.9l-1.7-10.7c-1.6,0.3-3.5,0.4-5.8,0.4c-7.1,0-9.3-3.4-9.3-8.9V66.9h16.2l-1.7-10.6h-14.5V32.1
		l-12.3,1.8v22.4h-10.2v10.6h10.2V107c0,13.5,7.8,17.8,19.6,17.8C589.8,124.8,592.8,124.3,594.9,123.9z"/>
</g>
</svg>
