<?xml version="1.0" encoding="utf-8"?>
<!-- Generator: Adobe Illustrator 23.0.2, SVG Export Plug-In . SVG Version: 6.00 Build 0)  -->
<svg version="1.1" id="Layer_1" xmlns="http://www.w3.org/2000/svg" xmlns:xlink="http://www.w3.org/1999/xlink" x="0px" y="0px"
	 viewBox="0 0 219.9 36" style="enable-background:new 0 0 219.9 36;" xml:space="preserve">
<style type="text/css">
	.st0{fill:#E5422B;}
</style>
<g>
	<g>
		<path class="st0" d="M18,36C8.1,36,0,27.9,0,18C0,8.1,8.1,0,18,0c9.9,0,18,8.1,18,18C36,27.9,27.9,36,18,36z M18,2
			C9.2,2,2,9.2,2,18s7.2,16,16,16s16-7.2,16-16S26.8,2,18,2z"/>
		<polygon class="st0" points="15.5,26.7 9.4,19.5 11.6,17.6 15.6,22.2 26.4,10.5 28.6,12.5 		"/>
	</g>
	<g>
		<path class="st0" d="M49,16.3C49,10.1,53.4,5.8,60,5.8c3,0,5.2,0.9,7.1,2.3L65.7,10c-1.4-1.1-3.3-2-5.8-2c-4.9,0-8.4,3.3-8.4,8.3
			c0,4.9,3.5,8.3,8.4,8.3c2.5,0,4.4-0.9,5.8-2l1.4,1.9c-1.9,1.4-4.1,2.3-7.1,2.3C53.4,26.8,49,22.5,49,16.3z"/>
		<path class="st0" d="M76.8,15.1h-0.4c-2.9,0-4.5,1.8-4.5,5.1v6.2h-2.1V13.1h2.1v3H72c0.6-2,2.2-3.4,4.5-3.4h0.4V15.1z"/>
		<path class="st0" d="M77.2,19.7c0-4.4,3-7.1,6.7-7.1c2.5,0,4.2,1.1,5.1,2.8h0.1v-2.4h2.1v13.3h-2.1V24H89
			c-0.9,1.7-2.7,2.8-5.1,2.8C80.2,26.8,77.2,24.1,77.2,19.7z M89.2,19.7c0-2.9-1.9-5-4.9-5c-3,0-4.9,2.1-4.9,5c0,2.9,1.9,5,4.9,5
			C87.3,24.8,89.2,22.7,89.2,19.7z"/>
		<path class="st0" d="M98.2,10.8v2.2h3.1v1.8h-3.1v11.5h-2.1V14.9h-2.5v-1.8h2.5v-2.2c0-3.3,1.8-4.9,4.8-4.9h0.5v2h-0.4
			C99.4,7.9,98.2,8.6,98.2,10.8z"/>
		<path class="st0" d="M107.3,14.9v7.9c0,1.2,0.6,1.8,1.7,1.8h0.7v1.9h-1.1c-2.1,0-3.4-1.1-3.4-3.3v-8.3h-2.6v-1.8h2.6V7.7h2.1v5.3
			h3v1.8H107.3z"/>
		<path class="st0" d="M134.9,12.2c0,3.4-2.3,5.9-6.2,5.9h-4.6v8.3h-2.2V6.2h6.9C132.6,6.2,134.9,8.8,134.9,12.2z M132.4,12.2
			c0-2.5-1.6-3.9-4-3.9h-4.4V16h4.4C130.8,16,132.4,14.7,132.4,12.2z"/>
		<path class="st0" d="M135.1,19.7c0-4.4,3-7.1,6.7-7.1c2.5,0,4.2,1.1,5.1,2.8h0.1v-2.4h2.1v13.3H147V24h-0.1
			c-0.9,1.7-2.7,2.8-5.1,2.8C138.1,26.8,135.1,24.1,135.1,19.7z M147.1,19.7c0-2.9-1.9-5-4.9-5c-3,0-4.9,2.1-4.9,5
			c0,2.9,1.9,5,4.9,5C145.2,24.8,147.1,22.7,147.1,19.7z"/>
		<path class="st0" d="M159.8,15.1h-0.4c-2.9,0-4.5,1.8-4.5,5.1v6.2h-2.1V13.1h2.1v3h0.1c0.6-2,2.2-3.4,4.5-3.4h0.4V15.1z"/>
		<path class="st0" d="M165.4,14.9v7.9c0,1.2,0.6,1.8,1.7,1.8h0.7v1.9h-1.1c-2.1,0-3.4-1.1-3.4-3.3v-8.3h-2.6v-1.8h2.6V7.7h2.1v5.3
			h3v1.8H165.4z"/>
		<path class="st0" d="M183.1,18.3v8.1H181v-7.8c0-2.7-1.5-3.9-3.6-3.9c-2.3,0-4.3,1.4-4.3,5.5v6.1H171V13.1h2.1v2.6h0.1
			c0.9-1.9,2.5-3,4.8-3C181,12.6,183.1,14.3,183.1,18.3z"/>
		<path class="st0" d="M199.2,19.6V20h-11.2c0.1,2.9,2,4.8,4.9,4.8c2.5,0,3.8-1.5,4.6-2.5l1.5,1.4c-1,1.4-2.7,3.2-6.1,3.2
			c-4.3,0-7-2.9-7-7.1c0-4.3,2.7-7.1,6.9-7.1C197.1,12.6,199.2,15.7,199.2,19.6z M188,18.4h8.9c-0.2-2.4-1.7-3.9-4.3-3.9
			C190.2,14.6,188.4,15.9,188,18.4z"/>
		<path class="st0" d="M209,15.1h-0.4c-2.9,0-4.5,1.8-4.5,5.1v6.2H202V13.1h2.1v3h0.1c0.6-2,2.2-3.4,4.5-3.4h0.4V15.1z"/>
		<path class="st0" d="M209.3,25.3l1-1.8c1.3,0.9,3,1.4,4.6,1.4c1.8,0,2.7-0.7,2.7-1.8c0-0.9-0.6-1.4-1.8-2l-2.5-1.2
			c-2-0.9-2.9-2.1-2.9-3.7c0-2.3,1.8-3.6,4.6-3.6c1.6,0,3.2,0.4,4.6,1l-0.9,1.8c-1.1-0.5-2.4-0.9-3.7-0.9c-1.5,0-2.3,0.5-2.3,1.5
			c0,0.9,0.6,1.4,1.9,2l2.5,1.1c1.7,0.8,2.9,1.8,2.9,3.7c0,2.5-2,3.8-5,3.8C212.9,26.8,210.9,26.2,209.3,25.3z"/>
	</g>
</g>
</svg>
