<?xml version="1.0" encoding="utf-8"?>
<!-- Generator: Adobe Illustrator 23.0.2, SVG Export Plug-In . SVG Version: 6.00 Build 0)  -->
<svg version="1.1" id="Layer_1" xmlns="http://www.w3.org/2000/svg" xmlns:xlink="http://www.w3.org/1999/xlink" x="0px" y="0px"
	 viewBox="0 0 725 198.3" style="enable-background:new 0 0 725 198.3;" xml:space="preserve">
<style type="text/css">
	.st0{fill:#7289DA;}
</style>
<path class="st0" d="M105.3,83.2c-5.7,0-10.2,4.9-10.2,11s4.6,11,10.2,11c5.7,0,10.2-4.9,10.2-11S110.9,83.2,105.3,83.2z M68.8,83.2
	c-5.7,0-10.2,4.9-10.2,11s4.6,11,10.2,11c5.7,0,10.2-4.9,10.2-11C79.1,88.1,74.5,83.2,68.8,83.2z"/>
<path class="st0" d="M153.9,0h-134C8.6,0-0.6,9.2-0.6,20.5v134c0,11.3,9.2,20.5,20.5,20.5h113.4l-5.3-18.3l12.8,11.8l12.1,11.1
	l21.6,18.7V20.5C174.4,9.2,165.2,0,153.9,0z M115.3,129.5c0,0-3.6-4.3-6.6-8c13.1-3.7,18.1-11.8,18.1-11.8c-4.1,2.7-8,4.6-11.5,5.9
	c-5,2.1-9.8,3.4-14.5,4.3c-9.6,1.8-18.4,1.3-25.9-0.1c-5.7-1.1-10.6-2.6-14.7-4.3c-2.3-0.9-4.8-2-7.3-3.4c-0.3-0.2-0.6-0.3-0.9-0.5
	c-0.2-0.1-0.3-0.2-0.4-0.2c-1.8-1-2.8-1.7-2.8-1.7s4.8,7.9,17.5,11.7c-3,3.8-6.7,8.2-6.7,8.2c-22.1-0.7-30.5-15.1-30.5-15.1
	c0-31.9,14.4-57.8,14.4-57.8c14.4-10.7,28-10.4,28-10.4l1,1.2c-18,5.1-26.2,13-26.2,13s2.2-1.2,5.9-2.8c10.7-4.7,19.2-5.9,22.7-6.3
	c0.6-0.1,1.1-0.2,1.7-0.2c6.1-0.8,13-1,20.2-0.2c9.5,1.1,19.7,3.9,30.1,9.5c0,0-7.9-7.5-24.9-12.6l1.4-1.6c0,0,13.7-0.3,28,10.4
	c0,0,14.4,25.9,14.4,57.8C145.8,114.4,137.4,128.8,115.3,129.5L115.3,129.5z M266.3,42.8h-33.2v37.3l22.1,19.9V63.8H267
	c7.5,0,11.2,3.6,11.2,9.4v27.7c0,5.8-3.5,9.7-11.2,9.7h-34v21.1h33.2c17.8,0.1,34.5-8.8,34.5-29.2V72.7
	C300.8,51.9,284.1,42.8,266.3,42.8z M440.3,102.5V71.9c0-11,19.8-13.5,25.8-2.5l18.3-7.4c-7.2-15.8-20.3-20.4-31.2-20.4
	c-17.8,0-35.4,10.3-35.4,30.3v30.6c0,20.2,17.6,30.3,35,30.3c11.2,0,24.6-5.5,32-19.9l-19.6-9C460.4,116.2,440.3,113.2,440.3,102.5
	L440.3,102.5z M379.8,76.1c-6.9-1.5-11.5-4-11.8-8.3c0.4-10.3,16.3-10.7,25.6-0.8l14.7-11.3c-9.2-11.2-19.6-14.2-30.3-14.2
	c-16.3,0-32.1,9.2-32.1,26.6c0,16.9,13,26,27.3,28.2c7.3,1,15.4,3.9,15.2,8.9c-0.6,9.5-20.2,9-29.1-1.8l-14.2,13.3
	c8.3,10.7,19.6,16.1,30.2,16.1c16.3,0,34.4-9.4,35.1-26.6C411.4,84.5,395.6,79,379.8,76.1L379.8,76.1z M312.8,131.6h22.4V42.8h-22.4
	V131.6z M690.5,42.8h-33.2v37.3l22.1,19.9V63.8h11.8c7.5,0,11.2,3.6,11.2,9.4v27.7c0,5.8-3.5,9.7-11.2,9.7h-34v21.1h33.3
	c17.8,0.1,34.5-8.8,34.5-29.2V72.7C725,51.9,708.3,42.8,690.5,42.8z M527.6,41.6c-18.4,0-36.7,10-36.7,30.5v30.3
	c0,20.3,18.4,30.5,36.9,30.5c18.4,0,36.7-10.2,36.7-30.5V72.1C564.5,51.7,546,41.6,527.6,41.6z M542,102.4c0,6.4-7.2,9.7-14.3,9.7
	c-7.2,0-14.4-3.1-14.4-9.7V72.1c0-6.5,7-10,14-10c7.3,0,14.7,3.1,14.7,10V102.4z M644.9,72.1c-0.5-20.8-14.7-29.2-33-29.2h-35.5
	v88.8h22.7v-28.2h4l20.6,28.2h28l-24.2-30.5C638.2,97.8,644.9,88.5,644.9,72.1z M612.3,84.1h-13.2V63.8h13.2
	C626.4,63.8,626.4,84.1,612.3,84.1z"/>
</svg>
