<?xml version="1.0" encoding="UTF-8"?>
<svg width="100px" height="100px" viewBox="0 0 100 100" version="1.1" xmlns="http://www.w3.org/2000/svg" xmlns:xlink="http://www.w3.org/1999/xlink">
    <!-- Generator: Sketch 45.2 (43514) - http://www.bohemiancoding.com/sketch -->
    <title>craft</title>
    <desc>Created with Sketch.</desc>
    <defs></defs>
    <g id="Page-1" stroke="none" stroke-width="1" fill="none" fill-rule="evenodd">
        <g id="craft">
            <circle id="Oval" fill="#DA5A47" cx="50" cy="50" r="50"></circle>
            <path d="M65.1314404,34.2629679 C65.4152241,34.4751301 65.6827917,34.6994544 65.9449539,34.9278328 L70.1827917,31.6305355 L70.3152241,31.4602652 C69.6601965,30.800999 68.9583675,30.189947 68.2152241,29.6318869 C58.4895485,22.3548598 43.7922512,25.4008058 35.3881971,36.4359409 C26.9895485,47.4697247 28.0638728,62.3102652 37.7881971,69.589995 C45.730089,75.5305355 56.9827917,74.5872923 65.4192782,68.0359409 L65.4125214,68.0197247 L61.3773863,64.8845896 C55.1246836,68.8683733 47.3692782,69.1548598 41.7584674,64.9575625 C34.2854944,59.3683733 33.4611701,47.9656706 39.9165755,39.489995 C46.3692782,31.0129679 57.6598187,28.6737788 65.130089,34.2629679 L65.1314404,34.2629679 Z" id="Path" fill="#FFFFFF"></path>
        </g>
    </g>
</svg>