<?xml version="1.0" encoding="utf-8"?>
<!-- Generator: Adobe Illustrator 25.1.0, SVG Export Plug-In . SVG Version: 6.00 Build 0)  -->
<svg version="1.1" id="Layer_1" xmlns="http://www.w3.org/2000/svg" xmlns:xlink="http://www.w3.org/1999/xlink" x="0px" y="0px"
	 viewBox="0 0 34 28" style="enable-background:new 0 0 34 28;" xml:space="preserve">
<style type="text/css">
	.st0{fill:#596775;}
	.st1{opacity:0.25;fill:#596775;}
</style>
<path id="Shape" class="st0" d="M33,0H17.3h-0.5H1C0.5,0,0,0.4,0,1v19.9V21v1.8v0.1C0,23.5,0.5,24,1,24h13.9c0,0.3-0.4,2.2-1.1,2.9
	c-0.4,0.4-0.9,0.8-1.9,0.8c-0.1,0-0.3,0-0.3,0.1s0.1,0.1,0.3,0.1c1.6,0,4.4,0,5.1,0c0.4,0,3.5,0,5.1,0c0.1,0,0.2-0.1,0.2-0.1
	c0-0.1-0.1-0.1-0.2-0.1c-1.2,0-1.6-0.5-1.9-0.8c-0.7-0.7-1-2.6-1.1-2.9H33c0.6,0,1-0.5,1-1.1v-0.1V21v-0.1V1C34,0.4,33.5,0,33,0z
	 M32.6,19.4H1.4v-18h31.1L32.6,19.4L32.6,19.4z"/>
<rect x="1.4" y="1.4" class="st1" width="31.1" height="18"/>
</svg>
