<?xml version="1.0" standalone="no"?>
<!DOCTYPE svg PUBLIC "-//W3C//DTD SVG 1.1//EN" "http://www.w3.org/Graphics/SVG/1.1/DTD/svg11.dtd" >
<svg xmlns="http://www.w3.org/2000/svg">
<metadata>Generated by IcoMoon</metadata>
<defs>
<font id="Craft" horiz-adv-x="1024">
<font-face units-per-em="1024" ascent="960" descent="-64" />
<missing-glyph horiz-adv-x="1024" />
<glyph unicode="&#x20;" horiz-adv-x="512" d="" />
<glyph unicode="&#xe900;" glyph-name="angle-down" horiz-adv-x="896" d="M402.8 274.8c25-25 65.6-25 90.6 0l320 320c25 25 25 65.6 0 90.6s-65.6 25-90.6 0l-274.8-274.8-274.8 274.6c-25 25-65.6 25-90.6 0s-25-65.6 0-90.6l320-320z" />
<glyph unicode="&#xe901;" glyph-name="angle-left" horiz-adv-x="640" d="M82.8 493.2c-25-25-25-65.6 0-90.6l320-320c25-25 65.6-25 90.6 0s25 65.6 0 90.6l-274.8 274.8 274.6 274.8c25 25 25 65.6 0 90.6s-65.6 25-90.6 0l-320-320z" />
<glyph unicode="&#xe902;" glyph-name="angle-right" horiz-adv-x="640" d="M557.2 493.2c25-25 25-65.6 0-90.6l-320-320c-25-25-65.6-25-90.6 0s-25 65.6 0 90.6l274.8 274.8-274.6 274.8c-25 25-25 65.6 0 90.6s65.6 25 90.6 0l320-320z" />
<glyph unicode="&#xe903;" glyph-name="angle-up" horiz-adv-x="896" d="M402.8 685.2c25 25 65.6 25 90.6 0l320-320c25-25 25-65.6 0-90.6s-65.6-25-90.6 0l-274.8 274.8-274.8-274.6c-25-25-65.6-25-90.6 0s-25 65.6 0 90.6l320 320z" />
<glyph unicode="&#xe904;" glyph-name="arrow-down-short-wide" horiz-adv-x="1152" d="M303.2 20.8c-12.2-13.2-29.2-20.8-47.2-20.8s-35 7.6-47.2 20.8l-176 192c-23.8 26-22.2 66.6 4 90.4s66.6 22.2 90.4-4l64.8-70.6v603.4c0 35.4 28.6 64 64 64s64-28.6 64-64v-603.4l64.8 70.8c23.8 26 64.4 27.8 90.4 4s27.8-64.4 4-90.4l-176-192zM640 896h64c35.4 0 64-28.6 64-64s-28.6-64-64-64h-64c-35.4 0-64 28.6-64 64s28.6 64 64 64zM640 640h192c35.4 0 64-28.6 64-64s-28.6-64-64-64h-192c-35.4 0-64 28.6-64 64s28.6 64 64 64zM640 384h320c35.4 0 64-28.6 64-64s-28.6-64-64-64h-320c-35.4 0-64 28.6-64 64s28.6 64 64 64zM640 128h448c35.4 0 64-28.6 64-64s-28.6-64-64-64h-448c-35.4 0-64 28.6-64 64s28.6 64 64 64z" />
<glyph unicode="&#xe905;" glyph-name="arrow-down-wide-short" horiz-adv-x="1152" d="M303.2 20.8c-12.2-13.2-29.2-20.8-47.2-20.8s-35 7.6-47.2 20.8l-176 192c-23.8 26-22.2 66.6 4 90.4s66.6 22.2 90.4-4l64.8-70.6v603.4c0 35.4 28.6 64 64 64s64-28.6 64-64v-603.4l64.8 70.8c23.8 26 64.4 27.8 90.4 4s27.8-64.4 4-90.4l-176-192zM640 0c-35.4 0-64 28.6-64 64s28.6 64 64 64h64c35.4 0 64-28.6 64-64s-28.6-64-64-64h-64zM640 256c-35.4 0-64 28.6-64 64s28.6 64 64 64h192c35.4 0 64-28.6 64-64s-28.6-64-64-64h-192zM640 512c-35.4 0-64 28.6-64 64s28.6 64 64 64h320c35.4 0 64-28.6 64-64s-28.6-64-64-64h-320zM640 768c-35.4 0-64 28.6-64 64s28.6 64 64 64h448c35.4 0 64-28.6 64-64s-28.6-64-64-64h-448z" />
<glyph unicode="&#xe906;" glyph-name="arrow-down" horiz-adv-x="768" d="M338.8 18.8c25-25 65.6-25 90.6 0l320 320c25 25 25 65.6 0 90.6s-65.6 25-90.6 0l-210.8-211v613.6c0 35.4-28.6 64-64 64s-64-28.6-64-64v-613.4l-210.8 210.6c-25 25-65.6 25-90.6 0s-25-65.6 0-90.6l320-320z" />
<glyph unicode="&#xe907;" glyph-name="arrow-left" horiz-adv-x="896" d="M18.8 493.2c-25-25-25-65.6 0-90.6l320-320c25-25 65.6-25 90.6 0s25 65.6 0 90.6l-211 210.8h613.6c35.4 0 64 28.6 64 64s-28.6 64-64 64h-613.4l210.6 210.8c25 25 25 65.6 0 90.6s-65.6 25-90.6 0l-320-320z" />
<glyph unicode="&#xe908;" glyph-name="arrow-right" horiz-adv-x="896" d="M877.2 402.8c25 25 25 65.6 0 90.6l-320 320c-25 25-65.6 25-90.6 0s-25-65.6 0-90.6l211-210.8h-613.6c-35.4 0-64-28.6-64-64s28.6-64 64-64h613.4l-210.6-210.8c-25-25-25-65.6 0-90.6s65.6-25 90.6 0l320 320z" />
<glyph unicode="&#xe909;" glyph-name="arrow-up-right-from-square" d="M640 960c-35.4 0-64-28.6-64-64s28.6-64 64-64h165.4l-402.6-402.8c-25-25-25-65.6 0-90.6s65.6-25 90.6 0l402.6 402.8v-165.4c0-35.4 28.6-64 64-64s64 28.6 64 64v320c0 35.4-28.6 64-64 64h-320zM160 896c-88.4 0-160-71.6-160-160v-640c0-88.4 71.6-160 160-160h640c88.4 0 160 71.6 160 160v224c0 35.4-28.6 64-64 64s-64-28.6-64-64v-224c0-17.6-14.4-32-32-32h-640c-17.6 0-32 14.4-32 32v640c0 17.6 14.4 32 32 32h224c35.4 0 64 28.6 64 64s-28.6 64-64 64h-224z" />
<glyph unicode="&#xe90a;" glyph-name="arrow-up" horiz-adv-x="768" d="M429.2 877.2c-25 25-65.6 25-90.6 0l-320-320c-25-25-25-65.6 0-90.6s65.6-25 90.6 0l210.8 211v-613.6c0-35.4 28.6-64 64-64s64 28.6 64 64v613.6l210.8-210.8c25-25 65.6-25 90.6 0s25 65.6 0 90.6l-320 320z" />
<glyph unicode="&#xe90b;" glyph-name="arrows-rotate" d="M210.2 554.8c15.4 43.6 40.4 84.6 75.6 119.6 125 125 327.6 125 452.6 0l34.2-34.4h-68.6c-35.4 0-64-28.6-64-64s28.6-64 64-64h223c0 0 0 0 0 0h0.8c35.4 0 64 28.6 64 64v224c0 35.4-28.6 64-64 64s-64-28.6-64-64v-70.4l-35 35.2c-175 175-458.6 175-633.6 0-48.8-48.8-84-106.2-105.6-167.6-11.8-33.4 5.8-69.8 39-81.6s69.8 5.8 81.6 39zM78 381.4c-10-3-19.6-8.4-27.4-16.4-8-8-13.4-17.6-16.2-28-0.6-2.4-1.2-5-1.6-7.6-0.6-3.4-0.8-6.8-0.8-10.2v-223.2c0-35.4 28.6-64 64-64s64 28.6 64 64v70.2l35.2-35c175-174.8 458.6-174.8 633.4 0 48.8 48.8 84.2 106.2 105.8 167.4 11.8 33.4-5.8 69.8-39 81.6s-69.8-5.8-81.6-39c-15.4-43.6-40.4-84.6-75.6-119.6-125-125-327.6-125-452.6 0l-34.4 34.4h68.8c35.4 0 64 28.6 64 64s-28.6 64-64 64h-223.2c-3.2 0-6.4-0.2-9.6-0.6s-6.2-1-9.2-2z" />
<glyph unicode="&#xe90c;" glyph-name="asterisk" horiz-adv-x="768" d="M384 896c35.4 0 64-28.6 64-64v-271l223 133.8c30.4 18.2 69.6 8.4 87.8-22s8.4-69.6-22-87.8l-228.4-137 228.6-137.2c30.4-18.2 40.2-57.4 22-87.8s-57.4-40.2-87.8-22l-223.2 134v-271c0-35.4-28.6-64-64-64s-64 28.6-64 64v271l-223-133.8c-30.4-18.2-69.6-8.4-87.8 22s-8.4 69.6 22 87.8l228.4 137-228.6 137.2c-30.4 18.2-40.2 57.4-22 87.8s57.4 40.2 87.8 22l223.2-134v271c0 35.4 28.6 64 64 64z" />
<glyph unicode="&#xe90d;" glyph-name="ban" d="M734.4 135l-535.4 535.4c-44.8-62.6-71-139.4-71-222.4 0-212 172-384 384-384 83 0 159.8 26.2 222.4 71zM825 225.6c44.8 62.6 71 139.4 71 222.4 0 212-172 384-384 384-83 0-159.8-26.2-222.4-71l535.4-535.4zM0 448c0 282.77 229.23 512 512 512s512-229.23 512-512v0c0-282.77-229.23-512-512-512s-512 229.23-512 512v0z" />
<glyph unicode="&#xe90e;" glyph-name="bars" horiz-adv-x="896" d="M0 768c0 35.4 28.6 64 64 64h768c35.4 0 64-28.6 64-64s-28.6-64-64-64h-768c-35.4 0-64 28.6-64 64zM0 448c0 35.4 28.6 64 64 64h768c35.4 0 64-28.6 64-64s-28.6-64-64-64h-768c-35.4 0-64 28.6-64 64zM896 128c0-35.4-28.6-64-64-64h-768c-35.4 0-64 28.6-64 64s28.6 64 64 64h768c35.4 0 64-28.6 64-64z" />
<glyph unicode="&#xe90f;" glyph-name="bell" horiz-adv-x="896" d="M448 960c-35.4 0-64-28.6-64-64v-38.4c-146-29.6-256-158.8-256-313.6v-37.6c0-94-34.6-184.8-97-255.2l-14.8-16.6c-16.8-18.8-20.8-45.8-10.6-68.8s33.2-37.8 58.4-37.8h768c25.2 0 48 14.8 58.4 37.8s6.2 50-10.6 68.8l-14.8 16.6c-62.4 70.4-97 161-97 255.2v37.6c0 154.8-110 284-256 313.6v38.4c0 35.4-28.6 64-64 64zM538.6-26.6c24 24 37.4 56.6 37.4 90.6h-256c0-34 13.4-66.6 37.4-90.6s56.6-37.4 90.6-37.4 66.6 13.4 90.6 37.4z" />
<glyph unicode="&#xe910;" glyph-name="book" horiz-adv-x="896" d="M192 960c-106 0-192-86-192-192v-640c0-106 86-192 192-192h640c35.4 0 64 28.6 64 64s-28.6 64-64 64v128c35.4 0 64 28.6 64 64v640c0 35.4-28.6 64-64 64h-640zM192 192h512v-128h-512c-35.4 0-64 28.6-64 64s28.6 64 64 64zM256 672c0 17.6 14.4 32 32 32h384c17.6 0 32-14.4 32-32s-14.4-32-32-32h-384c-17.6 0-32 14.4-32 32zM288 576h384c17.6 0 32-14.4 32-32s-14.4-32-32-32h-384c-17.6 0-32 14.4-32 32s14.4 32 32 32z" />
<glyph unicode="&#xe911;" glyph-name="bug" d="M512 960c106 0 192-86 192-192v-7.2c0-31.4-25.4-56.8-56.8-56.8h-270.4c-31.4 0-56.8 25.4-56.8 56.8v7.2c0 106 86 192 192 192zM82.8 749.2c25 25 65.6 25 90.6 0l128-128c1.4-1.4 2.6-2.8 3.8-4.2 28.4 14.6 60.8 22.8 95 22.8h223.8c34.2 0 66.4-8.2 95-22.8 1.2 1.4 2.4 2.8 3.8 4.2l128 128c25 25 65.6 25 90.6 0s25-65.6 0-90.6l-128-128c-1.4-1.4-2.8-2.6-4.2-3.8 12.4-24 20.2-50.6 22.2-79h128.6c35.4 0 64-28.6 64-64s-28.6-64-64-64h-128c0-49.2-11-95.6-30.8-137.2 4.4-2.6 8.4-5.8 12-9.6l128-128c25-25 25-65.6 0-90.6s-65.6-25-90.6 0l-126.2 126.2c-49-43.6-111.6-72.4-180.6-79.2v478.6c0 17.6-14.4 32-32 32s-32-14.4-32-32v-478.4c-69 6.8-131.6 35.6-180.6 79.2l-126-126c-25-25-65.6-25-90.6 0s-25 65.6 0 90.6l128 128c3.8 3.8 7.8 6.8 12 9.6-19.6 41.4-30.6 87.8-30.6 137h-128c-35.4 0-64 28.6-64 64s28.6 64 64 64h128.6c2.2 28.2 10 55 22.2 79-1.4 1.2-2.8 2.4-4.2 3.8l-128 128c-25 25-25 65.6 0 90.6z" />
<glyph unicode="&#xe912;" glyph-name="building" horiz-adv-x="768" d="M96 960c-53 0-96-43-96-96v-832c0-53 43-96 96-96h192v160c0 53 43 96 96 96s96-43 96-96v-160h192c53 0 96 43 96 96v832c0 53-43 96-96 96h-576zM128 480c0 17.6 14.4 32 32 32h64c17.6 0 32-14.4 32-32v-64c0-17.6-14.4-32-32-32h-64c-17.6 0-32 14.4-32 32v64zM352 512h64c17.6 0 32-14.4 32-32v-64c0-17.6-14.4-32-32-32h-64c-17.6 0-32 14.4-32 32v64c0 17.6 14.4 32 32 32zM512 480c0 17.6 14.4 32 32 32h64c17.6 0 32-14.4 32-32v-64c0-17.6-14.4-32-32-32h-64c-17.6 0-32 14.4-32 32v64zM160 768h64c17.6 0 32-14.4 32-32v-64c0-17.6-14.4-32-32-32h-64c-17.6 0-32 14.4-32 32v64c0 17.6 14.4 32 32 32zM320 736c0 17.6 14.4 32 32 32h64c17.6 0 32-14.4 32-32v-64c0-17.6-14.4-32-32-32h-64c-17.6 0-32 14.4-32 32v64zM544 768h64c17.6 0 32-14.4 32-32v-64c0-17.6-14.4-32-32-32h-64c-17.6 0-32 14.4-32 32v64c0 17.6 14.4 32 32 32z" />
<glyph unicode="&#xe913;" glyph-name="calendar" horiz-adv-x="896" d="M192 896v-64h-96c-53 0-96-43-96-96v-96h896v96c0 53-43 96-96 96h-96v64c0 35.4-28.6 64-64 64s-64-28.6-64-64v-64h-256v64c0 35.4-28.6 64-64 64s-64-28.6-64-64zM896 576h-896v-544c0-53 43-96 96-96h704c53 0 96 43 96 96v544z" />
<glyph unicode="&#xe914;" glyph-name="asterisk-slash" horiz-adv-x="1280" d="M451.6 412.8l-166.4-99.8c-30.4-18.2-40.2-57.4-22-87.8s57.4-40.2 87.8-22l208.6 125.2-108 84.4zM574 317v-251c0-35.4 28.6-64 64-64s64 28.6 64 64v150.6l-128 100.4zM1261.6 21.8l-252.2 197.8c1.4 1.8 2.6 3.6 3.6 5.4 18.2 30.4 8.4 69.6-22 87.8l-228.6 137.2 228.4 137c30.4 18.2 40.2 57.4 22 87.8s-57.4 40.2-87.8 22l-223-133.8v271c0 35.4-28.6 64-64 64s-64-28.6-64-64v-271l-12.4 7.4-484 379.4c-20.8 16.4-51 12.6-67.4-8.2-15.6-19.6-13-47.8 5-64.6l1180.4-925.2c1.2-0.8 2.2-1.8 3.2-2.8l3.6-2.8c20.8-16.4 51-12.6 67.4 8.2s12.6 51-8.2 67.4z" />
<glyph unicode="&#xe915;" glyph-name="certificate" d="M422 945.4c-12 12.6-30 17.4-46.8 13s-29.8-17.8-34.2-34.6l-31.6-125-124 35c-16.8 4.8-34.8 0-47-12.2s-17-30.2-12.2-47l35-124-125-31.8c-16.8-4.2-30-17.4-34.6-34.2s0.4-34.6 13-46.6l92.4-90-92.4-90c-12.6-12-17.4-30-13-46.8s17.8-29.8 34.6-34.2l125-31.6-35-124c-4.8-16.8 0-34.8 12.2-47s30.2-17 47-12.2l124 35 31.6-125c4.2-16.8 17.4-30 34.2-34.6s34.6 0.4 46.8 12.8l90 92.4 90-92.4c12.2-12.4 30-17.4 46.8-12.8s29.8 17.8 34.2 34.6l31.6 125 124-35c16.8-4.8 34.8 0 47 12.2s17 30.2 12.2 47l-35 124 125 31.6c16.8 4.2 30 17.4 34.6 34.2s-0.4 34.8-12.8 46.8l-92.4 90 92.4 90c12.4 12.2 17.4 30 12.8 46.8s-17.8 29.8-34.6 34.2l-125 31.6 35 124c4.8 16.8 0 34.8-12.2 47s-30.2 17-47 12.2l-124-35-31.8 125c-4.2 16.8-17.4 30-34.2 34.6s-34.6-0.4-46.6-13l-90-92.4-90 92.4z" />
<glyph unicode="&#xe916;" glyph-name="check" horiz-adv-x="896" d="M877.2 749.2c25-25 25-65.6 0-90.6l-512-512c-25-25-65.6-25-90.6 0l-256 256c-25 25-25 65.6 0 90.6s65.6 25 90.6 0l210.8-210.6 466.8 466.6c25 25 65.6 25 90.6 0z" />
<glyph unicode="&#xe917;" glyph-name="circle-arrow-down" d="M512 960c-282.77 0-512-229.23-512-512s229.23-512 512-512v0c282.77 0 512 229.23 512 512s-229.23 512-512 512v0zM254 398c-18.8 18.8-18.8 49.2 0 67.8s49.2 18.8 67.8 0l142-142 0.2 364.2c0 26.6 21.4 48 48 48s48-21.4 48-48v-364.2l142 142c18.8 18.8 49.2 18.8 67.8 0s18.8-49.2 0-67.8l-223.8-224c-18.8-18.8-49.2-18.8-67.8 0l-224.2 224z" />
<glyph unicode="&#xe918;" glyph-name="circle-arrow-left" d="M1024 448c0 282.77-229.23 512-512 512s-512-229.23-512-512v0c0-282.77 229.23-512 512-512s512 229.23 512 512v0zM462 706c18.8 18.8 49.2 18.8 67.8 0s18.8-49.2 0-67.8l-142-142 364.2-0.2c26.6 0 48-21.4 48-48s-21.4-48-48-48h-364.2l142-142c18.8-18.8 18.8-49.2 0-67.8s-49.2-18.8-67.8 0l-224 223.8c-18.8 18.8-18.8 49.2 0 67.8l224 224.2z" />
<glyph unicode="&#xe919;" glyph-name="circle-arrow-right" d="M0 448c0-282.77 229.23-512 512-512s512 229.23 512 512v0c0 282.77-229.23 512-512 512s-512-229.23-512-512v0zM562 190c-18.8-18.8-49.2-18.8-67.8 0s-18.8 49.2 0 67.8l142 142-364.2 0.2c-26.6 0-48 21.4-48 48s21.4 48 48 48h364.2l-142 142c-18.8 18.8-18.8 49.2 0 67.8s49.2 18.8 67.8 0l224-223.8c18.8-18.8 18.8-49.2 0-67.8l-224-224.2z" />
<glyph unicode="&#xe91a;" glyph-name="circle-arrow-up" d="M512-64c282.77 0 512 229.23 512 512s-229.23 512-512 512v0c-282.77 0-512-229.23-512-512s229.23-512 512-512v0zM770 498c18.8-18.8 18.8-49.2 0-67.8s-49.2-18.8-67.8 0l-142 142v-364.2c0-26.6-21.4-48-48-48s-48 21.4-48 48v364.2l-142-142c-18.8-18.8-49.2-18.8-67.8 0s-18.8 49.2 0 67.8l223.6 224c18.8 18.8 49.2 18.8 67.8 0l224.2-224z" />
<glyph unicode="&#xe91b;" glyph-name="circle-check" d="M512-64c282.77 0 512 229.23 512 512s-229.23 512-512 512v0c-282.77 0-512-229.23-512-512s229.23-512 512-512v0zM738 542l-256-256c-18.8-18.8-49.2-18.8-67.8 0l-128 128c-18.8 18.8-18.8 49.2 0 67.8s49.2 18.8 67.8 0l94-94 222 222.2c18.8 18.8 49.2 18.8 67.8 0s18.8-49.2 0-67.8z" />
<glyph unicode="&#xe91c;" glyph-name="circle-dashed" d="M2.2 496c9.8 105.4 51.6 201.4 115.4 278.6l91-91c-41.2-53.2-68.8-117.4-77.6-187.6h-128.8zM276.6 751.4l-91.2 91c77.2 63.8 173.2 105.6 278.6 115.4v-128.8c-70.2-8.8-134.4-36.4-187.4-77.6zM560 67c70.2 8.8 134.4 36.4 187.4 77.6l91-91c-77-63.8-173-105.6-278.4-115.4v128.8zM815.4 212.6c41.2 53.2 69 117.4 77.6 187.4h128.8c-9.8-105.4-51.6-201.4-115.4-278.6l-91 91zM185.4 53.6l91 91c53.2-41.2 117.4-69 187.4-77.6v-128.8c-105.4 9.8-201.4 51.6-278.6 115.4zM117.6 121.4c-63.8 77.2-105.6 173.2-115.4 278.6h128.8c8.8-70.2 36.4-134.4 77.6-187.4l-91-91.2zM838.6 842.4l-91-91c-53.2 41.2-117.4 68.8-187.6 77.6v128.8c105.4-9.8 201.4-51.6 278.6-115.4zM815.4 683.4l91 91c63.8-77 105.6-173.2 115.4-278.6h-128.8c-8.8 70.2-36.4 134.4-77.6 187.4z" />
<glyph unicode="&#xe91d;" glyph-name="circle-info" d="M512-64c282.77 0 512 229.23 512 512s-229.23 512-512 512v0c-282.77 0-512-229.23-512-512s229.23-512 512-512v0zM432 288h48v128h-48c-26.6 0-48 21.4-48 48s21.4 48 48 48h96c26.6 0 48-21.4 48-48v-176h16c26.6 0 48-21.4 48-48s-21.4-48-48-48h-160c-26.6 0-48 21.4-48 48s21.4 48 48 48zM512 704c35.346 0 64-28.654 64-64s-28.654-64-64-64v0c-35.346 0-64 28.654-64 64s28.654 64 64 64v0z" />
<glyph unicode="&#xe91e;" glyph-name="circle-question" d="M512-64c282.77 0 512 229.23 512 512s-229.23 512-512 512v0c-282.77 0-512-229.23-512-512s229.23-512 512-512v0zM339.6 629.4c15.8 44.6 58.2 74.6 105.6 74.6h116.6c69.8 0 126.2-56.6 126.2-126.2 0-45.2-24.2-87-63.4-109.6l-64.6-37c-0.4-26-21.8-47.2-48-47.2-26.6 0-48 21.4-48 48v27c0 17.2 9.2 33 24.2 41.6l88.6 50.8c9.4 5.4 15.2 15.4 15.2 26.2 0 16.8-13.6 30.2-30.2 30.2h-116.6c-6.8 0-12.8-4.2-15-10.6l-0.8-2.4c-8.8-25-36.4-38-61.2-29.2s-38 36.4-29.2 61.2l0.8 2.4zM448 256c0 35.346 28.654 64 64 64s64-28.654 64-64v0c0-35.346-28.654-64-64-64s-64 28.654-64 64v0z" />
<glyph unicode="&#xe91f;" glyph-name="circle" d="M512-64c282.77 0 512 229.23 512 512s-229.23 512-512 512v0c-282.77 0-512-229.23-512-512s229.23-512 512-512v0z" />
<glyph unicode="&#xe920;" glyph-name="clipboard" horiz-adv-x="768" d="M384 960c-83.6 0-154.8-53.4-181-128h-75c-70.6 0-128-57.4-128-128v-640c0-70.6 57.4-128 128-128h512c70.6 0 128 57.4 128 128v640c0 70.6-57.4 128-128 128h-75c-26.2 74.6-97.4 128-181 128zM384 832c35.346 0 64-28.654 64-64s-28.654-64-64-64v0c-35.346 0-64 28.654-64 64s28.654 64 64 64v0zM224 576h320c17.6 0 32-14.4 32-32s-14.4-32-32-32h-320c-17.6 0-32 14.4-32 32s14.4 32 32 32z" />
<glyph unicode="&#xe921;" glyph-name="clock" d="M512 960c282.77 0 512-229.23 512-512s-229.23-512-512-512v0c-282.77 0-512 229.23-512 512s229.23 512 512 512v0zM464 720v-272c0-16 8-31 21.4-40l192-128c22-14.8 51.8-8.8 66.6 13.4s8.8 51.8-13.4 66.6l-170.6 113.6v246.4c0 26.6-21.4 48-48 48s-48-21.4-48-48z" />
<glyph unicode="&#xe922;" glyph-name="upload" d="M576 741.4v-485.4c0-35.4-28.6-64-64-64s-64 28.6-64 64v485.4l-146.8-146.8c-25-25-65.6-25-90.6 0s-25 65.6 0 90.6l256 256c25 25 65.6 25 90.6 0l256-256c25-25 25-65.6 0-90.6s-65.6-25-90.6 0l-146.6 146.8zM128 256h256c0-70.6 57.4-128 128-128s128 57.4 128 128h256c70.6 0 128-57.4 128-128v-64c0-70.6-57.4-128-128-128h-768c-70.6 0-128 57.4-128 128v64c0 70.6 57.4 128 128 128zM864 48c26.51 0 48 21.49 48 48s-21.49 48-48 48v0c-26.51 0-48-21.49-48-48s21.49-48 48-48v0z" />
<glyph unicode="&#xe923;" glyph-name="download" d="M576 896c0 35.4-28.6 64-64 64s-64-28.6-64-64v-485.4l-146.8 146.8c-25 25-65.6 25-90.6 0s-25-65.6 0-90.6l256-256c25-25 65.6-25 90.6 0l256 256c25 25 25 65.6 0 90.6s-65.6 25-90.6 0l-146.6-146.8v485.4zM128 256c-70.6 0-128-57.4-128-128v-64c0-70.6 57.4-128 128-128h768c70.6 0 128 57.4 128 128v64c0 70.6-57.4 128-128 128h-203l-90.6-90.6c-50-50-131-50-181 0l-90.4 90.6h-203zM864 144c26.51 0 48-21.49 48-48s-21.49-48-48-48v0c-26.51 0-48 21.49-48 48s21.49 48 48 48v0z" />
<glyph unicode="&#xe924;" glyph-name="database" horiz-adv-x="896" d="M896 800v-96c0-88.4-200.6-160-448-160s-448 71.6-448 160v96c0 88.4 200.6 160 448 160s448-71.6 448-160zM786.4 530.6c41.6 14.8 79.8 33.8 109.6 57.2v-203.8c0-88.4-200.6-160-448-160s-448 71.6-448 160v203.8c29.8-23.6 68-42.4 109.6-57.2 89.8-32 209.4-50.6 338.4-50.6s248.6 18.6 338.4 50.6zM0 267.8c29.8-23.6 68-42.4 109.6-57.2 89.8-32 209.4-50.6 338.4-50.6s248.6 18.6 338.4 50.6c41.6 14.8 79.8 33.8 109.6 57.2v-171.8c0-88.4-200.6-160-448-160s-448 71.6-448 160v171.8z" />
<glyph unicode="&#xe925;" glyph-name="diamond" d="M568.6 936.6c-31.2 31.2-81.8 31.2-113.2 0l-432-432c-31.2-31.2-31.2-81.8 0-113.2l432-432c31.2-31.2 81.8-31.2 113.2 0l432 432c31.2 31.2 31.2 81.8 0 113.2l-432 432z" />
<glyph unicode="&#xe926;" glyph-name="down-left-and-up-right-to-center" d="M878 946c18.8 18.8 49.2 18.8 67.8 0l64-64c18.8-18.8 18.8-49.2 0-67.8l-174-174 78-78c13.8-13.8 17.8-34.4 10.4-52.4s-25-29.6-44.4-29.6h-287.8c-26.6 0-48 21.4-48 48v287.8c0 19.4 11.6 37 29.6 44.4s38.6 3.4 52.4-10.4l78-78 174 174zM144 416h288c26.6 0 48-21.4 48-48v-288c0-19.4-11.6-37-29.6-44.4s-38.6-3.4-52.4 10.4l-78 78-174-174c-18.8-18.8-49.2-18.8-67.8 0l-64.2 64c-18.8 18.8-18.8 49.2 0 67.8l174 174-78 78.2c-13.8 13.8-17.8 34.4-10.4 52.4s25 29.6 44.4 29.6z" />
<glyph unicode="&#xe927;" glyph-name="earth-africa" d="M355.6 833.6l20-34.8c5.6-9.6 8.4-20.6 8.4-31.8v-82.8c0-7.8 3.2-15.4 8.6-20.8 12.4-12.4 33-11.4 44 2.4l27.2 34c9.4 11.8 25.8 15.4 39.2 8.6l30.4-15.2c6.8-3.4 14.4-5.2 22-5.2 13 0 25.6 5.2 34.8 14.4l7.8 7.8c5.8 5.8 14.6 7.2 22 3.6l58.4-29.2c15.6-7.8 25.2-23.6 25.2-41 0-21-14.2-39.2-34.6-44.4l-70.8-17.6c-14.8-3.6-30.2-3-44.8 1.8l-64 21.4c-6.6 2.2-13.4 3.4-20.4 3.4-14 0-27.6-4.6-38.8-13l-78.2-59.2c-20.2-15.2-32-38.8-32-64v-56c0-53 43-96 96-96h64c17.6 0 32-14.4 32-32v-96c0-35.4 28.6-64 64-64 20.2 0 39.2 9.4 51.2 25.6l51.2 68.2c16.6 22.2 25.6 49.2 25.6 76.8v24.2c0 7.8 5.2 14.6 12.8 16.4l10.6 2.6c23.8 6 40.6 27.4 40.6 52 0 14.2-5.6 27.8-15.6 37.8l-67 67c-7.4 7.4-7.4 19.4 0 26.8 11.4 11.4 28.2 15.4 43.6 10.2l28.2-9.4c24.6-8.2 51.4 3 63 26 7 14 22.4 21.6 37.8 18.4l54.8-11c-48.8 175.6-209.8 304.4-400.8 304.4-55.4 0-108-10.8-156.4-30.4zM0 448c0 282.77 229.23 512 512 512s512-229.23 512-512v0c0-282.77-229.23-512-512-512s-512 229.23-512 512v0z" />
<glyph unicode="&#xe928;" glyph-name="earth-americas" d="M115.4 574l18.8-32.8c16.6-29 43.8-50.4 76-59.6l115.8-33c34.4-9.8 58-41.2 58-77v-79.8c0-22 12.4-42 32-51.8s32-29.8 32-51.8v-78c0-31.2 29.8-53.8 59.8-45.2 32.2 9.2 57.2 35 65.4 67.6l5.6 22.4c8.4 33.8 30.4 62.8 60.6 80l16.2 9.2c30 17 48.4 49 48.4 83.4v16.6c0 25.4-10.2 49.8-28.2 67.8l-7.8 7.8c-18 18-42.4 28.2-67.8 28.2h-86.2c-22.2 0-44.2 5.8-63.6 16.8l-69 39.4c-8.6 5-15.2 13-18.4 22.4-6.4 19.2 2.2 40 20.4 49l11.8 6c13.2 6.6 28.6 7.8 42.6 3l46.4-15.4c16.4-5.4 34.4 0.8 43.8 15 9.4 14 8.4 32.6-2.4 45.6l-27.2 32.6c-20 24-19.8 59 0.6 82.6l31.4 36.6c17.6 20.6 20.4 50 7 73.4l-4.8 8.4c-7 0.4-13.8 0.6-20.8 0.6-185.6 0-343-121.8-396.4-290zM928 448c0 73.6-19.2 142.8-52.8 203l-51.2-20.6c-31.4-12.6-47.6-47.6-37-79.6l33.8-101.4c7-20.8 24-36.6 45.2-41.8l58.2-14.6c2.4 18 3.6 36.4 3.6 55zM0 448c0 282.77 229.23 512 512 512s512-229.23 512-512v0c0-282.77-229.23-512-512-512s-512 229.23-512 512v0z" />
<glyph unicode="&#xe929;" glyph-name="earth-asia" d="M103.4 369.8l63.4-12.6c15.8-3.2 32 1.8 43.4 13.2l30.8 30.8c23.2 23.2 62.2 16.8 76.8-12.4l18.6-37c9.6-19.2 29.2-31.4 50.8-31.4 30.4 0 52.2 29.2 43.4 58.4l-12 39.8c-9.2 30.8 13.8 61.8 46 61.8h4.6c26.8 0 51.8 13.4 66.6 35.6l21.4 32.2c11.2 17 10.6 39.2-1.6 55.4l-32.2 43c-20.6 27.4-6.6 67 26.8 75.4l34 8.6c15 3.8 27.2 14.4 33 28.8l32.8 81.8c-43.2 14.6-89.6 22.8-138 22.8-229.8 0-416-186.2-416-416 0-26.8 2.6-53 7.4-78.2zM918.8 360.6c-6 0.6-12 0.2-18-1.6l-31.6-8.8c-13.4-3.8-27.6 1.8-35 13.4l-4 6.2c-12 18.8-32.8 30.2-55.2 30.2s-43.2-11.4-55.2-30.2l-12.2-19c-2.8-4.4-6.8-8.2-11.4-10.6l-72.2-40.4c-36.2-20.2-51-64.8-34-102.6l11-24.8c17.2-38.4 61.4-57 101-42.2l5.2 2c20 7.4 42.6 4.4 59.8-8.2l3-2.2c74.4 59 128.2 142.8 148.8 239zM0 448c0 282.77 229.23 512 512 512s512-229.23 512-512v0c0-282.77-229.23-512-512-512s-512 229.23-512 512v0zM289 263.8c-4.2-17.2 6.2-34.6 23.2-38.8l64-16c17.2-4.2 34.6 6.2 38.8 23.2s-6.2 34.6-23.2 38.8l-64 16c-17.2 4.2-34.6-6.2-38.8-23.2zM473 303.8c-4.2-17.2 6.2-34.6 23.2-38.8s34.6 6.2 38.8 23.2l16 64c4.2 17.2-6.2 34.6-23.2 38.8s-34.6-6.2-38.8-23.2l-16-64zM686.4 732.6c-15.8 8-35 1.4-43-14.4l-32-64c-8-15.8-1.4-35 14.4-43s35-1.4 43 14.4l32 64c8 15.8 1.4 35-14.4 43z" />
<glyph unicode="&#xe92a;" glyph-name="earth-europe" d="M532.6 863.4l-67.6-50.6c-10.8-8-17-20.8-17-34.2v-18.2c0-13.6 11-24.6 24.6-24.6 4.8 0 9.6 1.4 13.6 4.2l83.6 55.8c4 2.6 8.8 4.2 13.6 4.2h2c12.4 0 22.6-10.2 22.6-22.6 0-6-2.4-11.8-6.6-16l-39.8-39.8c-11.6-11.6-25.8-20.4-41.4-25.6l-53-17.6c-11.6-3.8-19.2-14.6-19.2-26.8 0-7.4-3-14.6-8.2-20l-35.8-35.8c-12.8-12.8-19.8-30-19.8-48v-8.6c0-32.8 27.2-59.4 59.8-59.4 22 0 42.4 12.4 52.2 32l8 16.2c4.8 9.6 14.8 15.8 25.6 15.8 9 0 17.4-4.2 22.8-11.4l32.6-43.4c4.2-5.8 11-9 18.2-9 16.8 0 27.8 17.8 20.2 32.8l-2.2 4.6c-7 14 0 31 15 36l42.4 14.2c15.2 5 25.4 19.2 25.4 35.2 0 20.6 16.6 37.2 37.2 37.2h58.6c17.6 0 32-14.4 32-32s-14.4-32-32-32h-41.4c-14.4 0-28.4-5.8-38.6-16l-9.4-9.4c-4.2-4.2-6.6-10-6.6-16 0-12.4 10.2-22.6 22.6-22.6h22.6c12 0 23.6-4.8 32-13.2l13-13c3.6-3.6 5.6-8.6 5.6-13.6s-2-10-5.6-13.6l-15-15c-7.2-7.6-11.2-17.4-11.2-27.6s4-20 11.4-27.4l36.6-36.6c20.4-20.4 48.2-32 77.2-32h14.8c13 40.4 20 83.4 20 128 0 222.8-175.2 404.8-395.4 415.4zM876.6 247.6c-7.4 5.2-16.4 8.2-26 8.2-12 0-23.6 4.8-32 13.2l-26.6 27c-15.4 15.4-36 24-57.8 24-19.4 0-38.4 7-53.2 19.6l-53 45.6c-23.2 19.8-52.8 30.8-83.4 30.8h-41.8c-25.2 0-50-7.4-71-21.4l-54.8-36.6c-35.6-23.8-57-63.8-57-106.6v-6.4c0-34 13.4-66.6 37.4-90.6l32-32c17-17 40-26.6 64-26.6h42.6c26.6 0 48-21.4 48-48 0-5 0.8-10 2.2-14.6 142.6 11.6 265 95.2 330.4 214.4zM0 448c0 282.77 229.23 512 512 512s512-229.23 512-512v0c0-282.77-229.23-512-512-512s-512 229.23-512 512v0zM374.6 758.6c-12.4 12.4-32.8 12.4-45.2 0l-64-64c-12.4-12.4-12.4-32.8 0-45.2s32.8-12.4 45.2 0l64 64c12.4 12.4 12.4 32.8 0 45.2z" />
<glyph unicode="&#xe92b;" glyph-name="earth-oceania" d="M512-64c282.77 0 512 229.23 512 512s-229.23 512-512 512v0c-282.77 0-512-229.23-512-512s229.23-512 512-512v0zM417.2 245.4l-78 27c-13 4.4-27.2 4.6-40.2 0.6l-30.6-9.8c-37-11.8-77 4.8-95 39l-6.6 12.4c-21.2 40.2-4.6 90 36.4 109.4l70.6 33.6c4.6 2.2 8.8 5.6 11.8 9.6l10.6 14c14.4 19.2 37.2 30.6 61.2 30.6s46.8-11.4 61.2-30.6l9.2-12.2c4-5.2 9.8-9 16.2-10.2 15.6-3.2 31.4 3 40.8 15.8l20.8 28.4c4 5.6 10.6 8.8 17.4 8.8 8.8 0 16.8-5.4 20-13.6l20.2-51.8c5.6-14.4 13.4-28 23-40.4l35.8-45.6c11.6-14.8 18-33.2 18-52s-6.4-37.2-18-52l-24-30.8c-16.6-21.2-42-33.6-68.8-33.6-16.8 0-33.2 4.8-47.4 14l-50.8 32.8c-4.4 2.8-9 5-13.8 6.8zM547.6 675l44.4-44.4c20.2-20.2 5.8-54.6-22.6-54.6h-59.8c-11.2 0-22.2 2.4-32.4 6.8l-85.6 38c-28.6 12.6-23.8 54.6 6.8 60.6l77 15.4c26.2 5.2 53.4-3 72.2-21.8zM496 96c0 17.6 14.4 32 32 32h32c17.6 0 32-14.4 32-32s-14.4-32-32-32h-32c-17.6 0-32 14.4-32 32zM862.4 362.2l16-48c5.6-16.8-3.4-34.8-20.2-40.4s-34.8 3.4-40.4 20.2l-16 48c-5.6 16.8 3.4 34.8 20.2 40.4s34.8-3.4 40.4-20.2zM822.6 201.4l-64-64c-12.4-12.4-32.8-12.4-45.2 0s-12.4 32.8 0 45.2l64 64c12.4 12.4 32.8 12.4 45.2 0s12.4-32.8 0-45.2z" />
<glyph unicode="&#xe92c;" glyph-name="ellipsis" horiz-adv-x="896" d="M16 448c0 61.856 50.144 112 112 112s112-50.144 112-112v0c0-61.856-50.144-112-112-112s-112 50.144-112 112v0zM336 448c0 61.856 50.144 112 112 112s112-50.144 112-112v0c0-61.856-50.144-112-112-112s-112 50.144-112 112v0zM768 560c61.856 0 112-50.144 112-112s-50.144-112-112-112v0c-61.856 0-112 50.144-112 112s50.144 112 112 112v0z" />
<glyph unicode="&#xe92d;" glyph-name="envelope" d="M96 832c-53 0-96-43-96-96 0-30.2 14.2-58.6 38.4-76.8l435.2-326.4c22.8-17 54-17 76.8 0l435.2 326.4c24.2 18.2 38.4 46.6 38.4 76.8 0 53-43 96-96 96h-832zM0 608v-416c0-70.6 57.4-128 128-128h768c70.6 0 128 57.4 128 128v416l-435.2-326.4c-45.6-34.2-108-34.2-153.6 0l-435.2 326.4z" />
<glyph unicode="&#xe92e;" glyph-name="eye-slash" horiz-adv-x="1280" d="M77.6 949.8c-20.8 16.4-51 12.6-67.4-8.2s-12.6-51 8.2-67.4l1184-928c20.8-16.4 51-12.6 67.4 8.2s12.6 51-8.2 67.4l-210.4 164.8c79.2 81.2 132.8 172.2 159.8 236.8 6.6 15.8 6.6 33.4 0 49.2-29.8 71.4-92.4 175.4-186 262.2-94 87.6-223.4 161.2-385 161.2-136.4 0-250-52.6-338.6-121.6l-223.8 175.4zM446.2 661c51 46.6 119.2 75 193.8 75 159 0 288-129 288-288 0-49.8-12.6-96.6-34.8-137.4l-77.2 60.4c16.8 38.6 21.2 82.8 9.6 126.6-22.2 83-95.6 138.8-177.2 142.2-11.6 0.4-18.4-12.2-14.8-23.4 4.2-12.8 6.6-26.4 6.6-40.6 0-20.4-4.8-39.6-13.2-56.6l-180.6 141.6zM746 180.2c-32.8-13-68.6-20.2-106-20.2-159 0-288 129-288 288 0 13.8 1 27.2 2.8 40.4l-188.6 148.6c-45.6-59.4-78.2-118.6-97.2-164.4-6.6-15.8-6.6-33.4 0-49.2 29.8-71.4 92.4-175.4 186-262.2 94-87.6 223.4-161.2 385-161.2 95.6 0 179.8 25.8 252.4 65l-146.4 115.2z" />
<glyph unicode="&#xe92f;" glyph-name="eye" horiz-adv-x="1152" d="M576 896c-161.6 0-291-73.6-385.2-161.2-93.6-86.8-156.2-190.8-185.8-262.2-6.6-15.8-6.6-33.4 0-49.2 29.6-71.4 92.2-175.4 185.8-262.2 94.2-87.6 223.6-161.2 385.2-161.2s291 73.6 385.2 161.2c93.6 87 156.2 190.8 186 262.2 6.6 15.8 6.6 33.4 0 49.2-29.8 71.4-92.4 175.4-186 262.2-94.2 87.6-223.6 161.2-385.2 161.2zM288 448c0 159.058 128.942 288 288 288s288-128.942 288-288v0c0-159.058-128.942-288-288-288s-288 128.942-288 288v0zM576 576c0-70.6-57.4-128-128-128-14.2 0-27.8 2.4-40.6 6.6-11 3.6-23.8-3.2-23.4-14.8 0.6-13.8 2.6-27.6 6.4-41.4 27.4-102.4 132.8-163.2 235.2-135.8s163.2 132.8 135.8 235.2c-22.2 83-95.6 138.8-177.2 142.2-11.6 0.4-18.4-12.2-14.8-23.4 4.2-12.8 6.6-26.4 6.6-40.6z" />
<glyph unicode="&#xe930;" glyph-name="file-code" horiz-adv-x="768" d="M128 960c-70.6 0-128-57.4-128-128v-768c0-70.6 57.4-128 128-128h512c70.6 0 128 57.4 128 128v576h-256c-35.4 0-64 28.6-64 64v256h-320zM512 960v-256h256l-256 256zM306 382l-62-62 62-62c18.8-18.8 18.8-49.2 0-67.8s-49.2-18.8-67.8 0l-96.2 95.8c-18.8 18.8-18.8 49.2 0 67.8l96 96c18.8 18.8 49.2 18.8 67.8 0s18.8-49.2 0-67.8zM530 450l96-96c18.8-18.8 18.8-49.2 0-67.8l-96-96c-18.8-18.8-49.2-18.8-67.8 0s-18.8 49.2 0 67.8l62 62-62 62c-18.8 18.8-18.8 49.2 0 67.8s49.2 18.8 67.8 0z" />
<glyph unicode="&#xe931;" glyph-name="file" horiz-adv-x="768" d="M0 832c0 70.6 57.4 128 128 128h320v-256c0-35.4 28.6-64 64-64h256v-576c0-70.6-57.4-128-128-128h-512c-70.6 0-128 57.4-128 128v768zM768 704h-256v256l256-256z" />
<glyph unicode="&#xe932;" glyph-name="files" horiz-adv-x="896" d="M640 960h-320c-70.6 0-128-57.4-128-128v-576c0-70.6 57.4-128 128-128h448c70.6 0 128 57.4 128 128v448h-192c-35.4 0-64 28.6-64 64v192zM896 768l-192 192v-192h192zM96 720c0 26.6-21.4 48-48 48s-48-21.4-48-48v-512c0-150.2 121.8-272 272-272h384c26.6 0 48 21.4 48 48s-21.4 48-48 48h-384c-97.2 0-176 78.8-176 176v512z" />
<glyph unicode="&#xe933;" glyph-name="filter" d="M7.8 850.2c13.2 28 41.2 45.8 72.2 45.8h864c31 0 59-17.8 72.2-45.8s9.2-61-10.4-85l-365.8-447v-254.2c0-24.2-13.6-46.4-35.4-57.2s-47.6-8.6-67 6l-128 96c-16.2 12-25.6 31-25.6 51.2v158.2l-366 447.2c-19.4 23.8-23.6 57-10.2 84.8z" />
<glyph unicode="&#xe934;" glyph-name="folder" d="M128 0h768c70.6 0 128 57.4 128 128v512c0 70.6-57.4 128-128 128h-320c-20.2 0-39.2 9.4-51.2 25.6l-38.4 51.2c-24.2 32.2-62.2 51.2-102.4 51.2h-256c-70.6 0-128-57.4-128-128v-640c0-70.6 57.4-128 128-128z" />
<glyph unicode="&#xe935;" glyph-name="gauge" d="M0 448c0 282.77 229.23 512 512 512s512-229.23 512-512v0c0-282.77-229.23-512-512-512s-512 229.23-512 512v0zM640 256c0 53.8-33 99.8-80 118.6v409.4c0 26.6-21.4 48-48 48s-48-21.4-48-48v-409.4c-47-19-80-65-80-118.6 0-70.6 57.4-128 128-128s128 57.4 128 128zM288 608c35.346 0 64 28.654 64 64s-28.654 64-64 64v0c-35.346 0-64-28.654-64-64s28.654-64 64-64v0zM256 448c0 35.346-28.654 64-64 64s-64-28.654-64-64v0c0-35.346 28.654-64 64-64s64 28.654 64 64v0zM832 384c35.346 0 64 28.654 64 64s-28.654 64-64 64v0c-35.346 0-64-28.654-64-64s28.654-64 64-64v0zM800 672c0 35.346-28.654 64-64 64s-64-28.654-64-64v0c0-35.346 28.654-64 64-64s64 28.654 64 64v0z" />
<glyph unicode="&#xe936;" glyph-name="gear" d="M991.8 626.8c6.4-17.4 1-36.8-12.8-49.2l-86.6-78.8c2.2-16.6 3.4-33.6 3.4-50.8s-1.2-34.2-3.4-50.8l86.6-78.8c13.8-12.4 19.2-31.8 12.8-49.2-8.8-23.8-19.4-46.6-31.6-68.6l-9.4-16.2c-13.2-22-28-42.8-44.2-62.4-11.8-14.4-31.4-19.2-49-13.6l-111.4 35.4c-26.8-20.6-56.4-37.8-88-50.8l-25-114.2c-4-18.2-18-32.6-36.4-35.6-27.6-4.6-56-7-85-7s-57.4 2.4-85 7c-18.4 3-32.4 17.4-36.4 35.6l-25 114.2c-31.6 13-61.2 30.2-88 50.8l-111.2-35.6c-17.6-5.6-37.2-0.6-49 13.6-16.2 19.6-31 40.4-44.2 62.4l-9.4 16.2c-12.2 22-22.8 44.8-31.6 68.6-6.4 17.4-1 36.8 12.8 49.2l86.6 78.8c-2.2 16.8-3.4 33.8-3.4 51s1.2 34.2 3.4 50.8l-86.6 78.8c-13.8 12.4-19.2 31.8-12.8 49.2 8.8 23.8 19.4 46.6 31.6 68.6l9.4 16.2c13.2 22 28 42.8 44.2 62.4 11.8 14.4 31.4 19.2 49 13.6l111.4-35.4c26.8 20.6 56.4 37.8 88 50.8l25 114.2c4 18.2 18 32.6 36.4 35.6 27.6 4.8 56 7.2 85 7.2s57.4-2.4 85-7c18.4-3 32.4-17.4 36.4-35.6l25-114.2c31.6-13 61.2-30.2 88-50.8l111.4 35.4c17.6 5.6 37.2 0.6 49-13.6 16.2-19.6 31-40.4 44.2-62.4l9.4-16.2c12.2-22 22.8-44.8 31.6-68.6zM512 288c88.366 0 160 71.634 160 160s-71.634 160-160 160v0c-88.366 0-160-71.634-160-160s71.634-160 160-160v0z" />
<glyph unicode="&#xe937;" glyph-name="globe" d="M512 32c14.8 0 54 14.4 95.2 96.8 17.6 35.4 32.8 78.4 44 127.2h-278.4c11.2-48.8 26.4-91.8 44-127.2 41.2-82.4 80.4-96.8 95.2-96.8zM357 352h310c3.2 30.6 5 62.8 5 96s-1.8 65.4-5 96h-310c-3.2-30.6-5-62.8-5-96s1.8-65.4 5-96zM372.8 640h278.4c-11.2 48.8-26.4 91.8-44 127.2-41.2 82.4-80.4 96.8-95.2 96.8s-54-14.4-95.2-96.8c-17.6-35.4-32.8-78.4-44-127.2zM763.4 544c3-31 4.4-63.2 4.4-96s-1.6-65-4.4-96h153.4c7.2 30.8 11.2 63 11.2 96s-3.8 65.2-11.2 96h-153.2zM881 640c-42.8 82.2-112.2 148.2-196.8 186.8 28.2-51.2 50.6-115 65.2-186.8h131.8zM274.4 640c14.6 71.8 37 135.4 65.2 186.8-84.6-38.6-154-104.6-196.8-186.8h131.8zM107.2 544c-7.2-30.8-11.2-63-11.2-96s3.8-65.2 11.2-96h153.4c-3 31-4.4 63.2-4.4 96s1.6 65 4.4 96h-153.4zM684.2 69.2c84.6 38.6 154 104.6 196.8 186.8h-131.6c-14.6-71.8-37-135.4-65.2-186.8zM339.8 69.2c-28.2 51.2-50.6 115-65.2 186.8h-131.8c42.8-82.2 112.2-148.2 196.8-186.8zM512-64c-282.77 0-512 229.23-512 512s229.23 512 512 512v0c282.77 0 512-229.23 512-512s-229.23-512-512-512v0z" />
<glyph unicode="&#xe938;" glyph-name="grid-2" d="M448 800c0 53-43 96-96 96h-192c-53 0-96-43-96-96v-192c0-53 43-96 96-96h192c53 0 96 43 96 96v192zM448 288c0 53-43 96-96 96h-192c-53 0-96-43-96-96v-192c0-53 43-96 96-96h192c53 0 96 43 96 96v192zM576 800v-192c0-53 43-96 96-96h192c53 0 96 43 96 96v192c0 53-43 96-96 96h-192c-53 0-96-43-96-96zM960 288c0 53-43 96-96 96h-192c-53 0-96-43-96-96v-192c0-53 43-96 96-96h192c53 0 96 43 96 96v192z" />
<glyph unicode="&#xe939;" glyph-name="grid" horiz-adv-x="896" d="M0 816c0 44.2 35.8 80 80 80h96c44.2 0 80-35.8 80-80v-96c0-44.2-35.8-80-80-80h-96c-44.2 0-80 35.8-80 80v96zM0 496c0 44.2 35.8 80 80 80h96c44.2 0 80-35.8 80-80v-96c0-44.2-35.8-80-80-80h-96c-44.2 0-80 35.8-80 80v96zM256 176v-96c0-44.2-35.8-80-80-80h-96c-44.2 0-80 35.8-80 80v96c0 44.2 35.8 80 80 80h96c44.2 0 80-35.8 80-80zM320 816c0 44.2 35.8 80 80 80h96c44.2 0 80-35.8 80-80v-96c0-44.2-35.8-80-80-80h-96c-44.2 0-80 35.8-80 80v96zM576 496v-96c0-44.2-35.8-80-80-80h-96c-44.2 0-80 35.8-80 80v96c0 44.2 35.8 80 80 80h96c44.2 0 80-35.8 80-80zM320 176c0 44.2 35.8 80 80 80h96c44.2 0 80-35.8 80-80v-96c0-44.2-35.8-80-80-80h-96c-44.2 0-80 35.8-80 80v96zM896 816v-96c0-44.2-35.8-80-80-80h-96c-44.2 0-80 35.8-80 80v96c0 44.2 35.8 80 80 80h96c44.2 0 80-35.8 80-80zM640 496c0 44.2 35.8 80 80 80h96c44.2 0 80-35.8 80-80v-96c0-44.2-35.8-80-80-80h-96c-44.2 0-80 35.8-80 80v96zM896 176v-96c0-44.2-35.8-80-80-80h-96c-44.2 0-80 35.8-80 80v96c0 44.2 35.8 80 80 80h96c44.2 0 80-35.8 80-80z" />
<glyph unicode="&#xe93a;" glyph-name="hashtag" horiz-adv-x="896" d="M362.6 895.2c34.8-5.8 58.4-38.8 52.6-73.6l-19.6-117.6h190.2l23 138.6c5.8 34.8 38.8 58.4 73.6 52.6s58.4-38.8 52.6-73.6l-19.4-117.6h116.4c35.4 0 64-28.6 64-64s-28.6-64-64-64h-137.8l-42.6-256h116.4c35.4 0 64-28.6 64-64s-28.6-64-64-64h-137.8l-23-138.6c-5.8-34.8-38.8-58.4-73.6-52.6s-58.4 38.8-52.6 73.6l19.6 117.4h-190.4l-23-138.6c-5.8-34.8-38.8-58.4-73.6-52.6s-58.4 38.8-52.6 73.6l19.4 117.8h-116.4c-35.4 0-64 28.6-64 64s28.6 64 64 64h137.8l42.6 256h-116.4c-35.4 0-64 28.6-64 64s28.6 64 64 64h137.8l23 138.6c5.8 34.8 38.8 58.4 73.6 52.6zM374.2 576l-42.6-256h190.2l42.6 256h-190.2z" />
<glyph unicode="&#xe93b;" glyph-name="house" horiz-adv-x="1152" d="M1151.6 449c0-36-30-64.2-64-64.2h-64l1.4-320.4c0-5.4-0.4-10.8-1-16.2v-32.2c0-44.2-35.8-80-80-80h-32c-2.2 0-4.4 0-6.6 0.2-2.8-0.2-5.6-0.2-8.4-0.2h-113c-44.2 0-80 35.8-80 80v176c0 35.4-28.6 64-64 64h-128c-35.4 0-64-28.6-64-64v-176c0-44.2-35.8-80-80-80h-111.8c-3 0-6 0.2-9 0.4-2.4-0.2-4.8-0.4-7.2-0.4h-32c-44.2 0-80 35.8-80 80v224c0 1.8 0 3.8 0.2 5.6v139.2h-64.2c-36 0-64 28-64 64.2 0 18 6 34 20 48l512.8 447c14 14 30 16 44 16s30-4 42-14l510.8-449c16-14 24-30 22-48z" />
<glyph unicode="&#xe93c;" glyph-name="image" d="M0 768c0 70.6 57.4 128 128 128h768c70.6 0 128-57.4 128-128v-640c0-70.6-57.4-128-128-128h-768c-70.6 0-128 57.4-128 128v640zM647.6 555c-9 13.2-23.8 21-39.6 21s-30.8-7.8-39.6-21l-174-255.2-53 66.2c-9.2 11.4-23 18-37.4 18s-28.4-6.6-37.4-18l-128-160c-11.6-14.4-13.8-34.2-5.8-50.8s24.8-27.2 43.2-27.2h672c17.8 0 34.2 9.8 42.4 25.6s7.2 34.8-2.8 49.4l-240 352zM224 576c53.019 0 96 42.981 96 96s-42.981 96-96 96v0c-53.019 0-96-42.981-96-96s42.981-96 96-96v0z" />
<glyph unicode="&#xe93d;" glyph-name="key" d="M672 256c194.4 0 352 157.6 352 352s-157.6 352-352 352-352-157.6-352-352c0-37.4 5.8-73.6 16.6-107.4l-322.6-322.6c-9-9-14-21.2-14-34v-160c0-26.6 21.4-48 48-48h160c26.6 0 48 21.4 48 48v80h80c26.6 0 48 21.4 48 48v80h80c12.8 0 25 5 34 14l66.6 66.6c33.8-10.8 70-16.6 107.4-16.6zM752 768c44.183 0 80-35.817 80-80s-35.817-80-80-80v0c-44.183 0-80 35.817-80 80s35.817 80 80 80v0z" />
<glyph unicode="&#xe93e;" glyph-name="language" horiz-adv-x="1280" d="M0 704c0 70.6 57.4 128 128 128h1024c70.6 0 128-57.4 128-128v-512c0-70.6-57.4-128-128-128h-1024c-70.6 0-128 57.4-128 128v512zM640 704v-512h512v512h-512zM356.6 608.2c-6.4 14.4-20.8 23.8-36.6 23.8s-30.2-9.4-36.6-23.8l-128-288c-9-20.2 0.2-43.8 20.4-52.8s43.8 0.2 52.8 20.4l17.8 40.2h147.2l17.8-40.2c9-20.2 32.6-29.2 52.8-20.4s29.2 32.6 20.4 52.8l-128 288zM320 493.6l38-85.6h-76l38 85.6zM896 632c22 0 40-18 40-40v-8h120c22 0 40-18 40-40s-18-40-40-40h-4l-3.2-9c-17.8-48.8-44.8-93.2-79.2-130.8 1.8-1.2 3.6-2.2 5.4-3.2l37.8-22.6c19-11.4 25-36 13.8-54.8s-36-25-54.8-13.8l-37.8 22.6c-9 5.4-17.6 11-26.2 17-21.2-15-43.8-28-68-38.8l-7.2-3.2c-20.2-9-43.8 0.2-52.8 20.4s0.2 43.8 20.4 52.8l7.2 3.2c12.8 5.8 25.2 12.2 37 19.6l-24.4 24.4c-15.6 15.6-15.6 41 0 56.6s41 15.6 56.6 0l30.2-30.2c24.8 26.2 45 56.6 59.6 90h-214.4c-22 0-40 18-40 40s18 40 40 40h104v8c0 22 18 40 40 40z" />
<glyph unicode="&#xe93f;" glyph-name="lightbulb" horiz-adv-x="768" d="M544 192c19.2 63.8 59 118.2 98.4 172.4v0c10.4 14.2 20.8 28.4 30.8 42.8 39.6 57 62.8 126 62.8 200.6 0 194.6-157.6 352.2-352 352.2s-352-157.6-352-352c0-74.6 23.2-143.8 62.8-200.6 10-14.4 20.4-28.6 30.8-42.8v0c39.6-54.2 79.4-108.8 98.4-172.4h320zM384-64c88.4 0 160 71.6 160 160v32h-320v-32c0-88.4 71.6-160 160-160zM224 608c0-17.6-14.4-32-32-32s-32 14.4-32 32c0 123.8 100.2 224 224 224 17.6 0 32-14.4 32-32s-14.4-32-32-32c-88.4 0-160-71.6-160-160z" />
<glyph unicode="&#xe940;" glyph-name="list-rtl" d="M848 864c-26.6 0-48-21.4-48-48v-96c0-26.6 21.4-48 48-48h96c26.6 0 48 21.4 48 48v96c0 26.6-21.4 48-48 48h-96zM64 832c-35.4 0-64-28.6-64-64s28.6-64 64-64h576c35.4 0 64 28.6 64 64s-28.6 64-64 64h-576zM64 512c-35.4 0-64-28.6-64-64s28.6-64 64-64h576c35.4 0 64 28.6 64 64s-28.6 64-64 64h-576zM64 192c-35.4 0-64-28.6-64-64s28.6-64 64-64h576c35.4 0 64 28.6 64 64s-28.6 64-64 64h-576zM944 544h-96c-26.6 0-48-21.4-48-48v-96c0-26.6 21.4-48 48-48h96c26.6 0 48 21.4 48 48v96c0 26.6-21.4 48-48 48zM848 224c-26.6 0-48-21.4-48-48v-96c0-26.6 21.4-48 48-48h96c26.6 0 48 21.4 48 48v96c0 26.6-21.4 48-48 48h-96z" />
<glyph unicode="&#xe941;" glyph-name="list-tree-rtl" d="M880 864c-26.6 0-48-21.4-48-48v-96c0-26.6 21.4-48 48-48v-176h-112c0 26.6-21.4 48-48 48h-96c-26.6 0-48-21.4-48-48v-96c0-26.6 21.4-48 48-48h96c26.6 0 48 21.4 48 48h112v-208c0-8.8-7.2-16-16-16h-96c0 26.6-21.4 48-48 48h-96c-26.6 0-48-21.4-48-48v-96c0-26.6 21.4-48 48-48h96c26.6 0 48 21.4 48 48h96c61.8 0 112 50.2 112 112v480c26.6 0 48 21.4 48 48v96c0 26.6-21.4 48-48 48h-96zM640 832h-576c-35.4 0-64-28.6-64-64s28.6-64 64-64h576c35.4 0 64 28.6 64 64s-28.6 64-64 64zM384 512h-320c-35.4 0-64-28.6-64-64s28.6-64 64-64h320c35.4 0 64 28.6 64 64s-28.6 64-64 64zM384 192h-320c-35.4 0-64-28.6-64-64s28.6-64 64-64h320c35.4 0 64 28.6 64 64s-28.6 64-64 64z" />
<glyph unicode="&#xe942;" glyph-name="list-tree" d="M48 864c-26.6 0-48-21.4-48-48v-96c0-26.6 21.4-48 48-48v-480c0-61.8 50.2-112 112-112h96c0-26.6 21.4-48 48-48h96c26.6 0 48 21.4 48 48v96c0 26.6-21.4 48-48 48h-96c-26.6 0-48-21.4-48-48h-96c-8.8 0-16 7.2-16 16v208h112c0-26.6 21.4-48 48-48h96c26.6 0 48 21.4 48 48v96c0 26.6-21.4 48-48 48h-96c-26.6 0-48-21.4-48-48h-112v176c26.6 0 48 21.4 48 48v96c0 26.6-21.4 48-48 48h-96zM320 768c0-35.4 28.6-64 64-64h576c35.4 0 64 28.6 64 64s-28.6 64-64 64h-576c-35.4 0-64-28.6-64-64zM576 448c0-35.4 28.6-64 64-64h320c35.4 0 64 28.6 64 64s-28.6 64-64 64h-320c-35.4 0-64-28.6-64-64zM576 128c0-35.4 28.6-64 64-64h320c35.4 0 64 28.6 64 64s-28.6 64-64 64h-320c-35.4 0-64-28.6-64-64z" />
<glyph unicode="&#xe943;" glyph-name="list" d="M80 864c-26.6 0-48-21.4-48-48v-96c0-26.6 21.4-48 48-48h96c26.6 0 48 21.4 48 48v96c0 26.6-21.4 48-48 48h-96zM384 832c-35.4 0-64-28.6-64-64s28.6-64 64-64h576c35.4 0 64 28.6 64 64s-28.6 64-64 64h-576zM384 512c-35.4 0-64-28.6-64-64s28.6-64 64-64h576c35.4 0 64 28.6 64 64s-28.6 64-64 64h-576zM384 192c-35.4 0-64-28.6-64-64s28.6-64 64-64h576c35.4 0 64 28.6 64 64s-28.6 64-64 64h-576zM32 496v-96c0-26.6 21.4-48 48-48h96c26.6 0 48 21.4 48 48v96c0 26.6-21.4 48-48 48h-96c-26.6 0-48-21.4-48-48zM80 224c-26.6 0-48-21.4-48-48v-96c0-26.6 21.4-48 48-48h96c26.6 0 48 21.4 48 48v96c0 26.6-21.4 48-48 48h-96z" />
<glyph unicode="&#xe944;" glyph-name="location-dot" horiz-adv-x="768" d="M431.4-38.4c102.6 128.4 336.6 439.6 336.6 614.4 0 212-172 384-384 384s-384-172-384-384c0-174.8 234-486 336.6-614.4 24.6-30.6 70.2-30.6 94.8 0zM384 704c70.692 0 128-57.308 128-128s-57.308-128-128-128v0c-70.692 0-128 57.308-128 128s57.308 128 128 128v0z" />
<glyph unicode="&#xe945;" glyph-name="lock" horiz-adv-x="896" d="M288 672v-96h320v96c0 88.4-71.6 160-160 160s-160-71.6-160-160zM160 576v96c0 159 129 288 288 288s288-129 288-288v-96h32c70.6 0 128-57.4 128-128v-384c0-70.6-57.4-128-128-128h-640c-70.6 0-128 57.4-128 128v384c0 70.6 57.4 128 128 128h32z" />
<glyph unicode="&#xe946;" glyph-name="magnifying-glass" d="M832 544c0-91.8-29.8-176.6-80-245.4l253.2-253.4c25-25 25-65.6 0-90.6s-65.6-25-90.6 0l-253.2 253.4c-68.8-50.4-153.6-80-245.4-80-229.8 0-416 186.2-416 416s186.2 416 416 416 416-186.2 416-416zM416 256c159.058 0 288 128.942 288 288s-128.942 288-288 288v0c-159.058 0-288-128.942-288-288s128.942-288 288-288v0z" />
<glyph unicode="&#xe947;" glyph-name="minus" horiz-adv-x="896" d="M864 448c0-35.4-28.6-64-64-64h-704c-35.4 0-64 28.6-64 64s28.6 64 64 64h704c35.4 0 64-28.6 64-64z" />
<glyph unicode="&#xe948;" glyph-name="newspaper" d="M192 768c0 70.6 57.4 128 128 128h576c70.6 0 128-57.4 128-128v-640c0-70.6-57.4-128-128-128h-736c-88.4 0-160 71.6-160 160v544c0 35.4 28.6 64 64 64s64-28.6 64-64v-544c0-17.6 14.4-32 32-32s32 14.4 32 32v608zM320 720v-160c0-26.6 21.4-48 48-48h224c26.6 0 48 21.4 48 48v160c0 26.6-21.4 48-48 48h-224c-26.6 0-48-21.4-48-48zM736 736c0-17.6 14.4-32 32-32h96c17.6 0 32 14.4 32 32s-14.4 32-32 32h-96c-17.6 0-32-14.4-32-32zM736 544c0-17.6 14.4-32 32-32h96c17.6 0 32 14.4 32 32s-14.4 32-32 32h-96c-17.6 0-32-14.4-32-32zM320 352c0-17.6 14.4-32 32-32h512c17.6 0 32 14.4 32 32s-14.4 32-32 32h-512c-17.6 0-32-14.4-32-32zM320 160c0-17.6 14.4-32 32-32h512c17.6 0 32 14.4 32 32s-14.4 32-32 32h-512c-17.6 0-32-14.4-32-32z" />
<glyph unicode="&#xe949;" glyph-name="paintbrush" horiz-adv-x="1152" d="M678.6 225.8c54.6 7.8 103.8 38.8 134.4 85.8l323.4 500.2c25.2 39 18.8 90.6-15.2 122.4s-85.8 34.6-123 6.6l-473.4-355.2c-48-36-76.4-92.2-76.8-152.2l230.6-207.6zM639.4 175l-232 208.8c-119.6-4.4-215.4-103-215.4-223.8 0-7.8 0.4-15.6 1.2-23.2 3.6-35-20.4-72.8-55.6-72.8h-9.6c-35.4 0-64-28.6-64-64s28.6-64 64-64h288c123.8 0 224 100.2 224 224 0 5-0.2 10-0.4 15z" />
<glyph unicode="&#xe94a;" glyph-name="paper-plane" d="M996.2 948.8c20.2-14 30.8-38.2 27-62.4l-128-832c-3-19.4-14.8-36.4-32-46s-37.8-10.8-56-3.2l-239.2 99.4-137-148.2c-17.8-19.4-45.8-25.8-70.4-16.2s-40.6 33.4-40.6 59.8v167.2c0 8 3 15.6 8.4 21.4l335.2 365.8c11.6 12.6 11.2 32-0.8 44s-31.4 12.8-44 1.4l-406.8-361.4-176.6 88.4c-21.2 10.6-34.8 31.8-35.4 55.4s11.8 45.6 32.2 57.4l896 512c21.4 12.2 47.8 11 68-2.8z" />
<glyph unicode="&#xe94b;" glyph-name="pen-to-square" d="M943.2 916.6c-43.8 43.8-114.6 43.8-158.4 0l-60.2-60 195.8-195.8 60.2 60.2c43.8 43.8 43.8 114.6 0 158.4l-37.4 37.2zM344.8 476.6c-12.2-12.2-21.6-27.2-27-43.8l-59.2-177.6c-5.8-17.2-1.2-36.2 11.6-49.2s31.8-17.4 49.2-11.6l177.6 59.2c16.4 5.4 31.4 14.8 43.8 27l334.6 334.8-196 196-334.6-334.8zM192 832c-106 0-192-86-192-192v-512c0-106 86-192 192-192h512c106 0 192 86 192 192v192c0 35.4-28.6 64-64 64s-64-28.6-64-64v-192c0-35.4-28.6-64-64-64h-512c-35.4 0-64 28.6-64 64v512c0 35.4 28.6 64 64 64h192c35.4 0 64 28.6 64 64s-28.6 64-64 64h-192z" />
<glyph unicode="&#xe94c;" glyph-name="pencil" d="M820.6 498l22.6 22.6-259.8 259.8-466.2-466.2c-20.8-20.8-36-46.6-44.4-74.8l-70.8-240.8c-5-16.8-0.4-35 12.2-47.4s30.6-17 47.4-12.2l240.6 70.8c28.2 8.4 54 23.6 74.8 44.4l443.6 443.8zM320 161.2l-18.2-45.4c-8-6.2-17-10.8-26.6-13.8l-156.4-46 46 156.2c2.8 9.8 7.6 18.8 13.8 26.6l45.4 18.2v-64c0-17.6 14.4-32 32-32h64zM725.4 922.6l-28.8-29-45.2-45.2-22.8-22.6 259.8-259.8 96.8 96.8c50 50 50 131 0 181l-78.6 78.8c-50 50-131 50-181 0zM630.6 586.6l-288-288c-12.4-12.4-32.8-12.4-45.2 0s-12.4 32.8 0 45.2l288 288c12.4 12.4 32.8 12.4 45.2 0s12.4-32.8 0-45.2z" />
<glyph unicode="&#xe94d;" glyph-name="play" horiz-adv-x="768" d="M146 882c-29.6 18.2-66.8 18.8-97 1.8s-49-49-49-83.8v-704c0-34.8 18.8-66.8 49-83.8s67.4-16.2 97 1.8l576 352c28.6 17.4 46 48.4 46 82s-17.4 64.4-46 82l-576 352z" />
<glyph unicode="&#xe94e;" glyph-name="plug" horiz-adv-x="768" d="M192 960c-35.4 0-64-28.6-64-64v-192h128v192c0 35.4-28.6 64-64 64zM576 960c-35.4 0-64-28.6-64-64v-192h128v192c0 35.4-28.6 64-64 64zM64 640c-35.4 0-64-28.6-64-64s28.6-64 64-64v-64c0-154.8 110-284 256-313.6v-134.4c0-35.4 28.6-64 64-64s64 28.6 64 64v134.4c146 29.6 256 158.8 256 313.6v64c35.4 0 64 28.6 64 64s-28.6 64-64 64h-640z" />
<glyph unicode="&#xe94f;" glyph-name="plus" horiz-adv-x="896" d="M512 800c0 35.4-28.6 64-64 64s-64-28.6-64-64v-288h-288c-35.4 0-64-28.6-64-64s28.6-64 64-64h288v-288c0-35.4 28.6-64 64-64s64 28.6 64 64v288h288c35.4 0 64 28.6 64 64s-28.6 64-64 64h-288v288z" />
<glyph unicode="&#xe950;" glyph-name="rotate-left" d="M97 512h-17c-26.6 0-48 21.4-48 48v256c0 19.4 11.6 37 29.6 44.4s38.6 3.4 52.4-10.4l83.2-83.2c175.2 173 457.4 172.4 631.6-2 175-175 175-458.6 0-633.6s-458.6-175-633.6 0c-25 25-25 65.6 0 90.6s65.6 25 90.6 0c125-125 327.6-125 452.6 0s125 327.6 0 452.6c-124.4 124.4-325.4 125-450.6 2l82.2-82.4c13.8-13.8 17.8-34.4 10.4-52.4s-25-29.6-44.4-29.6h-239z" />
<glyph unicode="&#xe951;" glyph-name="screwdriver" d="M930 946c-17 17-44 18.8-63.2 4.2l-208-160c-11.8-9-18.8-23.2-18.8-38v-108.2l-171.2-171.2c13.4-8.4 26-18.6 37.6-30.2s21.8-24.4 30.2-37.6l171.2 171h108.2c15 0 29 7 38 18.8l160 208c14.8 19.2 13 46.2-4.2 63.2l-79.8 80zM242.8 397.2l-224-224c-25-25-25-65.6 0-90.6l128-128c25-25 65.6-25 90.6 0l224 224c60.4 60.4 60.4 158.2 0 218.6s-158.2 60.4-218.6 0z" />
<glyph unicode="&#xe952;" glyph-name="share-rtl" d="M410 890.4c-23 10.4-50 6.2-68.8-10.8l-320-288c-13.6-12.2-21.2-29.4-21.2-47.6s7.8-35.4 21.2-47.6l320-288c18.8-16.8 45.6-21 68.8-10.8s38 33.2 38 58.4v128h192c106 0 192-86 192-192 0-60.8-25.6-95.8-44.4-113.6-11-10.2-19.6-24-19.6-39 0-21.6 17.6-39.4 39.4-39.4 5.6 0 11.2 1 16.2 3.8 37.4 20.4 200.4 121.6 200.4 348.2 0 194.4-157.6 352-352 352h-224v128c0 25.2-15 48.2-38 58.4v0z" />
<glyph unicode="&#xe953;" glyph-name="share" d="M614 890.4c-23-10.2-38-33.2-38-58.4v-128h-224c-194.4 0-352-157.6-352-352 0-226.6 163-327.8 200.4-348.2 5-2.8 10.6-3.8 16.2-3.8 21.8 0 39.4 17.8 39.4 39.4 0 15-8.6 28.8-19.6 39-18.8 17.8-44.4 52.8-44.4 113.6 0 106 86 192 192 192h192v-128c0-25.2 14.8-48.2 38-58.4s50-6 68.8 10.8l320 288c13.4 12.2 21.2 29.4 21.2 47.6s-7.6 35.4-21.2 47.6l-320 288c-18.8 17-45.8 21.2-68.8 10.8z" />
<glyph unicode="&#xe954;" glyph-name="sidebar-flip" d="M1024 768c0 70.6-57.4 128-128 128h-768c-70.6 0-128-57.4-128-128v-640c0-70.6 57.4-128 128-128h768c70.6 0 128 57.4 128 128v640zM576 768v-640h-448v640h448zM848 768c26.6 0 48-21.4 48-48s-21.4-48-48-48h-96c-26.6 0-48 21.4-48 48s21.4 48 48 48h96zM896 528c0-26.6-21.4-48-48-48h-96c-26.6 0-48 21.4-48 48s21.4 48 48 48h96c26.6 0 48-21.4 48-48zM848 384c26.6 0 48-21.4 48-48s-21.4-48-48-48h-96c-26.6 0-48 21.4-48 48s21.4 48 48 48h96z" />
<glyph unicode="&#xe955;" glyph-name="sidebar" d="M0 768c0 70.6 57.4 128 128 128h768c70.6 0 128-57.4 128-128v-640c0-70.6-57.4-128-128-128h-768c-70.6 0-128 57.4-128 128v640zM448 768v-640h448v640h-448zM176 768c-26.6 0-48-21.4-48-48s21.4-48 48-48h96c26.6 0 48 21.4 48 48s-21.4 48-48 48h-96zM128 528c0-26.6 21.4-48 48-48h96c26.6 0 48 21.4 48 48s-21.4 48-48 48h-96c-26.6 0-48-21.4-48-48zM176 384c-26.6 0-48-21.4-48-48s21.4-48 48-48h96c26.6 0 48 21.4 48 48s-21.4 48-48 48h-96z" />
<glyph unicode="&#xe956;" glyph-name="signs-post" d="M448 896h-320c-35.4 0-64-28.6-64-64v-128c0-35.4 28.6-64 64-64h754.8c8.4 0 16.6 3.4 22.6 9.4l96 96c12.4 12.4 12.4 32.8 0 45.2l-96 96c-6 6-14.2 9.4-22.6 9.4h-306.8c0 35.4-28.6 64-64 64s-64-28.6-64-64zM960 448c0 35.4-28.6 64-64 64h-320v64h-128v-64h-306.8c-8.4 0-16.6-3.4-22.6-9.4l-96-96c-12.4-12.4-12.4-32.8 0-45.2l96-96c6-6 14.2-9.4 22.6-9.4h754.8c35.4 0 64 28.6 64 64v128zM576 0v192h-128v-192c0-35.4 28.6-64 64-64s64 28.6 64 64z" />
<glyph unicode="&#xe957;" glyph-name="sliders" d="M0 128c0-35.4 28.6-64 64-64h109.4c24.6-56.6 81-96 146.6-96s122 39.4 146.6 96h493.4c35.4 0 64 28.6 64 64s-28.6 64-64 64h-493.4c-24.6 56.6-81 96-146.6 96s-122-39.4-146.6-96h-109.4c-35.4 0-64-28.6-64-64zM256 128c0 35.346 28.654 64 64 64s64-28.654 64-64v0c0-35.346-28.654-64-64-64s-64 28.654-64 64v0zM640 448c0 35.346 28.654 64 64 64s64-28.654 64-64v0c0-35.346-28.654-64-64-64s-64 28.654-64 64v0zM704 608c-65.6 0-122-39.4-146.6-96h-493.4c-35.4 0-64-28.6-64-64s28.6-64 64-64h493.4c24.6-56.6 81-96 146.6-96s122 39.4 146.6 96h109.4c35.4 0 64 28.6 64 64s-28.6 64-64 64h-109.4c-24.6 56.6-81 96-146.6 96zM384 704c-35.346 0-64 28.654-64 64s28.654 64 64 64v0c35.346 0 64-28.654 64-64s-28.654-64-64-64v0zM530.6 832c-24.6 56.6-81 96-146.6 96s-122-39.4-146.6-96h-173.4c-35.4 0-64-28.6-64-64s28.6-64 64-64h173.4c24.6-56.6 81-96 146.6-96s122 39.4 146.6 96h429.4c35.4 0 64 28.6 64 64s-28.6 64-64 64h-429.4z" />
<glyph unicode="&#xe958;" glyph-name="table-layout" d="M128 896c-70.6 0-128-57.4-128-128v-640c0-70.6 57.4-128 128-128h768c70.6 0 128 57.4 128 128v640c0 70.6-57.4 128-128 128h-768zM896 768v-128h-768v128h768zM128 512h128v-384h-128v384zM896 512v-384h-512v384h512z" />
<glyph unicode="&#xe959;" glyph-name="tag" horiz-adv-x="896" d="M0 800v-299c0-34 13.4-66.6 37.4-90.6l352-352c50-50 131-50 181 0l267 267c50 50 50 131 0 181l-352 352c-24 24-56.6 37.4-90.6 37.4h-298.8c-53 0.2-96-42.8-96-95.8zM224 736c35.346 0 64-28.654 64-64s-28.654-64-64-64v0c-35.346 0-64 28.654-64 64s28.654 64 64 64v0z" />
<glyph unicode="&#xe95a;" glyph-name="tags" d="M690 881.8l255.6-258.6c104.8-106 104.8-276.4 0-382.4l-224-226.6c-18.6-18.8-49-19-67.8-0.4s-19 49-0.4 67.8l223.8 226.6c67.8 68.6 67.8 178.8 0 247.4l-255.4 258.6c-18.6 18.8-18.4 49.2 0.4 67.8s49.2 18.4 67.8-0.4zM0 501v299c0 53 43 96 96 96h299c34 0 66.6-13.4 90.6-37.4l336-336c50-50 50-131 0-181l-267-267c-50-50-131-50-181 0l-336 336c-24.2 24-37.6 56.4-37.6 90.4zM288 672c0 35.346-28.654 64-64 64s-64-28.654-64-64v0c0-35.346 28.654-64 64-64s64 28.654 64 64v0z" />
<glyph unicode="&#xe95b;" glyph-name="scribble" d="M340 913.4c33 30 76 46.6 120.6 46.6h2.2c97.8 0 177.2-79.4 177.2-177.2 0-47-18.6-92-51.8-125.2l-381.8-381.8c-9.2-9.2-14.4-21.8-14.4-34.8 0-27 22-49 49.2-49 13 0 25.6 5.2 34.8 14.4l445.6 445.8c33.2 33.2 78.2 51.8 125.2 51.8 97.8 0 177.2-79.4 177.2-177.2 0-47-18.6-92-51.8-125.2l-176.4-176.4c-17.6-17.6-27.6-41.8-27.6-66.8 0-52 42.2-94.2 94-94.2 12.4 0 24.8 3 36 8.4l33.4 16.8c31.6 15.8 70 3 85.8-28.6s3-70-28.6-85.8l-33.6-17c-29-14.4-60.8-22-93.2-22-122.8 0-222 99.8-222 222.2 0 59 23.4 115.6 65.2 157.4l176.4 176.4c9.2 9.2 14.4 21.8 14.4 34.8 0 27.2-22 49.2-49.2 49.2-13 0-25.6-5.2-34.8-14.4l-445.6-445.8c-33.2-33.2-78.2-51.8-125.2-51.8-97.8 0-177.2 79.4-177.2 177.2 0 47 18.6 92 51.8 125.2l381.8 381.8c9.2 9.2 14.4 21.8 14.4 34.8 0 27-22 49-49.2 49h-2.2c-12.8 0-25.2-4.8-34.6-13.4l-319-290c-26.2-23.8-66.6-21.8-90.4 4.4s-21.8 66.6 4.4 90.4l319 290z" />
<glyph unicode="&#xe95c;" glyph-name="trash" horiz-adv-x="896" d="M270.4 924.6l-14.4-28.6h-192c-35.4 0-64-28.6-64-64s28.6-64 64-64h768c35.4 0 64 28.6 64 64s-28.6 64-64 64h-192l-14.4 28.6c-10.8 21.8-33 35.4-57.2 35.4h-240.8c-24.2 0-46.4-13.6-57.2-35.4zM832 704h-768l42.4-678c3.2-50.6 45.2-90 95.8-90h491.6c50.6 0 92.6 39.4 95.8 90l42.4 678z" />
<glyph unicode="&#xe95d;" glyph-name="triangle-exclamation" d="M512 896c28.4 0 54.6-15 69-39.6l432-736c14.6-24.8 14.6-55.4 0.4-80.2s-40.8-40.2-69.4-40.2h-864c-28.6 0-55.2 15.4-69.4 40.2s-14 55.6 0.4 80.2l432 736c14.4 24.6 40.6 39.6 69 39.6zM512 640c-26.6 0-48-21.4-48-48v-224c0-26.6 21.4-48 48-48s48 21.4 48 48v224c0 26.6-21.4 48-48 48zM576 192c0 35.346-28.654 64-64 64s-64-28.654-64-64v0c0-35.346 28.654-64 64-64s64 28.654 64 64v0z" />
<glyph unicode="&#xe95e;" glyph-name="unlock" horiz-adv-x="896" d="M288 672c0 88.4 71.6 160 160 160 63.8 0 118.8-37.2 144.6-91.4 15.2-32 53.4-45.6 85.2-30.4s45.6 53.4 30.4 85.2c-46.2 97.2-145.2 164.6-260.2 164.6-159 0-288-129-288-288v-96h-32c-70.6 0-128-57.4-128-128v-384c0-70.6 57.4-128 128-128h640c70.6 0 128 57.4 128 128v384c0 70.6-57.4 128-128 128h-480v96z" />
<glyph unicode="&#xe95f;" glyph-name="grip-dots" horiz-adv-x="896" d="M142.6 368.8c-43.8 43.8-43.8 114.6 0 158.4s114.6 43.8 158.4 0 43.8-114.6 0-158.4-114.8-43.8-158.4 0zM368.8 595c-43.8 43.8-43.8 114.6 0 158.4s114.6 43.8 158.4 0 43.8-114.6 0-158.4-114.6-43.6-158.4 0zM368.8 301c43.8 43.8 114.6 43.8 158.4 0s43.8-114.6 0-158.4-114.6-43.8-158.4 0c-43.8 43.6-43.8 114.6 0 158.4zM595 527.2c43.8 43.8 114.6 43.8 158.4 0s43.8-114.6 0-158.4-114.6-43.8-158.4 0c-43.6 43.8-43.6 114.6 0 158.4z" />
<glyph unicode="&#xe960;" glyph-name="up-right-and-down-left-from-center" d="M688 960h288c26.6 0 48-21.4 48-48v-288c0-19.4-11.6-37-29.6-44.4s-38.6-3.4-52.4 10.4l-78 78-174-174c-18.8-18.8-49.2-18.8-67.8 0l-64 64c-18.8 18.8-18.8 49.2 0 67.8l174 174-78.2 78.2c-13.8 13.8-17.8 34.4-10.4 52.4s25 29.6 44.4 29.6zM336-64h-288c-26.6 0-48 21.4-48 48v288c0 19.4 11.6 37 29.6 44.4s38.6 3.4 52.4-10.4l78-78 174 174c18.8 18.8 49.2 18.8 67.8 0l64-64c18.8-18.8 18.8-49.2 0-67.8l-174-174 78-78c13.8-13.8 17.8-34.4 10.4-52.4s-25-29.6-44.4-29.6z" />
<glyph unicode="&#xe961;" glyph-name="user" horiz-adv-x="896" d="M448 448c141.385 0 256 114.615 256 256s-114.615 256-256 256v0c-141.385 0-256-114.615-256-256s114.615-256 256-256v0zM356.6 352c-197 0-356.6-159.6-356.6-356.6 0-32.8 26.6-59.4 59.4-59.4h777.2c32.8 0 59.4 26.6 59.4 59.4 0 197-159.6 356.6-356.6 356.6h-182.8z" />
<glyph unicode="&#xe962;" glyph-name="user-group" horiz-adv-x="1280" d="M192 704c0 141.385 114.615 256 256 256s256-114.615 256-256v0c0-141.385-114.615-256-256-256s-256 114.615-256 256v0zM0-4.6c0 197 159.6 356.6 356.6 356.6h182.8c197 0 356.6-159.6 356.6-356.6 0-32.8-26.6-59.4-59.4-59.4h-777.2c-32.8 0-59.4 26.6-59.4 59.4zM1218.6-64h-275.8c10.8 18.8 17.2 40.6 17.2 64v16c0 121.4-54.2 230.4-139.6 303.6 4.8 0.2 9.4 0.4 14.2 0.4h122.8c178.2 0 322.6-144.4 322.6-322.6 0-34-27.6-61.4-61.4-61.4zM864 448c-62 0-118 25.2-158.6 65.8 39.4 53.2 62.6 119 62.6 190.2 0 53.6-13.2 104.2-36.6 148.6 37.2 27.2 83 43.4 132.6 43.4 123.8 0 224-100.2 224-224s-100.2-224-224-224z" />
<glyph unicode="&#xe963;" glyph-name="wand-magic-sparkles" horiz-adv-x="1152" d="M469.4 874.6l-75.4-28.2c-6-2.2-10-8-10-14.4s4-12.2 10-14.4l75.4-28.2 28.2-75.4c2.2-6 8-10 14.4-10s12.2 4 14.4 10l28.2 75.4 75.4 28.2c6 2.2 10 8 10 14.4s-4 12.2-10 14.4l-75.4 28.2-28.2 75.4c-2.2 6-8 10-14.4 10s-12.2-4-14.4-10l-28.2-75.4zM92.2 169.2c-37.4-37.4-37.4-98.2 0-135.8l69.2-69.2c37.4-37.4 98.2-37.4 135.8 0l762.6 762.8c37.4 37.4 37.4 98.2 0 135.8l-69.2 69c-37.4 37.4-98.2 37.4-135.8 0l-762.6-762.6zM969.2 794.8l-210-210-46.6 46.6 210 210 46.6-46.6zM15 725.6c-9-3.4-15-12-15-21.6s6-18.2 15-21.6l113-42.4 42.4-113c3.4-9 12-15 21.6-15s18.2 6 21.6 15l42.4 113 113 42.4c9 3.4 15 12 15 21.6s-6 18.2-15 21.6l-113 42.4-42.4 113c-3.4 9-12 15-21.6 15s-18.2-6-21.6-15l-42.4-113-113-42.4zM719 213.6c-9-3.4-15-12-15-21.6s6-18.2 15-21.6l113-42.4 42.4-113c3.4-9 12-15 21.6-15s18.2 6 21.6 15l42.4 113 113 42.4c9 3.4 15 12 15 21.6s-6 18.2-15 21.6l-113 42.4-42.4 113c-3.4 9-12 15-21.6 15s-18.2-6-21.6-15l-42.4-113-113-42.4z" />
<glyph unicode="&#xe964;" glyph-name="wrench" d="M704 320c176.8 0 320 143.2 320 320 0 30.6-4.4 60.2-12.4 88.4-6.2 21.6-32.8 26.4-48.6 10.6l-153.6-153.6c-6-6-14.2-9.4-22.6-9.4h-114.8c-17.6 0-32 14.4-32 32v114.8c0 8.4 3.4 16.6 9.4 22.6l153.6 153.6c15.8 15.8 10.8 42.4-10.6 48.6-28.2 8-57.8 12.4-88.4 12.4-176.8 0-320-143.2-320-320 0-38.2 6.8-75 19-109l-363.2-363.2c-25.4-25.4-39.8-60-39.8-96 0-75 60.8-135.8 135.8-135.8 36 0 70.6 14.4 96 39.8l363.2 363.2c34-12.4 70.8-19 109-19zM160 144c26.51 0 48-21.49 48-48s-21.49-48-48-48v0c-26.51 0-48 21.49-48 48s21.49 48 48 48v0z" />
<glyph unicode="&#xe965;" glyph-name="xmark" horiz-adv-x="768" d="M685.2 658.8c25 25 25 65.6 0 90.6s-65.6 25-90.6 0l-210.6-210.8-210.8 210.6c-25 25-65.6 25-90.6 0s-25-65.6 0-90.6l210.8-210.6-210.6-210.8c-25-25-25-65.6 0-90.6s65.6-25 90.6 0l210.6 210.8 210.8-210.6c25-25 65.6-25 90.6 0s25 65.6 0 90.6l-210.8 210.6 210.6 210.8z" />
<glyph unicode="&#xe966;" glyph-name="sitemap" horiz-adv-x="1152" d="M416 800c0 53 43 96 96 96h128c53 0 96-43 96-96v-128c0-53-43-96-96-96h-16v-80h304c61.8 0 112-50.2 112-112v-64h16c53 0 96-43 96-96v-128c0-53-43-96-96-96h-128c-53 0-96 43-96 96v128c0 53 43 96 96 96h16v64c0 8.8-7.2 16-16 16h-304v-80h16c53 0 96-43 96-96v-128c0-53-43-96-96-96h-128c-53 0-96 43-96 96v128c0 53 43 96 96 96h16v80h-304c-8.8 0-16-7.2-16-16v-64h16c53 0 96-43 96-96v-128c0-53-43-96-96-96h-128c-53 0-96 43-96 96v128c0 53 43 96 96 96h16v64c0 61.8 50.2 112 112 112h304v80h-16c-53 0-96 43-96 96v128z" />
<glyph unicode="&#xe967;" glyph-name="diamond-slash" horiz-adv-x="1278" d="M229.4 585.6l-80-80c-31.2-31.2-31.2-81.6 0-113l431.2-431.2c31.2-31.2 81.6-31.2 113 0l146.2 146.2-610.2 478zM1259.4 21.8l-283.4 222 148.8 148.8c31.2 31.2 31.2 81.6 0 113l-431.4 431c-31.2 31.2-81.6 31.2-113 0l-214.4-214.6-288.4 225.8c-20.6 16.4-50.8 12.6-67.2-8.2-15.6-19.6-13-47.6 5-64.4l1178-923.4c1.2-0.8 2.2-1.8 3.2-2.8l3.6-2.8c20.8-16.4 51-12.6 67.2 8.2s12.6 51-8.2 67.2z" />
<glyph unicode="&#xe968;" glyph-name="element-card-slash" horiz-adv-x="1280" d="M208.8 603.2c-11.8-16-18.8-35.8-18.8-57.2v-192c0-53 43-96 96-96h363.2l-440.4 345.2zM1261.6 21.8l-301.4 236.2h29.8c53 0 96 43 96 96v192c0 53-43 96-96 96h-519.6l-392.8 307.8c-20.8 16.4-51 12.6-67.4-8.2-15.6-19.6-13-47.8 5-64.6l1180.4-925.2c1.2-0.8 2.2-1.8 3.2-2.8l3.6-2.8c20.8-16.4 51-12.6 67.4 8.2s12.6 51-8.2 67.4z" />
<glyph unicode="&#xe969;" glyph-name="element-card" d="M864 640h-704c-53 0-96-43-96-96v-192c0-53 43-96 96-96h704c53 0 96 43 96 96v192c0 53-43 96-96 96z" />
<glyph unicode="&#xe96a;" glyph-name="element-cards" d="M864 384h-704c-53 0-96-43-96-96v-192c0-53 43-96 96-96h704c53 0 96 43 96 96v192c0 53-43 96-96 96zM864 896h-704c-53 0-96-43-96-96v-192c0-53 43-96 96-96h704c53 0 96 43 96 96v192c0 53-43 96-96 96z" />
<glyph unicode="&#xe96b;" glyph-name="image-slash" horiz-adv-x="1280" d="M812.6 130h-510.6c-18.4 0-35.2 10.6-43.2 27.2s-5.8 36.4 5.8 50.8l128 160c9 11.4 23 18 37.4 18s28.2-6.6 37.4-18l53-66.2 25.4 37.2-419.8 329.2v-538.2c0-70.6 57.4-128 128-128h721.8l-163.2 128zM1261.6 21.8l-113 88.6c1 6.4 1.4 13 1.4 19.6v640c0 70.6-57.4 128-128 128h-768c-29 0-55.8-9.6-77.2-26l-99.2 77.8c-20.8 16.4-51 12.6-67.4-8.2-15.6-19.6-13-47.8 5-64.6l1180.4-925.2c1.2-0.8 2.2-1.8 3.2-2.8l3.6-2.8c20.8-16.4 51-12.6 67.4 8.2s12.6 51-8.2 67.4zM445.2 661.6l-129.8 101.8c10.6 4.2 22.4 6.6 34.6 6.6 53 0 96-43 96-96 0-4.2-0.2-8.2-0.8-12.4zM654.2 498l40.2 59c8.8 13.2 23.8 21 39.6 21s30.6-7.8 39.6-21v0l223.6-328-343 269z" />
<glyph unicode="" glyph-name="image-slash" horiz-adv-x="1280" d="M812.6 130h-510.6c-18.4 0-35.2 10.6-43.2 27.2s-5.8 36.4 5.8 50.8l128 160c9 11.4 23 18 37.4 18s28.2-6.6 37.4-18l53-66.2 25.4 37.2-419.8 329.2v-538.2c0-70.6 57.4-128 128-128h721.8l-163.2 128zM1261.6 21.8l-113 88.6c1 6.4 1.4 13 1.4 19.6v640c0 70.6-57.4 128-128 128h-768c-29 0-55.8-9.6-77.2-26l-99.2 77.8c-20.8 16.4-51 12.6-67.4-8.2-15.6-19.6-13-47.8 5-64.6l1180.4-925.2c1.2-0.8 2.2-1.8 3.2-2.8l3.6-2.8c20.8-16.4 51-12.6 67.4 8.2s12.6 51-8.2 67.4zM445.2 661.6l-129.8 101.8c10.6 4.2 22.4 6.6 34.6 6.6 53 0 96-43 96-96 0-4.2-0.2-8.2-0.8-12.4zM654.2 498l40.2 59c8.8 13.2 23.8 21 39.6 21s30.6-7.8 39.6-21v0l223.6-328-343 269z" />
<glyph unicode="xmark" glyph-name="xmark" horiz-adv-x="768" d="M685.2 658.8c25 25 25 65.6 0 90.6s-65.6 25-90.6 0l-210.6-210.8-210.8 210.6c-25 25-65.6 25-90.6 0s-25-65.6 0-90.6l210.8-210.6-210.6-210.8c-25-25-25-65.6 0-90.6s65.6-25 90.6 0l210.6 210.8 210.8-210.6c25-25 65.6-25 90.6 0s25 65.6 0 90.6l-210.8 210.6 210.6 210.8z" />
<glyph unicode="wrench" glyph-name="wrench" d="M704 320c176.8 0 320 143.2 320 320 0 30.6-4.4 60.2-12.4 88.4-6.2 21.6-32.8 26.4-48.6 10.6l-153.6-153.6c-6-6-14.2-9.4-22.6-9.4h-114.8c-17.6 0-32 14.4-32 32v114.8c0 8.4 3.4 16.6 9.4 22.6l153.6 153.6c15.8 15.8 10.8 42.4-10.6 48.6-28.2 8-57.8 12.4-88.4 12.4-176.8 0-320-143.2-320-320 0-38.2 6.8-75 19-109l-363.2-363.2c-25.4-25.4-39.8-60-39.8-96 0-75 60.8-135.8 135.8-135.8 36 0 70.6 14.4 96 39.8l363.2 363.2c34-12.4 70.8-19 109-19zM160 144c26.51 0 48-21.49 48-48s-21.49-48-48-48v0c-26.51 0-48 21.49-48 48s21.49 48 48 48v0z" />
<glyph unicode="world" glyph-name="earth-americas" d="M115.4 574l18.8-32.8c16.6-29 43.8-50.4 76-59.6l115.8-33c34.4-9.8 58-41.2 58-77v-79.8c0-22 12.4-42 32-51.8s32-29.8 32-51.8v-78c0-31.2 29.8-53.8 59.8-45.2 32.2 9.2 57.2 35 65.4 67.6l5.6 22.4c8.4 33.8 30.4 62.8 60.6 80l16.2 9.2c30 17 48.4 49 48.4 83.4v16.6c0 25.4-10.2 49.8-28.2 67.8l-7.8 7.8c-18 18-42.4 28.2-67.8 28.2h-86.2c-22.2 0-44.2 5.8-63.6 16.8l-69 39.4c-8.6 5-15.2 13-18.4 22.4-6.4 19.2 2.2 40 20.4 49l11.8 6c13.2 6.6 28.6 7.8 42.6 3l46.4-15.4c16.4-5.4 34.4 0.8 43.8 15 9.4 14 8.4 32.6-2.4 45.6l-27.2 32.6c-20 24-19.8 59 0.6 82.6l31.4 36.6c17.6 20.6 20.4 50 7 73.4l-4.8 8.4c-7 0.4-13.8 0.6-20.8 0.6-185.6 0-343-121.8-396.4-290zM928 448c0 73.6-19.2 142.8-52.8 203l-51.2-20.6c-31.4-12.6-47.6-47.6-37-79.6l33.8-101.4c7-20.8 24-36.6 45.2-41.8l58.2-14.6c2.4 18 3.6 36.4 3.6 55zM0 448c0 282.77 229.23 512 512 512s512-229.23 512-512v0c0-282.77-229.23-512-512-512s-512 229.23-512 512v0z" />
<glyph unicode="wand-magic-sparkles" glyph-name="wand-magic-sparkles" horiz-adv-x="1152" d="M469.4 874.6l-75.4-28.2c-6-2.2-10-8-10-14.4s4-12.2 10-14.4l75.4-28.2 28.2-75.4c2.2-6 8-10 14.4-10s12.2 4 14.4 10l28.2 75.4 75.4 28.2c6 2.2 10 8 10 14.4s-4 12.2-10 14.4l-75.4 28.2-28.2 75.4c-2.2 6-8 10-14.4 10s-12.2-4-14.4-10l-28.2-75.4zM92.2 169.2c-37.4-37.4-37.4-98.2 0-135.8l69.2-69.2c37.4-37.4 98.2-37.4 135.8 0l762.6 762.8c37.4 37.4 37.4 98.2 0 135.8l-69.2 69c-37.4 37.4-98.2 37.4-135.8 0l-762.6-762.6zM969.2 794.8l-210-210-46.6 46.6 210 210 46.6-46.6zM15 725.6c-9-3.4-15-12-15-21.6s6-18.2 15-21.6l113-42.4 42.4-113c3.4-9 12-15 21.6-15s18.2 6 21.6 15l42.4 113 113 42.4c9 3.4 15 12 15 21.6s-6 18.2-15 21.6l-113 42.4-42.4 113c-3.4 9-12 15-21.6 15s-18.2-6-21.6-15l-42.4-113-113-42.4zM719 213.6c-9-3.4-15-12-15-21.6s6-18.2 15-21.6l113-42.4 42.4-113c3.4-9 12-15 21.6-15s18.2 6 21.6 15l42.4 113 113 42.4c9 3.4 15 12 15 21.6s-6 18.2-15 21.6l-113 42.4-42.4 113c-3.4 9-12 15-21.6 15s-18.2-6-21.6-15l-42.4-113-113-42.4z" />
<glyph unicode="wand" glyph-name="wand-magic-sparkles" horiz-adv-x="1152" d="M469.4 874.6l-75.4-28.2c-6-2.2-10-8-10-14.4s4-12.2 10-14.4l75.4-28.2 28.2-75.4c2.2-6 8-10 14.4-10s12.2 4 14.4 10l28.2 75.4 75.4 28.2c6 2.2 10 8 10 14.4s-4 12.2-10 14.4l-75.4 28.2-28.2 75.4c-2.2 6-8 10-14.4 10s-12.2-4-14.4-10l-28.2-75.4zM92.2 169.2c-37.4-37.4-37.4-98.2 0-135.8l69.2-69.2c37.4-37.4 98.2-37.4 135.8 0l762.6 762.8c37.4 37.4 37.4 98.2 0 135.8l-69.2 69c-37.4 37.4-98.2 37.4-135.8 0l-762.6-762.6zM969.2 794.8l-210-210-46.6 46.6 210 210 46.6-46.6zM15 725.6c-9-3.4-15-12-15-21.6s6-18.2 15-21.6l113-42.4 42.4-113c3.4-9 12-15 21.6-15s18.2 6 21.6 15l42.4 113 113 42.4c9 3.4 15 12 15 21.6s-6 18.2-15 21.6l-113 42.4-42.4 113c-3.4 9-12 15-21.6 15s-18.2-6-21.6-15l-42.4-113-113-42.4zM719 213.6c-9-3.4-15-12-15-21.6s6-18.2 15-21.6l113-42.4 42.4-113c3.4-9 12-15 21.6-15s18.2 6 21.6 15l42.4 113 113 42.4c9 3.4 15 12 15 21.6s-6 18.2-15 21.6l-113 42.4-42.4 113c-3.4 9-12 15-21.6 15s-18.2-6-21.6-15l-42.4-113-113-42.4z" />
<glyph unicode="view" glyph-name="eye" horiz-adv-x="1152" d="M576 896c-161.6 0-291-73.6-385.2-161.2-93.6-86.8-156.2-190.8-185.8-262.2-6.6-15.8-6.6-33.4 0-49.2 29.6-71.4 92.2-175.4 185.8-262.2 94.2-87.6 223.6-161.2 385.2-161.2s291 73.6 385.2 161.2c93.6 87 156.2 190.8 186 262.2 6.6 15.8 6.6 33.4 0 49.2-29.8 71.4-92.4 175.4-186 262.2-94.2 87.6-223.6 161.2-385.2 161.2zM288 448c0 159.058 128.942 288 288 288s288-128.942 288-288v0c0-159.058-128.942-288-288-288s-288 128.942-288 288v0zM576 576c0-70.6-57.4-128-128-128-14.2 0-27.8 2.4-40.6 6.6-11 3.6-23.8-3.2-23.4-14.8 0.6-13.8 2.6-27.6 6.4-41.4 27.4-102.4 132.8-163.2 235.2-135.8s163.2 132.8 135.8 235.2c-22.2 83-95.6 138.8-177.2 142.2-11.6 0.4-18.4-12.2-14.8-23.4 4.2-12.8 6.6-26.4 6.6-40.6z" />
<glyph unicode="users" glyph-name="user-group" horiz-adv-x="1280" d="M192 704c0 141.385 114.615 256 256 256s256-114.615 256-256v0c0-141.385-114.615-256-256-256s-256 114.615-256 256v0zM0-4.6c0 197 159.6 356.6 356.6 356.6h182.8c197 0 356.6-159.6 356.6-356.6 0-32.8-26.6-59.4-59.4-59.4h-777.2c-32.8 0-59.4 26.6-59.4 59.4zM1218.6-64h-275.8c10.8 18.8 17.2 40.6 17.2 64v16c0 121.4-54.2 230.4-139.6 303.6 4.8 0.2 9.4 0.4 14.2 0.4h122.8c178.2 0 322.6-144.4 322.6-322.6 0-34-27.6-61.4-61.4-61.4zM864 448c-62 0-118 25.2-158.6 65.8 39.4 53.2 62.6 119 62.6 190.2 0 53.6-13.2 104.2-36.6 148.6 37.2 27.2 83 43.4 132.6 43.4 123.8 0 224-100.2 224-224s-100.2-224-224-224z" />
<glyph unicode="user-group" glyph-name="user-group" horiz-adv-x="1280" d="M192 704c0 141.385 114.615 256 256 256s256-114.615 256-256v0c0-141.385-114.615-256-256-256s-256 114.615-256 256v0zM0-4.6c0 197 159.6 356.6 356.6 356.6h182.8c197 0 356.6-159.6 356.6-356.6 0-32.8-26.6-59.4-59.4-59.4h-777.2c-32.8 0-59.4 26.6-59.4 59.4zM1218.6-64h-275.8c10.8 18.8 17.2 40.6 17.2 64v16c0 121.4-54.2 230.4-139.6 303.6 4.8 0.2 9.4 0.4 14.2 0.4h122.8c178.2 0 322.6-144.4 322.6-322.6 0-34-27.6-61.4-61.4-61.4zM864 448c-62 0-118 25.2-158.6 65.8 39.4 53.2 62.6 119 62.6 190.2 0 53.6-13.2 104.2-36.6 148.6 37.2 27.2 83 43.4 132.6 43.4 123.8 0 224-100.2 224-224s-100.2-224-224-224z" />
<glyph unicode="user" glyph-name="user" horiz-adv-x="896" d="M448 448c141.385 0 256 114.615 256 256s-114.615 256-256 256v0c-141.385 0-256-114.615-256-256s114.615-256 256-256v0zM356.6 352c-197 0-356.6-159.6-356.6-356.6 0-32.8 26.6-59.4 59.4-59.4h777.2c32.8 0 59.4 26.6 59.4 59.4 0 197-159.6 356.6-356.6 356.6h-182.8z" />
<glyph unicode="upload" glyph-name="upload" d="M576 741.4v-485.4c0-35.4-28.6-64-64-64s-64 28.6-64 64v485.4l-146.8-146.8c-25-25-65.6-25-90.6 0s-25 65.6 0 90.6l256 256c25 25 65.6 25 90.6 0l256-256c25-25 25-65.6 0-90.6s-65.6-25-90.6 0l-146.6 146.8zM128 256h256c0-70.6 57.4-128 128-128s128 57.4 128 128h256c70.6 0 128-57.4 128-128v-64c0-70.6-57.4-128-128-128h-768c-70.6 0-128 57.4-128 128v64c0 70.6 57.4 128 128 128zM864 48c26.51 0 48 21.49 48 48s-21.49 48-48 48v0c-26.51 0-48-21.49-48-48s21.49-48 48-48v0z" />
<glyph unicode="upangle" glyph-name="angle-up" horiz-adv-x="896" d="M402.8 685.2c25 25 65.6 25 90.6 0l320-320c25-25 25-65.6 0-90.6s-65.6-25-90.6 0l-274.8 274.8-274.8-274.6c-25-25-65.6-25-90.6 0s-25 65.6 0 90.6l320 320z" />
<glyph unicode="up-right-and-down-left-from-center" glyph-name="up-right-and-down-left-from-center" d="M688 960h288c26.6 0 48-21.4 48-48v-288c0-19.4-11.6-37-29.6-44.4s-38.6-3.4-52.4 10.4l-78 78-174-174c-18.8-18.8-49.2-18.8-67.8 0l-64 64c-18.8 18.8-18.8 49.2 0 67.8l174 174-78.2 78.2c-13.8 13.8-17.8 34.4-10.4 52.4s25 29.6 44.4 29.6zM336-64h-288c-26.6 0-48 21.4-48 48v288c0 19.4 11.6 37 29.6 44.4s38.6 3.4 52.4-10.4l78-78 174 174c18.8 18.8 49.2 18.8 67.8 0l64-64c18.8-18.8 18.8-49.2 0-67.8l-174-174 78-78c13.8-13.8 17.8-34.4 10.4-52.4s-25-29.6-44.4-29.6z" />
<glyph unicode="unlock" glyph-name="unlock" horiz-adv-x="896" d="M288 672c0 88.4 71.6 160 160 160 63.8 0 118.8-37.2 144.6-91.4 15.2-32 53.4-45.6 85.2-30.4s45.6 53.4 30.4 85.2c-46.2 97.2-145.2 164.6-260.2 164.6-159 0-288-129-288-288v-96h-32c-70.6 0-128-57.4-128-128v-384c0-70.6 57.4-128 128-128h640c70.6 0 128 57.4 128 128v384c0 70.6-57.4 128-128 128h-480v96z" />
<glyph unicode="uarr" glyph-name="arrow-up" horiz-adv-x="768" d="M429.2 877.2c-25 25-65.6 25-90.6 0l-320-320c-25-25-25-65.6 0-90.6s65.6-25 90.6 0l210.8 211v-613.6c0-35.4 28.6-64 64-64s64 28.6 64 64v613.6l210.8-210.8c25-25 65.6-25 90.6 0s25 65.6 0 90.6l-320 320z" />
<glyph unicode="triangle-exclamation" glyph-name="triangle-exclamation" d="M512 896c28.4 0 54.6-15 69-39.6l432-736c14.6-24.8 14.6-55.4 0.4-80.2s-40.8-40.2-69.4-40.2h-864c-28.6 0-55.2 15.4-69.4 40.2s-14 55.6 0.4 80.2l432 736c14.4 24.6 40.6 39.6 69 39.6zM512 640c-26.6 0-48-21.4-48-48v-224c0-26.6 21.4-48 48-48s48 21.4 48 48v224c0 26.6-21.4 48-48 48zM576 192c0 35.346-28.654 64-64 64s-64-28.654-64-64v0c0-35.346 28.654-64 64-64s64 28.654 64 64v0z" />
<glyph unicode="tree" glyph-name="sitemap" horiz-adv-x="1152" d="M416 800c0 53 43 96 96 96h128c53 0 96-43 96-96v-128c0-53-43-96-96-96h-16v-80h304c61.8 0 112-50.2 112-112v-64h16c53 0 96-43 96-96v-128c0-53-43-96-96-96h-128c-53 0-96 43-96 96v128c0 53 43 96 96 96h16v64c0 8.8-7.2 16-16 16h-304v-80h16c53 0 96-43 96-96v-128c0-53-43-96-96-96h-128c-53 0-96 43-96 96v128c0 53 43 96 96 96h16v80h-304c-8.8 0-16-7.2-16-16v-64h16c53 0 96-43 96-96v-128c0-53-43-96-96-96h-128c-53 0-96 43-96 96v128c0 53 43 96 96 96h16v64c0 61.8 50.2 112 112 112h304v80h-16c-53 0-96 43-96 96v128z" />
<glyph unicode="trash" glyph-name="trash" horiz-adv-x="896" d="M270.4 924.6l-14.4-28.6h-192c-35.4 0-64-28.6-64-64s28.6-64 64-64h768c35.4 0 64 28.6 64 64s-28.6 64-64 64h-192l-14.4 28.6c-10.8 21.8-33 35.4-57.2 35.4h-240.8c-24.2 0-46.4-13.6-57.2-35.4zM832 704h-768l42.4-678c3.2-50.6 45.2-90 95.8-90h491.6c50.6 0 92.6 39.4 95.8 90l42.4 678z" />
<glyph unicode="tool" glyph-name="wrench" d="M704 320c176.8 0 320 143.2 320 320 0 30.6-4.4 60.2-12.4 88.4-6.2 21.6-32.8 26.4-48.6 10.6l-153.6-153.6c-6-6-14.2-9.4-22.6-9.4h-114.8c-17.6 0-32 14.4-32 32v114.8c0 8.4 3.4 16.6 9.4 22.6l153.6 153.6c15.8 15.8 10.8 42.4-10.6 48.6-28.2 8-57.8 12.4-88.4 12.4-176.8 0-320-143.2-320-320 0-38.2 6.8-75 19-109l-363.2-363.2c-25.4-25.4-39.8-60-39.8-96 0-75 60.8-135.8 135.8-135.8 36 0 70.6 14.4 96 39.8l363.2 363.2c34-12.4 70.8-19 109-19zM160 144c26.51 0 48-21.49 48-48s-21.49-48-48-48v0c-26.51 0-48 21.49-48 48s21.49 48 48 48v0z" />
<glyph unicode="time" glyph-name="clock" d="M512 960c282.77 0 512-229.23 512-512s-229.23-512-512-512v0c-282.77 0-512 229.23-512 512s229.23 512 512 512v0zM464 720v-272c0-16 8-31 21.4-40l192-128c22-14.8 51.8-8.8 66.6 13.4s8.8 51.8-13.4 66.6l-170.6 113.6v246.4c0 26.6-21.4 48-48 48s-48-21.4-48-48z" />
<glyph unicode="template" glyph-name="file-code" horiz-adv-x="768" d="M128 960c-70.6 0-128-57.4-128-128v-768c0-70.6 57.4-128 128-128h512c70.6 0 128 57.4 128 128v576h-256c-35.4 0-64 28.6-64 64v256h-320zM512 960v-256h256l-256 256zM306 382l-62-62 62-62c18.8-18.8 18.8-49.2 0-67.8s-49.2-18.8-67.8 0l-96.2 95.8c-18.8 18.8-18.8 49.2 0 67.8l96 96c18.8 18.8 49.2 18.8 67.8 0s18.8-49.2 0-67.8zM530 450l96-96c18.8-18.8 18.8-49.2 0-67.8l-96-96c-18.8-18.8-49.2-18.8-67.8 0s-18.8 49.2 0 67.8l62 62-62 62c-18.8 18.8-18.8 49.2 0 67.8s49.2 18.8 67.8 0z" />
<glyph unicode="tags" glyph-name="tags" d="M690 881.8l255.6-258.6c104.8-106 104.8-276.4 0-382.4l-224-226.6c-18.6-18.8-49-19-67.8-0.4s-19 49-0.4 67.8l223.8 226.6c67.8 68.6 67.8 178.8 0 247.4l-255.4 258.6c-18.6 18.8-18.4 49.2 0.4 67.8s49.2 18.4 67.8-0.4zM0 501v299c0 53 43 96 96 96h299c34 0 66.6-13.4 90.6-37.4l336-336c50-50 50-131 0-181l-267-267c-50-50-131-50-181 0l-336 336c-24.2 24-37.6 56.4-37.6 90.4zM288 672c0 35.346-28.654 64-64 64s-64-28.654-64-64v0c0-35.346 28.654-64 64-64s64 28.654 64 64v0z" />
<glyph unicode="tag" glyph-name="tag" horiz-adv-x="896" d="M0 800v-299c0-34 13.4-66.6 37.4-90.6l352-352c50-50 131-50 181 0l267 267c50 50 50 131 0 181l-352 352c-24 24-56.6 37.4-90.6 37.4h-298.8c-53 0.2-96-42.8-96-95.8zM224 736c35.346 0 64-28.654 64-64s-28.654-64-64-64v0c-35.346 0-64 28.654-64 64s28.654 64 64 64v0z" />
<glyph unicode="table-layout" glyph-name="table-layout" d="M128 896c-70.6 0-128-57.4-128-128v-640c0-70.6 57.4-128 128-128h768c70.6 0 128 57.4 128 128v640c0 70.6-57.4 128-128 128h-768zM896 768v-128h-768v128h768zM128 512h128v-384h-128v384zM896 512v-384h-512v384h512z" />
<glyph unicode="structurertl" glyph-name="list-tree-rtl" d="M880 864c-26.6 0-48-21.4-48-48v-96c0-26.6 21.4-48 48-48v-176h-112c0 26.6-21.4 48-48 48h-96c-26.6 0-48-21.4-48-48v-96c0-26.6 21.4-48 48-48h96c26.6 0 48 21.4 48 48h112v-208c0-8.8-7.2-16-16-16h-96c0 26.6-21.4 48-48 48h-96c-26.6 0-48-21.4-48-48v-96c0-26.6 21.4-48 48-48h96c26.6 0 48 21.4 48 48h96c61.8 0 112 50.2 112 112v480c26.6 0 48 21.4 48 48v96c0 26.6-21.4 48-48 48h-96zM640 832h-576c-35.4 0-64-28.6-64-64s28.6-64 64-64h576c35.4 0 64 28.6 64 64s-28.6 64-64 64zM384 512h-320c-35.4 0-64-28.6-64-64s28.6-64 64-64h320c35.4 0 64 28.6 64 64s-28.6 64-64 64zM384 192h-320c-35.4 0-64-28.6-64-64s28.6-64 64-64h320c35.4 0 64 28.6 64 64s-28.6 64-64 64z" />
<glyph unicode="structure" glyph-name="list-tree" d="M48 864c-26.6 0-48-21.4-48-48v-96c0-26.6 21.4-48 48-48v-480c0-61.8 50.2-112 112-112h96c0-26.6 21.4-48 48-48h96c26.6 0 48 21.4 48 48v96c0 26.6-21.4 48-48 48h-96c-26.6 0-48-21.4-48-48h-96c-8.8 0-16 7.2-16 16v208h112c0-26.6 21.4-48 48-48h96c26.6 0 48 21.4 48 48v96c0 26.6-21.4 48-48 48h-96c-26.6 0-48-21.4-48-48h-112v176c26.6 0 48 21.4 48 48v96c0 26.6-21.4 48-48 48h-96zM320 768c0-35.4 28.6-64 64-64h576c35.4 0 64 28.6 64 64s-28.6 64-64 64h-576c-35.4 0-64-28.6-64-64zM576 448c0-35.4 28.6-64 64-64h320c35.4 0 64 28.6 64 64s-28.6 64-64 64h-320c-35.4 0-64-28.6-64-64zM576 128c0-35.4 28.6-64 64-64h320c35.4 0 64 28.6 64 64s-28.6 64-64 64h-320c-35.4 0-64-28.6-64-64z" />
<glyph unicode="sliders" glyph-name="sliders" d="M0 128c0-35.4 28.6-64 64-64h109.4c24.6-56.6 81-96 146.6-96s122 39.4 146.6 96h493.4c35.4 0 64 28.6 64 64s-28.6 64-64 64h-493.4c-24.6 56.6-81 96-146.6 96s-122-39.4-146.6-96h-109.4c-35.4 0-64-28.6-64-64zM256 128c0 35.346 28.654 64 64 64s64-28.654 64-64v0c0-35.346-28.654-64-64-64s-64 28.654-64 64v0zM640 448c0 35.346 28.654 64 64 64s64-28.654 64-64v0c0-35.346-28.654-64-64-64s-64 28.654-64 64v0zM704 608c-65.6 0-122-39.4-146.6-96h-493.4c-35.4 0-64-28.6-64-64s28.6-64 64-64h493.4c24.6-56.6 81-96 146.6-96s122 39.4 146.6 96h109.4c35.4 0 64 28.6 64 64s-28.6 64-64 64h-109.4c-24.6 56.6-81 96-146.6 96zM384 704c-35.346 0-64 28.654-64 64s28.654 64 64 64v0c35.346 0 64-28.654 64-64s-28.654-64-64-64v0zM530.6 832c-24.6 56.6-81 96-146.6 96s-122-39.4-146.6-96h-173.4c-35.4 0-64-28.6-64-64s28.6-64 64-64h173.4c24.6-56.6 81-96 146.6-96s122 39.4 146.6 96h429.4c35.4 0 64 28.6 64 64s-28.6 64-64 64h-429.4z" />
<glyph unicode="sitemap" glyph-name="sitemap" horiz-adv-x="1152" d="M416 800c0 53 43 96 96 96h128c53 0 96-43 96-96v-128c0-53-43-96-96-96h-16v-80h304c61.8 0 112-50.2 112-112v-64h16c53 0 96-43 96-96v-128c0-53-43-96-96-96h-128c-53 0-96 43-96 96v128c0 53 43 96 96 96h16v64c0 8.8-7.2 16-16 16h-304v-80h16c53 0 96-43 96-96v-128c0-53-43-96-96-96h-128c-53 0-96 43-96 96v128c0 53 43 96 96 96h16v80h-304c-8.8 0-16-7.2-16-16v-64h16c53 0 96-43 96-96v-128c0-53-43-96-96-96h-128c-53 0-96 43-96 96v128c0 53 43 96 96 96h16v64c0 61.8 50.2 112 112 112h304v80h-16c-53 0-96 43-96 96v128z" />
<glyph unicode="signs-post" glyph-name="signs-post" d="M448 896h-320c-35.4 0-64-28.6-64-64v-128c0-35.4 28.6-64 64-64h754.8c8.4 0 16.6 3.4 22.6 9.4l96 96c12.4 12.4 12.4 32.8 0 45.2l-96 96c-6 6-14.2 9.4-22.6 9.4h-306.8c0 35.4-28.6 64-64 64s-64-28.6-64-64zM960 448c0 35.4-28.6 64-64 64h-320v64h-128v-64h-306.8c-8.4 0-16.6-3.4-22.6-9.4l-96-96c-12.4-12.4-12.4-32.8 0-45.2l96-96c6-6 14.2-9.4 22.6-9.4h754.8c35.4 0 64 28.6 64 64v128zM576 0v192h-128v-192c0-35.4 28.6-64 64-64s64 28.6 64 64z" />
<glyph unicode="sidebar-right" glyph-name="sidebar-flip" d="M1024 768c0 70.6-57.4 128-128 128h-768c-70.6 0-128-57.4-128-128v-640c0-70.6 57.4-128 128-128h768c70.6 0 128 57.4 128 128v640zM576 768v-640h-448v640h448zM848 768c26.6 0 48-21.4 48-48s-21.4-48-48-48h-96c-26.6 0-48 21.4-48 48s21.4 48 48 48h96zM896 528c0-26.6-21.4-48-48-48h-96c-26.6 0-48 21.4-48 48s21.4 48 48 48h96c26.6 0 48-21.4 48-48zM848 384c26.6 0 48-21.4 48-48s-21.4-48-48-48h-96c-26.6 0-48 21.4-48 48s21.4 48 48 48h96z" />
<glyph unicode="sidebar-left" glyph-name="sidebar" d="M0 768c0 70.6 57.4 128 128 128h768c70.6 0 128-57.4 128-128v-640c0-70.6-57.4-128-128-128h-768c-70.6 0-128 57.4-128 128v640zM448 768v-640h448v640h-448zM176 768c-26.6 0-48-21.4-48-48s21.4-48 48-48h96c26.6 0 48 21.4 48 48s-21.4 48-48 48h-96zM128 528c0-26.6 21.4-48 48-48h96c26.6 0 48 21.4 48 48s-21.4 48-48 48h-96c-26.6 0-48-21.4-48-48zM176 384c-26.6 0-48-21.4-48-48s21.4-48 48-48h96c26.6 0 48 21.4 48 48s-21.4 48-48 48h-96z" />
<glyph unicode="sidebar-flip" glyph-name="sidebar-flip" d="M1024 768c0 70.6-57.4 128-128 128h-768c-70.6 0-128-57.4-128-128v-640c0-70.6 57.4-128 128-128h768c70.6 0 128 57.4 128 128v640zM576 768v-640h-448v640h448zM848 768c26.6 0 48-21.4 48-48s-21.4-48-48-48h-96c-26.6 0-48 21.4-48 48s21.4 48 48 48h96zM896 528c0-26.6-21.4-48-48-48h-96c-26.6 0-48 21.4-48 48s21.4 48 48 48h96c26.6 0 48-21.4 48-48zM848 384c26.6 0 48-21.4 48-48s-21.4-48-48-48h-96c-26.6 0-48 21.4-48 48s21.4 48 48 48h96z" />
<glyph unicode="sidebar" glyph-name="sidebar" d="M0 768c0 70.6 57.4 128 128 128h768c70.6 0 128-57.4 128-128v-640c0-70.6-57.4-128-128-128h-768c-70.6 0-128 57.4-128 128v640zM448 768v-640h448v640h-448zM176 768c-26.6 0-48-21.4-48-48s21.4-48 48-48h96c26.6 0 48 21.4 48 48s-21.4 48-48 48h-96zM128 528c0-26.6 21.4-48 48-48h96c26.6 0 48 21.4 48 48s-21.4 48-48 48h-96c-26.6 0-48-21.4-48-48zM176 384c-26.6 0-48-21.4-48-48s21.4-48 48-48h96c26.6 0 48 21.4 48 48s-21.4 48-48 48h-96z" />
<glyph unicode="shuteye" glyph-name="eye-slash" horiz-adv-x="1280" d="M77.6 949.8c-20.8 16.4-51 12.6-67.4-8.2s-12.6-51 8.2-67.4l1184-928c20.8-16.4 51-12.6 67.4 8.2s12.6 51-8.2 67.4l-210.4 164.8c79.2 81.2 132.8 172.2 159.8 236.8 6.6 15.8 6.6 33.4 0 49.2-29.8 71.4-92.4 175.4-186 262.2-94 87.6-223.4 161.2-385 161.2-136.4 0-250-52.6-338.6-121.6l-223.8 175.4zM446.2 661c51 46.6 119.2 75 193.8 75 159 0 288-129 288-288 0-49.8-12.6-96.6-34.8-137.4l-77.2 60.4c16.8 38.6 21.2 82.8 9.6 126.6-22.2 83-95.6 138.8-177.2 142.2-11.6 0.4-18.4-12.2-14.8-23.4 4.2-12.8 6.6-26.4 6.6-40.6 0-20.4-4.8-39.6-13.2-56.6l-180.6 141.6zM746 180.2c-32.8-13-68.6-20.2-106-20.2-159 0-288 129-288 288 0 13.8 1 27.2 2.8 40.4l-188.6 148.6c-45.6-59.4-78.2-118.6-97.2-164.4-6.6-15.8-6.6-33.4 0-49.2 29.8-71.4 92.4-175.4 186-262.2 94-87.6 223.4-161.2 385-161.2 95.6 0 179.8 25.8 252.4 65l-146.4 115.2z" />
<glyph unicode="shareleft" glyph-name="share-rtl" d="M410 890.4c-23 10.4-50 6.2-68.8-10.8l-320-288c-13.6-12.2-21.2-29.4-21.2-47.6s7.8-35.4 21.2-47.6l320-288c18.8-16.8 45.6-21 68.8-10.8s38 33.2 38 58.4v128h192c106 0 192-86 192-192 0-60.8-25.6-95.8-44.4-113.6-11-10.2-19.6-24-19.6-39 0-21.6 17.6-39.4 39.4-39.4 5.6 0 11.2 1 16.2 3.8 37.4 20.4 200.4 121.6 200.4 348.2 0 194.4-157.6 352-352 352h-224v128c0 25.2-15 48.2-38 58.4v0z" />
<glyph unicode="share-flip" glyph-name="share-rtl" d="M410 890.4c-23 10.4-50 6.2-68.8-10.8l-320-288c-13.6-12.2-21.2-29.4-21.2-47.6s7.8-35.4 21.2-47.6l320-288c18.8-16.8 45.6-21 68.8-10.8s38 33.2 38 58.4v128h192c106 0 192-86 192-192 0-60.8-25.6-95.8-44.4-113.6-11-10.2-19.6-24-19.6-39 0-21.6 17.6-39.4 39.4-39.4 5.6 0 11.2 1 16.2 3.8 37.4 20.4 200.4 121.6 200.4 348.2 0 194.4-157.6 352-352 352h-224v128c0 25.2-15 48.2-38 58.4v0z" />
<glyph unicode="share" glyph-name="share" d="M614 890.4c-23-10.2-38-33.2-38-58.4v-128h-224c-194.4 0-352-157.6-352-352 0-226.6 163-327.8 200.4-348.2 5-2.8 10.6-3.8 16.2-3.8 21.8 0 39.4 17.8 39.4 39.4 0 15-8.6 28.8-19.6 39-18.8 17.8-44.4 52.8-44.4 113.6 0 106 86 192 192 192h192v-128c0-25.2 14.8-48.2 38-58.4s50-6 68.8 10.8l320 288c13.4 12.2 21.2 29.4 21.2 47.6s-7.6 35.4-21.2 47.6l-320 288c-18.8 17-45.8 21.2-68.8 10.8z" />
<glyph unicode="settings" glyph-name="gear" d="M991.8 626.8c6.4-17.4 1-36.8-12.8-49.2l-86.6-78.8c2.2-16.6 3.4-33.6 3.4-50.8s-1.2-34.2-3.4-50.8l86.6-78.8c13.8-12.4 19.2-31.8 12.8-49.2-8.8-23.8-19.4-46.6-31.6-68.6l-9.4-16.2c-13.2-22-28-42.8-44.2-62.4-11.8-14.4-31.4-19.2-49-13.6l-111.4 35.4c-26.8-20.6-56.4-37.8-88-50.8l-25-114.2c-4-18.2-18-32.6-36.4-35.6-27.6-4.6-56-7-85-7s-57.4 2.4-85 7c-18.4 3-32.4 17.4-36.4 35.6l-25 114.2c-31.6 13-61.2 30.2-88 50.8l-111.2-35.6c-17.6-5.6-37.2-0.6-49 13.6-16.2 19.6-31 40.4-44.2 62.4l-9.4 16.2c-12.2 22-22.8 44.8-31.6 68.6-6.4 17.4-1 36.8 12.8 49.2l86.6 78.8c-2.2 16.8-3.4 33.8-3.4 51s1.2 34.2 3.4 50.8l-86.6 78.8c-13.8 12.4-19.2 31.8-12.8 49.2 8.8 23.8 19.4 46.6 31.6 68.6l9.4 16.2c13.2 22 28 42.8 44.2 62.4 11.8 14.4 31.4 19.2 49 13.6l111.4-35.4c26.8 20.6 56.4 37.8 88 50.8l25 114.2c4 18.2 18 32.6 36.4 35.6 27.6 4.8 56 7.2 85 7.2s57.4-2.4 85-7c18.4-3 32.4-17.4 36.4-35.6l25-114.2c31.6-13 61.2-30.2 88-50.8l111.4 35.4c17.6 5.6 37.2 0.6 49-13.6 16.2-19.6 31-40.4 44.2-62.4l9.4-16.2c12.2-22 22.8-44.8 31.6-68.6zM512 288c88.366 0 160 71.634 160 160s-71.634 160-160 160v0c-88.366 0-160-71.634-160-160s71.634-160 160-160v0z" />
<glyph unicode="secure" glyph-name="lock" horiz-adv-x="896" d="M288 672v-96h320v96c0 88.4-71.6 160-160 160s-160-71.6-160-160zM160 576v96c0 159 129 288 288 288s288-129 288-288v-96h32c70.6 0 128-57.4 128-128v-384c0-70.6-57.4-128-128-128h-640c-70.6 0-128 57.4-128 128v384c0 70.6 57.4 128 128 128h32z" />
<glyph unicode="section" glyph-name="newspaper" d="M192 768c0 70.6 57.4 128 128 128h576c70.6 0 128-57.4 128-128v-640c0-70.6-57.4-128-128-128h-736c-88.4 0-160 71.6-160 160v544c0 35.4 28.6 64 64 64s64-28.6 64-64v-544c0-17.6 14.4-32 32-32s32 14.4 32 32v608zM320 720v-160c0-26.6 21.4-48 48-48h224c26.6 0 48 21.4 48 48v160c0 26.6-21.4 48-48 48h-224c-26.6 0-48-21.4-48-48zM736 736c0-17.6 14.4-32 32-32h96c17.6 0 32 14.4 32 32s-14.4 32-32 32h-96c-17.6 0-32-14.4-32-32zM736 544c0-17.6 14.4-32 32-32h96c17.6 0 32 14.4 32 32s-14.4 32-32 32h-96c-17.6 0-32-14.4-32-32zM320 352c0-17.6 14.4-32 32-32h512c17.6 0 32 14.4 32 32s-14.4 32-32 32h-512c-17.6 0-32-14.4-32-32zM320 160c0-17.6 14.4-32 32-32h512c17.6 0 32 14.4 32 32s-14.4 32-32 32h-512c-17.6 0-32-14.4-32-32z" />
<glyph unicode="search" glyph-name="magnifying-glass" d="M832 544c0-91.8-29.8-176.6-80-245.4l253.2-253.4c25-25 25-65.6 0-90.6s-65.6-25-90.6 0l-253.2 253.4c-68.8-50.4-153.6-80-245.4-80-229.8 0-416 186.2-416 416s186.2 416 416 416 416-186.2 416-416zM416 256c159.058 0 288 128.942 288 288s-128.942 288-288 288v0c-159.058 0-288-128.942-288-288s128.942-288 288-288v0z" />
<glyph unicode="scribble" glyph-name="scribble" d="M340 913.4c33 30 76 46.6 120.6 46.6h2.2c97.8 0 177.2-79.4 177.2-177.2 0-47-18.6-92-51.8-125.2l-381.8-381.8c-9.2-9.2-14.4-21.8-14.4-34.8 0-27 22-49 49.2-49 13 0 25.6 5.2 34.8 14.4l445.6 445.8c33.2 33.2 78.2 51.8 125.2 51.8 97.8 0 177.2-79.4 177.2-177.2 0-47-18.6-92-51.8-125.2l-176.4-176.4c-17.6-17.6-27.6-41.8-27.6-66.8 0-52 42.2-94.2 94-94.2 12.4 0 24.8 3 36 8.4l33.4 16.8c31.6 15.8 70 3 85.8-28.6s3-70-28.6-85.8l-33.6-17c-29-14.4-60.8-22-93.2-22-122.8 0-222 99.8-222 222.2 0 59 23.4 115.6 65.2 157.4l176.4 176.4c9.2 9.2 14.4 21.8 14.4 34.8 0 27.2-22 49.2-49.2 49.2-13 0-25.6-5.2-34.8-14.4l-445.6-445.8c-33.2-33.2-78.2-51.8-125.2-51.8-97.8 0-177.2 79.4-177.2 177.2 0 47 18.6 92 51.8 125.2l381.8 381.8c9.2 9.2 14.4 21.8 14.4 34.8 0 27-22 49-49.2 49h-2.2c-12.8 0-25.2-4.8-34.6-13.4l-319-290c-26.2-23.8-66.6-21.8-90.4 4.4s-21.8 66.6 4.4 90.4l319 290z" />
<glyph unicode="screwdriver" glyph-name="screwdriver" d="M930 946c-17 17-44 18.8-63.2 4.2l-208-160c-11.8-9-18.8-23.2-18.8-38v-108.2l-171.2-171.2c13.4-8.4 26-18.6 37.6-30.2s21.8-24.4 30.2-37.6l171.2 171h108.2c15 0 29 7 38 18.8l160 208c14.8 19.2 13 46.2-4.2 63.2l-79.8 80zM242.8 397.2l-224-224c-25-25-25-65.6 0-90.6l128-128c25-25 65.6-25 90.6 0l224 224c60.4 60.4 60.4 158.2 0 218.6s-158.2 60.4-218.6 0z" />
<glyph unicode="routes" glyph-name="signs-post" d="M448 896h-320c-35.4 0-64-28.6-64-64v-128c0-35.4 28.6-64 64-64h754.8c8.4 0 16.6 3.4 22.6 9.4l96 96c12.4 12.4 12.4 32.8 0 45.2l-96 96c-6 6-14.2 9.4-22.6 9.4h-306.8c0 35.4-28.6 64-64 64s-64-28.6-64-64zM960 448c0 35.4-28.6 64-64 64h-320v64h-128v-64h-306.8c-8.4 0-16.6-3.4-22.6-9.4l-96-96c-12.4-12.4-12.4-32.8 0-45.2l96-96c6-6 14.2-9.4 22.6-9.4h754.8c35.4 0 64 28.6 64 64v128zM576 0v192h-128v-192c0-35.4 28.6-64 64-64s64 28.6 64 64z" />
<glyph unicode="rotate-left" glyph-name="rotate-left" d="M97 512h-17c-26.6 0-48 21.4-48 48v256c0 19.4 11.6 37 29.6 44.4s38.6 3.4 52.4-10.4l83.2-83.2c175.2 173 457.4 172.4 631.6-2 175-175 175-458.6 0-633.6s-458.6-175-633.6 0c-25 25-25 65.6 0 90.6s65.6 25 90.6 0c125-125 327.6-125 452.6 0s125 327.6 0 452.6c-124.4 124.4-325.4 125-450.6 2l82.2-82.4c13.8-13.8 17.8-34.4 10.4-52.4s-25-29.6-44.4-29.6h-239z" />
<glyph unicode="rotate" glyph-name="rotate-left" d="M97 512h-17c-26.6 0-48 21.4-48 48v256c0 19.4 11.6 37 29.6 44.4s38.6 3.4 52.4-10.4l83.2-83.2c175.2 173 457.4 172.4 631.6-2 175-175 175-458.6 0-633.6s-458.6-175-633.6 0c-25 25-25 65.6 0 90.6s65.6 25 90.6 0c125-125 327.6-125 452.6 0s125 327.6 0 452.6c-124.4 124.4-325.4 125-450.6 2l82.2-82.4c13.8-13.8 17.8-34.4 10.4-52.4s-25-29.6-44.4-29.6h-239z" />
<glyph unicode="rightangle" glyph-name="angle-right" horiz-adv-x="640" d="M557.2 493.2c25-25 25-65.6 0-90.6l-320-320c-25-25-65.6-25-90.6 0s-25 65.6 0 90.6l274.8 274.8-274.6 274.8c-25 25-25 65.6 0 90.6s65.6 25 90.6 0l320-320z" />
<glyph unicode="remove" glyph-name="xmark" horiz-adv-x="768" d="M685.2 658.8c25 25 25 65.6 0 90.6s-65.6 25-90.6 0l-210.6-210.8-210.8 210.6c-25 25-65.6 25-90.6 0s-25-65.6 0-90.6l210.8-210.6-210.6-210.8c-25-25-25-65.6 0-90.6s65.6-25 90.6 0l210.6 210.8 210.8-210.6c25-25 65.6-25 90.6 0s25 65.6 0 90.6l-210.8 210.6 210.6 210.8z" />
<glyph unicode="refresh" glyph-name="arrows-rotate" d="M210.2 554.8c15.4 43.6 40.4 84.6 75.6 119.6 125 125 327.6 125 452.6 0l34.2-34.4h-68.6c-35.4 0-64-28.6-64-64s28.6-64 64-64h223c0 0 0 0 0 0h0.8c35.4 0 64 28.6 64 64v224c0 35.4-28.6 64-64 64s-64-28.6-64-64v-70.4l-35 35.2c-175 175-458.6 175-633.6 0-48.8-48.8-84-106.2-105.6-167.6-11.8-33.4 5.8-69.8 39-81.6s69.8 5.8 81.6 39zM78 381.4c-10-3-19.6-8.4-27.4-16.4-8-8-13.4-17.6-16.2-28-0.6-2.4-1.2-5-1.6-7.6-0.6-3.4-0.8-6.8-0.8-10.2v-223.2c0-35.4 28.6-64 64-64s64 28.6 64 64v70.2l35.2-35c175-174.8 458.6-174.8 633.4 0 48.8 48.8 84.2 106.2 105.8 167.4 11.8 33.4-5.8 69.8-39 81.6s-69.8-5.8-81.6-39c-15.4-43.6-40.4-84.6-75.6-119.6-125-125-327.6-125-452.6 0l-34.4 34.4h68.8c35.4 0 64 28.6 64 64s-28.6 64-64 64h-223.2c-3.2 0-6.4-0.2-9.6-0.6s-6.2-1-9.2-2z" />
<glyph unicode="rarr" glyph-name="arrow-right" horiz-adv-x="896" d="M877.2 402.8c25 25 25 65.6 0 90.6l-320 320c-25 25-65.6 25-90.6 0s-25-65.6 0-90.6l211-210.8h-613.6c-35.4 0-64-28.6-64-64s28.6-64 64-64h613.4l-210.6-210.8c-25-25-25-65.6 0-90.6s65.6-25 90.6 0l320 320z" />
<glyph unicode="plus" glyph-name="plus" horiz-adv-x="896" d="M512 800c0 35.4-28.6 64-64 64s-64-28.6-64-64v-288h-288c-35.4 0-64-28.6-64-64s28.6-64 64-64h288v-288c0-35.4 28.6-64 64-64s64 28.6 64 64v288h288c35.4 0 64 28.6 64 64s-28.6 64-64 64h-288v288z" />
<glyph unicode="plugin" glyph-name="plug" horiz-adv-x="768" d="M192 960c-35.4 0-64-28.6-64-64v-192h128v192c0 35.4-28.6 64-64 64zM576 960c-35.4 0-64-28.6-64-64v-192h128v192c0 35.4-28.6 64-64 64zM64 640c-35.4 0-64-28.6-64-64s28.6-64 64-64v-64c0-154.8 110-284 256-313.6v-134.4c0-35.4 28.6-64 64-64s64 28.6 64 64v134.4c146 29.6 256 158.8 256 313.6v64c35.4 0 64 28.6 64 64s-28.6 64-64 64h-640z" />
<glyph unicode="plug" glyph-name="plug" horiz-adv-x="768" d="M192 960c-35.4 0-64-28.6-64-64v-192h128v192c0 35.4-28.6 64-64 64zM576 960c-35.4 0-64-28.6-64-64v-192h128v192c0 35.4-28.6 64-64 64zM64 640c-35.4 0-64-28.6-64-64s28.6-64 64-64v-64c0-154.8 110-284 256-313.6v-134.4c0-35.4 28.6-64 64-64s64 28.6 64 64v134.4c146 29.6 256 158.8 256 313.6v64c35.4 0 64 28.6 64 64s-28.6 64-64 64h-640z" />
<glyph unicode="play" glyph-name="play" horiz-adv-x="768" d="M146 882c-29.6 18.2-66.8 18.8-97 1.8s-49-49-49-83.8v-704c0-34.8 18.8-66.8 49-83.8s67.4-16.2 97 1.8l576 352c28.6 17.4 46 48.4 46 82s-17.4 64.4-46 82l-576 352z" />
<glyph unicode="pencil" glyph-name="pencil" d="M820.6 498l22.6 22.6-259.8 259.8-466.2-466.2c-20.8-20.8-36-46.6-44.4-74.8l-70.8-240.8c-5-16.8-0.4-35 12.2-47.4s30.6-17 47.4-12.2l240.6 70.8c28.2 8.4 54 23.6 74.8 44.4l443.6 443.8zM320 161.2l-18.2-45.4c-8-6.2-17-10.8-26.6-13.8l-156.4-46 46 156.2c2.8 9.8 7.6 18.8 13.8 26.6l45.4 18.2v-64c0-17.6 14.4-32 32-32h64zM725.4 922.6l-28.8-29-45.2-45.2-22.8-22.6 259.8-259.8 96.8 96.8c50 50 50 131 0 181l-78.6 78.8c-50 50-131 50-181 0zM630.6 586.6l-288-288c-12.4-12.4-32.8-12.4-45.2 0s-12.4 32.8 0 45.2l288 288c12.4 12.4 32.8 12.4 45.2 0s12.4-32.8 0-45.2z" />
<glyph unicode="pen-to-square" glyph-name="pen-to-square" d="M943.2 916.6c-43.8 43.8-114.6 43.8-158.4 0l-60.2-60 195.8-195.8 60.2 60.2c43.8 43.8 43.8 114.6 0 158.4l-37.4 37.2zM344.8 476.6c-12.2-12.2-21.6-27.2-27-43.8l-59.2-177.6c-5.8-17.2-1.2-36.2 11.6-49.2s31.8-17.4 49.2-11.6l177.6 59.2c16.4 5.4 31.4 14.8 43.8 27l334.6 334.8-196 196-334.6-334.8zM192 832c-106 0-192-86-192-192v-512c0-106 86-192 192-192h512c106 0 192 86 192 192v192c0 35.4-28.6 64-64 64s-64-28.6-64-64v-192c0-35.4-28.6-64-64-64h-512c-35.4 0-64 28.6-64 64v512c0 35.4 28.6 64 64 64h192c35.4 0 64 28.6 64 64s-28.6 64-64 64h-192z" />
<glyph unicode="paperplane" glyph-name="paper-plane" d="M996.2 948.8c20.2-14 30.8-38.2 27-62.4l-128-832c-3-19.4-14.8-36.4-32-46s-37.8-10.8-56-3.2l-239.2 99.4-137-148.2c-17.8-19.4-45.8-25.8-70.4-16.2s-40.6 33.4-40.6 59.8v167.2c0 8 3 15.6 8.4 21.4l335.2 365.8c11.6 12.6 11.2 32-0.8 44s-31.4 12.8-44 1.4l-406.8-361.4-176.6 88.4c-21.2 10.6-34.8 31.8-35.4 55.4s11.8 45.6 32.2 57.4l896 512c21.4 12.2 47.8 11 68-2.8z" />
<glyph unicode="paper-plane" glyph-name="paper-plane" d="M996.2 948.8c20.2-14 30.8-38.2 27-62.4l-128-832c-3-19.4-14.8-36.4-32-46s-37.8-10.8-56-3.2l-239.2 99.4-137-148.2c-17.8-19.4-45.8-25.8-70.4-16.2s-40.6 33.4-40.6 59.8v167.2c0 8 3 15.6 8.4 21.4l335.2 365.8c11.6 12.6 11.2 32-0.8 44s-31.4 12.8-44 1.4l-406.8-361.4-176.6 88.4c-21.2 10.6-34.8 31.8-35.4 55.4s11.8 45.6 32.2 57.4l896 512c21.4 12.2 47.8 11 68-2.8z" />
<glyph unicode="paintbrush" glyph-name="paintbrush" horiz-adv-x="1152" d="M678.6 225.8c54.6 7.8 103.8 38.8 134.4 85.8l323.4 500.2c25.2 39 18.8 90.6-15.2 122.4s-85.8 34.6-123 6.6l-473.4-355.2c-48-36-76.4-92.2-76.8-152.2l230.6-207.6zM639.4 175l-232 208.8c-119.6-4.4-215.4-103-215.4-223.8 0-7.8 0.4-15.6 1.2-23.2 3.6-35-20.4-72.8-55.6-72.8h-9.6c-35.4 0-64-28.6-64-64s28.6-64 64-64h288c123.8 0 224 100.2 224 224 0 5-0.2 10-0.4 15z" />
<glyph unicode="newstamp" glyph-name="certificate" d="M422 945.4c-12 12.6-30 17.4-46.8 13s-29.8-17.8-34.2-34.6l-31.6-125-124 35c-16.8 4.8-34.8 0-47-12.2s-17-30.2-12.2-47l35-124-125-31.8c-16.8-4.2-30-17.4-34.6-34.2s0.4-34.6 13-46.6l92.4-90-92.4-90c-12.6-12-17.4-30-13-46.8s17.8-29.8 34.6-34.2l125-31.6-35-124c-4.8-16.8 0-34.8 12.2-47s30.2-17 47-12.2l124 35 31.6-125c4.2-16.8 17.4-30 34.2-34.6s34.6 0.4 46.8 12.8l90 92.4 90-92.4c12.2-12.4 30-17.4 46.8-12.8s29.8 17.8 34.2 34.6l31.6 125 124-35c16.8-4.8 34.8 0 47 12.2s17 30.2 12.2 47l-35 124 125 31.6c16.8 4.2 30 17.4 34.6 34.2s-0.4 34.8-12.8 46.8l-92.4 90 92.4 90c12.4 12.2 17.4 30 12.8 46.8s-17.8 29.8-34.6 34.2l-125 31.6 35 124c4.8 16.8 0 34.8-12.2 47s-30.2 17-47 12.2l-124-35-31.8 125c-4.2 16.8-17.4 30-34.2 34.6s-34.6-0.4-46.6-13l-90-92.4-90 92.4z" />
<glyph unicode="newspaper" glyph-name="newspaper" d="M192 768c0 70.6 57.4 128 128 128h576c70.6 0 128-57.4 128-128v-640c0-70.6-57.4-128-128-128h-736c-88.4 0-160 71.6-160 160v544c0 35.4 28.6 64 64 64s64-28.6 64-64v-544c0-17.6 14.4-32 32-32s32 14.4 32 32v608zM320 720v-160c0-26.6 21.4-48 48-48h224c26.6 0 48 21.4 48 48v160c0 26.6-21.4 48-48 48h-224c-26.6 0-48-21.4-48-48zM736 736c0-17.6 14.4-32 32-32h96c17.6 0 32 14.4 32 32s-14.4 32-32 32h-96c-17.6 0-32-14.4-32-32zM736 544c0-17.6 14.4-32 32-32h96c17.6 0 32 14.4 32 32s-14.4 32-32 32h-96c-17.6 0-32-14.4-32-32zM320 352c0-17.6 14.4-32 32-32h512c17.6 0 32 14.4 32 32s-14.4 32-32 32h-512c-17.6 0-32-14.4-32-32zM320 160c0-17.6 14.4-32 32-32h512c17.6 0 32 14.4 32 32s-14.4 32-32 32h-512c-17.6 0-32-14.4-32-32z" />
<glyph unicode="move" glyph-name="grip-dots" horiz-adv-x="896" d="M142.6 368.8c-43.8 43.8-43.8 114.6 0 158.4s114.6 43.8 158.4 0 43.8-114.6 0-158.4-114.8-43.8-158.4 0zM368.8 595c-43.8 43.8-43.8 114.6 0 158.4s114.6 43.8 158.4 0 43.8-114.6 0-158.4-114.6-43.6-158.4 0zM368.8 301c43.8 43.8 114.6 43.8 158.4 0s43.8-114.6 0-158.4-114.6-43.8-158.4 0c-43.8 43.6-43.8 114.6 0 158.4zM595 527.2c43.8 43.8 114.6 43.8 158.4 0s43.8-114.6 0-158.4-114.6-43.8-158.4 0c-43.6 43.8-43.6 114.6 0 158.4z" />
<glyph unicode="minus" glyph-name="minus" horiz-adv-x="896" d="M864 448c0-35.4-28.6-64-64-64h-704c-35.4 0-64 28.6-64 64s28.6 64 64 64h704c35.4 0 64-28.6 64-64z" />
<glyph unicode="menu" glyph-name="bars" horiz-adv-x="896" d="M0 768c0 35.4 28.6 64 64 64h768c35.4 0 64-28.6 64-64s-28.6-64-64-64h-768c-35.4 0-64 28.6-64 64zM0 448c0 35.4 28.6 64 64 64h768c35.4 0 64-28.6 64-64s-28.6-64-64-64h-768c-35.4 0-64 28.6-64 64zM896 128c0-35.4-28.6-64-64-64h-768c-35.4 0-64 28.6-64 64s28.6 64 64 64h768c35.4 0 64-28.6 64-64z" />
<glyph unicode="mail" glyph-name="envelope" d="M96 832c-53 0-96-43-96-96 0-30.2 14.2-58.6 38.4-76.8l435.2-326.4c22.8-17 54-17 76.8 0l435.2 326.4c24.2 18.2 38.4 46.6 38.4 76.8 0 53-43 96-96 96h-832zM0 608v-416c0-70.6 57.4-128 128-128h768c70.6 0 128 57.4 128 128v416l-435.2-326.4c-45.6-34.2-108-34.2-153.6 0l-435.2 326.4z" />
<glyph unicode="magnifying-glass" glyph-name="magnifying-glass" d="M832 544c0-91.8-29.8-176.6-80-245.4l253.2-253.4c25-25 25-65.6 0-90.6s-65.6-25-90.6 0l-253.2 253.4c-68.8-50.4-153.6-80-245.4-80-229.8 0-416 186.2-416 416s186.2 416 416 416 416-186.2 416-416zM416 256c159.058 0 288 128.942 288 288s-128.942 288-288 288v0c-159.058 0-288-128.942-288-288s128.942-288 288-288v0z" />
<glyph unicode="lock" glyph-name="lock" horiz-adv-x="896" d="M288 672v-96h320v96c0 88.4-71.6 160-160 160s-160-71.6-160-160zM160 576v96c0 159 129 288 288 288s288-129 288-288v-96h32c70.6 0 128-57.4 128-128v-384c0-70.6-57.4-128-128-128h-640c-70.6 0-128 57.4-128 128v384c0 70.6 57.4 128 128 128h32z" />
<glyph unicode="location-dot" glyph-name="location-dot" horiz-adv-x="768" d="M431.4-38.4c102.6 128.4 336.6 439.6 336.6 614.4 0 212-172 384-384 384s-384-172-384-384c0-174.8 234-486 336.6-614.4 24.6-30.6 70.2-30.6 94.8 0zM384 704c70.692 0 128-57.308 128-128s-57.308-128-128-128v0c-70.692 0-128 57.308-128 128s57.308 128 128 128v0z" />
<glyph unicode="location" glyph-name="location-dot" horiz-adv-x="768" d="M431.4-38.4c102.6 128.4 336.6 439.6 336.6 614.4 0 212-172 384-384 384s-384-172-384-384c0-174.8 234-486 336.6-614.4 24.6-30.6 70.2-30.6 94.8 0zM384 704c70.692 0 128-57.308 128-128s-57.308-128-128-128v0c-70.692 0-128 57.308-128 128s57.308 128 128 128v0z" />
<glyph unicode="listrtl" glyph-name="list-rtl" d="M848 864c-26.6 0-48-21.4-48-48v-96c0-26.6 21.4-48 48-48h96c26.6 0 48 21.4 48 48v96c0 26.6-21.4 48-48 48h-96zM64 832c-35.4 0-64-28.6-64-64s28.6-64 64-64h576c35.4 0 64 28.6 64 64s-28.6 64-64 64h-576zM64 512c-35.4 0-64-28.6-64-64s28.6-64 64-64h576c35.4 0 64 28.6 64 64s-28.6 64-64 64h-576zM64 192c-35.4 0-64-28.6-64-64s28.6-64 64-64h576c35.4 0 64 28.6 64 64s-28.6 64-64 64h-576zM944 544h-96c-26.6 0-48-21.4-48-48v-96c0-26.6 21.4-48 48-48h96c26.6 0 48 21.4 48 48v96c0 26.6-21.4 48-48 48zM848 224c-26.6 0-48-21.4-48-48v-96c0-26.6 21.4-48 48-48h96c26.6 0 48 21.4 48 48v96c0 26.6-21.4 48-48 48h-96z" />
<glyph unicode="list-tree-flip" glyph-name="list-tree-rtl" d="M880 864c-26.6 0-48-21.4-48-48v-96c0-26.6 21.4-48 48-48v-176h-112c0 26.6-21.4 48-48 48h-96c-26.6 0-48-21.4-48-48v-96c0-26.6 21.4-48 48-48h96c26.6 0 48 21.4 48 48h112v-208c0-8.8-7.2-16-16-16h-96c0 26.6-21.4 48-48 48h-96c-26.6 0-48-21.4-48-48v-96c0-26.6 21.4-48 48-48h96c26.6 0 48 21.4 48 48h96c61.8 0 112 50.2 112 112v480c26.6 0 48 21.4 48 48v96c0 26.6-21.4 48-48 48h-96zM640 832h-576c-35.4 0-64-28.6-64-64s28.6-64 64-64h576c35.4 0 64 28.6 64 64s-28.6 64-64 64zM384 512h-320c-35.4 0-64-28.6-64-64s28.6-64 64-64h320c35.4 0 64 28.6 64 64s-28.6 64-64 64zM384 192h-320c-35.4 0-64-28.6-64-64s28.6-64 64-64h320c35.4 0 64 28.6 64 64s-28.6 64-64 64z" />
<glyph unicode="list-tree" glyph-name="list-tree" d="M48 864c-26.6 0-48-21.4-48-48v-96c0-26.6 21.4-48 48-48v-480c0-61.8 50.2-112 112-112h96c0-26.6 21.4-48 48-48h96c26.6 0 48 21.4 48 48v96c0 26.6-21.4 48-48 48h-96c-26.6 0-48-21.4-48-48h-96c-8.8 0-16 7.2-16 16v208h112c0-26.6 21.4-48 48-48h96c26.6 0 48 21.4 48 48v96c0 26.6-21.4 48-48 48h-96c-26.6 0-48-21.4-48-48h-112v176c26.6 0 48 21.4 48 48v96c0 26.6-21.4 48-48 48h-96zM320 768c0-35.4 28.6-64 64-64h576c35.4 0 64 28.6 64 64s-28.6 64-64 64h-576c-35.4 0-64-28.6-64-64zM576 448c0-35.4 28.6-64 64-64h320c35.4 0 64 28.6 64 64s-28.6 64-64 64h-320c-35.4 0-64-28.6-64-64zM576 128c0-35.4 28.6-64 64-64h320c35.4 0 64 28.6 64 64s-28.6 64-64 64h-320c-35.4 0-64-28.6-64-64z" />
<glyph unicode="list-flip" glyph-name="list-rtl" d="M848 864c-26.6 0-48-21.4-48-48v-96c0-26.6 21.4-48 48-48h96c26.6 0 48 21.4 48 48v96c0 26.6-21.4 48-48 48h-96zM64 832c-35.4 0-64-28.6-64-64s28.6-64 64-64h576c35.4 0 64 28.6 64 64s-28.6 64-64 64h-576zM64 512c-35.4 0-64-28.6-64-64s28.6-64 64-64h576c35.4 0 64 28.6 64 64s-28.6 64-64 64h-576zM64 192c-35.4 0-64-28.6-64-64s28.6-64 64-64h576c35.4 0 64 28.6 64 64s-28.6 64-64 64h-576zM944 544h-96c-26.6 0-48-21.4-48-48v-96c0-26.6 21.4-48 48-48h96c26.6 0 48 21.4 48 48v96c0 26.6-21.4 48-48 48zM848 224c-26.6 0-48-21.4-48-48v-96c0-26.6 21.4-48 48-48h96c26.6 0 48 21.4 48 48v96c0 26.6-21.4 48-48 48h-96z" />
<glyph unicode="list" glyph-name="list" d="M80 864c-26.6 0-48-21.4-48-48v-96c0-26.6 21.4-48 48-48h96c26.6 0 48 21.4 48 48v96c0 26.6-21.4 48-48 48h-96zM384 832c-35.4 0-64-28.6-64-64s28.6-64 64-64h576c35.4 0 64 28.6 64 64s-28.6 64-64 64h-576zM384 512c-35.4 0-64-28.6-64-64s28.6-64 64-64h576c35.4 0 64 28.6 64 64s-28.6 64-64 64h-576zM384 192c-35.4 0-64-28.6-64-64s28.6-64 64-64h576c35.4 0 64 28.6 64 64s-28.6 64-64 64h-576zM32 496v-96c0-26.6 21.4-48 48-48h96c26.6 0 48 21.4 48 48v96c0 26.6-21.4 48-48 48h-96c-26.6 0-48-21.4-48-48zM80 224c-26.6 0-48-21.4-48-48v-96c0-26.6 21.4-48 48-48h96c26.6 0 48 21.4 48 48v96c0 26.6-21.4 48-48 48h-96z" />
<glyph unicode="lightbulb" glyph-name="lightbulb" horiz-adv-x="768" d="M544 192c19.2 63.8 59 118.2 98.4 172.4v0c10.4 14.2 20.8 28.4 30.8 42.8 39.6 57 62.8 126 62.8 200.6 0 194.6-157.6 352.2-352 352.2s-352-157.6-352-352c0-74.6 23.2-143.8 62.8-200.6 10-14.4 20.4-28.6 30.8-42.8v0c39.6-54.2 79.4-108.8 98.4-172.4h320zM384-64c88.4 0 160 71.6 160 160v32h-320v-32c0-88.4 71.6-160 160-160zM224 608c0-17.6-14.4-32-32-32s-32 14.4-32 32c0 123.8 100.2 224 224 224 17.6 0 32-14.4 32-32s-14.4-32-32-32c-88.4 0-160-71.6-160-160z" />
<glyph unicode="leftangle" glyph-name="angle-left" horiz-adv-x="640" d="M82.8 493.2c-25-25-25-65.6 0-90.6l320-320c25-25 65.6-25 90.6 0s25 65.6 0 90.6l-274.8 274.8 274.6 274.8c25 25 25 65.6 0 90.6s-65.6 25-90.6 0l-320-320z" />
<glyph unicode="layout" glyph-name="table-layout" d="M128 896c-70.6 0-128-57.4-128-128v-640c0-70.6 57.4-128 128-128h768c70.6 0 128 57.4 128 128v640c0 70.6-57.4 128-128 128h-768zM896 768v-128h-768v128h768zM128 512h128v-384h-128v384zM896 512v-384h-512v384h512z" />
<glyph unicode="larr" glyph-name="arrow-left" horiz-adv-x="896" d="M18.8 493.2c-25-25-25-65.6 0-90.6l320-320c25-25 65.6-25 90.6 0s25 65.6 0 90.6l-211 210.8h613.6c35.4 0 64 28.6 64 64s-28.6 64-64 64h-613.4l210.6 210.8c25 25 25 65.6 0 90.6s-65.6 25-90.6 0l-320-320z" />
<glyph unicode="language" glyph-name="language" horiz-adv-x="1280" d="M0 704c0 70.6 57.4 128 128 128h1024c70.6 0 128-57.4 128-128v-512c0-70.6-57.4-128-128-128h-1024c-70.6 0-128 57.4-128 128v512zM640 704v-512h512v512h-512zM356.6 608.2c-6.4 14.4-20.8 23.8-36.6 23.8s-30.2-9.4-36.6-23.8l-128-288c-9-20.2 0.2-43.8 20.4-52.8s43.8 0.2 52.8 20.4l17.8 40.2h147.2l17.8-40.2c9-20.2 32.6-29.2 52.8-20.4s29.2 32.6 20.4 52.8l-128 288zM320 493.6l38-85.6h-76l38 85.6zM896 632c22 0 40-18 40-40v-8h120c22 0 40-18 40-40s-18-40-40-40h-4l-3.2-9c-17.8-48.8-44.8-93.2-79.2-130.8 1.8-1.2 3.6-2.2 5.4-3.2l37.8-22.6c19-11.4 25-36 13.8-54.8s-36-25-54.8-13.8l-37.8 22.6c-9 5.4-17.6 11-26.2 17-21.2-15-43.8-28-68-38.8l-7.2-3.2c-20.2-9-43.8 0.2-52.8 20.4s0.2 43.8 20.4 52.8l7.2 3.2c12.8 5.8 25.2 12.2 37 19.6l-24.4 24.4c-15.6 15.6-15.6 41 0 56.6s41 15.6 56.6 0l30.2-30.2c24.8 26.2 45 56.6 59.6 90h-214.4c-22 0-40 18-40 40s18 40 40 40h104v8c0 22 18 40 40 40z" />
<glyph unicode="key" glyph-name="key" d="M672 256c194.4 0 352 157.6 352 352s-157.6 352-352 352-352-157.6-352-352c0-37.4 5.8-73.6 16.6-107.4l-322.6-322.6c-9-9-14-21.2-14-34v-160c0-26.6 21.4-48 48-48h160c26.6 0 48 21.4 48 48v80h80c26.6 0 48 21.4 48 48v80h80c12.8 0 25 5 34 14l66.6 66.6c33.8-10.8 70-16.6 107.4-16.6zM752 768c44.183 0 80-35.817 80-80s-35.817-80-80-80v0c-44.183 0-80 35.817-80 80s35.817 80 80 80v0z" />
<glyph unicode="insecure" glyph-name="unlock" horiz-adv-x="896" d="M288 672c0 88.4 71.6 160 160 160 63.8 0 118.8-37.2 144.6-91.4 15.2-32 53.4-45.6 85.2-30.4s45.6 53.4 30.4 85.2c-46.2 97.2-145.2 164.6-260.2 164.6-159 0-288-129-288-288v-96h-32c-70.6 0-128-57.4-128-128v-384c0-70.6 57.4-128 128-128h640c70.6 0 128 57.4 128 128v384c0 70.6-57.4 128-128 128h-480v96z" />
<glyph unicode="info" glyph-name="circle-info" d="M512-64c282.77 0 512 229.23 512 512s-229.23 512-512 512v0c-282.77 0-512-229.23-512-512s229.23-512 512-512v0zM432 288h48v128h-48c-26.6 0-48 21.4-48 48s21.4 48 48 48h96c26.6 0 48-21.4 48-48v-176h16c26.6 0 48-21.4 48-48s-21.4-48-48-48h-160c-26.6 0-48 21.4-48 48s21.4 48 48 48zM512 704c35.346 0 64-28.654 64-64s-28.654-64-64-64v0c-35.346 0-64 28.654-64 64s28.654 64 64 64v0z" />
<glyph unicode="image-slash" glyph-name="image-slash" horiz-adv-x="1280" d="M812.6 130h-510.6c-18.4 0-35.2 10.6-43.2 27.2s-5.8 36.4 5.8 50.8l128 160c9 11.4 23 18 37.4 18s28.2-6.6 37.4-18l53-66.2 25.4 37.2-419.8 329.2v-538.2c0-70.6 57.4-128 128-128h721.8l-163.2 128zM1261.6 21.8l-113 88.6c1 6.4 1.4 13 1.4 19.6v640c0 70.6-57.4 128-128 128h-768c-29 0-55.8-9.6-77.2-26l-99.2 77.8c-20.8 16.4-51 12.6-67.4-8.2-15.6-19.6-13-47.8 5-64.6l1180.4-925.2c1.2-0.8 2.2-1.8 3.2-2.8l3.6-2.8c20.8-16.4 51-12.6 67.4 8.2s12.6 51-8.2 67.4zM445.2 661.6l-129.8 101.8c10.6 4.2 22.4 6.6 34.6 6.6 53 0 96-43 96-96 0-4.2-0.2-8.2-0.8-12.4zM654.2 498l40.2 59c8.8 13.2 23.8 21 39.6 21s30.6-7.8 39.6-21v0l223.6-328-343 269z" />
<glyph unicode="image" glyph-name="image" d="M0 768c0 70.6 57.4 128 128 128h768c70.6 0 128-57.4 128-128v-640c0-70.6-57.4-128-128-128h-768c-70.6 0-128 57.4-128 128v640zM647.6 555c-9 13.2-23.8 21-39.6 21s-30.8-7.8-39.6-21l-174-255.2-53 66.2c-9.2 11.4-23 18-37.4 18s-28.4-6.6-37.4-18l-128-160c-11.6-14.4-13.8-34.2-5.8-50.8s24.8-27.2 43.2-27.2h672c17.8 0 34.2 9.8 42.4 25.6s7.2 34.8-2.8 49.4l-240 352zM224 576c53.019 0 96 42.981 96 96s-42.981 96-96 96v0c-53.019 0-96-42.981-96-96s42.981-96 96-96v0z" />
</font>
</defs>
</svg>
