<svg xmlns="http://www.w3.org/2000/svg" viewBox="0 0 576 512"><!--! Font Awesome Pro 6.5.2 by @fontawesome - https://fontawesome.com License - https://fontawesome.com/license (Commercial License) Copyright 2024 Fonticons, Inc. --><path d="M512 96V208H448V176h8c13.3 0 24-10.7 24-24s-10.7-24-24-24h-8V96h64zm-96 32h-8c-13.3 0-24 10.7-24 24s10.7 24 24 24h8v32H288V176h8c13.3 0 24-10.7 24-24s-10.7-24-24-24h-8V96H416v32zm-160 0h-8c-13.3 0-24 10.7-24 24s10.7 24 24 24h8v32H160V176h8c13.3 0 24-10.7 24-24s-10.7-24-24-24h-8V96h96v32zm-128 0h-8c-13.3 0-24 10.7-24 24s10.7 24 24 24h8v32H64V96h64v32zM64 416l0-176h64v24h-8c-13.3 0-24 10.7-24 24s10.7 24 24 24h8v24h-8c-13.3 0-24 10.7-24 24s10.7 24 24 24h8v32H64zm96-32h8c13.3 0 24-10.7 24-24s-10.7-24-24-24h-8V312h8c13.3 0 24-10.7 24-24s-10.7-24-24-24h-8V240h96v24h-8c-13.3 0-24 10.7-24 24s10.7 24 24 24h8v24h-8c-13.3 0-24 10.7-24 24s10.7 24 24 24h8v32H160V384zm128-72h8c13.3 0 24-10.7 24-24s-10.7-24-24-24h-8V240H416v96h-8c-13.3 0-24 10.7-24 24s10.7 24 24 24h8v32H288V384h8c13.3 0 24-10.7 24-24s-10.7-24-24-24h-8V312zm160 72h8c13.3 0 24-10.7 24-24s-10.7-24-24-24h-8V240h64V416H448V384zM64 32C28.7 32 0 60.7 0 96V416c0 35.3 28.7 64 64 64H512c35.3 0 64-28.7 64-64V96c0-35.3-28.7-64-64-64H64z"/></svg>