<svg xmlns="http://www.w3.org/2000/svg" viewBox="0 0 448 512"><!--! Font Awesome Pro 6.5.1 by @fontawesome - https://fontawesome.com License - https://fontawesome.com/license (Commercial License) Copyright 2023 Fonticons, Inc. --><path d="M262.4 4.8c10.6 8 12.8 23 4.8 33.6l-4.8 6.4c-4.4 5.9-7.9 12.4-10.3 19.2H352c53 0 96 43 96 96c0 17.7-14.3 32-32 32H32c-17.7 0-32-14.3-32-32c0-53 43-96 96-96H202.4C206 46.7 213.3 30.3 224 16l4.8-6.4c8-10.6 23-12.8 33.6-4.8zM213.9 476.4C78.5 425.9 48 302.1 48 224H224 400c0 78.1-30.5 201.9-165.9 252.4c-6.5 2.4-13.7 2.4-20.2 0z"/></svg>