<svg xmlns="http://www.w3.org/2000/svg" viewBox="0 0 576 512"><!--! Font Awesome Pro 6.5.2 by @fontawesome - https://fontawesome.com License - https://fontawesome.com/license (Commercial License) Copyright 2024 Fonticons, Inc. --><path d="M64 0C28.7 0 0 28.7 0 64v96c0 35.3 28.7 64 64 64H512c35.3 0 64-28.7 64-64V64c0-35.3-28.7-64-64-64H64zM80 128H496c8.8 0 16 7.2 16 16s-7.2 16-16 16H80c-8.8 0-16-7.2-16-16s7.2-16 16-16zM256 256H192V416c0 17.7-14.3 32-32 32s-32-14.3-32-32c0-11.8 6.4-22.2 16-27.7c15.3-8.9 20.5-28.4 11.7-43.7s-28.4-20.5-43.7-11.7C83.4 349.4 64 380.4 64 416c0 53 43 96 96 96s96-43 96-96V256zm64 128c0 53 43 96 96 96s96-43 96-96c0-35.6-19.4-66.6-48-83.1c-15.3-8.8-34.9-3.6-43.7 11.7s-3.6 34.9 11.7 43.7c9.6 5.6 16 15.9 16 27.7c0 17.7-14.3 32-32 32s-32-14.3-32-32V256H320V384z"/></svg>