<svg xmlns="http://www.w3.org/2000/svg" viewBox="0 0 512 512"><!--! Font Awesome Pro 6.5.2 by @fontawesome - https://fontawesome.com License - https://fontawesome.com/license (Commercial License) Copyright 2024 Fonticons, Inc. --><path d="M160 25.4C143 9.6 120.2 0 95.2 0C42.6 0 0 42.6 0 95.2c0 18.8 5.5 36.3 14.9 51.1L160 25.4zM256 512c50.3 0 96.8-16.6 134.2-44.6l35.2 35.2c12.5 12.5 32.8 12.5 45.3 0s12.5-32.8 0-45.3l-35.2-35.2c28-37.4 44.6-83.8 44.6-134.2C480 164.3 379.7 64 256 64S32 164.3 32 288c0 50.3 16.6 96.8 44.6 134.2L41.4 457.4c-12.5 12.5-12.5 32.8 0 45.3s32.8 12.5 45.3 0l35.2-35.2c37.4 28 83.8 44.6 134.1 44.6zM497.1 146.4C506.5 131.6 512 114 512 95.2C512 42.6 469.4 0 416.8 0C391.8 0 369 9.6 352 25.4L497.1 146.4zM280 184v94.1l41 41c9.4 9.4 9.4 24.6 0 33.9s-24.6 9.4-33.9 0l-48-48c-4.5-4.5-7-10.6-7-17V184c0-13.3 10.7-24 24-24s24 10.7 24 24z"/></svg>