<svg xmlns="http://www.w3.org/2000/svg" viewBox="0 0 448 512"><!--! Font Awesome Pro 6.5.1 by @fontawesome - https://fontawesome.com License - https://fontawesome.com/license (Commercial License) Copyright 2023 Fonticons, Inc. --><path d="M224 0C100.3 0 0 100.3 0 224C0 359.3 148.8 471.7 194.7 503.2c8.6 5.9 18.9 8.8 29.3 8.8s20.7-2.9 29.3-8.8C299.2 471.7 448 359.3 448 224C448 100.3 347.7 0 224 0zm32 306.3c0-45.4 36.8-82.3 82.3-82.3h32c7.6 0 13.7 6.1 13.7 13.7c0 45.4-36.8 82.3-82.3 82.3h-32c-7.6 0-13.7-6.1-13.7-13.7zM109.7 224c45.4 0 82.3 36.8 82.3 82.3c0 7.6-6.1 13.7-13.7 13.7h-32C100.8 320 64 283.2 64 237.7c0-7.6 6.1-13.7 13.7-13.7h32z"/></svg>