<svg xmlns="http://www.w3.org/2000/svg" viewBox="0 0 640 512"><!--! Font Awesome Pro 6.5.2 by @fontawesome - https://fontawesome.com License - https://fontawesome.com/license (Commercial License) Copyright 2024 Fonticons, Inc. --><path d="M128 48c0-8.8 7.2-16 16-16h32c8.8 0 16 7.2 16 16V64h48c8.8 0 16 7.2 16 16v48H384V80c0-8.8 7.2-16 16-16h48V48c0-8.8 7.2-16 16-16h32c8.8 0 16 7.2 16 16V80c0 8.8-7.2 16-16 16H448v32 32h48c8.8 0 16 7.2 16 16v48h32V144c0-8.8 7.2-16 16-16h32c8.8 0 16 7.2 16 16V272c0 8.8-7.2 16-16 16H544v80c0 8.8-7.2 16-16 16H480v80c0 8.8-7.2 16-16 16H416 368c-8.8 0-16-7.2-16-16V432c0-8.8 7.2-16 16-16h48V384H224v32h48c8.8 0 16 7.2 16 16v32c0 8.8-7.2 16-16 16H224 176c-8.8 0-16-7.2-16-16V384H112c-8.8 0-16-7.2-16-16V288H48c-8.8 0-16-7.2-16-16V144c0-8.8 7.2-16 16-16H80c8.8 0 16 7.2 16 16v80h32V176c0-8.8 7.2-16 16-16h48V128 96H144c-8.8 0-16-7.2-16-16V48zm64 192v64c0 8.8 7.2 16 16 16h32c8.8 0 16-7.2 16-16V240c0-8.8-7.2-16-16-16H208c-8.8 0-16 7.2-16 16zm192 0v64c0 8.8 7.2 16 16 16h32c8.8 0 16-7.2 16-16V240c0-8.8-7.2-16-16-16H400c-8.8 0-16 7.2-16 16z"/></svg>