<svg xmlns="http://www.w3.org/2000/svg" viewBox="0 0 512 512"><!--! Font Awesome Pro 6.5.1 by @fontawesome - https://fontawesome.com License - https://fontawesome.com/license (Commercial License) Copyright 2023 Fonticons, Inc. --><path d="M256 0c-48.9 0-92.5 28.8-121.6 53.8c-15 12.9-27.3 25.7-35.8 35.3c-2.3 2.6-4.3 4.9-6 6.9H64C28.7 96 0 124.7 0 160V448c0 35.3 28.7 64 64 64H448c35.3 0 64-28.7 64-64V160c0-35.3-28.7-64-64-64H419.5c-1.7-2.1-3.8-4.4-6-6.9c-8.5-9.6-20.8-22.4-35.8-35.3C348.5 28.8 304.9 0 256 0zm96.9 96H159.1c2.1-1.9 4.3-3.8 6.5-5.8C192.5 67.2 224.9 48 256 48s63.5 19.2 90.4 42.2c2.2 1.9 4.4 3.9 6.5 5.8zM96 152a24 24 0 1 1 0 48 24 24 0 1 1 0-48zm72 24a24 24 0 1 1 48 0 24 24 0 1 1 -48 0zm152-24a24 24 0 1 1 0 48 24 24 0 1 1 0-48zm72 24a24 24 0 1 1 48 0 24 24 0 1 1 -48 0zM64 448V256H448V448H64zm64-128a16 16 0 1 0 0-32 16 16 0 1 0 0 32zm0 96a16 16 0 1 0 0-32 16 16 0 1 0 0 32zm48-64a16 16 0 1 0 -32 0 16 16 0 1 0 32 0zm16-32a16 16 0 1 0 0-32 16 16 0 1 0 0 32zm16 80a16 16 0 1 0 -32 0 16 16 0 1 0 32 0zm16-32a16 16 0 1 0 0-32 16 16 0 1 0 0 32zm48-64a16 16 0 1 0 -32 0 16 16 0 1 0 32 0zM256 416a16 16 0 1 0 0-32 16 16 0 1 0 0 32zm48-64a16 16 0 1 0 -32 0 16 16 0 1 0 32 0zm16-32a16 16 0 1 0 0-32 16 16 0 1 0 0 32zm16 80a16 16 0 1 0 -32 0 16 16 0 1 0 32 0zm16-32a16 16 0 1 0 0-32 16 16 0 1 0 0 32zm48-64a16 16 0 1 0 -32 0 16 16 0 1 0 32 0zM384 416a16 16 0 1 0 0-32 16 16 0 1 0 0 32z"/></svg>