<svg xmlns="http://www.w3.org/2000/svg" viewBox="0 0 448 512"><!--! Font Awesome Pro 6.5.2 by @fontawesome - https://fontawesome.com License - https://fontawesome.com/license (Commercial License) Copyright 2024 Fonticons, Inc. --><path d="M180.7 96h38c20.6 0 37.3 16.7 37.3 37.3c0 11.8-5.5 22.8-14.9 29.9l-48 36-39-41.3c-6.4-6.8-10-15.8-10-25.2c0-20.3 16.4-36.7 36.7-36.7zm56.6 150l42.2-31.6C305 195.3 320 165.2 320 133.3C320 77.4 274.6 32 218.7 32h-38C125.1 32 80 77.1 80 132.7c0 25.7 9.8 50.4 27.5 69.1l34 36L74.7 288C47.8 308.1 32 339.8 32 373.3C32 432.2 79.8 480 138.7 480h74.5c37.4 0 72.4-18.7 93.2-49.9l6.9-10.4L360.7 470c12.1 12.8 32.4 13.4 45.2 1.3s13.4-32.4 1.3-45.2l-57.5-60.9 60.9-91.4c9.8-14.7 5.8-34.6-8.9-44.4s-34.6-5.8-44.4 8.9l-52.7 79.1L237.3 246zm-51.5 38.6L268.2 372l-15.1 22.6C244.2 408 229.2 416 213.2 416H138.7C115.1 416 96 396.9 96 373.3c0-13.4 6.3-26.1 17.1-34.1l72.7-54.5z"/></svg>