<svg xmlns="http://www.w3.org/2000/svg" viewBox="0 0 384 512"><!--! Font Awesome Pro 6.5.1 by @fontawesome - https://fontawesome.com License - https://fontawesome.com/license (Commercial License) Copyright 2023 Fonticons, Inc. --><path d="M192 112c-8.8 0-16-7.2-16-16V80c0-44.2 35.8-80 80-80h16c8.8 0 16 7.2 16 16V32c0 44.2-35.8 80-80 80H192zM30.5 167c-8-6.5-9.3-18.7-.7-24.3C43.9 133.4 60.7 128 80 128c27.3 0 59.7 10.3 82.7 19.3c18.8 7.3 39.9 7.3 58.7 0c22.9-8.9 55.4-19.3 82.7-19.3c19.3 0 36.1 5.4 50.3 14.7c8.6 5.6 7.3 17.9-.7 24.3c-40 32.3-65.5 81.7-65.5 137c0 54.4 24.7 103 63.4 135.3c7 5.9 8.8 16.3 2.7 23.1C325.8 493.7 290.9 512 256 512c-16.5 0-38.1-6.6-51.5-11.3c-8.1-2.8-16.9-2.8-25 0c-13.4 4.7-35 11.3-51.5 11.3c-34.9 0-69.8-18.3-98.1-49.6c-6.2-6.8-4.4-17.3 2.7-23.1C71.3 407 96 358.4 96 304c0-55.4-25.6-104.7-65.5-137z"/></svg>