<svg xmlns="http://www.w3.org/2000/svg" viewBox="0 0 512 512"><!--! Font Awesome Pro 6.5.1 by @fontawesome - https://fontawesome.com License - https://fontawesome.com/license (Commercial License) Copyright 2023 Fonticons, Inc. --><path d="M406.6 202.6c-7.7-21.8-20.2-42.3-37.8-59.8c-62.5-62.5-163.8-62.5-226.3 0L125.5 160h34.3c17.7 0 32 14.3 32 32s-14.3 32-32 32H48.3c0 0 0 0 0 0h-.4c-17.7 0-32-14.3-32-32V80c0-17.7 14.3-32 32-32s32 14.3 32 32v35.2L97.4 97.6c87.5-87.5 229.3-87.5 316.8 0c24.4 24.4 42.1 53.1 52.9 83.7c5.9 16.7-2.9 34.9-19.5 40.8s-34.9-2.9-40.8-19.5zm66.1 86.6c5 1.5 9.8 4.2 13.7 8.2c4 4 6.7 8.9 8.1 14c.3 1.2 .6 2.5 .8 3.8c.3 1.7 .4 3.4 .4 5.1V432c0 17.7-14.3 32-32 32s-32-14.3-32-32V396.9l-17.6 17.5 0 0c-87.5 87.4-229.3 87.4-316.7 0C73 390 55.3 361.3 44.5 330.6c-5.9-16.7 2.9-34.9 19.5-40.8s34.9 2.9 40.8 19.5c7.7 21.8 20.2 42.3 37.8 59.8c62.5 62.5 163.8 62.5 226.3 0l.1-.1L386.1 352H351.8c-17.7 0-32-14.3-32-32s14.3-32 32-32H463.4c1.6 0 3.2 .1 4.8 .3s3.1 .5 4.6 1z"/></svg>