<svg xmlns="http://www.w3.org/2000/svg" viewBox="0 0 512 512"><!--! Font Awesome Pro 6.5.1 by @fontawesome - https://fontawesome.com License - https://fontawesome.com/license (Commercial License) Copyright 2023 Fonticons, Inc. --><path d="M95.9 14l0 .1c0 .1 .1 .4 .1 .7c.1 .7 .3 1.8 .6 3.3c.6 3 1.7 7.4 3.5 12.8c3.6 10.8 9.9 25.1 20.6 39.5c13.9 18.6 36 37.9 71.2 48.8V266.8c-29.9 11.1-50.9 29.3-65.6 47.3c-11.9 14.6-19.7 29.3-24.5 40.3c-2.4 5.5-4 10-5.1 13.1c-.5 1.5-.9 2.7-1.1 3.5l-.2 .8 0 .1 0 0c-1.5 5.8-6.1 10.3-11.9 11.7s-12-.7-15.8-5.3L80 368c-12.2 10.3-12.2 10.3-12.2 10.3l0 0 0 0-.1-.1-.2-.2-.6-.8c-.5-.7-1.3-1.6-2.3-2.9c-1.9-2.5-4.6-6.1-7.7-10.6c-6.3-9.2-14.7-22.4-23.1-38.9C17 291.9 0 245.3 0 192S17 92.1 33.7 59.3c8.4-16.5 16.8-29.7 23.1-38.9c3.2-4.6 5.8-8.2 7.7-10.6c1-1.2 1.7-2.2 2.3-2.9l.6-.8 .2-.2 .1-.1 0 0 0 0s0 0 12.2 10.3L67.8 5.7c4.1-4.9 10.7-6.8 16.8-5c6.1 1.8 10.5 7 11.3 13.3l0 0zM320 266.8V119.2c35.2-10.9 57.3-30.2 71.2-48.8C403.3 54.3 412.8 34 416.1 14c.8-6.3 5.3-11.5 11.3-13.3c6.1-1.8 12.8 .3 16.9 5.2c13.3 16.3 24.4 34.8 33.9 53.4c12.4 24.5 25.1 56.6 30.7 93.4c.5 3.5-1.4 7-4.7 8.4l-55.1 23.6c-6.5 2.8-6.5 11.9 0 14.7L504.3 223c3.3 1.4 5.3 4.8 4.7 8.4c-8 53-31.3 105.5-64.5 146.6c-3.9 4.6-10.3 7-16.1 5.6s-10.5-6-11.9-11.8c-5.9-21-17.2-40.9-30.9-57.7c-14.7-18-35.7-36.2-65.6-47.3zM288 64V480c0 17.7-14.3 32-32 32s-32-14.3-32-32V64c0-17.7 14.3-32 32-32s32 14.3 32 32z"/></svg>