<svg xmlns="http://www.w3.org/2000/svg" viewBox="0 0 448 512"><!--! Font Awesome Pro 6.5.2 by @fontawesome - https://fontawesome.com License - https://fontawesome.com/license (Commercial License) Copyright 2024 Fonticons, Inc. --><path d="M192 48h64c4.4 0 8 3.6 8 8V96H184V56c0-4.4 3.6-8 8-8zm-56 8V96h-8C57.3 96 0 153.3 0 224V448c0 35.3 28.7 64 64 64l0-112V352c0-35.3 28.7-64 64-64H320c35.3 0 64 28.7 64 64v48V512c35.3 0 64-28.7 64-64V224c0-70.7-57.3-128-128-128h-8V56c0-30.9-25.1-56-56-56H192c-30.9 0-56 25.1-56 56zM352 512V416H96v96H352zM144 176H304c8.8 0 16 7.2 16 16s-7.2 16-16 16H144c-8.8 0-16-7.2-16-16s7.2-16 16-16zM352 384V352c0-17.7-14.3-32-32-32H128c-17.7 0-32 14.3-32 32v32H352z"/></svg>