<svg xmlns="http://www.w3.org/2000/svg" viewBox="0 0 512 512"><!--! Font Awesome Pro 6.5.2 by @fontawesome - https://fontawesome.com License - https://fontawesome.com/license (Commercial License) Copyright 2024 Fonticons, Inc. --><path d="M64 64L38.6 38.6c-4.2-4.2-6.6-10-6.6-16C32 10.1 42.1 0 54.6 0H457.4C469.9 0 480 10.1 480 22.6c0 6-2.4 11.8-6.6 16L448 64H64zM56 96H456l10.6 42.5c8.9 35.5 13.4 72 13.4 108.7v17.7c0 36.6-4.5 73.1-13.4 108.7L456 416H56L45.4 373.5C36.5 338 32 301.5 32 264.8V247.2c0-36.6 4.5-73.1 13.4-108.7L56 96zm8 352H448l25.4 25.4c4.2 4.2 6.6 10 6.6 16c0 12.5-10.1 22.6-22.6 22.6H54.6C42.1 512 32 501.9 32 489.4c0-6 2.4-11.8 6.6-16L64 448zm80-288c-8.8 0-16 7.2-16 16c0 59.2 45.9 107.6 104 111.7V328c0 13.3 10.7 24 24 24s24-10.7 24-24V287.7c58.1-4.1 104-52.6 104-111.7c0-8.8-7.2-16-16-16h-2c-47.3 0-88.4 26-110 64.5C234.4 186 193.3 160 146 160h-2z"/></svg>