<svg xmlns="http://www.w3.org/2000/svg" viewBox="0 0 640 512"><!--! Font Awesome Pro 6.5.2 by @fontawesome - https://fontawesome.com License - https://fontawesome.com/license (Commercial License) Copyright 2024 Fonticons, Inc. --><path d="M320 160A80 80 0 1 0 320 0a80 80 0 1 0 0 160zM208 328a80 80 0 1 0 0-160 80 80 0 1 0 0 160zM192 432A80 80 0 1 0 32 432a80 80 0 1 0 160 0zm128 80a80 80 0 1 0 0-160 80 80 0 1 0 0 160zm288-80a80 80 0 1 0 -160 0 80 80 0 1 0 160 0zM432 328a80 80 0 1 0 0-160 80 80 0 1 0 0 160z"/></svg>