<svg xmlns="http://www.w3.org/2000/svg" viewBox="0 0 640 512"><!--! Font Awesome Pro 6.5.2 by @fontawesome - https://fontawesome.com License - https://fontawesome.com/license (Commercial License) Copyright 2024 Fonticons, Inc. --><path d="M88 32C74.7 32 64 42.7 64 56V192h64V56c0-13.3-10.7-24-24-24H88zM64 456c0 13.3 10.7 24 24 24h16c13.3 0 24-10.7 24-24V320H64V456zm96 8c0 8.8 7.2 16 16 16s16-7.2 16-16V320H160V464zm64-8c0 13.3 10.7 24 24 24h16c13.3 0 24-10.7 24-24V320H224V456zm0-264h64V56c0-13.3-10.7-24-24-24H248c-13.3 0-24 10.7-24 24V192zm96 264c0 13.3 10.7 24 24 24h16c13.3 0 24-10.7 24-24V320H320V456zm0-264h64V56c0-13.3-10.7-24-24-24H344c-13.3 0-24 10.7-24 24V192zM448 464c0 8.8 7.2 16 16 16s16-7.2 16-16V320H448V464zm0-416V192h32V48c0-8.8-7.2-16-16-16s-16 7.2-16 16zm64 408c0 13.3 10.7 24 24 24h16c13.3 0 24-10.7 24-24V320H512V456zm0-264h64V56c0-13.3-10.7-24-24-24H536c-13.3 0-24 10.7-24 24V192zm-352 0h32V48c0-8.8-7.2-16-16-16s-16 7.2-16 16V192zM24 232c-13.3 0-24 10.7-24 24s10.7 24 24 24H616c13.3 0 24-10.7 24-24s-10.7-24-24-24H24z"/></svg>