<svg xmlns="http://www.w3.org/2000/svg" viewBox="0 0 576 512"><!--! Font Awesome Pro 6.5.1 by @fontawesome - https://fontawesome.com License - https://fontawesome.com/license (Commercial License) Copyright 2023 Fonticons, Inc. --><path d="M80 96C35.8 96 0 131.8 0 176V336c0 44.2 35.8 80 80 80h92.2c-12.9-14.5-16.1-35.6-7.2-53.5l5.3-10.5H80c-8.8 0-16-7.2-16-16V176c0-8.8 7.2-16 16-16H219.2l80-64H80zM464 352H324.8l-80 64H464c44.2 0 80-35.8 80-80V320c17.7 0 32-14.3 32-32V224c0-17.7-14.3-32-32-32V176c0-44.2-35.8-80-80-80H371.8c13 14.5 16.1 35.6 7.2 53.5L373.7 160H464c8.8 0 16 7.2 16 16V336c0 8.8-7.2 16-16 16zM346.1 115.6c-5.8-4.7-14.2-4.7-20.1-.1l-160 128c-5.3 4.2-7.4 11.4-5.1 17.8s8.3 10.7 15.1 10.7h70.1L193.7 376.8c-3.4 6.7-1.6 14.9 4.3 19.6s14.2 4.7 20.1 .1l160-128c5.3-4.2 7.4-11.4 5.1-17.8s-8.3-10.7-15.1-10.7H297.9l52.4-104.8c3.4-6.7 1.6-14.9-4.2-19.6z"/></svg>