<svg xmlns="http://www.w3.org/2000/svg" viewBox="0 0 512 512"><!--! Font Awesome Pro 6.5.2 by @fontawesome - https://fontawesome.com License - https://fontawesome.com/license (Commercial License) Copyright 2024 Fonticons, Inc. --><path d="M267.7 133.3C253 149.7 231.7 160 208 160s-45-10.3-59.7-26.7c-6.9-7.7-21.4-8.6-29.6-2.3C108 139.1 94.6 144 80 144c-35.3 0-64-28.7-64-64s28.7-64 64-64c14.6 0 28 4.9 38.7 13c8.2 6.3 22.7 5.4 29.6-2.3C163 10.3 184.3 0 208 0s45 10.3 59.7 26.7c6.9 7.7 21.4 8.6 29.6 2.3C308 20.9 321.4 16 336 16c35.3 0 64 28.7 64 64s-28.7 64-64 64c-14.6 0-28-4.9-38.7-13c-8.2-6.3-22.7-5.4-29.6 2.3zM32 448V163.2C46.1 171.3 62.5 176 80 176c18.7 0 36.2-5.4 51-14.7c20 19 47.2 30.7 77 30.7s57-11.7 77-30.7c14.8 9.3 32.3 14.7 51 14.7c19.6 0 37.9-5.9 53.1-16h46.1c42.4 0 76.8 34.4 76.8 76.8V338.9c0 30.3-17.9 57.9-45.6 70.2L384 445.7V448c0 35.3-28.7 64-64 64H96c-35.3 0-64-28.7-64-64zm352-72.4l56.4-25.1c4.6-2.1 7.6-6.6 7.6-11.7V236.8c0-7.1-5.7-12.8-12.8-12.8H384V375.6zM160 240c0-8.8-7.2-16-16-16s-16 7.2-16 16V400c0 8.8 7.2 16 16 16s16-7.2 16-16V240zm64 0c0-8.8-7.2-16-16-16s-16 7.2-16 16V400c0 8.8 7.2 16 16 16s16-7.2 16-16V240zm64 0c0-8.8-7.2-16-16-16s-16 7.2-16 16V400c0 8.8 7.2 16 16 16s16-7.2 16-16V240z"/></svg>