<svg xmlns="http://www.w3.org/2000/svg" viewBox="0 0 576 512"><!--! Font Awesome Pro 6.5.1 by @fontawesome - https://fontawesome.com License - https://fontawesome.com/license (Commercial License) Copyright 2023 Fonticons, Inc. --><path d="M0 64C0 46.3 14.3 32 32 32H544c17.7 0 32 14.3 32 32s-14.3 32-32 32H32C14.3 96 0 81.7 0 64zm32 64H544L517.3 421.8c-3 33-30.6 58.2-63.7 58.2H122.4c-33.1 0-60.7-25.2-63.7-58.2L32 128zm256 88c2.2 0 4.3 1.1 5.5 2.9l20.7 29.6c7.3 10.5 21.6 13.4 32.4 6.6c11.7-7.3 14.8-22.9 6.9-34.1l-20.7-29.6c-10.2-14.6-27-23.3-44.8-23.3s-34.6 8.7-44.8 23.3l-20.7 29.6c-7.9 11.3-4.7 26.8 6.9 34.1c10.8 6.8 25.1 3.9 32.4-6.6l20.7-29.6c1.3-1.8 3.3-2.9 5.5-2.9zm-88.3 77.1c-10.8-6.8-25.1-3.9-32.4 6.6l-21.5 30.7c-6.4 9.1-9.8 20-9.8 31.2c0 30.1 24.4 54.4 54.4 54.4H240c13.3 0 24-10.7 24-24s-10.7-24-24-24H190.4c-3.5 0-6.4-2.9-6.4-6.4c0-1.3 .4-2.6 1.2-3.7l21.5-30.7c7.9-11.3 4.7-26.8-6.9-34.1zM312 392c0 13.3 10.7 24 24 24h49.6c30.1 0 54.4-24.4 54.4-54.4c0-11.2-3.4-22.1-9.8-31.2l-21.5-30.7c-7.3-10.5-21.6-13.4-32.4-6.6c-11.7 7.3-14.8 22.9-6.9 34.1l21.5 30.7c.8 1.1 1.2 2.4 1.2 3.7c0 3.5-2.9 6.4-6.4 6.4H336c-13.3 0-24 10.7-24 24z"/></svg>