<svg xmlns="http://www.w3.org/2000/svg" viewBox="0 0 384 512"><!--! Font Awesome Pro 6.5.2 by @fontawesome - https://fontawesome.com License - https://fontawesome.com/license (Commercial License) Copyright 2024 Fonticons, Inc. --><path d="M336 32V160h16c17.7 0 32 14.3 32 32s-14.3 32-32 32H304 256c-17.7 0-32-14.3-32-32s14.3-32 32-32h16V76.4l-5.9 2c-16.8 5.6-34.9-3.5-40.5-20.2s3.5-34.9 20.2-40.5l48-16C303.6-1.6 314.4 0 322.7 6s13.3 15.7 13.3 26zM112 320V448h16c17.7 0 32 14.3 32 32s-14.3 32-32 32H80 32c-17.7 0-32-14.3-32-32s14.3-32 32-32H48V364.4l-5.9 2c-16.8 5.6-34.9-3.5-40.5-20.2s3.5-34.9 20.2-40.5l48-16c9.8-3.3 20.5-1.6 28.8 4.4s13.3 15.7 13.3 26zM0 64C0 28.7 28.7 0 64 0h64c35.3 0 64 28.7 64 64v96c0 35.3-28.7 64-64 64H64c-35.3 0-64-28.7-64-64V64zm128 0H64v96h64V64zM256 288h64c35.3 0 64 28.7 64 64v96c0 35.3-28.7 64-64 64H256c-35.3 0-64-28.7-64-64V352c0-35.3 28.7-64 64-64zm0 64v96h64V352H256z"/></svg>