<svg xmlns="http://www.w3.org/2000/svg" viewBox="0 0 640 512"><!--! Font Awesome Pro 6.5.1 by @fontawesome - https://fontawesome.com License - https://fontawesome.com/license (Commercial License) Copyright 2023 Fonticons, Inc. --><path d="M160 32c-35.3 0-64 28.7-64 64V416c0 35.3 28.7 64 64 64H480c35.3 0 64-28.7 64-64V96c0-35.3-28.7-64-64-64H160zm73.8 149.3c7.9-22.3 29.1-37.3 52.8-37.3h58.3c34.9 0 63.1 28.3 63.1 63.1c0 22.6-12.1 43.5-31.7 54.8L344 280.4c-.2 13-10.9 23.6-24 23.6c-13.3 0-24-10.7-24-24V266.5c0-8.6 4.6-16.5 12.1-20.8l44.3-25.4c4.7-2.7 7.6-7.7 7.6-13.1c0-8.4-6.8-15.1-15.1-15.1H286.6c-3.4 0-6.4 2.1-7.5 5.3l-.4 1.2c-4.4 12.5-18.2 19-30.6 14.6s-19-18.2-14.6-30.6l.4-1.2zM288 368a32 32 0 1 1 64 0 32 32 0 1 1 -64 0zM144 104a24 24 0 1 1 48 0 24 24 0 1 1 -48 0zM472 80a24 24 0 1 1 0 48 24 24 0 1 1 0-48zM144 408a24 24 0 1 1 48 0 24 24 0 1 1 -48 0zm328-24a24 24 0 1 1 0 48 24 24 0 1 1 0-48z"/></svg>