<svg xmlns="http://www.w3.org/2000/svg" viewBox="0 0 640 512"><!--! Font Awesome Pro 6.5.2 by @fontawesome - https://fontawesome.com License - https://fontawesome.com/license (Commercial License) Copyright 2024 Fonticons, Inc. --><path d="M120 48H520c22.1 0 40 17.9 40 40v72H448c0-17.7-14.3-32-32-32s-32 14.3-32 32H352c0-17.7-14.3-32-32-32s-32 14.3-32 32H256c0-17.7-14.3-32-32-32s-32 14.3-32 32H80V88c0-22.1 17.9-40 40-40zM608 168.6V88c0-48.6-39.4-88-88-88H120C71.4 0 32 39.4 32 88v80.6C12.9 179.6 0 200.3 0 224V448c0 35.3 28.7 64 64 64H576c35.3 0 64-28.7 64-64V224c0-23.7-12.9-44.4-32-55.4zM256 336A80 80 0 1 0 96 336a80 80 0 1 0 160 0zM64 336a112 112 0 1 1 224 0A112 112 0 1 1 64 336zm400 80a80 80 0 1 0 0-160 80 80 0 1 0 0 160zm0-192a112 112 0 1 1 0 224 112 112 0 1 1 0-224z"/></svg>