<svg xmlns="http://www.w3.org/2000/svg" viewBox="0 0 512 512"><!--! Font Awesome Pro 6.5.2 by @fontawesome - https://fontawesome.com License - https://fontawesome.com/license (Commercial License) Copyright 2024 Fonticons, Inc. --><path d="M128 0H63.3C46 0 32 14 32 31.3c0 1.8 .1 3.9 .6 6.2C34.6 47.1 56 154.3 56 232c0 33.2-12.8 93.5-19.7 123.2C33.6 367 32 379.3 32 391.8V488c0 13.3 10.7 24 24 24h80c13.3 0 24-10.7 24-24V472.9l125 34.7c10.5 2.9 21.3 4.4 32.1 4.4H456h32c13.3 0 24-10.7 24-24s-10.7-24-24-24h-8V429.7c0-27.3-15.4-52.2-39.8-64.4L327.8 309.1c-24.4-12.2-39.8-37.1-39.8-64.4V24c0-13.3-10.7-24-24-24H160V240c0 8.8-7.2 16-16 16s-16-7.2-16-16V0z"/></svg>