<svg xmlns="http://www.w3.org/2000/svg" viewBox="0 0 512 512"><!--! Font Awesome Pro 6.5.2 by @fontawesome - https://fontawesome.com License - https://fontawesome.com/license (Commercial License) Copyright 2024 Fonticons, Inc. --><path d="M0 32C0 14.3 14.3 0 32 0H320c17.7 0 32 14.3 32 32V64c0 17.7-14.3 32-32 32H0V32zM0 457.4V448H512v9.4c0 14.5-5.8 28.4-16 38.6s-24.1 16-38.6 16H442.5c-17 0-33.3-6.7-45.3-18.7l-7.6-7.6c-3.1-3.1-8.2-3.1-11.3 0l-7.6 7.6c-12 12-28.3 18.7-45.3 18.7h-11c-17 0-33.3-6.7-45.3-18.7l-7.6-7.6c-3.1-3.1-8.2-3.1-11.3 0l-7.6 7.6c-12 12-28.3 18.7-45.3 18.7h-11c-17 0-33.3-6.7-45.3-18.7l-7.6-7.6c-3.1-3.1-8.2-3.1-11.3 0l-7.6 7.6c-12 12-28.3 18.7-45.3 18.7H54.6c-14.5 0-28.4-5.8-38.6-16S0 471.9 0 457.4zM0 416V128H320v32H272c-8.8 0-16 7.2-16 16s7.2 16 16 16h48v32H272c-8.8 0-16 7.2-16 16s7.2 16 16 16h48l119.3 29.8C482 296.5 512 334.9 512 379v37H0z"/></svg>