<svg xmlns="http://www.w3.org/2000/svg" viewBox="0 0 512 512"><!--! Font Awesome Pro 6.5.1 by @fontawesome - https://fontawesome.com License - https://fontawesome.com/license (Commercial License) Copyright 2023 Fonticons, Inc. --><path d="M18.5 125.1l473.8-74c11.3-1.8 19.7-11.5 19.7-23c0-14.6-13.3-25.6-27.6-22.9L13.1 93.6C5.5 95 0 101.6 0 109.3c0 9.8 8.8 17.3 18.5 15.8zM0 159.8c0 9 7.3 16.2 16.2 16.2H488.4c13 0 23.6-10.6 23.6-23.6c0-13.3-11-24-24.4-23.6L15.7 143.5C7 143.8 0 151 0 159.8zM33.6 224C15.4 224 .9 239.3 2 257.5c5.4 91.7 59.7 169.7 136.4 209.7l1.2 9.7c2.5 20 19.5 35 39.7 35H332.7c20.2 0 37.2-15 39.7-35l1.2-9.7c76.8-40 131-118 136.4-209.7c1.1-18.2-13.4-33.5-31.6-33.5H33.6z"/></svg>