<svg xmlns="http://www.w3.org/2000/svg" viewBox="0 0 448 512"><!--! Font Awesome Pro 6.5.1 by @fontawesome - https://fontawesome.com License - https://fontawesome.com/license (Commercial License) Copyright 2023 Fonticons, Inc. --><path d="M224 208c0 5.4 .4 10.8 1.1 16H446.9c.7-5.2 1.1-10.6 1.1-16c0-61.9-50.1-112-112-112l-1.1 0c-38.7 .4-72.7 20.4-92.6 50.6C230.7 164.2 224 185.3 224 208zM0 208c0 5.4 .4 10.8 1.1 16H192.9c-.6-5.3-.9-10.6-.9-16c0-22 4.9-42.8 13.7-61.4c-13.9-21.2-34.9-37.4-59.6-45.3C135.4 97.9 123.9 96 112 96C50.1 96 0 146.1 0 208zM325.4 64.4C307.5 26.3 268.8 0 224 0s-83.5 26.3-101.4 64.4c40.9 3 77.1 23 101.4 53.1c24.3-30.1 60.5-50.1 101.4-53.1zM16 256c-4.6 0-9 2-12 5.4s-4.5 8-3.9 12.6l2 15.9C11.1 361.9 72.4 416 145 416h40.4l-68.7 68.7c-4.6 4.6-5.9 11.5-3.5 17.4s8.3 9.9 14.8 9.9H320c6.5 0 12.3-3.9 14.8-9.9s1.1-12.9-3.5-17.4L262.6 416H303c72.6 0 133.9-54.1 142.9-126.1l2-15.9c.6-4.6-.8-9.1-3.9-12.6s-7.4-5.4-12-5.4H16z"/></svg>