<svg xmlns="http://www.w3.org/2000/svg" viewBox="0 0 576 512"><!--! Font Awesome Pro 6.5.1 by @fontawesome - https://fontawesome.com License - https://fontawesome.com/license (Commercial License) Copyright 2023 Fonticons, Inc. --><path d="M416 32H384c-17.7 0-32 14.3-32 32s14.3 32 32 32h32c17.7 0 32 14.3 32 32v37.5c0 25.5 10.1 49.9 28.1 67.9L498.7 256l-22.6 22.6c-18 18-28.1 42.4-28.1 67.9V384c0 17.7-14.3 32-32 32H384c-17.7 0-32 14.3-32 32s14.3 32 32 32h32c53 0 96-43 96-96V346.5c0-8.5 3.4-16.6 9.4-22.6l45.3-45.3c12.5-12.5 12.5-32.8 0-45.3l-45.3-45.3c-6-6-9.4-14.1-9.4-22.6V128c0-53-43-96-96-96zM160 32c-53 0-96 43-96 96v37.5c0 8.5-3.4 16.6-9.4 22.6L9.4 233.4c-12.5 12.5-12.5 32.8 0 45.3l45.3 45.3c6 6 9.4 14.1 9.4 22.6V384c0 53 43 96 96 96h32c17.7 0 32-14.3 32-32s-14.3-32-32-32H160c-17.7 0-32-14.3-32-32V346.5c0-25.5-10.1-49.9-28.1-67.9L77.3 256l22.6-22.6c18-18 28.1-42.4 28.1-67.9V128c0-17.7 14.3-32 32-32h32c17.7 0 32-14.3 32-32s-14.3-32-32-32H160z"/></svg>