<svg xmlns="http://www.w3.org/2000/svg" viewBox="0 0 640 512"><!--! Font Awesome Pro 6.5.2 by @fontawesome - https://fontawesome.com License - https://fontawesome.com/license (Commercial License) Copyright 2024 Fonticons, Inc. --><path d="M128 8c9.1 0 17 5 21.1 12.5C184.2 81.6 249.7 120 320 120s135.8-38.4 170.9-99.5C495 13 502.9 8 512 8c8.8 0 16.5 4.7 20.7 11.8c13.1 21.2 26.6 42.2 42 59.8c15.5 17.7 31.7 30.6 49.4 36.9c12.5 4.5 18.9 18.2 14.4 30.7s-18.2 18.9-30.7 14.4c-25.5-9.2-46.4-25.8-63.9-44.5V256h64c17.7 0 32 14.3 32 32v32c0 17.7-14.3 32-32 32c-35.3 0-64 28.7-64 64v64c0 17.7-14.3 32-32 32H480c-17.7 0-32-14.3-32-32V448c0-53-43-96-96-96H288c-53 0-96 43-96 96v32c0 17.7-14.3 32-32 32H128c-17.7 0-32-14.3-32-32V416c0-35.3-28.7-64-64-64c-17.7 0-32-14.3-32-32V288c0-17.7 14.3-32 32-32H96V117.1c-17.4 18.7-38.4 35.3-63.9 44.5c-12.5 4.5-26.2-2-30.7-14.4s2-26.2 14.4-30.7c17.7-6.4 33.9-19.3 49.4-36.9c15.4-17.6 29-38.6 42-59.8C111.5 12.7 119.2 8 128 8zM480 108.1c-12.4 10.7-25.8 20.1-40 28.2V256h40V108.1zm-88 49c-15.5 4.8-31.6 8.1-48 9.8V256h48V157zm-96 9.8c-16.4-1.6-32.5-4.9-48-9.8v99h48V166.8zm-96-30.5c-14.2-8-27.6-17.5-40-28.2V256h40V136.3z"/></svg>