<svg xmlns="http://www.w3.org/2000/svg" viewBox="0 0 640 512"><!--! Font Awesome Pro 6.5.1 by @fontawesome - https://fontawesome.com License - https://fontawesome.com/license (Commercial License) Copyright 2023 Fonticons, Inc. --><path d="M96 96v96H220.2l-48-96H96zM229.5 67.4L291.8 192H320V128c0-17.7 14.3-32 32-32s32 14.3 32 32v64h32c17.7 0 32 14.3 32 32v64h64V246.4c0-21.8 7.4-42.9 21-60L583 124c11-13.8 31.2-16 45-5s16 31.2 5 45l-50 62.5c-4.5 5.7-7 12.7-7 20V320v69.5c0 8.5 3.4 16.6 9.4 22.6l45.3 45.3c12.5 12.5 12.5 32.8 0 45.3s-32.8 12.5-45.3 0l-45.3-45.3c-18-18-28.1-42.4-28.1-67.9V352H469.2c6.9 14.5 10.8 30.8 10.8 48c0 61.9-50.1 112-112 112H112C50.1 512 0 461.9 0 400c0-30.5 12.2-58.2 32-78.4c0-.5 0-1 0-1.6V256 224 80c0-26.5 21.5-48 48-48h92.2c24.2 0 46.4 13.7 57.2 35.4zM112 352c-26.5 0-48 21.5-48 48s21.5 48 48 48H368c26.5 0 48-21.5 48-48s-21.5-48-48-48H112zm8 24a24 24 0 1 1 0 48 24 24 0 1 1 0-48zm216 24a24 24 0 1 1 48 0 24 24 0 1 1 -48 0zm-56-24a24 24 0 1 1 0 48 24 24 0 1 1 0-48zM176 400a24 24 0 1 1 48 0 24 24 0 1 1 -48 0z"/></svg>