<svg xmlns="http://www.w3.org/2000/svg" viewBox="0 0 512 512"><!--! Font Awesome Pro 6.5.2 by @fontawesome - https://fontawesome.com License - https://fontawesome.com/license (Commercial License) Copyright 2024 Fonticons, Inc. --><path d="M251.4 52.6L33.9 270.1c-9.9 9.9-17.8 21.3-23.4 33.7C39.2 324.1 74.2 336 112 336c79.2 0 146.2-52.3 168.3-124.3c5-16.3 7.7-33.7 7.7-51.7c0-40.4-13.6-77.7-36.6-107.4zm15-32C299.7 57.5 320 106.4 320 160c0 11.9-1 23.6-2.9 34.9c11.4-1.9 23-2.9 34.9-2.9c53.6 0 102.5 20.3 139.4 53.6c12.8-14.2 20.6-33 20.6-53.6c0-11.4-2.4-22.2-6.7-32c4.3-9.8 6.7-20.6 6.7-32c0-34.6-22-64.1-52.8-75.2C448.1 22 418.6 0 384 0c-11.4 0-22.2 2.4-32 6.7C342.2 2.4 331.4 0 320 0c-20.6 0-39.4 7.8-53.6 20.6zm193 240C429.7 237.6 392.4 224 352 224c-15.2 0-29.9 1.9-43.9 5.5C279.5 310.2 202.5 368 112 368c-40.8 0-78.8-11.7-110.9-32C.4 341.3 0 346.6 0 352c0 30.7 12.2 60.2 33.9 81.9l44.1 44.1C99.8 499.8 129.3 512 160 512s60.2-12.2 81.9-33.9L459.4 260.6z"/></svg>