<svg xmlns="http://www.w3.org/2000/svg" viewBox="0 0 512 512"><!--! Font Awesome Pro 6.5.1 by @fontawesome - https://fontawesome.com License - https://fontawesome.com/license (Commercial License) Copyright 2023 Fonticons, Inc. --><path d="M256 0C380.8 0 464 35.2 464 80V96v16h16c17.7 0 32 14.3 32 32v64c0 17.7-14.3 32-32 32H464v28.2c9.8 8.8 16 21.6 16 35.8v96c0 20.9-13.4 38.7-32 45.3V480c0 17.7-14.3 32-32 32H384c-17.7 0-32-14.3-32-32V448H160v32c0 17.7-14.3 32-32 32H96c-17.7 0-32-14.3-32-32V445.3c-18.6-6.6-32-24.4-32-45.3V304c0-14.2 6.2-27 16-35.8V240H32c-17.7 0-32-14.3-32-32V144c0-17.7 14.3-32 32-32H48V96 80C48 35.2 131.2 0 256 0zM112 160v64c0 17.7 14.3 32 32 32h96V128H144c-17.7 0-32 14.3-32 32zm160 96h96c17.7 0 32-14.3 32-32V160c0-17.7-14.3-32-32-32H272V256zM112 384a32 32 0 1 0 0-64 32 32 0 1 0 0 64zm288 0a32 32 0 1 0 0-64 32 32 0 1 0 0 64zM352 80c0-8.8-7.2-16-16-16H176c-8.8 0-16 7.2-16 16s7.2 16 16 16H336c8.8 0 16-7.2 16-16z"/></svg>