<svg xmlns="http://www.w3.org/2000/svg" viewBox="0 0 448 512"><!--! Font Awesome Pro 6.5.1 by @fontawesome - https://fontawesome.com License - https://fontawesome.com/license (Commercial License) Copyright 2023 Fonticons, Inc. --><path d="M0 64C0 28.7 28.7 0 64 0H384c35.3 0 64 28.7 64 64V240H0V64zM0 272H448V448c0 35.3-28.7 64-64 64H64c-35.3 0-64-28.7-64-64V272zM128 128v16c0 8.8 7.2 16 16 16s16-7.2 16-16V128H288v16c0 8.8 7.2 16 16 16s16-7.2 16-16V128c0-17.7-14.3-32-32-32H160c-17.7 0-32 14.3-32 32zm0 256v16c0 8.8 7.2 16 16 16s16-7.2 16-16V384H288v16c0 8.8 7.2 16 16 16s16-7.2 16-16V384c0-17.7-14.3-32-32-32H160c-17.7 0-32 14.3-32 32z"/></svg>