<svg xmlns="http://www.w3.org/2000/svg" viewBox="0 0 576 512"><!--! Font Awesome Pro 6.5.2 by @fontawesome - https://fontawesome.com License - https://fontawesome.com/license (Commercial License) Copyright 2024 Fonticons, Inc. --><path d="M128 96c-17.7 0-32 14.3-32 32v32H320c35.3 0 64 28.7 64 64V416c0 35.3-28.7 64-64 64H64c-35.3 0-64-28.7-64-64V224c0-23.7 12.9-44.4 32-55.4V128c0-53 43-96 96-96H288c17.7 0 32 14.3 32 32s-14.3 32-32 32H128zm431.1 67.8c10.4 5.6 16.9 16.4 16.9 28.2V448c0 11.8-6.5 22.6-16.9 28.2s-23 5-32.9-1.6l-96-64L416 401.1V384 256 238.9l14.2-9.5 96-64c9.8-6.5 22.4-7.2 32.9-1.6zM80 224c-8.8 0-16 7.2-16 16s7.2 16 16 16H304c8.8 0 16-7.2 16-16s-7.2-16-16-16H80z"/></svg>