<svg xmlns="http://www.w3.org/2000/svg" viewBox="0 0 576 512"><!--! Font Awesome Pro 6.5.2 by @fontawesome - https://fontawesome.com License - https://fontawesome.com/license (Commercial License) Copyright 2024 Fonticons, Inc. --><path d="M140.3 2.5c-14.9-6.2-32.1-.3-40.1 13.7l-96 168c-4.6 8-5.5 17.5-2.5 26.2s9.5 15.7 18 19.2l158.1 65.9L137.9 400H64V384c0-17.7-14.3-32-32-32s-32 14.3-32 32v48 48c0 17.7 14.3 32 32 32s32-14.3 32-32V464h96c13.3 0 25.2-8.2 29.9-20.6l47-123.4 70.8 29.5c9.9 4.1 21.2 3 30.1-2.9l192-128c9.8-6.5 15.2-18 14.1-29.7s-8.6-21.9-19.5-26.5l-384-160zM513.4 398.6c3.9 1.8 8.4 1.9 12.5 .3s7.2-4.7 8.9-8.7l40-96c3.3-8-.3-17.2-8.3-20.8l-36.7-16.3L396.9 345.6l116.5 52.9z"/></svg>