<svg xmlns="http://www.w3.org/2000/svg" viewBox="0 0 640 512"><!--! Font Awesome Pro 6.5.1 by @fontawesome - https://fontawesome.com License - https://fontawesome.com/license (Commercial License) Copyright 2023 Fonticons, Inc. --><path d="M49.1 353.8L26.5 365.1C2.8 376.9-6.8 405.8 5.1 429.5s40.7 33.3 64.4 21.5L92 439.7c42.7 41.2 108.3 53.2 164.4 25.1c6.1-3.2 14.8-8.1 25.4-14.5C265.5 427 256 398.6 256 368c0-79.5 64.5-144 144-144c52.4 0 98.3 28 123.5 69.9c32.9-21.9 62.9-41.9 86-57.4c26.7-17.9 35.7-52.7 21.4-81.5L600.2 93.5c-14.4-28.7-47.7-42.4-78-31.8C414.8 99.3 177.1 183.2 127.6 207.2c-56.1 28-85.9 87.7-78.5 146.6zM400 480a112 112 0 1 0 0-224 112 112 0 1 0 0 224zm0-144a32 32 0 1 1 0 64 32 32 0 1 1 0-64z"/></svg>