<?xml version="1.0" encoding="utf-8"?>
<!-- Generator: Adobe Illustrator 28.1.0, SVG Export Plug-In . SVG Version: 6.00 Build 0)  -->
<svg version="1.1" id="Layer_1" xmlns="http://www.w3.org/2000/svg" xmlns:xlink="http://www.w3.org/1999/xlink" x="0px" y="0px"
	 viewBox="0 0 512 512" style="enable-background:new 0 0 512 512;" xml:space="preserve">
<g>
	<path d="M432,288h-85h-11H80c-26.5,0-48,21.5-48,48v96c0,26.5,21.5,48,48,48h256h11h85c26.5,0,48-21.5,48-48v-96
		C480,309.5,458.5,288,432,288z"/>
	<path d="M432,32h-85h-11H80c-26.5,0-48,21.5-48,48v96c0,26.5,21.5,48,48,48h256h11h85c26.5,0,48-21.5,48-48V80
		C480,53.5,458.5,32,432,32z"/>
</g>
</svg>
