<svg xmlns="http://www.w3.org/2000/svg" viewBox="0 0 384 512"><!--! Font Awesome Pro 6.5.2 by @fontawesome - https://fontawesome.com License - https://fontawesome.com/license (Commercial License) Copyright 2024 Fonticons, Inc. --><path d="M64 0C28.7 0 0 28.7 0 64V448c0 35.3 28.7 64 64 64H320c35.3 0 64-28.7 64-64V64c0-35.3-28.7-64-64-64H64zM175 137.8c9.4-9.4 24.6-9.4 33.9 0l22.6 22.6 64 64c21.9 21.9 21.9 57.3 0 79.2s-57.3 21.9-79.2 0l-7.4-7.4c-.3-.3-.6-.6-1-.9V336h16c8.8 0 16 7.2 16 16s-7.2 16-16 16H160c-8.8 0-16-7.2-16-16s7.2-16 16-16h16V295.2c-.3 .3-.7 .6-1 .9l-7.4 7.4c-21.9 21.9-57.3 21.9-79.2 0s-21.9-57.3 0-79.2l64-64L175 137.8z"/></svg>