<svg xmlns="http://www.w3.org/2000/svg" viewBox="0 0 384 512"><!--! Font Awesome Pro 6.5.2 by @fontawesome - https://fontawesome.com License - https://fontawesome.com/license (Commercial License) Copyright 2024 Fonticons, Inc. --><path d="M0 64C0 28.7 28.7 0 64 0H320c35.3 0 64 28.7 64 64V448c0 35.3-28.7 64-64 64H64c-35.3 0-64-28.7-64-64V64zM130.1 208.3C101.9 211.3 80 235.1 80 264c0 30.9 25.1 56 56 56c15.7 0 29.8-6.4 40-16.8V336H160c-8.8 0-16 7.2-16 16s7.2 16 16 16h64c8.8 0 16-7.2 16-16s-7.2-16-16-16H208V303.2c10.2 10.4 24.3 16.8 40 16.8c30.9 0 56-25.1 56-56c0-28.9-21.9-52.7-50.1-55.7c1.4-5.2 2.1-10.7 2.1-16.3c0-35.3-28.7-64-64-64s-64 28.7-64 64c0 5.6 .7 11.1 2.1 16.3z"/></svg>