<svg xmlns="http://www.w3.org/2000/svg" viewBox="0 0 640 512"><!--! Font Awesome Pro 6.5.1 by @fontawesome - https://fontawesome.com License - https://fontawesome.com/license (Commercial License) Copyright 2023 Fonticons, Inc. --><path d="M32 0C14.3 0 0 14.3 0 32S14.3 64 32 64H48c8.8 0 16 7.2 16 16V368c0 44.2 35.8 80 80 80h18.7c-1.8 5-2.7 10.4-2.7 16c0 26.5 21.5 48 48 48s48-21.5 48-48c0-5.6-1-11-2.7-16H450.7c-1.8 5-2.7 10.4-2.7 16c0 26.5 21.5 48 48 48s48-21.5 48-48c0-5.6-1-11-2.7-16H608c17.7 0 32-14.3 32-32s-14.3-32-32-32H144c-8.8 0-16-7.2-16-16V80C128 35.8 92.2 0 48 0H32zM224 32c-17.7 0-32 14.3-32 32V288c0 17.7 14.3 32 32 32H352c17.7 0 32-14.3 32-32V64c0-17.7-14.3-32-32-32H224zM416 64v64c0 17.7 14.3 32 32 32h64c17.7 0 32-14.3 32-32V64c0-17.7-14.3-32-32-32H448c-17.7 0-32 14.3-32 32zm32 128c-17.7 0-32 14.3-32 32v64c0 17.7 14.3 32 32 32H576c17.7 0 32-14.3 32-32V224c0-17.7-14.3-32-32-32H448z"/></svg>