<svg xmlns="http://www.w3.org/2000/svg" viewBox="0 0 576 512"><!--! Font Awesome Pro 6.5.1 by @fontawesome - https://fontawesome.com License - https://fontawesome.com/license (Commercial License) Copyright 2023 Fonticons, Inc. --><path d="M0 96v32H576V96c0-35.3-28.7-64-64-64H64C28.7 32 0 60.7 0 96zm0 64V416c0 35.3 28.7 64 64 64H512c35.3 0 64-28.7 64-64V160H0zM467.9 384H416V349.3c18.6-6.6 32-24.4 32-45.3s-13.4-38.7-32-45.3V224h51.9c17.6 21.9 28.1 49.7 28.1 80s-10.5 58.1-28.1 80zM160 349.3V384H108.1C90.5 362.1 80 334.3 80 304s10.5-58.1 28.1-80H160v34.7c-18.6 6.6-32 24.4-32 45.3s13.4 38.7 32 45.3zM256 224h64c17.7 0 32 14.3 32 32v96c0 17.7-14.3 32-32 32H256c-17.7 0-32-14.3-32-32V256c0-17.7 14.3-32 32-32z"/></svg>