<svg xmlns="http://www.w3.org/2000/svg" viewBox="0 0 576 512"><!--! Font Awesome Pro 6.5.1 by @fontawesome - https://fontawesome.com License - https://fontawesome.com/license (Commercial License) Copyright 2023 Fonticons, Inc. --><path d="M0 96C0 60.7 28.7 32 64 32H512c35.3 0 64 28.7 64 64V416c0 35.3-28.7 64-64 64H483.1l-36.3-96.9c-7-18.7-24.9-31.1-44.9-31.1H174.2c-20 0-37.9 12.4-44.9 31.1L92.9 480H64c-35.3 0-64-28.7-64-64V96zM416.8 394.4L448.9 480H127.1l32.1-85.6c2.3-6.2 8.3-10.4 15-10.4H401.8c6.7 0 12.6 4.1 15 10.4zM341.5 192H234.5c3.5 10 5.5 20.8 5.5 32s-1.9 22-5.5 32H341.5c-3.5-10-5.5-20.8-5.5-32s1.9-22 5.5-32zm90.5 0a32 32 0 1 0 0 64 32 32 0 1 0 0-64zM112 224a32 32 0 1 0 64 0 32 32 0 1 0 -64 0z"/></svg>