<svg xmlns="http://www.w3.org/2000/svg" viewBox="0 0 448 512"><!--! Font Awesome Pro 6.5.2 by @fontawesome - https://fontawesome.com License - https://fontawesome.com/license (Commercial License) Copyright 2024 Fonticons, Inc. --><path d="M160 64a32 32 0 1 0 0-64 32 32 0 1 0 0 64zm112 64a48 48 0 1 0 0-96 48 48 0 1 0 0 96zM35.1 224C16.5 257 0 297.1 0 334.4c0 37.4 11.9 69.4 32 95.5V488c0 13.3 10.7 24 24 24s24-10.7 24-24V473c40.4 25.5 91.8 39 144 39s103.6-13.5 144-39v15c0 13.3 10.7 24 24 24s24-10.7 24-24V429.9c20.1-26.1 32-58.1 32-95.5c0-37.3-16.5-77.4-35.1-110.4H416c17.7 0 32-14.3 32-32s-14.3-32-32-32H368 224 80 32c-17.7 0-32 14.3-32 32s14.3 32 32 32h3.1z"/></svg>