<svg xmlns="http://www.w3.org/2000/svg" viewBox="0 0 448 512"><!--! Font Awesome Pro 6.5.2 by @fontawesome - https://fontawesome.com License - https://fontawesome.com/license (Commercial License) Copyright 2024 Fonticons, Inc. --><path d="M160 0H288c35.3 0 64 28.7 64 64V256H96V64c0-35.3 28.7-64 64-64zM64 160v64c0 17.7-14.3 32-32 32s-32-14.3-32-32V160c0-17.7 14.3-32 32-32s32 14.3 32 32zm384 0v64c0 17.7-14.3 32-32 32s-32-14.3-32-32V160c0-17.7 14.3-32 32-32s32 14.3 32 32zM51.4 305.7C56.8 294.8 67.9 288 80 288H368c12.1 0 23.2 6.8 28.6 17.7l16 32c5 9.9 4.4 21.7-1.4 31.1s-16.1 15.2-27.2 15.2H256v64h32c17.7 0 32 14.3 32 32s-14.3 32-32 32H224 160c-17.7 0-32-14.3-32-32s14.3-32 32-32h32V384H64c-11.1 0-21.4-5.7-27.2-15.2s-6.4-21.2-1.4-31.1l16-32z"/></svg>