<svg xmlns="http://www.w3.org/2000/svg" viewBox="0 0 640 512"><!--! Font Awesome Pro 6.5.1 by @fontawesome - https://fontawesome.com License - https://fontawesome.com/license (Commercial License) Copyright 2023 Fonticons, Inc. --><path d="M256 56c0-13.3-10.7-24-24-24H120c-13.3 0-24 10.7-24 24s10.7 24 24 24h32v48H64c-35.3 0-64 28.7-64 64V416c0 35.3 28.7 64 64 64H576c35.3 0 64-28.7 64-64V192c0-35.3-28.7-64-64-64H544V112c0-8.8-7.2-16-16-16H400c-8.8 0-16 7.2-16 16v16H200V80h32c13.3 0 24-10.7 24-24zM576 304a112 112 0 1 1 -224 0 112 112 0 1 1 224 0zm-52.7-59.3c-6.2-6.2-16.4-6.2-22.6 0l-48 48c-6.2 6.2-6.2 16.4 0 22.6s16.4 6.2 22.6 0l48-48c6.2-6.2 6.2-16.4 0-22.6zM176 192a112 112 0 1 1 0 224 112 112 0 1 1 0-224zm-16 48v64c0 8.8 7.2 16 16 16s16-7.2 16-16V240c0-8.8-7.2-16-16-16s-16 7.2-16 16z"/></svg>