<svg xmlns="http://www.w3.org/2000/svg" viewBox="0 0 448 512"><!--! Font Awesome Pro 6.5.1 by @fontawesome - https://fontawesome.com License - https://fontawesome.com/license (Commercial License) Copyright 2023 Fonticons, Inc. --><path d="M224 32c5.3 0 10.3 2.7 13.3 7.1c2.9 4.3 7.9 9.7 15.5 16.6c7.5 6.8 16.7 14.3 27.2 22.8l3.1 2.5 0 0c20.3 16.4 44.7 36.1 68.2 59.6C400.8 190.2 448 258 448 352H0c0-94 47.2-161.8 96.7-211.3c23.5-23.5 47.9-43.2 68.2-59.6l3.1-2.5c10.6-8.5 19.7-16 27.2-22.8c7.6-6.9 12.7-12.3 15.5-16.6c3-4.5 8-7.1 13.3-7.1zM4 384H444c-14.2 55.2-64.3 96-124 96H128C68.4 480 18.2 439.2 4 384z"/></svg>