<svg xmlns="http://www.w3.org/2000/svg" viewBox="0 0 512 512"><!--! Font Awesome Pro 6.5.2 by @fontawesome - https://fontawesome.com License - https://fontawesome.com/license (Commercial License) Copyright 2024 Fonticons, Inc. --><path d="M278.6 41.4c-12.5-12.5-32.8-12.5-45.3 0l-192 192c-12.5 12.5-12.5 32.8 0 45.3s32.8 12.5 45.3 0L256 109.3 425.4 278.6c12.5 12.5 32.8 12.5 45.3 0s12.5-32.8 0-45.3l-192-192zm192 384l-192-192c-12.5-12.5-32.8-12.5-45.3 0l-192 192c-12.5 12.5-12.5 32.8 0 45.3s32.8 12.5 45.3 0L256 301.3 425.4 470.6c12.5 12.5 32.8 12.5 45.3 0s12.5-32.8 0-45.3z"/></svg>