<svg xmlns="http://www.w3.org/2000/svg" viewBox="0 0 512 512"><!--! Font Awesome Pro 6.5.2 by @fontawesome - https://fontawesome.com License - https://fontawesome.com/license (Commercial License) Copyright 2024 Fonticons, Inc. --><path d="M304 128h80c53 0 96-43 96-96V16c0-8.8-7.2-16-16-16H384c-53 0-96 43-96 96v16c0 8.8 7.2 16 16 16zM256 96c0-23.1 6.1-44.7 16.8-63.4c-5.5-.4-11.1-.6-16.8-.6C123.5 32 16 139.5 16 272s107.5 240 240 240s240-107.5 240-240c0-49.5-15-95.5-40.7-133.7C435 152 410.4 160 384 160H304c-26.5 0-48-21.5-48-48V96z"/></svg>