<svg xmlns="http://www.w3.org/2000/svg" viewBox="0 0 512 512"><!--! Font Awesome Pro 6.5.2 by @fontawesome - https://fontawesome.com License - https://fontawesome.com/license (Commercial License) Copyright 2024 Fonticons, Inc. --><path d="M380 160.1c2.6-10.2 4-21 4-32.1C384 57.3 326.7 0 256 0S128 57.3 128 128c0 11.1 1.4 21.8 4 32.1c-1.3 0-2.7-.1-4-.1C57.3 160 0 217.3 0 288s57.3 128 128 128c38.2 0 72.5-16.8 96-43.3V448H192c-17.7 0-32 14.3-32 32s14.3 32 32 32H320c17.7 0 32-14.3 32-32s-14.3-32-32-32H288V372.7c23.5 26.6 57.8 43.3 96 43.3c70.7 0 128-57.3 128-128s-57.3-128-128-128c-1.4 0-2.7 0-4 .1z"/></svg>