<svg xmlns="http://www.w3.org/2000/svg" viewBox="0 0 512 512"><!--! Font Awesome Pro 6.5.2 by @fontawesome - https://fontawesome.com License - https://fontawesome.com/license (Commercial License) Copyright 2024 Fonticons, Inc. --><path d="M64 128c0-17.7 14.3-32 32-32h12.8l34 84.9C95 215.9 64 272.3 64 336v8c0 55.5 34.6 99.4 55.9 121.2c9.9 10.2 23.9 14.8 38.1 14.8H418c14.2 0 28.1-4.7 38.1-14.8C477.4 443.4 512 399.5 512 344v-8c0-63.7-31-120.1-78.8-155.1L478.1 68.8c1.3-3.2 1.9-6.6 1.9-10C480 44 468 32 453.2 32H192 122.8 96C43 32 0 75 0 128v64c0 17.7 14.3 32 32 32s32-14.3 32-32V128zm65 192c5.2-41.4 30.1-76.6 65-96H382c34.9 19.4 59.8 54.6 65 96H129z"/></svg>