<svg xmlns="http://www.w3.org/2000/svg" viewBox="0 0 512 512"><!--! Font Awesome Pro 6.5.2 by @fontawesome - https://fontawesome.com License - https://fontawesome.com/license (Commercial License) Copyright 2024 Fonticons, Inc. --><path d="M299.4 75.6L493.7 .9c1.5-.6 3.2-.9 4.8-.9C506 0 512 6 512 13.5c0 1.7-.3 3.3-.9 4.8L436.4 212.6l29.3-2.3c12.8-1 21.5 12.8 15.1 24L378.6 410.7C342.3 473.4 275.4 512 203 512C90.9 512 0 421.1 0 309c0-72.4 38.6-139.4 101.3-175.7L277.7 31.2c11.1-6.5 25 2.2 24 15.1l-2.3 29.3zM192 200c-6.1 0-11.7 3.5-14.3 8.9l-29.2 59.2-65.3 9.5c-6 .9-11 5.1-12.9 10.9s-.3 12.2 4 16.4l47.2 46-11.2 65c-1 6 1.4 12.1 6.4 15.7s11.5 4.1 16.8 1.2L192 402.1l58.4 30.7c5.4 2.8 11.9 2.4 16.8-1.2s7.4-9.6 6.4-15.7l-11.2-65 47.2-46c4.4-4.3 5.9-10.6 4-16.4s-6.9-10-12.9-10.9l-65.3-9.5-29.2-59.2c-2.7-5.5-8.3-8.9-14.3-8.9z"/></svg>