<svg xmlns="http://www.w3.org/2000/svg" viewBox="0 0 640 512"><!--! Font Awesome Pro 6.5.1 by @fontawesome - https://fontawesome.com License - https://fontawesome.com/license (Commercial License) Copyright 2023 Fonticons, Inc. --><path d="M576 480H336V366.9c54.3-7.8 96-54.4 96-110.9s-41.7-103.1-96-110.9V32H576c35.3 0 64 28.7 64 64v32H576c-35.3 0-64 28.7-64 64V320c0 35.3 28.7 64 64 64h64v32c0 35.3-28.7 64-64 64zM304 145.1c-54.3 7.8-96 54.4-96 110.9s41.7 103.1 96 110.9V480H64c-35.3 0-64-28.7-64-64V384H64c35.3 0 64-28.7 64-64V192c0-35.3-28.7-64-64-64H0V96C0 60.7 28.7 32 64 32H304V145.1zm0 189.3c-36.5-7.4-64-39.7-64-78.4s27.5-71 64-78.4V334.4zm32 0V177.6c36.5 7.4 64 39.7 64 78.4s-27.5 71-64 78.4zM576 160h64V352H576c-17.7 0-32-14.3-32-32V192c0-17.7 14.3-32 32-32zM64 352H0V160H64c17.7 0 32 14.3 32 32V320c0 17.7-14.3 32-32 32z"/></svg>