<svg xmlns="http://www.w3.org/2000/svg" viewBox="0 0 448 512"><!--! Font Awesome Pro 6.5.2 by @fontawesome - https://fontawesome.com License - https://fontawesome.com/license (Commercial License) Copyright 2024 Fonticons, Inc. --><path d="M112 96h16V40c0-22.1 17.9-40 40-40H280c22.1 0 40 17.9 40 40V96h16c21.4 0 40.3 14.2 46.2 34.8l64 224c4.1 14.5 1.2 30.1-7.8 42.1s-23.3 19.1-38.3 19.1H48c-15.1 0-29.3-7.1-38.3-19.1s-12-27.6-7.8-42.1l64-224C71.7 110.2 90.6 96 112 96zm160 0V48H176V96h96zm16 352c0 35.3-28.7 64-64 64s-64-28.7-64-64H288z"/></svg>