<svg xmlns="http://www.w3.org/2000/svg" viewBox="0 0 512 512"><!--! Font Awesome Pro 6.5.2 by @fontawesome - https://fontawesome.com License - https://fontawesome.com/license (Commercial License) Copyright 2024 Fonticons, Inc. --><path d="M502.6 9.4c12.5 12.5 12.5 32.8 0 45.3l-135 135L409 231c4.5 4.5 7 10.6 7 17s-2.5 12.5-7 17l-23 23H240c-8.8 0-16-7.2-16-16V126.1l23-23c9.4-9.4 24.6-9.4 33.9 0l41.4 41.4 135-135c12.5-12.5 32.8-12.5 45.3 0zM352 432a80 80 0 1 1 160 0 80 80 0 1 1 -160 0zM16.1 334L192 158.1V272c0 26.5 21.5 48 48 48H353.9L178 495.9c-10 10-24.4 16.7-40.4 15.6c-11.3-.8-28.6-2.8-46.4-8.2C73.9 498.2 54.1 489.1 39 473c-16.2-15-25.2-34.9-30.4-52.2C3.2 403 1.2 385.7 .5 374.4C-.6 358.4 6.1 344 16.1 334z"/></svg>