<svg xmlns="http://www.w3.org/2000/svg" viewBox="0 0 448 512"><!--! Font Awesome Pro 6.5.1 by @fontawesome - https://fontawesome.com License - https://fontawesome.com/license (Commercial License) Copyright 2023 Fonticons, Inc. --><path d="M448 224c0 62.7-25.7 119.3-67.2 160H67.2C25.7 343.3 0 286.7 0 224C0 100.3 100.3 0 224 0S448 100.3 448 224zM152.5 84.3l-9.8 26.4-26.4 9.8c-7 2.6-7 12.4 0 15l26.4 9.8 9.8 26.4c2.6 7 12.4 7 15 0l9.8-26.4 26.4-9.8c7-2.6 7-12.4 0-15l-26.4-9.8-9.8-26.4c-2.6-7-12.4-7-15 0zm159 48c-2.6-7-12.4-7-15 0l-18.4 49.8-49.8 18.4c-7 2.6-7 12.4 0 15l49.8 18.4 18.4 49.8c2.6 7 12.4 7 15 0l18.4-49.8 49.8-18.4c7-2.6 7-12.4 0-15l-49.8-18.4-18.4-49.8zm98.9 331.8c3.7 5.1 5.6 11.3 5.6 17.6c0 16.7-13.6 30.3-30.3 30.3H62.3C45.6 512 32 498.4 32 481.7c0-6.3 2-12.5 5.6-17.6L72 416H376l34.4 48.1z"/></svg>