<svg xmlns="http://www.w3.org/2000/svg" viewBox="0 0 512 512"><!--! Font Awesome Pro 6.5.2 by @fontawesome - https://fontawesome.com License - https://fontawesome.com/license (Commercial License) Copyright 2024 Fonticons, Inc. --><path d="M37.5 474.5c47.8 47.8 124 49.9 174.3 6.3c12.6 10.3 31.1 9.6 42.9-2.2c11.6-11.6 12.4-30 2.4-42.6L436 257c12.6 10.1 31 9.3 42.6-2.4c11.7-11.7 12.5-30.3 2.2-42.9c43.6-50.3 41.5-126.5-6.3-174.3c-50-50-131-50-181 0L172 159c-12.6-10.1-31-9.3-42.6 2.4s-12.4 30-2.4 42.6L37.5 293.5c-50 50-50 131 0 181zM400 88a24 24 0 1 1 0 48 24 24 0 1 1 0-48zM304 248a24 24 0 1 1 0 48 24 24 0 1 1 0-48zM120 304a24 24 0 1 1 48 0 24 24 0 1 1 -48 0z"/></svg>