<svg xmlns="http://www.w3.org/2000/svg" viewBox="0 0 448 512"><!--! Font Awesome Pro 6.5.1 by @fontawesome - https://fontawesome.com License - https://fontawesome.com/license (Commercial License) Copyright 2023 Fonticons, Inc. --><path d="M240 0c-6.5 0-12.3 3.9-14.8 9.9s-1.1 12.9 3.5 17.4l6.1 6.1c3.4 3.4 5.3 7.9 5.3 12.7C240 56 232 64 222.1 64H160c-35.3 0-64 28.7-64 64l0 .8c-3.3 .5-6.6 1.4-9.9 2.4L50.9 143C20.5 153.2 0 181.6 0 213.6C0 254.7 33.3 288 74.4 288H373.6c41.1 0 74.4-33.3 74.4-74.4c0-32-20.5-60.4-50.9-70.6l-35.3-11.8c-4.1-1.4-8.2-2.3-12.5-2.8c1.7-6.7 2.6-13.8 2.6-21C352 48.1 303.9 0 244.6 0H240zm27.9 512l24-192H156.1l24 192h87.8zM64 320L89.3 471.9C93.2 495 113.2 512 136.7 512h11.2l-24-192H64zM300.1 512h11.2c23.5 0 43.5-17 47.3-40.1L384 320H324.1l-24 192z"/></svg>