<svg xmlns="http://www.w3.org/2000/svg" viewBox="0 0 576 512"><!--! Font Awesome Pro 6.5.2 by @fontawesome - https://fontawesome.com License - https://fontawesome.com/license (Commercial License) Copyright 2024 Fonticons, Inc. --><path d="M396.7 64c30 0 56 20.8 62.5 50.1l13.5 60.8C450.9 167.4 423.5 160 400 160c-26.4 0-45.8 9.4-62.2 17.2l-.7 .3c-16.7 8-30.4 14.4-49.1 14.4s-32.3-6.4-49.1-14.4l-.7-.3C221.8 169.4 202.4 160 176 160c-23.5 0-50.9 7.4-72.6 14.9l13.5-60.8C123.4 84.8 149.3 64 179.3 64H396.7zM64.3 350.9L95.1 212.1c4.1-1.6 8.5-3.3 13.2-5c22-7.9 47.8-15.1 67.7-15.1c18.7 0 32.3 6.4 49.1 14.4l.7 .3c16.4 7.9 35.8 17.2 62.2 17.2s45.8-9.4 62.2-17.2l.7-.3c16.7-8 30.4-14.4 49.1-14.4c19.8 0 45.6 7.2 67.7 15.1c4.7 1.7 9.2 3.4 13.2 5L512 352 64.3 350.9zM32 384H544c17.7 0 32 14.3 32 32s-14.3 32-32 32H32c-17.7 0-32-14.3-32-32s14.3-32 32-32z"/></svg>