<svg xmlns="http://www.w3.org/2000/svg" viewBox="0 0 384 512"><!--! Font Awesome Pro 6.5.1 by @fontawesome - https://fontawesome.com License - https://fontawesome.com/license (Commercial License) Copyright 2023 Fonticons, Inc. --><path d="M224 32c0-17.7-14.3-32-32-32s-32 14.3-32 32v96H48c-26.5 0-48 21.5-48 48s21.5 48 48 48c20.9 0 38.7-13.4 45.3-32H192h98.7c6.6 18.6 24.4 32 45.3 32c26.5 0 48-21.5 48-48s-21.5-48-48-48H224V32zM128 224v24V414.8c0 10.5 2.9 20.8 8.5 29.7l35.1 56.2c4.4 7 12.1 11.3 20.4 11.3s16-4.3 20.4-11.3l35.1-56.2c5.6-8.9 8.5-19.2 8.5-29.7V248 224H232 152 128z"/></svg>