<svg xmlns="http://www.w3.org/2000/svg" viewBox="0 0 640 512"><!--! Font Awesome Pro 6.5.1 by @fontawesome - https://fontawesome.com License - https://fontawesome.com/license (Commercial License) Copyright 2023 Fonticons, Inc. --><path d="M256 412.8C216.4 372.4 192 317 192 256s24.4-116.4 64-156.8C245.7 97.1 235 96 224 96C135.6 96 64 167.6 64 256s71.6 160 160 160c11 0 21.7-1.1 32-3.2zm64 45.7c-29.1 13.8-61.6 21.6-96 21.6C100.3 480 0 379.7 0 256S100.3 32 224 32c34.4 0 66.9 7.7 96 21.6C349.1 39.7 381.6 32 416 32c123.7 0 224 100.3 224 224s-100.3 224-224 224c-34.4 0-66.9-7.7-96-21.6zM370.7 192H269.3c-6.5 14.9-10.8 31.1-12.5 48H383.2c-1.7-16.9-6-33.1-12.5-48zM269.3 320H370.7c6.5-14.9 10.8-31.1 12.5-48H256.8c1.7 16.9 6 33.1 12.5 48zM288 352c9.1 12.1 19.9 22.9 32 32c12.1-9.1 22.9-19.9 32-32H288zm64-192c-9.1-12.1-19.9-22.9-32-32c-12.1 9.1-22.9 19.9-32 32h64z"/></svg>