<svg xmlns="http://www.w3.org/2000/svg" viewBox="0 0 640 512"><!--! Font Awesome Pro 6.5.1 by @fontawesome - https://fontawesome.com License - https://fontawesome.com/license (Commercial License) Copyright 2023 Fonticons, Inc. --><path d="M302 59.7l18 20.6 18-20.6C353.4 42.1 375.6 32 399 32h1c44.2 0 80 35.8 80 80c0 11.4-2.4 22.2-6.7 32H544v32c0-32 0-32 0-32l0 0 .1 0 .2 0 .5 0c.4 0 .8 0 1.4 .1c1 .1 2.3 .1 3.8 .3c3 .3 7 .9 11.6 2.1c9.2 2.3 21.3 6.9 33.4 15.9C620.9 181.7 640 216.2 640 272c0 47.5-13.7 81.1-32 104.1c-18 22.6-38.5 32.6-49 36.6c-7.3 2.8-14 3.3-19 3.3h-.5c-4.7 0-9.3-.5-13.9-1.5L384 383v81c0 6.2-3.6 11.9-9.2 14.5s-12.3 1.8-17-2.2L320 444.8l-37.8 31.5c-4.8 4-11.4 4.8-17 2.2s-9.2-8.3-9.2-14.5V383L114.4 414.5c-4.6 1-9.2 1.5-13.9 1.5h-.5c-4.9 0-11.7-.5-19-3.3c-10.5-4-31-14-49-36.6C13.7 353.1 0 319.5 0 272c0-55.8 19.1-90.3 44.8-109.6c12.1-9.1 24.3-13.6 33.4-15.9c4.6-1.2 8.6-1.8 11.6-2.1c1.5-.2 2.8-.3 3.8-.3c.5 0 1 0 1.4-.1l.5 0 .2 0 .1 0 0 0c0 0 0 0 0 32V144h70.7c-4.3-9.8-6.7-20.6-6.7-32c0-44.2 35.8-80 80-80h1c23.4 0 45.6 10.1 61 27.7zM240 144h54.4c6.9 0 10.5-8.1 6-13.3L265.9 91.3C259.6 84.1 250.5 80 241 80h-1c-17.7 0-32 14.3-32 32s14.3 32 32 32zm105.6 0H392h8c17.7 0 32-14.3 32-32s-14.3-32-32-32h-1c-1.2 0-2.3 .1-3.5 .2c-8.2 .9-15.8 4.8-21.3 11.1l-34.5 39.5c-4.5 5.2-.9 13.3 6 13.3zM256 208H96.7l-.1 0c-.5 .1-1.5 .2-2.9 .5c-2.8 .7-6.7 2.1-10.6 5.1C76.9 218.3 64 231.8 64 272c0 34.5 9.6 53.7 18.1 64.3c7.2 9 14.9 13.5 19.2 15.6L256 317.4V208zM384 317.4l154.8 34.4c4.3-2 12-6.6 19.2-15.6c8.4-10.6 18.1-29.8 18.1-64.3c0-40.2-12.9-53.7-19.2-58.4c-3.9-2.9-7.7-4.4-10.6-5.1c-1.4-.3-2.4-.5-2.9-.5l-.1 0H384V317.4zM540.1 352c0 0 0 0 0 0l0 0h0zM99.9 352c0 0 0 0 0 0h0z"/></svg>