<svg xmlns="http://www.w3.org/2000/svg" viewBox="0 0 512 512"><!--! Font Awesome Pro 6.5.1 by @fontawesome - https://fontawesome.com License - https://fontawesome.com/license (Commercial License) Copyright 2023 Fonticons, Inc. --><path d="M0 208C0 119.6 114.6 48 256 48s256 71.6 256 160v31c-.7 10-4.3 19.5-10.5 27.4c-6.2 8-14.7 14-24.4 17.1l-.3 .1-.3 .1c-13.1 4.9-24.4 13.8-32 25.5c-9.4 13-22 23.3-36.5 30.1c-14.7 6.8-30.8 9.6-46.9 8.3l-.6 0-.6 0c-17.7-.2-35.3 3.3-51.7 10.1l0 0-.1 0c-16.4 7-34.1 10.5-51.9 10.3l0 0-.3 0c-17.8 .2-35.5-3.3-51.9-10.3l-.1 0c-16.4-6.8-34-10.2-51.7-10.1l-.6 0-.6 0c-16.1 1.3-32.3-1.6-46.9-8.4c-14.6-6.8-27.1-17.1-36.5-30.2c-7.7-11.7-18.9-20.6-32-25.5l-.4-.1-.4-.1c-9.7-3.1-18.2-9.1-24.4-17.1C4.3 258.4 .7 248.9 0 238.9V208zm0 92.7c7.4 5.7 15.7 10.1 24.6 13c6.7 2.6 12.4 7.2 16.3 13.2l.2 .3 .2 .3c12.6 17.6 29.6 31.7 49.3 40.8c19.5 9 41 12.9 62.4 11.3c13.2-.1 26.3 2.5 38.5 7.6c20.4 8.6 42.4 13 64.5 12.8c22.1 .2 44.1-4.2 64.5-12.8c12.2-5.1 25.3-7.6 38.5-7.6c21.4 1.7 42.9-2.2 62.3-11.2c19.7-9.1 36.7-23.1 49.3-40.7l.2-.3 .2-.3c3.9-6 9.6-10.6 16.3-13.2c8.9-2.9 17.3-7.4 24.6-13V304c0 88.4-114.6 160-256 160S0 392.4 0 304v-3.3zM320 192c0-17.7-28.7-32-64-32s-64 14.3-64 32s28.7 32 64 32s64-14.3 64-32zM283.3 84.7c-6.2-6.2-16.4-6.2-22.6 0l-16 16c-6.2 6.2-6.2 16.4 0 22.6s16.4 6.2 22.6 0l16-16c6.2-6.2 6.2-16.4 0-22.6zm-112 38.6c6.2-6.2 6.2-16.4 0-22.6s-16.4-6.2-22.6 0l-32 32c-6.2 6.2-6.2 16.4 0 22.6s16.4 6.2 22.6 0l32-32zm224 9.4c-6.2-6.2-16.4-6.2-22.6 0s-6.2 16.4 0 22.6l32 32c6.2 6.2 16.4 6.2 22.6 0s6.2-16.4 0-22.6l-32-32zM64 192c-8.8 0-16 7.2-16 16s7.2 16 16 16H96c8.8 0 16-7.2 16-16s-7.2-16-16-16H64zm331.3 36.7c-6.2-6.2-16.4-6.2-22.6 0s-6.2 16.4 0 22.6l32 32c6.2 6.2 16.4 6.2 22.6 0s6.2-16.4 0-22.6l-32-32zm-240 16c-6.2-6.2-16.4-6.2-22.6 0s-6.2 16.4 0 22.6l32 32c6.2 6.2 16.4 6.2 22.6 0s6.2-16.4 0-22.6l-32-32zm176 38.6c6.2-6.2 6.2-16.4 0-22.6s-16.4-6.2-22.6 0l-32 32c-6.2 6.2-6.2 16.4 0 22.6s16.4 6.2 22.6 0l32-32z"/></svg>