<svg xmlns="http://www.w3.org/2000/svg" viewBox="0 0 448 512"><!--! Font Awesome Pro 6.5.1 by @fontawesome - https://fontawesome.com License - https://fontawesome.com/license (Commercial License) Copyright 2023 Fonticons, Inc. --><path d="M438.6 86.6c12.5-12.5 12.5-32.8 0-45.3s-32.8-12.5-45.3 0L288 146.7 225.9 84.7c-18.7-18.7-49.1-18.7-67.9 0l-57.4 57.4L337.9 379.3l57.4-57.4c18.7-18.7 18.7-49.1 0-67.9L333.3 192 438.6 86.6zM315.3 401.9L78.1 164.7 18.7 224C6.7 236 0 252.3 0 269.3V416c0 35.3 28.7 64 64 64H210.7c17 0 33.3-6.7 45.3-18.7l59.3-59.3z"/></svg>