<svg xmlns="http://www.w3.org/2000/svg" viewBox="0 0 448 512"><!--! Font Awesome Pro 6.5.1 by @fontawesome - https://fontawesome.com License - https://fontawesome.com/license (Commercial License) Copyright 2023 Fonticons, Inc. --><path d="M0 64C0 28.7 28.7 0 64 0H384c35.3 0 64 28.7 64 64V448c0 35.3-28.7 64-64 64H64c-35.3 0-64-28.7-64-64V64zM368 304A144 144 0 1 0 80 304a144 144 0 1 0 288 0zM88 112a24 24 0 1 0 0-48 24 24 0 1 0 0 48zM208 88a24 24 0 1 0 -48 0 24 24 0 1 0 48 0zM336 304c0 61.9-50.1 112-112 112c-56.4 0-103.1-41.7-110.9-96H176c8.8 0 16-7.2 16-16s-7.2-16-16-16H113.1c7.8-54.3 54.4-96 110.9-96c61.9 0 112 50.1 112 112z"/></svg>