<svg xmlns="http://www.w3.org/2000/svg" viewBox="0 0 384 512"><!--! Font Awesome Pro 6.5.1 by @fontawesome - https://fontawesome.com License - https://fontawesome.com/license (Commercial License) Copyright 2023 Fonticons, Inc. --><path d="M319.9 335.2c-18.2 16.3-30 39.1-35.1 62.9c-5.6 26.3-18.6 51.3-39 71.7c-56.2 56.2-147.4 56.2-203.6 0C14.1 441.7 0 404.9 0 368V192C0 86 86 0 192 0S384 86 384 192c0 56.9-24.8 108-64.1 143.2zM128 192c0-35.3 28.7-64 64-64s64 28.7 64 64v8c0 13.3 10.7 24 24 24s24-10.7 24-24v-8c0-61.9-50.1-112-112-112S80 130.1 80 192v20.2c0 21.2 12 40.6 31 50.1l14 7c1.8 .9 3 2.8 3 4.9c0 1.6-.7 3.2-2 4.2L88.6 309.6c-10.2 8.5-11.6 23.6-3.1 33.8s23.6 11.6 33.8 3.1l37.4-31.2C169 305.1 176 290.1 176 274.2c0-20.2-11.4-38.8-29.5-47.8l-14-7c-2.7-1.4-4.4-4.1-4.4-7.2V192z"/></svg>