<svg xmlns="http://www.w3.org/2000/svg" viewBox="0 0 512 512"><!--! Font Awesome Pro 6.5.2 by @fontawesome - https://fontawesome.com License - https://fontawesome.com/license (Commercial License) Copyright 2024 Fonticons, Inc. --><path d="M284.3 39.3c30.4 31.6 89.1 65.9 131.5 76.7c27.5 7 52.8 23.2 71 47.8c42.1 56.8 30.2 137-26.6 179.1c-17.8 13.2-37.9 21.1-58.4 24c-37.2 5.2-84.5 32.7-103.3 65.2c-44.2 76.5-142 102.7-218.6 58.6S-22.7 348.5 21.4 272c24.8-42.9 38.7-105.9 43.1-155.2C67.1 87 80.1 58 103.3 35.7c51-49 132-47.4 181 3.6zM336 240a112 112 0 1 0 -224 0 112 112 0 1 0 224 0zm-160-8c0 8.8-7.2 16-16 16s-16-7.2-16-16c0-39.8 32.2-72 72-72c8.8 0 16 7.2 16 16s-7.2 16-16 16c-22.1 0-40 17.9-40 40z"/></svg>