<svg xmlns="http://www.w3.org/2000/svg" viewBox="0 0 640 512"><!--! Font Awesome Pro 6.5.2 by @fontawesome - https://fontawesome.com License - https://fontawesome.com/license (Commercial License) Copyright 2024 Fonticons, Inc. --><path d="M400 112c13.3 0 24-10.7 24-24s-10.7-24-24-24H208c-13.3 0-24 10.7-24 24s10.7 24 24 24l72 0v32H208 160 128c-17.7 0-32 14.3-32 32v56H48V160c0-13.3-10.7-24-24-24s-24 10.7-24 24V352c0 13.3 10.7 24 24 24s24-10.7 24-24V280H96v72c0 17.7 14.3 32 32 32h44.8l32 40c12.1 15.2 30.5 24 50 24H448c35.3 0 64-28.7 64-64V238.8c0-19.4-8.8-37.8-24-50L449.5 158c-11.3-9.1-25.4-14-40-14H328V112l72 0zM544 224V416c0 17.7 14.3 32 32 32h32c17.7 0 32-14.3 32-32V224c0-17.7-14.3-32-32-32H576c-17.7 0-32 14.3-32 32zm-256 0a32 32 0 1 1 0 64 32 32 0 1 1 0-64zM160 256a32 32 0 1 1 64 0 32 32 0 1 1 -64 0zm224-32a32 32 0 1 1 0 64 32 32 0 1 1 0-64z"/></svg>