<svg xmlns="http://www.w3.org/2000/svg" viewBox="0 0 640 512"><!--! Font Awesome Pro 6.5.1 by @fontawesome - https://fontawesome.com License - https://fontawesome.com/license (Commercial License) Copyright 2023 Fonticons, Inc. --><path d="M208 48a48 48 0 1 1 96 0 48 48 0 1 1 -96 0zM405.9 175.8C417.5 165.6 432.5 160 448 160h96c35.3 0 64 28.7 64 64s-28.7 64-64 64H472L234.1 496.2C222.5 506.4 207.5 512 192 512H96c-35.3 0-64-28.7-64-64s28.7-64 64-64h72L405.9 175.8zM320 192v16.4l-128 112V192c0-35.3 28.7-64 64-64s64 28.7 64 64z"/></svg>