<svg xmlns="http://www.w3.org/2000/svg" viewBox="0 0 640 512"><!--! Font Awesome Pro 6.5.2 by @fontawesome - https://fontawesome.com License - https://fontawesome.com/license (Commercial License) Copyright 2024 Fonticons, Inc. --><path d="M160 64v96H302.9l-64-96H160zM384 190.5V208v16 48c0 26.5-21.5 48-48 48H48c-26.5 0-48-21.5-48-48V208c0-26.5 21.5-48 48-48H96V48c0-26.5 21.5-48 48-48h94.9c21.4 0 41.4 10.7 53.3 28.5l78.4 117.7c8.8 13.1 13.4 28.6 13.4 44.4zM80 416c-8.8 0-16 7.2-16 16s7.2 16 16 16H336c8.8 0 16-7.2 16-16s-7.2-16-16-16H80zM0 432c0-44.2 35.8-80 80-80H336c44.2 0 80 35.8 80 80s-35.8 80-80 80H80c-44.2 0-80-35.8-80-80zM640 320v64 48c0 44.2-35.8 80-80 80H481.9c-18.7 0-33.9-15.2-33.9-33.9c0-9 3.6-17.6 9.9-24L576 336V128L416 288V160L562.7 13.3c8.5-8.5 20-13.3 32-13.3c25 0 45.3 20.3 45.3 45.3V320z"/></svg>