<svg xmlns="http://www.w3.org/2000/svg" viewBox="0 0 640 512"><!--! Font Awesome Pro 6.5.1 by @fontawesome - https://fontawesome.com License - https://fontawesome.com/license (Commercial License) Copyright 2023 Fonticons, Inc. --><path d="M96 224c-11.1 0-21.6 2.8-30.7 7.8c4-36.7 16.8-68.8 34.5-92.4C121.3 110.8 148.6 96 176 96s54.7 14.8 76.2 43.4C273.7 168.1 288 209.2 288 256s-14.3 87.9-35.8 116.6S203.4 416 176 416s-54.7-14.8-76.2-43.4c-4.9-6.5-9.4-13.6-13.4-21.3c3.1 .5 6.4 .7 9.6 .7c35.3 0 64-28.7 64-64s-28.7-64-64-64zm224-97.3c-5-9.1-10.5-17.6-16.6-25.7C272.8 60.2 228.1 32 176 32s-96.8 28.2-127.4 69C18 141.8 0 196.7 0 256s18 114.2 48.6 155c30.6 40.8 75.3 69 127.4 69s96.8-28.2 127.4-69c6-8 11.6-16.6 16.6-25.7c5 9.1 10.5 17.6 16.6 25.7c30.6 40.8 75.3 69 127.4 69s96.8-28.2 127.4-69C622 370.2 640 315.3 640 256s-18-114.2-48.6-155C560.8 60.2 516.1 32 464 32s-96.8 28.2-127.4 69c-6 8-11.6 16.6-16.6 25.7zm54.4 224.6c3.1 .5 6.4 .7 9.6 .7c35.3 0 64-28.7 64-64s-28.7-64-64-64c-11.1 0-21.6 2.8-30.7 7.8c4-36.7 16.8-68.8 34.5-92.4C409.3 110.8 436.6 96 464 96s54.7 14.8 76.2 43.4C561.7 168.1 576 209.2 576 256s-14.3 87.9-35.8 116.6S491.4 416 464 416s-54.7-14.8-76.2-43.4c-4.9-6.5-9.4-13.6-13.4-21.3z"/></svg>