<svg xmlns="http://www.w3.org/2000/svg" viewBox="0 0 640 512"><!--! Font Awesome Pro 6.5.1 by @fontawesome - https://fontawesome.com License - https://fontawesome.com/license (Commercial License) Copyright 2023 Fonticons, Inc. --><path d="M320 0C178.6 0 64 114.6 64 256H576C576 114.6 461.4 0 320 0zM240.4 224c-17.7 0-32-14.3-32-32c0-8.8 3.6-16.8 9.3-22.6l-30.7-10.2c-8.4-2.8-12.9-11.9-10.1-20.2s11.9-12.9 20.2-10.1l96 32c8.4 2.8 12.9 11.9 10.1 20.2s-11.9 12.9-20.2 10.1l-10.9-3.6c.2 1.5 .3 2.9 .3 4.4c0 17.7-14.3 32-32 32zm192-32c0 17.7-14.3 32-32 32s-32-14.3-32-32c0-1.6 .1-3.2 .3-4.7l-11.7 3.9c-8.4 2.8-17.4-1.7-20.2-10.1s1.7-17.4 10.1-20.2l96-32c8.4-2.8 17.4 1.7 20.2 10.1s-1.7 17.4-10.1 20.2l-30.2 10.1c5.9 5.8 9.5 13.9 9.5 22.8zM48 288c-26.5 0-48 21.5-48 48V464c0 26.5 21.5 48 48 48H592c26.5 0 48-21.5 48-48V336c0-26.5-21.5-48-48-48H48zm352 96H384v32h16c8.8 0 16 7.2 16 16s-7.2 16-16 16H384v16c0 8.8-7.2 16-16 16s-16-7.2-16-16V448H320v16c0 8.8-7.2 16-16 16s-16-7.2-16-16V448H272c-8.8 0-16-7.2-16-16s7.2-16 16-16h16V384H272c-8.8 0-16-7.2-16-16s7.2-16 16-16h16V336c0-8.8 7.2-16 16-16s16 7.2 16 16v16h32V336c0-8.8 7.2-16 16-16s16 7.2 16 16v16h16c8.8 0 16 7.2 16 16s-7.2 16-16 16zm-80 0v32h32V384H320zm250.4-52.1c6.7 5.8 7.5 15.8 1.7 22.6l-96 112c-5.8 6.7-15.8 7.5-22.6 1.7s-7.5-15.8-1.7-22.6l96-112c5.8-6.7 15.8-7.5 22.6-1.7zM448 352a24 24 0 1 1 48 0 24 24 0 1 1 -48 0zm104 72a24 24 0 1 1 0 48 24 24 0 1 1 0-48zM208 320c8.8 0 16 7.2 16 16v64c0 8.8-7.2 16-16 16s-16-7.2-16-16V336c0-8.8 7.2-16 16-16zM184 456a24 24 0 1 1 48 0 24 24 0 1 1 -48 0zM128 336v1.8c4.6 .8 8.7 1.7 12.1 2.6c8.5 2.3 13.6 11 11.3 19.6s-11 13.6-19.6 11.3c-7.9-2.1-18.5-3.9-26.8-2.9c-4.1 .5-6.3 1.4-7.4 2.2c-2.3 1.7-2.2 4.5-.1 5.9c6.9 4.7 14.9 6.9 22.9 9.2l0 0c8.6 2.4 17.2 4.8 24.6 10.2c4.7 3.4 9.3 8.2 12.1 14.7c2.9 6.6 3.4 13.8 2.2 21.1c-2 11.5-7.9 20.5-17 25.9c-4.9 3-10.1 4.6-15.3 5.4v.8c0 8.8-7.2 16-16 16s-16-7.2-16-16v-3c-8.1-1.9-15.3-4.2-20.2-5.9c-8.4-2.8-12.9-11.9-10.1-20.2s11.9-12.9 20.2-10.1c9.5 3.2 21.9 6.9 32 7.1c5 .1 7.6-.8 8.8-1.5l0 0c3-1.8 2.9-6.7 .4-8.5c-6.8-5-15.2-7.3-23.6-9.7c-8.1-2.3-16.2-4.5-23.1-9.2c-4.7-3.2-9.4-7.7-12.4-14.1c-3.1-6.5-3.7-13.7-2.5-20.9c1.8-10.2 7-18.1 14.5-23.5c5.3-3.8 11.2-5.9 16.9-7V336c0-8.8 7.2-16 16-16s16 7.2 16 16z"/></svg>