<svg xmlns="http://www.w3.org/2000/svg" viewBox="0 0 512 512"><!--! Font Awesome Pro 6.5.1 by @fontawesome - https://fontawesome.com License - https://fontawesome.com/license (Commercial License) Copyright 2023 Fonticons, Inc. --><path d="M498.2 339.1c8.9-26.1 13.8-54 13.8-83.1C512 114.6 397.4 0 256 0S0 114.6 0 256c0 28.6 4.7 56.1 13.3 81.8c4.9-1.5 9.9-2.4 15-2.7c1.2-1.4 2.4-2.7 3.7-4l4 4-4-4c23.3-23.3 60.1-24.9 85.3-4.7l51-30.6c30-18 64.1 16.1 46.1 46.1l-30.6 51c20.2 25.1 18.6 62-4.7 85.3c-1.3 1.3-2.6 2.5-4 3.7c-.3 5.4-1.3 10.8-3 16C198.4 507 226.6 512 256 512c28.7 0 56.3-4.7 82-13.4c-1.6-5.1-2.6-10.5-2.9-15.8c-1.4-1.2-2.7-2.4-4-3.7c-23.3-23.3-24.9-60.1-4.7-85.3l-30.6-51c-18-30 16.1-64.1 46.1-46.1l51 30.6c25.1-20.2 62-18.6 85.3 4.7c1.3 1.3 2.5 2.6 3.7 4c5.5 .3 11 1.3 16.3 3.1zm-12.4 29.7c-1.9-.5-3.8-.8-5.8-.9c-5.4-.3-10.8 .7-15.7 3.1c-1-5.2-3.3-10.1-6.9-14.4c-.6-.7-1.2-1.4-1.8-2c-12-12-31.2-12.5-43.8-1.4c-.5 .5-1 .9-1.5 1.4c-3.7 3.7-6.3 8.1-7.8 12.8L332.8 323c-2.8-1.8-6.5-1.4-8.8 1l-.2 .2c-.3 .2-.6 .5-.7 .8c-1.6 2.3-1.7 5.3-.1 7.7l44.2 70.4c-4.9 1.5-9.6 4.1-13.4 8c-4.7 4.7-7.6 10.4-8.8 16.4c-.5 2.4-.7 4.8-.6 7.2c.2 7.9 3.4 15.7 9.4 21.7c.7 .7 1.3 1.3 2 1.9c4.2 3.6 9.2 5.9 14.4 6.9c-1.5 3.2-2.5 6.7-2.9 10.1c-.2 1.8-.3 3.7-.2 5.6c0 .7 .1 1.4 .2 2c.8 6.9 3.9 13.5 9.1 18.8c12.5 12.5 32.8 12.5 45.3 0c2.1-2.1 3.8-4.3 5.2-6.7c18.8 14.5 45.9 13.1 63.1-4.2s18.6-44.3 4.2-63.1c2.4-1.4 4.7-3.1 6.7-5.2c12.5-12.5 12.5-32.8 0-45.3c-4.3-4.3-9.5-7.1-15-8.5l0 0zM142.4 485.5c.4-1.8 .7-3.6 .8-5.4c.3-5.4-.7-10.8-3.1-15.7c5.2-1 10.1-3.3 14.4-6.9c.7-.6 1.4-1.2 2-1.8c1.5-1.5 2.8-3.1 4-4.8c8-11.9 7.1-27.9-2.5-38.9c-.5-.5-.9-1-1.4-1.5c-3.6-3.6-7.9-6.2-12.5-7.7l44.9-69.8c1.8-2.8 1.4-6.5-.9-8.8c-2.3-2.3-5.9-2.7-8.7-1L108 367.5c0-.2-.1-.3-.1-.5c-1.5-4.8-4.1-9.4-8-13.2c-.2-.2-.4-.4-.7-.6c-.3-.3-.6-.5-.8-.8c-12.6-11.1-31.7-10.6-43.8 1.4c-.7 .7-1.3 1.3-1.9 2c-3.6 4.3-5.9 9.2-6.9 14.4c-4.9-2.4-10.3-3.4-15.7-3.1c-1.5 .1-3.1 .3-4.6 .6c-5.9 1.2-11.6 4.1-16.2 8.7c-12.5 12.5-12.5 32.8 0 45.3c2.1 2.1 4.3 3.8 6.7 5.2C1.7 445.6 3 472.7 20.3 489.9s44.3 18.6 63.1 4.2c1.4 2.4 3.1 4.7 5.2 6.7c12.5 12.5 32.8 12.5 45.3 0c4.4-4.4 7.2-9.8 8.5-15.4zM112 224h96c8.8 0 16 7.2 16 16s-7.2 16-16 16H112c-8.8 0-16-7.2-16-16s7.2-16 16-16zm192 32c-8.8 0-16-7.2-16-16s7.2-16 16-16h96c8.8 0 16 7.2 16 16s-7.2 16-16 16H304zm95.2-133.1c2.8 8.4-1.7 17.4-10.1 20.2c-35.5 11.8-64.4 34.8-73.7 44.1c-6.2 6.2-16.4 6.2-22.6 0s-6.2-16.4 0-22.6c12-12 45-38.1 86.3-51.9c8.4-2.8 17.4 1.7 20.2 10.1zm-286.4 0c2.8-8.4 11.9-12.9 20.2-10.1c41.3 13.8 74.2 39.9 86.3 51.9c6.2 6.2 6.2 16.4 0 22.6s-16.4 6.2-22.6 0c-9.3-9.3-38.2-32.3-73.7-44.1c-8.4-2.8-12.9-11.9-10.1-20.2z"/></svg>