<svg xmlns="http://www.w3.org/2000/svg" viewBox="0 0 512 512"><!--! Font Awesome Pro 6.5.2 by @fontawesome - https://fontawesome.com License - https://fontawesome.com/license (Commercial License) Copyright 2024 Fonticons, Inc. --><path d="M512 256c0 141.4-114.6 256-256 256S0 397.4 0 256c0-22.1 2.8-43.5 8.1-64H48v56c0 30.9 25.1 56 56 56h80c30.9 0 56-25.1 56-56V192h32v56c0 30.9 25.1 56 56 56h80c30.9 0 56-25.1 56-56V192h39.9c5.3 20.5 8.1 41.9 8.1 64zM256 0C363.4 0 455.4 66.2 493.4 160H458.6c-9-18.9-28.3-32-50.6-32H328c-22.3 0-41.6 13.1-50.6 32H234.6c-9-18.9-28.3-32-50.6-32H104c-22.3 0-41.6 13.1-50.6 32H18.6C56.6 66.2 148.6 0 256 0zM80 192v-8c0-13.3 10.7-24 24-24h80c13.3 0 24 10.7 24 24v64c0 13.3-10.7 24-24 24H104c-13.3 0-24-10.7-24-24V192zm61.5 147.9c-6.7 5.8-7.4 15.9-1.6 22.6c22.2 25.7 61 53.5 116.1 53.5s93.8-27.9 116.1-53.5c5.8-6.7 5.1-16.8-1.6-22.6s-16.8-5.1-22.6 1.6C330 362.2 299.4 384 256 384s-74-21.8-91.9-42.5c-5.8-6.7-15.9-7.4-22.6-1.6zM304 184c0-13.3 10.7-24 24-24h80c13.3 0 24 10.7 24 24v8 56c0 13.3-10.7 24-24 24H328c-13.3 0-24-10.7-24-24V184zM184.4 224a24 24 0 1 0 -48 0 24 24 0 1 0 48 0zm168 24a24 24 0 1 0 0-48 24 24 0 1 0 0 48z"/></svg>