<svg xmlns="http://www.w3.org/2000/svg" viewBox="0 0 512 512"><!--! Font Awesome Pro 6.5.2 by @fontawesome - https://fontawesome.com License - https://fontawesome.com/license (Commercial License) Copyright 2024 Fonticons, Inc. --><path d="M0 256a256 256 0 1 1 512 0A256 256 0 1 1 0 256zM344.5 367.9c-6.7-5.8-16.8-5.1-22.6 1.6C309 384.4 287.1 400 256 400s-53-15.6-65.9-30.5c-5.8-6.7-15.9-7.4-22.6-1.6s-7.4 15.9-1.6 22.6C183.1 410.3 213.2 432 256 432s72.9-21.7 90.1-41.5c5.8-6.7 5.1-16.8-1.6-22.6zM240 272V240c0-41.5-31.5-75.6-72-79.6c10-10.8 17.6-24.1 21.9-38.8l1.5-5.2c2.4-8.5-2.5-17.4-11-19.8s-17.4 2.5-19.8 11l-1.5 5.2c-7 24.7-28.1 42.7-53.6 45.9L94 160.1c-8.8 1.1-15 9.1-13.9 17.9c1 8.1 7.9 14 15.9 14c-10 13.4-16 30-16 48s6 34.6 16 48v32c0 8.8 7.2 16 16 16s16-7.2 16-16v-6.7c9.8 4.3 20.6 6.7 32 6.7c18 0 34.6-6 48-16c0 8.8 7.2 16 16 16s16-7.2 16-16V288 272zm144 41.3V320c0 8.8 7.2 16 16 16s16-7.2 16-16V288c10-13.4 16-30 16-48s-6-34.6-16-48c8 0 14.9-5.9 15.9-14c1.1-8.8-5.1-16.8-13.9-17.9l-11.5-1.4c-25.5-3.2-46.6-21.3-53.6-45.9l-1.5-5.2c-2.4-8.5-11.3-13.4-19.8-11s-13.4 11.3-11 19.8l1.5 5.2c4.2 14.8 11.8 28 21.9 38.8c-40.4 4-72 38.1-72 79.6c0 44.2 35.8 80 80 80c11.4 0 22.2-2.4 32-6.7zM128 232c17.7 0 32-14.3 32-32c0-5.8-1.5-11.2-4.2-15.8c1.4-.1 2.8-.2 4.2-.2c30.9 0 56 25.1 56 56s-25.1 56-56 56s-56-25.1-56-56c0-5.7 .8-11.2 2.4-16.4c5.7 5.2 13.3 8.4 21.6 8.4zm224-32c0-5.8-1.5-11.2-4.2-15.8c1.4-.1 2.8-.2 4.2-.2c30.9 0 56 25.1 56 56s-25.1 56-56 56s-56-25.1-56-56c0-5.7 .8-11.2 2.4-16.4c5.7 5.2 13.3 8.4 21.6 8.4c17.7 0 32-14.3 32-32z"/></svg>