<svg xmlns="http://www.w3.org/2000/svg" viewBox="0 0 512 512"><!--! Font Awesome Pro 6.5.1 by @fontawesome - https://fontawesome.com License - https://fontawesome.com/license (Commercial License) Copyright 2023 Fonticons, Inc. --><path d="M0 256a256 256 0 1 1 512 0A256 256 0 1 1 0 256zm141.5 67.9c-6.7 5.8-7.4 15.9-1.6 22.6c22.2 25.7 61 53.5 116.1 53.5c8.8 0 16-7.2 16-16s-7.2-16-16-16c-43.4 0-74-21.8-91.9-42.5c-5.8-6.7-15.9-7.4-22.6-1.6zM352 416c26.5 0 48-21 48-47c0-20-28.6-60.4-41.6-77.7c-3.2-4.4-9.6-4.4-12.8 0C332.4 308.6 304 349 304 369c0 26 21.5 47 48 47zM208.4 208a32 32 0 1 0 -64 0 32 32 0 1 0 64 0zm128 32a32 32 0 1 0 0-64 32 32 0 1 0 0 64z"/></svg>