<svg xmlns="http://www.w3.org/2000/svg" viewBox="0 0 512 512"><!--! Font Awesome Pro 6.5.2 by @fontawesome - https://fontawesome.com License - https://fontawesome.com/license (Commercial License) Copyright 2024 Fonticons, Inc. --><path d="M503.4 322c5.6-21.1 8.6-43.2 8.6-66C512 114.6 397.4 0 256 0S0 114.6 0 256S114.6 512 256 512c61.5 0 118-21.7 162.1-57.9c-2.8-1.2-5.5-2.7-8.2-4.2l-68.1-40.4C316.3 423.8 287.1 432 256 432c-84.1 0-154-59.7-175.5-139.9c-2.3-8.5 2.8-17.3 11.3-19.6s17.3 2.8 19.6 11.3C129.5 351.5 187.9 400 256 400s126.5-48.5 144.5-116.1c2.3-8.5 11.1-13.6 19.6-11.3c1.5 .4 2.9 1 4.2 1.8l65.4 37.8c5 2.9 9.6 6.2 13.7 10zM370.6 389.3l55.7 33.1c22.6 13.4 51.8 5.8 65-17c13.3-23 5.4-52.3-17.6-65.6l-48.6-28.1c-11.7 30.4-30.5 57.1-54.5 77.6zm-153-160.5l0 0 0 0-.2-.2c-.2-.2-.4-.5-.7-.9c-.6-.8-1.6-2-2.8-3.4c-2.5-2.8-6-6.6-10.2-10.3c-8.8-7.8-18.8-14-27.7-14s-18.9 6.2-27.7 14c-4.2 3.7-7.7 7.5-10.2 10.3c-1.2 1.4-2.2 2.6-2.8 3.4c-.3 .4-.6 .7-.7 .9l-.2 .2 0 0 0 0 0 0c-2.1 2.8-5.7 3.9-8.9 2.8s-5.5-4.1-5.5-7.6c0-17.9 6.7-35.6 16.6-48.8c9.8-13 23.9-23.2 39.4-23.2s29.6 10.2 39.4 23.2c9.9 13.2 16.6 30.9 16.6 48.8c0 3.4-2.2 6.5-5.5 7.6s-6.9 0-8.9-2.8l0 0 0 0zm160 0l0 0-.2-.2c-.2-.2-.4-.5-.7-.9c-.6-.8-1.6-2-2.8-3.4c-2.5-2.8-6-6.6-10.2-10.3c-8.8-7.8-18.8-14-27.7-14s-18.9 6.2-27.7 14c-4.2 3.7-7.7 7.5-10.2 10.3c-1.2 1.4-2.2 2.6-2.8 3.4c-.3 .4-.6 .7-.7 .9l-.2 .2 0 0 0 0 0 0c-2.1 2.8-5.7 3.9-8.9 2.8s-5.5-4.1-5.5-7.6c0-17.9 6.7-35.6 16.6-48.8c9.8-13 23.9-23.2 39.4-23.2s29.6 10.2 39.4 23.2c9.9 13.2 16.6 30.9 16.6 48.8c0 3.4-2.2 6.5-5.5 7.6s-6.9 0-8.9-2.8l0 0 0 0 0 0z"/></svg>