<svg xmlns="http://www.w3.org/2000/svg" viewBox="0 0 576 512"><!--! Font Awesome Pro 6.5.2 by @fontawesome - https://fontawesome.com License - https://fontawesome.com/license (Commercial License) Copyright 2024 Fonticons, Inc. --><path d="M288 0C213.6 0 146.6 31.8 99.8 82.4c-12.5 2.5-25 5.2-37.3 8.2c-8.2 2-15.3 7.1-19.7 14.3C26.9 130.6 15 158.9 7.8 189c-2.4 10.2 .3 20.9 7.2 28.7c-2.5 2.8-4.9 5.6-7.3 8.5c-4.7 5.5-7.3 12.4-7.6 19.6C.1 249.2 0 252.6 0 256c0 31.4 5 61.7 14.4 90.1c3.8 11.6 13.9 20 26 21.7c5.6 .8 11.2 0 16.3-2C97.8 452.2 185.9 512 288 512c141.4 0 256-114.6 256-256c0-9.5-.5-18.8-1.5-28c6.1-1.1 11.9-3.9 16.5-8.3c8.3-7.9 11.8-19.6 9.2-30.7c-7.2-30.1-19.1-58.4-34.9-84.1c-3.3-5.3-8-9.5-13.5-12.1c-.6-6-2.9-11.9-6.9-16.8c-21.2-26.5-47-49.1-76.2-66.8c-6.1-3.7-13.4-5.2-20.5-4.4c-16.2 2-32.2 4.6-48.1 7.9C342.9 4.5 316 0 288 0zM219.2 98.5s0 0 0 0s0 0 0 0C241.9 96.8 264.9 96 288 96c40 0 79.3 2.5 118 7.4c2.2 .3 4.4 .6 6.6 .9c31.7 4.3 62.9 10.1 93.5 17.5c.1 .2 .2 .3 .3 .5c7.3 11.9 13.7 24.4 19 37.5c4.8 11.8 8.7 24.1 11.7 36.7c-11.9-3.6-23.9-6.9-36-10c-59.4-15.1-121.2-24-184.8-26c-.3 0-.5 0-.8 0c-9.1-.3-18.3-.4-27.5-.4c-17.1 0-34.1 .5-51 1.5c-48.2 2.8-95.4 9.6-141.2 20c-7 1.6-13.9 3.3-20.9 5c-12.1 3.1-24.1 6.4-36 10c.5-2 1-4 1.5-6c2.8-10.5 6.2-20.8 10.2-30.7c5.4-13.3 11.8-26 19.3-38c23.2-5.6 46.8-10.3 70.7-14.1c0 0 0 0 0 0c.8-.1 1.6-.3 2.5-.4c25-3.9 50.4-6.9 76.1-8.7zM50.3 226.4c41-12.2 83.3-21.3 126.6-27.1c-40.6 29.4-77 64.4-108 103.7c-8.5 10.7-16.5 21.7-24.2 33.1c-4.4-13.3-7.7-27.1-9.9-41.3C33 282.1 32 269.2 32 256c0-3 .1-6.1 .2-9.1c5.9-7 12-13.8 18.2-20.5zm126 13.6c13.5-10.8 27.6-20.9 42.1-30.4c12.7 4.2 21.9 16.2 21.9 30.4c0 17.7-14.3 32-32 32s-32-14.3-32-32zM476.2 82.4C419.3 71.1 360.6 64.9 300.6 64.1c38.3-13 78.3-22.2 119.5-27.4c13.7 8.3 26.6 17.9 38.5 28.5c6.1 5.5 11.9 11.2 17.5 17.2zm-103 315.1C356.4 382.2 330.8 368 296 368c-13.1 0-24.8 2-35.2 5.3c-8.4 2.7-17.4-2-20.1-10.5s2-17.4 10.5-20.1c13.4-4.2 28.4-6.8 44.8-6.8c44.2 0 77.2 18.3 98.8 37.9c6.5 5.9 7 16.1 1.1 22.6s-16.1 7-22.6 1.1zM368.4 208a32 32 0 1 1 0 64 32 32 0 1 1 0-64z"/></svg>