<svg xmlns="http://www.w3.org/2000/svg" viewBox="0 0 512 512"><!--! Font Awesome Pro 6.5.1 by @fontawesome - https://fontawesome.com License - https://fontawesome.com/license (Commercial License) Copyright 2023 Fonticons, Inc. --><path d="M512 256c0 113.1-73.3 209.1-175.1 242.9l49-49c18.1-18.1 18.7-47.1 1.8-65.9c16.9-18.8 16.3-47.8-1.8-65.9c-1-1-2.1-2-3.2-3c3.7-15.7-.5-32.8-12.8-45s-29.4-16.5-45-12.8c-.9-1.1-1.9-2.2-3-3.2c-18.7-18.7-49.1-18.7-67.9 0L207 301.1c-9.4-13.7-25.1-22.7-43-22.7c-28.7 0-52 23.3-52 52V384v32.8c0 21.9 5.5 42.5 15.3 60.5C51.2 433 0 350.5 0 256C0 114.6 114.6 0 256 0S512 114.6 512 256zM217.6 212.8l0 0 0 0 0 0c2.1 2.8 5.7 3.9 8.9 2.8s5.5-4.1 5.5-7.6c0-17.9-6.7-35.6-16.6-48.8c-9.8-13-23.9-23.2-39.4-23.2s-29.6 10.2-39.4 23.2C126.7 172.4 120 190.1 120 208c0 3.4 2.2 6.5 5.5 7.6s6.9 0 8.9-2.8l0 0 0 0 0 0 .2-.2c.2-.2 .4-.5 .7-.9c.6-.8 1.6-2 2.8-3.4c2.5-2.8 6-6.6 10.2-10.3c8.8-7.8 18.8-14 27.7-14s18.9 6.2 27.7 14c4.2 3.7 7.7 7.5 10.2 10.3c1.2 1.4 2.2 2.6 2.8 3.4c.3 .4 .6 .7 .7 .9l.2 .2 0 0zm160 0l0 0 0 0c2.1 2.8 5.7 3.9 8.9 2.8s5.5-4.1 5.5-7.6c0-17.9-6.7-35.6-16.6-48.8c-9.8-13-23.9-23.2-39.4-23.2s-29.6 10.2-39.4 23.2C286.7 172.4 280 190.1 280 208c0 3.4 2.2 6.5 5.5 7.6s6.9 0 8.9-2.8l0 0 0 0 0 0 .2-.2c.2-.2 .4-.5 .7-.9c.6-.8 1.6-2 2.8-3.4c2.5-2.8 6-6.6 10.2-10.3c8.8-7.8 18.8-14 27.7-14s18.9 6.2 27.7 14c4.2 3.7 7.7 7.5 10.2 10.3c1.2 1.4 2.2 2.6 2.8 3.4c.3 .4 .6 .7 .7 .9l.2 .2 0 0 0 0zm-78.3 63.9c6.2 6.2 6.2 16.4 0 22.6L248 350.6c-2.6 2.6-2.6 6.8 0 9.4s6.8 2.6 9.4 0l67.3-67.3c6.2-6.2 16.4-6.2 22.6 0s6.2 16.4 0 22.6L280 382.6c-2.6 2.6-2.6 6.8 0 9.4s6.8 2.6 9.4 0l51.3-51.3c6.2-6.2 16.4-6.2 22.6 0s6.2 16.4 0 22.6L312 414.6c-2.6 2.6-2.6 6.8 0 9.4s6.8 2.6 9.4 0l19.3-19.3c6.2-6.2 16.4-6.2 22.6 0s6.2 16.4 0 22.6l-56.8 56.8C288.7 502 264.4 512 239.2 512c-52.6 0-95.2-42.6-95.2-95.2V384 330.4c0-11 9-20 20-20s20 9 20 20v19.7c0 7.1 8.6 10.7 13.7 5.7l79-79c6.2-6.2 16.4-6.2 22.6 0z"/></svg>