<svg xmlns="http://www.w3.org/2000/svg" viewBox="0 0 512 512"><!--! Font Awesome Pro 6.5.2 by @fontawesome - https://fontawesome.com License - https://fontawesome.com/license (Commercial License) Copyright 2024 Fonticons, Inc. --><path d="M0 256a256 256 0 1 1 512 0A256 256 0 1 1 0 256zm203.5-95.6c-5.6 9.4-15.8 15.6-27.5 15.6c-17.7 0-32-14.3-32-32c0-9.1 3.8-17.4 10-23.2c-3.3-.5-6.6-.8-10-.8c-35.3 0-64 28.7-64 64v10.3c0 16.4 13.3 29.7 29.7 29.7h68.6c16.4 0 29.7-13.3 29.7-29.7V184c0-8.3-1.6-16.3-4.5-23.6zM384 176c-17.7 0-32-14.3-32-32c0-8.5 3.3-16.3 8.8-22c-5.4-1.3-11-2-16.8-2c-39.8 0-72 32.2-72 72v7.5c0 13.5 11 24.5 24.5 24.5h95.1c13.5 0 24.5-11 24.5-24.5V192c0-10.4-2.2-20.2-6.1-29.1c-5.8 8-15.2 13.1-25.9 13.1zM245.5 447.8c2.7 .1 5.4 .2 8.1 .2h4.9c55.1 0 105.1-26.1 137-67.5c0 0 0 0 0 0c15.7-20.5 27-44.6 32.4-71.3c2.2-11-6.2-21.2-17.4-21.2h0H101.6h0c-11.2 0-19.6 10.2-17.4 21.2c15.6 78.1 82.4 135 161.2 138.6zm-5.4-32.5c1.5-44.1 37.8-79.4 82.2-79.4c19.9 0 38.1 7 52.3 18.7C349 392.1 306.1 416 258.4 416h-4.9c-4.6 0-9.1-.2-13.5-.6z"/></svg>