<svg xmlns="http://www.w3.org/2000/svg" viewBox="0 0 512 512"><!--! Font Awesome Pro 6.5.1 by @fontawesome - https://fontawesome.com License - https://fontawesome.com/license (Commercial License) Copyright 2023 Fonticons, Inc. --><path d="M256 0a256 256 0 1 0 0 512A256 256 0 1 0 256 0zm91.9 186.5C330 165.8 299.4 144 256 144s-74 21.8-91.9 42.5c-5.8 6.7-15.9 7.4-22.6 1.6s-7.4-15.9-1.6-22.6c22.2-25.7 61-53.5 116.1-53.5s93.8 27.9 116.1 53.5c5.8 6.7 5.1 16.8-1.6 22.6s-16.8 5.1-22.6-1.6zM367.6 304a32 32 0 1 1 -64 0 32 32 0 1 1 64 0zm-192 32a32 32 0 1 1 0-64 32 32 0 1 1 0 64z"/></svg>