<svg xmlns="http://www.w3.org/2000/svg" viewBox="0 0 512 512"><!--! Font Awesome Pro 6.5.2 by @fontawesome - https://fontawesome.com License - https://fontawesome.com/license (Commercial License) Copyright 2024 Fonticons, Inc. --><path d="M35.2 126.3c4.1 1.1 8.4 1.7 12.8 1.7c26.5 0 48-21 48-47c0-5-1.8-11.3-4.6-18.1c-.3-.7-.6-1.4-.9-2.1c-8.9-20.2-26.5-44.9-36-57.5c-3.2-4.4-9.6-4.4-12.8 0C28.6 20.6 0 61 0 81c0 21.7 14.9 39.8 35.2 45.3zM256 0c-51.4 0-99.3 15.2-139.4 41.2c1.5 3.1 3 6.2 4.3 9.3c3.4 8 7.1 19 7.1 30.5c0 44.3-36.6 79-80 79c-9.6 0-18.8-1.7-27.4-4.8C7.3 186.2 0 220.2 0 256C0 397.4 114.6 512 256 512s256-114.6 256-256S397.4 0 256 0zM195.9 410.7c-5.9 6.6-16 7.1-22.6 1.2s-7.1-16-1.2-22.6C188.2 371.4 216.3 352 256 352s67.8 19.4 83.9 37.3c5.9 6.6 5.4 16.7-1.2 22.6s-16.7 5.4-22.6-1.2c-11.7-13-31.6-26.7-60.1-26.7s-48.4 13.7-60.1 26.7zM96 272c0-8.8 7.2-16 16-16h96c8.8 0 16 7.2 16 16s-7.2 16-16 16H112c-8.8 0-16-7.2-16-16zm208-16h96c8.8 0 16 7.2 16 16s-7.2 16-16 16H304c-8.8 0-16-7.2-16-16s7.2-16 16-16z"/></svg>