<svg xmlns="http://www.w3.org/2000/svg" viewBox="0 0 512 512"><!--! Font Awesome Pro 6.5.1 by @fontawesome - https://fontawesome.com License - https://fontawesome.com/license (Commercial License) Copyright 2023 Fonticons, Inc. --><path d="M512 256c0 141.4-114.6 256-256 256c-11.5 0-22.9-.8-34-2.2c.6-1.9 1-3.9 1.4-5.9l18.4-110.2 5.4 3.6c5.4 3.6 12.4 3.6 17.8 0L304 371.2l39.1 26.1c4.8 3.2 10.9 3.6 16 1l32-16c7.9-4 11.1-13.6 7.2-21.5s-13.6-11.1-21.5-7.2l-23.7 11.8-40.3-26.8c-5.4-3.6-12.4-3.6-17.8 0L256 364.8l-8.5-5.7 7.9-47.2c2.5-15.3-2.4-30.9-13.4-41.8s-26.5-16-41.8-13.4l-192 32c-2 .3-4 .8-5.9 1.4C.8 278.9 0 267.5 0 256C0 114.6 114.6 0 256 0S512 114.6 512 256zM133.5 130.7c-7.9-4.2-17.5 1.5-17.5 10.5c0 2.8 1 5.5 2.8 7.6l36 43.2-36 43.2c-1.8 2.1-2.8 4.8-2.8 7.6c0 9 9.6 14.7 17.5 10.5l89.9-47.9c10.7-5.7 10.7-21.1 0-26.8l-89.9-47.9zM396 141.1c0-9-9.6-14.7-17.5-10.5l-89.9 47.9c-10.7 5.7-10.7 21.1 0 26.8l89.9 47.9c7.9 4.2 17.5-1.5 17.5-10.5c0-2.8-1-5.5-2.8-7.6l-36-43.2 36-43.2c1.8-2.1 2.8-4.8 2.8-7.6zM219.3 292.7c3.7 3.7 5.3 8.8 4.5 13.9l-32 192c-1.1 6.7-6.3 11.9-13 13.1s-13.4-1.9-16.7-7.8l-26-45.5L51.9 479.5c-5.5 1.4-11.2-.2-15.2-4.2s-5.6-9.7-4.2-15.2l21.1-84.2-45.5-26c-5.9-3.4-9-10-7.8-16.7s6.4-11.9 13.1-13l192-32c5.1-.8 10.3 .8 13.9 4.5z"/></svg>