<svg xmlns="http://www.w3.org/2000/svg" viewBox="0 0 512 512"><!--! Font Awesome Pro 6.5.1 by @fontawesome - https://fontawesome.com License - https://fontawesome.com/license (Commercial License) Copyright 2023 Fonticons, Inc. --><path d="M216 3.1C229 1.1 242.4 0 256 0s27 1.1 40 3.1c17.5 2.7 29.4 19.1 26.6 36.6s-19.1 29.4-36.6 26.6C276.3 64.8 266.3 64 256 64s-20.3 .8-30.1 2.3c-17.5 2.7-33.8-9.2-36.6-26.6S198.5 5.9 216 3.1zM150.2 55.9c10.4 14.3 7.2 34.3-7 44.7c-16.3 11.9-30.7 26.2-42.5 42.5c-10.4 14.3-30.4 17.4-44.7 7s-17.4-30.4-7-44.7c15.8-21.7 34.9-40.8 56.6-56.6c14.3-10.4 34.3-7.2 44.7 7zm211.6 0c10.4-14.3 30.4-17.4 44.7-7c21.7 15.8 40.8 34.9 56.6 56.6c10.4 14.3 7.2 34.3-7 44.7s-34.3 7.2-44.7-7c-11.9-16.3-26.2-30.7-42.5-42.5c-14.3-10.4-17.4-30.4-7-44.7zM472.3 189.3c17.5-2.7 33.8 9.2 36.6 26.6c2.1 13.1 3.1 26.4 3.1 40s-1.1 27-3.1 40c-2.7 17.5-19.1 29.4-36.6 26.6s-29.4-19.1-26.6-36.6c1.5-9.8 2.3-19.8 2.3-30.1s-.8-20.3-2.3-30.1c-2.7-17.5 9.2-33.8 26.6-36.6zm-432.6 0c17.5 2.7 29.4 19.1 26.6 36.6C64.8 235.7 64 245.7 64 256s.8 20.3 2.3 30.1c2.7 17.5-9.2 33.8-26.6 36.6S5.9 313.5 3.1 296C1.1 283 0 269.6 0 256s1.1-27 3.1-40c2.7-17.5 19.1-29.4 36.6-26.6zM55.9 361.8c14.3-10.4 34.3-7.2 44.7 7c11.9 16.3 26.2 30.7 42.5 42.5c14.3 10.4 17.4 30.4 7 44.7s-30.4 17.4-44.7 7c-21.7-15.8-40.8-34.9-56.6-56.6c-10.4-14.3-7.2-34.3 7-44.7zm400.1 0c14.3 10.4 17.4 30.4 7 44.7c-15.8 21.7-34.9 40.8-56.6 56.6c-14.3 10.4-34.3 7.2-44.7-7s-7.2-34.3 7-44.7c16.3-11.9 30.7-26.2 42.5-42.5c10.4-14.3 30.4-17.4 44.7-7zM189.3 472.3c2.7-17.5 19.1-29.4 36.6-26.6c9.8 1.5 19.8 2.3 30.1 2.3s20.3-.8 30.1-2.3c17.5-2.7 33.8 9.2 36.6 26.6s-9.2 33.8-26.6 36.6c-13.1 2.1-26.4 3.1-40 3.1s-27-1.1-40-3.1c-17.5-2.7-29.4-19.1-26.6-36.6zM176.4 176a32 32 0 1 1 0 64 32 32 0 1 1 0-64zm160 0a32 32 0 1 1 0 64 32 32 0 1 1 0-64zM184 328H328c13.3 0 24 10.7 24 24s-10.7 24-24 24H184c-13.3 0-24-10.7-24-24s10.7-24 24-24z"/></svg>