<svg xmlns="http://www.w3.org/2000/svg" viewBox="0 0 640 512"><!--! Font Awesome Pro 6.5.1 by @fontawesome - https://fontawesome.com License - https://fontawesome.com/license (Commercial License) Copyright 2023 Fonticons, Inc. --><path d="M571.4 304.8c-4.5 23.2 11.8 47.2 35.4 47.2H608c17.7 0 32 14.3 32 32s-14.3 32-32 32H560c-8.8 0-16 7.2-16 16s7.2 16 16 16h16c17.7 0 32 14.3 32 32s-14.3 32-32 32H320 32c-17.7 0-32-14.3-32-32s14.3-32 32-32H44.9c36.8 0 58.4-50.7 42.9-84.1C72.5 331.1 64 294.5 64 256C64 114.6 178.6 0 320 0S576 114.6 576 256c0 16.7-1.6 33-4.6 48.8zM247.2 219.9a32 32 0 1 0 16.6-61.8 32 32 0 1 0 -16.6 61.8zM441 238.7a32 32 0 1 0 -61.8-16.6A32 32 0 1 0 441 238.7zM213.2 299.4c-3.9-7.9-13.4-11.3-21.4-7.4s-11.3 13.4-7.4 21.4c14.8 30.5 45.1 67.5 98.3 81.7s97.9-2.6 126-21.7c7.3-5 9.2-14.9 4.3-22.2s-14.9-9.2-22.2-4.3c-22.7 15.4-57.9 28.5-99.8 17.2s-65.8-40.2-77.8-64.8z"/></svg>