<svg xmlns="http://www.w3.org/2000/svg" viewBox="0 0 640 512"><!--! Font Awesome Pro 6.5.2 by @fontawesome - https://fontawesome.com License - https://fontawesome.com/license (Commercial License) Copyright 2024 Fonticons, Inc. --><path d="M573.9 288.5c1.4-10.7 2.1-21.5 2.1-32.5C576 114.6 461.4 0 320 0S64 114.6 64 256c0 11 .7 21.9 2.1 32.6c20.6-2.5 41.7 3.5 57.8 16.9l0 0c57.5 48 87.8 118 98 187C252.1 505.1 285.2 512 320 512c34.8 0 68-6.9 98.2-19.5c10.2-69 40.4-139 98-187l0 0c16.1-13.4 37.2-19.4 57.8-17zM320 320c26.5 0 48 21.5 48 48v32c0 26.5-21.5 48-48 48s-48-21.5-48-48V368c0-26.5 21.5-48 48-48zm-46.6-77c-22.5 36.9-62.8 54.7-90.1 39.8s-31.1-56.9-8.7-93.7s62.8-54.7 90.1-39.8s31.1 56.9 8.7 93.7zm183.3 39.8c-27.3 14.9-67.6-2.9-90.1-39.8s-18.6-78.8 8.7-93.7s67.6 2.9 90.1 39.8s18.6 78.8-8.7 93.7zM103.4 330.1C89.1 318.2 68 316.4 51.6 327c-20 13-25.6 39.5-12.4 59.3c26.4 40 43.6 75.3 43.2 125.7L192 512c-7-68.4-34.8-137-88.7-181.9zM588.5 327c-16.4-10.6-37.6-8.8-51.8 3.1C482.8 375 455 443.6 448 512l109.8 0c-.4-50.5 16.7-85.7 43.2-125.7c13.1-19.8 7.6-46.3-12.4-59.3z"/></svg>