<svg xmlns="http://www.w3.org/2000/svg" viewBox="0 0 512 512"><!--! Font Awesome Pro 6.5.2 by @fontawesome - https://fontawesome.com License - https://fontawesome.com/license (Commercial License) Copyright 2024 Fonticons, Inc. --><path d="M512 256c0 8.3-.4 16.6-1.2 24.7c0 .5-.1 1.1-.1 1.6l-14.8 200C494.7 499.1 480.8 512 464 512s-30.7-12.9-31.9-29.6l-2.8-37.9c-5 4.6-10.2 9-15.6 13.2l-11.5 32.9C397.7 503.4 385.6 512 372 512c-11.5 0-21.9-6.1-27.5-15.7C316.9 506.5 287.1 512 256 512c-69.4 0-132.3-27.6-178.4-72.4C71.9 444.9 64.3 448 56 448c-15.6 0-29-11.3-31.6-26.7L6.5 313.4C2.2 294.9 0 275.7 0 256C0 114.6 114.6 0 256 0S512 114.6 512 256zM56 415.8l0 .2 0-.2 20-120.2C78.1 283.3 68.6 272 56 272s-22.1 11.3-20.1 23.7L56 415.8zM344 400l28 80 28-80V360l-56 0v40zm55.3-56c-3.8-22.7-23.6-40-47.3-40h-8v40l55.3 0zM328 344V304H264v40h64zm0 56V360H264v40l32 48 32-48zm-80-96H184v40l64 0V304zm0 56l-64 0v40h64V360zm-80-16V304h-8c-23.8 0-43.5 17.3-47.3 40H168zm0 56V360H112.7c3.8 22.7 23.6 40 47.3 40h8zm40.4-192a32 32 0 1 0 -64 0 32 32 0 1 0 64 0zm128 32a32 32 0 1 0 0-64 32 32 0 1 0 0 64zM464 480l21.8-232.1C487 235.1 476.9 224 464 224s-23 11.1-21.8 23.9L464 480z"/></svg>