<svg xmlns="http://www.w3.org/2000/svg" viewBox="0 0 576 512"><!--! Font Awesome Pro 6.5.1 by @fontawesome - https://fontawesome.com License - https://fontawesome.com/license (Commercial License) Copyright 2023 Fonticons, Inc. --><path d="M544 256c0 112.9-73.1 208.7-174.5 242.8C378.7 484 384 466.6 384 448V416.7c10.2-7.2 16-15.7 16-24.7c0-26.5-50.1-48-112-48s-112 21.5-112 48c0 9 5.8 17.5 16 24.7V448c0 18.6 5.3 36 14.5 50.8c-41.3-13.9-78-38-106.9-69.4C116.9 415 128 393.5 128 369c0-11.4-3.8-22.4-7.1-30.5c-3.7-8.7-8.4-17.6-13.2-25.7C98.1 296.7 87 281.3 80 272.1c-11.6-15.6-31.7-19.9-48-12.8c0-1.1 0-2.2 0-3.3C32 114.6 146.6 0 288 0S544 114.6 544 256zM96 369c0 14.2-6.4 26.9-16.5 35.5C71 411.7 60 416 48 416c-26.5 0-48-21-48-47c0-17.3 21.4-50 35.7-69.7c2.2-3 4.2-5.8 5.9-8.1c3.2-4.4 9.6-4.4 12.8 0C67.6 308.6 96 349 96 369zm239.6-97a32 32 0 1 0 64 0 32 32 0 1 0 -64 0zm-128 32a32 32 0 1 0 0-64 32 32 0 1 0 0 64zm19.7-155.3c-6.2-6.2-16.4-6.2-22.6 0l-7.4 7.4c-18.9 18.9-43.2 31.4-69.5 35.7l-2.5 .4c-8.7 1.5-14.6 9.7-13.2 18.4s9.7 14.6 18.4 13.2l2.5-.4c32.9-5.5 63.3-21.1 86.8-44.7l7.4-7.4c6.2-6.2 6.2-16.4 0-22.6zm121.4 22.6l7.4 7.4c23.6 23.6 53.9 39.2 86.8 44.7l2.5 .4c8.7 1.5 17-4.4 18.4-13.2s-4.4-17-13.2-18.4l-2.5-.4c-26.3-4.4-50.6-16.9-69.5-35.7l-7.4-7.4c-6.2-6.2-16.4-6.2-22.6 0s-6.2 16.4 0 22.6zM352 402.6V448c0 35.3-28.7 64-64 64s-64-28.7-64-64V402.6c0-14.7 11.9-26.6 26.6-26.6h2c11.3 0 21.1 7.9 23.6 18.9c2.8 12.6 20.8 12.6 23.6 0c2.5-11.1 12.3-18.9 23.6-18.9h2c14.7 0 26.6 11.9 26.6 26.6z"/></svg>