<svg xmlns="http://www.w3.org/2000/svg" viewBox="0 0 512 512"><!--! Font Awesome Pro 6.5.2 by @fontawesome - https://fontawesome.com License - https://fontawesome.com/license (Commercial License) Copyright 2024 Fonticons, Inc. --><path d="M0 256C0 359.8 61.8 449.1 150.5 489.3c-4.2-10.3-6.5-21.5-6.5-33.3V432 408c0-37.3 23.2-69.2 56-82V275.9c-14.8-6.9-26.6-15.9-35.3-24.6c-6.2-6.2-6.2-16.4 0-22.6s16.4-6.2 22.6 0c3.7 3.7 8.1 7.4 13.3 10.9c4-27 27.3-47.6 55.4-47.6s51.3 20.7 55.4 47.6c5.2-3.5 9.6-7.3 13.3-10.9c6.2-6.2 16.4-6.2 22.6 0s6.2 16.4 0 22.6c-8.7 8.7-20.5 17.7-35.3 24.6v58.3c17.9 11.7 31.3 29.7 37 50.9c16-3.2 33.3 .6 46.9 11.9c18.4 15.3 24.5 39.9 17.1 61.3c60.3-46.8 99-120 99-202.3C512 114.6 397.4 0 256 0S0 114.6 0 256zM176.4 96a32 32 0 1 1 0 64 32 32 0 1 1 0-64zm128 32a32 32 0 1 1 64 0 32 32 0 1 1 -64 0zM280 248c0-13.3-10.7-24-24-24s-24 10.7-24 24v72h48V248zM224 408c0-4.4 3.6-8 8-8h32c4.4 0 8 3.6 8 8v8c0 13.3 10.7 24 24 24s24-10.7 24-24v-8c0-30.9-25.1-56-56-56H232c-30.9 0-56 25.1-56 56v24 24c0 30.9 25.1 56 56 56h48 17.5c21.4 0 41.6-9.5 55.3-25.9l25.6-30.7c8.5-10.2 7.1-25.3-3.1-33.8s-25.3-7.1-33.8 3.1L316 455.4c-4.6 5.5-11.3 8.6-18.4 8.6h-10L224 419.5V408z"/></svg>