<svg xmlns="http://www.w3.org/2000/svg" viewBox="0 0 512 512"><!--! Font Awesome Pro 6.5.2 by @fontawesome - https://fontawesome.com License - https://fontawesome.com/license (Commercial License) Copyright 2024 Fonticons, Inc. --><path d="M256 512A256 256 0 1 0 256 0a256 256 0 1 0 0 512zm56.9-137.1l14.8-9.9c14.3-9.6 32.7-10.7 48.1-3l15.4 7.7c7.9 4 11.1 13.6 7.2 21.5s-13.6 11.1-21.5 7.2l-15.4-7.7c-5.1-2.6-11.3-2.2-16 1l-14.8 9.9c-16.1 10.7-37.1 10.7-53.3 0l-12.5-8.3c-5.4-3.6-12.4-3.6-17.8 0l-12.5 8.3c-16.1 10.7-37.1 10.7-53.3 0l-14.8-9.9c-4.8-3.2-10.9-3.6-16-1l-15.4 7.7c-7.9 4-17.5 .7-21.5-7.2s-.7-17.5 7.2-21.5l15.4-7.7c15.4-7.7 33.8-6.6 48.1 3l14.8 9.9c5.4 3.6 12.4 3.6 17.8 0l12.5-8.3c16.1-10.7 37.1-10.7 53.3 0l12.5 8.3c5.4 3.6 12.4 3.6 17.8 0zm-147-263.3c.3 6.6-4.9 12.2-11.5 12.5c-46.9 1.9-82.2 45-78.1 84.3l0 .3 0 .3c2 40.2 40.8 70.7 76.2 66.7l.3 0 .3 0c36.3-2 62.1-35.7 58.4-64.5l0-.3 0-.3c-2.1-29.8-31.3-51-56-47.5l-.3 0-.3 0c-25.7 2.2-42 26.2-38.9 44.5l.1 .4 0 .4c2.1 19.5 21.5 31.3 35.5 28.6l.3-.1 .3 0c15.2-2.1 22-16.3 19.9-24l-.1-.4-.1-.4c-.9-4.3-3.4-7.4-6.5-9.2c-.9-.5-1.8-.9-2.6-1.2c1.7 1.9 2.8 4.2 3 6.9c1 11.1-8.8 15.8-14.1 16.4c-6.6 .8-13.4-2.2-17.6-8.5c-5-6.8-4.4-15.6-1.8-21.8c2.9-7 8.9-13.2 17.8-16c9.2-3.3 19.4-1.3 27.5 3.3c8.3 4.9 15.5 13.4 17.9 24.8c5.8 22.8-11.9 49.5-39.5 53.6c-27.7 5.3-59.8-16.2-63.6-49.2c-5.4-33 21.9-68.7 60.3-72.1c38.2-5.2 79.6 25.8 82.9 69.3c5.4 43.3-31.5 88.2-80.6 91.2c-48.8 5.3-99.6-35.2-102.5-89.1c-5.5-53.8 41.1-108.1 101-110.5c6.6-.3 12.2 4.9 12.5 11.5zM357.6 292c46.9-1.9 82.2-45 78.1-84.3l0-.3 0-.3c-2-40.2-40.8-70.7-76.2-66.7l-.3 0-.3 0c-36.3 2-62.1 35.7-58.4 64.5l0 .3 0 .3c2.1 29.8 31.3 51 56 47.5l.3 0 .3 0c25.7-2.2 42-26.2 38.9-44.5l-.1-.4 0-.4c-2.1-19.5-21.5-31.3-35.5-28.6l-.3 .1-.3 0c-15.2 2.1-21.9 16.3-19.9 24l.1 .4 .1 .4c.9 4.3 3.4 7.4 6.5 9.2c.9 .5 1.8 .9 2.6 1.2c-1.7-1.9-2.8-4.2-3-6.9c-1-11.1 8.8-15.8 14.1-16.4c6.6-.8 13.4 2.2 17.6 8.5c5 6.8 4.4 15.6 1.8 21.8c-2.9 7-8.9 13.2-17.8 16c-9.2 3.3-19.4 1.3-27.5-3.3c-8.3-4.9-15.5-13.4-17.9-24.8c-5.8-22.8 11.9-49.5 39.5-53.6c27.7-5.3 59.8 16.2 63.6 49.2c5.4 33-21.9 68.7-60.3 72.1c-38.2 5.2-79.6-25.8-82.9-69.3c-5.4-43.3 31.5-88.2 80.6-91.2c48.8-5.3 99.6 35.2 102.5 89.1c5.5 53.8-41.1 108.1-101 110.5c-6.6 .3-12.2-4.9-12.5-11.5s4.9-12.2 11.5-12.5z"/></svg>