<svg xmlns="http://www.w3.org/2000/svg" viewBox="0 0 512 512"><!--! Font Awesome Pro 6.5.1 by @fontawesome - https://fontawesome.com License - https://fontawesome.com/license (Commercial License) Copyright 2023 Fonticons, Inc. --><path d="M0 256a256 256 0 1 1 512 0A256 256 0 1 1 0 256zm96-48c0 8.8 7.2 16 16 16h32c0 17.7 14.3 32 32 32s32-14.3 32-32s-14.3-32-32-32H112c-8.8 0-16 7.2-16 16zM375.8 338.6c1.5-8.7-4.4-17-13.2-18.4s-17 4.4-18.4 13.2l-.2 1.2c-3.2 19.3-19.9 33.4-39.5 33.4H192c-8.8 0-16 7.2-16 16s7.2 16 16 16H304.6c35.2 0 65.2-25.4 71-60.2l.2-1.2zM288 208c0 8.8 7.2 16 16 16h32c0 17.7 14.3 32 32 32s32-14.3 32-32s-14.3-32-32-32H304c-8.8 0-16 7.2-16 16z"/></svg>