<svg xmlns="http://www.w3.org/2000/svg" viewBox="0 0 512 512"><!--! Font Awesome Pro 6.5.1 by @fontawesome - https://fontawesome.com License - https://fontawesome.com/license (Commercial License) Copyright 2023 Fonticons, Inc. --><path d="M256 512A256 256 0 1 0 256 0a256 256 0 1 0 0 512zM116 205.1c0-9 9.6-14.7 17.5-10.5l89.9 47.9c10.7 5.7 10.7 21.1 0 26.8l-89.9 47.9c-7.9 4.2-17.5-1.5-17.5-10.5c0-2.8 1-5.5 2.8-7.6l36-43.2-36-43.2c-1.8-2.1-2.8-4.8-2.8-7.6zm262.5-10.5c7.9-4.2 17.5 1.5 17.5 10.5c0 2.8-1 5.5-2.8 7.6l-36 43.2 36 43.2c1.8 2.1 2.8 4.8 2.8 7.6c0 9-9.6 14.7-17.5 10.5l-89.9-47.9c-10.7-5.7-10.7-21.1 0-26.8l89.9-47.9zm-161.6 160L256 380.8l39.1-26.1c5.4-3.6 12.4-3.6 17.8 0l40.3 26.8 23.7-11.8c7.9-4 17.5-.7 21.5 7.2s.7 17.5-7.2 21.5l-32 16c-5.1 2.6-11.3 2.2-16-1L304 387.2l-39.1 26.1c-5.4 3.6-12.4 3.6-17.8 0L208 387.2l-39.1 26.1c-4.8 3.2-10.9 3.6-16 1l-32-16c-7.9-4-11.1-13.6-7.2-21.5s13.6-11.1 21.5-7.2l23.7 11.8 40.3-26.8c5.4-3.6 12.4-3.6 17.8 0z"/></svg>