<svg xmlns="http://www.w3.org/2000/svg" viewBox="0 0 640 512"><!--! Font Awesome Pro 6.5.1 by @fontawesome - https://fontawesome.com License - https://fontawesome.com/license (Commercial License) Copyright 2023 Fonticons, Inc. --><path d="M531.7 400C485.6 467.6 408 512 320 512C178.6 512 64 397.4 64 256S178.6 0 320 0C433.4 0 529.7 73.8 563.3 176H560c-44.2 0-80 35.8-80 80c0 18 6 34.6 16 48H416c-1 0-2 0-3 .1c-1.2-2.3-2.7-4.4-4.3-6.4c-4.3-5.2-10.1-9.7-16.7-13.4C378.7 276.9 361.4 272 344 272c-3.6 0-6.8 2.5-7.7 6s.6 7.2 3.8 9l0 0 0 0 0 0 .2 .1c.2 .1 .5 .3 .9 .5c.8 .5 2 1.2 3.4 2.1c2.8 1.9 6.5 4.5 10.2 7.6c3.7 3.1 7.2 6.6 9.6 10.1c2.5 3.5 3.5 6.4 3.5 8.6s-1 5-3.5 8.6c-2.5 3.5-5.9 6.9-9.6 10.1c-3.7 3.1-7.4 5.7-10.2 7.6c-1.4 .9-2.6 1.6-3.4 2.1c-.4 .2-.7 .4-.9 .5l-.2 .1 0 0 0 0 0 0 0 0 0 0c-2.5 1.4-4.1 4.1-4.1 7s1.6 5.6 4.1 7l0 0 0 0 0 0 .2 .1c.2 .1 .5 .3 .9 .5c.8 .5 2 1.2 3.4 2.1c2.8 1.9 6.5 4.5 10.2 7.6c3.7 3.1 7.2 6.6 9.6 10.1c2.5 3.5 3.5 6.4 3.5 8.6s-1 5-3.5 8.6c-2.5 3.5-5.9 6.9-9.6 10.1c-3.7 3.1-7.4 5.7-10.2 7.6c-1.4 .9-2.6 1.6-3.4 2.1c-.4 .2-.7 .4-.9 .5l-.2 .1 0 0 0 0 0 0 0 0c-3.2 1.8-4.7 5.5-3.8 9s4.1 6 7.7 6c17.4 0 34.7-4.9 47.9-12.3c6.6-3.7 12.5-8.2 16.7-13.4c1.6-2 3.1-4.1 4.3-6.4c1 .1 2 .1 3 .1H531.7zM275.2 233.6c5.3 7.1 15.3 8.5 22.4 3.2s8.5-15.3 3.2-22.4c-30.4-40.5-91.2-40.5-121.6 0c-5.3 7.1-3.9 17.1 3.2 22.4s17.1 3.9 22.4-3.2c17.6-23.5 52.8-23.5 70.4 0zm89.6 0c17.6-23.5 52.8-23.5 70.4 0c5.3 7.1 15.3 8.5 22.4 3.2s8.5-15.3 3.2-22.4c-30.4-40.5-91.2-40.5-121.6 0c-5.3 7.1-3.9 17.1 3.2 22.4s17.1 3.9 22.4-3.2zM512 256c0-26.5 21.5-48 48-48h32c26.5 0 48 21.5 48 48v64c0 26.5-21.5 48-48 48H400c-8.8 0-16-7.2-16-16s7.2-16 16-16H592c8.8 0 16-7.2 16-16V256c0-8.8-7.2-16-16-16H560c-8.8 0-16 7.2-16 16s7.2 16 16 16h16c8.8 0 16 7.2 16 16s-7.2 16-16 16H560c-26.5 0-48-21.5-48-48zM51.3 152.2l-20-52C46.6 71.8 66 46 88.8 23.4L132 37.8C96.5 68.5 68.5 107.7 51.3 152.2zM55.1 12.2C40.9 27.6 28 44.4 16.6 62.1L1.1 21.7C-1.2 16 .2 9.4 4.4 4.9S15.2-1.1 21.1 .8L55.1 12.2z"/></svg>