<svg xmlns="http://www.w3.org/2000/svg" viewBox="0 0 640 512"><!--! Font Awesome Pro 6.5.1 by @fontawesome - https://fontawesome.com License - https://fontawesome.com/license (Commercial License) Copyright 2023 Fonticons, Inc. --><path d="M411.1 495.3c-17-21.6-27.1-48.9-27.1-78.5V386c-18.1 8.4-39.4 14-64 14s-45.9-5.6-64-14v30.8c0 29.6-10.1 56.9-27.1 78.5c28.3 10.8 59 16.7 91.1 16.7s62.8-5.9 91.1-16.7zM320 0C183.1 0 71.3 107.5 64.3 242.6c16.8-5.8 36.2-2 49.6 11.4L161 301.1c9.4-13.7 25.1-22.7 43-22.7c28.7 0 52 23.3 52 52v19.2c16.8 10.6 38.1 18.4 64 18.4s47.2-7.7 64-18.4V330.4c0-28.7 23.3-52 52-52c17.9 0 33.6 9 43 22.7l47.1-47.1c13.4-13.4 32.8-17.2 49.6-11.4C568.7 107.5 456.9 0 320 0zM281.6 228.8l0 0-.2-.2c-.2-.2-.4-.5-.7-.9c-.6-.8-1.6-2-2.8-3.4c-2.5-2.8-6-6.6-10.2-10.3c-8.8-7.8-18.8-14-27.7-14s-18.9 6.2-27.7 14c-4.2 3.7-7.7 7.5-10.2 10.3c-1.2 1.4-2.2 2.6-2.8 3.4c-.3 .4-.6 .7-.7 .9l-.2 .2 0 0 0 0 0 0c-2.1 2.8-5.7 3.9-8.9 2.8s-5.5-4.1-5.5-7.6c0-17.9 6.7-35.6 16.6-48.8c9.8-13 23.9-23.2 39.4-23.2s29.6 10.2 39.4 23.2c9.9 13.2 16.6 30.9 16.6 48.8c0 3.4-2.2 6.5-5.5 7.6s-6.9 0-8.9-2.8l0 0 0 0 0 0zm160 0l0 0 0 0-.2-.2c-.2-.2-.4-.5-.7-.9c-.6-.8-1.6-2-2.8-3.4c-2.5-2.8-6-6.6-10.2-10.3c-8.8-7.8-18.8-14-27.7-14s-18.9 6.2-27.7 14c-4.2 3.7-7.7 7.5-10.2 10.3c-1.2 1.4-2.2 2.6-2.8 3.4c-.3 .4-.6 .7-.7 .9l-.2 .2 0 0 0 0 0 0c-2.1 2.8-5.7 3.9-8.9 2.8s-5.5-4.1-5.5-7.6c0-17.9 6.7-35.6 16.6-48.8c9.8-13 23.9-23.2 39.4-23.2s29.6 10.2 39.4 23.2c9.9 13.2 16.6 30.9 16.6 48.8c0 3.4-2.2 6.5-5.5 7.6s-6.9 0-8.9-2.8l0 0 0 0zM68.7 299.3L120 350.6c2.6 2.6 2.6 6.8 0 9.4s-6.8 2.6-9.4 0L43.3 292.7c-6.2-6.2-16.4-6.2-22.6 0s-6.2 16.4 0 22.6L88 382.6c2.6 2.6 2.6 6.8 0 9.4s-6.8 2.6-9.4 0L27.3 340.7c-6.2-6.2-16.4-6.2-22.6 0s-6.2 16.4 0 22.6L56 414.6c2.6 2.6 2.6 6.8 0 9.4s-6.8 2.6-9.4 0L27.3 404.7c-6.2-6.2-16.4-6.2-22.6 0s-6.2 16.4 0 22.6l56.8 56.8C79.3 502 103.6 512 128.8 512c52.6 0 95.2-42.6 95.2-95.2V384 330.4c0-11-9-20-20-20s-20 9-20 20v19.7c0 7.1-8.6 10.7-13.7 5.7l-79-79c-6.2-6.2-16.4-6.2-22.6 0s-6.2 16.4 0 22.6zm502.6 0c6.2-6.2 6.2-16.4 0-22.6s-16.4-6.2-22.6 0l-79 79c-5 5-13.7 1.5-13.7-5.7V330.4c0-11-9-20-20-20s-20 9-20 20V384v32.8c0 52.6 42.6 95.2 95.2 95.2c25.2 0 49.5-10 67.3-27.9l56.8-56.8c6.2-6.2 6.2-16.4 0-22.6s-16.4-6.2-22.6 0L593.4 424c-2.6 2.6-6.8 2.6-9.4 0s-2.6-6.8 0-9.4l51.3-51.3c6.2-6.2 6.2-16.4 0-22.6s-16.4-6.2-22.6 0L561.4 392c-2.6 2.6-6.8 2.6-9.4 0s-2.6-6.8 0-9.4l67.3-67.3c6.2-6.2 6.2-16.4 0-22.6s-16.4-6.2-22.6 0L529.4 360c-2.6 2.6-6.8 2.6-9.4 0s-2.6-6.8 0-9.4l51.3-51.3z"/></svg>