<svg xmlns="http://www.w3.org/2000/svg" viewBox="0 0 512 512"><!--! Font Awesome Pro 6.5.1 by @fontawesome - https://fontawesome.com License - https://fontawesome.com/license (Commercial License) Copyright 2023 Fonticons, Inc. --><path d="M0 256C0 364.6 67.7 457.5 163.1 494.6C151.1 476.8 144 455.2 144 432V421.5c-22.4-20.1-39-46.1-47.2-75.4c-3.8-13.7 7.4-26.1 21.6-26.1H393.6c14.2 0 25.5 12.4 21.6 26.1c-8.2 29.4-24.9 55.4-47.2 75.4V432c0 23.2-7.1 44.8-19.1 62.6C444.3 457.5 512 364.6 512 256C512 114.6 397.4 0 256 0S0 114.6 0 256zM192 104v9.8c4.6 .8 8.7 1.8 12.1 2.7c8.5 2.3 13.6 11 11.3 19.6s-11 13.6-19.6 11.3c-8.3-2.2-18.8-4-27-3.2c-4 .4-6.1 1.4-7.1 2.1c-2.6 1.9-2.6 5.6-.2 7.2c6.9 4.8 15 6.9 23.3 9.1c8.3 2.2 16.7 4.4 23.9 9.4c4.8 3.3 9.5 8 12.4 14.6c3 6.6 3.5 13.9 2.2 21.2c-2 11.5-7.9 20.4-17 25.9c-4.6 2.8-9.5 4.4-14.4 5.2V248c0 8.8-7.2 16-16 16s-16-7.2-16-16V237.2c-8.4-1.9-16-4.4-21.1-6c-8.4-2.8-12.9-11.9-10.1-20.2s11.9-12.9 20.2-10.1c9.5 3.1 21.9 6.9 32 7.1c5 .1 7.6-.8 8.8-1.5l0 0c2.8-1.7 3.2-6.2 .6-8c-3.5-2.4-9.3-4.3-18.8-7l-1.1-.3c-7.9-2.2-18.8-5.4-27.2-11.2c-4.8-3.3-9.5-8-12.4-14.6c-3-6.6-3.5-13.9-2.2-21.2c1.8-10.2 6.9-18.2 14.4-23.6c5.3-3.9 11.3-6 17-7.1V104c0-8.8 7.2-16 16-16s16 7.2 16 16zM336 88c8.8 0 16 7.2 16 16v9.8c4.6 .8 8.7 1.8 12.1 2.7c8.5 2.3 13.6 11 11.3 19.6s-11 13.6-19.6 11.3c-8.3-2.2-18.8-4-27-3.2c-4 .4-6.1 1.4-7.1 2.1c-2.6 1.9-2.6 5.6-.2 7.2c6.9 4.8 15 6.9 23.3 9.1c8.3 2.2 16.7 4.4 23.9 9.4c4.8 3.3 9.5 8 12.4 14.6c3 6.6 3.5 13.9 2.2 21.2c-2 11.5-7.9 20.4-17 25.9c-4.6 2.8-9.5 4.4-14.4 5.2V248c0 8.8-7.2 16-16 16s-16-7.2-16-16V237.2c-8.4-1.9-16-4.4-21.1-6c-8.4-2.8-12.9-11.9-10.1-20.2s11.9-12.9 20.2-10.1c9.5 3.1 21.9 6.9 32 7.1c5 .1 7.6-.8 8.8-1.5l0 0c2.8-1.7 3.2-6.2 .6-8c-3.5-2.4-9.3-4.3-18.8-7l-1.1-.3c-7.9-2.2-18.8-5.4-27.2-11.2c-4.8-3.3-9.5-8-12.4-14.6c-3-6.6-3.5-13.9-2.2-21.2c1.8-10.2 6.9-18.2 14.4-23.6c5.3-3.9 11.3-6 17-7.1V104c0-8.8 7.2-16 16-16zm0 264H176v80c0 44.2 35.8 80 80 80s80-35.8 80-80V352zm-80 16c5.9 0 10.7 4.9 10.7 10.9v6.7c3 .6 5.8 1.2 8.1 1.8c5.7 1.6 9.1 7.5 7.6 13.3s-7.4 9.3-13 7.7c-5.5-1.5-12.6-2.8-18-2.2c-2.7 .3-4.1 .9-4.7 1.4c-1.7 1.3-1.7 3.8-.2 4.9c4.6 3.3 10 4.7 15.5 6.2c5.6 1.5 11.2 3 15.9 6.4c3.2 2.3 6.3 5.5 8.3 9.9c2 4.5 2.3 9.4 1.5 14.4c-1.3 7.8-5.3 13.9-11.3 17.7c-3.1 1.9-6.4 3-9.6 3.6v6.1c0 6-4.8 10.9-10.7 10.9s-10.7-4.9-10.7-10.9v-7.3c-5.6-1.3-10.7-3-14-4.1c-5.6-1.9-8.6-8.1-6.8-13.8s7.9-8.8 13.5-6.9c6.3 2.1 14.6 4.7 21.3 4.8c3.3 .1 5.1-.5 5.9-1c1.8-1.1 2.1-4.3 .4-5.5c-2.3-1.7-6.2-2.9-12.6-4.8l-.8-.2c-5.2-1.5-12.6-3.7-18.1-7.6c-3.2-2.3-6.3-5.5-8.3-9.9c-2-4.5-2.3-9.4-1.5-14.4c1.2-6.9 4.6-12.4 9.6-16.1c3.6-2.6 7.5-4.1 11.3-4.9v-6.4c0-6 4.8-10.9 10.7-10.9z"/></svg>