<svg xmlns="http://www.w3.org/2000/svg" viewBox="0 0 512 512"><!--! Font Awesome Pro 6.5.2 by @fontawesome - https://fontawesome.com License - https://fontawesome.com/license (Commercial License) Copyright 2024 Fonticons, Inc. --><path d="M256 512A256 256 0 1 0 256 0a256 256 0 1 0 0 512zm60.1-117.3c-11.7-13-31.6-26.7-60.1-26.7s-48.4 13.7-60.1 26.7c-5.9 6.6-16 7.1-22.6 1.2s-7.1-16-1.2-22.6C188.2 355.4 216.3 336 256 336s67.8 19.4 83.9 37.3c5.9 6.6 5.4 16.7-1.2 22.6s-16.7 5.4-22.6-1.2zM112 192h64c17.7 0 32 14.3 32 32s-14.3 32-32 32s-32-14.3-32-32H112c-8.8 0-16-7.2-16-16s7.2-16 16-16zm176 16c0-8.8 7.2-16 16-16h64c17.7 0 32 14.3 32 32s-14.3 32-32 32s-32-14.3-32-32H304c-8.8 0-16-7.2-16-16z"/></svg>