<svg xmlns="http://www.w3.org/2000/svg" viewBox="0 0 512 512"><!--! Font Awesome Pro 6.5.2 by @fontawesome - https://fontawesome.com License - https://fontawesome.com/license (Commercial License) Copyright 2024 Fonticons, Inc. --><path d="M512 256c0-46.6-12.5-90.3-34.2-128H432c-19.4 0-36.9-11.7-44.3-29.6c-7.1-17.1-3.7-36.7 8.6-50.4c-2.9-3.2-5.4-6.9-7.3-10.8C350.2 13.6 304.7 0 256 0C114.6 0 0 114.6 0 256S114.6 512 256 512s256-114.6 256-256zM272 96c-8.8 0-16-7.2-16-16s7.2-16 16-16h64c6.5 0 12.3 3.9 14.8 9.9s1.1 12.9-3.5 17.4L310.6 128H336c8.8 0 16 7.2 16 16s-7.2 16-16 16H272c-6.5 0-12.3-3.9-14.8-9.9s-1.1-12.9 3.5-17.4L297.4 96H272zM216 384a40 40 0 1 1 80 0 40 40 0 1 1 -80 0zM387.2 238.4c5.3-7.1 15.3-8.5 22.4-3.2s8.5 15.3 3.2 22.4c-30.4 40.5-91.2 40.5-121.6 0c-5.3-7.1-3.9-17.1 3.2-22.4s17.1-3.9 22.4 3.2c17.6 23.5 52.8 23.5 70.4 0zm-262.4 0c17.6 23.5 52.8 23.5 70.4 0c5.3-7.1 15.3-8.5 22.4-3.2s8.5 15.3 3.2 22.4c-30.4 40.5-91.2 40.5-121.6 0c-5.3-7.1-3.9-17.1 3.2-22.4s17.1-3.9 22.4 3.2zM416 16c0 8.8 7.2 16 16 16h25.4L420.7 68.7c-4.6 4.6-5.9 11.5-3.5 17.4s8.3 9.9 14.8 9.9h64c8.8 0 16-7.2 16-16s-7.2-16-16-16H470.6l36.7-36.7c4.6-4.6 5.9-11.5 3.5-17.4S502.5 0 496 0H432c-8.8 0-16 7.2-16 16z"/></svg>