<svg xmlns="http://www.w3.org/2000/svg" viewBox="0 0 512 512"><!--! Font Awesome Pro 6.5.1 by @fontawesome - https://fontawesome.com License - https://fontawesome.com/license (Commercial License) Copyright 2023 Fonticons, Inc. --><path d="M256 512A256 256 0 1 0 256 0a256 256 0 1 0 0 512zM176.4 224a32 32 0 1 1 0 64 32 32 0 1 1 0-64zm128 32a32 32 0 1 1 64 0 32 32 0 1 1 -64 0zM179 160.9c-21.2 2.8-40.6 12.4-56.1 26.8c-6.5 6-16.6 5.7-22.6-.8s-5.7-16.6 .8-22.6c20.1-18.7 45.5-31.5 73.7-35.2c5.6-.7 11.4-1.1 17.2-1.1c8.8 0 16 7.2 16 16s-7.2 16-16 16c-4.4 0-8.8 .3-13 .9zm141-.9c-8.8 0-16-7.2-16-16s7.2-16 16-16c5.8 0 11.6 .4 17.2 1.1c28.2 3.7 53.7 16.4 73.7 35.2c6.5 6 6.8 16.2 .8 22.6s-16.2 6.8-22.6 .8c-15.5-14.5-34.8-24-56.1-26.8c-4.3-.6-8.6-.9-13-.9zM256 336a48 48 0 1 1 0 96 48 48 0 1 1 0-96z"/></svg>