<svg xmlns="http://www.w3.org/2000/svg" viewBox="0 0 576 512"><!--! Font Awesome Pro 6.5.1 by @fontawesome - https://fontawesome.com License - https://fontawesome.com/license (Commercial License) Copyright 2023 Fonticons, Inc. --><path d="M166.6 162.5c5.9 7.1 8 16.7 5.7 25.7c-.3 1.3-.6 2.6-.7 3.9c17.2 .6 33.9 8.6 45.1 22.8c28.3 .2 52.1 20.3 58.1 47.4c4.8 2.4 9.2 5.4 13.1 8.8c3.9-3.4 8.3-6.4 13.1-8.8c6-27.1 29.8-47.1 58.1-47.4c17.3-21.9 47.4-29.2 72.8-17c1.5-.7 3-1.4 4.5-1.9c.1-2.6-.2-5.2-.9-7.8c-2.3-9-.1-18.6 5.7-25.7c8.8-10.7 8.8-26.3 0-37c-5.9-7.1-8-16.7-5.7-25.7c3.4-13.5-3.2-27.6-15.7-33.3c-8.3-3.8-14.3-11.5-16.1-20.6c-2.7-13.7-14.6-23.5-28.3-23.1c-9.1 .3-17.8-4-23.2-11.4C344 .3 329.1-3.2 316.9 3.2c-8.1 4.3-17.7 4.3-25.8 0C278.9-3.2 264 .3 255.8 11.4c-5.5 7.4-14.1 11.7-23.2 11.4c-13.7-.4-25.7 9.4-28.3 23.1c-1.8 9.1-7.8 16.8-16.1 20.6c-12.5 5.7-19.2 19.8-15.7 33.3c2.3 9 .1 18.6-5.7 25.7c-8.8 10.7-8.8 26.3 0 37zm48.8 84.4c-3.6 .1-7.2-.5-10.5-1.8c-5-1.9-9.4-5.2-12.7-9.6c-8.2-11.2-23.2-14.6-35.3-8.2c-8.1 4.3-17.7 4.3-25.8 0c-12.2-6.4-27.1-2.9-35.3 8.2c-5.5 7.4-14.1 11.7-23.2 11.4c-13.7-.4-25.7 9.4-28.3 23.1c-1.8 9.1-7.8 16.8-16.1 20.6c-12.5 5.7-19.2 19.8-15.7 33.3c2.3 9 .1 18.6-5.7 25.7c-8.8 10.7-8.8 26.3 0 37c5.9 7.1 8 16.7 5.7 25.7c-3.4 13.5 3.2 27.6 15.7 33.3c8.3 3.8 14.3 11.5 16.1 20.6c2.7 13.7 14.6 23.5 28.3 23.1c9.1-.3 17.8 4 23.2 11.4c8.2 11.2 23.2 14.6 35.3 8.2c8.1-4.3 17.7-4.3 25.8 0c12.2 6.4 27.1 2.9 35.3-8.2c5.5-7.4 14.1-11.7 23.2-11.4c13.7 .4 25.7-9.4 28.3-23.1c1.8-9.1 7.8-16.8 16.1-20.6c4.1-1.9 7.6-4.7 10.3-8.1c-3.1-10.1-3.7-21-1.2-31.7c-17.3-22.1-17.3-53.3 0-75.4c-2.4-10.7-1.9-21.7 1.2-31.7c-2.7-3.4-6.2-6.2-10.3-8.1c-8.3-3.8-14.3-11.5-16.1-20.6c-.2-1-.5-2-.8-3c-3.7-12.1-14.9-20.4-27.6-20.1zM224 144a16 16 0 1 1 32 0 16 16 0 1 1 -32 0zM80 352a16 16 0 1 1 0 32 16 16 0 1 1 0-32zm48 16a16 16 0 1 1 32 0 16 16 0 1 1 -32 0zm-16 48a16 16 0 1 1 0 32 16 16 0 1 1 0-32zm453.4-42.6c4.1-4.1 7-9.2 8.7-14.9c0-.2 .1-.3 .1-.5c7-25-7.6-62.8-38.6-93.7c-23.3-23.3-50.5-37.4-73.1-39.9c0 0 0 0 0 0c-2-.2-3.9-.4-5.8-.4c0 0 0 0 0 0c-9.6-.2-18.3 1.8-25.1 6.4c0 0 0 0 0 0c0 0-.1 0-.1 .1c-1.6 1.1-3.1 2.3-4.5 3.6c-.2 .2-.3 .3-.5 .5c-19.2 19.2-11.4 59 16.6 94.3c4 5 8.4 10 13.2 14.8c38.4 38.4 87.2 51.7 109.1 29.8zM508.6 412c-26-7.1-52.6-23.3-74.9-45.7s-38.6-48.9-45.7-74.9c-5.3-19.6-6.4-43.3 4.2-63.6c-3.2 1.9-6.1 4.4-8.4 7.6c-5.5 7.4-14.1 11.7-23.2 11.4c-13.7-.4-25.7 9.4-28.3 23.1c-1.8 9.1-7.8 16.8-16.1 20.6c-12.5 5.7-19.2 19.8-15.7 33.3c2.3 9 .1 18.6-5.7 25.7c-8.8 10.7-8.8 26.3 0 37c5.9 7.1 8 16.7 5.7 25.7c-3.4 13.5 3.2 27.6 15.7 33.3c8.3 3.8 14.3 11.5 16.1 20.6c2.7 13.7 14.6 23.5 28.3 23.1c9.1-.3 17.8 4 23.2 11.4c8.2 11.2 23.2 14.6 35.3 8.2c8.1-4.3 17.7-4.3 25.8 0c12.2 6.4 27.1 2.9 35.3-8.2c5.5-7.4 14.1-11.7 23.2-11.4c13.7 .4 25.7-9.4 28.3-23.1c1.8-9.1 7.8-16.8 16.1-20.6c12.5-5.7 19.2-19.8 15.7-33.3l-.1-.6c-18.1 6.4-38 5-54.9 .4zM368 352a16 16 0 1 1 0 32 16 16 0 1 1 0-32zm16 80a16 16 0 1 1 32 0 16 16 0 1 1 -32 0z"/></svg>