<svg xmlns="http://www.w3.org/2000/svg" viewBox="0 0 576 512"><!--! Font Awesome Pro 6.5.1 by @fontawesome - https://fontawesome.com License - https://fontawesome.com/license (Commercial License) Copyright 2023 Fonticons, Inc. --><path d="M0 96C0 43 43 0 96 0s96 43 96 96H0zm181.4 32L132.8 246c-3.2 7.7-4.8 16-4.8 24.4V480c0 11.7 3.1 22.6 8.6 32H48c-26.5 0-48-21.5-48-48V128H181.4zM160 480V270.3c0-4.2 .8-8.3 2.4-12.2l48.9-118.7c3-7.4 8.7-13.3 15.9-16.7L354.3 62.5c8.7-4.1 18.7-4.1 27.4 0l127.1 60.2c7.2 3.4 12.9 9.4 15.9 16.7l48.9 118.7c1.6 3.9 2.4 8 2.4 12.2V480c0 17.7-14.3 32-32 32H432V448c0-26.5-21.5-48-48-48H352c-26.5 0-48 21.5-48 48v64H192c-17.7 0-32-14.3-32-32zM320 248v48c0 13.3 10.7 24 24 24h48c13.3 0 24-10.7 24-24V248c0-13.3-10.7-24-24-24H344c-13.3 0-24 10.7-24 24z"/></svg>