<svg xmlns="http://www.w3.org/2000/svg" viewBox="0 0 512 512"><!--! Font Awesome Pro 6.5.2 by @fontawesome - https://fontawesome.com License - https://fontawesome.com/license (Commercial License) Copyright 2024 Fonticons, Inc. --><path d="M491.2 8.5c21.8 15.1 27.3 45 12.2 66.8l-52.2 75.5L371.3 97.5l53.1-76.8c15.1-21.8 45-27.3 66.8-12.2zM353.1 123.9L433 177.2 241 454.9c-24.6 35.5-64.9 56.8-108.1 56.9C59.5 512 .1 452.3 .6 378.9l0-2.2c.2-25.7 7.8-50.8 21.8-72.4l17.3-26.5c14.5-22.2 44.2-28.4 66.4-13.9s28.4 44.2 13.9 66.4l-17.3 26.5c-4 6.1-6.2 13.3-6.2 20.6l0 2.2c-.1 20 16 36.2 36 36.1c11.7 0 22.7-5.8 29.4-15.5L353.1 123.9zM432 352a80 80 0 1 1 0 160 80 80 0 1 1 0-160z"/></svg>