<svg xmlns="http://www.w3.org/2000/svg" viewBox="0 0 384 512"><!--! Font Awesome Pro 6.5.1 by @fontawesome - https://fontawesome.com License - https://fontawesome.com/license (Commercial License) Copyright 2023 Fonticons, Inc. --><path d="M224 32v4c45 11.6 80.4 47 92 92h12c13.3 0 24 10.7 24 24s-10.7 24-24 24H56c-13.3 0-24-10.7-24-24s10.7-24 24-24H68c11.6-45 47-80.4 92-92V32c0-17.7 14.3-32 32-32s32 14.3 32 32zM32 488c0-13.3 10.7-24 24-24h8V400H48c-17.7 0-32-14.3-32-32V304c0-17.7 14.3-32 32-32H64V208H320v64h16c17.7 0 32 14.3 32 32v64c0 17.7-14.3 32-32 32H320v64h8c13.3 0 24 10.7 24 24s-10.7 24-24 24h-8H64 56c-13.3 0-24-10.7-24-24zm160-88a64 64 0 1 0 0-128 64 64 0 1 0 0 128z"/></svg>