<svg xmlns="http://www.w3.org/2000/svg" viewBox="0 0 640 512"><!--! Font Awesome Pro 6.5.2 by @fontawesome - https://fontawesome.com License - https://fontawesome.com/license (Commercial License) Copyright 2024 Fonticons, Inc. --><path d="M0 32V64C0 81.7 14.3 96 32 96H608c17.7 0 32-14.3 32-32V32c0-17.7-14.3-32-32-32H32C14.3 0 0 14.3 0 32zm608 96H32V480c0 17.7 14.3 32 32 32h96V352c0-88.4 71.6-160 160-160s160 71.6 160 160V512h96c17.7 0 32-14.3 32-32V128zM320 512c61.9 0 112-50.1 112-112c0-22.3-10.9-58.8-52.1-99.7c-8.2-8.2-21.4-7.5-29.6 .7l-7.9 7.9-32.2-32.2c-4.2-4.2-9.8-6.5-15.4-6.4c-4.1 0-8.2 1.4-11.7 4.1C251.7 298.8 208 346.4 208 400c0 61.9 50.1 112 112 112zm44.8-78.3c0 24.7-20.1 44.8-44.8 44.8s-44.8-20.1-44.8-44.8c0-25.6 25.9-51.1 38.3-61.9c3.8-3.3 9.2-3.3 12.9 0c12.4 10.8 38.3 36.3 38.3 61.9z"/></svg>