<svg xmlns="http://www.w3.org/2000/svg" viewBox="0 0 576 512"><!--! Font Awesome Pro 6.5.1 by @fontawesome - https://fontawesome.com License - https://fontawesome.com/license (Commercial License) Copyright 2023 Fonticons, Inc. --><path d="M87.1 148.2c5.6 4.6 8.9 11.4 8.9 18.7V208h0v24h40V160c0-13.3 10.7-24 24-24s24 10.7 24 24v72h48V160c0-13.3 10.7-24 24-24s24 10.7 24 24v72h48V160c0-13.3 10.7-24 24-24s24 10.7 24 24v72h40V130.9c0-16.9 17.1-28.4 31.8-20c16 9.1 30.6 19.7 43.7 30.7c39.1 33 66.9 72.4 81 99.8c4.7 9.2 4.7 20.1 0 29.3c-14.1 27.4-41.9 66.8-81 99.8c-13.1 11-27.7 21.6-43.7 30.7c-14.7 8.4-31.8-3.1-31.8-20V280H376v72c0 13.3-10.7 24-24 24s-24-10.7-24-24V280H280v72c0 13.3-10.7 24-24 24s-24-10.7-24-24V280H184v72c0 13.3-10.7 24-24 24s-24-10.7-24-24V280H96v24h0v41.1c0 7.2-3.3 14.1-8.9 18.7l-48 38.9c-8.8 7.1-21.3 7.1-30.1 .1s-11.5-19.2-6.6-29.3L54.9 266.6c3.3-6.7 3.3-14.5 0-21.2L2.5 138.6c-5-10.1-2.2-22.3 6.6-29.3s21.3-7 30.1 .1l48 38.9z"/></svg>