<svg xmlns="http://www.w3.org/2000/svg" viewBox="0 0 448 512"><!--! Font Awesome Pro 6.5.2 by @fontawesome - https://fontawesome.com License - https://fontawesome.com/license (Commercial License) Copyright 2024 Fonticons, Inc. --><path d="M295.9 48c-3 0-6 .4-8.8 1.2L209.8 71.3C137.7 91.9 88 157.8 88 232.8V288h8c17.7 0 32 14.3 32 32V480c0 17.7-14.3 32-32 32H32c-17.7 0-32-14.3-32-32V320c0-17.7 14.3-32 32-32h8V232.8c0-96.4 63.9-181.2 156.7-207.7L273.8 3.1C281 1 288.4 0 295.9 0C340.1 0 376 35.9 376 80.1V136c0 13.3-10.7 24-24 24s-24-10.7-24-24V80.1C328 62.4 313.6 48 295.9 48zM256 344c0-71.6 55.6-127.8 89-148.1c4.3-2.6 9.6-2.6 14 0c33.5 20.3 89 76.6 89 148.1c0 32-16 80-64 112l27.3 27.3c3 3 4.7 7.1 4.7 11.3V496c0 8.8-7.2 16-16 16H304c-8.8 0-16-7.2-16-16v-1.4c0-4.2 1.7-8.3 4.7-11.3L320 456c-48-32-64-80-64-112zm128-32a24 24 0 1 0 -48 0 24 24 0 1 0 48 0z"/></svg>