<svg xmlns="http://www.w3.org/2000/svg" viewBox="0 0 640 512"><!--! Font Awesome Pro 6.5.2 by @fontawesome - https://fontawesome.com License - https://fontawesome.com/license (Commercial License) Copyright 2024 Fonticons, Inc. --><path d="M576 416h32c17.7 0 32-14.3 32-32V128c0-17.7-14.3-32-32-32H576V416zM544 97.7C449.1 107.9 384 160 384 160H48c-26.5 0-48 21.5-48 48v96c0 26.5 21.5 48 48 48H384s65.1 52.1 160 62.3V97.7zM224 256c0-17.7 14.3-32 32-32h32c17.7 0 32 14.3 32 32s-14.3 32-32 32H256c-17.7 0-32-14.3-32-32z"/></svg>