<svg xmlns="http://www.w3.org/2000/svg" viewBox="0 0 512 512"><!--! Font Awesome Pro 6.5.1 by @fontawesome - https://fontawesome.com License - https://fontawesome.com/license (Commercial License) Copyright 2023 Fonticons, Inc. --><path d="M256 512A256 256 0 1 0 256 0a256 256 0 1 0 0 512zM363.3 171.3l-192 192c-6.2 6.2-16.4 6.2-22.6 0s-6.2-16.4 0-22.6l192-192c6.2-6.2 16.4-6.2 22.6 0s6.2 16.4 0 22.6zm-112-70.6c6.2 6.2 6.2 16.4 0 22.6l-128 128c-6.2 6.2-16.4 6.2-22.6 0s-6.2-16.4 0-22.6l128-128c6.2-6.2 16.4-6.2 22.6 0zm160 182.6l-128 128c-6.2 6.2-16.4 6.2-22.6 0s-6.2-16.4 0-22.6l128-128c6.2-6.2 16.4-6.2 22.6 0s6.2 16.4 0 22.6z"/></svg>