<svg xmlns="http://www.w3.org/2000/svg" viewBox="0 0 448 512"><!--! Font Awesome Pro 6.5.2 by @fontawesome - https://fontawesome.com License - https://fontawesome.com/license (Commercial License) Copyright 2024 Fonticons, Inc. --><path d="M128 480c38.2 0 72.5-16.8 96-43.3c23.5 26.6 57.8 43.3 96 43.3c70.7 0 128-57.3 128-128c0-38.2-16.8-72.5-43.3-96c26.6-23.5 43.3-57.8 43.3-96c0-70.7-57.3-128-128-128c-38.2 0-72.5 16.8-96 43.3C200.5 48.8 166.2 32 128 32C57.3 32 0 89.3 0 160c0 38.2 16.8 72.5 43.3 96C16.8 279.5 0 313.8 0 352c0 70.7 57.3 128 128 128zm96-304a80 80 0 1 1 0 160 80 80 0 1 1 0-160z"/></svg>