<svg xmlns="http://www.w3.org/2000/svg" viewBox="0 0 640 512"><!--! Font Awesome Pro 6.5.1 by @fontawesome - https://fontawesome.com License - https://fontawesome.com/license (Commercial License) Copyright 2023 Fonticons, Inc. --><path d="M48 160H96V352H48c-26.5 0-48-21.5-48-48V208c0-26.5 21.5-48 48-48zM592 352H128V160H592c26.5 0 48 21.5 48 48v96c0 26.5-21.5 48-48 48zM320 280a24 24 0 1 0 0-48 24 24 0 1 0 0 48zm120-24a24 24 0 1 0 -48 0 24 24 0 1 0 48 0zm72 24a24 24 0 1 0 0-48 24 24 0 1 0 0 48z"/></svg>