<svg xmlns="http://www.w3.org/2000/svg" viewBox="0 0 448 512"><!--! Font Awesome Pro 6.5.2 by @fontawesome - https://fontawesome.com License - https://fontawesome.com/license (Commercial License) Copyright 2024 Fonticons, Inc. --><path d="M0 96C0 60.7 28.7 32 64 32H384c35.3 0 64 28.7 64 64V416c0 35.3-28.7 64-64 64H64c-35.3 0-64-28.7-64-64V96zM148.7 237.3l-49-49c-15.6-15.6-15.6-40.9 0-56.6s40.9-15.6 56.6 0l49 49c1.8-6.6 2.7-13.6 2.7-20.7c0-44.2-35.8-80-80-80s-80 35.8-80 80s35.8 80 80 80c7.2 0 14.1-.9 20.7-2.7zM184 282.7c-23.9 13.8-40 39.7-40 69.3c0 44.2 35.8 80 80 80s80-35.8 80-80c0-29.6-16.1-55.5-40-69.3V352c0 22.1-17.9 40-40 40s-40-17.9-40-40V282.7zm115.3-45.4c6.6 1.8 13.6 2.7 20.7 2.7c44.2 0 80-35.8 80-80s-35.8-80-80-80s-80 35.8-80 80c0 7.2 .9 14.1 2.7 20.7l49-49c15.6-15.6 40.9-15.6 56.6 0s15.6 40.9 0 56.6l-49 49zm-160-88.6c-6.2-6.2-16.4-6.2-22.6 0s-6.2 16.4 0 22.6L208 262.6V352c0 8.8 7.2 16 16 16s16-7.2 16-16V262.6l91.3-91.3c6.2-6.2 6.2-16.4 0-22.6s-16.4-6.2-22.6 0L224 233.4l-84.7-84.7z"/></svg>