<svg xmlns="http://www.w3.org/2000/svg" viewBox="0 0 640 512"><!--! Font Awesome Pro 6.5.1 by @fontawesome - https://fontawesome.com License - https://fontawesome.com/license (Commercial License) Copyright 2023 Fonticons, Inc. --><path d="M119.7 456.3c-25.2-25.2-29.6-66.7-16.5-114.9c3.2 9.5 8.4 18.5 16.2 26.3c15.6 15.6 36 20.7 55 20.5c18.8-.1 38.8-5.3 58.2-13.3c39-16.1 82-46 121.2-85.1s69-82.2 85.1-121.2c8-19.4 13.2-39.4 13.3-58.2c.1-19-5-39.5-20.5-55c-7.8-7.8-16.8-13-26.3-16.2c48.2-13 89.8-8.6 114.9 16.6c55.3 55.3 10.5 189.8-100.2 300.5S175 511.6 119.7 456.3zM331.1 267.1C257.4 340.9 172.7 375.8 142 345s4.1-115.4 77.9-189.2S378.3 47.2 409 77.9s-4.1 115.4-77.9 189.2z"/></svg>