<svg xmlns="http://www.w3.org/2000/svg" viewBox="0 0 512 512"><!--! Font Awesome Pro 6.5.1 by @fontawesome - https://fontawesome.com License - https://fontawesome.com/license (Commercial License) Copyright 2023 Fonticons, Inc. --><path d="M319 39.8l-24 96c-2.9 11.5-11.6 20-22.2 23L264.5 192h-33l10.2-41c-7.9-7.7-11.7-19.3-8.8-30.8l24-96C261.2 7.1 278.6-3.3 295.8 1s27.6 21.7 23.3 38.8zm62.9 120.2L360.6 192H322.1l33.2-49.8c-4.9-9.9-4.5-22.1 2.1-31.9l64-96C431.2-.5 451-4.4 465.8 5.4s18.7 29.7 8.9 44.4l-64 96c-6.6 9.9-17.7 14.9-28.7 14.2zM32 224H64v16 64c0 8.8 7.2 16 16 16s16-7.2 16-16V272c0-8.8 7.2-16 16-16s16 7.2 16 16s7.2 16 16 16s16-7.2 16-16V240 224H384h64 32c17.7 0 32 14.3 32 32s-14.3 32-32 32H448v32c0 52.3-25.1 98.8-64 128v32c0 17.7-14.3 32-32 32s-32-14.3-32-32v-3.2c-10.3 2.1-21 3.2-32 3.2H160c-11 0-21.7-1.1-32-3.2V480c0 17.7-14.3 32-32 32s-32-14.3-32-32V448C25.1 418.8 0 372.3 0 320V256c0-17.7 14.3-32 32-32z"/></svg>