<svg xmlns="http://www.w3.org/2000/svg" viewBox="0 0 640 512"><!--! Font Awesome Pro 6.5.2 by @fontawesome - https://fontawesome.com License - https://fontawesome.com/license (Commercial License) Copyright 2024 Fonticons, Inc. --><path d="M206 52.8C201.3 40.3 189.3 32 176 32s-25.3 8.3-30 20.8L2 436.8c-6.2 16.5 2.2 35 18.7 41.2s35-2.2 41.2-18.7L96.2 368H255.8L290 459.2c6.2 16.5 24.7 24.9 41.2 18.7s24.9-24.6 18.7-41.2L206 52.8zM231.8 304H120.2L176 155.1 231.8 304zM608 160c-13 0-24.1 7.7-29.2 18.8C559.4 166.9 536.5 160 512 160c-70.7 0-128 57.3-128 128v64c0 70.7 57.3 128 128 128c24.5 0 47.4-6.9 66.8-18.8c5 11.1 16.2 18.8 29.2 18.8c17.7 0 32-14.3 32-32V352 288 192c0-17.7-14.3-32-32-32zM576 288v64c0 35.3-28.7 64-64 64s-64-28.7-64-64V288c0-35.3 28.7-64 64-64s64 28.7 64 64z"/></svg>