<svg xmlns="http://www.w3.org/2000/svg" viewBox="0 0 512 512"><!--! Font Awesome Pro 6.5.2 by @fontawesome - https://fontawesome.com License - https://fontawesome.com/license (Commercial License) Copyright 2024 Fonticons, Inc. --><path d="M488.1 194.9c4.5 17.1-8.2 33.1-25.7 35.3L340.3 245.5l14 74.5H464c26.5 0 48 21.5 48 48v32 50.4c0 25.2-20.4 45.6-45.6 45.6h-17c-54.9 0-102-39.1-112.1-93.1L327.7 352H288l9.2 18.3c4.5 9 6.8 18.9 6.8 28.9c0 35.7-29 64.7-64.7 64.7h-1.7c-9 0-17.9-1.8-26.1-5.4l-93.4-40c-4-1.7-8.3-2.6-12.6-2.6h-14c-9.1 0-17.9-3.8-23.5-10.9C35.4 364.1 16 312.3 16 256C16 123.5 123.5 16 256 16c111.4 0 205.1 75.9 232.1 178.9zm-207.1 58c-14.3 1.8-25.1 14-25.1 28.4c0 4.4 1 8.8 3 12.8l13 26h49.7l-13.2-70.6-27.4 3.4zM360.3 352l6 32H480V368c0-8.8-7.2-16-16-16H360.3zM480 416H374.7c13.1 28.7 42 48 74.7 48h17c7.5 0 13.6-6.1 13.6-13.6V416zM176 360a24 24 0 1 0 0-48 24 24 0 1 0 0 48z"/></svg>