<svg xmlns="http://www.w3.org/2000/svg" viewBox="0 0 576 512"><!--! Font Awesome Pro 6.5.1 by @fontawesome - https://fontawesome.com License - https://fontawesome.com/license (Commercial License) Copyright 2023 Fonticons, Inc. --><path d="M475.3 27.3c5.8-5.8 6.3-15.1 1.1-21.5S462-1.9 455.1 2.7l-106.5 71C320.8 92.3 304 123.6 304 157.1c0 19.3 5.5 37.9 15.7 53.9L73.4 457.4c-12.5 12.5-12.5 32.8 0 45.3s32.8 12.5 45.3 0L365 256.3c16 10.2 34.7 15.7 53.9 15.7c33.5 0 64.8-16.8 83.4-44.6l71-106.5c4.6-6.8 3.2-16-3.2-21.2s-15.6-4.8-21.5 1.1L457.4 192c-5.2 5.2-13.6 5.2-18.8 0c-4.9-4.9-5.2-12.8-.6-18.1l86.1-99.4c5.5-6.3 5.2-15.9-.8-21.8s-15.4-6.3-21.8-.8L402.1 138c-5.3 4.6-13.2 4.3-18.1-.6c-5.2-5.2-5.2-13.6 0-18.8l91.3-91.3zM52.5 7.3C47.9 2.6 41.5 0 34.9 0c-11.2 0-21 7.5-23.5 18.4C6.7 38.6 0 71.5 0 96c0 83.3 48.2 130.5 128.9 209.4c6.5 6.4 13.3 13 20.3 19.9c1.9 1.8 3.8 3.5 5.9 5.1L265.4 220.1 52.5 7.3zM457.4 502.6c12.5 12.5 32.8 12.5 45.3 0s12.5-32.8 0-45.3L355.9 310.6l-45.3 45.3L457.4 502.6z"/></svg>