<svg xmlns="http://www.w3.org/2000/svg" viewBox="0 0 640 512"><!--! Font Awesome Pro 6.5.2 by @fontawesome - https://fontawesome.com License - https://fontawesome.com/license (Commercial License) Copyright 2024 Fonticons, Inc. --><path d="M48 160H96V48c0-26.5 21.5-48 48-48H292.7c20.3 0 38.4 12.8 45.2 31.9l75.3 210.8c1.8 5.2 2.8 10.6 2.8 16.1v85.7c19.6 17.6 32 43.1 32 71.6c0 53-43 96-96 96s-96-43-96-96H192c0 53-43 96-96 96s-96-43-96-96V208c0-26.5 21.5-48 48-48zm208 96h94L281.4 64H160v96l96 96zM96 464a48 48 0 1 0 0-96 48 48 0 1 0 0 96zm256 0a48 48 0 1 0 0-96 48 48 0 1 0 0 96zM544 32V384h64c17.7 0 32 14.3 32 32s-14.3 32-32 32H512c-17.7 0-32-14.3-32-32V32c0-17.7 14.3-32 32-32s32 14.3 32 32z"/></svg>