<svg xmlns="http://www.w3.org/2000/svg" viewBox="0 0 448 512"><!--! Font Awesome Pro 6.5.1 by @fontawesome - https://fontawesome.com License - https://fontawesome.com/license (Commercial License) Copyright 2023 Fonticons, Inc. --><path d="M448 128c0-17.7-14.3-32-32-32l-32 0 0-32c0-17.7-14.3-32-32-32s-32 14.3-32 32l0 32L128 96l0-32c0-17.7-14.3-32-32-32S64 46.3 64 64l0 32L32 96C14.3 96 0 110.3 0 128s14.3 32 32 32l32 0 0 192-32 0c-17.7 0-32 14.3-32 32s14.3 32 32 32l32 0 0 32c0 17.7 14.3 32 32 32s32-14.3 32-32l0-32 192 0 0 32c0 17.7 14.3 32 32 32s32-14.3 32-32l0-32 32 0c17.7 0 32-14.3 32-32s-14.3-32-32-32l-32 0 0-192 32 0c17.7 0 32-14.3 32-32zM128 352l0-192 192 0 0 192-192 0z"/></svg>