<svg xmlns="http://www.w3.org/2000/svg" viewBox="0 0 640 512"><!--! Font Awesome Pro 6.5.1 by @fontawesome - https://fontawesome.com License - https://fontawesome.com/license (Commercial License) Copyright 2023 Fonticons, Inc. --><path d="M64 96c0-53 43-96 96-96h32c17.7 0 32 14.3 32 32s-14.3 32-32 32H160c-17.7 0-32 14.3-32 32v96h32c17.7 0 32 14.3 32 32s-14.3 32-32 32H128V383.5c0 48.4-36.1 89.3-84.1 95.3l-7.9 1C18.4 481.9 2.4 469.5 .2 452s10.2-33.5 27.8-35.7l7.9-1c16-2 28-15.6 28-31.8V256H32c-17.7 0-32-14.3-32-32s14.3-32 32-32H64V96zm266.7 81.7C303.7 218.4 288 267.3 288 320s15.7 101.6 42.7 142.3c9.8 14.7 5.7 34.6-9 44.3s-34.6 5.7-44.3-9C243.6 446.7 224 385.6 224 320s19.6-126.7 53.3-177.7c9.8-14.7 29.6-18.8 44.3-9s18.8 29.6 9 44.3zm202.6 0c-9.8-14.7-5.7-34.6 9-44.3s34.6-5.7 44.3 9C620.4 193.3 640 254.4 640 320s-19.6 126.7-53.3 177.7c-9.8 14.7-29.6 18.8-44.3 9s-18.8-29.6-9-44.3c27-40.7 42.7-89.6 42.7-142.3s-15.7-101.6-42.7-142.3zM398.6 241.4L432 274.7l33.4-33.4c12.5-12.5 32.8-12.5 45.3 0s12.5 32.8 0 45.3L477.3 320l33.4 33.4c12.5 12.5 12.5 32.8 0 45.3s-32.8 12.5-45.3 0L432 365.3l-33.4 33.4c-12.5 12.5-32.8 12.5-45.3 0s-12.5-32.8 0-45.3L386.7 320l-33.4-33.4c-12.5-12.5-12.5-32.8 0-45.3s32.8-12.5 45.3 0z"/></svg>