<svg xmlns="http://www.w3.org/2000/svg" viewBox="0 0 640 512"><!--! Font Awesome Pro 6.5.1 by @fontawesome - https://fontawesome.com License - https://fontawesome.com/license (Commercial License) Copyright 2023 Fonticons, Inc. --><path d="M0 369.4v2.8C0 431.7 48.3 480 107.8 480c49.5 0 92.6-33.7 104.6-81.7L216 384H424l3.6 14.3c12 48 55.1 81.7 104.6 81.7C591.7 480 640 431.7 640 372.2v-2.8c0-6.3-.5-12.5-1.6-18.7L605.7 159.8c-8.6-50.2-40.9-93.2-90.3-105.5C469.5 42.9 403.8 32 320 32s-149.5 10.9-195.3 22.3C75.2 66.6 42.9 109.6 34.3 159.8L1.6 350.7C.5 356.9 0 363.1 0 369.4zM432 232a40 40 0 1 1 0 80 40 40 0 1 1 0-80zm24-56a40 40 0 1 1 80 0 40 40 0 1 1 -80 0zm-240-8v32h32c13.3 0 24 10.7 24 24s-10.7 24-24 24H216v32c0 13.3-10.7 24-24 24s-24-10.7-24-24V248H136c-13.3 0-24-10.7-24-24s10.7-24 24-24h32V168c0-13.3 10.7-24 24-24s24 10.7 24 24z"/></svg>