<svg xmlns="http://www.w3.org/2000/svg" viewBox="0 0 640 512"><!--! Font Awesome Pro 6.5.2 by @fontawesome - https://fontawesome.com License - https://fontawesome.com/license (Commercial License) Copyright 2024 Fonticons, Inc. --><path d="M0 488V171.3c0-26.2 15.9-49.7 40.2-59.4L308.1 4.8c7.6-3.1 16.1-3.1 23.8 0L599.8 111.9c24.3 9.7 40.2 33.3 40.2 59.4V488c0 13.3-10.7 24-24 24H568c-13.3 0-24-10.7-24-24V224c0-17.7-14.3-32-32-32H128c-17.7 0-32 14.3-32 32V488c0 13.3-10.7 24-24 24H24c-13.3 0-24-10.7-24-24zM254.3 293.4L242.2 328H397.8l-12.1-34.6c-1.1-3.2-4.2-5.4-7.6-5.4H261.8c-3.4 0-6.4 2.2-7.6 5.4zM188.9 335L209 277.5c7.9-22.5 29.1-37.5 52.9-37.5H378.2c23.8 0 45 15.1 52.9 37.5L451.1 335c17.2 9.5 28.9 27.9 28.9 49v96c0 17.7-14.3 32-32 32s-32-14.3-32-32V464H224v16c0 17.7-14.3 32-32 32s-32-14.3-32-32V384c0-21.1 11.7-39.5 28.9-49zM240 424a24 24 0 1 0 0-48 24 24 0 1 0 0 48zm184-24a24 24 0 1 0 -48 0 24 24 0 1 0 48 0z"/></svg>