<svg xmlns="http://www.w3.org/2000/svg" viewBox="0 0 448 512"><!--! Font Awesome Pro 6.5.2 by @fontawesome - https://fontawesome.com License - https://fontawesome.com/license (Commercial License) Copyright 2024 Fonticons, Inc. --><path d="M296.9 158.5c-5.2 6-1.2 17.5 6.7 17.5H368c35.3 0 64 28.7 64 64s-28.7 64-64 64H347.1c-19 0-29.4 22.2-17.2 36.7L385.2 407c22.6 27.2 19 67.5-8.2 90.1s-67.5 19-90.1-8.2l-45.6-54.8c-9-10.7-25.5-10.7-34.4 0L161.2 489c-22.6 27.2-63 30.8-90.1 8.2s-30.8-63-8.2-90.1l55.2-66.3c12.2-14.6 1.8-36.7-17.2-36.7H80c-35.3 0-64-28.7-64-64s28.7-64 64-64h64.4c7.9 0 11.9-11.5 6.7-17.5C136.7 141.7 128 119.9 128 96c0-53 43-96 96-96s96 43 96 96c0 23.9-8.7 45.7-23.1 62.5zM192 96a16 16 0 1 0 0-32 16 16 0 1 0 0 32zm80-16a16 16 0 1 0 -32 0 16 16 0 1 0 32 0zM224 240a16 16 0 1 0 0-32 16 16 0 1 0 0 32zm16 112a16 16 0 1 0 -32 0 16 16 0 1 0 32 0zm-16-48a16 16 0 1 0 0-32 16 16 0 1 0 0 32z"/></svg>