<svg xmlns="http://www.w3.org/2000/svg" viewBox="0 0 512 512"><!--! Font Awesome Pro 6.5.2 by @fontawesome - https://fontawesome.com License - https://fontawesome.com/license (Commercial License) Copyright 2024 Fonticons, Inc. --><path d="M448 144c0-44.2-35.8-80-80-80c-26.2 0-49.4 12.6-64 32H232.2C252 40.1 305.3 0 368 0c79.5 0 144 64.5 144 144c0 78.4-62.6 142.1-140.5 144l6.5-64.6c39.5-4.9 70-38.6 70-79.4zM249.3 224l-.1 1.3-.9-1.3h1zM8.3 138.5C14.3 131.8 23 128 32 128H320c9 0 17.7 3.8 23.7 10.5s9 15.7 8.1 24.7L322.7 454.4C319.5 487.1 291.9 512 259 512H93c-32.9 0-60.4-24.9-63.7-57.6L.2 163.2c-.9-9 2-18 8.1-24.7zM67.4 192l6.4 64H278.2l6.4-64H67.4z"/></svg>