<svg xmlns="http://www.w3.org/2000/svg" viewBox="0 0 448 512"><!--! Font Awesome Pro 6.5.1 by @fontawesome - https://fontawesome.com License - https://fontawesome.com/license (Commercial License) Copyright 2023 Fonticons, Inc. --><path d="M448 224c0 62.7-25.7 119.3-67.2 160H256V352h64c6.5 0 12.3-3.9 14.8-9.9s1.1-12.9-3.5-17.4L262.6 256H288c6.5 0 12.3-3.9 14.8-9.9s1.1-12.9-3.5-17.4l-64-64c-6.2-6.2-16.4-6.2-22.6 0l-64 64c-4.6 4.6-5.9 11.5-3.5 17.4s8.3 9.9 14.8 9.9h25.4l-68.7 68.7c-4.6 4.6-5.9 11.5-3.5 17.4s8.3 9.9 14.8 9.9h64v32H67.2C25.7 343.3 0 286.7 0 224C0 100.3 100.3 0 224 0S448 100.3 448 224zM256 80a16 16 0 1 0 -32 0 16 16 0 1 0 32 0zm80 112a16 16 0 1 0 0-32 16 16 0 1 0 0 32zM96 208a16 16 0 1 0 -32 0 16 16 0 1 0 32 0zM20.3 474.2L61.1 416H386.9l40.8 58.2c5.1 7.3 5.8 16.9 1.6 24.8S416.9 512 408 512H40c-8.9 0-17.2-5-21.3-12.9s-3.5-17.5 1.6-24.8z"/></svg>