<svg xmlns="http://www.w3.org/2000/svg" viewBox="0 0 640 512"><!--! Font Awesome Pro 6.5.2 by @fontawesome - https://fontawesome.com License - https://fontawesome.com/license (Commercial License) Copyright 2024 Fonticons, Inc. --><path d="M64 128c0-17.7 14.3-32 32-32H544c17.7 0 32 14.3 32 32V448c0 17.7 14.3 32 32 32s32-14.3 32-32V128c0-53-43-96-96-96H96C43 32 0 75 0 128V448c0 17.7 14.3 32 32 32s32-14.3 32-32V128zm112 0c-8.8 0-16 7.2-16 16v48H112c-8.8 0-16 7.2-16 16s7.2 16 16 16h48v64H112c-8.8 0-16 7.2-16 16s7.2 16 16 16h48v64H112c-8.8 0-16 7.2-16 16s7.2 16 16 16h48v48c0 8.8 7.2 16 16 16s16-7.2 16-16V416h64v48c0 8.8 7.2 16 16 16s16-7.2 16-16V416h64v48c0 8.8 7.2 16 16 16s16-7.2 16-16V416h64v48c0 8.8 7.2 16 16 16s16-7.2 16-16V416h48c8.8 0 16-7.2 16-16s-7.2-16-16-16H480V320h48c8.8 0 16-7.2 16-16s-7.2-16-16-16H480V224h48c8.8 0 16-7.2 16-16s-7.2-16-16-16H480V144c0-8.8-7.2-16-16-16s-16 7.2-16 16v48H384V144c0-8.8-7.2-16-16-16s-16 7.2-16 16v48H288V144c0-8.8-7.2-16-16-16s-16 7.2-16 16v48H192V144c0-8.8-7.2-16-16-16zm80 256H192V320h64v64zm96 0H288V320h64v64zm96 0H384V320h64v64zm0-96H384V224h64v64zm-96 0H288V224h64v64zm-96 0H192V224h64v64z"/></svg>