<svg xmlns="http://www.w3.org/2000/svg" viewBox="0 0 512 512"><!--! Font Awesome Pro 6.5.2 by @fontawesome - https://fontawesome.com License - https://fontawesome.com/license (Commercial License) Copyright 2024 Fonticons, Inc. --><path d="M162.7 2.5c-7.4-3.7-16.3-3.3-23.4 1.1S128 15.7 128 24V232c0 1.3 .1 2.7 .3 4c-.2 1.3-.3 2.6-.3 4v92.8C51.5 349.4 0 380.5 0 416c0 53 114.6 96 256 96s256-43 256-96s-114.6-96-256-96c-27.9 0-54.8 1.7-80 4.8V246.8l194.7-97.4c8.1-4.1 13.3-12.4 13.3-21.5s-5.1-17.4-13.3-21.5l-208-104zM288 416c0 17.7-28.7 32-64 32s-64-14.3-64-32s28.7-32 64-32s64 14.3 64 32z"/></svg>