<svg xmlns="http://www.w3.org/2000/svg" viewBox="0 0 384 512"><!--! Font Awesome Pro 6.5.2 by @fontawesome - https://fontawesome.com License - https://fontawesome.com/license (Commercial License) Copyright 2024 Fonticons, Inc. --><path d="M127 0c10.5-.4 20 6 23.6 15.9l0 .1 .3 .7c.3 .7 .7 1.7 1.3 3.2c1.2 2.9 3.2 7.3 6 12.8c5.7 11.1 14.8 27 28.2 45.1c26.9 36.2 71.4 81.5 141.3 116.8c17.3 8.7 31.6 22.9 40.1 40.4c5.4 10.9 8.2 23 8.2 35l0 .3 0 .3c0 45-36.5 81.4-81.4 81.4H184c-13.3 0-24-10.7-24-24s10.7-24 24-24l110 0c18.7 0 33.9-15.1 34-33.7c-.1-5.4-1.5-10.7-4.1-15.6c-3.1-4.9-7.7-7.8-12.4-8.6c-44.1-7.3-133.1-7.9-241.4 69.4c-.3 .2-.7 .5-1 .7c-2.7 1.8-5.6 2.9-8.7 3.5c-3.2 .6-6.6 .6-10-.2c-1.2-.3-2.4-.7-3.6-1.1c-.5-.2-1-.5-1.5-.7c-.9-.4-1.7-.9-2.5-1.5c-1.2-.8-2.2-1.6-3.2-2.6c-1.4-1.3-2.5-2.7-3.6-4.2c-1.8-2.8-3-5.8-3.6-8.9c-.6-3.1-.5-6.4 .2-9.6c.1-.3 .2-.7 .3-1L104.8 17.9C107.5 7.7 116.5 .4 127 0zM32 416c0-17.7 14.3-32 32-32H320c17.7 0 32 14.3 32 32v32c17.7 0 32 14.3 32 32s-14.3 32-32 32H32c-17.7 0-32-14.3-32-32s14.3-32 32-32V416z"/></svg>