<svg xmlns="http://www.w3.org/2000/svg" viewBox="0 0 512 512"><!--! Font Awesome Pro 6.5.2 by @fontawesome - https://fontawesome.com License - https://fontawesome.com/license (Commercial License) Copyright 2024 Fonticons, Inc. --><path d="M224 80c0-26.5-21.5-48-48-48H80C53.5 32 32 53.5 32 80v96c0 26.5 21.5 48 48 48h96c26.5 0 48-21.5 48-48V80zm0 256c0-26.5-21.5-48-48-48H80c-26.5 0-48 21.5-48 48v96c0 26.5 21.5 48 48 48h96c26.5 0 48-21.5 48-48V336zM288 80v96c0 26.5 21.5 48 48 48h96c26.5 0 48-21.5 48-48V80c0-26.5-21.5-48-48-48H336c-26.5 0-48 21.5-48 48zM480 336c0-26.5-21.5-48-48-48H336c-26.5 0-48 21.5-48 48v96c0 26.5 21.5 48 48 48h96c26.5 0 48-21.5 48-48V336z"/></svg>