<svg xmlns="http://www.w3.org/2000/svg" viewBox="0 0 448 512"><!--! Font Awesome Pro 6.5.2 by @fontawesome - https://fontawesome.com License - https://fontawesome.com/license (Commercial License) Copyright 2024 Fonticons, Inc. --><path d="M0 48c0-8.8 7.2-16 16-16H73.6c8.8 0 16 7.2 16 16v57.6c0 8.8-7.2 16-16 16H16c-8.8 0-16-7.2-16-16V48zM0 167.5c0-8.8 7.2-16 16-16H73.6c8.8 0 16 7.2 16 16v57.6c0 8.8-7.2 16-16 16H16c-8.8 0-16-7.2-16-16V167.5zM16 270.9H73.6c8.8 0 16 7.2 16 16v57.6c0 8.8-7.2 16-16 16H16c-8.8 0-16-7.2-16-16V286.9c0-8.8 7.2-16 16-16zM0 406.4c0-8.8 7.2-16 16-16H73.6c8.8 0 16 7.2 16 16V464c0 8.8-7.2 16-16 16H16c-8.8 0-16-7.2-16-16V406.4zM119.5 48c0-8.8 7.2-16 16-16h57.6c8.8 0 16 7.2 16 16v57.6c0 8.8-7.2 16-16 16H135.5c-8.8 0-16-7.2-16-16V48zm0 119.5c0-8.8 7.2-16 16-16h57.6c8.8 0 16 7.2 16 16v57.6c0 8.8-7.2 16-16 16H135.5c-8.8 0-16-7.2-16-16V167.5zm16 103.5h57.6c8.8 0 16 7.2 16 16v57.6c0 8.8-7.2 16-16 16H135.5c-8.8 0-16-7.2-16-16V286.9c0-8.8 7.2-16 16-16zm-16 135.5c0-8.8 7.2-16 16-16h57.6c8.8 0 16 7.2 16 16V464c0 8.8-7.2 16-16 16H135.5c-8.8 0-16-7.2-16-16V406.4zM254.9 32h57.6c8.8 0 16 7.2 16 16v57.6c0 8.8-7.2 16-16 16H254.9c-8.8 0-16-7.2-16-16V48c0-8.8 7.2-16 16-16zm0 119.5h57.6c8.8 0 16 7.2 16 16v57.6c0 8.8-7.2 16-16 16H254.9c-8.8 0-16-7.2-16-16V167.5c0-8.8 7.2-16 16-16zm-16 135.5c0-8.8 7.2-16 16-16h57.6c8.8 0 16 7.2 16 16v57.6c0 8.8-7.2 16-16 16H254.9c-8.8 0-16-7.2-16-16V286.9zm16 103.5h57.6c8.8 0 16 7.2 16 16V464c0 8.8-7.2 16-16 16H254.9c-8.8 0-16-7.2-16-16V406.4c0-8.8 7.2-16 16-16zM358.4 48c0-8.8 7.2-16 16-16H432c8.8 0 16 7.2 16 16v57.6c0 8.8-7.2 16-16 16H374.4c-8.8 0-16-7.2-16-16V48zm0 119.5c0-8.8 7.2-16 16-16H432c8.8 0 16 7.2 16 16v57.6c0 8.8-7.2 16-16 16H374.4c-8.8 0-16-7.2-16-16V167.5zm16 103.5H432c8.8 0 16 7.2 16 16v57.6c0 8.8-7.2 16-16 16H374.4c-8.8 0-16-7.2-16-16V286.9c0-8.8 7.2-16 16-16zm-16 135.5c0-8.8 7.2-16 16-16H432c8.8 0 16 7.2 16 16V464c0 8.8-7.2 16-16 16H374.4c-8.8 0-16-7.2-16-16V406.4z"/></svg>