<svg xmlns="http://www.w3.org/2000/svg" viewBox="0 0 448 512"><!--! Font Awesome Pro 6.5.1 by @fontawesome - https://fontawesome.com License - https://fontawesome.com/license (Commercial License) Copyright 2023 Fonticons, Inc. --><path d="M0 72C0 49.9 17.9 32 40 32H408c22.1 0 40 17.9 40 40V96c0 89.8-52.9 167.3-129.2 203l63.2 147.5c5.2 12.2-.4 26.3-12.6 31.5s-26.3-.4-31.5-12.6L316.7 416H160c0 35.3-28.7 64-64 64s-64-28.7-64-64s28.7-64 64-64c3.4 0 6.8 .3 10.1 .8L129.2 299C52.9 263.3 0 185.8 0 96V72zM151.8 368H296.2l-22.9-53.4c-15.9 3.6-32.3 5.4-49.3 5.4s-33.4-1.9-49.3-5.4L151.8 368zM96 440a24 24 0 1 0 0-48 24 24 0 1 0 0 48z"/></svg>