<svg xmlns="http://www.w3.org/2000/svg" viewBox="0 0 384 512"><!--! Font Awesome Pro 6.5.2 by @fontawesome - https://fontawesome.com License - https://fontawesome.com/license (Commercial License) Copyright 2024 Fonticons, Inc. --><path d="M192 0c17.7 0 32 14.3 32 32V50.8L347.3 32.4c9.2-1.4 18.6 1.3 25.6 7.4S384 54.7 384 64V256c0 9.3-4.1 18.2-11.1 24.2s-16.4 8.8-25.6 7.4L196.7 265.1c-3.1-.5-6.3-.5-9.5 0L36.7 287.6c-9.2 1.4-18.6-1.3-25.6-7.4S0 265.3 0 256V64c0-9.3 4.1-18.2 11.1-24.2s16.4-8.8 25.6-7.4L160 50.8V32c0-17.7 14.3-32 32-32zm0 296.7l32 4.8V480c0 17.7-14.3 32-32 32s-32-14.3-32-32V301.5l32-4.8z"/></svg>