<svg xmlns="http://www.w3.org/2000/svg" viewBox="0 0 384 512"><!--! Font Awesome Pro 6.5.2 by @fontawesome - https://fontawesome.com License - https://fontawesome.com/license (Commercial License) Copyright 2024 Fonticons, Inc. --><path d="M93 18.5l17.3 37.2L75 131.3 35 45.5c-7.5-16-.5-35.1 15.5-42.5s35.1-.5 42.5 15.5zM150.6 272l0 0H152c22.1 0 40 17.9 40 40s-17.9 40-40 40H96c-8.8 0-16 7.2-16 16s7.2 16 16 16h56c39.8 0 72-32.2 72-72l0-.6c9.4 5.4 20.3 8.6 32 8.6c13.2 0 25.4-4 35.6-10.8c8.7 24.9 32.5 42.8 60.4 42.8c11.7 0 22.6-3.1 32-8.6V352c0 88.4-71.6 160-160 160H162.3c-42.4 0-83.1-16.9-113.1-46.9L37.5 453.5C13.5 429.5 0 396.9 0 363V336c0-35.3 28.7-64 64-64H80l0 0h35.3l0 0h35.3zM192 252.1c-8-5.4-17.2-9.2-27-11L181 207l11 23.7v21.5zM130.2 240H59.6L163 18.5c7.5-16 26.5-22.9 42.5-15.5s22.9 26.5 15.5 42.5L130.2 240zM224 192c0-17.7 14.3-32 32-32s32 14.3 32 32v64c0 17.7-14.3 32-32 32s-32-14.3-32-32V192zm96 32c0-17.7 14.3-32 32-32s32 14.3 32 32v64c0 17.7-14.3 32-32 32s-32-14.3-32-32V224z"/></svg>