<svg xmlns="http://www.w3.org/2000/svg" viewBox="0 0 512 512"><!--! Font Awesome Pro 6.5.2 by @fontawesome - https://fontawesome.com License - https://fontawesome.com/license (Commercial License) Copyright 2024 Fonticons, Inc. --><path d="M352.2 82.3L351 73.8c-3-21.1-19.6-37.7-40.7-40.7l-8.5-1.2c-8.7-1.2-14.8-9.4-13.6-18.1S297.5-1.1 306.3 .2l8.5 1.2c35.2 5 62.9 32.7 67.9 67.9l1.2 8.5c1.2 8.7-4.8 16.9-13.6 18.1s-16.9-4.8-18.1-13.6zM185.4 70.6c-12.5-12.5-12.5-32.8 0-45.3s32.8-12.5 45.3 0l192 192c3.3 3.3 9.4 1.1 9.4-3.7l0-77.7c0-22.1 17.9-40 40-40s40 17.9 40 40V312.3c0 60.2-27.9 116.9-75.5 153.7C385.7 505.3 321 515.7 263 498.7c-28.4-7.1-55.3-21.8-77.6-44.1l-4.9-4.9L73.4 342.6l-32-32c-12.5-12.5-12.5-32.8 0-45.3s32.8-12.5 45.3 0l31.9 31.9 .1 .1L165.3 344c5.2 5.2 13.6 5.2 18.7 0s5.2-13.6 0-18.7L57.4 198.6c-12.5-12.5-12.5-32.8 0-45.3s32.8-12.5 45.3 0L229.3 280c5.2 5.2 13.6 5.2 18.7 0s5.2-13.6 0-18.7L105.4 118.6c-12.5-12.5-12.5-32.8 0-45.3s32.8-12.5 45.3 0L293.3 216c5.2 5.2 13.6 5.2 18.7 0s5.2-13.6 0-18.7L185.4 70.6zM13.7 352.2c8.7-1.3 16.9 4.8 18.1 13.6l1.2 8.5c3 21.1 19.6 37.7 40.7 40.7l8.5 1.2c8.7 1.2 14.8 9.4 13.6 18.1s-9.4 14.8-18.1 13.6l-8.5-1.2c-35.2-5-62.9-32.7-67.9-67.9L.2 370.3c-1.2-8.7 4.8-16.9 13.6-18.1z"/></svg>