<svg xmlns="http://www.w3.org/2000/svg" viewBox="0 0 448 512"><!--! Font Awesome Pro 6.5.1 by @fontawesome - https://fontawesome.com License - https://fontawesome.com/license (Commercial License) Copyright 2023 Fonticons, Inc. --><path d="M64 32C64 14.3 78.3 0 96 0s32 14.3 32 32h16c8.8 0 16 7.2 16 16v64c0 8.8-7.2 16-16 16H11.8C5.3 128 0 122.7 0 116.2c0-3.9 1.9-7.5 5.1-9.7L43.6 80 5.1 53.5C1.9 51.3 0 47.7 0 43.8C0 37.3 5.3 32 11.8 32L64 32zm0 208V160h64v80H64zm192-48c0-17.7 14.3-32 32-32s32 14.3 32 32v64c0 17.7-14.3 32-32 32s-32-14.3-32-32V192zm-64-64c17.7 0 32 14.3 32 32v48c0 17.7-14.3 32-32 32s-32-14.3-32-32V160c0-17.7 14.3-32 32-32zm160 96c0-17.7 14.3-32 32-32s32 14.3 32 32v64c0 17.7-14.3 32-32 32s-32-14.3-32-32V224zm-96 88l0-.6c9.4 5.4 20.3 8.6 32 8.6c13.2 0 25.4-4 35.6-10.8c8.7 24.9 32.5 42.8 60.4 42.8c11.7 0 22.6-3.1 32-8.6V352c0 88.4-71.6 160-160 160H194.3c-42.4 0-83.1-16.9-113.1-46.9L69.5 453.5C45.5 429.5 32 396.9 32 363V336c0-35.3 28.7-64 64-64h88c22.1 0 40 17.9 40 40s-17.9 40-40 40H128c-8.8 0-16 7.2-16 16s7.2 16 16 16h56c39.8 0 72-32.2 72-72z"/></svg>