<svg xmlns="http://www.w3.org/2000/svg" viewBox="0 0 512 512"><!--! Font Awesome Pro 6.5.1 by @fontawesome - https://fontawesome.com License - https://fontawesome.com/license (Commercial License) Copyright 2023 Fonticons, Inc. --><path d="M153.6 51.2C177 20.1 214.1 0 256 0s79 20.1 102.4 51.2c16-12.1 36-19.2 57.6-19.2c7.1 0 14.4 .8 21.6 2.5C482 44.7 512 84.3 512 128c0 7.1-.8 14.4-2.5 21.6C496 224 448 320 448 320H373.6l26.2-157.4c1.5-8.7-4.4-17-13.2-18.4s-17 4.4-18.4 13.2L341.1 320H272V160c0-8.8-7.2-16-16-16s-16 7.2-16 16V320H170.9L143.8 157.4c-1.5-8.7-9.7-14.6-18.4-13.2s-14.6 9.7-13.2 18.4L138.4 320H64s-48-96-61.5-170.4C.8 142.4 0 135.1 0 128c0-43.7 30-83.3 74.4-93.5C81.6 32.8 88.9 32 96 32c21.6 0 41.6 7.1 57.6 19.2zM448 448c0 35.3-28.7 64-64 64H128c-35.3 0-64-28.7-64-64V352H448v96z"/></svg>