<svg xmlns="http://www.w3.org/2000/svg" viewBox="0 0 512 512"><!--! Font Awesome Pro 6.5.1 by @fontawesome - https://fontawesome.com License - https://fontawesome.com/license (Commercial License) Copyright 2023 Fonticons, Inc. --><path d="M279.9 22.2C279 9.8 268.7 0 256 0s-23 9.8-23.9 22.2c-9.4-8.1-23.7-7.7-32.6 1.2s-9.4 23.2-1.2 32.6C185.8 57 176 67.3 176 80s9.8 23 22.2 23.9c-8.1 9.4-7.7 23.7 1.2 32.6s23.2 9.4 32.6 1.2C233 150.2 243.3 160 256 160s23-9.8 23.9-22.2c9.4 8.1 23.7 7.7 32.6-1.2s9.4-23.2 1.2-32.6C326.2 103 336 92.7 336 80s-9.8-23-22.2-23.9c8.1-9.4 7.7-23.7-1.2-32.6s-23.2-9.4-32.6-1.2zM0 480c0 17.7 14.3 32 32 32H480c17.7 0 32-14.3 32-32s-14.3-32-32-32H32c-17.7 0-32 14.3-32 32zM216.4 175.6c-14.2 0-28.4-5.4-39.3-16.1c-62.7 27.1-98.6 85.4-118.9 139.6c4.2 1.6 8.9 1.4 13-.6l35.4-17.7c13.5-6.8 29.4-6.8 42.9 0l35.4 17.7c4.5 2.3 9.8 2.3 14.3 0l35.4-17.7c13.5-6.8 29.4-6.8 42.9 0l35.4 17.7c4.5 2.3 9.8 2.3 14.3 0l35.4-17.7c13.5-6.8 29.4-6.8 42.9 0l35.4 17.7c4.1 2 8.8 2.2 13 .6c-20.3-54.2-56.2-112.5-118.9-139.6c-10.9 10.7-25.1 16.1-39.3 16.1C285.5 185.7 271.5 192 256 192s-29.5-6.3-39.6-16.4zM48.1 329.5C34.3 377.5 32 416 32 416H480s-2.3-38.5-16.1-86.5c-12.2 4.3-25.6 3.5-37.3-2.4l-35.4-17.7c-4.5-2.3-9.8-2.3-14.3 0l-35.4 17.7c-13.5 6.8-29.4 6.8-42.9 0l-35.4-17.7c-4.5-2.3-9.8-2.3-14.3 0l-35.4 17.7c-13.5 6.8-29.4 6.8-42.9 0l-35.4-17.7c-4.5-2.3-9.8-2.3-14.3 0L85.5 327.2c-11.7 5.8-25.2 6.6-37.3 2.4z"/></svg>