<svg xmlns="http://www.w3.org/2000/svg" viewBox="0 0 640 512"><!--! Font Awesome Pro 6.5.2 by @fontawesome - https://fontawesome.com License - https://fontawesome.com/license (Commercial License) Copyright 2024 Fonticons, Inc. --><path d="M320 448c176.7 0 320-57.3 320-128c0-19.3-11.8-36.7-29.7-43.9L574.9 262c.7 4.2 1.1 8.5 1.1 12.8c0 42.7-34.6 77.3-77.3 77.3c-12.2 0-24.1-2.9-34.7-8.3c-10.7 5.4-22.6 8.3-34.7 8.3c-38.6 0-70.6-28.3-76.3-65.4c-10.6 .9-21.6 1.4-32.9 1.4c-88.4 0-160-28.7-160-64v0L29.7 276.1C11.8 283.3 0 300.7 0 320c0 70.7 143.3 128 320 128zm32-242.7c0-42.7 34.6-77.3 77.3-77.3c7.1 0 14.1 1 20.9 2.9C421.1 90.4 373.6 64 320 64c-70.4 0-130.2 45.5-151.6 108.7l.1-.2C174.7 201.3 240.1 224 320 224c11.7 0 23-.5 34-1.4c-1.3-5.6-2-11.5-2-17.3zM473.1 168c-5.5 3.8-12.7 3.8-18.2 0c-7.5-5.2-16.4-8-25.7-8c-25 0-45.3 20.3-45.3 45.3c0 9.2 2.8 18.2 8 25.7c3.8 5.5 3.8 12.7 0 18.2c-5.2 7.5-8 16.4-8 25.7c0 25 20.3 45.3 45.3 45.3c9.2 0 18.2-2.8 25.7-8c5.5-3.8 12.7-3.8 18.2 0c7.5 5.2 16.4 8 25.7 8c25 0 45.3-20.3 45.3-45.3c0-9.2-2.8-18.2-8-25.7c-3.8-5.5-3.8-12.7 0-18.2c5.2-7.5 8-16.4 8-25.7c0-25-20.3-45.3-45.3-45.3c-9.2 0-18.2 2.8-25.7 8zM464 216a24 24 0 1 1 0 48 24 24 0 1 1 0-48z"/></svg>