<svg xmlns="http://www.w3.org/2000/svg" viewBox="0 0 640 512"><!--! Font Awesome Pro 6.5.1 by @fontawesome - https://fontawesome.com License - https://fontawesome.com/license (Commercial License) Copyright 2023 Fonticons, Inc. --><path d="M149.7 137.8L64 352H448L385.1 210.6c-.8-1.7-1.1-3.5-1.1-5.4c0-7.3 5.9-13.2 13.2-13.2h.8c1.4 0 2.7 .2 4 .6l55.3 16.6c2.1-3.2 4.5-6.1 7.2-8.8c0-14.3 5.5-28.7 16.4-39.6c2.2-2.2 4.6-4.2 7.1-6L434.4 91.6c-32-37.8-79-59.6-128.5-59.6c-68.8 0-130.7 41.9-156.3 105.8zm434.3 44.4C583 169.8 572.7 160 560 160s-23 9.8-23.9 22.2c-9.4-8.1-23.7-7.7-32.6 1.2s-9.4 23.2-1.2 32.6C489.8 217 480 227.3 480 240s9.8 23 22.2 23.9c-8.1 9.4-7.7 23.7 1.2 32.6s23.2 9.4 32.6 1.2C537 310.2 547.3 320 560 320s23-9.8 23.9-22.2c9.4 8.1 23.7 7.7 32.6-1.2s9.4-23.2 1.2-32.6C630.2 263 640 252.7 640 240s-9.8-23-22.2-23.9c8.1-9.4 7.7-23.7-1.2-32.6s-23.2-9.4-32.6-1.2zM0 432c0 26.5 21.5 48 48 48H464c26.5 0 48-21.5 48-48s-21.5-48-48-48H48c-26.5 0-48 21.5-48 48z"/></svg>