<svg xmlns="http://www.w3.org/2000/svg" viewBox="0 0 576 512"><!--! Font Awesome Pro 6.5.1 by @fontawesome - https://fontawesome.com License - https://fontawesome.com/license (Commercial License) Copyright 2023 Fonticons, Inc. --><path d="M200.7 181.4L112 384H224V336c0-26.5 21.5-48 48-48h32c26.5 0 48 21.5 48 48v48H464L386.7 206.1c-1.8-4-2.7-8.4-2.7-12.8v-.8c0-5.6 1.5-11 4.2-15.9l18.6-32.5c5.7-10 16.3-16.1 27.8-16.1H455c14.7 0 27.5 10 31 24.2l6.2 24.6c2.2 8.9 10.2 15.1 19.4 15.1c9.5 0 17.7-6.7 19.6-16.1l12.2-60.8c.4-2.1 .6-4.2 .6-6.3v-6.8c0-9-3.8-17.5-10.4-23.6L457.2 8.4C451.3 3 443.6 0 435.6 0h-2.2c-6.1 0-12.1 1.8-17.3 5L273.1 96.6c-32 20.5-57.2 50-72.4 84.8zM320 384V336c0-8.8-7.2-16-16-16H272c-8.8 0-16 7.2-16 16v48h64zM22.6 416C10.1 416 0 426.1 0 438.6c0 6 2.4 11.7 6.9 15.6C25.9 470.3 82.6 512 160 512H416c77.4 0 134.1-41.7 153.1-57.8c4.6-3.9 6.9-9.6 6.9-15.6c0-12.5-10.1-22.6-22.6-22.6H22.6z"/></svg>