<svg xmlns="http://www.w3.org/2000/svg" viewBox="0 0 448 512"><!--! Font Awesome Pro 6.5.1 by @fontawesome - https://fontawesome.com License - https://fontawesome.com/license (Commercial License) Copyright 2023 Fonticons, Inc. --><path d="M176 32c17.7 0 32 14.3 32 32v80c0 34.6 11.2 68.3 32 96l19.2 25.6C288.3 304.4 304 351.5 304 400v48c0 17.7-14.3 32-32 32s-32-14.3-32-32V400c0-34.6-11.2-68.3-32-96l-19.2-25.6C159.7 239.6 144 192.5 144 144V64c0-17.7 14.3-32 32-32zM32 96c17.7 0 32 14.3 32 32v32c0 34.6 11.2 68.3 32 96l19.2 25.6C144.3 320.4 160 367.5 160 416v32c0 17.7-14.3 32-32 32s-32-14.3-32-32V416c0-34.6-11.2-68.3-32-96L44.8 294.4C15.7 255.6 0 208.5 0 160V128c0-17.7 14.3-32 32-32zm320 32v32c0 34.6 11.2 68.3 32 96l19.2 25.6C432.3 320.4 448 367.5 448 416v32c0 17.7-14.3 32-32 32s-32-14.3-32-32V416c0-34.6-11.2-68.3-32-96l-19.2-25.6C303.7 255.6 288 208.5 288 160V128c0-17.7 14.3-32 32-32s32 14.3 32 32z"/></svg>