<svg xmlns="http://www.w3.org/2000/svg" viewBox="0 0 448 512"><!--! Font Awesome Pro 6.5.1 by @fontawesome - https://fontawesome.com License - https://fontawesome.com/license (Commercial License) Copyright 2023 Fonticons, Inc. --><path d="M0 240C0 111 64 0 224 0S448 111 448 240c0 192-48 272-224 272S0 432 0 240zM160 104a24 24 0 1 0 0-48 24 24 0 1 0 0 48zm88 24a24 24 0 1 0 -48 0 24 24 0 1 0 48 0zM176 344a24 24 0 1 0 0-48 24 24 0 1 0 0 48zm0 64a24 24 0 1 0 0-48 24 24 0 1 0 0 48zm24 40a24 24 0 1 0 -48 0 24 24 0 1 0 48 0zm72-104a24 24 0 1 0 0-48 24 24 0 1 0 0 48zM312 80a24 24 0 1 0 -48 0 24 24 0 1 0 48 0zM272 408a24 24 0 1 0 0-48 24 24 0 1 0 0 48zm24 40a24 24 0 1 0 -48 0 24 24 0 1 0 48 0zM128 272c35.3 0 64-28.7 64-64c0-17.7-14.3-32-32-32H96c-17.7 0-32 14.3-32 32c0 35.3 28.7 64 64 64zm256-64c0-17.7-14.3-32-32-32H288c-17.7 0-32 14.3-32 32c0 35.3 28.7 64 64 64s64-28.7 64-64z"/></svg>