<svg xmlns="http://www.w3.org/2000/svg" viewBox="0 0 448 512"><!--! Font Awesome Pro 6.5.1 by @fontawesome - https://fontawesome.com License - https://fontawesome.com/license (Commercial License) Copyright 2023 Fonticons, Inc. --><path d="M128 32H64C46.3 32 32 46.3 32 64s14.3 32 32 32C25.1 125.2 0 171.7 0 224C0 362.8 79.6 441.9 113.3 469.1c9.3 7.5 21.1 10.9 33.1 10.9H301.6c12 0 23.7-3.3 33.1-10.9C368.4 441.9 448 362.8 448 224c0-52.3-25.1-98.8-64-128c17.7 0 32-14.3 32-32s-14.3-32-32-32H176V136c0 13.3-10.7 24-24 24s-24-10.7-24-24V32zM64 224H384c0 53.7-14.7 96.1-32.9 128H96.9C78.7 320.1 64 277.7 64 224z"/></svg>