<svg xmlns="http://www.w3.org/2000/svg" viewBox="0 0 576 512"><!--! Font Awesome Pro 6.5.2 by @fontawesome - https://fontawesome.com License - https://fontawesome.com/license (Commercial License) Copyright 2024 Fonticons, Inc. --><path d="M432 0H288h0c-9.8 0-66 0-120.2 37.7C111.4 76.9 64 151.8 64 288c0 58.5-14.6 101.6-28.6 129.7c-7 14.1-14 24.5-19 31.1c-2.5 3.3-4.5 5.7-5.7 7.1c-.6 .7-1.1 1.2-1.3 1.4l-.2 .2c-9 9.1-11.7 22.8-6.8 34.7c5 12 16.6 19.8 29.6 19.8h96V320c0-88.4 71.6-160 160-160s160 71.6 160 160V512h96c12.9 0 24.6-7.8 29.6-19.8c4.9-11.9 2.2-25.6-6.8-34.7l0 0 0 0 0 0-.1-.1c-.2-.2-.7-.7-1.3-1.4c-1.3-1.4-3.2-3.8-5.7-7.1c-5-6.6-11.9-17-19-31.1C526.6 389.6 512 346.5 512 288c0-103.1-46.5-172.8-95.8-217.2l32-29c7.3-6.7 9.8-17.2 6.2-26.4S441.9 0 432 0zM416 512V320c0-70.7-57.3-128-128-128s-128 57.3-128 128V512H416z"/></svg>