<svg xmlns="http://www.w3.org/2000/svg" viewBox="0 0 448 512"><!--! Font Awesome Pro 6.5.2 by @fontawesome - https://fontawesome.com License - https://fontawesome.com/license (Commercial License) Copyright 2024 Fonticons, Inc. --><path d="M288 104c0 13.3 10.7 24 24 24s24-10.7 24-24v-2.3l80.2-11.5C417.3 98 423.9 104 432 104c8.8 0 16-7.2 16-16V40c0-8.8-7.2-16-16-16c-8.1 0-14.7 6-15.8 13.7L336 26.3V24c0-13.3-10.7-24-24-24s-24 10.7-24 24v80zM64 176c0-44.2 35.8-80 80-80H256V32H144C64.5 32 0 96.5 0 176s64.5 144 144 144H416c17.7 0 32-14.3 32-32s-14.3-32-32-32H144c-44.2 0-80-35.8-80-80zM32 352c-17.7 0-32 14.3-32 32s14.3 32 32 32H416c17.7 0 32-14.3 32-32s-14.3-32-32-32H32zm0 96c-17.7 0-32 14.3-32 32s14.3 32 32 32H416c17.7 0 32-14.3 32-32s-14.3-32-32-32H32z"/></svg>