<svg xmlns="http://www.w3.org/2000/svg" viewBox="0 0 576 512"><!--! Font Awesome Pro 6.5.2 by @fontawesome - https://fontawesome.com License - https://fontawesome.com/license (Commercial License) Copyright 2024 Fonticons, Inc. --><path d="M0 128C0 92.7 28.7 64 64 64H512c35.3 0 64 28.7 64 64V384c0 35.3-28.7 64-64 64H64c-35.3 0-64-28.7-64-64V128zm328 64c-8 0-15.5 4-20 10.7l-56 84L234.7 265c-4.6-5.7-11.4-9-18.7-9s-14.2 3.3-18.7 9l-64 80c-5.8 7.2-6.9 17.1-2.9 25.4s12.4 13.6 21.6 13.6h80 48H424c8.9 0 17-4.9 21.2-12.7s3.7-17.3-1.2-24.6l-96-144C343.5 196 336 192 328 192zM160 224a32 32 0 1 0 0-64 32 32 0 1 0 0 64z"/></svg>