<svg xmlns="http://www.w3.org/2000/svg" viewBox="0 0 448 512"><!--! Font Awesome Pro 6.5.2 by @fontawesome - https://fontawesome.com License - https://fontawesome.com/license (Commercial License) Copyright 2024 Fonticons, Inc. --><path d="M64 32C28.7 32 0 60.7 0 96V416c0 35.3 28.7 64 64 64H384c35.3 0 64-28.7 64-64V96c0-35.3-28.7-64-64-64H64zM96 96H352c17.7 0 32 14.3 32 32V320c0 17.7-14.3 32-32 32H96c-17.7 0-32-14.3-32-32V128c0-17.7 14.3-32 32-32zm152 64c-5.3 0-10.2 2.6-13.2 6.9l-52.4 76.3-9.6-12.8c-3-4-7.8-6.4-12.8-6.4s-9.8 2.4-12.8 6.4l-48 64c-3.6 4.8-4.2 11.3-1.5 16.8s8.3 8.8 14.3 8.8h48 48 40 88c5.9 0 11.4-3.3 14.2-8.6s2.4-11.6-1-16.5l-88-128c-3-4.3-7.9-6.9-13.2-6.9zM128 192a32 32 0 1 0 0-64 32 32 0 1 0 0 64z"/></svg>