<svg xmlns="http://www.w3.org/2000/svg" viewBox="0 0 640 512"><!--! Font Awesome Pro 6.5.2 by @fontawesome - https://fontawesome.com License - https://fontawesome.com/license (Commercial License) Copyright 2024 Fonticons, Inc. --><path d="M576 128V384H64V128H576zM64 64C28.7 64 0 92.7 0 128V384c0 35.3 28.7 64 64 64H576c35.3 0 64-28.7 64-64V128c0-35.3-28.7-64-64-64H64zm40 120c0 13.3 10.7 24 24 24h8v96H120c-13.3 0-24 10.7-24 24s10.7 24 24 24h80c13.3 0 24-10.7 24-24s-10.7-24-24-24H184V184c0-13.3-10.7-24-24-24H128c-13.3 0-24 10.7-24 24zm190.6 30.4c5.7-8 17.5-8.6 24-1.2c5.2 5.9 5 14.7-.3 20.5l-72 78c-6.5 7-8.2 17.2-4.3 25.9s12.5 14.4 22 14.4h88c13.3 0 24-10.7 24-24s-10.7-24-24-24H318.8l34.8-37.7c22-23.8 22.4-60.3 1.1-84.7c-26.9-30.7-75.4-28.4-99.2 4.9l-11.1 15.6c-7.7 10.8-5.2 25.8 5.6 33.5s25.8 5.2 33.5-5.6l11.1-15.6z"/></svg>