<svg xmlns="http://www.w3.org/2000/svg" viewBox="0 0 640 512"><!--! Font Awesome Pro 6.5.2 by @fontawesome - https://fontawesome.com License - https://fontawesome.com/license (Commercial License) Copyright 2024 Fonticons, Inc. --><path d="M64 128V384H576V128H64zM0 128C0 92.7 28.7 64 64 64H576c35.3 0 64 28.7 64 64V384c0 35.3-28.7 64-64 64H64c-35.3 0-64-28.7-64-64V128zm184 32c9.5 0 18.1 5.6 21.9 14.3l64 144c5.4 12.1-.1 26.3-12.2 31.7s-26.3-.1-31.7-12.2l-4.3-9.7H146.3l-4.3 9.7c-5.4 12.1-19.6 17.6-31.7 12.2s-17.6-19.6-12.2-31.7l64-144c3.9-8.7 12.4-14.3 21.9-14.3zm0 83.1L167.6 280h32.8L184 243.1zM304 184c0-13.3 10.7-24 24-24h52c33.1 0 60 26.9 60 60c0 9.2-2.1 17.9-5.8 25.7c13.3 11 21.8 27.6 21.8 46.3c0 33.1-26.9 60-60 60H328c-13.3 0-24-10.7-24-24v-8V256 192v-8zm48 24v24h28c6.6 0 12-5.4 12-12s-5.4-12-12-12H352zm0 96h44c6.6 0 12-5.4 12-12s-5.4-12-12-12H380 352v24z"/></svg>