<svg xmlns="http://www.w3.org/2000/svg" viewBox="0 0 320 512"><!--! Font Awesome Pro 6.5.2 by @fontawesome - https://fontawesome.com License - https://fontawesome.com/license (Commercial License) Copyright 2024 Fonticons, Inc. --><path d="M144 96c-35.3 0-64 28.7-64 64c0 17.7-14.3 32-32 32s-32-14.3-32-32C16 89.3 73.3 32 144 32h32c70.7 0 128 57.3 128 128v3.6c0 43.6-22.1 84.1-58.8 107.7L203 298.4c-6.9 4.4-11 12-11 20.2V320c0 17.7-14.3 32-32 32s-32-14.3-32-32v-1.4V176c0-17.7 14.3-32 32-32s32 14.3 32 32v53.4l18.6-12c18.3-11.8 29.4-32.1 29.4-53.8V160c0-35.3-28.7-64-64-64H144zM120 440a40 40 0 1 1 80 0 40 40 0 1 1 -80 0z"/></svg>