<svg xmlns="http://www.w3.org/2000/svg" viewBox="0 0 576 512"><!--! Font Awesome Pro 6.5.1 by @fontawesome - https://fontawesome.com License - https://fontawesome.com/license (Commercial License) Copyright 2023 Fonticons, Inc. --><path d="M234.6 103.9C251.5 98.8 269.4 96 288 96c22.8 0 44.7 4.2 64.8 11.7c-.6-2-.8-4.1-.8-6.3V35.4c0-6.9-4.1-13.2-10.5-15.9L299.3 1.4c-2.2-.9-4.5-1.4-6.8-1.4h-1.2c-6.9 0-13.1 4.1-15.8 10.4l-40.9 93.5zm161.6 27.3c12.1 8.8 23.1 19.1 32.7 30.5c5.6 6.7-2.9 14.6-10.4 10.1C380.3 149 335.7 136 288 136s-92.3 13-130.5 35.7c-7.5 4.5-16-3.4-10.4-10.1c9.6-11.4 20.6-21.7 32.7-30.5c-.6-.1-1.2-.2-1.8-.3c-8.5-1.8-17.2-2.8-26-2.8C68.1 128 0 214 0 320S68.1 512 152 512c19.3 0 37.8-4.5 54.7-12.8c8.3-4.1 18.2-4.1 26.5 0c17 8.3 35.4 12.8 54.7 12.8s37.8-4.5 54.7-12.8c8.3-4.1 18.2-4.1 26.5 0c17 8.3 35.4 12.8 54.7 12.8c83.9 0 152-86 152-192s-68.1-192-152-192c-8.9 0-17.6 1-26 2.8c-.6 .1-1.2 .2-1.8 .3zM208 208c5.3 0 10.3 2.7 13.3 7.1l32 48c3.3 4.9 3.6 11.2 .8 16.4s-8.2 8.5-14.1 8.5H176c-5.9 0-11.3-3.2-14.1-8.5s-2.5-11.5 .8-16.4l32-48c3-4.5 8-7.1 13.3-7.1zm173.3 7.1l32 48c3.3 4.9 3.6 11.2 .8 16.4s-8.2 8.5-14.1 8.5H336c-5.9 0-11.3-3.2-14.1-8.5s-2.5-11.5 .8-16.4l32-48c3-4.5 8-7.1 13.3-7.1s10.3 2.7 13.3 7.1zM368 437.5C346.2 444 319.8 448 288 448s-58.2-4-80-10.5V416c0-8.8-7.2-16-16-16H176c-8.6 0-15.7 6.9-16 15.4c-36.9-24.7-49.9-56.7-54.1-71.4c-1.4-5 .3-10.2 4-13.8c5.8-5.8 15.1-6.6 22.2-2.4c18 10.6 55.5 29.1 107.9 36.8V384c0 8.8 7.2 16 16 16h16c8.8 0 16-7.2 16-16V368c77.6 0 132.8-26.6 155.9-40.2c7.1-4.2 16.4-3.4 22.2 2.4c3.7 3.7 5.4 8.8 4 13.8c-4.2 14.7-17.3 46.8-54.1 71.4c-.3-8.6-7.3-15.4-16-15.4H384c-8.8 0-16 7.2-16 16v21.5z"/></svg>