<svg xmlns="http://www.w3.org/2000/svg" viewBox="0 0 448 512"><!--! Font Awesome Pro 6.5.1 by @fontawesome - https://fontawesome.com License - https://fontawesome.com/license (Commercial License) Copyright 2023 Fonticons, Inc. --><path d="M336 112c0 50.7-33.7 93.6-80 107.4V320H192V219.4c-46.3-13.8-80-56.6-80-107.4C112 50.1 162.1 0 224 0s112 50.1 112 112zM200 96a24 24 0 1 0 0-48 24 24 0 1 0 0 48zM64 352c0-17.7 14.3-32 32-32s32 14.3 32 32H384c35.3 0 64 28.7 64 64v32c0 35.3-28.7 64-64 64H64c-35.3 0-64-28.7-64-64V416c0-35.3 28.7-64 64-64z"/></svg>