<svg xmlns="http://www.w3.org/2000/svg" viewBox="0 0 448 512"><!--! Font Awesome Pro 6.5.1 by @fontawesome - https://fontawesome.com License - https://fontawesome.com/license (Commercial License) Copyright 2023 Fonticons, Inc. --><path d="M160 0H288c17.7 0 32 14.3 32 32s-14.3 32-32 32H160c-17.7 0-32-14.3-32-32s14.3-32 32-32zM400 168c0-13.3-10.7-24-24-24c-10.3 0-19.1 6.5-22.5 15.6l25.1 32.2c12.1-1.3 21.4-11.5 21.4-23.9zm-89.3-63.3l11.8 15.1C335.7 105.2 354.8 96 376 96c39.8 0 72 32.2 72 72c0 29.2-17.4 54.3-42.3 65.6c6.8 15.8 10.3 32.9 10.3 50.3V448c0 35.3-28.7 64-64 64H96c-35.3 0-64-28.7-64-64V283.9c0-28.5 9.5-56.1 27-78.6l78.3-100.7c2.1-2.6 3.7-5.6 4.8-8.7H305.9c1.1 3.1 2.7 6 4.8 8.7zM128 288c-17.7 0-32 14.3-32 32v64c0 17.7 14.3 32 32 32H320c17.7 0 32-14.3 32-32V320c0-17.7-14.3-32-32-32H128z"/></svg>