<svg xmlns="http://www.w3.org/2000/svg" viewBox="0 0 640 512"><!--! Font Awesome Pro 6.5.1 by @fontawesome - https://fontawesome.com License - https://fontawesome.com/license (Commercial License) Copyright 2023 Fonticons, Inc. --><path d="M514 128h94c17.7 0 32 14.3 32 32V352c0 17.7-14.3 32-32 32H514c-19.8 10.2-42.2 16-66 16s-46.3-5.8-66-16H224c-3 0-6-.4-9-1.3l-192-56C9.4 322.7 0 310.2 0 296V216c0-14.2 9.4-26.7 23-30.7l192-56c2.9-.8 5.9-1.3 9-1.3H382c19.8-10.2 42.2-16 66-16s46.3 5.8 66 16zm30 128a96 96 0 1 0 -192 0 96 96 0 1 0 192 0zM427.3 212.7L448 233.4l20.7-20.7c6.2-6.2 16.4-6.2 22.6 0s6.2 16.4 0 22.6L470.6 256l20.7 20.7c6.2 6.2 6.2 16.4 0 22.6s-16.4 6.2-22.6 0L448 278.6l-20.7 20.7c-6.2 6.2-16.4 6.2-22.6 0s-6.2-16.4 0-22.6L425.4 256l-20.7-20.7c-6.2-6.2-6.2-16.4 0-22.6s16.4-6.2 22.6 0z"/></svg>