<svg xmlns="http://www.w3.org/2000/svg" viewBox="0 0 448 512"><!--! Font Awesome Pro 6.5.2 by @fontawesome - https://fontawesome.com License - https://fontawesome.com/license (Commercial License) Copyright 2024 Fonticons, Inc. --><path d="M304 64a80 80 0 1 1 0 160 80 80 0 1 1 0-160zm0 224c79.5 0 144-64.5 144-144S383.5 0 304 0S160 64.5 160 144c0 28.2 8.1 54.5 22.1 76.7L9.4 393.4c-12.5 12.5-12.5 32.8 0 45.3l64 64c12.5 12.5 32.8 12.5 45.3 0s12.5-32.8 0-45.3L77.3 416 96 397.3l41.4 41.4c12.5 12.5 32.8 12.5 45.3 0s12.5-32.8 0-45.3L141.3 352l86.1-86.1c22.2 14 48.5 22.1 76.7 22.1z"/></svg>