<svg xmlns="http://www.w3.org/2000/svg" viewBox="0 0 512 512"><!--! Font Awesome Pro 6.5.2 by @fontawesome - https://fontawesome.com License - https://fontawesome.com/license (Commercial License) Copyright 2024 Fonticons, Inc. --><path d="M184 72h14.4c8.3 14.3 23.8 24 41.6 24h64c26.5 0 48-21.5 48-48s-21.5-48-48-48H240c-17.8 0-33.3 9.7-41.6 24H184c-48.6 0-88 39.4-88 88v48H80c-12.1 0-23.2 6.8-28.6 17.7l-48 96C1.2 278.1 0 283 0 288v32c0 17.7 14.3 32 32 32H480c17.7 0 32-14.3 32-32V288c0-5-1.2-9.9-3.4-14.3l-48-96C455.2 166.8 444.1 160 432 160H144V112c0-22.1 17.9-40 40-40zM160 448c-17.7 0-32 14.3-32 32s14.3 32 32 32h96 96c17.7 0 32-14.3 32-32s-14.3-32-32-32H288V384H224v64H160z"/></svg>