<svg xmlns="http://www.w3.org/2000/svg" viewBox="0 0 640 512"><!--! Font Awesome Pro 6.5.2 by @fontawesome - https://fontawesome.com License - https://fontawesome.com/license (Commercial License) Copyright 2024 Fonticons, Inc. --><path d="M152 0c-21.5 0-45.5 6.3-64.3 23.8C56.4 52.8 0 119.6 0 224c0 24.9 3.5 54.7 7.1 79.1c7.1 48 48.8 80.9 95.3 80.9c58.4 0 104-50.4 98.2-108.5l-4.1-41.2c-2-20.1 4.5-40.1 17.9-55.1l18.2-20.5c15.2-17.1 23.5-39.1 23.5-61.9c0-31.2-15.6-60.2-41.5-77.5l-3.4-2.3C194.5 5.9 175.1 0 155.2 0H152zM488 0h-3.2c-19.9 0-39.4 5.9-55.9 16.9l-3.4 2.3C399.6 36.5 384 65.6 384 96.7c0 22.8 8.4 44.8 23.5 61.9l18.2 20.5c13.4 15.1 19.9 35.1 17.9 55.1l-4.1 41.2C433.7 333.6 479.3 384 537.7 384c46.5 0 88.2-32.9 95.3-80.9c3.6-24.4 7.1-54.2 7.1-79.1c0-104.4-56.4-171.2-87.7-200.2C533.5 6.3 509.5 0 488 0zM228.2 231.1l1.9 18.8 21.5 10.7c2.7 1.4 4.4 4.1 4.4 7.2V488c0 13.3 10.7 24 24 24s24-10.7 24-24V267.8c0-21.2-12-40.6-31-50.1l-34.8-17.4-.1 .1c-7.5 8.4-11.1 19.5-10 30.7zm173.6-30.7l-.1-.1L367 217.7c-19 9.5-31 28.9-31 50.1V488c0 13.3 10.7 24 24 24s24-10.7 24-24V267.8c0-3 1.7-5.8 4.4-7.2l21.5-10.7 1.9-18.8c1.1-11.2-2.5-22.3-10-30.7z"/></svg>