<svg xmlns="http://www.w3.org/2000/svg" viewBox="0 0 640 512"><!--! Font Awesome Pro 6.5.2 by @fontawesome - https://fontawesome.com License - https://fontawesome.com/license (Commercial License) Copyright 2024 Fonticons, Inc. --><path d="M344 0c-14.9 0-27.8 10.3-31.2 24.8l-80 344c-.4 1.7-.7 3.5-.8 5.2l-85.4 85.4c-2.9 2.9-6.9 4.6-11 4.6c-8.6 0-15.6-7-15.6-15.6V359.8l-24-12-24 12v88.6c0 35.1 28.5 63.6 63.6 63.6c16.9 0 33-6.7 45-18.6L266 407.9c1.8-.1 3.5-.4 5.2-.8l344-80c14.5-3.4 24.8-16.3 24.8-31.2V32c0-17.7-14.3-32-32-32H344zM24 128c-13.3 0-24 10.7-24 24s10.7 24 24 24h8c22.1 0 40 17.9 40 40v68L18.7 257.4c-1.8-.9-3.8-1.4-5.8-1.4C5.8 256 0 261.8 0 268.9v70.1C0 346.2 5.8 352 12.9 352c2 0 4-.5 5.8-1.4L72 324v0l9.7-4.8c4.5-2.3 9.4-3.4 14.3-3.4l.5 0c3.5 .1 7 .7 10.4 1.9c1.2 .4 2.3 .9 3.4 1.5l0 0L120 324l53.3 26.6c1.8 .9 3.8 1.4 5.8 1.4c7.1 0 12.9-5.8 12.9-12.9V268.9c0-7.1-5.8-12.9-12.9-12.9c-2 0-4 .5-5.8 1.4L120 284V216c0-48.6-39.4-88-88-88H24zM427.3 84.7L480 137.4l52.7-52.7c6.2-6.2 16.4-6.2 22.6 0s6.2 16.4 0 22.6L502.6 160l52.7 52.7c6.2 6.2 6.2 16.4 0 22.6s-16.4 6.2-22.6 0L480 182.6 363.3 299.3c-6.2 6.2-16.4 6.2-22.6 0s-6.2-16.4 0-22.6L457.4 160l-52.7-52.7c-6.2-6.2-6.2-16.4 0-22.6s16.4-6.2 22.6 0z"/></svg>