<svg xmlns="http://www.w3.org/2000/svg" viewBox="0 0 448 512"><!--! Font Awesome Pro 6.5.1 by @fontawesome - https://fontawesome.com License - https://fontawesome.com/license (Commercial License) Copyright 2023 Fonticons, Inc. --><path d="M448 176c0 79.5-100.3 144-224 144S0 255.5 0 176S100.3 32 224 32s224 64.5 224 144zM224 64c-8.8 0-16 7.2-16 16v24c0 8.8 7.2 16 16 16s16-7.2 16-16V80c0-8.8-7.2-16-16-16zM64 176c0 8.8 7.2 16 16 16h32c8.8 0 16-7.2 16-16s-7.2-16-16-16H80c-8.8 0-16 7.2-16 16zm256 0c0 8.8 7.2 16 16 16h32c8.8 0 16-7.2 16-16s-7.2-16-16-16H336c-8.8 0-16 7.2-16 16zm-96 56c-8.8 0-16 7.2-16 16v24c0 8.8 7.2 16 16 16s16-7.2 16-16V248c0-8.8-7.2-16-16-16zM139.3 92.7c-6.2-6.2-16.4-6.2-22.6 0s-6.2 16.4 0 22.6l16 16c6.2 6.2 16.4 6.2 22.6 0s6.2-16.4 0-22.6l-16-16zm192 0c-6.2-6.2-16.4-6.2-22.6 0l-16 16c-6.2 6.2-6.2 16.4 0 22.6s16.4 6.2 22.6 0l16-16c6.2-6.2 6.2-16.4 0-22.6zm-176 150.6c6.2-6.2 6.2-16.4 0-22.6s-16.4-6.2-22.6 0l-16 16c-6.2 6.2-6.2 16.4 0 22.6s16.4 6.2 22.6 0l16-16zm160-22.6c-6.2-6.2-16.4-6.2-22.6 0s-6.2 16.4 0 22.6l16 16c6.2 6.2 16.4 6.2 22.6 0s6.2-16.4 0-22.6l-16-16zM280 176c0-13.3-25.1-24-56-24s-56 10.7-56 24s25.1 24 56 24s56-10.7 56-24zM224 480C102.4 480 3.4 383.1 .1 262.2c13.2 16.4 29.8 30.7 48.2 42.5C94.7 334.6 156.9 352 224 352s129.3-17.4 175.7-47.3c18.5-11.9 35-26.2 48.2-42.5C444.6 383.1 345.6 480 224 480z"/></svg>