<svg xmlns="http://www.w3.org/2000/svg" viewBox="0 0 576 512"><!--! Font Awesome Pro 6.5.2 by @fontawesome - https://fontawesome.com License - https://fontawesome.com/license (Commercial License) Copyright 2024 Fonticons, Inc. --><path d="M488 0c9.4 0 18.3 3.7 25 10.3L557.7 55c6.6 6.6 10.3 15.6 10.3 25s-3.7 18.3-10.3 25l-97 97c-3 3-4.7 7.1-4.7 11.3v31.9c0 17.4-9.4 33.5-24.7 42l-31 17.2L295.9 200.1l-11.3-11.3L463 10.3C469.7 3.7 478.6 0 488 0zM432 160a16 16 0 1 0 0-32 16 16 0 1 0 0 32zm80-80a16 16 0 1 0 -32 0 16 16 0 1 0 32 0zM262 211.4l11.3 11.3 126 126c6.2 6.2 6.2 16.4 0 22.6C321.4 449.2 235.3 512 112 512c-25.6 0-50.9-4.2-69.5-8.4c-9.4-2.1-17.2-4.2-22.7-5.7c-2.8-.8-4.9-1.4-6.5-1.9c-.8-.2-1.4-.4-1.8-.6l-.5-.2-.1 0 0 0 0 0 0 0s0 0 5.1-15.2l-5.1 15.2c-5.3-1.8-9.2-6.1-10.5-11.5s.3-11.1 4.3-15l246-246L262 211.4z"/></svg>