<svg xmlns="http://www.w3.org/2000/svg" viewBox="0 0 512 512"><!--! Font Awesome Pro 6.5.1 by @fontawesome - https://fontawesome.com License - https://fontawesome.com/license (Commercial License) Copyright 2023 Fonticons, Inc. --><path d="M336 64v0c.1 0 .2 0 .3 0c19.9 0 48.1 13.6 73.1 38.6s38.6 53.2 38.6 73.1c0 .1 0 .2 0 .3h0c0 33.1-21.9 62.1-53.7 71.2l-11.5 3.3c-19.6 5.6-37.9 15.1-53.9 27.8L294 306.2c-11.1 8.9-25 13.8-39.2 13.8c-34.7 0-62.8-28.1-62.8-62.8c0-14.3 4.9-28.1 13.8-39.2l27.9-34.9c12.8-15.9 22.2-34.3 27.8-53.9l3.3-11.5C273.9 85.9 302.9 64 336 64zm0-64V0C274.4 0 220.2 40.9 203.3 100.1L200 111.7c-3.3 11.5-8.8 22.2-16.2 31.5l-27.9 34.9c-18 22.5-27.8 50.4-27.8 79.2c0 23.4 6.3 45.3 17.4 64.1l-136 136c-12.5 12.5-12.5 32.8 0 45.3s32.8 12.5 45.3 0l136-136c18.8 11.1 40.7 17.4 64.1 17.4c28.8 0 56.7-9.8 79.2-27.8l34.9-27.9c9.3-7.4 20-13 31.5-16.2l11.5-3.3C471.1 291.8 512 237.6 512 176h0c0-.1 0-.2 0-.3c0-43.8-26.4-87.4-57.3-118.4S380.1 0 336.3 0c-.1 0-.2 0-.3 0z"/></svg>