<svg xmlns="http://www.w3.org/2000/svg" viewBox="0 0 512 512"><!--! Font Awesome Pro 6.5.1 by @fontawesome - https://fontawesome.com License - https://fontawesome.com/license (Commercial License) Copyright 2023 Fonticons, Inc. --><path d="M192 65.9C192 29.5 221.5 0 257.9 0c17.5 0 34.3 6.9 46.6 19.3L349.3 64H480c12.9 0 24.6 7.8 29.6 19.8s2.2 25.7-6.9 34.9l-73.5 73.5-45.1 45.1-73.5 73.5c-9.2 9.2-22.9 11.9-34.9 6.9s-19.8-16.6-19.8-29.6V173.3l-92.6 92.6L209 448H352c17.7 0 32 14.3 32 32s-14.3 32-32 32H184.7c-.5 0-.9 0-1.4 0H32c-17.7 0-32-14.3-32-32s14.3-32 32-32H143L97 263.8c-2.7-10.9 .5-22.4 8.4-30.4L218.7 120l-7.4-7.4C198.9 100.2 192 83.4 192 65.9zM432 288c-14.7 0-27.8-6.6-36.6-16.9l67.7-67.7c10.3 8.8 16.9 21.9 16.9 36.6c0 26.5-21.5 48-48 48z"/></svg>