<svg xmlns="http://www.w3.org/2000/svg" viewBox="0 0 448 512"><!--! Font Awesome Pro 6.5.2 by @fontawesome - https://fontawesome.com License - https://fontawesome.com/license (Commercial License) Copyright 2024 Fonticons, Inc. --><path d="M82.5 19.7C87.4 7.8 99.1 0 112 0H336c12.9 0 24.6 7.8 29.5 19.7l80 192c4.1 9.9 3 21.2-2.9 30.1s-15.9 14.2-26.6 14.2H32c-10.7 0-20.7-5.3-26.6-14.2s-7-20.2-2.9-30.1l80-192zM160 288H288v32s64 50.5 64 112c0 24.4-8.3 44.6-16.4 58.7c-8.5 14.7-25.2 21.3-42.1 21.3h-139c-17 0-33.6-6.6-42.1-21.3C104.3 476.6 96 456.4 96 432c0-61.5 64-112 64-112V288z"/></svg>