<svg xmlns="http://www.w3.org/2000/svg" viewBox="0 0 512 512"><!--! Font Awesome Pro 6.5.1 by @fontawesome - https://fontawesome.com License - https://fontawesome.com/license (Commercial License) Copyright 2023 Fonticons, Inc. --><path d="M64 176c0-61.9 50.1-112 112-112c57.4 0 104.7 43.2 111.2 98.8C207.1 176.6 144 239.9 130.6 320.1C127.7 337.6 142.3 352 160 352H480c17.7 0 32.3-14.4 29.4-31.9c-13.5-80.6-77.2-144.2-157.9-157.6C344.6 71.6 268.7 0 176 0C78.8 0 0 78.8 0 176V480c0 17.7 14.3 32 32 32s32-14.3 32-32V176zM320 448c35.3 0 64-28.7 64-64H256c0 35.3 28.7 64 64 64z"/></svg>