<svg xmlns="http://www.w3.org/2000/svg" viewBox="0 0 640 512"><!--! Font Awesome Pro 6.5.1 by @fontawesome - https://fontawesome.com License - https://fontawesome.com/license (Commercial License) Copyright 2023 Fonticons, Inc. --><path d="M194.3 20.1C199.1 8 210.9 0 224 0H416c13.1 0 24.9 8 29.7 20.1l64 160c3.9 9.9 2.7 21-3.2 29.8s-15.9 14.1-26.5 14.1H160c-10.6 0-20.5-5.3-26.5-14.1s-7.2-20-3.2-29.8l64-160zM288 256h64V448h64c17.7 0 32 14.3 32 32s-14.3 32-32 32H320 224c-17.7 0-32-14.3-32-32s14.3-32 32-32h64V256z"/></svg>