<svg xmlns="http://www.w3.org/2000/svg" viewBox="0 0 576 512"><!--! Font Awesome Pro 6.5.1 by @fontawesome - https://fontawesome.com License - https://fontawesome.com/license (Commercial License) Copyright 2023 Fonticons, Inc. --><path d="M576 176c0 97.2-128.9 176-288 176c-13.2 0-26.3-.5-39-1.6c4.6 12.8 7 26.5 7 40.6c0 66.8-54.2 121-121 121H64c-17.7 0-32-14.3-32-32s14.3-32 32-32h71c31.5 0 57-25.5 57-57c0-21.6-12.2-41.3-31.5-51l-46.8-23.4 .2-.4C44.7 284.1 0 233.2 0 176C0 78.8 128.9 0 288 0S576 78.8 576 176zM288 288c123.7 0 224-50.1 224-112s-100.3-112-224-112S64 114.1 64 176s100.3 112 224 112z"/></svg>