<svg xmlns="http://www.w3.org/2000/svg" viewBox="0 0 384 512"><!--! Font Awesome Pro 6.5.1 by @fontawesome - https://fontawesome.com License - https://fontawesome.com/license (Commercial License) Copyright 2023 Fonticons, Inc. --><path d="M64 0C28.7 0 0 28.7 0 64V448c0 35.3 28.7 64 64 64H320c35.3 0 64-28.7 64-64V64c0-35.3-28.7-64-64-64H64zm96 96h64c35.3 0 64 28.7 64 64v80H96V160c0-35.3 28.7-64 64-64zM288 272v80c0 35.3-28.7 64-64 64H160c-35.3 0-64-28.7-64-64V272H288zM192 32a16 16 0 1 1 0 32 16 16 0 1 1 0-32zm0 416a16 16 0 1 1 0 32 16 16 0 1 1 0-32z"/></svg>