<svg xmlns="http://www.w3.org/2000/svg" viewBox="0 0 448 512"><!--! Font Awesome Pro 6.5.1 by @fontawesome - https://fontawesome.com License - https://fontawesome.com/license (Commercial License) Copyright 2023 Fonticons, Inc. --><path d="M64 192c0-88.4 71.6-160 160-160s160 71.6 160 160V352H64V192zm160-80c8.8 0 16-7.2 16-16s-7.2-16-16-16c-61.9 0-112 50.1-112 112c0 8.8 7.2 16 16 16s16-7.2 16-16c0-44.2 35.8-80 80-80zM32 384H416c17.7 0 32 14.3 32 32v32c0 17.7-14.3 32-32 32H32c-17.7 0-32-14.3-32-32V416c0-17.7 14.3-32 32-32z"/></svg>