<svg xmlns="http://www.w3.org/2000/svg" viewBox="0 0 640 512"><!--! Font Awesome Pro 6.5.1 by @fontawesome - https://fontawesome.com License - https://fontawesome.com/license (Commercial License) Copyright 2023 Fonticons, Inc. --><path d="M33.5 1.9l112 48c12.2 5.2 17.8 19.3 12.6 31.5s-19.3 17.8-31.5 12.6l-112-48C2.4 40.8-3.3 26.7 1.9 14.6S21.3-3.3 33.5 1.9zm112 204.1l-112 48c-12.2 5.2-26.3-.4-31.5-12.6s.4-26.3 12.6-31.5l112-48c12.2-5.2 26.3 .4 31.5 12.6s-.4 26.3-12.6 31.5zM303.9 4.4c10-5.8 22.3-5.8 32.2 0l96 56c15.3 8.9 20.4 28.5 11.5 43.8C437.7 114.3 427 120 416 120v40c17.7 0 32 14.3 32 32c0 13.3-8.1 24.7-19.7 29.5L473.6 448H480c17.7 0 32 14.3 32 32s-14.3 32-32 32H450.9 352V448c0-17.7-14.3-32-32-32s-32 14.3-32 32v64H189.1 160c-17.7 0-32-14.3-32-32s14.3-32 32-32h6.4l45.3-226.5C200.1 216.7 192 205.3 192 192c0-17.7 14.3-32 32-32h0V120c-11 0-21.7-5.7-27.6-15.9c-8.9-15.3-3.7-34.9 11.5-43.8l96-56zM352 87.7L320 69.1 288 87.7V160h64V87.7zM638.1 14.6c5.2 12.2-.4 26.3-12.6 31.5l-112 48c-12.2 5.2-26.3-.4-31.5-12.6s.4-26.3 12.6-31.5l112-48c12.2-5.2 26.3 .4 31.5 12.6zm-156.1 160c5.2-12.2 19.3-17.8 31.5-12.6l112 48c12.2 5.2 17.8 19.3 12.6 31.5s-19.3 17.8-31.5 12.6l-112-48c-12.2-5.2-17.8-19.3-12.6-31.5z"/></svg>