<svg xmlns="http://www.w3.org/2000/svg" viewBox="0 0 576 512"><!--! Font Awesome Pro 6.5.1 by @fontawesome - https://fontawesome.com License - https://fontawesome.com/license (Commercial License) Copyright 2023 Fonticons, Inc. --><path d="M288 101.3c3-2.4 6.2-4.8 9.7-7.3c17.8-12.7 46.8-30 78.3-30c20.3 0 42.8 9.3 61.4 19.2c20 10.6 41.1 24.7 60.2 39.5c19.1 14.8 37.1 31.2 50.8 46.5c6.8 7.6 13.1 15.7 17.9 23.7c4.3 7.2 9.7 18.3 9.7 31c0 9.2-2.6 19.1-5.3 27.5c-3 9.1-7.4 19.4-12.8 30.3c-10.8 21.7-26.8 46.9-47.7 71.1C468.8 400.9 404.7 448 320 448H256c-84.7 0-148.8-47.1-190.2-95.1C44.9 328.8 29 303.5 18.1 281.8C12.7 271 8.4 260.7 5.3 251.5C2.6 243.1 0 233.2 0 224c0-12.8 5.5-23.8 9.7-31c4.8-8.1 11.1-16.1 17.9-23.7c13.6-15.3 31.7-31.7 50.8-46.5c19.1-14.9 40.2-29 60.2-39.5C157.2 73.3 179.7 64 200 64c31.5 0 60.6 17.2 78.3 30c3.4 2.5 6.7 4.9 9.7 7.3zM64 224c0 7.9 80 96 224 96s224-88.1 224-96c0-7.7-46.3-31.1-138.8-32c-3.4 0-6.9 .5-10.1 1.5C350 197.6 313.7 208 288 208s-62-10.4-75.1-14.4c-3.3-1-6.7-1.6-10.1-1.5C110.3 192.9 64 216.3 64 224z"/></svg>