<svg xmlns="http://www.w3.org/2000/svg" viewBox="0 0 512 512"><!--! Font Awesome Pro 6.5.2 by @fontawesome - https://fontawesome.com License - https://fontawesome.com/license (Commercial License) Copyright 2024 Fonticons, Inc. --><path d="M16 96a48 48 0 1 1 96 0A48 48 0 1 1 16 96zM64 208a48 48 0 1 1 0 96 48 48 0 1 1 0-96zm0 160a48 48 0 1 1 0 96 48 48 0 1 1 0-96zM191.5 54.4c5.5-4.2 12.3-6.4 19.2-6.4H424c13.3 0 24 10.7 24 24v48c0 13.3-10.7 24-24 24H210.7c-6.9 0-13.7-2.2-19.2-6.4l-38.4-28.8c-8.5-6.4-8.5-19.2 0-25.6l38.4-28.8zM153.1 243.2l38.4-28.8c5.5-4.2 12.3-6.4 19.2-6.4H488c13.3 0 24 10.7 24 24v48c0 13.3-10.7 24-24 24H210.7c-6.9 0-13.7-2.2-19.2-6.4l-38.4-28.8c-8.5-6.4-8.5-19.2 0-25.6zm0 160l38.4-28.8c5.5-4.2 12.3-6.4 19.2-6.4H424c13.3 0 24 10.7 24 24v48c0 13.3-10.7 24-24 24H210.7c-6.9 0-13.7-2.2-19.2-6.4l-38.4-28.8c-8.5-6.4-8.5-19.2 0-25.6z"/></svg>