<svg xmlns="http://www.w3.org/2000/svg" viewBox="0 0 512 512"><!--! Font Awesome Pro 6.5.2 by @fontawesome - https://fontawesome.com License - https://fontawesome.com/license (Commercial License) Copyright 2024 Fonticons, Inc. --><path d="M24 48C10.7 48 0 58.7 0 72v48c0 13.3 10.7 24 24 24V256 384c0 30.9 25.1 56 56 56h48c0 13.3 10.7 24 24 24h48c13.3 0 24-10.7 24-24V392c0-13.3-10.7-24-24-24H152c-13.3 0-24 10.7-24 24H80c-4.4 0-8-3.6-8-8V280h56c0 13.3 10.7 24 24 24h48c13.3 0 24-10.7 24-24V232c0-13.3-10.7-24-24-24H152c-13.3 0-24 10.7-24 24H72V144c13.3 0 24-10.7 24-24V72c0-13.3-10.7-24-24-24H24zM160 96c0 17.7 14.3 32 32 32H480c17.7 0 32-14.3 32-32s-14.3-32-32-32H192c-17.7 0-32 14.3-32 32zM288 256c0 17.7 14.3 32 32 32H480c17.7 0 32-14.3 32-32s-14.3-32-32-32H320c-17.7 0-32 14.3-32 32zm0 160c0 17.7 14.3 32 32 32H480c17.7 0 32-14.3 32-32s-14.3-32-32-32H320c-17.7 0-32 14.3-32 32z"/></svg>