<svg xmlns="http://www.w3.org/2000/svg" viewBox="0 0 512 512"><!--! Font Awesome Pro 6.5.1 by @fontawesome - https://fontawesome.com License - https://fontawesome.com/license (Commercial License) Copyright 2023 Fonticons, Inc. --><path d="M80 8.2c0-3.7-2.5-6.9-6.1-7.5C70.7 .3 67.4 0 64 0C28.7 0 0 28.7 0 64v64c0 35.3 28.7 64 64 64l.7 0 41.8 27.9C126.2 233 149.4 240 173.1 240H192v16H143.1c-7.5 0-14.8-1.7-21.5-5.1L87.2 233.7c-7.9-4-17.5-.7-21.5 7.2s-.7 17.5 7.2 21.5l34.5 17.2c11.1 5.6 23.4 8.4 35.8 8.4H192v16H122.4c-5.2 0-10.3-.8-15.2-2.5L69.1 288.8c-8.4-2.8-17.4 1.7-20.2 10.1s1.7 17.4 10.1 20.2l38.1 12.7c8.2 2.7 16.7 4.1 25.3 4.1H192v16H175.1c-12.4 0-24.7 2.9-35.8 8.4l-18.5 9.2c-7.9 4-11.1 13.6-7.2 21.5s13.6 11.1 21.5 7.2l18.5-9.2c6.7-3.3 14-5.1 21.5-5.1H192l21.4 64.1c-29.8 1.8-53.4 26.5-53.4 56.8c0 3.9 3.2 7.1 7.1 7.1H344.9c3.9 0 7.1-3.2 7.1-7.1c0-30.2-23.6-55-53.4-56.8L320 384h16.9c7.4 0 14.8 1.7 21.5 5.1l18.5 9.2c7.9 4 17.5 .7 21.5-7.2s.7-17.5-7.2-21.5l-18.5-9.2c-11.1-5.6-23.4-8.4-35.8-8.4H320V336h69.6c8.6 0 17.1-1.4 25.3-4.1l38.1-12.7c8.4-2.8 12.9-11.9 10.1-20.2s-11.9-12.9-20.2-10.1l-38.1 12.7c-4.9 1.6-10 2.5-15.2 2.5H320V288h48.9c12.4 0 24.7-2.9 35.8-8.4l34.5-17.2c7.9-4 11.1-13.6 7.2-21.5s-13.6-11.1-21.5-7.2l-34.5 17.2c-6.7 3.3-14 5.1-21.5 5.1H320V240h18.9c23.7 0 46.9-7 66.6-20.2L447.3 192l.7 0c35.3 0 64-28.7 64-64V64c0-35.3-28.7-64-64-64c-3.4 0-6.7 .3-9.9 .8c-3.6 .6-6.1 3.8-6.1 7.5V72c0 7.7-9.8 11-14.4 4.8L397.4 49.9c-3.7-4.9-11.2-3.9-12.3 2.1c-.7 3.9-1.1 7.9-1.1 11.9v64c0 14.9 5.1 28.6 13.6 39.4l-18.7 12.5C367 187.8 353.1 192 338.9 192H314.2c-2.7-7.3-6.2-14-10.2-20.2V80.7c0-15.6 11.3-29 26.7-31.6l7.9-1.3c8.7-1.5 14.6-9.7 13.2-18.4s-9.7-14.6-18.4-13.2l-7.9 1.3C294.6 22.7 272 49.4 272 80.7V138c-3.1-2.3-6.2-4.4-9-6.1c-4.3-2.6-9.7-2.6-13.9 0c-2.8 1.7-5.9 3.8-9 6.1V80.7c0-31.3-22.6-58-53.5-63.1l-7.9-1.3c-8.7-1.5-17 4.4-18.4 13.2s4.4 17 13.2 18.4l7.9 1.3C196.7 51.7 208 65 208 80.7v91.1c-4 6.2-7.5 13-10.2 20.2H173.1c-14.2 0-28.1-4.2-39.9-12.1l-18.7-12.5c8.5-10.9 13.6-24.6 13.6-39.4V64c0-4.1-.4-8.1-1.1-11.9c-1.1-6-8.6-7.1-12.3-2.1L94.4 76.8C89.8 83 80 79.7 80 72V8.2z"/></svg>