<svg xmlns="http://www.w3.org/2000/svg" viewBox="0 0 512 512"><!--! Font Awesome Pro 6.5.2 by @fontawesome - https://fontawesome.com License - https://fontawesome.com/license (Commercial License) Copyright 2024 Fonticons, Inc. --><path d="M210.8 334.8C265.3 314.2 304 261.6 304 200v-8c0-61.9-50.1-112-112-112S80 130.1 80 192c0 39.8 32.2 72 72 72s72-32.2 72-72v-8c0-13.3-10.7-24-24-24s-24 10.7-24 24v8c0 13.3-10.7 24-24 24s-24-10.7-24-24c0-35.3 28.7-64 64-64s64 28.7 64 64v8c0 53-43 96-96 96h-8C94.6 296 48 249.4 48 192c0-79.5 64.5-144 144-144s144 64.5 144 144c0 73.2-54.6 133.6-125.2 142.8zM0 192C0 298 86 384 192 384c41.5 0 79.9-13.1 111.2-35.5L457.4 502.6c12.5 12.5 32.8 12.5 45.3 0s12.5-32.8 0-45.3L348.5 303.2C370.9 271.9 384 233.5 384 192C384 86 298 0 192 0S0 86 0 192z"/></svg>