<svg xmlns="http://www.w3.org/2000/svg" viewBox="0 0 448 512"><!--! Font Awesome Pro 6.5.1 by @fontawesome - https://fontawesome.com License - https://fontawesome.com/license (Commercial License) Copyright 2023 Fonticons, Inc. --><path d="M224 0C100.3 0 0 100.3 0 224v96C0 426 86 512 192 512h64c106 0 192-86 192-192V224C448 100.3 347.7 0 224 0zM128 384c0 17.7 14.3 32 32 32H288c17.7 0 32-14.3 32-32s-14.3-32-32-32H252.7 195.3 160c-17.7 0-32 14.3-32 32zm-32 0c0-33.2 25.2-60.5 57.6-63.7c-1-3.7-1.6-7.6-1.6-11.6c0-7.3 1.8-14.4 5.3-20.7H144c-44.2 0-80-35.8-80-80c0-26.5 21.5-48 48-48h32c44.2 0 80 35.8 80 80c0-44.2 35.8-80 80-80h32c26.5 0 48 21.5 48 48c0 44.2-35.8 80-80 80H290.7c3.4 6.3 5.3 13.4 5.3 20.7c0 4-.6 7.9-1.6 11.6c32.3 3.2 57.6 30.5 57.6 63.7c0 35.3-28.7 64-64 64H160c-35.3 0-64-28.7-64-64zm156.7-64h.2c6.1 0 11.1-5 11.1-11.1c0 0 0-.1 0-.1s0-.1 0-.1c0-3-1.2-5.9-3.3-8l-8-8-4.2-4.2-.4-.4-10.3-10.3C234 274 229.1 272 224 272s-10 2-13.7 5.7L200 288l-.4 .4-4.2 4.2-8 8c-2.1 2.1-3.3 5-3.3 8c0 0 0 .1 0 .1s0 .1 0 .1c0 6.1 5 11.1 11.1 11.1h.2 11.3 6 .6 21.5 .6 6 11.3zM112 192c-8.8 0-16 7.2-16 16c0 26.5 21.5 48 48 48h32c8.8 0 16-7.2 16-16c0-26.5-21.5-48-48-48H112zm240 16c0-8.8-7.2-16-16-16H304c-26.5 0-48 21.5-48 48c0 8.8 7.2 16 16 16h32c26.5 0 48-21.5 48-48z"/></svg>