<svg xmlns="http://www.w3.org/2000/svg" viewBox="0 0 576 512"><!--! Font Awesome Pro 6.5.2 by @fontawesome - https://fontawesome.com License - https://fontawesome.com/license (Commercial License) Copyright 2024 Fonticons, Inc. --><path d="M0 208V384c0 35.3 28.7 64 64 64H224c35.3 0 64-28.7 64-64V208c0-79.5-64.5-144-144-144S0 128.5 0 208zm64 0c0-8.8 7.2-16 16-16H208c8.8 0 16 7.2 16 16s-7.2 16-16 16H80c-8.8 0-16-7.2-16-16zm256 0V384c0 24.6-9.2 47-24.4 64H512c35.3 0 64-28.7 64-64V208c0-79.5-64.5-144-144-144H245.2C290.4 95.9 320 148.5 320 208zm64 0c0-8.8 7.2-16 16-16h64 32c8.8 0 16 7.2 16 16v64c0 8.8-7.2 16-16 16H464c-8.8 0-16-7.2-16-16V224H400c-8.8 0-16-7.2-16-16z"/></svg>