<svg xmlns="http://www.w3.org/2000/svg" viewBox="0 0 512 512"><!--! Font Awesome Pro 6.5.1 by @fontawesome - https://fontawesome.com License - https://fontawesome.com/license (Commercial License) Copyright 2023 Fonticons, Inc. --><path d="M344 0h8 24 8 56c39.8 0 72 32.2 72 72c0 13.3-10.7 24-24 24H448c-33.4 0-62.8-17-80-42.9v49c32.2 8.3 62.6 25 87.8 50.2C493.3 189.7 512 238.9 512 288c0 76.6-57.5 224-224 224c-144 0-244.1-43.3-244.1-43.3C10.3 457.6-7.9 421.4 3.3 387.9C7.4 375.4 15 365 24.7 357.5c34.3-25.7 52.1-57.6 71.2-91.8c20.6-36.8 42.6-76.3 88.4-113.5C221.7 114.7 270.9 96 320 96V24c0-13.3 10.7-24 24-24zm88 304c0-8.8-7.2-16-16-16s-16 7.2-16 16c0 53-43 96-96 96c-8.8 0-16 7.2-16 16s7.2 16 16 16c70.7 0 128-57.3 128-128z"/></svg>