<svg xmlns="http://www.w3.org/2000/svg" viewBox="0 0 576 512"><!--! Font Awesome Pro 6.5.1 by @fontawesome - https://fontawesome.com License - https://fontawesome.com/license (Commercial License) Copyright 2023 Fonticons, Inc. --><path d="M544 32c-17.7 0-32 14.3-32 32v96h64V64c0-17.7-14.3-32-32-32zM512 367.4c0 44.5-36.1 80.6-80.6 80.6c-39.4 0-73-28.5-79.5-67.4l-.3-1.9c-2.9-17.4-19.4-29.2-36.8-26.3s-29.2 19.4-26.3 36.8l.3 1.9C300.4 460.9 360.7 512 431.4 512C511.3 512 576 447.3 576 367.4V192H512V367.4zM64 64C28.7 64 0 92.7 0 128v96c0 35.3 28.7 64 64 64h79.7c28.6 0 53.7-18.9 61.5-46.4l3.4-11.7c4.4-15.5 26.3-15.5 30.8 0l3.4 11.7c7.8 27.5 33 46.4 61.5 46.4H384c35.3 0 64-28.7 64-64V128c0-35.3-28.7-64-64-64H64z"/></svg>