<svg xmlns="http://www.w3.org/2000/svg" viewBox="0 0 576 512"><!--! Font Awesome Pro 6.5.2 by @fontawesome - https://fontawesome.com License - https://fontawesome.com/license (Commercial License) Copyright 2024 Fonticons, Inc. --><path d="M0 96C0 60.7 28.7 32 64 32H512c35.3 0 64 28.7 64 64V384c0 35.3-28.7 64-64 64c0 17.7-14.3 32-32 32s-32-14.3-32-32H128c0 17.7-14.3 32-32 32s-32-14.3-32-32c-35.3 0-64-28.7-64-64V96zm96 56V328c0 13.3 10.7 24 24 24H392c13.3 0 24-10.7 24-24V152c0-13.3-10.7-24-24-24H120c-13.3 0-24 10.7-24 24zm400-40c-8.8 0-16 7.2-16 16V352c0 8.8 7.2 16 16 16s16-7.2 16-16V128c0-8.8-7.2-16-16-16z"/></svg>