<svg xmlns="http://www.w3.org/2000/svg" viewBox="0 0 576 512"><!--! Font Awesome Pro 6.5.2 by @fontawesome - https://fontawesome.com License - https://fontawesome.com/license (Commercial License) Copyright 2024 Fonticons, Inc. --><path d="M312 24c0-13.3-10.7-24-24-24s-24 10.7-24 24v94.1l-98 98L91.3 230.4C38.3 240.6 0 287 0 341c0 41.4 33.6 75 75 75c50.5 0 94.3-33.5 108.1-81.2c7.2 10.4 19.3 17.2 32.9 17.2c22.1 0 40-17.9 40-40s-17.9-40-40-40c-7.9 0-15.3 2.3-21.5 6.3l5.4-28.2L264 185.9v72.4c14.7 13.2 24 32.3 24 53.7c0 39.8-32.2 72-72 72c-7.2 0-14.2-1.1-20.8-3c-2.1 8.4-3.2 17.1-3.2 25.9V416c0 53 43 96 96 96s96-43 96-96v-9.1c0-25.1-9-49.4-25.3-68.4L312 284V185.9L376.1 250l14.4 74.7C400.6 377.7 447 416 501 416c41.4 0 75-33.6 75-75c0-54-38.3-100.3-91.3-110.5L410 216.1l-98-98V24zm64 88a40 40 0 1 0 0-80 40 40 0 1 0 0 80z"/></svg>