<svg xmlns="http://www.w3.org/2000/svg" viewBox="0 0 640 512"><!--! Font Awesome Pro 6.5.2 by @fontawesome - https://fontawesome.com License - https://fontawesome.com/license (Commercial License) Copyright 2024 Fonticons, Inc. --><path d="M328 56c0-13.3 10.7-24 24-24h41.3c23.8 0 45.1 15.1 52.9 37.6l8.1 23.3 51-25.5c4.4-2.2 9.3-3.4 14.3-3.4H528c8.8 0 16 7.2 16 16v64c0 8.8-7.2 16-16 16h-8.4c-5 0-9.9-1.2-14.3-3.4l-34.9-17.5L500 224.4c4-.3 8-.4 12-.4c43.7 0 83.3 17.5 112.1 45.8c9.5 9.3 9.6 24.5 .3 33.9s-24.5 9.6-33.9 .3C570.2 284.2 542.6 272 512 272c-55.1 0-101 39.8-110.3 92.3c-2 11.5-12 19.8-23.6 19.8H336c-.9 0-1.7 0-2.6-.1H256c0 53-43 96-96 96s-96-43-96-96H32c-17.7 0-32-14.3-32-32V320c0-70.7 57.3-128 128-128h96c17.7 0 32 14.3 32 32v64c0 17.7 14.3 32 32 32h77.3c16.8-38.5 48.4-69.2 87.6-84.7L400.8 85.4c-1.1-3.2-4.2-5.4-7.6-5.4H352c-13.3 0-24-10.7-24-24zM128 96h96c17.7 0 32 14.3 32 32s-14.3 32-32 32H128c-17.7 0-32-14.3-32-32s14.3-32 32-32zm32 336c26.5 0 48-21.5 48-48H112c0 26.5 21.5 48 48 48zm352 0a48 48 0 1 0 0-96 48 48 0 1 0 0 96zm0-144a96 96 0 1 1 0 192 96 96 0 1 1 0-192z"/></svg>