<svg xmlns="http://www.w3.org/2000/svg" viewBox="0 0 512 512"><!--! Font Awesome Pro 6.5.1 by @fontawesome - https://fontawesome.com License - https://fontawesome.com/license (Commercial License) Copyright 2023 Fonticons, Inc. --><path d="M396.4 112.9C398.8 105 400 96.6 400 88c0-48.6-39.4-88-88-88s-88 39.4-88 88c0 29.9 14.9 56.3 37.6 72.2C169.5 164.3 96 240.4 96 333.6c0 12.3 2.7 24 7.5 34.4H72c-39.8 0-72 32.2-72 72s32.2 72 72 72H456c13.3 0 24-10.7 24-24s-10.7-24-24-24H72c-13.3 0-24-10.7-24-24s10.7-24 24-24H178.4 232h8 19H382.6c18.5 0 33.4-15 33.4-33.4c0-14.1-8.8-26.6-22-31.4l-43.7-15.9 23.8-63.5c2 .1 4 .2 6 .2H482.9c16.1 0 29.1-13 29.1-29.1c0-41.5-19.3-78.4-49.4-102.4C473.5 125.8 480 107.7 480 88c0-46.4-35.9-84.4-81.4-87.8C419.2 20.6 432 48.8 432 80c0 13.9-2.5 27.2-7.2 39.5c-9.1-3.2-18.6-5.5-28.4-6.6zM400 196a20 20 0 1 1 40 0 20 20 0 1 1 -40 0zM312 48c22.1 0 40 17.9 40 40v24c0 8.8-7.2 16-16 16H312c-22.1 0-40-17.9-40-40s17.9-40 40-40z"/></svg>