<svg xmlns="http://www.w3.org/2000/svg" viewBox="0 0 512 512"><!--! Font Awesome Pro 6.5.2 by @fontawesome - https://fontawesome.com License - https://fontawesome.com/license (Commercial License) Copyright 2024 Fonticons, Inc. --><path d="M24 258.1C24 133.2 125.2 32 250.1 32h11.8C386.8 32 488 133.2 488 258.1c0 34.2-27.7 61.9-61.9 61.9H313 199 85.9C51.7 320 24 292.3 24 258.1zm387.5-96.7c-3.7-.9-7.5-1.4-11.5-1.4c-26.5 0-48 21.5-48 48s21.5 48 48 48c15.9 0 30-7.7 38.7-19.6c-3.3-27.4-12.9-52.9-27.2-75zM145.9 113.6c8 35.7 39.9 62.4 78.1 62.4c44.2 0 80-35.8 80-80c0-3.8-.3-7.5-.8-11.2C290 81.7 276.1 80 261.9 80H250.1c-38.9 0-74.9 12.5-104.2 33.6zM191 352H321L343 440.2c2.4 9.6 .2 19.7-5.8 27.5s-15.4 12.3-25.2 12.3H200c-9.9 0-19.2-4.5-25.2-12.3s-8.2-17.9-5.8-27.5L191 352zM160 224a32 32 0 1 0 -64 0 32 32 0 1 0 64 0z"/></svg>