<svg xmlns="http://www.w3.org/2000/svg" viewBox="0 0 448 512"><!--! Font Awesome Pro 6.5.1 by @fontawesome - https://fontawesome.com License - https://fontawesome.com/license (Commercial License) Copyright 2023 Fonticons, Inc. --><path d="M324.2 231.9L421 338.3c17.4 19.1 27 44 27 69.9C448 465.5 401.5 512 344.1 512h-9.4c-32.3 0-63.6-11.3-88.4-32l-6.4-5.3c-20.7-17.2-46.7-26.7-73.6-26.7c-21.2 0-38.3 17.2-38.3 38.3V492c0 1.7 .1 3.4 .3 5.1c.8 7.1-4 14.9-11.2 14.9H112C50.8 512 1.1 462.9 0 401.9C1 345.3 44.3 298 100.9 292.4l44.7-4.5c8.8-.9 15.2-8.7 14.3-17.5s-8.7-15.2-17.5-14.3l-44.7 4.5c-7.1 .7-14 1.9-20.7 3.6c-6.4 1.6-13-3-13-9.7V32C64 14.3 78.3 0 96 0h61.6c11.4 0 21.9 6 27.6 15.9l75.6 129.6c18.1 30.9 39.3 59.9 63.4 86.4z"/></svg>