<svg xmlns="http://www.w3.org/2000/svg" viewBox="0 0 512 512"><!--! Font Awesome Pro 6.5.1 by @fontawesome - https://fontawesome.com License - https://fontawesome.com/license (Commercial License) Copyright 2023 Fonticons, Inc. --><path d="M64 48v56H24c-13.3 0-24 10.7-24 24s10.7 24 24 24H64v80H24c-13.3 0-24 10.7-24 24s10.7 24 24 24H64v80H24c-13.3 0-24 10.7-24 24s10.7 24 24 24H64v56c0 26.5 21.5 48 48 48h80V0H112C85.5 0 64 21.5 64 48zM432 0H224V512H432c26.5 0 48-21.5 48-48V48c0-26.5-21.5-48-48-48z"/></svg>