<svg xmlns="http://www.w3.org/2000/svg" viewBox="0 0 512 512"><!--! Font Awesome Pro 6.5.1 by @fontawesome - https://fontawesome.com License - https://fontawesome.com/license (Commercial License) Copyright 2023 Fonticons, Inc. --><path d="M191.5 .1c-19.1 0-37.4 7.6-50.9 21.1L21.2 140.6C7.7 154.1 .1 172.4 .1 191.5v129c0 19.1 7.6 37.4 21.1 50.9L140.6 490.8c13.5 13.5 31.8 21.1 50.9 21.1h129c19.1 0 37.4-7.6 50.9-21.1L490.8 371.4c13.5-13.5 21.1-31.8 21.1-50.9v-129c0-19.1-7.6-37.4-21.1-50.9L371.4 21.2C357.9 7.7 339.6 .1 320.5 .1h-129z"/></svg>