<svg xmlns="http://www.w3.org/2000/svg" viewBox="0 0 640 512"><!--! Font Awesome Pro 6.5.2 by @fontawesome - https://fontawesome.com License - https://fontawesome.com/license (Commercial License) Copyright 2024 Fonticons, Inc. --><path d="M2.7 53.1C13.8 41.6 59 0 128 0c66.9 0 111.4 39.1 124.2 52L306 26.7C343.3 9.1 384 0 425.2 0H616c13.3 0 24 10.7 24 24s-10.7 24-24 24H425.2c-34.2 0-67.9 7.5-98.8 22.1L191.9 133.4C189.1 219.3 118.6 288 32 288H16c-8.8 0-16-7.2-16-16V256c0-61.4 34.5-114.6 85.2-141.5C40.4 102.8 11.3 75.8 2.7 66.9C.9 65 0 62.6 0 60s.9-5 2.7-6.9zM480 320c0 106-64.5 192-144 192s-144-86-144-192s64.5-192 144-192s144 86 144 192zM465.7 471.8c29.2-40.5 46.3-94 46.3-151.8c0-59.3-18-114.2-48.6-155c-10.5-14-22.7-26.5-36.2-36.9c48.2 1.6 101.3 25.8 144.2 70.3c75 77.8 90.2 188.1 33.9 246.4c-34.1 35.4-86.8 43.5-139.6 27z"/></svg>