<svg xmlns="http://www.w3.org/2000/svg" viewBox="0 0 448 512"><!--! Font Awesome Pro 6.5.1 by @fontawesome - https://fontawesome.com License - https://fontawesome.com/license (Commercial License) Copyright 2023 Fonticons, Inc. --><path d="M216.8 17.7l-3.4-6.8C210.1 4.2 203.3 0 195.8 0c-10.9 0-19.6 9-21.3 19.8C167 67.8 132 96.2 95.3 126C49 163.7 0 203.5 0 288c0 80.4 58 135.2 131.9 160.3l-10.7 32.1c-4.2 12.6 2.6 26.2 15.2 30.4s26.2-2.6 30.4-15.2L178.6 460c7.1 1.2 14.2 2.1 21.4 2.7V488c0 13.3 10.7 24 24 24s24-10.7 24-24V462.7c7.2-.7 14.3-1.6 21.4-2.7l11.9 35.6c4.2 12.6 17.8 19.4 30.4 15.2s19.4-17.8 15.2-30.4l-10.7-32.1C390 423.2 448 368.4 448 288c0-84.5-49-124.3-95.3-162C316 96.2 281 67.8 273.5 19.8C271.8 9 263.1 0 252.2 0c-7.5 0-14.3 4.2-17.7 10.9l-3.4 6.8c-2.9 5.9-11.4 5.9-14.3 0zM97 186.2l.4-.9c.4-.8 .8-1.5 1.2-2.2c2.5-3.8 6.6-6.4 11.3-6.9c1.9-.2 3.8-.1 5.6 .3s3.6 1.2 5.2 2.2c3.9 2.6 6.4 6.8 7 11.2c.3 1.9 .2 3.9-.3 5.9c-.3 1.3-.8 2.5-1.3 3.6l-.3 .7c-.3 .6-.8 1.6-1.4 2.9c-1.2 2.6-2.9 6.4-4.9 11.2c-4 9.6-9 23-13.3 38.2c-8.8 31.3-13.5 67.1-3.4 94c3.1 8.3-1.1 17.5-9.4 20.6s-17.5-1.1-20.6-9.4c-13.9-37-6.6-81.3 2.6-114c4.7-16.7 10.2-31.4 14.5-41.8c2.2-5.2 4-9.4 5.4-12.3c.7-1.5 1.2-2.6 1.6-3.4zM209 122.5c.3-.9 .8-1.8 1.3-2.7c1.2-2.1 2.9-3.8 4.8-5c3.4-2.3 7.8-3.3 12-2.5c1.9 .4 3.6 1 5.2 2c2 1.2 3.7 2.9 5 4.8s2.2 4.1 2.6 6.4c.3 1.8 .3 3.7-.1 5.5c-.2 1.1-.5 2.2-1 3.3l0 .1-.5 1.3c-.4 1.1-1.1 2.8-1.9 5c-1.6 4.4-4 10.9-6.6 18.9c-5.4 16.2-12.2 38.7-18.1 64c-11.9 51.7-18.9 111.9-4.4 155.3c2.8 8.4-1.7 17.4-10.1 20.2s-17.4-1.7-20.2-10.1c-17.5-52.5-8.5-120.3 3.6-172.7c6.1-26.6 13.3-50.1 18.9-67c2.8-8.4 5.2-15.2 7-19.9c.9-2.4 1.6-4.2 2.1-5.4l.6-1.5 .1-.1zM288 160c0-8.8 7.2-16 16-16c.1 0 .2 0 .2 0c.1 0 .2 0 .4 0c5.8-.2 11.6 2.7 14.6 8.2l-1 .6 0 0c1-.5 1-.5 1-.5l0 0 0 0 0 .1 .2 .3 .6 1.1c.5 .9 1.2 2.2 2.1 3.9c1.8 3.4 4.2 8.3 7.1 14.3c5.7 12.1 13.1 29.2 19.8 48.9c13.1 38.7 24.5 90.6 11.7 135.5c-2.4 8.5-11.3 13.4-19.8 11s-13.4-11.3-11-19.8c10-35.1 1.4-79.2-11.2-116.5c-6.2-18.3-13.1-34.2-18.4-45.6c-2.7-5.7-4.9-10.2-6.5-13.2l-.1-.1c-3.5-2.9-5.7-7.3-5.7-12.2z"/></svg>