<svg xmlns="http://www.w3.org/2000/svg" viewBox="0 0 448 512"><!--! Font Awesome Pro 6.5.2 by @fontawesome - https://fontawesome.com License - https://fontawesome.com/license (Commercial License) Copyright 2024 Fonticons, Inc. --><path d="M64 32C28.7 32 0 60.7 0 96V416c0 35.3 28.7 64 64 64H384c35.3 0 64-28.7 64-64V96c0-35.3-28.7-64-64-64H64zm0 224c0-61.1 30.8-99.1 49.7-116.6c8.8-8.2 20.7-11.4 32.6-11.4H301.6c12 0 23.9 3.3 32.6 11.4C353.2 156.9 384 194.9 384 256s-30.8 99-49.7 116.6c-8.8 8.2-20.7 11.4-32.6 11.4H146.4c-12 0-23.9-3.3-32.6-11.4C94.8 355 64 317.1 64 256zm96-64c-8.8 0-16 7.2-16 16v48c0 8.8 7.2 16 16 16s16-7.2 16-16V208c0-8.8-7.2-16-16-16zm128 0c-8.8 0-16 7.2-16 16v48c0 8.8 7.2 16 16 16s16-7.2 16-16V208c0-8.8-7.2-16-16-16zm-64 96c-13.3 0-24 10.7-24 24v16c0 4.4 3.6 8 8 8h32c4.4 0 8-3.6 8-8V312c0-13.3-10.7-24-24-24z"/></svg>