<svg xmlns="http://www.w3.org/2000/svg" viewBox="0 0 448 512"><!--! Font Awesome Pro 6.5.1 by @fontawesome - https://fontawesome.com License - https://fontawesome.com/license (Commercial License) Copyright 2023 Fonticons, Inc. --><path d="M0 96v64H448V96c0-53-43-96-96-96H96C43 0 0 43 0 96zM56 80a24 24 0 1 1 48 0A24 24 0 1 1 56 80zM176 56a24 24 0 1 1 0 48 24 24 0 1 1 0-48zm72 24a24 24 0 1 1 48 0 24 24 0 1 1 -48 0zM368 56a24 24 0 1 1 0 48 24 24 0 1 1 0-48zm16 200V448H64l0-192H384zM64 192H0v64V448c0 35.3 28.7 64 64 64H384c35.3 0 64-28.7 64-64V256 192H384 64zm48 96c-8.8 0-16 7.2-16 16s7.2 16 16 16H336c8.8 0 16-7.2 16-16s-7.2-16-16-16H112z"/></svg>