<svg xmlns="http://www.w3.org/2000/svg" viewBox="0 0 576 512"><!--! Font Awesome Pro 6.5.2 by @fontawesome - https://fontawesome.com License - https://fontawesome.com/license (Commercial License) Copyright 2024 Fonticons, Inc. --><path d="M559.6 16.4c21.9 21.9 21.9 57.3 0 79.2L306.9 348.3l-79.2-79.2L480.4 16.4c21.9-21.9 57.3-21.9 79.2 0zM205.1 291.7l79.2 79.2-.1 .1c2.5 9.3 3.8 19 3.8 29c0 61.9-50.1 112-112 112H32c-17.7 0-32-14.3-32-32s14.3-32 32-32h4.8c17.6 0 29.6-18.9 27.8-36.4c-.4-3.8-.6-7.7-.6-11.6c0-61.9 50.1-112 112-112c10 0 19.8 1.3 29 3.8l.1-.1z"/></svg>