<svg xmlns="http://www.w3.org/2000/svg" viewBox="0 0 512 512"><!--! Font Awesome Pro 6.5.1 by @fontawesome - https://fontawesome.com License - https://fontawesome.com/license (Commercial License) Copyright 2023 Fonticons, Inc. --><path d="M256 192c0-17.7 14.3-31.9 32-32.6c108.6-4.4 192-31.1 192-63.4c0-35.3-100.3-64-224-64S32 60.7 32 96c0 13.8 15.3 26.6 41.3 37C86.5 138.3 96 150.6 96 164.8V272c0 17.7 14.3 32 32 32s32-14.3 32-32V171.7c0-9.5 8.1-16.8 17.5-15.7c8.1 .9 14.5 7.6 14.5 15.7V224c0 17.7 14.3 32 32 32s32-14.3 32-32V192zM192 80c0-8.8 7.2-16 16-16h96c8.8 0 16 7.2 16 16s-7.2 16-16 16H208c-8.8 0-16-7.2-16-16zM14.9 133C5.3 141.4 0 150.5 0 160c0 20.3 24.2 38.8 64 52.9V164.8c0-.1-.1-.2-.2-.4c-.4-.5-1.2-1.3-2.4-1.8c-14.7-5.9-28.7-13.4-39.6-22.9c-2.3-2-4.6-4.3-6.8-6.8zM286.1 239.5C413.3 234.8 512 201 512 160c0-9.5-5.3-18.6-14.9-27c-4 4.5-8.5 8.4-12.7 11.5c-13.4 10-30.9 17.8-49.8 24C396.6 181 345.5 189 289.3 191.3c-.5 0-.9 .2-1.2 .5c-.1 .1-.1 .2-.1 .2l0 32c0 5.3-.7 10.5-1.9 15.5zM7.2 221.1C2.5 227.2 0 233.5 0 240c0 21 25.8 40 68 54.3c-2.6-6.9-4-14.5-4-22.3V246.7c-21.5-6.8-41.1-15.2-56.8-25.6zM256 320c141.4 0 256-35.8 256-80c0-6.5-2.5-12.8-7.2-18.9c-16.1 10.6-36.2 19.1-58.3 26c-47.8 14.9-111.2 24-180.2 24.8c-11.3 10-26.1 16.1-42.4 16.1c-11.8 0-22.9-3.2-32.4-8.8c-1.6 14.1-7.8 26.9-17 36.7c25.6 2.7 52.9 4.1 81.4 4.1zm256 0c0-6.5-2.5-12.8-7.2-18.9c-16.1 10.6-36.2 19.1-58.3 26C396.4 342.8 329 352 256 352s-140.4-9.2-190.6-24.9c-22-6.9-42.2-15.4-58.3-26C2.5 307.2 0 313.5 0 320c0 44.2 114.6 80 256 80s256-35.8 256-80zm0 80c0-6.5-2.5-12.8-7.2-18.9c-16.1 10.6-36.2 19.1-58.3 26C396.4 422.8 329 432 256 432s-140.4-9.2-190.6-24.9c-22-6.9-42.2-15.4-58.3-26C2.5 387.2 0 393.5 0 400c0 44.2 114.6 80 256 80s256-35.8 256-80z"/></svg>