<svg xmlns="http://www.w3.org/2000/svg" viewBox="0 0 512 512"><!--! Font Awesome Pro 6.5.2 by @fontawesome - https://fontawesome.com License - https://fontawesome.com/license (Commercial License) Copyright 2024 Fonticons, Inc. --><path d="M0 224C0 100.3 100.3 0 224 0c35.3 0 68.9 8.2 98.7 22.8C341.9 32.3 352 51.7 352 70.7c0 14.5-5.7 28.3-16 38.5L109.2 336C99 346.3 85.1 352 70.7 352c-19 0-38.4-10.1-47.8-29.3C8.2 292.9 0 259.3 0 224zM480 32a32 32 0 1 1 0 64 32 32 0 1 1 0-64zM352 448a32 32 0 1 1 0 64 32 32 0 1 1 0-64zM96 480a32 32 0 1 1 -64 0 32 32 0 1 1 64 0zM359 167c9.4-9.4 24.6-9.4 33.9 0l8.3 8.3c16.7 16.7 38.6 27.2 62.1 29.8l27.4 3c13.2 1.5 22.7 13.3 21.2 26.5s-13.3 22.7-26.5 21.2l-27.4-3c-34.3-3.8-66.3-19.2-90.7-43.6L359 201c-9.4-9.4-9.4-24.6 0-33.9zM201 359l8.3 8.2c24.4 24.4 39.8 56.4 43.6 90.7l3 27.4c1.5 13.2-8 25-21.2 26.5s-25-8-26.5-21.2l-3-27.4c-2.6-23.5-13.1-45.4-29.8-62.1L167 393c-9.4-9.4-9.4-24.6 0-33.9s24.6-9.4 33.9 0zM503.5 506.3c-10.1 8.6-25.3 7.3-33.8-2.8l-8.5-10c-12.5-14.8-19.1-33.7-18.6-53c.5-16.6-12.4-30.6-29-31.6l-30-1.8c-42.5-2.5-75.3-38.3-74.2-80.8c.2-7.6-2.4-15-7.3-20.7l-8.5-10c-8.6-10.1-7.3-25.3 2.8-33.8s25.3-7.3 33.8 2.8l8.5 10c12.5 14.8 19.1 33.7 18.6 53c-.5 16.6 12.4 30.6 29 31.6l30 1.8c42.5 2.5 75.3 38.3 74.2 80.8c-.2 7.6 2.4 15 7.3 20.7l8.5 10c8.6 10.1 7.3 25.3-2.8 33.8z"/></svg>