<svg xmlns="http://www.w3.org/2000/svg" viewBox="0 0 512 512"><!--! Font Awesome Pro 6.5.1 by @fontawesome - https://fontawesome.com License - https://fontawesome.com/license (Commercial License) Copyright 2023 Fonticons, Inc. --><path d="M178.1 15.3C183 9.9 192 13.4 192 20.7V71.2c18.3 9.8 34.3 28.9 42.5 53.6c14.3 42.9-.3 86.2-32.6 96.8s-70.1-15.6-84.4-58.5c-4-11.9-5.7-23.9-5.5-35.2h0c0-25.7 9.6-50.6 26.9-69.6l39.2-43.1zm132 206.3c-32.3-10.6-46.9-53.9-32.6-96.8c8.2-24.7 24.2-43.8 42.5-53.6V20.7c0-7.3 9-10.8 13.9-5.4l39.2 43.1c17.3 19 26.9 43.9 26.9 69.6h0c.2 11.3-1.5 23.2-5.5 35.1c-14.3 42.9-52.1 69.1-84.4 58.5zm-209.7 8.9c18.9 32.4 14.3 70.1-10.2 84.1s-59.7-.9-78.5-33.3C3.7 267.8-.1 253.3 0 240H0v-3.2c0-13.5 4.3-26.7 12.2-37.6l37.3-51.3c4.6-6.3 14.5-3 14.5 4.7v44.2c13.9 6.1 27.1 17.8 36.4 33.7zM69.2 433.2C121.6 291.9 214.7 256 256 256s134.4 35.9 186.8 177.2c3.6 9.7 5.2 20.1 5.2 30.5v1.6c0 25.8-20.9 46.7-46.7 46.7c-11.5 0-22.9-1.4-34-4.2l-88-22c-15.3-3.8-31.3-3.8-46.6 0l-88 22c-11.1 2.8-22.5 4.2-34 4.2C84.9 512 64 491.1 64 465.3v-1.6c0-10.4 1.6-20.7 5.2-30.5zM421.8 314.7c-24.5-14-29.1-51.7-10.2-84.1c9.3-15.9 22.4-27.6 36.4-33.7V152.6c0-7.7 9.9-11 14.5-4.7l37.3 51.3c8 10.9 12.2 24.1 12.2 37.6V240h0c.1 13.3-3.7 27.8-11.6 41.4c-18.9 32.4-54 47.3-78.5 33.3z"/></svg>