<svg xmlns="http://www.w3.org/2000/svg" viewBox="0 0 576 512"><!--! Font Awesome Pro 6.5.2 by @fontawesome - https://fontawesome.com License - https://fontawesome.com/license (Commercial License) Copyright 2024 Fonticons, Inc. --><path d="M448 238.1V160h16l9.8 19.6c12.5 25.1 42.2 36.4 68.3 26c20.5-8.2 33.9-28 33.9-50.1V80c0-19.1-8.4-36.3-21.7-48H560c8.8 0 16-7.2 16-16s-7.2-16-16-16H480 448C378.4 0 321.7 55.6 320 124.8L184.9 34.7c-4.9-3.3-11.2-3.6-16.4-.8s-8.5 8.2-8.5 14.1c0 48.1 3.8 99.9 26 139.8c9.2 16.6 21.7 31.3 38.2 42.7c-7.2-2.5-14-5.4-20.3-8.8c-22.5-12.1-38.6-29.4-49.9-49.8c-7.3-13.2-12.7-27.8-16.5-43c-25.9 3.5-48.1 18.6-61.1 40C33.2 174.5 0 211.4 0 256v56c0 13.3 10.7 24 24 24s24-10.7 24-24V256c0-13.4 6.6-25.2 16.7-32.5c1.6 13 6.3 25.4 13.6 36.4l28.2 42.4c8.3 12.4 6.4 28.7-1.2 41.6c-16.5 28-20.6 62.2-10 93.9l17.5 52.4c4.4 13.1 16.6 21.9 30.4 21.9h33.7c21.8 0 37.3-21.4 30.4-42.1l-20.8-62.5c-2.1-6.4-.5-13.4 4.3-18.2l12.7-12.7c13.2-13.2 20.6-31.1 20.6-49.7c0-2.3-.1-4.6-.3-6.9l84 24c4.1 1.2 8.2 2.1 12.3 2.8V480c0 17.7 14.3 32 32 32h32c17.7 0 32-14.3 32-32V315.7c19.2-19.2 31.5-45.7 32-75.7h0v-1.9zM496 64a16 16 0 1 1 0 32 16 16 0 1 1 0-32z"/></svg>