<svg xmlns="http://www.w3.org/2000/svg" viewBox="0 0 576 512"><!--! Font Awesome Pro 6.5.2 by @fontawesome - https://fontawesome.com License - https://fontawesome.com/license (Commercial License) Copyright 2024 Fonticons, Inc. --><path d="M95.6 16.4L226.3 147.1l-79.2 79.2L16.4 95.6c-21.9-21.9-21.9-57.3 0-79.2s57.3-21.9 79.2 0zM400 512c-53.6 0-98.5-37.7-109.4-88.1L423.9 290.6c50.3 11 88.1 55.8 88.1 109.4c0 3.9-.2 7.8-.6 11.6c-1.8 17.5 10.2 36.4 27.8 36.4H544c17.7 0 32 14.3 32 32s-14.3 32-32 32H400zM501.3 19.3l23.4 23.4c25 25 25 65.5 0 90.5l-56.4 56.4L354.3 75.7l56.4-56.4c25-25 65.5-25 90.5 0zM76.9 353.2L331.7 98.3 445.7 212.3 190.8 467.1c-6.7 6.7-15.1 11.6-24.2 14.2l-104 29.7c-8.4 2.4-17.4 .1-23.6-6.1s-8.5-15.2-6.1-23.6l29.7-104c2.6-9.2 7.5-17.5 14.2-24.2z"/></svg>