<svg xmlns="http://www.w3.org/2000/svg" viewBox="0 0 512 512"><!--! Font Awesome Pro 6.5.2 by @fontawesome - https://fontawesome.com License - https://fontawesome.com/license (Commercial License) Copyright 2024 Fonticons, Inc. --><path d="M475.3 11.3C468.1 4.1 458.2 0 448 0s-20.1 4.1-27.3 11.3L390.6 41.4l80 80 30.1-30.1C507.9 84.1 512 74.2 512 64s-4.1-20.1-11.3-27.3L475.3 11.3zm-233 76.3c3.1-3.1 8.2-3.1 11.3 0L283 117 72.8 327.2C67 333 62.8 340.1 60.6 348L32.8 445.3 7 471c-9.4 9.4-9.4 24.6 0 33.9s24.6 9.4 33.9 0l25.7-25.7L164 451.4c7.8-2.2 15-6.4 20.8-12.2L436.7 187.3c7.2-7.2 11.3-17.1 11.3-27.3s-4.1-20.1-11.3-27.3L379.3 75.3C372.1 68.1 362.2 64 352 64s-20.1 4.1-27.3 11.3L317 83 287.6 53.7c-21.9-21.9-57.3-21.9-79.2 0L103 159c-9.4 9.4-9.4 24.6 0 33.9s24.6 9.4 33.9 0L242.3 87.6zM89.1 422.9l17.3-60.5 43.2 43.2L89.1 422.9z"/></svg>