<svg xmlns="http://www.w3.org/2000/svg" viewBox="0 0 512 512"><!--! Font Awesome Pro 6.5.2 by @fontawesome - https://fontawesome.com License - https://fontawesome.com/license (Commercial License) Copyright 2024 Fonticons, Inc. --><path d="M438.1 32.2c4.5-12.5-1.9-26.2-14.3-30.8S397.5 3.3 393 15.8l-4.6 12.7L328.7 6.7c-12.5-4.5-26.2 1.9-30.8 14.3L259.6 126.3c-4.5 12.5 1.9 26.2 14.3 30.8l59.7 21.7-15.4 42.4-28.8-10.8c-9.7-3.7-18.4-9.6-25.4-17.4L235 160.2c-18.2-20.5-44.3-32.2-71.8-32.2H135.6c-36.4 0-69.6 20.5-85.9 53.1L3.4 273.7c-7.9 15.8-1.5 35 14.3 42.9s35 1.5 42.9-14.3L80 263.6V480c0 17.7 14.3 32 32 32s32-14.3 32-32V352h20.2L192 407.6V480c0 17.7 14.3 32 32 32s32-14.3 32-32V407.6c0-9.9-2.3-19.7-6.8-28.6L216 312.4V235.2l.3 .3c13.8 15.6 31.2 27.5 50.7 34.8l29.3 11L289 301.5c-4.5 12.5 1.9 26.2 14.3 30.8s26.2-1.9 30.8-14.3l44.6-122.6 60.6 22c12.5 4.5 26.2-1.9 30.8-14.3L508.4 97.7c4.5-12.5-1.9-26.2-14.3-30.8l-60.6-22 4.6-12.7zM192 48A48 48 0 1 0 96 48a48 48 0 1 0 96 0z"/></svg>