<svg xmlns="http://www.w3.org/2000/svg" viewBox="0 0 640 512"><!--! Font Awesome Pro 6.5.2 by @fontawesome - https://fontawesome.com License - https://fontawesome.com/license (Commercial License) Copyright 2024 Fonticons, Inc. --><path d="M32 48a48 48 0 1 1 96 0A48 48 0 1 1 32 48zM96 241.7v65.1l49.9 49.9c9 9 14.1 21.2 14.1 33.9V480c0 17.7-14.3 32-32 32s-32-14.3-32-32V397.3L18.7 320C6.7 308 0 291.7 0 274.7V186.6C0 154.2 26.2 128 58.6 128c24.1 0 46.5 12 59.9 32l42.6 64H224c12.9 0 24.1 7.7 29.1 18.7l295-49.2L515.3 95c-2.2-6.5-3.3-13.4-3.3-20.2V32c0-17.7 14.3-32 32-32h64c17.7 0 32 14.3 32 32V178.2 216v8V480c0 17.7-14.3 32-32 32s-32-14.3-32-32V384H256v96c0 17.7-14.3 32-32 32s-32-14.3-32-32V288H152.6c-16 0-31-8-39.9-21.4L96 241.7zM0 480L0 346.5l64 64V480v0c0 17.7-14.3 32-32 32s-32-14.3-32-32zM280 336a24 24 0 1 0 0-48 24 24 0 1 0 0 48z"/></svg>