<svg xmlns="http://www.w3.org/2000/svg" viewBox="0 0 640 512"><!--! Font Awesome Pro 6.5.1 by @fontawesome - https://fontawesome.com License - https://fontawesome.com/license (Commercial License) Copyright 2023 Fonticons, Inc. --><path d="M240 96a48 48 0 1 0 0-96 48 48 0 1 0 0 96zM373.5 85.3c-5.9-11.9-20.3-16.7-32.2-10.7s-16.7 20.3-10.7 32.2l37.4 74.7L360 192H304l-61.7-55.6c-11.8-10.6-27-16.4-42.8-16.4h-.9c-23.7 0-45.5 13.1-56.6 34.1l-35.3 66.6c-11.4 21.6-9.4 47.8 5.3 67.4H99.8c-12.1 0-23.2 6.8-28.6 17.7l-32 64c-2.5 5-3.6 10.2-3.4 15.2c4-.6 8.1-.9 12.3-.9H272c26.2 0 49.4 12.6 64 32H450l36 48H440c-13.3 0-24 10.7-24 24s10.7 24 24 24H576c6.4 0 12.5-2.5 17-7l40-40c9.4-9.4 9.4-24.6 0-33.9s-24.6-9.4-33.9 0l-33 33H546l-46-61.3 68.9-45.9c4.5-3 7.1-8 7.1-13.3V265.9c0-6.1-3.4-11.6-8.8-14.3L419.8 177.9 373.5 85.3zM298.5 256H312l-24 32H264l-72-32 32-48 29.3 29.3c12 12 28.3 18.7 45.3 18.7zM48 416c-26.5 0-48 21.5-48 48s21.5 48 48 48H272c26.5 0 48-21.5 48-48s-21.5-48-48-48H48z"/></svg>