<svg xmlns="http://www.w3.org/2000/svg" viewBox="0 0 512 512"><!--! Font Awesome Pro 6.5.2 by @fontawesome - https://fontawesome.com License - https://fontawesome.com/license (Commercial License) Copyright 2024 Fonticons, Inc. --><path d="M154.2 352c3.8-29.6 5.8-62.1 5.8-96c0-18.3-.6-36.1-1.7-53.4c12.4 8.3 29.4 7 40.4-4l23.1-23.1c9.9-9.9 23.4-15.5 37.5-15.5c1.9 0 3.8 .1 5.6 .3L233.6 254c-9.3 28 1.7 58.8 26.8 74.5l86.2 53.9-25.4 88.8c-4.9 17 5 34.7 22 39.6s34.7-5 39.6-22l28.7-100.4c5.9-20.6-2.6-42.6-20.7-53.9L334 299l30.9-82.4 5.1 12.3C385 264.7 419.9 288 458.7 288H480c17.7 0 32-14.3 32-32s-14.3-32-32-32H458.7c-12.9 0-24.6-7.8-29.5-19.7l-6.3-15c-14.6-35.1-44.1-61.9-80.5-73.1l-48.7-15c-11.1-3.4-22.7-5.2-34.4-5.2c-31 0-60.8 12.3-82.7 34.3l-23.1 23.1c0 0 0 0-.1 .1C141 63.1 112.8 0 80 0C35.8 0 0 114.6 0 256S35.8 512 80 512c25.3 0 47.8-37.5 62.5-96h55.1c19 0 36.2-11.2 43.9-28.5L253 361.6l-9.5-6c-17.5-10.9-30.5-26.8-37.9-44.9L187.2 352h-33zM368 96a48 48 0 1 0 0-96 48 48 0 1 0 0 96z"/></svg>