<svg xmlns="http://www.w3.org/2000/svg" viewBox="0 0 576 512"><!--! Font Awesome Pro 6.5.1 by @fontawesome - https://fontawesome.com License - https://fontawesome.com/license (Commercial License) Copyright 2023 Fonticons, Inc. --><path d="M128 0C110.3 0 96 14.3 96 32V384c0 17.7 14.3 32 32 32h64c17.7 0 32-14.3 32-32V32c0-17.7-14.3-32-32-32H128zM64 32C28.7 32 0 60.7 0 96V448c0 35.3 28.7 64 64 64H512c35.3 0 64-28.7 64-64V96c0-35.3-28.7-64-64-64H256V384c0 35.3-28.7 64-64 64H128c-35.3 0-64-28.7-64-64V32zm256 96c0-17.7 14.3-32 32-32H480c17.7 0 32 14.3 32 32v32c0 17.7-14.3 32-32 32H352c-17.7 0-32-14.3-32-32V128zm32 192a32 32 0 1 1 0-64 32 32 0 1 1 0 64zm160-32a32 32 0 1 1 -64 0 32 32 0 1 1 64 0zM480 448a32 32 0 1 1 0-64 32 32 0 1 1 0 64zm-96-32a32 32 0 1 1 -64 0 32 32 0 1 1 64 0z"/></svg>