<svg xmlns="http://www.w3.org/2000/svg" viewBox="0 0 512 512"><!--! Font Awesome Pro 6.5.2 by @fontawesome - https://fontawesome.com License - https://fontawesome.com/license (Commercial License) Copyright 2024 Fonticons, Inc. --><path d="M0 141.3c0-8.5 3.4-16.6 9.9-22.1C38.2 95.4 125.9 32 256 32s217.8 63.4 246.1 87.2c6.5 5.5 9.9 13.6 9.9 22.1V176c0 17.7-14.3 32-32 32H437.7c-13.1 0-24.9-8-29.7-20.1l-19.4-48.6c-2.9-7.3-8.4-13.2-15.7-16c-18.6-7-59.5-19.3-116.8-19.3s-98.2 12.3-116.8 19.3c-7.3 2.8-12.8 8.7-15.7 16L104 187.9C99.2 200 87.4 208 74.3 208H32c-17.7 0-32-14.3-32-32V141.3zM32 432V401c0-11.1 2.9-22.1 8.4-31.8l101.1-177C153 172.3 174.2 160 197.1 160H314.9c23 0 44.2 12.3 55.6 32.2l101.1 177c5.5 9.7 8.4 20.6 8.4 31.8v31c0 26.5-21.5 48-48 48H80c-26.5 0-48-21.5-48-48zM328 312a72 72 0 1 0 -144 0 72 72 0 1 0 144 0z"/></svg>