<svg xmlns="http://www.w3.org/2000/svg" viewBox="0 0 640 512"><!--! Font Awesome Pro 6.5.2 by @fontawesome - https://fontawesome.com License - https://fontawesome.com/license (Commercial License) Copyright 2024 Fonticons, Inc. --><path d="M192 64c0-35.3 28.7-64 64-64H576c35.3 0 64 28.7 64 64v69.6c-12.9-6.1-27.9-7.1-41.7-2.5l-98.9 33-37.8-60.5c-2.9-4.7-8.1-7.5-13.6-7.5s-10.6 2.8-13.6 7.5L388 177.9l-15.3-19.7c-3-3.9-7.7-6.2-12.6-6.2s-9.6 2.3-12.6 6.2l-56 72c-3.8 4.8-4.4 11.4-1.7 16.9s8.3 9 14.4 9h64l0 64H256c-35.3 0-64-28.7-64-64V64zM319.5 404.6c-13.8 10.3-25.2 25.2-29.6 43.4H64c-35.3 0-64-28.7-64-64V160c0-35.3 28.7-64 64-64h96V360c0 17.7 14.3 32 32 32H342.2c-8.2 3.3-15.8 7.5-22.6 12.6zM320 96a32 32 0 1 0 -64 0 32 32 0 1 0 64 0zM56 168v16c0 8.8 7.2 16 16 16H88c8.8 0 16-7.2 16-16V168c0-8.8-7.2-16-16-16H72c-8.8 0-16 7.2-16 16zm16 80c-8.8 0-16 7.2-16 16v16c0 8.8 7.2 16 16 16H88c8.8 0 16-7.2 16-16V264c0-8.8-7.2-16-16-16H72zM56 360v16c0 8.8 7.2 16 16 16H88c8.8 0 16-7.2 16-16V360c0-8.8-7.2-16-16-16H72c-8.8 0-16 7.2-16 16zM630 164.5c6.3 4.5 10 11.8 10 19.5v48V392c0 1.2-.1 2.4-.3 3.6c.2 1.5 .3 2.9 .3 4.4c0 26.5-28.7 48-64 48s-64-21.5-64-48s28.7-48 64-48c5.5 0 10.9 .5 16 1.5V265.3l-144 48V464c0 26.5-28.7 48-64 48s-64-21.5-64-48s28.7-48 64-48c5.5 0 10.9 .5 16 1.5V296 248c0-10.3 6.6-19.5 16.4-22.8l192-64c7.3-2.4 15.4-1.2 21.6 3.3z"/></svg>