<svg xmlns="http://www.w3.org/2000/svg" viewBox="0 0 448 512"><!--! Font Awesome Pro 6.5.1 by @fontawesome - https://fontawesome.com License - https://fontawesome.com/license (Commercial License) Copyright 2023 Fonticons, Inc. --><path d="M32 64C14.3 64 0 78.3 0 96s14.3 32 32 32H96V284c0 39.7-9.3 78.9-27 114.5l-1.6 3.2c-7.9 15.8-1.5 35 14.3 42.9s35 1.5 42.9-14.3l1.6-3.2C148.4 382.7 160 333.7 160 284V128H288V366.6c0 45 36.5 81.4 81.4 81.4c30.8 0 59-17.4 72.8-45l2.3-4.7c7.9-15.8 1.5-35-14.3-42.9s-35-1.5-42.9 14.3l-2.3 4.7c-3 5.9-9 9.6-15.6 9.6c-9.6 0-17.4-7.8-17.4-17.4V128h64c17.7 0 32-14.3 32-32s-14.3-32-32-32H32z"/></svg>