<svg xmlns="http://www.w3.org/2000/svg" viewBox="0 0 576 512"><!--! Font Awesome Pro 6.5.1 by @fontawesome - https://fontawesome.com License - https://fontawesome.com/license (Commercial License) Copyright 2023 Fonticons, Inc. --><path d="M64 64C28.7 64 0 92.7 0 128V384c0 35.3 28.7 64 64 64H512c35.3 0 64-28.7 64-64V128c0-35.3-28.7-64-64-64H64zM512 224V384H432V315.7c9.6-5.5 16-15.9 16-27.7V224h64zM400 384H304V315.7c9.6-5.5 16-15.9 16-27.7V224h64v64c0 11.8 6.4 22.2 16 27.7V384zm-128 0H176V315.7c9.6-5.5 16-15.9 16-27.7V224h64v64c0 11.8 6.4 22.2 16 27.7V384zm-128 0H64V224h64v64c0 11.8 6.4 22.2 16 27.7V384z"/></svg>