<svg xmlns="http://www.w3.org/2000/svg" viewBox="0 0 512 512"><!--! Font Awesome Pro 6.5.1 by @fontawesome - https://fontawesome.com License - https://fontawesome.com/license (Commercial License) Copyright 2023 Fonticons, Inc. --><path d="M462.4 373.5l0 0-.1-.2-.3-.8c-.3-.7-.7-1.8-1.3-3.3c-1.2-2.9-3-7.2-5.5-12.7c-5-11-12.6-26.7-23.1-45.3c-21-37.3-53.6-86-99.5-132s-94.7-78.5-132-99.5c-18.6-10.5-34.3-18.1-45.3-23.1c-5.5-2.5-9.8-4.3-12.7-5.5c-1.4-.6-2.5-1-3.3-1.3l-.8-.3-.2-.1 0 0 0 0c-6.2-2.3-10.4-8.2-10.5-14.8s3.9-12.6 10-15.1C169.5 7 204 0 240 0c59.6 0 114.7 19.2 159.5 51.6l9.4-9.8c6-6.2 14.2-9.7 22.8-9.8s16.9 3.3 22.9 9.4l16 16c6.1 6.1 9.5 14.3 9.4 22.9s-3.6 16.8-9.8 22.8l-9.8 9.4C492.8 157.3 512 212.4 512 272c0 36-7 70.5-19.8 102c-2.5 6.1-8.5 10.1-15.1 10s-12.5-4.3-14.8-10.5l0 0zM9.4 502.6C-3 490.3-3.1 470.4 8.9 457.8l272-282.9c9.7 8.4 19.5 17.4 29.1 27s18.6 19.4 27 29.1L54.2 503.1c-12.6 12.1-32.5 11.9-44.8-.4z"/></svg>