<svg xmlns="http://www.w3.org/2000/svg" viewBox="0 0 576 512"><!--! Font Awesome Pro 6.5.2 by @fontawesome - https://fontawesome.com License - https://fontawesome.com/license (Commercial License) Copyright 2024 Fonticons, Inc. --><path d="M525.8 225.1c3.1 7.8 8.8 14.4 16.3 18.2l16.2 8.1c15.8 7.9 22.2 27.1 14.3 42.9s-27.1 22.2-42.9 14.3l-29.6-14.8c-14.7-7.4-31.7-8.8-47.4-3.9l-41.6 12.8c-23.3 7.2-48.3 6.5-71.2-1.8l-30-10.9c-14.1-5.1-29.6-5.1-43.7 0l-30 10.9c-22.9 8.3-47.9 9-71.2 1.8l-41.6-12.8c-15.7-4.8-32.7-3.4-47.4 3.9L46.3 308.6c-15.8 7.9-35 1.5-42.9-14.3s-1.5-35 14.3-42.9l16.2-8.1c7.5-3.8 13.2-10.4 16.3-18.2C87.9 130.7 180.1 64 288 64s200.1 66.7 237.8 161.1zM199.2 129.7c-7.9-4-17.5-.7-21.5 7.2l-16 32c-4 7.9-.7 17.5 7.2 21.5c2.2 1.1 4.5 1.6 6.8 1.7l.7 0c5.7-.1 11.2-3.3 14-8.8l16-32c4-7.9 .7-17.5-7.2-21.5zm177.7 0c-7.9 4-11.1 13.6-7.2 21.5l16 32c2.7 5.5 8.2 8.7 14 8.8l.7 0c2.3 0 4.6-.6 6.8-1.7c7.9-4 11.1-13.6 7.2-21.5l-16-32c-4-7.9-13.6-11.1-21.5-7.2zM288 128c-8.8 0-16 7.2-16 16l0 32c0 8.8 7.2 16 16 16s16-7.2 16-16l0-32c0-8.8-7.2-16-16-16zm10.9 192.1l30 10.9c29.5 10.7 61.6 11.5 91.6 2.3l41.6-12.8c7.9-2.4 16.4-1.7 23.7 2l29.6 14.8c.4 .2 .9 .4 1.3 .6l-22.1 66.4c-8.7 26.1-33.2 43.8-60.7 43.8l-291.7 0c-27.5 0-52-17.6-60.7-43.8L59.3 337.9c.4-.2 .9-.4 1.3-.6l29.6-14.8c7.4-3.7 15.9-4.4 23.7-2l41.6 12.8c30 9.2 62.1 8.4 91.6-2.3l30-10.9c7.1-2.6 14.8-2.6 21.9 0z"/></svg>