<svg xmlns="http://www.w3.org/2000/svg" viewBox="0 0 640 512"><!--! Font Awesome Pro 6.5.2 by @fontawesome - https://fontawesome.com License - https://fontawesome.com/license (Commercial License) Copyright 2024 Fonticons, Inc. --><path d="M513.5 32c8 0 14.5 6.5 14.5 14.5V78c0 19.7-9 37.8-23.6 49.7c6.4 4.9 12.7 10.1 18.6 15.7c17.6-15.9 28.5-38.6 29-63.3h40c8.8 0 16 7.2 16 16v16c0 32.8-24.6 59.8-56.3 63.5l6.8 9C570 200 585 212.5 602.2 221.1L608 224h8c13.3 0 24 10.7 24 24v96c0 13.3-10.7 24-24 24H572.5c-22.2 21.2-49.7 36.2-79.8 43.3l-13 45.5C475.8 470.5 463.3 480 449 480H416c-17.7 0-32-14.3-32-32V416H320 272v32c0 17.7-14.3 32-32 32H207c-14.3 0-26.8-9.5-30.8-23.2L155 382.4C110.3 358 80 310.5 80 256V240H47.4C21.2 240 0 218.8 0 192.6c0-21.8 14.8-40.7 35.9-46l8.2-2c8.6-2.1 17.3 3.1 19.4 11.6s-3.1 17.3-11.6 19.4l-8.2 2c-6.9 1.7-11.7 7.9-11.7 15c0 8.5 6.9 15.4 15.4 15.4H83.2C98 135 162.6 80 240 80H362.4c14.5 0 28.8 1.3 42.7 3.9c8.1-19.5 25.4-34.4 47-39.1l58.4-12.5c1-.2 2-.3 3-.3zM468 256a20 20 0 1 0 0-40 20 20 0 1 0 0 40z"/></svg>