<svg xmlns="http://www.w3.org/2000/svg" viewBox="0 0 512 512"><!--! Font Awesome Pro 6.5.2 by @fontawesome - https://fontawesome.com License - https://fontawesome.com/license (Commercial License) Copyright 2024 Fonticons, Inc. --><path d="M112 318.1V254.7l25.8 9.9c14.7 5.6 31.1 4.9 45.1-2.2L259.8 224H288 432c44.2 0 80 35.8 80 80v13.2l-23.3 9.3-19.1-9.6c-8.2-4.1-17.7-4.5-26.2-1.1l-26.7 10.7-19.1-9.6c-8.2-4.1-17.7-4.5-26.2-1.1l-26.7 10.7-19.1-9.6c-8.2-4.1-17.7-4.5-26.2-1.1l-26.7 10.7-19.1-9.6c-8.2-4.1-17.7-4.5-26.2-1.1l-26.7 10.7-19.1-9.6c-8.2-4.1-17.7-4.5-26.2-1.1l-26.7 10.7L112 318.1zm0 35.8l2.4 1.2c8.2 4.1 17.7 4.5 26.2 1.1l26.7-10.7 19.1 9.6c8.2 4.1 17.7 4.5 26.2 1.1l26.7-10.7 19.1 9.6c8.2 4.1 17.7 4.5 26.2 1.1l26.7-10.7 19.1 9.6c8.2 4.1 17.7 4.5 26.2 1.1l26.7-10.7 19.1 9.6c8.2 4.1 17.7 4.5 26.2 1.1l26.7-10.7 19.1 9.6c8.2 4.1 17.7 4.5 26.2 1.1l11.4-4.6v50.5l-24 12-17.7-8.8c-9-4.5-19.6-4.5-28.6 0l-16.5 8.3-16.3-10.8c-2.6-1.8-5.7-2.7-8.9-2.7H224c-3.2 0-6.2 .9-8.9 2.7l-16.3 10.8-16.5-8.3c-9-4.5-19.6-4.5-28.6 0L136 414.1l-24-12V353.9zm37.3-119.2L34.4 190.6C13.4 179.6 0 157.8 0 133.8V128C0 92.7 28.7 64 64 64H176V32c0-17.7 14.3-32 32-32s32 14.3 32 32V198.1l-71.4 35.7c-6 3-13.1 3.4-19.3 .9zM112 437.9l9.7 4.8c9 4.5 19.6 4.5 28.6 0l17.7-8.8 16.5 8.3c10.3 5.1 22.5 4.4 32.1-2l7.4-4.9V480c0 17.7-14.3 32-32 32H144c-17.7 0-32-14.3-32-32V437.9zm288-2.7l7.4 4.9c9.6 6.4 21.8 7.1 32.1 2l16.5-8.3 17.7 8.8c9 4.5 19.6 4.5 28.6 0l9.7-4.8V480c0 17.7-14.3 32-32 32H432c-17.7 0-32-14.3-32-32V435.2zM200 144a24 24 0 1 0 -48 0 24 24 0 1 0 48 0z"/></svg>