<svg xmlns="http://www.w3.org/2000/svg" viewBox="0 0 448 512"><!--! Font Awesome Pro 6.5.1 by @fontawesome - https://fontawesome.com License - https://fontawesome.com/license (Commercial License) Copyright 2023 Fonticons, Inc. --><path d="M352 224a96 96 0 1 0 0-192 96 96 0 1 0 0 192zm22.1 254.4c14.9 4.8 30.7-1.8 37.9-15c7.4-13.5 4.2-30.8-8.4-40.6l-246-208.3c-40.6-34.1-101.2-28.8-135.2 11.8S-6.3 327.5 34.3 361.6c9.2 7.7 19.9 13.8 32 17.7l307.8 99.1zM64 288a32 32 0 1 1 64 0 32 32 0 1 1 -64 0z"/></svg>