<svg xmlns="http://www.w3.org/2000/svg" viewBox="0 0 512 512"><!--! Font Awesome Pro 6.5.1 by @fontawesome - https://fontawesome.com License - https://fontawesome.com/license (Commercial License) Copyright 2023 Fonticons, Inc. --><path d="M431.5 12.1c-1.1-4.5-4.2-8.4-8.4-10.5s-9.1-2.2-13.4-.4C393.8 8.1 383 20.8 378.1 35.4L363.3 20.7c-6.2-6.2-16.4-6.2-22.6 0C325.3 36.1 317.1 56 316.2 76.2C297.3 68.2 276.9 64 256 64c-41 0-80.3 16.3-109.3 45.3L45.3 210.7C16.3 239.7 0 279 0 320s16.3 80.3 45.3 109.3l37.5 37.5c29 29 68.3 45.3 109.3 45.3s80.3-16.3 109.3-45.3L402.7 365.3c29-29 45.3-68.3 45.3-109.3c0-20.9-4.2-41.3-12.2-60.2c20.2-.9 40.1-9.1 55.5-24.5c6.2-6.2 6.2-16.4 0-22.6l-14.7-14.7c14.6-4.9 27.3-15.8 34.1-31.6c1.8-4.3 1.7-9.2-.4-13.4s-5.9-7.3-10.5-8.4l-14.3-3.6C492.4 65 496 51.4 496 37.5V32c0-8.8-7.2-16-16-16h-5.5c-13.9 0-27.5 3.6-39.4 10.4l-3.6-14.3zM164.7 212.7c6.2-6.2 16.4-6.2 22.6 0L208 233.4l20.7-20.7c6.2-6.2 16.4-6.2 22.6 0s6.2 16.4 0 22.6l-32 32c-6.2 6.2-16.4 6.2-22.6 0l-32-32c-6.2-6.2-6.2-16.4 0-22.6zm-80 80c6.2-6.2 16.4-6.2 22.6 0L128 313.4l20.7-20.7c6.2-6.2 16.4-6.2 22.6 0s6.2 16.4 0 22.6l-32 32c-6.2 6.2-16.4 6.2-22.6 0l-32-32c-6.2-6.2-6.2-16.4 0-22.6zm182.6 0L288 313.4l20.7-20.7c6.2-6.2 16.4-6.2 22.6 0s6.2 16.4 0 22.6l-32 32c-6.2 6.2-16.4 6.2-22.6 0l-32-32c-6.2-6.2-6.2-16.4 0-22.6s16.4-6.2 22.6 0zM164.7 395.3c-6.2-6.2-6.2-16.4 0-22.6s16.4-6.2 22.6 0L208 393.4l20.7-20.7c6.2-6.2 16.4-6.2 22.6 0s6.2 16.4 0 22.6l-32 32c-6.2 6.2-16.4 6.2-22.6 0l-32-32z"/></svg>