<svg xmlns="http://www.w3.org/2000/svg" viewBox="0 0 640 512"><!--! Font Awesome Pro 6.5.1 by @fontawesome - https://fontawesome.com License - https://fontawesome.com/license (Commercial License) Copyright 2023 Fonticons, Inc. --><path d="M575.2 64c-32.1 0-62.1 16-79.9 42.7l-61.8 92.7c-3.9-4.8-8.6-9.1-14-12.7l-24-16c-4.7-3.2-9.7-5.6-14.9-7.4L442 71.2C471.7 26.7 521.7 0 575.2 0H608c17.7 0 32 14.3 32 32s-14.3 32-32 32H575.2zM333.4 206.2c9.8-14.7 29.7-18.7 44.4-8.9l24 16c14.7 9.8 18.7 29.7 8.9 44.4L287.8 442.1C258.6 485.8 209.6 512 157.1 512C70.3 512 0 441.7 0 354.9V272c0-26.5 21.5-48 48-48H208c26.5 0 48 21.5 48 48v50.3l77.4-116.1z"/></svg>