<svg xmlns="http://www.w3.org/2000/svg" viewBox="0 0 512 512"><!--! Font Awesome Pro 6.5.2 by @fontawesome - https://fontawesome.com License - https://fontawesome.com/license (Commercial License) Copyright 2024 Fonticons, Inc. --><path d="M456.1 31.1a1.5 1.5 0 1 0 -3 .6 1.5 1.5 0 1 0 3-.6zM414.7 83.9c10.7-6.4 20.4-11.5 28.9-15.5c-4.1 8.5-9.2 18.2-15.5 28.9c-4.4 7.4-9.2 15.1-14.4 23.1c-6.8-7.9-14.1-15.2-22-22c8-5.2 15.7-10.1 23.1-14.4zM65.7 340.2C10.4 418.3-14 481.7 8.1 503.9c35.2 35.2 174.7-47.3 311.6-184.2S539.1 43.3 503.9 8.1C481.7-14 418.3 10.4 340.2 65.7C314.4 54.3 286 48 256 48C141.1 48 48 141.1 48 256c0 30 6.3 58.4 17.7 84.2zm32.6 51.5c6.8 7.9 14.1 15.2 22 22c-8 5.2-15.7 10.1-23.1 14.4c-10.7 6.4-20.4 11.5-28.9 15.5c4.1-8.5 9.2-18.2 15.5-28.9c4.4-7.4 9.2-15.1 14.4-23.1zM31.1 456.1a1.5 1.5 0 1 0 .6-3 1.5 1.5 0 1 0 -.6 3zM56 479.7a1.8 1.8 0 1 0 3 1.9 1.8 1.8 0 1 0 -3-1.9zM479.7 56a1.8 1.8 0 1 0 1.9 3 1.8 1.8 0 1 0 -1.9-3zM256 464c114.9 0 208-93.1 208-208c0-16.1-1.8-31.8-5.3-46.9c-31.8 42.6-71.4 88.2-116.4 133.2s-90.6 84.6-133.2 116.4c15.1 3.5 30.7 5.3 46.9 5.3z"/></svg>