<svg xmlns="http://www.w3.org/2000/svg" viewBox="0 0 640 512"><!--! Font Awesome Pro 6.5.2 by @fontawesome - https://fontawesome.com License - https://fontawesome.com/license (Commercial License) Copyright 2024 Fonticons, Inc. --><path d="M40.7 16c4 .3 7.1 3.5 7.3 7.5L55.5 152H72.9L88.1 23.1c.5-4 3.9-7.1 7.9-7.1s7.5 3 7.9 7.1L119.1 152h17.3L144 23.5c.2-4 3.3-7.2 7.3-7.5s7.6 2.3 8.5 6.1l30.3 128.7c1.3 5.4 1.9 11 1.9 16.6c0 39.9-32.2 72.2-72 72.5V472c0 13.3-10.7 24-24 24s-24-10.7-24-24V240c-39.8-.3-72-32.6-72-72.5c0-5.6 .6-11.2 1.9-16.6L32.2 22.2c.9-3.9 4.5-6.5 8.5-6.1zm572.4 1c2-.7 4-1 6.1-1c11.5 0 20.9 9.3 20.9 20.9V216 320 472c0 13.3-10.7 24-24 24s-24-10.7-24-24V320H544c-17.7 0-32-14.3-32-32V160C512 59.2 596.2 23.2 613.1 17zM221.2 143.6L204.9 74.3C241.8 47.7 287.1 32 336 32c60.3 0 115 23.8 155.3 62.5C484.3 113.3 480 135 480 160v26.2C454.1 132.8 399.3 96 336 96c-44.9 0-85.5 18.5-114.6 48.3l-.2-.8zM336 480c-76.2 0-143.5-38.1-184-96.2V266.8c8.5-2.8 16.6-6.7 24-11.4l0 .6c0 88.4 71.6 160 160 160c68.1 0 126.2-42.5 149.3-102.4c9.2 21 29.3 36.2 53.2 38.2C502.6 427.6 425.4 480 336 480zM208 256a128 128 0 1 1 256 0 128 128 0 1 1 -256 0z"/></svg>