<svg xmlns="http://www.w3.org/2000/svg" viewBox="0 0 448 512"><!--! Font Awesome Pro 6.5.2 by @fontawesome - https://fontawesome.com License - https://fontawesome.com/license (Commercial License) Copyright 2024 Fonticons, Inc. --><path d="M182.4 72c8.3 14.3 23.8 24 41.6 24h64c26.5 0 48-21.5 48-48s-21.5-48-48-48H224c-17.8 0-33.3 9.7-41.6 24H168c-48.6 0-88 39.4-88 88v32H24c-13.3 0-24 10.7-24 24s10.7 24 24 24H424c13.3 0 24-10.7 24-24s-10.7-24-24-24H128V112c0-22.1 17.9-40 40-40h14.4zM48 224L73.7 455.1c3.6 32.4 31 56.9 63.6 56.9H310.7c32.6 0 60-24.5 63.6-56.9L400 224H48z"/></svg>