<svg xmlns="http://www.w3.org/2000/svg" viewBox="0 0 384 512"><!--! Font Awesome Pro 6.5.2 by @fontawesome - https://fontawesome.com License - https://fontawesome.com/license (Commercial License) Copyright 2024 Fonticons, Inc. --><path d="M192 0c8.8 0 16 7.2 16 16V32h80c17.7 0 32 14.3 32 32c17.7 0 32 14.3 32 32V464h8c13.3 0 24 10.7 24 24s-10.7 24-24 24H24c-13.3 0-24-10.7-24-24s10.7-24 24-24h8V96c0-17.7 14.3-32 32-32c0-17.7 14.3-32 32-32h80V16c0-8.8 7.2-16 16-16zM96 136v24h32V128H104c-4.4 0-8 3.6-8 8zm0 40v24c0 4.4 3.6 8 8 8h24V176H96zm72-48H144v32h32V136c0-4.4-3.6-8-8-8zm-24 48v32h24c4.4 0 8-3.6 8-8V176H144zm72-48c-4.4 0-8 3.6-8 8v24h32V128H216zm24 48H208v24c0 4.4 3.6 8 8 8h24V176zm16-48v32h32V136c0-4.4-3.6-8-8-8H256zm32 48H256v32h24c4.4 0 8-3.6 8-8V176zM96 256v48c0 8.8 7.2 16 16 16h48c8.8 0 16-7.2 16-16V256c0-8.8-7.2-16-16-16H112c-8.8 0-16 7.2-16 16z"/></svg>