<svg xmlns="http://www.w3.org/2000/svg" viewBox="0 0 512 512"><!--! Font Awesome Pro 6.5.2 by @fontawesome - https://fontawesome.com License - https://fontawesome.com/license (Commercial License) Copyright 2024 Fonticons, Inc. --><path d="M0 256a256 256 0 1 1 512 0A256 256 0 1 1 0 256zm384-64a128 128 0 1 0 -256 0 128 128 0 1 0 256 0zm-80-48c0 11.5-4 22-10.7 30.2C304.8 184.5 312 199.4 312 216c0 30.9-25.1 56-56 56s-56-25.1-56-56c0-16.6 7.2-31.5 18.7-41.8C212 166 208 155.5 208 144c0-26.5 21.5-48 48-48s48 21.5 48 48zm-48 16a16 16 0 1 0 0-32 16 16 0 1 0 0 32zm24 56a24 24 0 1 0 -48 0 24 24 0 1 0 48 0z"/></svg>