<svg xmlns="http://www.w3.org/2000/svg" viewBox="0 0 448 512"><!--! Font Awesome Pro 6.5.1 by @fontawesome - https://fontawesome.com License - https://fontawesome.com/license (Commercial License) Copyright 2023 Fonticons, Inc. --><path d="M32.2 160c-.1-1.3-.2-2.7-.2-4c0-20.9 14.5-38.3 34-42.9c-1.3-4.2-2-8.6-2-13.1c0-24.3 19.7-44 44-44c1.9 0 3.7 .1 5.6 .3C118.7 37.7 135.7 24 156 24c8.5 0 16.5 2.4 23.2 6.6C186.2 12.7 203.6 0 224 0s37.8 12.7 44.8 30.6c6.7-4.2 14.7-6.6 23.2-6.6c20.3 0 37.3 13.7 42.4 32.3c1.8-.2 3.7-.3 5.6-.3c24.3 0 44 19.7 44 44c0 4.6-.7 9-2 13.1c19.5 4.5 34 22 34 42.9c0 1.3-.1 2.7-.2 4H328.2 119.8 32.2zm-4 32H97.8l30.3 257.9c1 8.8 9 15.1 17.8 14s15.1-9 14-17.8L130 192h78V448c0 8.8 7.2 16 16 16s16-7.2 16-16V192h78L288.1 446.1c-1 8.8 5.2 16.7 14 17.8s16.7-5.2 17.8-14L350.2 192h69.6c15.6 0 28.2 12.6 28.2 28.2c0 2.5-.3 5.1-1 7.5L377.8 476.8C372 497.6 353.1 512 331.5 512h-215c-21.6 0-40.5-14.4-46.2-35.2L1 227.7c-.7-2.5-1-5-1-7.5C0 204.6 12.6 192 28.2 192z"/></svg>