<svg xmlns="http://www.w3.org/2000/svg" viewBox="0 0 512 512"><!--! Font Awesome Pro 6.5.2 by @fontawesome - https://fontawesome.com License - https://fontawesome.com/license (Commercial License) Copyright 2024 Fonticons, Inc. --><path d="M466.3 249.2C494.4 222.9 512 185.5 512 144C512 64.5 447.5 0 368 0c-39.8 0-75.9 16.2-102 42.3C238.6 69.8 205 95 170.9 113.6c-24.1 13.2-44 33.1-57.3 57.3C95 205 69.8 238.6 42.3 266C16.2 292.1 0 328.2 0 368c0 79.5 64.5 144 144 144c30.3 0 58.4-9.3 81.5-25.3c28.1-19.3 60.2-35.3 92.5-46.2c44.1-14.9 80.1-50.9 93.1-99.2c9.2-34.2 29.4-67.9 55.2-92.1zM384 168a24 24 0 1 1 0 48 24 24 0 1 1 0-48zM192 200a24 24 0 1 1 0 48 24 24 0 1 1 0-48zM136 416a24 24 0 1 1 48 0 24 24 0 1 1 -48 0z"/></svg>