<svg xmlns="http://www.w3.org/2000/svg" viewBox="0 0 512 512"><!--! Font Awesome Pro 6.5.2 by @fontawesome - https://fontawesome.com License - https://fontawesome.com/license (Commercial License) Copyright 2024 Fonticons, Inc. --><path d="M138.6 32C62.1 32 0 94.1 0 170.6C0 253.3 40.9 326.5 103.7 371L71.3 417C58.6 435 62.9 460 81 472.7s43 8.4 55.7-9.7l40-56.8c21.8 6.4 44.9 9.8 68.7 9.8H256h10.6c23.9 0 46.9-3.4 68.7-9.8l40 56.8c12.7 18.1 37.7 22.4 55.7 9.7s22.4-37.7 9.7-55.7l-32.4-46C471.1 326.5 512 253.3 512 170.6C512 94.1 449.9 32 373.4 32H364c-42.6 0-81 18-108 46.8C229 50 190.6 32 148 32h-9.4zM216 180v7.4c0 15.5-4.8 30.7-13.7 43.4l-52.5 74.7C107.5 275.6 80 226.3 80 170.6c0-32.4 26.2-58.6 58.6-58.6H148c37.6 0 68 30.4 68 68zm40 113.5L285.2 335c-6.1 .7-12.3 1-18.6 1H256 245.4c-6.3 0-12.5-.3-18.6-1L256 293.5zm53.7-62.6C300.8 218.2 296 203 296 187.4V180c0-37.6 30.4-68 68-68h9.4c32.4 0 58.6 26.2 58.6 58.6c0 55.7-27.5 105-69.7 134.9l-52.5-74.7z"/></svg>