<svg xmlns="http://www.w3.org/2000/svg" viewBox="0 0 576 512"><!--! Font Awesome Pro 6.5.2 by @fontawesome - https://fontawesome.com License - https://fontawesome.com/license (Commercial License) Copyright 2024 Fonticons, Inc. --><path d="M234.6 103.9C251.5 98.8 269.4 96 288 96c22.8 0 44.7 4.2 64.8 11.7c-.6-2-.8-4.1-.8-6.3V35.4c0-6.9-4.1-13.2-10.5-15.9L299.3 1.4c-2.2-.9-4.5-1.4-6.8-1.4h-1.2c-6.9 0-13.1 4.1-15.8 10.4l-40.9 93.5zm161.6 27.3c12.1 8.8 23.1 19.1 32.7 30.5c5.6 6.7-2.9 14.6-10.4 10.1C380.3 149 335.7 136 288 136s-92.3 13-130.5 35.7c-7.5 4.5-16-3.4-10.4-10.1c9.6-11.4 20.6-21.7 32.7-30.5c-.6-.1-1.2-.2-1.8-.3c-8.5-1.8-17.2-2.8-26-2.8C68.1 128 0 214 0 320S68.1 512 152 512c19.3 0 37.8-4.5 54.7-12.8c8.3-4.1 18.2-4.1 26.5 0c17 8.3 35.4 12.8 54.7 12.8s37.8-4.5 54.7-12.8c8.3-4.1 18.2-4.1 26.5 0c17 8.3 35.4 12.8 54.7 12.8c83.9 0 152-86 152-192s-68.1-192-152-192c-8.9 0-17.6 1-26 2.8c-.6 .1-1.2 .2-1.8 .3z"/></svg>