<svg xmlns="http://www.w3.org/2000/svg" viewBox="0 0 576 512"><!--! Font Awesome Pro 6.5.2 by @fontawesome - https://fontawesome.com License - https://fontawesome.com/license (Commercial License) Copyright 2024 Fonticons, Inc. --><path d="M88 0C39.4 0 0 39.4 0 88v56 24 24c0 26.5 21.5 48 48 48H96c26.5 0 48-21.5 48-48V144c0-26.5-21.5-48-48-48H64V88c0-13.3 10.7-24 24-24h8c17.7 0 32-14.3 32-32s-14.3-32-32-32H88zM264 0c-48.6 0-88 39.4-88 88v56 24 24c0 26.5 21.5 48 48 48h48c26.5 0 48-21.5 48-48V144c0-26.5-21.5-48-48-48H240V88c0-13.3 10.7-24 24-24h8c17.7 0 32-14.3 32-32s-14.3-32-32-32h-8zM576 424V368 344 320c0-26.5-21.5-48-48-48H480c-26.5 0-48 21.5-48 48v48c0 26.5 21.5 48 48 48h32v8c0 13.3-10.7 24-24 24h-8c-17.7 0-32 14.3-32 32s14.3 32 32 32h8c48.6 0 88-39.4 88-88zM312 512c48.6 0 88-39.4 88-88V368 344 320c0-26.5-21.5-48-48-48H304c-26.5 0-48 21.5-48 48v48c0 26.5 21.5 48 48 48h32v8c0 13.3-10.7 24-24 24h-8c-17.7 0-32 14.3-32 32s14.3 32 32 32h8z"/></svg>