<svg xmlns="http://www.w3.org/2000/svg" viewBox="0 0 512 512"><!--! Font Awesome Pro 6.5.1 by @fontawesome - https://fontawesome.com License - https://fontawesome.com/license (Commercial License) Copyright 2023 Fonticons, Inc. --><path d="M336 32c20.5 0 39.9 9.2 52.8 25.1l28.9 35.6-31.5-7.3c-20.2-4.7-39.7 4.2-50.2 19.9c-10.5-15.7-30.1-24.6-50.2-19.9l-31.5 7.3 28.9-35.6C296.1 41.2 315.5 32 336 32zM296.7 205.3c-5.6-3.7-11.4-7-17.5-10l39.9-21.8c6.9-3.8 12.6-9.1 16.8-15.3c4.2 6.3 9.9 11.6 16.8 15.3l39.9 21.8c-6 2.9-11.9 6.2-17.5 10L360 215.4c-.3-13-10.9-23.4-24-23.4s-23.7 10.4-24 23.4l-15.3-10.2zm187.5-81.4l-20.3-25 13.8-41.5c1.5-4.4 2.2-9.1 2.2-13.8C480 19.5 460.5 0 436.5 0h-1.3c-3.3 0-6.5 .4-9.7 1.1l-44.1 9.8C367.5 3.8 352 0 336 0s-31.5 3.8-45.3 10.9L246.6 1.1c-3.2-.7-6.5-1.1-9.7-1.1h-1.3C211.5 0 192 19.5 192 43.5c0 4.7 .8 9.3 2.2 13.8l13.8 41.5-20.3 25c-7.6 9.3-11.7 21-11.7 33c0 23.1 15.2 43.5 37.3 50.2l35.8 10.7c10.6 3.2 20.6 7.9 29.8 14l18.8 12.6C309.1 252 322.4 256 336 256s26.9-4 38.2-11.6L393 231.9c9.2-6.1 19.2-10.9 29.8-14l35.8-10.7c22.2-6.6 37.3-27 37.3-50.2c0-12-4.1-23.7-11.7-33zM288 112a16 16 0 1 1 0 32 16 16 0 1 1 0-32zm80 16a16 16 0 1 1 32 0 16 16 0 1 1 -32 0zM185.1 229.3C131.2 266.9 96 329.4 96 400c0 8.8-7.2 16-16 16s-16-7.2-16-16c0-16.4 1.7-32.5 4.8-48H0v48c0 61.9 50.1 112 112 112H240h80V496c0-26.5-21.5-48-48-48H240c-8.8 0-16-7.2-16-16s7.2-16 16-16h32c44.2 0 80 35.8 80 80v16h24l.1 0H416h64V495.6c-.2-26.3-21.6-47.6-48-47.6H416l0 0V376l-6.4 4.8c-7.1 5.3-17.1 3.9-22.4-3.2s-3.9-17.1 3.2-22.4l38.1-28.5c12.3-9.2 19.5-23.7 19.5-39.1c0-14.9-6.8-29-18.5-38.3c-6.6 2.2-12.9 5.3-18.7 9.2l-18.8 12.6c-16.6 11-36 16.9-55.9 16.9s-39.4-5.9-55.9-16.9l-18.8-12.6c-6.6-4.4-13.7-7.7-21.3-10l-35.8-10.7c-6.8-2-13.2-4.9-19.1-8.4zM0 128H128V96c0-35.3-28.7-64-64-64S0 60.7 0 96v32zm0 32v64H128V160H0zM0 320H77.7c8.2-23.2 19.8-44.7 34.3-64H0v64zm480-24l-.3-.9c0 .4-.1 .9-.1 1.3l.5-.4zM317.7 376.2c-4.5 7.6-14.4 10-22 5.5l-80-48c-7.6-4.5-10-14.4-5.5-22s14.4-10 22-5.5l80 48c7.6 4.5 10 14.4 5.5 21.9z"/></svg>