<svg xmlns="http://www.w3.org/2000/svg" viewBox="0 0 512 512"><!--! Font Awesome Pro 6.5.2 by @fontawesome - https://fontawesome.com License - https://fontawesome.com/license (Commercial License) Copyright 2024 Fonticons, Inc. --><path d="M349 64c-36 0-76.4 15.8-108.8 48.2S192 184.9 192 221c0 28.2 9.6 53.2 27.7 71.3c40.4 40.4 120.7 38.9 180.1-20.5C432.2 239.4 448 199.1 448 163c0-28.2-9.6-53.2-27.7-71.3S377.1 64 349 64zm-154 2.9C238.5 23.4 294.8 0 349 0c42.8 0 84.9 14.8 116.6 46.5S512 120.2 512 163c0 54.2-23.4 110.5-66.9 154c-54.4 54.4-131.9 78.7-198.2 61.7c-29.4-7.5-62.9-5.5-84.3 16L148.3 409c6.4 12.1 4.5 27.4-5.6 37.6l-56 56c-12.5 12.5-32.8 12.5-45.3 0l-32-32c-12.5-12.5-12.5-32.8 0-45.3l56-56c10.2-10.2 25.5-12.1 37.6-5.6l14.5-14.5c21.4-21.4 23.5-54.7 16-84C129.8 250.9 128 236 128 221c0-54.2 23.4-110.5 66.9-154z"/></svg>