<svg xmlns="http://www.w3.org/2000/svg" viewBox="0 0 512 512"><!--! Font Awesome Pro 6.5.2 by @fontawesome - https://fontawesome.com License - https://fontawesome.com/license (Commercial License) Copyright 2024 Fonticons, Inc. --><path d="M304.8 173.3c-14.3-8.4-31-13.3-48.8-13.3c-53 0-96 43-96 96s43 96 96 96s96-43 96-96h64c0 73.5-49.6 135.5-117.2 154.2C290.8 394.7 274.7 384 256 384s-34.8 10.7-42.8 26.2c-51.7-14.3-92.8-53.9-109.4-104.6c14.4-8.3 24.1-23.8 24.1-41.7c0-19.4-11.5-36.1-28-43.7C116.2 149.1 179.9 96 256 96c35.5 0 68.3 11.6 94.9 31.2l22.8-22.8C341.2 79 300.4 64 256 64C163.1 64 85.7 129.9 67.9 217.6C47.2 222.9 32 241.7 32 264c0 23.8 17.3 43.6 40.1 47.4c19.3 64.3 71.5 114.4 137 130.9C213.8 463.8 233 480 256 480s42.2-16.2 46.9-37.8C386.3 421.3 448 345.9 448 256h64c0 141.4-114.6 256-256 256S0 397.4 0 256S114.6 0 256 0c62.1 0 118.9 22.1 163.3 58.8L463 15c9.4-9.4 24.6-9.4 33.9 0s9.4 24.6 0 33.9l-182 182c3.3 7.7 5.1 16.1 5.1 25c0 35.3-28.7 64-64 64s-64-28.7-64-64s28.7-64 64-64c8.9 0 17.3 1.8 25 5.1l23.8-23.8z"/></svg>