<svg xmlns="http://www.w3.org/2000/svg" viewBox="0 0 448 512"><!--! Font Awesome Pro 6.5.1 by @fontawesome - https://fontawesome.com License - https://fontawesome.com/license (Commercial License) Copyright 2023 Fonticons, Inc. --><path d="M102.4 133.6c-4.2 8.6-6.4 18-6.4 27.6c0 34.7 28.1 62.8 62.8 62.8h2.4c34.7 0 62.8-28.1 62.8-62.8c0-9.6-2.2-19-6.4-27.6L171.5 39.2c-2.1-4.4-6.6-7.2-11.5-7.2s-9.4 2.8-11.5 7.2l-46.1 94.4zm-96 192c-4.2 8.6-6.4 18-6.4 27.6C0 387.9 28.1 416 62.8 416h2.4c34.7 0 62.8-28.1 62.8-62.8c0-9.6-2.2-19-6.4-27.6L75.5 231.2c-2.1-4.4-6.6-7.2-11.5-7.2s-9.4 2.8-11.5 7.2L6.4 325.6zM307.8 134.8L210 294.2c-11.8 19.2-18 41.3-18 63.8c0 67.4 54.6 122 122 122h12c67.4 0 122-54.6 122-122c0-22.5-6.2-44.6-18-63.8L332.2 134.8c-2.6-4.2-7.2-6.8-12.2-6.8s-9.6 2.6-12.2 6.8z"/></svg>