<svg xmlns="http://www.w3.org/2000/svg" viewBox="0 0 640 512"><!--! Font Awesome Pro 6.5.2 by @fontawesome - https://fontawesome.com License - https://fontawesome.com/license (Commercial License) Copyright 2024 Fonticons, Inc. --><path d="M336 64v8c0 13.3 10.7 24 24 24s24-10.7 24-24V64c0-8.8 7.2-16 16-16s16 7.2 16 16V88.4c-6.8 6.1-12.8 13.2-17.6 21l-47.8 20.5c-12.2 5.2-17.8 19.3-12.6 31.5s19.3 17.8 31.5 12.6l14.5-6.2V240c0 44.2 35.8 80 80 80h32c44.2 0 80-35.8 80-80V167.8l14.5 6.2c12.2 5.2 26.3-.4 31.5-12.6s-.4-26.3-12.6-31.5l-47.8-20.5c-4.9-7.8-10.8-14.9-17.6-21V64c0-8.8 7.2-16 16-16s16 7.2 16 16v8c0 13.3 10.7 24 24 24s24-10.7 24-24V64c0-35.3-28.7-64-64-64s-64 28.7-64 64v1.3c-5.2-.9-10.5-1.3-16-1.3s-10.8 .5-16 1.3V64c0-35.3-28.7-64-64-64s-64 28.7-64 64zM308.5 174.1c-8.9-20.8-4.3-44 10-59.7C312.3 85.6 286.7 64 256 64c-19.2 0-36.5 8.5-48.2 21.9C196.9 77.2 183 72 168 72c-30.1 0-55.3 20.8-62.2 48.8c-3.2-.5-6.5-.8-9.8-.8c-35.3 0-64 28.7-64 64c0 5.3 .7 10.5 1.9 15.5C13.7 210.3 0 231.5 0 256s13.7 45.7 33.9 56.5c-1.2 5-1.9 10.2-1.9 15.5c0 35.3 28.7 64 64 64c.5 0 1 0 1.5 0l17.6 93.9c2.8 15.1 16.1 26.1 31.5 26.1H176c17.7 0 32-14.3 32-32V426.3c11.7 13.3 28.9 21.7 48 21.7s36.3-8.4 48-21.7V480c0 17.7 14.3 32 32 32h29.4c15.4 0 28.6-11 31.4-26.1L414.5 392c.5 0 1 0 1.5 0c26.9 0 49.9-16.5 59.3-40H464c-61.9 0-112-50.1-112-112V207.4c-18.7-2.7-35.5-14.8-43.5-33.4zM464 160a16 16 0 1 1 0 32 16 16 0 1 1 0-32zm48 16a16 16 0 1 1 32 0 16 16 0 1 1 -32 0z"/></svg>