<svg xmlns="http://www.w3.org/2000/svg" viewBox="0 0 512 512"><!--! Font Awesome Pro 6.5.2 by @fontawesome - https://fontawesome.com License - https://fontawesome.com/license (Commercial License) Copyright 2024 Fonticons, Inc. --><path d="M512 224c0-35.3-28.7-64-64-64L64 160c-35.3 0-64 28.7-64 64L0 448c0 35.3 28.7 64 64 64l384 0c35.3 0 64-28.7 64-64l0-224zM440 80L72 80c-13.3 0-24 10.7-24 24s10.7 24 24 24l368 0c13.3 0 24-10.7 24-24s-10.7-24-24-24zM392 0L120 0C106.7 0 96 10.7 96 24s10.7 24 24 24l272 0c13.3 0 24-10.7 24-24s-10.7-24-24-24z"/></svg>