<svg xmlns="http://www.w3.org/2000/svg" viewBox="0 0 640 512"><!--! Font Awesome Pro 6.5.2 by @fontawesome - https://fontawesome.com License - https://fontawesome.com/license (Commercial License) Copyright 2024 Fonticons, Inc. --><path d="M64 190.1c0-31.8 15.8-60 40-77V456c0 13.3 10.7 24 24 24s24-10.7 24-24V96.2c2-.1 4-.2 6.1-.2c14.8 0 29.1 3.5 41.9 9.9V456c0 13.3 10.7 24 24 24s24-10.7 24-24V154.7l48 69.1V456c0 13.3 10.7 24 24 24s24-10.7 24-24V292.9l20.3 29.2c7.9 11.3 17.2 21.3 27.7 29.8V456c0 13.3 10.7 24 24 24s24-10.7 24-24V377.6c13.6 4.2 28 6.4 42.6 6.4H488v72c0 13.3 10.7 24 24 24s24-10.7 24-24V378.4c14.4-4.2 27.8-10.5 40-18.6V448c0 17.7 14.3 32 32 32s32-14.3 32-32V248h-.2c.1-2.6 .2-5.3 .2-8c0-79.5-64.5-144-144-144h-4c-28.9 0-57.3 7.1-82.8 20.7l-51.6 27.5L432 251.3V177.1l7.3-3.9c12.7-6.8 26.5-11 40.7-12.5V264c0 13.3 10.7 24 24 24s24-10.7 24-24V166.7c28.3 12.3 48 40.5 48 73.3c0 44.2-35.8 80-80 80H482.6c-26.2 0-50.8-12.8-65.7-34.4L287.9 99.9C258.4 57.4 209.9 32 158.1 32C70.8 32 0 102.8 0 190.1V448c0 17.7 14.3 32 32 32s32-14.3 32-32V190.1z"/></svg>