<svg xmlns="http://www.w3.org/2000/svg" viewBox="0 0 576 512"><!--! Font Awesome Pro 6.5.1 by @fontawesome - https://fontawesome.com License - https://fontawesome.com/license (Commercial License) Copyright 2023 Fonticons, Inc. --><path d="M352 48c58.8 0 112.5 21.8 153.4 57.9c9.9 8.8 25.1 7.8 33.9-2.1s7.8-25.1-2.1-33.9C487.8 26.4 422.9 0 352 0S216.2 26.4 166.9 69.9c-9.9 8.8-10.9 23.9-2.1 33.9s23.9 10.9 33.9 2.1C239.5 69.8 293.2 48 352 48zm24 200c0-13.3-10.7-24-24-24s-24 10.7-24 24v72H64c-35.3 0-64 28.7-64 64v64c0 35.3 28.7 64 64 64H512c35.3 0 64-28.7 64-64V384c0-35.3-28.7-64-64-64H376V248zM96 384a32 32 0 1 1 0 64 32 32 0 1 1 0-64zm64 32a32 32 0 1 1 64 0 32 32 0 1 1 -64 0zM276.5 186.7C297.1 170 323.4 160 352 160s54.9 10 75.5 26.7c10.3 8.3 25.4 6.8 33.8-3.5s6.8-25.4-3.5-33.8C428.8 126 392 112 352 112s-76.8 14-105.7 37.4c-10.3 8.3-11.9 23.5-3.5 33.8s23.5 11.9 33.8 3.5z"/></svg>