<svg xmlns="http://www.w3.org/2000/svg" viewBox="0 0 512 512"><!--! Font Awesome Pro 6.5.1 by @fontawesome - https://fontawesome.com License - https://fontawesome.com/license (Commercial License) Copyright 2023 Fonticons, Inc. --><path d="M85.3 192h341c-.8 44.3-7.9 81.8-21.9 114.4c-23.4 54.1-68.5 99.1-149 138.5c-81.5-36.2-126.1-80.9-149-135.4c-14-33.3-20.6-72-21-117.4zM276.9 7.3c-12.8-7.8-29-7.8-41.8 0c-27.5 16.8-50.2 26-73.4 30c-23.3 4-49.2 3.2-83.7-3.2C55.9 30 34.4 45 31.1 67.7C16 170.4 15.9 259.5 47.3 334.2c32.1 76.4 94.6 132.5 193 173.9c10.4 4.4 22.3 4.1 32.5-.6c95.7-44.8 157.8-100.7 190.3-175.7c32-73.9 32.9-161.2 17.8-264.1C477.6 45.1 456.1 30 434 34.1c-34.4 6.3-60.3 7.2-83.7 3.2c-23.2-4-45.9-13.2-73.4-30z"/></svg>