<svg xmlns="http://www.w3.org/2000/svg" viewBox="0 0 512 512"><!--! Font Awesome Pro 6.5.2 by @fontawesome - https://fontawesome.com License - https://fontawesome.com/license (Commercial License) Copyright 2024 Fonticons, Inc. --><path d="M368 16c13.4 0 26.4 2.1 38.5 5.9c-21.1 1.8-44.5 8.7-69 19.5c-53.4 23.5-114.8 66.9-172.1 124.1S64.9 284.1 41.4 337.6c-10.8 24.5-17.7 47.9-19.5 69C18.1 394.4 16 381.4 16 368l0-32C16 159.3 159.3 16 336 16l32 0zm122.1 89.5c3.8 12.2 5.9 25.1 5.9 38.5v32c0 176.7-143.3 320-320 320H144c-13.4 0-26.4-2.1-38.5-5.9c21.1-1.8 44.5-8.7 69-19.5c53.4-23.5 114.8-66.9 172.1-124.1s100.6-118.6 124.1-172.1c10.8-24.5 17.7-47.9 19.5-69zM63.7 448.3c-6.7-6.7-10.9-17.8-10.2-34.8c.7-17.1 6.3-38.5 17.1-63c21.5-49 62.3-107.1 117.5-162.3s113.4-95.9 162.3-117.5c24.5-10.8 45.9-16.4 63-17.1c17.1-.7 28.1 3.5 34.8 10.2s10.9 17.8 10.2 34.8c-.7 17.1-6.3 38.5-17.1 63c-21.5 49-62.3 107.1-117.5 162.3s-113.4 95.9-162.3 117.5c-24.5 10.8-45.9 16.4-63 17.1c-17.1 .7-28.1-3.4-34.8-10.2z"/></svg>