<svg xmlns="http://www.w3.org/2000/svg" viewBox="0 0 512 512"><!--! Font Awesome Pro 6.5.2 by @fontawesome - https://fontawesome.com License - https://fontawesome.com/license (Commercial License) Copyright 2024 Fonticons, Inc. --><path d="M0 32V448c0 35.3 28.7 64 64 64H480c17.7 0 32-14.3 32-32v-2.7c0-8.5-3.4-16.6-9.4-22.6l-51.3-51.3-24 24c-6.2 6.2-16.4 6.2-22.6 0s-6.2-16.4 0-22.6l24-24-57.4-57.4-24 24c-6.2 6.2-16.4 6.2-22.6 0s-6.2-16.4 0-22.6l24-24-57.4-57.4-24 24c-6.2 6.2-16.4 6.2-22.6 0s-6.2-16.4 0-22.6l24-24-57.4-57.4-24 24c-6.2 6.2-16.4 6.2-22.6 0s-6.2-16.4 0-22.6l24-24L131.3 83.3l-24 24c-6.2 6.2-16.4 6.2-22.6 0s-6.2-16.4 0-22.6l24-24L57.4 9.4C51.4 3.4 43.2 0 34.7 0H32C14.3 0 0 14.3 0 32zM128 256L256 384H128V256z"/></svg>