<svg xmlns="http://www.w3.org/2000/svg" viewBox="0 0 384 512"><!--! Font Awesome Pro 6.5.1 by @fontawesome - https://fontawesome.com License - https://fontawesome.com/license (Commercial License) Copyright 2023 Fonticons, Inc. --><path d="M319.4 448H64.6l36.6-256H282.8l36.6 256zM59.8 512H324.2c33 0 59.8-26.8 59.8-59.8c0-2.8-.2-5.7-.6-8.5L338.1 126.7C327.7 54 265.4 0 192 0S56.3 54 45.9 126.7L.6 443.8c-.4 2.8-.6 5.6-.6 8.5c0 33 26.8 59.8 59.8 59.8zM192 48a16 16 0 1 1 0 32 16 16 0 1 1 0-32zM128 96a16 16 0 1 1 32 0 16 16 0 1 1 -32 0zM240 80a16 16 0 1 1 0 32 16 16 0 1 1 0-32z"/></svg>