<svg xmlns="http://www.w3.org/2000/svg" viewBox="0 0 512 512"><!--! Font Awesome Pro 6.5.2 by @fontawesome - https://fontawesome.com License - https://fontawesome.com/license (Commercial License) Copyright 2024 Fonticons, Inc. --><path d="M0 96C0 78.3 14.3 64 32 64H480c17.7 0 32 14.3 32 32v48c0 17.7-14.3 32-32 32H32c-17.7 0-32-14.3-32-32V96zM303.9 382.6c10 5.8 22.3 5.8 32.2 0l70.2-40.9c6.4-3.7 13.6-5.7 20.9-5.7H432h48c17.7 0 32 14.3 32 32v48c0 17.7-14.3 32-32 32H32c-17.7 0-32-14.3-32-32V368c0-17.7 14.3-32 32-32H208h4.8c7.4 0 14.6 2 20.9 5.7l70.2 40.9zM32 304c-17.7 0-32-14.3-32-32s14.3-32 32-32c7.2 0 15.8-3.7 35.4-13c16.6-7.8 40.6-19 68.6-19c30.6 0 53 10.2 70.1 18l1.9 .9c17.2 7.8 29.7 13.1 48.1 13.1s30.9-5.3 48.1-13.1l1.9-.9c17-7.8 39.4-18 70.1-18c28 0 52.1 11.3 68.6 19c19.6 9.2 28.2 13 35.4 13c17.7 0 32 14.3 32 32s-14.3 32-32 32c-22.7 0-44.3-10.3-58.8-17.2l0 0c-1.3-.6-2.6-1.2-3.8-1.8c-17.4-8.2-29.4-13-41.4-13c-16.2 0-27.5 5-45.4 13.1l-.1 0c-18 8.2-41.4 18.9-74.5 18.9s-56.6-10.7-74.5-18.9l-.1 0C163.5 277 152.2 272 136 272c-12 0-23.9 4.7-41.4 13c-1.2 .6-2.5 1.2-3.8 1.8C76.3 293.7 54.7 304 32 304z"/></svg>