<svg xmlns="http://www.w3.org/2000/svg" viewBox="0 0 640 512"><!--! Font Awesome Pro 6.5.1 by @fontawesome - https://fontawesome.com License - https://fontawesome.com/license (Commercial License) Copyright 2023 Fonticons, Inc. --><path d="M246.7 176L171.4 306.1c-2.2 3.8-3.4 8.2-3.4 12.6v2.6c0 12.5 10.1 22.6 22.6 22.6c6 0 11.8-2.4 16-6.6L319 225l-8-8c-9.4-9.4-9.4-24.6 0-33.9s24.6-9.4 33.9 0l8 8L367 177l-8-8c-9.4-9.4-9.4-24.6 0-33.9s24.6-9.4 33.9 0l8 8L415 129l-8-8c-9.4-9.4-9.4-24.6 0-33.9s24.6-9.4 33.9 0l8 8 44.3-44.3c12-12 28.3-18.7 45.3-18.7h30.3c15 0 29.5 5.2 41 14.8l24.3 20.3c3.7 3.1 5.9 7.7 5.9 12.6c0 9-7.3 16.3-16.3 16.3H559.5c-9.8 0-19 4.5-25.1 12.1L288.6 418.6C257.9 457.4 211.2 480 161.8 480C72.4 480 0 407.6 0 318.2v-3.1c0-12.7 1.5-25.4 4.4-37.8L28.2 176H24c-13.3 0-24-10.7-24-24s10.7-24 24-24H264c13.3 0 24 10.7 24 24s-10.7 24-24 24H246.7zM120 320a24 24 0 1 0 -48 0 24 24 0 1 0 48 0zm8-72a24 24 0 1 0 0-48 24 24 0 1 0 0 48z"/></svg>