<svg xmlns="http://www.w3.org/2000/svg" viewBox="0 0 576 512"><!--! Font Awesome Pro 6.5.2 by @fontawesome - https://fontawesome.com License - https://fontawesome.com/license (Commercial License) Copyright 2024 Fonticons, Inc. --><path d="M79.1 35.8c-15.6-8.3-35-2.4-43.3 13.2s-2.4 35 13.2 43.3L416 288H64c-35.3 0-64 28.7-64 64v64c0 35.3 28.7 64 64 64H512c35.3 0 64-28.7 64-64V339.2c0-23.6-13-45.3-33.9-56.5L79.1 35.8zM64 384a32 32 0 1 1 64 0 32 32 0 1 1 -64 0zm128-32a32 32 0 1 1 0 64 32 32 0 1 1 0-64z"/></svg>