<svg xmlns="http://www.w3.org/2000/svg" viewBox="0 0 640 512"><!--! Font Awesome Pro 6.5.2 by @fontawesome - https://fontawesome.com License - https://fontawesome.com/license (Commercial License) Copyright 2024 Fonticons, Inc. --><path d="M614.7 .7c5.6 1.2 10.5 3.8 14.5 7.3c8.4 7.4 12.6 19 10.1 30.7l-4.8 22.6L577.6 326.7l-34.3 160c-3.7 17.3-20.7 28.3-38 24.6s-28.3-20.7-24.6-38l26-121.3H416c-17.7 0-32-14.3-32-32s14.3-32 32-32H520.4L569 61.3l7.7-36 0 0L582.1 0H608c2.2 0 4.5 .2 6.7 .7zM352 0H549.4l-4 18.6L508.3 192H12.7C5.7 192 0 186.3 0 179.3c0-2.1 .5-4.1 1.6-6C15 151.1 114.8 0 352 0z"/></svg>