<svg xmlns="http://www.w3.org/2000/svg" viewBox="0 0 448 512"><!--! Font Awesome Pro 6.5.1 by @fontawesome - https://fontawesome.com License - https://fontawesome.com/license (Commercial License) Copyright 2023 Fonticons, Inc. --><path d="M64 32C64 14.3 49.7 0 32 0S0 14.3 0 32V143.6c0 15.2 3.1 30.2 9.1 44.1L82 357.8c15.1 35.3 49.8 58.2 88.2 58.2H216v48H120c-13.3 0-24 10.7-24 24s10.7 24 24 24H360c13.3 0 24-10.7 24-24s-10.7-24-24-24H264V416h96c15.1 0 29.3-7.1 38.4-19.2l43.2-57.6c7.3-9.7 8.4-22.7 3-33.5S428.1 288 416 288H121.7L108 256H320c17.7 0 32-14.3 32-32s-14.3-32-32-32H80.5L67.9 162.5c-2.6-6-3.9-12.4-3.9-18.9V32z"/></svg>