<svg xmlns="http://www.w3.org/2000/svg" viewBox="0 0 640 512"><!--! Font Awesome Pro 6.5.1 by @fontawesome - https://fontawesome.com License - https://fontawesome.com/license (Commercial License) Copyright 2023 Fonticons, Inc. --><path d="M384 135.8V208c0 44.2 35.8 80 80 80h32c44.2 0 80-35.8 80-80V135.8l14.5 6.2c12.2 5.2 26.3-.4 31.5-12.6s-.4-26.3-12.6-31.5L561.6 77.4C544.7 50.2 514.5 32 480 32s-64.7 18.2-81.6 45.4L350.5 97.9c-12.2 5.2-17.8 19.3-12.6 31.5s19.3 17.8 31.5 12.6l14.5-6.2zm80-7.8a16 16 0 1 1 0 32 16 16 0 1 1 0-32zm48 16a16 16 0 1 1 32 0 16 16 0 1 1 -32 0zM352 175.4c-18.7-2.7-35.5-14.8-43.5-33.4c-6.9-16.1-5.7-33.5 1.8-47.9C299 76 278.9 64 256 64c-19.2 0-36.5 8.5-48.2 21.9C196.9 77.2 183 72 168 72c-30.1 0-55.3 20.8-62.2 48.8c-3.2-.5-6.5-.8-9.8-.8c-35.3 0-64 28.7-64 64c0 5.3 .7 10.5 1.9 15.5C13.7 210.3 0 231.5 0 256s13.7 45.7 33.9 56.5c-1.2 5-1.9 10.2-1.9 15.5c0 35.3 28.7 64 64 64c.5 0 1 0 1.5 0l17.6 93.9c2.8 15.1 16.1 26.1 31.5 26.1H176c17.7 0 32-14.3 32-32V426.3c11.7 13.3 28.9 21.7 48 21.7s36.3-8.4 48-21.7V480c0 17.7 14.3 32 32 32h29.4c15.4 0 28.6-11 31.4-26.1L414.5 392c.5 0 1 0 1.5 0c35.3 0 64-28.7 64-64c0-2.7-.2-5.4-.5-8H464c-61.9 0-112-50.1-112-112V175.4z"/></svg>