<svg xmlns="http://www.w3.org/2000/svg" viewBox="0 0 640 512"><!--! Font Awesome Pro 6.5.1 by @fontawesome - https://fontawesome.com License - https://fontawesome.com/license (Commercial License) Copyright 2023 Fonticons, Inc. --><path d="M32 0C49.7 0 64 14.3 64 32V160H576V32c0-17.7 14.3-32 32-32s32 14.3 32 32V192 448v32c0 17.7-14.3 32-32 32s-32-14.3-32-32H64c0 17.7-14.3 32-32 32s-32-14.3-32-32V448 192 32C0 14.3 14.3 0 32 0zM64 416H576V224H64V416zM352 32c0-17.7 14.3-32 32-32h64c17.7 0 32 14.3 32 32V96c0 17.7-14.3 32-32 32H384c-17.7 0-32-14.3-32-32V32zM128 256h64c17.7 0 32 14.3 32 32v64c0 17.7-14.3 32-32 32H128c-17.7 0-32-14.3-32-32V288c0-17.7 14.3-32 32-32zm160 0h64c17.7 0 32 14.3 32 32v64c0 17.7-14.3 32-32 32H288c-17.7 0-32-14.3-32-32V288c0-17.7 14.3-32 32-32z"/></svg>