<svg xmlns="http://www.w3.org/2000/svg" viewBox="0 0 640 512"><!--! Font Awesome Pro 6.5.2 by @fontawesome - https://fontawesome.com License - https://fontawesome.com/license (Commercial License) Copyright 2024 Fonticons, Inc. --><path d="M157 .3c-32.1 2.5-61 20.9-76.7 49.5L13.9 170.5C4.8 187 0 205.6 0 224.4V384c0 17.7 14.3 32 32 32H64c17.7 0 32-14.3 32-32V224.4c0-2.7 .7-5.3 2-7.7l46-83.7V448c0 35.3 28.7 64 64 64H432c35.3 0 64-28.7 64-64V133.1l46 83.7c1.3 2.4 2 5 2 7.7V384c0 17.7 14.3 32 32 32h32c17.7 0 32-14.3 32-32V224.4c0-18.9-4.8-37.4-13.9-54L559.7 49.7C544.1 21.2 515.1 2.8 483 .3c-1-.2-2-.3-3-.3h-4.4H460 432c-8.8 0-15.9 7.2-17.3 15.9C407.1 61.4 367.6 96 320 96s-87.1-34.6-94.7-80.1C223.9 7.2 216.8 0 208 0H180 164.4 160c-1 0-2 .1-3 .3z"/></svg>