<svg xmlns="http://www.w3.org/2000/svg" viewBox="0 0 384 512"><!--! Font Awesome Pro 6.5.1 by @fontawesome - https://fontawesome.com License - https://fontawesome.com/license (Commercial License) Copyright 2023 Fonticons, Inc. --><path d="M112 32C112 14.3 97.7 0 80 0S48 14.3 48 32V64c0 91-19.2 143.6-33.3 170.1C6.7 249.1 0 265.5 0 282.5V448c0 35.3 28.7 64 64 64H320c35.3 0 64-28.7 64-64V282.5c0-17-6.7-33.5-14.7-48.4C355.2 207.6 336 155 336 64V32c0-17.7-14.3-32-32-32s-32 14.3-32 32V80c0 44.2-35.8 80-80 80s-80-35.8-80-80V32z"/></svg>