<svg xmlns="http://www.w3.org/2000/svg" viewBox="0 0 512 512"><!--! Font Awesome Pro 6.5.1 by @fontawesome - https://fontawesome.com License - https://fontawesome.com/license (Commercial License) Copyright 2023 Fonticons, Inc. --><path d="M361.4 9.4c12.5-12.5 32.8-12.5 45.3 0l96 96c12.5 12.5 12.5 32.8 0 45.3l-44.1 44.1c-18.7 18.7-44.1 29.3-70.6 29.3c-15.9 0-30.9-3.7-44.3-10.3l-97 97 50.7 50.7c12.5 12.5 12.5 32.8 0 45.3l-58.5 58.5c-30 30-70.7 46.9-113.1 46.9H32c-17.7 0-32-14.3-32-32V386.3c0-42.4 16.9-83.1 46.9-113.1l58.5-58.5c12.5-12.5 32.8-12.5 45.3 0l50.7 50.7 97-97C291.7 155.1 288 140 288 124.1c0-26.5 10.5-51.9 29.3-70.6L361.4 9.4zM384 77.3L362.5 98.7c-6.7 6.7-10.5 15.9-10.5 25.4c0 19.8 16.1 35.9 35.9 35.9c9.5 0 18.6-3.8 25.4-10.5L434.7 128 384 77.3z"/></svg>