<svg xmlns="http://www.w3.org/2000/svg" viewBox="0 0 512 512"><!--! Font Awesome Pro 6.5.1 by @fontawesome - https://fontawesome.com License - https://fontawesome.com/license (Commercial License) Copyright 2023 Fonticons, Inc. --><path d="M64 64C64 28.7 92.7 0 128 0H354.7c17 0 33.3 6.7 45.3 18.7L429.3 48c12 12 18.7 28.3 18.7 45.3V192c35.3 0 64 28.7 64 64v96c0 17.7-14.3 32-32 32H32c-17.7 0-32-14.3-32-32V256c0-35.3 28.7-64 64-64V64zM384 93.3L354.7 64H128V192H384V93.3zM432 296a24 24 0 1 0 0-48 24 24 0 1 0 0 48zM40 416H88v72c0 13.3-10.7 24-24 24s-24-10.7-24-24V416zm96 0h48v72c0 13.3-10.7 24-24 24s-24-10.7-24-24V416zm96 0h48v72c0 13.3-10.7 24-24 24s-24-10.7-24-24V416zm96 0h48v72c0 13.3-10.7 24-24 24s-24-10.7-24-24V416zm96 0h48v72c0 13.3-10.7 24-24 24s-24-10.7-24-24V416z"/></svg>