<svg xmlns="http://www.w3.org/2000/svg" viewBox="0 0 512 512"><!--! Font Awesome Pro 6.5.1 by @fontawesome - https://fontawesome.com License - https://fontawesome.com/license (Commercial License) Copyright 2023 Fonticons, Inc. --><path d="M32 32C14.3 32 0 46.3 0 64S14.3 96 32 96H480c17.7 0 32-14.3 32-32s-14.3-32-32-32H32zM20.6 224H491.4c11.4 0 20.6-9.2 20.6-20.6c0-2.2-.4-4.4-1.1-6.5L488 128H24L1.1 196.8c-.7 2.1-1.1 4.3-1.1 6.5C0 214.8 9.2 224 20.6 224zM491.4 352c11.4 0 20.6-9.2 20.6-20.6c0-2.2-.4-4.4-1.1-6.5L488 256H24L1.1 324.8c-.7 2.1-1.1 4.3-1.1 6.5C0 342.8 9.2 352 20.6 352H491.4zM20.6 480H491.4c11.4 0 20.6-9.2 20.6-20.6c0-2.2-.4-4.4-1.1-6.5L488 384H24L1.1 452.8c-.7 2.1-1.1 4.3-1.1 6.5C0 470.8 9.2 480 20.6 480z"/></svg>