<svg xmlns="http://www.w3.org/2000/svg" viewBox="0 0 512 512"><!--! Font Awesome Pro 6.5.2 by @fontawesome - https://fontawesome.com License - https://fontawesome.com/license (Commercial License) Copyright 2024 Fonticons, Inc. --><path d="M256 0c17.7 0 32 14.3 32 32V64H416c17.7 0 32 14.3 32 32s-14.3 32-32 32H288v32H480c17.7 0 32 14.3 32 32s-14.3 32-32 32H288v32h96c17.7 0 32 14.3 32 32s-14.3 32-32 32H288v64c0 .8 0 1.6-.1 2.3l67.6-29c8.3-3.5 17.2-5.4 26.1-5.4c36.7 0 66.4 29.7 66.4 66.4v1.5c0 18-7.2 35.3-19.9 48l-25.8 25.8c-11.7 11.7-27.6 18.3-44.1 18.3H153.9c-16.6 0-32.4-6.6-44.1-18.3L83.9 467.9c-12.7-12.7-19.9-30-19.9-48v-1.5c0-36.7 29.7-66.4 66.4-66.4c9 0 17.9 1.8 26.1 5.4l67.6 29c-.1-.8-.1-1.5-.1-2.3V320H128c-17.7 0-32-14.3-32-32s14.3-32 32-32h96V224H32c-17.7 0-32-14.3-32-32s14.3-32 32-32H224V128H96c-17.7 0-32-14.3-32-32s14.3-32 32-32H224V32c0-17.7 14.3-32 32-32zM184 440a24 24 0 1 0 -48 0 24 24 0 1 0 48 0zm192 0a24 24 0 1 0 -48 0 24 24 0 1 0 48 0z"/></svg>