<svg xmlns="http://www.w3.org/2000/svg" viewBox="0 0 512 512"><!--! Font Awesome Pro 6.5.2 by @fontawesome - https://fontawesome.com License - https://fontawesome.com/license (Commercial License) Copyright 2024 Fonticons, Inc. --><path d="M383.4 38c3.3-17.4-8-34.1-25.4-37.5s-34.1 8-37.5 25.4l-1.2 6H245.7c-22.1 130.8-76 201.3-127.2 238.9c-26.2 19.3-51.2 29.5-69.9 35c-6.3 1.8-11.8 3.1-16.5 4L.6 474c-1.8 9.4 .7 19.1 6.8 26.4S22.5 512 32 512H448h32c17.7 0 32-14.3 32-32s-14.3-32-32-32V376c0-12.3-7-23.4-18-28.8L340 288H272c-8.8 0-16-7.2-16-16s7.2-16 16-16h69.5l12.3-64H288c-8.8 0-16-7.2-16-16s7.2-16 16-16h72l17.3-90 6.2-32zM38.8 275.4c.3-.1 .6-.2 .9-.3c15.6-4.6 37.1-13.3 59.9-30c43-31.6 92.3-92.9 113.7-213.1H112C96.7 32 83.5 42.9 80.6 58L38.8 275.4z"/></svg>