<svg xmlns="http://www.w3.org/2000/svg" viewBox="0 0 640 512"><!--! Font Awesome Pro 6.5.2 by @fontawesome - https://fontawesome.com License - https://fontawesome.com/license (Commercial License) Copyright 2024 Fonticons, Inc. --><path d="M390.3 .6c17.3 3.5 28.6 20.3 25.1 37.7l-6.4 32L397.4 128H336c-8.8 0-16 7.2-16 16s7.2 16 16 16h55l-9.6 48H320c-8.8 0-16 7.2-16 16s7.2 16 16 16h62.2l78.7 34.7c11.6 5.1 19.1 16.6 19.1 29.3v80c0 17.7-14.3 32-32 32H120c-9.6 0-18.7-4.3-24.7-11.7s-8.5-17.2-6.6-26.6l24.7-123.6c2.9-.5 6.1-1.2 9.5-2.1c15.6-3.9 36.4-11.6 58.3-26.9c42.4-29.7 86.4-86.4 104.5-193.1h65.7l1.3-6.3C356.1 8.4 372.9-2.8 390.3 .6zM162.8 198.9c-15.8 11-30.8 17.2-42.6 20.7L152.6 57.7c3-15 16.1-25.7 31.4-25.7h69.2c-17.4 96-56.7 143.3-90.4 166.9zM640 416c0 53-43 96-96 96H32c-17.7 0-32-14.3-32-32s14.3-32 32-32H544c17.7 0 32-14.3 32-32s14.3-32 32-32s32 14.3 32 32z"/></svg>