<svg xmlns="http://www.w3.org/2000/svg" viewBox="0 0 640 512"><!--! Font Awesome Pro 6.5.1 by @fontawesome - https://fontawesome.com License - https://fontawesome.com/license (Commercial License) Copyright 2023 Fonticons, Inc. --><path d="M128 0C92.7 0 64 28.7 64 64H448c0-35.3-28.7-64-64-64H128zM64 96C28.7 96 0 124.7 0 160V352c0 35.3 28.7 64 64 64v32c0 35.3 28.7 64 64 64H416h32 80c53 0 96-43 96-96V211.8c9.8-8.8 16-21.6 16-35.8c0-26.5-21.5-48-48-48s-48 21.5-48 48c0 14.2 6.2 27 16 35.8V416c0 17.7-14.3 32-32 32H448V416c35.3 0 64-28.7 64-64V160c0-35.3-28.7-64-64-64H64zM56 200c0-13.3 10.7-24 24-24h59.9c23 0 38.5 23.5 29.4 44.6L126.1 321.5c-5.2 12.2-19.3 17.8-31.5 12.6s-17.8-19.3-12.6-31.5L115.6 224H80c-13.3 0-24-10.7-24-24zm168-24h59.9c23 0 38.5 23.5 29.4 44.6L270.1 321.5c-5.2 12.2-19.3 17.8-31.5 12.6s-17.8-19.3-12.6-31.5L259.6 224H224c-13.3 0-24-10.7-24-24s10.7-24 24-24zm120 24c0-13.3 10.7-24 24-24h59.9c23 0 38.5 23.5 29.4 44.6L414.1 321.5c-5.2 12.2-19.3 17.8-31.5 12.6s-17.8-19.3-12.6-31.5L403.6 224H368c-13.3 0-24-10.7-24-24z"/></svg>