<svg xmlns="http://www.w3.org/2000/svg" viewBox="0 0 448 512"><!--! Font Awesome Pro 6.5.1 by @fontawesome - https://fontawesome.com License - https://fontawesome.com/license (Commercial License) Copyright 2023 Fonticons, Inc. --><path d="M192 0c-17.7 0-32 14.3-32 32s14.3 32 32 32h32l-57.6 76.8c-7.3 9.7-8.4 22.7-3 33.5s16.5 17.7 28.6 17.7h96c17.7 0 32-14.3 32-32s-14.3-32-32-32H256l57.6-76.8c7.3-9.7 8.4-22.7 3-33.5S300.1 0 288 0H192zM320 224c-17.7 0-32 14.3-32 32s14.3 32 32 32h32l-57.6 76.8c-7.3 9.7-8.4 22.7-3 33.5s16.5 17.7 28.6 17.7h96c17.7 0 32-14.3 32-32s-14.3-32-32-32H384l57.6-76.8c7.3-9.7 8.4-22.7 3-33.5S428.1 224 416 224H320zM32 256c-17.7 0-32 14.3-32 32s14.3 32 32 32h91.7L7.4 459.5c-7.9 9.5-9.7 22.8-4.4 34.1S19.6 512 32 512H192c17.7 0 32-14.3 32-32s-14.3-32-32-32H100.3L216.6 308.5c7.9-9.5 9.7-22.8 4.4-34.1s-16.6-18.4-29-18.4H32z"/></svg>