<svg xmlns="http://www.w3.org/2000/svg" viewBox="0 0 384 512"><!--! Font Awesome Pro 6.5.1 by @fontawesome - https://fontawesome.com License - https://fontawesome.com/license (Commercial License) Copyright 2023 Fonticons, Inc. --><path d="M208 0c-6.5 0-12.3 3.9-14.8 9.9s-1.1 12.9 3.5 17.4l6.1 6.1c3.4 3.4 5.3 7.9 5.3 12.7C208 56 200 64 190.1 64H128c-35.3 0-64 28.7-64 64c0 11.8 3.2 22.9 8.8 32.4C40.8 164 16 191.1 16 224c0 35.3 28.7 64 64 64H304c35.3 0 64-28.7 64-64s-28.7-64-64-64h-2.3c11.5-14.4 18.3-32.7 18.3-52.6C320 48.1 271.9 0 212.6 0H208zM48 320v32c0 17.7 14.3 32 32 32h1.8l11.1 99.5c1.8 16.2 15.5 28.5 31.8 28.5H259.4c16.3 0 30-12.3 31.8-28.5L302.2 384H304c17.7 0 32-14.3 32-32V320H48z"/></svg>