<svg xmlns="http://www.w3.org/2000/svg" viewBox="0 0 512 512"><!--! Font Awesome Pro 6.5.1 by @fontawesome - https://fontawesome.com License - https://fontawesome.com/license (Commercial License) Copyright 2023 Fonticons, Inc. --><path d="M448 256c0 41.9-13.4 80.6-36.2 112.2C387.3 370.3 368 390.9 368 416c0 26.5 21.5 48 48 48s48-21.5 48-48c0-3.2-.3-6.4-.9-9.4C493.8 364.3 512 312.3 512 256C512 114.6 397.4 0 256 0c-42.3 0-82.1 10.2-117.2 28.4c18.6 11.8 32 31.1 36 53.6C199.4 70.4 227 64 256 64c106 0 192 86 192 192zM256 448C150 448 64 362 64 256c0-41.9 13.4-80.6 36.2-112.2C124.7 141.7 144 121.1 144 96c0-26.5-21.5-48-48-48S48 69.5 48 96c0 3.2 .3 6.4 .9 9.4C18.2 147.7 0 199.7 0 256C0 397.4 114.6 512 256 512c42.1 0 81.7-10.1 116.8-28.1c-18.5-11.9-31.8-31.3-35.6-53.8C312.5 441.6 285 448 256 448zM389.2 182.7c1.8-4.6 2.8-9.5 2.8-14.7c0-22.1-17.9-40-40-40c-4 0-7.8 .6-11.5 1.7C316.4 113.5 287.3 104 256 104c-83.9 0-152 68.1-152 152s68.1 152 152 152s152-68.1 152-152c0-26.6-6.8-51.5-18.8-73.3zM312 168.4c.2 20.6 16 37.6 36.2 39.5c7.5 14.4 11.8 30.8 11.8 48.2c0 57.4-46.6 104-104 104s-104-46.6-104-104s46.6-104 104-104c20.6 0 39.8 6 56 16.4zm8 87.6a64 64 0 1 0 -128 0 64 64 0 1 0 128 0z"/></svg>