<svg xmlns="http://www.w3.org/2000/svg" viewBox="0 0 512 512"><!--! Font Awesome Pro 6.5.2 by @fontawesome - https://fontawesome.com License - https://fontawesome.com/license (Commercial License) Copyright 2024 Fonticons, Inc. --><path d="M512 256c0 7.8-.3 15.5-1 23.1C438.8 304.7 351.2 320 256 320s-182.8-15.3-255-40.9c-.7-7.6-1-15.3-1-23.1C0 114.6 114.6 0 256 0S512 114.6 512 256zM256 512C134.9 512 33.4 427.9 6.8 314.8C79.4 338.4 164.7 352 256 352s176.6-13.6 249.2-37.2C478.6 427.9 377.1 512 256 512zM160 160a32 32 0 1 1 64 0 32 32 0 1 1 -64 0zm112 0a80 80 0 1 0 -160 0 80 80 0 1 0 160 0z"/></svg>