<svg xmlns="http://www.w3.org/2000/svg" viewBox="0 0 512 512"><!--! Font Awesome Pro 6.5.2 by @fontawesome - https://fontawesome.com License - https://fontawesome.com/license (Commercial License) Copyright 2024 Fonticons, Inc. --><path d="M512 256c0 7.8-.3 15.5-1 23.1C438.8 304.7 351.2 320 256 320s-182.8-15.3-255-40.9c-.7-7.6-1-15.3-1-23.1C0 114.6 114.6 0 256 0c57.8 0 111.1 19.1 153.9 51.4c3.9 2.9 6.1 7.5 6.1 12.4V80c0 8.8-7.2 16-16 16H368c-8.8 0-16 7.2-16 16v32c0 8.8 7.2 16 16 16h48 16c8.8 0 16 7.2 16 16v32c0 8.8 7.2 16 16 16h31.9c8.1 0 14.9 6 15.5 14.1c.4 5.9 .6 11.9 .6 17.9zM256 512C134.9 512 33.4 427.9 6.8 314.8C79.4 338.4 164.7 352 256 352c44.3 0 87.3-3.2 128-9.2V368c0 8.8 7.2 16 16 16h32c8.8 0 16 7.2 16 16v19.3c0 3.9-1.4 7.7-4.1 10.5C397.2 480.4 330.3 512 256 512zM160 160a32 32 0 1 1 64 0 32 32 0 1 1 -64 0zm112 0a80 80 0 1 0 -160 0 80 80 0 1 0 160 0z"/></svg>