<svg xmlns="http://www.w3.org/2000/svg" viewBox="0 0 512 512"><!--! Font Awesome Pro 6.5.1 by @fontawesome - https://fontawesome.com License - https://fontawesome.com/license (Commercial License) Copyright 2023 Fonticons, Inc. --><path d="M278 12.5c-12.3-11.7-31.7-11.7-44 0L168 75.1 40 196.3c-51.3 48.6-53.5 129.6-4.9 181s129.6 53.5 181 4.9l8-7.6V448H192c-17.7 0-32 14.3-32 32s14.3 32 32 32H320c17.7 0 32-14.3 32-32s-14.3-32-32-32H288V374.6l8 7.6c51.3 48.6 132.3 46.4 181-4.9s46.4-132.3-4.9-181L344 75.1 278 12.5z"/></svg>