<svg xmlns="http://www.w3.org/2000/svg" viewBox="0 0 576 512"><!--! Font Awesome Pro 6.5.2 by @fontawesome - https://fontawesome.com License - https://fontawesome.com/license (Commercial License) Copyright 2024 Fonticons, Inc. --><path d="M133.8 22.2c4.8-12.7 18-20.2 31.4-17.7l69 12.9c35.6 6.7 72.1 6.7 107.6 0l69-12.9c13.4-2.5 26.6 5 31.4 17.7l28.9 77.2c11.5 30.7 28.1 59.2 49.1 84.4l45.3 54.3c8.7 10.4 8.7 25.5 0 35.9l-45.3 54.3c-21 25.2-37.6 53.7-49.1 84.4l-28.9 77.2c-4.8 12.7-18 20.2-31.4 17.7l-69-12.9c-35.6-6.7-72.1-6.7-107.6 0l-69 12.9c-13.4 2.5-26.6-5-31.4-17.7l-28.9-77.2C93.3 382 76.7 353.4 55.7 328.2L10.5 273.9c-8.7-10.4-8.7-25.5 0-35.9l45.3-54.3c21-25.2 37.6-53.7 49.1-84.4l28.9-77.2zm33.3 70.6L157.3 119c-13.7 36.6-33.5 70.6-58.5 100.6L88.4 232h44.6c23.5-27.6 41.7-59.2 53.7-93.4l2.5-7L167.1 92.8zm42.1-23.1l21.4 37.4c37.7 9.5 77.2 9.5 114.9 0l21.4-37.4-14.7 2.8c-42.4 7.9-85.9 7.9-128.3 0l-14.7-2.8zM408.9 92.8l-22.2 38.8 2.5 7c12.1 34.2 30.3 65.8 53.8 93.4h44.6l-10.3-12.4c-25-30-44.8-64-58.5-100.6l-9.8-26.2zM487.6 280H443c-23.6 28.1-41.8 60.4-53.6 95.3l-2.1 6.1 21.6 37.9 9.8-26.2c13.7-36.6 33.5-70.6 58.5-100.6L487.6 280zM366.8 442.3l-19.5-34.2c-37.9-11.7-78.3-12.8-116.7-3.2l-21.3 37.4 14.7-2.7c42.4-7.9 85.9-7.9 128.3 0l14.7 2.7zM167.1 419.2l22.2-38.8-2.5-7c-12.1-34.2-30.3-65.8-53.7-93.4H88.4l10.3 12.4c25 30 44.8 64 58.5 100.6l9.8 26.2zM193.2 280c10.1 15 18.9 30.7 26.5 47.1L246.6 280H193.2zm67.9 71.4c18.1-1.5 36.3-1.2 54.3 1L288 304.4l-26.9 47zm95.5-23.7c7.6-16.6 16.4-32.5 26.5-47.7H329.4l27.3 47.7zM382.8 232c-10.1-15-18.9-30.7-26.5-47.1L329.4 232h53.4zm-68.1-71c-17.7 1.7-35.6 1.7-53.3 0L288 207.6 314.7 161zm-94.9 23.9c-7.6 16.4-16.5 32.1-26.5 47.1h53.4l-26.9-47.1z"/></svg>