<svg xmlns="http://www.w3.org/2000/svg" viewBox="0 0 512 512"><!--! Font Awesome Pro 6.5.1 by @fontawesome - https://fontawesome.com License - https://fontawesome.com/license (Commercial License) Copyright 2023 Fonticons, Inc. --><path d="M487.6 48.9c-.1-.5-.2-1-.3-1.5L365.3 169.3c34.8 30.2 79 49.8 127.6 53.9c9.3-63 4.7-125.5-5.4-174.3zM464.8 24.6c-1.1-.3-2.2-.5-3.3-.7c-65.6-11-122.9-12.5-172.8-6c3.9 49.1 23.6 93.7 54 128.8L464.8 24.6zM446 358.4c19.8-32.3 33-67.7 41.1-103.6c-55.1-5.3-105.1-28.1-144.4-62.8l-64 64L418.5 395.9c10.3-11.8 19.4-24.4 27.4-37.5zM320 169.4c-35-39.7-57.9-90.3-63-146.1c-17 3.6-33 8.3-48.1 13.9c-37 13.7-67.8 33-93.1 56L256 233.4l64-64zM233.4 256L93.4 116.1C83.2 127.9 74.1 140.5 66 153.6c-19.8 32.3-33 67.7-41.1 103.6c55.1 5.3 105.1 28.1 144.4 62.8l64-64zM192 342.6c35 39.7 58 90.3 63 146.1c17-3.6 33-8.3 48.1-13.9c37-13.7 67.8-33 93.1-56L256 278.6l-64 64zm-45.3 .1c-34.8-30.2-79-49.8-127.6-53.9c-9.3 63-4.7 125.5 5.4 174.3c.1 .5 .2 1 .3 1.5L146.7 342.7zm22.6 22.6L47.2 487.4c1.1 .3 2.2 .5 3.3 .7c65.6 11 122.9 12.5 172.8 6c-3.9-49.1-23.6-93.7-54-128.8z"/></svg>