<svg xmlns="http://www.w3.org/2000/svg" viewBox="0 0 512 512"><!--! Font Awesome Pro 6.5.1 by @fontawesome - https://fontawesome.com License - https://fontawesome.com/license (Commercial License) Copyright 2023 Fonticons, Inc. --><path d="M24 0a24 24 0 1 1 0 48A24 24 0 1 1 24 0zM0 128a24 24 0 1 1 48 0A24 24 0 1 1 0 128zM0 232a24 24 0 1 1 48 0A24 24 0 1 1 0 232zM64 72a24 24 0 1 1 48 0A24 24 0 1 1 64 72zm24 88a24 24 0 1 1 0 48 24 24 0 1 1 0-48zm40-32a24 24 0 1 1 48 0 24 24 0 1 1 -48 0zm360 80a24 24 0 1 1 0 48 24 24 0 1 1 0-48zm24-80a24 24 0 1 1 -48 0 24 24 0 1 1 48 0zM488 0a24 24 0 1 1 0 48 24 24 0 1 1 0-48zM448 72a24 24 0 1 1 -48 0 24 24 0 1 1 48 0zm-24 88a24 24 0 1 1 0 48 24 24 0 1 1 0-48zm-40-32a24 24 0 1 1 -48 0 24 24 0 1 1 48 0zM256 64c17.7 0 32 14.3 32 32V256H388.2c15.3 0 27.8 12.4 27.8 27.8c0 7.8-3.3 15.2-9 20.5L320 384v96c0 17.7-14.3 32-32 32H224c-17.7 0-32-14.3-32-32V384l-87-79.7c-5.7-5.3-9-12.7-9-20.5c0-15.3 12.4-27.8 27.8-27.8H224V96c0-17.7 14.3-32 32-32z"/></svg>