<svg xmlns="http://www.w3.org/2000/svg" viewBox="0 0 448 512"><!--! Font Awesome Pro 6.5.1 by @fontawesome - https://fontawesome.com License - https://fontawesome.com/license (Commercial License) Copyright 2023 Fonticons, Inc. --><path d="M64 32C28.7 32 0 60.7 0 96V416c0 35.3 28.7 64 64 64H384c35.3 0 64-28.7 64-64V96c0-35.3-28.7-64-64-64H64zm177 87L353 231c9.4 9.4 9.4 24.6 0 33.9s-24.6 9.4-33.9 0l-71-71V376c0 13.3-10.7 24-24 24s-24-10.7-24-24V193.9l-71 71c-9.4 9.4-24.6 9.4-33.9 0s-9.4-24.6 0-33.9L207 119c9.4-9.4 24.6-9.4 33.9 0z"/></svg>