<svg xmlns="http://www.w3.org/2000/svg" viewBox="0 0 512 512"><!--! Font Awesome Pro 6.5.1 by @fontawesome - https://fontawesome.com License - https://fontawesome.com/license (Commercial License) Copyright 2023 Fonticons, Inc. --><path d="M276 .3c-5.3-1.1-10.8 .6-14.6 4.5s-5.4 9.4-4.2 14.7l13.1 58.9c-71.9 46.2-103.4 101.8-110.6 148.4L146 213l-2.3-2.3-22.6-22.6c-6.2-6.2-6.2-16.4 0-22.6l56.4-56.4c18.9-18.9 18.7-49.5-.3-68.2L140.1 4.6c-6.3-6.1-16.3-6.1-22.5 .1l-2.8 2.8c-34 34-33.3 87.7-1.9 121L98.5 142.9c-18.7 18.7-18.7 49.1 0 67.9l22.6 22.6 0 0 5.7 5.7 0 0c9.3 9.4 9.3 24.5 0 33.9c-9.3 9.3-24.4 9.4-33.8 .2L76.5 256.6c-19.1-19.1-50.2-18.7-68.7 .9L4.4 261c-6.1 6.4-5.8 16.5 .6 22.6s16.5 5.8 22.6-.6l3.3-3.5c6.2-6.5 16.6-6.7 22.9-.3l10.6 10.6 .1 .2 22.6 22.6c10.1 10.2 9 26.9-2.4 35.8l-20 15.6c-3.5 2.7-7.7 4.2-12.1 4.2c-10.9 0-19.7-8.8-19.7-19.7V336c0-8.8-7.2-16-16-16s-16 7.2-16 16l0 12.3C.9 376.8 24.1 400 52.6 400c11.5 0 22.7-3.8 31.8-10.9l28.2-21.9c9.4-7.3 22.8-6.5 31.2 1.9s9.3 21.8 1.9 31.2l-21.9 28.2c-7.1 9.1-10.9 20.3-10.9 31.8c0 28.6 23.2 51.7 51.7 51.7h12.3c8.8 0 16-7.2 16-16s-7.2-16-16-16H164.6c-10.9 0-19.7-8.8-19.7-19.7c0-4.4 1.5-8.7 4.2-12.1l15.6-20c8.8-11.4 25.6-12.4 35.8-2.3l.1 .1L223 448.3l.1 .1 9.9 9.8c6.5 6.5 6.2 17.2-.7 23.3l-2.8 2.5c-6.6 5.9-7.2 16-1.3 22.6s16 7.2 22.6 1.3l2.8-2.5c20.7-18.3 21.6-50.3 2.1-69.8l-9.9-9.9-5.7-5.7-.1-.1c-9.3-9.3-9.3-24.4 0-33.8l.1-.1 .1-.1c9.3-9.2 24.4-9.2 33.7 0l28.4 28.4c18.7 18.7 49.1 18.7 67.9 0L384.4 400c33.3 31.4 87 32.1 121-1.9l2.8-2.8c6.2-6.2 6.3-16.3 .1-22.5L472 335.7c-18.7-19-49.3-19.2-68.2-.3l-56.4 56.3c-6.2 6.2-16.4 6.2-22.6 0l-22.5-22.5-.1-.1-16-16c46.6-7.2 102.2-38.7 148.4-110.6l58.9 13.1c5.3 1.2 10.8-.4 14.7-4.2s5.6-9.3 4.5-14.6L489.3 120.2c9.2-30.2 17.2-64 23.4-101.5c.9-5.1-.8-10.3-4.5-13.9S499.4-.6 494.3 .2C456.7 6.5 423 14.4 392.7 23.6L276 .3zM168.9 280a16 16 0 1 1 32 0 16 16 0 1 1 -32 0zm64 32a16 16 0 1 1 0 32 16 16 0 1 1 0-32z"/></svg>