<svg xmlns="http://www.w3.org/2000/svg" viewBox="0 0 512 512"><!--! Font Awesome Pro 6.5.1 by @fontawesome - https://fontawesome.com License - https://fontawesome.com/license (Commercial License) Copyright 2023 Fonticons, Inc. --><path d="M325.8 152.3c1.3 4.6 5.5 7.7 10.2 7.7s8.9-3.1 10.2-7.7L360 104l48.3-13.8c4.6-1.3 7.7-5.5 7.7-10.2s-3.1-8.9-7.7-10.2L360 56 346.2 7.7C344.9 3.1 340.7 0 336 0s-8.9 3.1-10.2 7.7L312 56 263.7 69.8c-4.6 1.3-7.7 5.5-7.7 10.2s3.1 8.9 7.7 10.2L312 104l13.8 48.3zm-112.4 5.1c-8.8-17.9-34.3-17.9-43.1 0l-46.3 94L20.5 266.5C.9 269.3-7 293.5 7.2 307.4l74.9 73.2L64.5 483.9c-3.4 19.6 17.2 34.6 34.8 25.3l92.6-48.8 92.6 48.8c17.6 9.3 38.2-5.7 34.8-25.3L301.6 380.6l74.9-73.2c14.2-13.9 6.4-38.1-13.3-40.9L259.7 251.4l-46.3-94zm215.4 85.8l11 38.6c1 3.6 4.4 6.2 8.2 6.2s7.1-2.5 8.2-6.2l11-38.6 38.6-11c3.6-1 6.2-4.4 6.2-8.2s-2.5-7.1-6.2-8.2l-38.6-11-11-38.6c-1-3.6-4.4-6.2-8.2-6.2s-7.1 2.5-8.2 6.2l-11 38.6-38.6 11c-3.6 1-6.2 4.4-6.2 8.2s2.5 7.1 6.2 8.2l38.6 11z"/></svg>