<svg xmlns="http://www.w3.org/2000/svg" viewBox="0 0 640 512"><!--! Font Awesome Pro 6.5.2 by @fontawesome - https://fontawesome.com License - https://fontawesome.com/license (Commercial License) Copyright 2024 Fonticons, Inc. --><path d="M148.8 7.7c13.4 11.5 15 31.7 3.5 45.1L64 155.8v61.8l107.6-21.5C195.3 137.4 252.8 96 320 96s124.7 41.4 148.4 100.1L576 217.6V148.5L488.5 53.7c-12-13-11.2-33.2 1.8-45.2s33.2-11.2 45.2 1.8L623 105.1c10.9 11.8 17 27.3 17 43.4V348.8c0 14.5-4.9 28.6-14 40L537 500c-11 13.8-31.2 16-45 5s-16-31.2-5-45l89-111.2V294.4L468.4 315.9C444.7 374.6 387.2 416 320 416s-124.7-41.4-148.4-100.1L64 294.4v61.8l88.3 103c11.5 13.4 9.9 33.6-3.5 45.1s-33.6 9.9-45.1-3.5l-88.3-103C5.5 386.2 0 371.4 0 356.2V155.8c0-15.3 5.5-30.1 15.4-41.7l88.3-103c11.5-13.4 31.7-15 45.1-3.5zM304 350.7V318c-5.9-1.5-11.4-3.8-16.5-6.8l-23.1 23.1c11.6 8.2 25 14 39.6 16.4zm-62.3-39l23.1-23.1c-3-5.1-5.3-10.6-6.8-16.5H225.3c2.4 14.6 8.2 28.1 16.4 39.6zM225.3 240H258c1.5-5.9 3.8-11.4 6.8-16.5l-23.1-23.1c-8.2 11.6-14 25-16.4 39.6zm39-62.3l23.1 23.1c5.1-3 10.6-5.3 16.5-6.8V161.3c-14.6 2.4-28.1 8.2-39.6 16.4zM375.6 334.3l-23.1-23.1c-5.1 3-10.6 5.3-16.5 6.8v32.7c14.6-2.4 28.1-8.2 39.6-16.4zm22.6-22.6c8.2-11.6 14-25 16.4-39.6H382c-1.5 5.9-3.8 11.4-6.8 16.5l23.1 23.1zM382 240h32.7c-2.4-14.6-8.2-28.1-16.4-39.6l-23.1 23.1c3 5.1 5.3 10.6 6.8 16.5zm-6.4-62.3c-11.6-8.2-25-14-39.6-16.4V194c5.9 1.5 11.4 3.8 16.5 6.8l23.1-23.1zM342.8 278.5c5.7-5.8 9.2-13.7 9.2-22.5c0-17.7-14.3-32-32-32l0 0 0 0c-17.7 0-32 14.3-32 32c0 17.7 14.3 32 32 32c8.8 0 16.7-3.5 22.5-9.2l.3-.3z"/></svg>