<svg xmlns="http://www.w3.org/2000/svg" viewBox="0 0 576 512"><!--! Font Awesome Pro 6.5.1 by @fontawesome - https://fontawesome.com License - https://fontawesome.com/license (Commercial License) Copyright 2023 Fonticons, Inc. --><path d="M32 32c17.7 0 32 14.3 32 32V211.2l75.6-15.1C163.3 137.4 220.8 96 288 96s124.7 41.4 148.4 100.1L512 211.2V64c0-17.7 14.3-32 32-32s32 14.3 32 32V224v64V448c0 17.7-14.3 32-32 32s-32-14.3-32-32V300.8l-75.6 15.1C412.7 374.6 355.2 416 288 416s-124.7-41.4-148.4-100.1L64 300.8V448c0 17.7-14.3 32-32 32s-32-14.3-32-32V288 224 64C0 46.3 14.3 32 32 32zM272 350.7V318c-5.9-1.5-11.4-3.8-16.5-6.8l-23.1 23.1c11.6 8.2 25 14 39.6 16.4zm-62.3-39l23.1-23.1c-3-5.1-5.3-10.6-6.8-16.5H193.3c2.4 14.6 8.2 28.1 16.4 39.6zM193.3 240H226c1.5-5.9 3.8-11.4 6.8-16.5l-23.1-23.1c-8.2 11.6-14 25-16.4 39.6zm39-62.3l23.1 23.1c5.1-3 10.6-5.3 16.5-6.8V161.3c-14.6 2.4-28.1 8.2-39.6 16.4zM343.6 334.3l-23.1-23.1c-5.1 3-10.6 5.3-16.5 6.8v32.7c14.6-2.4 28.1-8.2 39.6-16.4zm22.6-22.6c8.2-11.6 14-25 16.4-39.6H350c-1.5 5.9-3.8 11.4-6.8 16.5l23.1 23.1zM350 240h32.7c-2.4-14.6-8.2-28.1-16.4-39.6l-23.1 23.1c3 5.1 5.3 10.6 6.8 16.5zm-6.4-62.3c-11.6-8.2-25-14-39.6-16.4V194c5.9 1.5 11.4 3.8 16.5 6.8l23.1-23.1zM310.8 278.5c5.7-5.8 9.2-13.7 9.2-22.5c0-17.7-14.3-32-32-32s-32 14.3-32 32s14.3 32 32 32c8.8 0 16.7-3.5 22.5-9.2l.3-.3z"/></svg>