<svg xmlns="http://www.w3.org/2000/svg" viewBox="0 0 576 512"><!--! Font Awesome Pro 6.5.2 by @fontawesome - https://fontawesome.com License - https://fontawesome.com/license (Commercial License) Copyright 2024 Fonticons, Inc. --><path d="M224 480C100.3 480 0 379.7 0 256S100.3 32 224 32c42.3 0 84.2 7.9 123.6 23.2l207.9 80.9c12.3 4.8 20.4 16.6 20.4 29.8V208c0 8.8-7.2 16-16 16H445.7 432c-8.8 0-16 7.2-16 16v32c0 8.8 7.2 16 16 16h13.7H560c8.8 0 16 7.2 16 16v42.1c0 13.2-8.1 25-20.4 29.8l-82.1 31.9c4.1 7.1 6.5 15.3 6.5 24.1c0 26.5-21.5 48-48 48H352c-11.5 0-21.6-6.1-27.3-15.2C292.2 474.9 258.2 480 224 480zm0-272a48 48 0 1 1 0 96 48 48 0 1 1 0-96zm0 128a80 80 0 1 0 0-160 80 80 0 1 0 0 160zM80 272a16 16 0 1 0 0-32 16 16 0 1 0 0 32zm48-112a16 16 0 1 0 -32 0 16 16 0 1 0 32 0zM112 368a16 16 0 1 0 0-32 16 16 0 1 0 0 32z"/></svg>