<svg xmlns="http://www.w3.org/2000/svg" viewBox="0 0 512 512"><!--! Font Awesome Pro 6.5.1 by @fontawesome - https://fontawesome.com License - https://fontawesome.com/license (Commercial License) Copyright 2023 Fonticons, Inc. --><path d="M313 41L265 89c-9.4 9.4-24.6 9.4-33.9 0s-9.4-24.6 0-33.9L279 7c9.4-9.4 24.6-9.4 33.9 0s9.4 24.6 0 33.9zM170.4 157.4c8.8-17.9 34.3-17.9 43.1 0l46.3 94 103.5 15.1c19.7 2.9 27.5 27 13.3 40.9l-74.9 73.2 17.7 103.3c3.4 19.6-17.2 34.6-34.8 25.3l-92.6-48.8L99.3 509.2c-17.6 9.3-38.2-5.7-34.8-25.3L82.2 380.6 7.2 307.4C-7 293.5 .9 269.3 20.5 266.5l103.5-15.1 46.3-94zM505 199c9.4 9.4 9.4 24.6 0 33.9l-48 48c-9.4 9.4-24.6 9.4-33.9 0s-9.4-24.6 0-33.9l48-48c9.4-9.4 24.6-9.4 33.9 0zM505 41L361 185c-9.4 9.4-24.6 9.4-33.9 0s-9.4-24.6 0-33.9L471 7c9.4-9.4 24.6-9.4 33.9 0s9.4 24.6 0 33.9z"/></svg>