<svg xmlns="http://www.w3.org/2000/svg" viewBox="0 0 512 512"><!--! Font Awesome Pro 6.5.2 by @fontawesome - https://fontawesome.com License - https://fontawesome.com/license (Commercial License) Copyright 2024 Fonticons, Inc. --><path d="M15.5 275.9L192 320l44.1 176.5c2.3 9.1 10.5 15.5 19.9 15.5s17.6-6.4 19.9-15.5L320 320l176.5-44.1c9.1-2.3 15.5-10.5 15.5-19.9s-6.4-17.6-15.5-19.9L320 192 275.9 15.5C273.6 6.4 265.4 0 256 0s-17.6 6.4-19.9 15.5L192 192 15.5 236.1C6.4 238.4 0 246.6 0 256s6.4 17.6 15.5 19.9zM71 71c-9.4 9.4-9.4 24.6 0 33.9l48 48c9.4 9.4 24.6 9.4 33.9 0s9.4-24.6 0-33.9L105 71c-9.4-9.4-24.6-9.4-33.9 0zM441 71c-9.4-9.4-24.6-9.4-33.9 0l-48 48c-9.4 9.4-9.4 24.6 0 33.9s24.6 9.4 33.9 0l48-48c9.4-9.4 9.4-24.6 0-33.9zm0 336l-48-48c-9.4-9.4-24.6-9.4-33.9 0s-9.4 24.6 0 33.9l48 48c9.4 9.4 24.6 9.4 33.9 0s9.4-24.6 0-33.9zM71 441c9.4 9.4 24.6 9.4 33.9 0l48-48c9.4-9.4 9.4-24.6 0-33.9s-24.6-9.4-33.9 0L71 407c-9.4 9.4-9.4 24.6 0 33.9z"/></svg>