<svg xmlns="http://www.w3.org/2000/svg" viewBox="0 0 640 512"><!--! Font Awesome Pro 6.5.2 by @fontawesome - https://fontawesome.com License - https://fontawesome.com/license (Commercial License) Copyright 2024 Fonticons, Inc. --><path d="M353.8 14L384 256V464c0 8.8-7.2 16-16 16H272c-8.8 0-16-7.2-16-16V256L286.2 14c1-8 7.8-14 15.9-14h35.8c8.1 0 14.9 6 15.9 14zM288 256v48c0 8.8 7.2 16 16 16h32c8.8 0 16-7.2 16-16V256c0-17.7-14.3-32-32-32s-32 14.3-32 32zM48 72c13.3 0 24 10.7 24 24v24c13.3 0 24 10.7 24 24s-10.7 24-24 24V352h56V320c0-17.7 14.3-32 32-32h32c17.7 0 32 14.3 32 32v32 64 32 32c0 17.7-14.3 32-32 32s-32-14.3-32-32v-9.6L72 444v4c0 13.3-10.7 24-24 24s-24-10.7-24-24V168c-13.3 0-24-10.7-24-24s10.7-24 24-24V96c0-13.3 10.7-24 24-24zm544 0c13.3 0 24 10.7 24 24v24c13.3 0 24 10.7 24 24s-10.7 24-24 24V448c0 13.3-10.7 24-24 24s-24-10.7-24-24v-4l-88 26.4V480c0 17.7-14.3 32-32 32s-32-14.3-32-32V448 416 352 320c0-17.7 14.3-32 32-32h32c17.7 0 32 14.3 32 32v32h56V168c-13.3 0-24-10.7-24-24s10.7-24 24-24V96c0-13.3 10.7-24 24-24z"/></svg>