<svg xmlns="http://www.w3.org/2000/svg" viewBox="0 0 512 512"><!--! Font Awesome Pro 6.5.1 by @fontawesome - https://fontawesome.com License - https://fontawesome.com/license (Commercial License) Copyright 2023 Fonticons, Inc. --><path d="M224 358.9v86.5C143.6 431.9 80.1 368.4 66.7 288H168.9L224 358.9zm64 0L343.1 288H445.3C431.9 368.4 368.4 431.9 288 445.3V358.9zM352 224l-7.2-14.3c-5.4-10.8-16.5-17.7-28.6-17.7H195.8c-12.1 0-23.2 6.8-28.6 17.7L160 224H66.7C81.9 133.2 160.9 64 256 64s174.1 69.2 189.3 160H352zM256 512A256 256 0 1 0 256 0a256 256 0 1 0 0 512z"/></svg>