<svg xmlns="http://www.w3.org/2000/svg" viewBox="0 0 512 512"><!--! Font Awesome Pro 6.5.1 by @fontawesome - https://fontawesome.com License - https://fontawesome.com/license (Commercial License) Copyright 2023 Fonticons, Inc. --><path d="M192 32c0-17.7-14.3-32-32-32s-32 14.3-32 32V96c0 70.7 57.3 128 128 128v64c0 35.3-28.7 64-64 64H128C57.3 352 0 409.3 0 480c0 17.7 14.3 32 32 32s32-14.3 32-32c0-26.5 21.5-48 48-48c24.6 0 36 9.5 58.2 28.2l0 0c1.7 1.4 3.4 2.9 5.3 4.4c12.6 10.5 28.4 22.9 49.6 32.2C246.5 506.2 272 512 304 512c114.9 0 208-93.1 208-208V224c0-70.7-57.3-128-128-128c-47.4 0-88.7 25.7-110.9 64H256c-35.3 0-64-28.7-64-64V32zM445.1 332.7c-7.2 1.9-14.6 3.3-21.1 3.3c-16.8 .2-28.4-7.9-40-16s-23.2-16.3-40-16c-7.9 .1-17.1 2.1-25.6 4.6c1.1-6.7 1.6-13.6 1.6-20.6V224c0-35.3 28.7-64 64-64s64 28.7 64 64v80c0 9.8-1 19.4-2.9 28.7z"/></svg>