<svg xmlns="http://www.w3.org/2000/svg" viewBox="0 0 512 512"><!--! Font Awesome Pro 6.5.1 by @fontawesome - https://fontawesome.com License - https://fontawesome.com/license (Commercial License) Copyright 2023 Fonticons, Inc. --><path d="M481.5 1.9c12.2 5.2 17.8 19.3 12.6 31.5c-13.4 31.2-36.9 59-56.3 78.7c32.8 1.8 57.4 18 68.2 26.6c4 3.2 6 8.1 6 13.2s-2 10-6 13.3C495 174.4 469.7 192 440 192c-40 0-55.3-15.3-80-40s-40-40-40-80c0-29.7 17.6-55 26.7-66c3.3-4 8.2-6 13.3-6s10 2 13.2 6C382.3 17.4 400 44.3 400 80c0 .7 0 1.4 0 2.1c.7-.7 1.4-1.3 2-2c18.2-18.2 37.7-41.7 47.9-65.5c5.2-12.2 19.3-17.8 31.5-12.6zM0 336C0 160 96.2 64 192.2 64c32.7 .1 65.3 12.6 90.3 37.5l128 128c25 25 37.5 57.8 37.5 90.5c0 96-96 192-272 192C48 512 0 464 0 336zM172.8 172.8c11.9-11.9 14.6-28.3 8.7-34.3s-22.4-3.2-34.3 8.7s-14.6 28.3-8.7 34.3s22.4 3.2 34.3-8.7zm72.7 29.7c-5.9-5.9-22.4-3.2-34.3 8.7s-14.6 28.3-8.7 34.3s22.4 3.2 34.3-8.7s14.6-28.3 8.7-34.3zm-32 96c-5.9-5.9-22.4-3.2-34.3 8.7s-14.6 28.3-8.7 34.3s22.4 3.2 34.3-8.7s14.6-28.3 8.7-34.3zm-32 96c-5.9-5.9-22.4-3.2-34.3 8.7s-14.6 28.3-8.7 34.3s22.4 3.2 34.3-8.7s14.6-28.3 8.7-34.3zm87.3 2.3c11.9-11.9 14.6-28.3 8.7-34.3s-22.4-3.2-34.3 8.7s-14.6 28.3-8.7 34.3s22.4 3.2 34.3-8.7zm32-96c11.9-11.9 14.6-28.3 8.7-34.3s-22.4-3.2-34.3 8.7s-14.6 28.3-8.7 34.3s22.4 3.2 34.3-8.7zm72.7 29.7c-5.9-5.9-22.4-3.2-34.3 8.7s-14.6 28.3-8.7 34.3s22.4 3.2 34.3-8.7s14.6-28.3 8.7-34.3zm-224-96c-5.9-5.9-22.4-3.2-34.3 8.7s-14.6 28.3-8.7 34.3s22.4 3.2 34.3-8.7s14.6-28.3 8.7-34.3zM108.8 364.8c11.9-11.9 14.6-28.3 8.7-34.3s-22.4-3.2-34.3 8.7s-14.6 28.3-8.7 34.3s22.4 3.2 34.3-8.7z"/></svg>