<svg xmlns="http://www.w3.org/2000/svg" viewBox="0 0 640 512"><!--! Font Awesome Pro 6.5.1 by @fontawesome - https://fontawesome.com License - https://fontawesome.com/license (Commercial License) Copyright 2023 Fonticons, Inc. --><path d="M83 79.2C64.9 59.8 34.5 58.9 15.2 77S-5.1 125.5 13 144.8L123.5 262.7c15.1 16.1 36.3 25.3 58.4 25.3H592c26.5 0 48-21.5 48-48s-21.5-48-48-48H188.8L83 79.2zM240 448a16 16 0 1 1 32 0 16 16 0 1 1 -32 0zm80 0c0-5.3-.7-10.5-1.9-15.5L368 396.2l49.9 36.3c-1.2 5-1.9 10.2-1.9 15.5c0 35.3 28.7 64 64 64s64-28.7 64-64s-28.7-64-64-64c-12.4 0-24 3.5-33.9 9.7l-37.3-27.1 64-46.5H391.2L368 336.9 344.8 320H263.2l64 46.5-37.3 27.1c-9.8-6.1-21.4-9.7-33.9-9.7c-35.3 0-64 28.7-64 64s28.7 64 64 64s64-28.7 64-64zm160-16a16 16 0 1 1 0 32 16 16 0 1 1 0-32z"/></svg>