<svg xmlns="http://www.w3.org/2000/svg" viewBox="0 0 448 512"><!--! Font Awesome Pro 6.5.1 by @fontawesome - https://fontawesome.com License - https://fontawesome.com/license (Commercial License) Copyright 2023 Fonticons, Inc. --><path d="M448 368V144C448 82.1 347.7 32 224 32S0 82.1 0 144V368c0 61.9 100.3 112 224 112s224-50.1 224-112zM308.2 198.4c-24.5 6.1-53.3 9.6-84.2 9.6c-40.7 0-77.8-6.1-106-16.1c14.8-14.8 32.8-26.7 51.4-36.1c20.5-10.3 40.9-17 56.9-20.8c18.2 27.3 46.6 49.9 82 63.4zM205.1 80.4c.8 6 2.1 11.9 3.8 17.7c-17.3 4.7-37.4 11.8-57.5 21.9c-24.5 12.3-49.9 29.4-70.3 52.7C70.2 164.1 64 154.4 64 144c0-32.8 61.7-59.8 141.1-63.6zm40.7 .2c78 4.3 138.2 31 138.2 63.4c0 9.8-5.5 19.1-15.4 27.4c-69.5-5.5-113.5-48.4-122.8-90.8z"/></svg>