<svg xmlns="http://www.w3.org/2000/svg" viewBox="0 0 576 512"><!--! Font Awesome Pro 6.5.1 by @fontawesome - https://fontawesome.com License - https://fontawesome.com/license (Commercial License) Copyright 2023 Fonticons, Inc. --><path d="M479.7 320l-73.8-24.5L506.3 125.6c24.8 26.7 42.1 60.7 48.5 98.8l12.5 75.2c4 23.8-18.8 43.2-41.7 35.6l-7-2.3L479.7 320h0zM393.5 66.1c32.9 4.8 63.2 18 88.7 37.5L374.8 285.2 323.1 268c-14.6-4.9-29.9-7-45.2-6.4L393.5 66.1zm-36-2.1L235.6 270.4 96.1 318.7 246.6 64H357.5zM21.3 224.4C36.6 132.2 116.1 64.6 209.5 64L49.4 334.8C27 341.5 5 322.3 8.9 298.9l12.4-74.4zM32 384V369c8.5 .7 17.5-.3 26.4-3.4l193-66.9c20-6.9 41.6-7.1 61.7-.4l205.5 68.2c8.6 2.9 17.2 3.8 25.5 3.1V384c0 35.3-28.7 64-64 64c-19.1 0-36.3-8.4-48-21.7c-11.7 13.3-28.9 21.7-48 21.7s-36.3-8.4-48-21.7c-11.7 13.3-28.9 21.7-48 21.7s-36.3-8.4-48-21.7c-11.7 13.3-28.9 21.7-48 21.7s-36.3-8.4-48-21.7C132.3 439.6 115.1 448 96 448c-35.3 0-64-28.7-64-64z"/></svg>