<svg xmlns="http://www.w3.org/2000/svg" viewBox="0 0 512 512"><!--! Font Awesome Pro 6.5.1 by @fontawesome - https://fontawesome.com License - https://fontawesome.com/license (Commercial License) Copyright 2023 Fonticons, Inc. --><path d="M505 7c9.1 9.1 9.4 23.7 .7 33.2L285.2 281.3l-54.4-54.4L471.8 6.3c9.5-8.7 24.1-8.3 33.2 .7zM195.3 236.7l80 80c6.2 6.2 6.2 16.4 0 22.6c-6.1 6.1-15.8 6.2-22.1 .5l-81-81c-5.8-6.3-5.6-16 .5-22.1c6.2-6.2 16.4-6.2 22.6 0zm-57.7 57.7l23.7-23.7 80 80-23.7 23.7-80-80zm-11.3 11.3l80 80-20.7 20.7-80-80 20.7-20.7zM87 330.3L181.7 425l-2.3 2.3L105 501.7C98.3 508.3 89.4 512 80 512s-18.3-3.7-25-10.3L10.3 457C3.7 450.3 0 441.4 0 432s3.7-18.3 10.3-25l74.3-74.3 2.3-2.3z"/></svg>