<svg xmlns="http://www.w3.org/2000/svg" viewBox="0 0 512 512"><!--! Font Awesome Pro 6.5.2 by @fontawesome - https://fontawesome.com License - https://fontawesome.com/license (Commercial License) Copyright 2024 Fonticons, Inc. --><path d="M500.3 7.3C507.7 13.3 512 22.4 512 32V176c0 26.5-28.7 48-64 48s-64-21.5-64-48s28.7-48 64-48V71L352 90.2V208c0 26.5-28.7 48-64 48s-64-21.5-64-48s28.7-48 64-48V64c0-15.3 10.8-28.4 25.7-31.4l160-32c9.4-1.9 19.1 .6 26.6 6.6zM32 0H192c17.7 0 32 14.3 32 32s-14.3 32-32 32H32C14.3 64 0 49.7 0 32S14.3 0 32 0zM502.6 342.6l-160 160c-12.5 12.5-32.8 12.5-45.3 0s-12.5-32.8 0-45.3l160-160c12.5-12.5 32.8-12.5 45.3 0s12.5 32.8 0 45.3zM0 128c0-17.7 14.3-32 32-32h80 80c17.7 0 32 14.3 32 32s-14.3 32-32 32H144v32c0 17.7-14.3 32-32 32s-32-14.3-32-32V160H32c-17.7 0-32-14.3-32-32zM288 328a40 40 0 1 1 80 0 40 40 0 1 1 -80 0zM472 432a40 40 0 1 1 0 80 40 40 0 1 1 0-80zM135.6 374l10.3 10.8 23.5-23.5c12.5-12.5 32.8-12.5 45.3 0s12.5 32.8 0 45.3l-24.7 24.7L215.2 458c12.2 12.8 11.6 33.1-1.2 45.2s-33.1 11.6-45.2-1.2l-24.1-25.4-12.8 12.8C117.4 503.9 97.7 512 77.3 512C34.6 512 0 477.4 0 434.7v-.9c0-19.4 7.2-38.2 20.3-52.6l13.1-14.4C22.5 354.3 16 337.9 16 320c0-39.8 32.2-72 72-72s72 32.2 72 72c0 21.5-9.4 40.8-24.4 54zm-68 50.3c-2.4 2.6-3.7 6-3.7 9.5v.9c0 7.3 5.9 13.3 13.3 13.3c3.5 0 6.9-1.4 9.4-3.9l14-14L81.1 409.5 67.7 424.3zM104 320a16 16 0 1 0 -32 0 16 16 0 1 0 32 0z"/></svg>