<svg xmlns="http://www.w3.org/2000/svg" viewBox="0 0 640 512"><!--! Font Awesome Pro 6.5.2 by @fontawesome - https://fontawesome.com License - https://fontawesome.com/license (Commercial License) Copyright 2024 Fonticons, Inc. --><path d="M320 128H279c-70.7 0-132.9 46.3-153.3 114l-5.9 19.8c-4.7 15.5-18.9 26.2-35.1 26.2C64.4 288 48 271.6 48 251.3V202.4c0-5.8-4.7-10.4-10.4-10.4c-3.5 0-6.7 1.7-8.7 4.6l-3.2 4.8C9 226.6 0 256.1 0 286.4C0 358 58 416 129.6 416H184l62.4 83.2c6 8.1 15.5 12.8 25.6 12.8h96c8.8 0 16-7.2 16-16c0-26.5-21.5-48-48-48l-18.6-49.6 28.4-25.6C359.9 360.1 368 342 368 323c0-37-30-67-67-67H288c-8.8 0-16-7.2-16-16s7.2-16 16-16h13c35.1 0 66 18.3 83.5 45.8l.4-.3 43.5 29c2.2 1.5 3.6 4 3.6 6.7V320c0 13.3 10.7 24 24 24s24-10.7 24-24V305.1c0-18.7-9.4-36.2-24.9-46.6l-30.2-20.1L464 208h96c20.9 0 38.7-13.4 45.3-32h-40c-10.6 0-20.8-4.2-28.3-11.7L523.7 151c-4.5-4.5-10.6-7-17-7H488c-4.4 0-8-3.6-8-8s3.6-8 8-8h18.7c10.6 0 20.8 4.2 28.3 11.7L548.3 153c4.5 4.5 10.6 7 17 7H608h8c13.3 0 24-10.7 24-24V112c0-44.2-35.8-80-80-80H541.3C534.7 13.4 516.9 0 496 0c-8.9 0-17.2 2.4-24.3 6.6C461.9 2.3 451.2 0 440.3 0c-33.6 0-63.5 21.5-74.2 53.4L352 96l-32 32zM480 56a16 16 0 1 1 32 0 16 16 0 1 1 -32 0z"/></svg>