<svg xmlns="http://www.w3.org/2000/svg" viewBox="0 0 512 512"><!--! Font Awesome Pro 6.5.1 by @fontawesome - https://fontawesome.com License - https://fontawesome.com/license (Commercial License) Copyright 2023 Fonticons, Inc. --><path d="M319.3 64H192.7c-.5 0-1 0-1.5 0H96C78.3 64 64 78.3 64 96s14.3 32 32 32h48.7l-38.4 96H32c-17.7 0-32 14.3-32 32s14.3 32 32 32H80.7h68.9H362.3h68.9H480c17.7 0 32-14.3 32-32s-14.3-32-32-32H405.7l-38.4-96H416c17.7 0 32-14.3 32-32s-14.3-32-32-32H320.7c-.5 0-1 0-1.5 0zM444.1 320H375.1l43.2 107.9c6.6 16.4 25.2 24.4 41.6 17.8s24.4-25.2 17.8-41.6L444.1 320zm-307.2 0H67.9L34.3 404.1c-6.6 16.4 1.4 35 17.8 41.6s35-1.4 41.6-17.8L136.9 320zm38.4-96l38.4-96h84.7l38.4 96H175.3z"/></svg>