<svg xmlns="http://www.w3.org/2000/svg" viewBox="0 0 640 512"><!--! Font Awesome Pro 6.5.2 by @fontawesome - https://fontawesome.com License - https://fontawesome.com/license (Commercial License) Copyright 2024 Fonticons, Inc. --><path d="M128 32c17.7 0 32 14.3 32 32V275.6l64-21.3V64c0-17.7 14.3-32 32-32s32 14.3 32 32V232.9l64-21.3V64c0-17.7 14.3-32 32-32s32 14.3 32 32V190.3l64-21.3V64c0-17.7 14.3-32 32-32s32 14.3 32 32v83.6l53.9-18c16.8-5.6 34.9 3.5 40.5 20.2s-3.5 34.9-20.2 40.5L544 215.1V448c0 17.7-14.3 32-32 32s-32-14.3-32-32V236.4l-64 21.3V448c0 17.7-14.3 32-32 32s-32-14.3-32-32V279.1l-64 21.3V448c0 17.7-14.3 32-32 32s-32-14.3-32-32V321.7l-64 21.3V448c0 17.7-14.3 32-32 32s-32-14.3-32-32V364.4l-53.9 18c-16.8 5.6-34.9-3.5-40.5-20.2s3.5-34.9 20.2-40.5L96 296.9V64c0-17.7 14.3-32 32-32z"/></svg>