<svg xmlns="http://www.w3.org/2000/svg" viewBox="0 0 448 512"><!--! Font Awesome Pro 6.5.2 by @fontawesome - https://fontawesome.com License - https://fontawesome.com/license (Commercial License) Copyright 2024 Fonticons, Inc. --><path d="M285.9 96l-22-40.3L251 32H384c35.3 0 64 28.7 64 64V416c0 35.3-28.7 64-64 64H64c-35.3 0-64-28.7-64-64V96C0 60.7 28.7 32 64 32H197L184.1 55.7 162.1 96H64V297.9c8.3-3 16.2-6.8 23.3-10.8c6.9-3.9 13.1-8.2 18.9-12.7c12.9-10 30.6-10 43.4 0c5.9 4.6 12 8.8 18.9 12.7c15.8 9 35.5 16.8 55.2 16.9h.4c19.6 0 39.3-7.9 55.2-16.9c6.9-3.9 13.1-8.2 18.9-12.7c12.9-10 30.6-10 43.4 0c5.9 4.6 12 8.8 19 12.8c7.1 4 15 7.9 23.4 10.8V96H285.9zM175 139.2L212.2 71c2.4-4.3 6.9-7 11.8-7s9.5 2.7 11.8 7L273 139.2c4.6 8.4 7 17.9 7 27.5V168c0 30.9-25.1 56-56 56s-56-25.1-56-56v-1.4c0-9.6 2.4-19 7-27.5z"/></svg>