<svg xmlns="http://www.w3.org/2000/svg" viewBox="0 0 512 512"><!--! Font Awesome Pro 6.5.1 by @fontawesome - https://fontawesome.com License - https://fontawesome.com/license (Commercial License) Copyright 2023 Fonticons, Inc. --><path d="M.2 245.1C.1 248.7 0 252.3 0 256C0 397.4 114.6 512 256 512c3.7 0 7.3-.1 10.9-.2c-3.8-10.7-6.6-21.8-8.4-33.1c-4.4-27.2-2.9-55 4.4-81.6s20.2-51.2 37.9-72.4s39.7-38.2 64.5-50.1s52-18.2 79.5-18.7c22.8-.4 45.5 3.3 67 10.9c.2-3.6 .2-7.2 .2-10.9C512 114.6 397.4 0 256 0c-3.7 0-7.3 .1-10.9 .2c10.7 30.5 13.7 63.4 8.2 95.6c-7.1 42.4-28.3 81.2-60 110.1s-72.4 46.4-115.2 49.6c-26.6 2-53.1-1.7-77.9-10.4zM206.8 4.7C104.9 24.6 24.6 104.9 4.7 206.8C26.9 216 51.1 220 75.3 218.2c34.5-2.5 67.2-16.6 92.8-39.9s42.6-54.5 48.4-88.7c4.8-28.7 1.4-58.2-9.7-84.9zM445.4 293.4c-22.2 .4-44 5.5-64 15.1s-37.7 23.3-52 40.3s-24.6 36.9-30.5 58.3s-7.1 43.8-3.5 65.7c1.9 11.9 5.2 23.5 9.8 34.6c101.9-19.8 182.2-100.2 202.1-202.1c-19.6-8.1-40.6-12.1-61.9-11.8z"/></svg>