<svg xmlns="http://www.w3.org/2000/svg" viewBox="0 0 512 512"><!--! Font Awesome Pro 6.5.2 by @fontawesome - https://fontawesome.com License - https://fontawesome.com/license (Commercial License) Copyright 2024 Fonticons, Inc. --><path d="M374.8 80.3C355.9 33.2 309.8 0 256 0s-99.9 33.2-118.8 80.3c-3-.2-6.1-.3-9.2-.3C57.3 80 0 137.3 0 208s57.3 128 128 128c14.4 0 28.3-2.4 41.3-6.8C184.7 361.6 217.7 384 256 384s71.3-22.4 86.7-54.8c12.9 4.4 26.8 6.8 41.3 6.8c70.7 0 128-57.3 128-128s-57.3-128-128-128c-3.1 0-6.1 .1-9.2 .3zM144 480a48 48 0 1 0 0-96 48 48 0 1 0 0 96zM32 512a32 32 0 1 0 0-64 32 32 0 1 0 0 64z"/></svg>