<svg xmlns="http://www.w3.org/2000/svg" viewBox="0 0 640 512"><!--! Font Awesome Pro 6.5.1 by @fontawesome - https://fontawesome.com License - https://fontawesome.com/license (Commercial License) Copyright 2023 Fonticons, Inc. --><path d="M64 64C28.7 64 0 92.7 0 128V384c0 35.3 28.7 64 64 64H576c35.3 0 64-28.7 64-64V336c0-8.8-7.3-15.8-15.8-18c-27.7-7-48.2-32.1-48.2-62s20.5-55 48.2-62c8.6-2.2 15.8-9.1 15.8-18V128c0-35.3-28.7-64-64-64H64zm352 64a16 16 0 1 1 32 0 16 16 0 1 1 -32 0zm0 64a16 16 0 1 1 32 0 16 16 0 1 1 -32 0zm16 48a16 16 0 1 1 0 32 16 16 0 1 1 0-32zm-16 80a16 16 0 1 1 32 0 16 16 0 1 1 -32 0zm16 48a16 16 0 1 1 0 32 16 16 0 1 1 0-32zM176 224l-28.5-85.5c-1.7-5.2 2.1-10.5 7.6-10.5h31.1c8.5 0 16.4 4.5 20.7 11.9L256 224h46.9c16.1 0 31.5 6.4 42.8 17.7c7.9 7.9 7.9 20.7 0 28.5C334.4 281.6 319 288 302.9 288H256l-49.1 84.1c-4.3 7.4-12.2 11.9-20.7 11.9H155.1c-5.5 0-9.3-5.4-7.6-10.5L176 288H120l-19.2 25.6c-3 4-7.8 6.4-12.8 6.4H74.2c-5.2 0-9-4.9-7.8-9.9L79 259.9c.6-2.5 .6-5.2 0-7.8L66.5 201.9c-1.3-5 2.6-9.9 7.8-9.9H88c5 0 9.8 2.4 12.8 6.4L120 224h56z"/></svg>