<svg xmlns="http://www.w3.org/2000/svg" viewBox="0 0 448 512"><!--! Font Awesome Pro 6.5.1 by @fontawesome - https://fontawesome.com License - https://fontawesome.com/license (Commercial License) Copyright 2023 Fonticons, Inc. --><path d="M99.9 192C80.1 192 64 208.1 64 227.9V320c0 17.7-14.3 32-32 32s-32-14.3-32-32V227.9C0 172.7 44.7 128 99.9 128c26.5 0 51.9 10.5 70.6 29.3L322.7 309.5c6.7 6.7 15.9 10.5 25.4 10.5c19.8 0 35.9-16.1 35.9-35.9V192c0-17.7 14.3-32 32-32s32 14.3 32 32v92.1c0 55.2-44.7 99.9-99.9 99.9c-26.5 0-51.9-10.5-70.6-29.3L125.3 202.5c-6.7-6.7-15.9-10.5-25.4-10.5z"/></svg>