<svg xmlns="http://www.w3.org/2000/svg" viewBox="0 0 512 512"><!--! Font Awesome Pro 6.5.2 by @fontawesome - https://fontawesome.com License - https://fontawesome.com/license (Commercial License) Copyright 2024 Fonticons, Inc. --><path d="M256 0C114.6 0 0 114.6 0 256V448c0 35.3 28.7 64 64 64h41.4l64.3-64.3C137.3 444.5 112 417.2 112 384V192c0-35.3 28.7-64 64-64H336c35.3 0 64 28.7 64 64V384c0 33.2-25.3 60.5-57.7 63.7L406.6 512H448c35.3 0 64-28.7 64-64V256C512 114.6 397.4 0 256 0zM361.4 512l-64-64H214.6l-64 64H361.4zM184 192c-13.3 0-24 10.7-24 24v8 64 8c0 13.3 10.7 24 24 24h8 16 8c13.3 0 24-10.7 24-24v-8V224v-8c0-13.3-10.7-24-24-24h-8H192h-8zm88 24v8 64 8c0 13.3 10.7 24 24 24h8 16 8c13.3 0 24-10.7 24-24v-8V224v-8c0-13.3-10.7-24-24-24h-8H304h-8c-13.3 0-24 10.7-24 24zM184 400a24 24 0 1 0 0-48 24 24 0 1 0 0 48zm168-24a24 24 0 1 0 -48 0 24 24 0 1 0 48 0z"/></svg>