<svg xmlns="http://www.w3.org/2000/svg" viewBox="0 0 576 512"><!--! Font Awesome Pro 6.5.1 by @fontawesome - https://fontawesome.com License - https://fontawesome.com/license (Commercial License) Copyright 2023 Fonticons, Inc. --><path d="M222.4 74.1c5.6-16.8-3.5-34.9-20.2-40.5s-34.9 3.5-40.5 20.2L147.6 96H112c-17.7 0-32 14.3-32 32s14.3 32 32 32h14.3l-21.3 64H72c-17.7 0-32 14.3-32 32s14.3 32 32 32H83.6L62.3 352H32c-17.7 0-32 14.3-32 32s14.3 32 32 32h8.9l-7.3 21.9c-5.6 16.8 3.5 34.9 20.2 40.5s34.9-3.5 40.5-20.2l14-42.1H467.6l14 42.1c5.6 16.8 23.7 25.8 40.5 20.2s25.8-23.7 20.2-40.5L535.1 416H544c17.7 0 32-14.3 32-32s-14.3-32-32-32H513.7l-21.3-64H504c17.7 0 32-14.3 32-32s-14.3-32-32-32H471.1l-21.3-64H464c17.7 0 32-14.3 32-32s-14.3-32-32-32H428.4l-14-42.1c-5.6-16.8-23.7-25.8-40.5-20.2s-25.8 23.7-20.2 40.5L360.9 96H215.1l7.3-21.9zM193.7 160H382.3l21.3 64H172.4l21.3-64zM446.3 352H129.7l21.3-64H424.9l21.3 64z"/></svg>