<svg xmlns="http://www.w3.org/2000/svg" viewBox="0 0 384 512"><!--! Font Awesome Pro 6.5.2 by @fontawesome - https://fontawesome.com License - https://fontawesome.com/license (Commercial License) Copyright 2024 Fonticons, Inc. --><path d="M136 24v8h24c8.8 0 16 7.2 16 16s-7.2 16-16 16H112 64c-8.8 0-16-7.2-16-16s7.2-16 16-16H88V24C88 10.7 98.7 0 112 0s24 10.7 24 24zm160 0v8h24c8.8 0 16 7.2 16 16s-7.2 16-16 16H272 224c-8.8 0-16-7.2-16-16s7.2-16 16-16h24V24c0-13.3 10.7-24 24-24s24 10.7 24 24zM48 112c0-8.8 7.2-16 16-16h96c8.8 0 16 7.2 16 16s-7.2 16-16 16H64c-8.8 0-16-7.2-16-16zm160 0c0-8.8 7.2-16 16-16h96c8.8 0 16 7.2 16 16s-7.2 16-16 16H224c-8.8 0-16-7.2-16-16zM0 192c0-17.7 14.3-32 32-32H352c17.7 0 32 14.3 32 32s-14.3 32-32 32V448c17.7 0 32 14.3 32 32s-14.3 32-32 32H32c-17.7 0-32-14.3-32-32s14.3-32 32-32V224c-17.7 0-32-14.3-32-32zm232.9 34.7c-6-4-13.9-3.6-19.3 1.1l-112 96c-5.1 4.4-6.9 11.4-4.6 17.7s8.3 10.4 15 10.4h57.8l-25 74.9c-2.3 6.8 .3 14.3 6.3 18.3s13.9 3.6 19.3-1.1l112-96c5.1-4.4 6.9-11.4 4.6-17.7s-8.3-10.4-15-10.4H214.2l25-74.9c2.3-6.8-.3-14.3-6.3-18.3z"/></svg>