<svg xmlns="http://www.w3.org/2000/svg" viewBox="0 0 576 512"><!--! Font Awesome Pro 6.5.2 by @fontawesome - https://fontawesome.com License - https://fontawesome.com/license (Commercial License) Copyright 2024 Fonticons, Inc. --><path d="M0 160v96H128V32C57.3 32 0 89.3 0 160zM0 432c0 26.5 21.5 48 48 48h80V288H0V432zM416 288H352v32c0 17.7-14.3 32-32 32H256c-17.7 0-32-14.3-32-32V288H160V480H416V288zM528 480c26.5 0 48-21.5 48-48V288H448V480h80zm48-320c0-70.7-57.3-128-128-128V256H576V160zM416 256V32H160V256h64V224c0-17.7 14.3-32 32-32h64c17.7 0 32 14.3 32 32v32h64zM304 240c0-8.8-7.2-16-16-16s-16 7.2-16 16v64c0 8.8 7.2 16 16 16s16-7.2 16-16V240z"/></svg>