<svg xmlns="http://www.w3.org/2000/svg" viewBox="0 0 448 512"><!--! Font Awesome Pro 6.5.2 by @fontawesome - https://fontawesome.com License - https://fontawesome.com/license (Commercial License) Copyright 2024 Fonticons, Inc. --><path d="M150.2 71l47.1-17.7L215 6.2c1.4-3.8 5-6.2 9-6.2s7.6 2.5 9 6.2l17.7 47.1L297.8 71c3.8 1.4 6.2 5 6.2 9s-2.5 7.6-6.2 9l-47.1 17.7L233 153.8c-1.4 3.8-5 6.2-9 6.2s-7.6-2.5-9-6.2l-17.7-47.1L150.2 89c-3.8-1.4-6.2-5-6.2-9s2.5-7.6 6.2-9zM263 165l11.8-31.5 144 180c3.4 4.2 5.2 9.4 5.2 14.8c0 13.1-10.6 23.7-23.7 23.7H368l76.2 122c2.5 4 3.8 8.5 3.8 13.2c0 13.7-11.1 24.9-24.9 24.9H24.9C11.1 512 0 500.9 0 487.1c0-4.7 1.3-9.2 3.8-13.2L80 352H47.7C34.6 352 24 341.4 24 328.3c0-5.4 1.8-10.6 5.2-14.8l144-180L185 165c6.1 16.2 21.6 27 39 27s32.9-10.8 39-27zM184 288a24 24 0 1 0 -48 0 24 24 0 1 0 48 0zM288 440a24 24 0 1 0 0-48 24 24 0 1 0 0 48z"/></svg>