<svg xmlns="http://www.w3.org/2000/svg" viewBox="0 0 640 512"><!--! Font Awesome Pro 6.5.1 by @fontawesome - https://fontawesome.com License - https://fontawesome.com/license (Commercial License) Copyright 2023 Fonticons, Inc. --><path d="M192 96v96H327.5L269.9 96H192zm-64 96V80c0-26.5 21.5-48 48-48h93.9c22.5 0 43.3 11.8 54.9 31.1L402.1 192H448c17.7 0 32 14.3 32 32v64h32V176c0-7.3 2.5-14.3 7-20l64-80c11-13.8 31.2-16 45-5s16 31.2 5 45l-57 71.2V320v36.8L633 428c11 13.8 8.8 33.9-5 45s-33.9 8.8-45-5l-64-80c-4.5-5.7-7-12.7-7-20V352H474.5c3.5 10 5.5 20.8 5.5 32c0 53-43 96-96 96s-96-43-96-96c0-11.2 1.9-22 5.5-32H224c-1.9 0-3.8-.2-5.6-.5c3.7 10.2 5.6 21.1 5.6 32.5c0 53-43 96-96 96s-96-43-96-96c0-11.2 1.9-22 5.5-32H32c-17.7 0-32-14.3-32-32V224c0-17.7 14.3-32 32-32h96zm32 192a32 32 0 1 0 -64 0 32 32 0 1 0 64 0zm256 0a32 32 0 1 0 -64 0 32 32 0 1 0 64 0z"/></svg>