<svg xmlns="http://www.w3.org/2000/svg" viewBox="0 0 640 512"><!--! Font Awesome Pro 6.5.2 by @fontawesome - https://fontawesome.com License - https://fontawesome.com/license (Commercial License) Copyright 2024 Fonticons, Inc. --><path d="M0 24C0 37.3 10.7 48 24 48h8V98.7C13.4 105.3 0 123.1 0 144v80H384V96 80 48H616c13.3 0 24-10.7 24-24s-10.7-24-24-24H24C10.7 0 0 10.7 0 24zM0 256V368c0 26.5 21.5 48 48 48H64c0 53 43 96 96 96s96-43 96-96H384c0 53 43 96 96 96s96-43 96-96h16c26.5 0 48-21.5 48-48V256 160c0-35.3-28.7-64-64-64H560c0-17.7-14.3-32-32-32s-32 14.3-32 32H448 416V240v16H400 0zM280 48h56V96H280V48zM232 96H184V48h48V96zM80 48h56V96H80V48zM576 160v96H480V160h96zM160 368a48 48 0 1 1 0 96 48 48 0 1 1 0-96zm272 48a48 48 0 1 1 96 0 48 48 0 1 1 -96 0z"/></svg>