<svg xmlns="http://www.w3.org/2000/svg" viewBox="0 0 640 512"><!--! Font Awesome Pro 6.5.2 by @fontawesome - https://fontawesome.com License - https://fontawesome.com/license (Commercial License) Copyright 2024 Fonticons, Inc. --><path d="M96 0h49.6c9.1 0 17.8 3.9 23.9 10.7L384 252V128c0-17.7 14.3-32 32-32h82.7c17 0 33.3 6.7 45.3 18.7L621.3 192c12 12 18.7 28.3 18.7 45.3V256v32 88c0 22.1-17.9 40-40 40H576c0 53-43 96-96 96s-96-43-96-96H256c0 53-43 96-96 96s-96-43-96-96H48c-26.5 0-48-21.5-48-48V304c0-26.5 21.5-48 48-48H192L96 64V176c0 26.5-21.5 48-48 48s-48-21.5-48-48V160c0-8.8 7.2-16 16-16s16 7.2 16 16v16c0 8.8 7.2 16 16 16s16-7.2 16-16V32C64 14.3 78.3 0 96 0zM576 256V237.3L498.7 160H448v96H576zM208 416a48 48 0 1 0 -96 0 48 48 0 1 0 96 0zm272 48a48 48 0 1 0 0-96 48 48 0 1 0 0 96z"/></svg>