<svg xmlns="http://www.w3.org/2000/svg" viewBox="0 0 640 512"><!--! Font Awesome Pro 6.5.1 by @fontawesome - https://fontawesome.com License - https://fontawesome.com/license (Commercial License) Copyright 2023 Fonticons, Inc. --><path d="M628.7 64.7C635.4 66.8 640 73 640 80V368c0 7-4.6 13.2-11.3 15.3s-14-.4-17.9-6.2l0 0 0 0-.1-.2-.7-.9c-.6-.8-1.5-2.1-2.8-3.8c-2.5-3.3-6.2-8.1-11-13.9c-9.6-11.6-23.6-26.9-40.8-42.3c-35-31.1-81.3-60-131.4-60H400V382c27.6-7.1 48-32.2 48-62V290.8c22 5 43.7 16.4 64 31.2c-1.1 69.8-58 126-128 126H288.1c0 0 0 0-.1 0H192c-70.7 0-128-57.3-128-128c0-23.3 6.2-45.2 17.1-64H46.6c-3.3 9.3-12.2 16-22.6 16c-13.3 0-24-10.7-24-24V200c0-13.3 10.7-24 24-24c10.4 0 19.3 6.7 22.6 16H176V160c0-13.3 10.7-24 24-24s24 10.7 24 24v32h40V160c0-13.3 10.7-24 24-24s24 10.7 24 24v32h40V160c0-13.3 10.7-24 24-24s24 10.7 24 24v32h24c50.1 0 96.4-28.8 131.4-60c17.3-15.3 31.2-30.7 40.8-42.3c4.8-5.8 8.5-10.6 11-13.9c1.2-1.7 2.2-2.9 2.8-3.8l.7-.9 .1-.2 0 0 0 0c4-5.8 11.2-8.3 17.9-6.2zM312 384h40V256H312V384zM224 256V384h40V256H224zm-96 64c0 29.8 20.4 54.9 48 62V258c-27.6 7.1-48 32.2-48 62z"/></svg>