<svg xmlns="http://www.w3.org/2000/svg" viewBox="0 0 576 512"><!--! Font Awesome Pro 6.5.2 by @fontawesome - https://fontawesome.com License - https://fontawesome.com/license (Commercial License) Copyright 2024 Fonticons, Inc. --><path d="M0 96C0 60.7 28.7 32 64 32H512c35.3 0 64 28.7 64 64V416c0 35.3-28.7 64-64 64H64c-35.3 0-64-28.7-64-64V96zM384 256A160 160 0 1 0 64 256a160 160 0 1 0 320 0zM512 112c0-8.8-7.2-16-16-16s-16 7.2-16 16V272.4c0 2.5-.6 4.9-1.7 7.2l-16.2 32.5c-11 .7-21.4 7-26.7 17.6l-16 32c-7.9 15.8-1.5 35 14.3 42.9s35 1.5 42.9-14.3l16-32c5.3-10.6 4.2-22.7-1.9-31.9l16.2-32.4c3.3-6.7 5.1-14 5.1-21.5V112zM224 224a32 32 0 1 1 0 64 32 32 0 1 1 0-64z"/></svg>