<svg xmlns="http://www.w3.org/2000/svg" viewBox="0 0 576 512"><!--! Font Awesome Pro 6.5.2 by @fontawesome - https://fontawesome.com License - https://fontawesome.com/license (Commercial License) Copyright 2024 Fonticons, Inc. --><path d="M384 249.2c0 21.4-17.4 38.8-38.8 38.8H70.8C49.4 288 32 270.6 32 249.2V208c0-97.2 78.8-176 176-176s176 78.8 176 176v41.2zM480 288c-2 0-4-.1-5.9-.3c-16.3 53.3-64.3 92.7-122.1 96V440c0 22.1-17.9 40-40 40H264c-22.1 0-40-17.9-40-40V384H192v56c0 22.1-17.9 40-40 40H104c-22.1 0-40-17.9-40-40V384H32c-17.7 0-32-14.3-32-32s14.3-32 32-32h72 48H264h48 32c39.8 0 72-32.2 72-72V224 192 176c0-35.3 28.7-64 64-64c53 0 96 43 96 96v16c0 35.3-28.7 64-64 64H480zm16-64a16 16 0 1 0 0-32 16 16 0 1 0 0 32z"/></svg>