<svg xmlns="http://www.w3.org/2000/svg" viewBox="0 0 512 512"><!--! Font Awesome Pro 6.5.2 by @fontawesome - https://fontawesome.com License - https://fontawesome.com/license (Commercial License) Copyright 2024 Fonticons, Inc. --><path d="M169 7c-9.4-9.4-24.6-9.4-33.9 0s-9.4 24.6 0 33.9l55 55H80C35.8 96 0 131.8 0 176V432c0 44.2 35.8 80 80 80H432c44.2 0 80-35.8 80-80V176c0-44.2-35.8-80-80-80H321.9l55-55c9.4-9.4 9.4-24.6 0-33.9s-24.6-9.4-33.9 0l-87 87L169 7zM424 232a24 24 0 1 1 48 0 24 24 0 1 1 -48 0zm24 56a24 24 0 1 1 0 48 24 24 0 1 1 0-48zM64 224c0-35.3 28.7-64 64-64H320c35.3 0 64 28.7 64 64V384c0 35.3-28.7 64-64 64H128c-35.3 0-64-28.7-64-64V224z"/></svg>