<svg xmlns="http://www.w3.org/2000/svg" viewBox="0 0 640 512"><!--! Font Awesome Pro 6.5.1 by @fontawesome - https://fontawesome.com License - https://fontawesome.com/license (Commercial License) Copyright 2023 Fonticons, Inc. --><path d="M180 0h28 9.6c12.3 0 23.5 7 28.8 18.1l61.1 126.7L253 288H144V133.1L98 216.7c-1.3 2.4-2 5-2 7.7V384c0 17.7-14.3 32-32 32H32c-17.7 0-32-14.3-32-32V224.4c0-18.9 4.8-37.4 13.9-54L80.3 49.7C95.9 21.2 124.9 2.8 157 .3c1-.2 2-.3 3-.3h4.4H180zM389.1 20.6C393.8 8.2 405.7 0 419 0h13 28 15.6H480c1 0 2 .1 3 .3c32.1 2.5 61 20.9 76.7 49.5l66.4 120.7c9.1 16.5 13.9 35.1 13.9 54V384c0 17.7-14.3 32-32 32H576c-17.7 0-32-14.3-32-32V224.4c0-2.7-.7-5.3-2-7.7l-46-83.7V288H287.2l52.7-138.3L389.1 20.6zM320 320H496v32H388.4 349.9l47.4 71.1c4.9 7.4 2.9 17.3-4.4 22.2s-17.3 2.9-22.2-4.4l-50.7-76-50.7 76c-4.9 7.4-14.8 9.3-22.2 4.4s-9.3-14.8-4.4-22.2L290.1 352H251.6 144V320H264h56zM216.1 405.4c-14.7 22.1-8.7 51.9 13.3 66.6s51.9 8.7 66.6-13.3L320 422.5l24.1 36.1c14.7 22.1 44.5 28 66.6 13.3s28-44.5 13.3-66.6L409.7 384H496v64c0 35.3-28.7 64-64 64H208c-35.3 0-64-28.7-64-64V384h86.3l-14.2 21.4z"/></svg>