<svg xmlns="http://www.w3.org/2000/svg" viewBox="0 0 448 512"><!--! Font Awesome Pro 6.5.2 by @fontawesome - https://fontawesome.com License - https://fontawesome.com/license (Commercial License) Copyright 2024 Fonticons, Inc. --><path d="M323 120C309.4 78 270 48 224 48s-85.4 30-99 72H323zm5.5 36.4L248 171.5v98.4l9.5-1.9c7.6-49.7 42.9-81.5 71.9-97.8l-.9-13.8zm-209 0l-.9 13.8c29 16.3 64.2 48.1 71.9 97.8l9.5 1.9V171.5l-80.5-15.1zM96 70C123.1 27.7 170.5 0 224 0c80.1 0 146.5 62.2 151.7 142.2L383 256.5c1.3 20-12.4 37.9-32.1 41.8L250.1 318.4c-5.2 1-10.4 1.6-15.7 1.6H213.5c-5.3 0-10.5-.5-15.7-1.6L97 298.3c-16.2-3.2-28.4-16-31.4-31.6c-1-3.4-1.6-7-1.6-10.7V16C64 7.2 71.2 0 80 0H96c8.8 0 16 7.2 16 16s-7.2 16-16 16V70zm38.4 282H313.6C387.8 352 448 412.2 448 486.4c0 14.1-11.5 25.6-25.6 25.6H25.6C11.5 512 0 500.5 0 486.4C0 412.2 60.2 352 134.4 352zm37.1 103.4c-3.7 2.8-1.7 8.6 2.9 8.6h99.2c4.6 0 6.6-5.9 2.9-8.6l-47.7-35.8c-2.8-2.1-6.8-2.1-9.6 0l-47.7 35.8z"/></svg>