<svg xmlns="http://www.w3.org/2000/svg" viewBox="0 0 448 512"><!--! Font Awesome Pro 6.5.1 by @fontawesome - https://fontawesome.com License - https://fontawesome.com/license (Commercial License) Copyright 2023 Fonticons, Inc. --><path d="M304 144c0 44.2-35.8 80-80 80s-80-35.8-80-80V128c0-5.5 .6-10.8 1.6-16h31.8c28.9 0 55.8-15.2 70.6-40l5.3 5.3C265 89 280.8 95.7 297.3 96c4.3 9.8 6.7 20.6 6.7 32v16zM224 0C153.3 0 96 57.3 96 128v16c0 70.7 57.3 128 128 128s128-57.3 128-128V128C352 57.3 294.7 0 224 0zm64 320l-1.3 0H161.3l-1.3 0v50.3c23.1 6.9 40 28.3 40 53.7c0 30.9-25.1 56-56 56s-56-25.1-56-56c0-25.4 16.9-46.8 40-53.7V323.4C54.9 338.8 0 403.6 0 481.3c0 17 13.8 30.7 30.7 30.7H417.3c17 0 30.7-13.8 30.7-30.7c0-77.7-54.9-142.5-128-157.8V362c27.6 7.1 48 32.2 48 62v40c0 8.8-7.2 16-16 16H336c-8.8 0-16-7.2-16-16s7.2-16 16-16V424c0-17.7-14.3-32-32-32s-32 14.3-32 32v24c8.8 0 16 7.2 16 16s-7.2 16-16 16H256c-8.8 0-16-7.2-16-16V424c0-29.8 20.4-54.9 48-62V320zM168 424a24 24 0 1 0 -48 0 24 24 0 1 0 48 0z"/></svg>