<svg xmlns="http://www.w3.org/2000/svg" viewBox="0 0 448 512"><!--! Font Awesome Pro 6.5.1 by @fontawesome - https://fontawesome.com License - https://fontawesome.com/license (Commercial License) Copyright 2023 Fonticons, Inc. --><path d="M304 128c0-11.4-2.4-22.2-6.7-32H296c-20.5 0-38.7-9.6-50.4-24.5C231.9 95.7 205.8 112 176 112H145.6c-1 5.2-1.6 10.5-1.6 16v16c0 44.2 35.8 80 80 80s80-35.8 80-80V128zM96 128C96 57.3 153.3 0 224 0s128 57.3 128 128v11c0 33.9 13.5 66.5 37.5 90.5l3.9 3.9c4.2 4.2 6.6 10 6.6 16c0 12.5-10.1 22.6-22.6 22.6H224 70.6C58.1 272 48 261.9 48 249.4c0-6 2.4-11.8 6.6-16l3.9-3.9c24-24 37.5-56.6 37.5-90.5V128zM288 320v42c-27.6 7.1-48 32.2-48 62v40c0 8.8 7.2 16 16 16h16c8.8 0 16-7.2 16-16s-7.2-16-16-16V424c0-17.7 14.3-32 32-32s32 14.3 32 32v24c-8.8 0-16 7.2-16 16s7.2 16 16 16h16c8.8 0 16-7.2 16-16V424c0-29.8-20.4-54.9-48-62V323.4c73.1 15.3 128 80.2 128 157.8c0 17-13.8 30.7-30.7 30.7H30.7C13.8 512 0 498.2 0 481.3c0-77.7 54.9-142.5 128-157.8v46.9c-23.1 6.9-40 28.3-40 53.7c0 30.9 25.1 56 56 56s56-25.1 56-56c0-25.4-16.9-46.8-40-53.7V320l1.3 0H286.7l1.3 0zM120 424a24 24 0 1 1 48 0 24 24 0 1 1 -48 0z"/></svg>