<svg xmlns="http://www.w3.org/2000/svg" viewBox="0 0 448 512"><!--! Font Awesome Pro 6.5.1 by @fontawesome - https://fontawesome.com License - https://fontawesome.com/license (Commercial License) Copyright 2023 Fonticons, Inc. --><path d="M96 70.2V128h.3c-.2 2.6-.3 5.3-.3 8v24 11c0 33.9-13.5 66.5-37.5 90.5l-3.9 3.9c-4.2 4.2-6.6 10-6.6 16C48 293.9 58.1 304 70.6 304H224 377.4c12.5 0 22.6-10.1 22.6-22.6c0-6-2.4-11.8-6.6-16l-3.9-3.9c-24-24-37.5-56.6-37.5-90.5V160 136c0-2.7-.1-5.4-.3-8h.3V70.2c0-13.3-8.3-25.3-20.8-30l-96-36c-7.2-2.7-15.2-2.7-22.5 0l-96 36C104.3 44.9 96 56.8 96 70.2zM304 160v16c0 44.2-35.8 80-80 80s-80-35.8-80-80l32 0c29.8 0 55.9-16.3 69.6-40.5C257.3 150.4 275.5 160 296 160h8zM151.4 346.8c-6.4-6.8-15.4-10.6-24.6-9.3C55.1 347.7 0 409.4 0 483.8C0 499.4 12.6 512 28.2 512H419.8c15.6 0 28.2-12.6 28.2-28.2c0-74.5-55.1-136.1-126.7-146.3c-9.2-1.3-18.3 2.5-24.6 9.3l-61 64.8c-6.3 6.7-17 6.7-23.3 0l-61-64.8zM208 48c0-4.4 3.6-8 8-8h16c4.4 0 8 3.6 8 8V64h16c4.4 0 8 3.6 8 8V88c0 4.4-3.6 8-8 8H240v16c0 4.4-3.6 8-8 8H216c-4.4 0-8-3.6-8-8V96H192c-4.4 0-8-3.6-8-8V72c0-4.4 3.6-8 8-8h16V48z"/></svg>