<svg xmlns="http://www.w3.org/2000/svg" viewBox="0 0 448 512"><!--! Font Awesome Pro 6.5.1 by @fontawesome - https://fontawesome.com License - https://fontawesome.com/license (Commercial License) Copyright 2023 Fonticons, Inc. --><path d="M96 70.2V128h.3c-.2 2.6-.3 5.3-.3 8v40c0 70.7 57.3 128 128 128s128-57.3 128-128V136c0-2.7-.1-5.4-.3-8h.3V70.2c0-13.3-8.3-25.3-20.8-30l-96-36c-7.2-2.7-15.2-2.7-22.5 0l-96 36C104.3 44.9 96 56.8 96 70.2zM304 160v16c0 44.2-35.8 80-80 80s-80-35.8-80-80l32 0c29.8 0 55.9-16.3 69.6-40.5C257.3 150.4 275.5 160 296 160h8zM141.3 336.2c-7.6-8.1-18.9-11.9-29.4-8.5C47 348.5 0 409.4 0 481.3c0 17 13.8 30.7 30.7 30.7H417.3c17 0 30.7-13.8 30.7-30.7c0-71.8-47-132.7-111.9-153.6c-10.5-3.4-21.8 .4-29.4 8.5l-71 75.5c-6.3 6.7-17 6.7-23.3 0l-71-75.5zM208 48c0-4.4 3.6-8 8-8h16c4.4 0 8 3.6 8 8V64h16c4.4 0 8 3.6 8 8V88c0 4.4-3.6 8-8 8H240v16c0 4.4-3.6 8-8 8H216c-4.4 0-8-3.6-8-8V96H192c-4.4 0-8-3.6-8-8V72c0-4.4 3.6-8 8-8h16V48z"/></svg>