<svg xmlns="http://www.w3.org/2000/svg" viewBox="0 0 448 512"><!--! Font Awesome Pro 6.5.2 by @fontawesome - https://fontawesome.com License - https://fontawesome.com/license (Commercial License) Copyright 2024 Fonticons, Inc. --><path d="M304 128v16c0 44.2-35.8 80-80 80s-80-35.8-80-80V128c0-5.5 .6-10.8 1.6-16H160c26.2 0 49.4-12.6 64-32c14.6 19.4 37.8 32 64 32h14.4c1 5.2 1.6 10.5 1.6 16zM84 192c7 0 13.7-1.6 19.6-4.6c17.8 49.3 65 84.6 120.4 84.6s102.7-35.3 120.4-84.6c5.9 2.9 12.5 4.6 19.6 4.6c24.3 0 44-19.7 44-44V108c0-24.3-19.7-44-44-44c-9.3 0-17.9 2.9-25 7.8C318.2 29.3 274.5 0 224 0s-94.2 29.3-115 71.8C101.9 66.9 93.3 64 84 64c-24.3 0-44 19.7-44 44v40c0 24.3 19.7 44 44 44zm77.3 128C72.2 320 0 392.2 0 481.3c0 17 13.8 30.7 30.7 30.7H417.3c17 0 30.7-13.8 30.7-30.7C448 392.2 375.8 320 286.7 320H161.3z"/></svg>