<svg xmlns="http://www.w3.org/2000/svg" viewBox="0 0 448 512"><!--! Font Awesome Pro 6.5.2 by @fontawesome - https://fontawesome.com License - https://fontawesome.com/license (Commercial License) Copyright 2024 Fonticons, Inc. --><path d="M224 48c-44.2 0-80 35.8-80 80v32c0 40.1 29.5 73.3 68 79.1V224c0-6.6 5.4-12 12-12s12 5.4 12 12v15.1c38.5-5.8 68-39 68-79.1V128c0-44.2-35.8-80-80-80zM96 128C96 57.3 153.3 0 224 0s128 57.3 128 128v23.2c0 10.9 3.7 21.5 10.5 30L373.6 195c6.7 8.4 10.4 18.8 10.4 29.6c0 26.2-21.2 47.4-47.4 47.4H286c-18.4 10.2-39.5 16-62 16s-43.6-5.8-62-16H111.4C85.2 272 64 250.8 64 224.6c0-10.8 3.7-21.2 10.4-29.6l11.1-13.9c6.8-8.5 10.5-19.1 10.5-30V128zm96-16a16 16 0 1 1 0 32 16 16 0 1 1 0-32zm48 16a16 16 0 1 1 32 0 16 16 0 1 1 -32 0zm-7.5 39.5c2 2 6 5.3 10.7 8.1c4.9 2.9 9.4 4.4 12.8 4.4c6.6 0 12 5.4 12 12s-5.4 12-12 12c-9.5 0-18.3-3.8-24.8-7.6c-2.5-1.5-4.9-3.1-7.1-4.6C211.6 201 199 204 192 204c-6.6 0-12-5.4-12-12s5.4-12 12-12c2.1 0 12.9-1.9 23.5-12.5c4.7-4.7 12.3-4.7 17 0zM272 304c23.9 0 45.8 8.8 62.6 23.2c65.7 20.4 113.4 81.7 113.4 154c0 17-13.8 30.7-30.7 30.7H240c0-8.8-7.2-16-16-16s-16 7.2-16 16H30.7C13.8 512 0 498.2 0 481.3c0-72.4 47.7-133.6 113.4-154C130.2 312.8 152.1 304 176 304h96zM208 448a16 16 0 1 0 32 0 16 16 0 1 0 -32 0zm-80-48c26.4-10.6 54.6-16 83.1-16h25.8c28.5 0 56.7 5.4 83.1 16c0-26.5-21.5-48-48-48H176c-26.5 0-48 21.5-48 48z"/></svg>