<svg xmlns="http://www.w3.org/2000/svg" viewBox="0 0 448 512"><!--! Font Awesome Pro 6.5.1 by @fontawesome - https://fontawesome.com License - https://fontawesome.com/license (Commercial License) Copyright 2023 Fonticons, Inc. --><path d="M230.1 .8l152 40c8.6 2.3 15.3 9.1 17.3 17.8s-1 17.8-7.8 23.6L368 102.5v8.4c0 10.7-5.3 20.8-15.1 25.2c-24.1 10.8-68.6 24-128.9 24s-104.8-13.2-128.9-24C85.3 131.7 80 121.6 80 110.9v-8.4L56.4 82.2c-6.8-5.8-9.8-14.9-7.8-23.6s8.7-15.6 17.3-17.8l152-40c4-1.1 8.2-1.1 12.2 0zM227 48.6c-1.9-.8-4-.8-5.9 0L189 61.4c-3 1.2-5 4.2-5 7.4c0 17.2 7 46.1 36.9 58.6c2 .8 4.2 .8 6.2 0C257 114.9 264 86 264 68.8c0-3.3-2-6.2-5-7.4L227 48.6zM98.1 168.8c39.1 15 81.5 23.2 125.9 23.2s86.8-8.2 125.9-23.2c1.4 7.5 2.1 15.3 2.1 23.2c0 70.7-57.3 128-128 128s-128-57.3-128-128c0-7.9 .7-15.7 2.1-23.2zM134.4 352c2.8 0 5.5 .9 7.7 2.6l72.3 54.2c5.7 4.3 13.5 4.3 19.2 0l72.3-54.2c2.2-1.7 4.9-2.6 7.7-2.6C387.8 352 448 412.2 448 486.4c0 14.1-11.5 25.6-25.6 25.6H25.6C11.5 512 0 500.5 0 486.4C0 412.2 60.2 352 134.4 352zM352 408c-3.5 0-6.5 2.2-7.6 5.5L339 430.2l-17.4 0c-3.5 0-6.6 2.2-7.6 5.5s.1 6.9 2.9 9L331 454.8l-5.4 16.6c-1.1 3.3 .1 6.9 2.9 9s6.6 2 9.4 0L352 470.1l14.1 10.3c2.8 2 6.6 2.1 9.4 0s4-5.7 2.9-9L373 454.8l14.1-10.2c2.8-2 4-5.7 2.9-9s-4.2-5.5-7.6-5.5l-17.4 0-5.4-16.6c-1.1-3.3-4.1-5.5-7.6-5.5z"/></svg>