<svg xmlns="http://www.w3.org/2000/svg" viewBox="0 0 512 512"><!--! Font Awesome Pro 6.5.2 by @fontawesome - https://fontawesome.com License - https://fontawesome.com/license (Commercial License) Copyright 2024 Fonticons, Inc. --><path d="M256 0c17.7 0 32 14.3 32 32V64h96V56c0-13.3 10.7-24 24-24s24 10.7 24 24v8h32V56c0-13.3 10.7-24 24-24s24 10.7 24 24V96c0 17.7-14.3 32-32 32H428.8L288 221.9V288 480c0 17.7-14.3 32-32 32s-32-14.3-32-32V288 221.9L83.2 128H32C14.3 128 0 113.7 0 96V56C0 42.7 10.7 32 24 32s24 10.7 24 24v8H80V56c0-13.3 10.7-24 24-24s24 10.7 24 24v8h96V32c0-17.7 14.3-32 32-32zM140.8 128L224 183.4V128H140.8zM288 183.4L371.2 128H288v55.4z"/></svg>