<svg xmlns="http://www.w3.org/2000/svg" viewBox="0 0 512 512"><!--! Font Awesome Pro 6.5.2 by @fontawesome - https://fontawesome.com License - https://fontawesome.com/license (Commercial License) Copyright 2024 Fonticons, Inc. --><path d="M256 512A256 256 0 1 0 256 0a256 256 0 1 0 0 512zM356.7 356.7c55.6-55.6 55.6-145.8 0-201.4s-145.8-55.6-201.4 0c-6.2 6.2-16.4 6.2-22.6 0s-6.2-16.4 0-22.6c68.1-68.1 178.5-68.1 246.6 0s68.1 178.5 0 246.6c-6.2 6.2-16.4 6.2-22.6 0s-6.2-16.4 0-22.6zm-144-144c6.2-6.2 16.4-6.2 22.6 0l64 64c6.2 6.2 6.2 16.4 0 22.6s-16.4 6.2-22.6 0l-64-64c-6.2-6.2-6.2-16.4 0-22.6zm-80 16c6.2-6.2 16.4-6.2 22.6 0l128 128c6.2 6.2 6.2 16.4 0 22.6s-16.4 6.2-22.6 0l-128-128c-6.2-6.2-6.2-16.4 0-22.6zm-16 102.6c-6.2-6.2-6.2-16.4 0-22.6s16.4-6.2 22.6 0l64 64c6.2 6.2 6.2 16.4 0 22.6s-16.4 6.2-22.6 0l-64-64z"/></svg>