<svg xmlns="http://www.w3.org/2000/svg" viewBox="0 0 640 512"><!--! Font Awesome Pro 6.5.1 by @fontawesome - https://fontawesome.com License - https://fontawesome.com/license (Commercial License) Copyright 2023 Fonticons, Inc. --><path d="M301.6 64H512c35.3 0 64 28.7 64 64c0 21.9-11 41.2-27.8 52.8C513.8 148.1 467.2 128 416 128c-35.3 0-64 28.7-64 64V292c10.2-2.6 21-4 32-4c70.7 0 128 57.3 128 128c0 38.2-16.8 72.5-43.3 96H544c35.3 0 64-28.7 64-64V320c0-31.7-7.7-61.7-21.3-88C619 208.7 640 170.8 640 128C640 57.3 582.7 0 512 0H301.6C241.3 0 189.1 42.2 176.4 101.2L150.1 224h65.5L239 114.6C245.4 85.1 271.4 64 301.6 64zM208.7 256H143.3L109 416H83.8c-33.8 0-64.7 18.9-80 49C1.4 469.5 0 474.6 0 480c0 17.7 14.3 32 32 32h95.4c.4 0 .9 0 1.3 0H176c26.5 0 48-21.5 48-48s-21.5-48-48-48h-1.6l34.3-160zM480 416a96 96 0 1 0 -192 0 96 96 0 1 0 192 0zm-128 0a32 32 0 1 1 64 0 32 32 0 1 1 -64 0z"/></svg>