<svg xmlns="http://www.w3.org/2000/svg" viewBox="0 0 640 512"><!--! Font Awesome Pro 6.5.2 by @fontawesome - https://fontawesome.com License - https://fontawesome.com/license (Commercial License) Copyright 2024 Fonticons, Inc. --><path d="M64 128c0-35.3 28.7-64 64-64H512c35.3 0 64 28.7 64 64v32h32c17.7 0 32 14.3 32 32V320c0 17.7-14.3 32-32 32H576v32c0 35.3-28.7 64-64 64H128c-35.3 0-64-28.7-64-64V352H32c-17.7 0-32-14.3-32-32V192c0-17.7 14.3-32 32-32H64V128zm120 16c-13.3 0-24 10.7-24 24s10.7 24 24 24H456c13.3 0 24-10.7 24-24s-10.7-24-24-24H184zm0 88c-13.3 0-24 10.7-24 24s10.7 24 24 24H456c13.3 0 24-10.7 24-24s-10.7-24-24-24H184zm0 88c-13.3 0-24 10.7-24 24s10.7 24 24 24H456c13.3 0 24-10.7 24-24s-10.7-24-24-24H184z"/></svg>