<svg xmlns="http://www.w3.org/2000/svg" viewBox="0 0 576 512"><!--! Font Awesome Pro 6.5.1 by @fontawesome - https://fontawesome.com License - https://fontawesome.com/license (Commercial License) Copyright 2023 Fonticons, Inc. --><path d="M333.1 34.8C344.6 40 352 51.4 352 64V448c0 12.6-7.4 24-18.9 29.2s-25 3.1-34.4-5.3L163.8 352H96c-35.3 0-64-28.7-64-64V224c0-35.3 28.7-64 64-64h67.8L298.7 40.1c9.4-8.4 22.9-10.4 34.4-5.3zm172 72.2c43.2 35.2 70.9 88.9 70.9 149s-27.7 113.8-70.9 149c-10.3 8.4-25.4 6.8-33.8-3.5s-6.8-25.4 3.5-33.8C507.3 341.3 528 301.1 528 256s-20.7-85.3-53.2-111.8c-10.3-8.4-11.8-23.5-3.5-33.8s23.5-11.8 33.8-3.5zm-60.5 74.5C466.1 199.1 480 225.9 480 256s-13.9 56.9-35.4 74.5c-10.3 8.4-25.4 6.8-33.8-3.5s-6.8-25.4 3.5-33.8C425.1 284.4 432 271 432 256s-6.9-28.4-17.7-37.3c-10.3-8.4-11.8-23.5-3.5-33.8s23.5-11.8 33.8-3.5z"/></svg>