<svg xmlns="http://www.w3.org/2000/svg" viewBox="0 0 512 512"><!--! Font Awesome Pro 6.5.2 by @fontawesome - https://fontawesome.com License - https://fontawesome.com/license (Commercial License) Copyright 2024 Fonticons, Inc. --><path d="M0 256a256 256 0 1 1 512 0A256 256 0 1 1 0 256zM160 80c-8.8 0-16 7.2-16 16v48H96c-8.8 0-16 7.2-16 16s7.2 16 16 16h48v64H64c-8.8 0-16 7.2-16 16s7.2 16 16 16h80v64H96c-8.8 0-16 7.2-16 16s7.2 16 16 16h48v48c0 8.8 7.2 16 16 16s16-7.2 16-16V368h64v80c0 8.8 7.2 16 16 16s16-7.2 16-16V368h64v48c0 8.8 7.2 16 16 16s16-7.2 16-16V368h48c8.8 0 16-7.2 16-16s-7.2-16-16-16H368V272h80c8.8 0 16-7.2 16-16s-7.2-16-16-16H368V176h48c8.8 0 16-7.2 16-16s-7.2-16-16-16H368V96c0-8.8-7.2-16-16-16s-16 7.2-16 16v48H272V64c0-8.8-7.2-16-16-16s-16 7.2-16 16v80H176V96c0-8.8-7.2-16-16-16zm16 256V272h64v64H176zm96 0V272h64v64H272zm64-160v64H272V176h64zm-96 0v64H176V176h64z"/></svg>