<svg xmlns="http://www.w3.org/2000/svg" viewBox="0 0 448 512"><!--! Font Awesome Pro 6.5.1 by @fontawesome - https://fontawesome.com License - https://fontawesome.com/license (Commercial License) Copyright 2023 Fonticons, Inc. --><path d="M194 64H320c17.7 0 32 14.3 32 32v64H145l17.9-71.8C166.5 74 179.3 64 194 64zM352 224V392.6c-19.1 11.1-32 31.7-32 55.4c0 35.3 28.7 64 64 64s64-28.7 64-64c0-23.7-12.9-44.4-32-55.4V96c0-53-43-96-96-96H194c-44.1 0-82.4 30-93.1 72.7L1 472.2c-4.3 17.1 6.1 34.5 23.3 38.8s34.5-6.1 38.8-23.3L129 224H352zm32 208a16 16 0 1 1 0 32 16 16 0 1 1 0-32z"/></svg>