<svg xmlns="http://www.w3.org/2000/svg" viewBox="0 0 448 512"><!--! Font Awesome Pro 6.5.2 by @fontawesome - https://fontawesome.com License - https://fontawesome.com/license (Commercial License) Copyright 2024 Fonticons, Inc. --><path d="M0 64C0 28.7 28.7 0 64 0H384c35.3 0 64 28.7 64 64V448c0 35.3-28.7 64-64 64H64c-35.3 0-64-28.7-64-64V64zM368 304A144 144 0 1 0 80 304a144 144 0 1 0 288 0zM88 112a24 24 0 1 0 0-48 24 24 0 1 0 0 48zM208 88a24 24 0 1 0 -48 0 24 24 0 1 0 48 0zm16 328c-61.9 0-112-50.1-112-112c0-16.5 3.6-32.2 10-46.3c7.4-1.1 14.8-1.7 22-1.7c32 0 56 16 80 32s48 32 80 32c10.9 0 21.4-.9 31.2-2.5C328.5 373 281.3 416 224 416z"/></svg>