<svg xmlns="http://www.w3.org/2000/svg" viewBox="0 0 384 512"><!--! Font Awesome Pro 6.5.2 by @fontawesome - https://fontawesome.com License - https://fontawesome.com/license (Commercial License) Copyright 2024 Fonticons, Inc. --><path d="M112 0H272c26.5 0 48 21.5 48 48V72.2C283.7 46.8 239.6 32 192 32s-91.7 14.8-128 40.2V48C64 21.5 85.5 0 112 0zM64 464V439.8c36.3 25.3 80.4 40.2 128 40.2s91.7-14.8 128-40.2V464c0 26.5-21.5 48-48 48H112c-26.5 0-48-21.5-48-48zM0 256a192 192 0 1 1 384 0A192 192 0 1 1 0 256zM192 152c-13.3 0-24 10.7-24 24v80c0 8 4 15.5 10.7 20l48 32c11 7.4 25.9 4.4 33.3-6.7s4.4-25.9-6.7-33.3L216 243.2V176c0-13.3-10.7-24-24-24z"/></svg>