<svg xmlns="http://www.w3.org/2000/svg" viewBox="0 0 384 512"><!--! Font Awesome Pro 6.5.1 by @fontawesome - https://fontawesome.com License - https://fontawesome.com/license (Commercial License) Copyright 2023 Fonticons, Inc. --><path d="M64 48H320c0-26.5-21.5-48-48-48H112C85.5 0 64 21.5 64 48zM80 80C35.8 80 0 115.8 0 160V352c0 44.2 35.8 80 80 80H304c44.2 0 80-35.8 80-80V160c0-44.2-35.8-80-80-80H80zm136 80v86.1l41 41c9.4 9.4 9.4 24.6 0 33.9s-24.6 9.4-33.9 0l-48-48c-4.5-4.5-7-10.6-7-17V160c0-13.3 10.7-24 24-24s24 10.7 24 24zM112 512H272c26.5 0 48-21.5 48-48H64c0 26.5 21.5 48 48 48z"/></svg>