<svg xmlns="http://www.w3.org/2000/svg" viewBox="0 0 384 512"><!--! Font Awesome Pro 6.5.2 by @fontawesome - https://fontawesome.com License - https://fontawesome.com/license (Commercial License) Copyright 2024 Fonticons, Inc. --><path d="M64 48H320c0-26.5-21.5-48-48-48H112C85.5 0 64 21.5 64 48zM80 80C35.8 80 0 115.8 0 160V352c0 44.2 35.8 80 80 80H304c44.2 0 80-35.8 80-80V160c0-44.2-35.8-80-80-80H80zm0 64H304c8.8 0 16 7.2 16 16v32c0 8.8-7.2 16-16 16H80c-8.8 0-16-7.2-16-16V160c0-8.8 7.2-16 16-16zm32 128a24 24 0 1 1 -48 0 24 24 0 1 1 48 0zm80 24a24 24 0 1 1 0-48 24 24 0 1 1 0 48zm128-24a24 24 0 1 1 -48 0 24 24 0 1 1 48 0zM88 384a24 24 0 1 1 0-48 24 24 0 1 1 0 48zm128-24a24 24 0 1 1 -48 0 24 24 0 1 1 48 0zm80 24a24 24 0 1 1 0-48 24 24 0 1 1 0 48zM112 512H272c26.5 0 48-21.5 48-48H64c0 26.5 21.5 48 48 48z"/></svg>