<svg xmlns="http://www.w3.org/2000/svg" viewBox="0 0 640 512"><!--! Font Awesome Pro 6.5.1 by @fontawesome - https://fontawesome.com License - https://fontawesome.com/license (Commercial License) Copyright 2023 Fonticons, Inc. --><path d="M319.1 0c14.8-.4 27.9 9.3 31.8 23.6l74 271.2 17.7-35.4c10.8-21.7 33-35.4 57.2-35.4H608c17.7 0 32 14.3 32 32s-14.3 32-32 32H499.8L444.6 398.3c-5.9 11.9-18.6 18.8-31.8 17.5s-24.2-10.6-27.7-23.4L323.7 167.3 255.3 486.7c-3.1 14.4-15.5 24.8-30.2 25.3s-27.8-9.1-31.8-23.2L135.9 288H32c-17.7 0-32-14.3-32-32s14.3-32 32-32H135.9c28.6 0 53.7 18.9 61.5 46.4L219.6 348 288.7 25.3C291.8 10.9 304.4 .4 319.1 0z"/></svg>