<svg xmlns="http://www.w3.org/2000/svg" viewBox="0 0 640 512"><!--! Font Awesome Pro 6.5.2 by @fontawesome - https://fontawesome.com License - https://fontawesome.com/license (Commercial License) Copyright 2024 Fonticons, Inc. --><path d="M320 0c12 0 22.1 8.8 23.8 20.7l42 304.4L424.3 84.2c1.9-11.7 12-20.3 23.9-20.2s21.9 8.9 23.6 20.6l28.2 197.3 20.5-102.6c2.2-10.8 11.3-18.7 22.3-19.3s20.9 6.4 24.2 16.9L593.7 264H616c13.3 0 24 10.7 24 24s-10.7 24-24 24H576c-10.5 0-19.8-6.9-22.9-16.9l-4.1-13.4-29.4 147c-2.3 11.5-12.5 19.6-24.2 19.3s-21.4-9-23.1-20.6L446.7 248.3l-39 243.5c-1.9 11.7-12.1 20.3-24 20.2s-21.9-8.9-23.5-20.7L320 199.6 279.8 491.3c-1.6 11.8-11.6 20.6-23.5 20.7s-22.1-8.5-24-20.2l-39-243.5L167.8 427.4c-1.7 11.6-11.4 20.3-23.1 20.6s-21.9-7.8-24.2-19.3l-29.4-147-4.1 13.4C83.8 305.1 74.5 312 64 312H24c-13.3 0-24-10.7-24-24s10.7-24 24-24H46.3l26.8-87.1c3.2-10.5 13.2-17.5 24.2-16.9s20.2 8.5 22.3 19.3l20.5 102.6L168.2 84.6c1.7-11.7 11.7-20.5 23.6-20.6s22 8.5 23.9 20.2l38.5 240.9 42-304.4C297.9 8.8 308 0 320 0z"/></svg>