<svg xmlns="http://www.w3.org/2000/svg" viewBox="0 0 512 512"><!--! Font Awesome Pro 6.5.2 by @fontawesome - https://fontawesome.com License - https://fontawesome.com/license (Commercial License) Copyright 2024 Fonticons, Inc. --><path d="M32 32c-9.3 0-18.1 4-24.2 11.1S-1 59.4 .3 68.6l50 342.9c5.7 39.3 39.4 68.5 79.2 68.5h253c39.7 0 73.4-29.1 79.2-68.5l50-342.9c1.3-9.2-1.4-18.5-7.5-25.5S489.3 32 480 32H32zM417 283.7c9.6 9.6 15 22.7 15 36.3s-5.4 26.7-15 36.3L356.3 417c-9.6 9.6-22.7 15-36.3 15s-26.7-5.4-36.3-15l-49-49H160c-35.3 0-64-28.7-64-64V281.1L69 96H443L415.8 282.5l1.2 1.2zM160 208c-17.7 0-32 14.3-32 32v64c0 17.7 14.3 32 32 32h50.6c-1.7-5.1-2.6-10.5-2.6-16c0-13.6 5.4-26.7 15-36.3l33-33V240c0-17.7-14.3-32-32-32H160zm85.7 98.3C242 310 240 314.9 240 320s2 10 5.7 13.7l60.7 60.7c3.6 3.6 8.5 5.7 13.7 5.7s10-2 13.7-5.7l60.7-60.7c3.6-3.6 5.7-8.5 5.7-13.7s-2-10-5.7-13.7l-60.7-60.7C330 242 325.1 240 320 240s-10 2-13.7 5.7l-60.7 60.7z"/></svg>