<svg xmlns="http://www.w3.org/2000/svg" viewBox="0 0 640 512"><!--! Font Awesome Pro 6.5.2 by @fontawesome - https://fontawesome.com License - https://fontawesome.com/license (Commercial License) Copyright 2024 Fonticons, Inc. --><path d="M44.1 188.8C18.5 180.5 0 156.4 0 128C0 92.7 28.7 64 64 64c23.4 0 43.8 12.5 55 31.2C149.2 75.5 185.2 64 224 64c7.8 0 15.4 .5 22.9 1.4c.5 0 1.1 0 1.7 .1c37.8 4.5 73.8 19.4 103.9 43.2l69.8 55.2c5 4 7.2 10.6 5.5 16.8l-6.5 24c-3.2 11.7 1.1 24.2 10.8 31.5c9.6 7.2 22.7 7.9 33 1.7l19.3-11.6c5.7-3.4 12.9-3 18.2 1.2l127 100.4c6.6 5.2 10.5 13.2 10.5 21.6c0 6.9-2.6 13.5-7.2 18.5l-63.3 69.6c-6.1 6.7-14.7 10.5-23.7 10.5h-2c-5.2 0-10.2-1.2-14.8-3.6L380.7 367c-34.8 49-92 81-156.7 81C118 448 32 362 32 256c0-23.6 4.3-46.3 12.1-67.2zM80 128a16 16 0 1 0 -32 0 16 16 0 1 0 32 0zM224 320a64 64 0 1 0 0-128 64 64 0 1 0 0 128z"/></svg>