<svg xmlns="http://www.w3.org/2000/svg" viewBox="0 0 512 512"><!--! Font Awesome Pro 6.5.2 by @fontawesome - https://fontawesome.com License - https://fontawesome.com/license (Commercial License) Copyright 2024 Fonticons, Inc. --><path d="M315.7 414.8c9.1 14.8 32 6.5 29.5-10.7L316.9 212c-.5-3.4 .1-6.9 1.8-9.9L411 31.2c8.3-15.3-10.4-31-24-20.1L234.7 131.7c-2.7 2.1-6 3.4-9.5 3.5L31.1 140.6C13.7 141 9.5 165 25.7 171.4l180.6 71.5c3.2 1.3 5.9 3.5 7.7 6.5L315.7 414.8zM224 326.8V464H152c-13.3 0-24 10.7-24 24s10.7 24 24 24H360c13.3 0 24-10.7 24-24s-10.7-24-24-24H288V430.8l-64-104zM256 168a24 24 0 1 1 0 48 24 24 0 1 1 0-48z"/></svg>