<svg xmlns="http://www.w3.org/2000/svg" viewBox="0 0 320 512"><!--! Font Awesome Pro 6.5.1 by @fontawesome - https://fontawesome.com License - https://fontawesome.com/license (Commercial License) Copyright 2023 Fonticons, Inc. --><path d="M64 0C47.4 0 33.5 12.8 32.1 29.3l-14 168.4c-6 72 42.5 135.2 109.9 150.6V448H80c-17.7 0-32 14.3-32 32s14.3 32 32 32h80 80c17.7 0 32-14.3 32-32s-14.3-32-32-32H192V348.4c67.4-15.4 115.9-78.6 109.9-150.6l-14-168.4C286.5 12.8 272.6 0 256 0H233.9C222 0 214.3 12.5 219.6 23.2l14.2 28.5c3.5 7.1 1.4 15.7-5.1 20.3l-58.4 40.9c-6 4.2-8.4 12-5.8 18.9l31.1 81c2.1 5.5-1.9 11.4-7.8 11.4c-2.4 0-4.7-1.1-6.3-2.9L92.1 118c-6.4-7.4-4.7-18.7 3.5-24l58.6-37.3c7.6-4.8 9.7-14.9 4.7-22.4L140.7 7.1c-3-4.5-8-7.1-13.3-7.1H64z"/></svg>