<?xml version="1.0" encoding="UTF-8" standalone="no"?>
<svg width="104px" height="30px" viewBox="0 0 104 30" version="1.1" xmlns="http://www.w3.org/2000/svg" xmlns:xlink="http://www.w3.org/1999/xlink" xmlns:sketch="http://www.bohemiancoding.com/sketch/ns">
    <!-- Generator: Sketch 3.4.2 (15855) - http://www.bohemiancoding.com/sketch -->
    <title>craftcms</title>
    <desc>Created with Sketch.</desc>
    <defs></defs>
    <g id="Login" stroke="none" stroke-width="1" fill="none" fill-rule="evenodd" sketch:type="MSPage">
        <g id="-login" sketch:type="MSArtboardGroup" transform="translate(-668.000000, -670.000000)" fill="#8F98A3" opacity="0.8">
            <path d="M720.228973,682.755179 L724.719221,682.755179 L725.242151,680.015449 L720.752156,680.015449 L721.517407,676.008386 L721.502041,676.008386 L718.096698,678.672976 L717.841027,680.015449 L714.313767,680.015449 L715.344766,674.616155 C715.587591,672.579074 718.696959,673.195777 719.160191,673.311126 L719.657176,670.709363 C714.065652,668.565226 712.433133,674.616155 712.433133,674.616155 L711.402638,680.015449 L711.384502,680.015449 L707.882683,682.755179 L710.879708,682.755179 L707.586709,700 L710.498593,700 L713.790837,682.755179 L717.317844,682.755179 L716.028655,689.50524 C715.209247,694.420017 720.14333,693.881721 721.717662,693.565831 L722.210113,690.991962 C718.443303,691.840368 718.939784,689.50524 718.939784,689.50524 L720.228973,682.755179 Z M703.007241,689.833419 C699.97747,692.934778 698.037389,690.903728 698.037389,690.903728 C696.724019,689.628103 698.175679,688.317797 698.175679,688.317797 C700.179992,686.490556 703.246791,688.497983 703.246791,688.497983 L703.007241,689.833419 Z M703.677529,686.09274 C703.677529,686.09274 699.506178,683.956896 696.585981,686.335501 C696.585981,686.335501 694.875627,687.47316 694.875627,689.748478 C694.875627,692.024299 696.96634,693.247402 696.96634,693.247402 C696.96634,693.247402 700.110722,694.90275 702.572725,692.257259 L702.300933,693.488403 L705.054629,693.488403 L706.785134,685.298364 C708.083895,677.216888 698.43261,680.081015 698.43261,680.081015 L697.906657,682.986355 C705.021379,679.893038 703.822871,685.282783 703.822871,685.282783 L703.677529,686.09274 Z M695.966853,680.023667 C693.721478,680.047289 691.680891,681.297282 691.680891,681.297282 L691.941601,680.070912 L689.246344,680.070912 L686.787363,693.513484 L689.541311,693.513484 L691.20834,684.669799 C692.440601,682.171824 695.486997,682.948106 695.486997,682.948106 L695.966853,680.023667 Z M685.459106,674.262945 C685.598402,674.367991 685.730394,674.479068 685.860119,674.592406 L687.950329,672.956409 L688.015317,672.871719 C687.695161,672.549294 687.351579,672.24421 686.979281,671.963502 C682.182983,668.351742 674.93501,669.863595 670.79162,675.341296 C666.648482,680.817993 667.177961,688.185007 671.974762,691.797521 C675.891197,694.746337 681.440402,694.278658 685.600921,691.026767 L685.596639,691.018474 L683.606935,689.461387 C680.524267,691.439411 676.69927,691.581398 673.932476,689.498329 C670.248035,686.723918 669.841479,681.064272 673.023897,676.856918 C676.207071,672.649817 681.774413,671.488535 685.459106,674.262945 Z M738.867932,692.449759 C738.279762,692.826968 737.633656,693.136576 736.930118,693.377326 C736.226077,693.617826 735.465108,693.738703 734.645699,693.738703 C733.679185,693.738703 732.786476,693.566057 731.967068,693.220009 C731.147659,692.874213 730.443618,692.397738 729.855951,691.78958 C729.267781,691.181923 728.805557,690.469222 728.469783,689.651977 C728.133254,688.834481 727.965493,687.954409 727.965493,687.011261 C727.965493,686.068112 728.127964,685.182763 728.453662,684.354712 C728.779612,683.527415 729.241836,682.804159 729.840082,682.185948 C730.438832,681.567737 731.147659,681.080456 731.967068,680.724105 C732.786476,680.367754 733.679185,680.189327 734.645699,680.189327 C735.465108,680.189327 736.226077,680.310205 736.930118,680.550955 C737.633656,680.792209 738.279762,681.101063 738.867932,681.478272 L738.332407,682.264355 C737.806706,681.929365 737.245237,681.65117 736.646235,681.431278 C736.047989,681.211135 735.380472,681.101063 734.645699,681.101063 C733.805132,681.101063 733.038369,681.253354 732.345411,681.557182 C731.651949,681.861261 731.058489,682.269632 730.564779,682.783049 C730.07132,683.296717 729.687435,683.909902 729.415138,684.622101 C729.141834,685.334803 729.005308,686.099776 729.005308,686.91677 C729.005308,687.734266 729.141834,688.504517 729.415138,689.227522 C729.687435,689.950527 730.07132,690.579293 730.564779,691.11382 C731.058489,691.648346 731.651949,692.067523 732.345411,692.371351 C733.038369,692.675431 733.805132,692.826968 734.645699,692.826968 C735.380472,692.826968 736.047989,692.716896 736.646235,692.497004 C737.245237,692.276861 737.806706,691.99942 738.332407,691.663927 L738.867932,692.449759 Z M759.60166,693.487197 L759.60166,684.716391 C759.60166,682.32698 758.57192,681.132526 756.51345,681.132526 C755.568095,681.132526 754.664806,681.405192 753.803331,681.949771 C752.942109,682.495104 752.175346,683.21836 751.503043,684.11929 L751.503043,693.487197 L750.495219,693.487197 L750.495219,684.716391 C750.495219,682.32698 749.465228,681.132526 747.406757,681.132526 C746.440243,681.132526 745.542244,681.405192 744.713012,681.949771 C743.882772,682.495104 743.11072,683.165837 742.396602,683.961973 L742.396602,693.487197 L741.388778,693.487197 L741.388778,680.440934 L742.365368,680.440934 L742.365368,682.89292 C742.659075,682.55793 742.995604,682.227966 743.373948,681.902777 C743.751536,681.57809 744.156076,681.289592 744.587065,681.038287 C745.017299,680.78673 745.485064,680.582419 745.989354,680.425353 C746.493392,680.268036 747.017834,680.189377 747.564694,680.189377 C748.446824,680.189377 749.223662,680.430631 749.896217,680.912383 C750.56852,681.394889 751.020164,682.138501 751.251402,683.144476 C751.881387,682.348341 752.66956,681.656749 753.614915,681.0697 C754.560018,680.483153 755.578674,680.189377 756.671135,680.189377 C757.19608,680.189377 757.69508,680.273313 758.168136,680.440934 C758.640435,680.609057 759.060089,680.876195 759.428357,681.242849 C759.795617,681.609504 760.084539,682.0709 760.294618,682.625782 C760.504445,683.181418 760.609736,683.846875 760.609736,684.6219 L760.609736,693.487197 L759.60166,693.487197 Z M771.669935,690.123601 C771.669935,690.605856 771.575224,691.06675 771.386052,691.506786 C771.19688,691.947073 770.923828,692.329559 770.566895,692.654246 C770.209711,692.979435 769.784011,693.241295 769.291057,693.440077 C768.796842,693.639111 768.235121,693.738879 767.604884,693.738879 C766.764317,693.738879 765.976899,693.597143 765.241371,693.314425 C764.506095,693.031204 763.802557,692.659523 763.130506,692.198127 L763.60331,691.443959 C764.212135,691.863137 764.842372,692.209184 765.494019,692.481348 C766.144911,692.753763 766.848953,692.88997 767.604884,692.88997 C768.550239,692.88997 769.306422,692.638413 769.873937,692.1353 C770.440949,691.632187 770.72458,691.014479 770.72458,690.280667 C770.72458,689.652153 770.556064,689.154317 770.22029,688.787411 C769.884013,688.420757 769.458817,688.106374 768.943948,687.844262 C768.429078,687.582402 767.877432,687.346929 767.290018,687.136838 C766.701595,686.927752 766.150201,686.676195 765.635835,686.382419 C765.120966,686.089397 764.695266,685.72224 764.359493,685.282205 C764.022963,684.841918 763.855203,684.255623 763.855203,683.521811 C763.855203,683.102634 763.944373,682.694263 764.122965,682.295944 C764.301557,681.897876 764.55874,681.541274 764.895018,681.226891 C765.230791,680.912508 765.640621,680.660952 766.124004,680.472473 C766.607135,680.283743 767.164071,680.189252 767.794056,680.189252 C768.487014,680.189252 769.143951,680.294549 769.763356,680.503635 C770.383013,680.713726 770.987053,681.028109 771.575224,681.446783 L771.10242,682.233118 C770.535409,681.813941 769.994594,681.509861 769.479725,681.321131 C768.964603,681.132401 768.403133,681.038412 767.794056,681.038412 C766.785727,681.038412 766.03433,681.284943 765.541123,681.776999 C765.046909,682.269557 764.800558,682.819916 764.800558,683.427321 C764.800558,684.056086 764.968318,684.554173 765.304848,684.920828 C765.640621,685.287482 766.066069,685.596588 766.58119,685.848144 C767.095304,686.099701 767.64695,686.330399 768.235121,686.539737 C768.822787,686.749325 769.374433,686.995604 769.889303,687.278323 C770.404172,687.561544 770.829368,687.92267 771.165645,688.362956 C771.501419,688.802992 771.669935,689.390293 771.669935,690.123601 Z" id="craftcms" sketch:type="MSShapeGroup"></path>
        </g>
    </g>
</svg>