<svg xmlns="http://www.w3.org/2000/svg" viewBox="0 0 512 512"><!--! Font Awesome Pro 6.5.2 by @fontawesome - https://fontawesome.com License - https://fontawesome.com/license (Commercial License) Copyright 2024 Fonticons, Inc. --><path d="M256 32a224 224 0 1 1 0 448 224 224 0 1 1 0-448zm0 480A256 256 0 1 0 256 0a256 256 0 1 0 0 512zm16.7-303.5c-5-1.3-10.3 0-14.3 3.3l-25.2 21.5c-1.9 1.6-4.4 2.2-6.8 1.7l-.3-.1-4-5.3C211.8 216 195.8 208 178.7 208s-33.1 8-43.4 21.7l-5.3 7L94.7 253.5C66 267.1 54.4 302 69.2 330.1l3.3 6.2c12.6 24 40.6 35.5 66.5 27.3l20.4-6.5L205.2 373l27 17.4c9.6 6.2 20.9 9.5 32.3 9.5c18.4 0 35.7-8.4 47-22.9l12.1-15.4c8-10.2 12.4-22.9 12.4-35.9s-4.4-25.6-12.4-35.9l-18-22.9c-3.8-4.9-6.9-10.3-9.2-16.1l-12.8-32.7c-1.9-4.8-6-8.4-11-9.7zm-94 31.5c7 0 13.6 3.3 17.8 8.9l4 5.3c4.7 6.2 11.5 10.6 19.2 12.1l.3 .1c12.1 2.5 24.6-.8 34-8.7l8.1-6.9 4.6 11.8c3.4 8.7 8 16.8 13.8 24.2l17.9 22.9c3.6 4.6 5.6 10.3 5.6 16.1s-2 11.5-5.6 16.1l-12.1 15.4c-5.2 6.7-13.3 10.6-21.8 10.6c-5.3 0-10.5-1.5-15-4.4l-28.7-18.5c-1.1-.7-2.2-1.3-3.5-1.7l-52.7-18.2c-3.3-1.1-6.8-1.2-10.1-.1l-25.4 8.1c-11.1 3.5-23.1-1.4-28.5-11.7l-3.3-6.2c-6.3-12.1-1.4-27 10.9-32.8l35.3-16.8c4.7-2.2 8.7-5.5 11.8-9.7l5.3-7c4.2-5.6 10.8-8.9 17.8-8.9zm103-114.6c-12.4-14.4-32.1-20.2-50.2-14.7l-43.1 12.9c-19.8 5.9-23.3 32.4-5.8 43.3l39.4 24.6c9.4 5.8 20.4 8.3 31.4 6.9l37.9-4.7c19-2.4 27.7-24.9 15.2-39.4l-24.8-28.9zm-41 15.9c6.1-1.8 12.6 .1 16.7 4.9l15.1 17.6-23.2 2.9c-3.6 .5-7.3-.4-10.5-2.3l-24.4-15.2 26.2-7.9zM248 432c0 8.8 7.2 16 16 16h16c8.8 0 16-7.2 16-16s-7.2-16-16-16H264c-8.8 0-16 7.2-16 16zM431.2 306.9c-2.8-8.4-11.9-12.9-20.2-10.1s-12.9 11.9-10.1 20.2l8 24c2.8 8.4 11.9 12.9 20.2 10.1s12.9-11.9 10.1-20.2l-8-24zm-19.9 80.4c6.2-6.2 6.2-16.4 0-22.6s-16.4-6.2-22.6 0l-32 32c-6.2 6.2-6.2 16.4 0 22.6s16.4 6.2 22.6 0l32-32z"/></svg>