<svg xmlns="http://www.w3.org/2000/svg" viewBox="0 0 576 512"><!--! Font Awesome Pro 6.5.2 by @fontawesome - https://fontawesome.com License - https://fontawesome.com/license (Commercial License) Copyright 2024 Fonticons, Inc. --><path d="M448 160v32h32V160c0-35.3-28.7-64-64-64H298.5c-17 0-33.3-6.7-45.3-18.7L226.7 50.7c-12-12-28.3-18.7-45.3-18.7H64C28.7 32 0 60.7 0 96V416c0 35.3 28.7 64 64 64H384h80c19.6 0 37.3-11.9 44.6-30.2l64-160c5.9-14.8 4.1-31.5-4.8-44.7S543.9 224 528 224H128c-19.6 0-37.3 11.9-44.6 30.2L32 382.8V96c0-17.7 14.3-32 32-32H181.5c8.5 0 16.6 3.4 22.6 9.4l22.6-22.6L204.1 73.4l26.5 26.5c18 18 42.4 28.1 67.9 28.1H416c17.7 0 32 14.3 32 32zM384 448H64c-5.3 0-10.3-2.6-13.2-7s-3.6-10-1.6-14.9l64-160c2.4-6.1 8.3-10.1 14.9-10.1H528c5.3 0 10.3 2.6 13.2 7s3.6 10 1.6 14.9l-64 160C476.4 444 470.5 448 464 448H384z"/></svg>