<svg xmlns="http://www.w3.org/2000/svg" viewBox="0 0 512 512"><!--! Font Awesome Pro 6.5.1 by @fontawesome - https://fontawesome.com License - https://fontawesome.com/license (Commercial License) Copyright 2023 Fonticons, Inc. --><path d="M160 64c-17.7 0-32 14.3-32 32V416c0 11.7-3.1 22.6-8.6 32H432c26.5 0 48-21.5 48-48V96c0-17.7-14.3-32-32-32H160zM64 480c-35.3 0-64-28.7-64-64V160c0-35.3 28.7-64 64-64v32c-17.7 0-32 14.3-32 32V416c0 17.7 14.3 32 32 32s32-14.3 32-32V96c0-35.3 28.7-64 64-64H448c35.3 0 64 28.7 64 64V400c0 44.2-35.8 80-80 80H64zM384 112c0-8.8 7.2-16 16-16h32c8.8 0 16 7.2 16 16s-7.2 16-16 16H400c-8.8 0-16-7.2-16-16zm0 64c0-8.8 7.2-16 16-16h32c8.8 0 16 7.2 16 16s-7.2 16-16 16H400c-8.8 0-16-7.2-16-16zm0 64c0-8.8 7.2-16 16-16h32c8.8 0 16 7.2 16 16s-7.2 16-16 16H400c-8.8 0-16-7.2-16-16zM160 304c0-8.8 7.2-16 16-16H432c8.8 0 16 7.2 16 16s-7.2 16-16 16H176c-8.8 0-16-7.2-16-16zm0 64c0-8.8 7.2-16 16-16H432c8.8 0 16 7.2 16 16s-7.2 16-16 16H176c-8.8 0-16-7.2-16-16zm32-144H320V128H192v96zM160 120c0-13.3 10.7-24 24-24H328c13.3 0 24 10.7 24 24V232c0 13.3-10.7 24-24 24H184c-13.3 0-24-10.7-24-24V120z"/></svg>