<svg xmlns="http://www.w3.org/2000/svg" viewBox="0 0 384 512"><!--! Font Awesome Pro 6.5.2 by @fontawesome - https://fontawesome.com License - https://fontawesome.com/license (Commercial License) Copyright 2024 Fonticons, Inc. --><path d="M128 16c0-8.8-7.2-16-16-16s-16 7.2-16 16v96h32V16zm160 0c0-8.8-7.2-16-16-16s-16 7.2-16 16v96h32V16zM16 144c-8.8 0-16 7.2-16 16s7.2 16 16 16H32v64c0 83 63.1 151.2 144 159.2V496c0 8.8 7.2 16 16 16s16-7.2 16-16V399.2c80.9-8 144-76.2 144-159.2V176h16c8.8 0 16-7.2 16-16s-7.2-16-16-16H352 320 64 32 16zM192 368c-70.7 0-128-57.3-128-128V176H320v64c0 70.7-57.3 128-128 128z"/></svg>