<svg xmlns="http://www.w3.org/2000/svg" viewBox="0 0 512 512"><!--! Font Awesome Pro 6.5.1 by @fontawesome - https://fontawesome.com License - https://fontawesome.com/license (Commercial License) Copyright 2023 Fonticons, Inc. --><path d="M240 16c0-8.8 7.2-16 16-16s16 7.2 16 16V32H440.3c4.9 0 9.5 2.2 12.5 6L504 102c4.7 5.8 4.7 14.1 0 20l-51.2 64c-3 3.8-7.6 6-12.5 6H272v32H448c17.7 0 32 14.3 32 32v96c0 17.7-14.3 32-32 32H272V496c0 8.8-7.2 16-16 16s-16-7.2-16-16V384H71.7c-4.9 0-9.5-2.2-12.5-6L8 314c-4.7-5.8-4.7-14.1 0-20l51.2-64c3-3.8 7.6-6 12.5-6H240V192H64c-17.7 0-32-14.3-32-32V64c0-17.7 14.3-32 32-32H240V16zM432.6 64H64v96H432.6L471 112 432.6 64zM79.4 256L41 304l38.4 48H448V256H79.4z"/></svg>