<svg xmlns="http://www.w3.org/2000/svg" viewBox="0 0 640 512"><!--! Font Awesome Pro 6.5.2 by @fontawesome - https://fontawesome.com License - https://fontawesome.com/license (Commercial License) Copyright 2024 Fonticons, Inc. --><path d="M128 128a96 96 0 1 1 192 0 96 96 0 1 1 -192 0zM269.7 336c80 0 145 64.3 146.3 144H32c1.2-79.7 66.2-144 146.3-144h91.4zM224 256A128 128 0 1 0 224 0a128 128 0 1 0 0 256zm-45.7 48C79.8 304 0 383.8 0 482.3C0 498.7 13.3 512 29.7 512H418.3c16.4 0 29.7-13.3 29.7-29.7C448 383.8 368.2 304 269.7 304H178.3zm431 208c17 0 30.7-13.8 30.7-30.7C640 392.2 567.8 320 478.7 320H417.3c-4.4 0-8.8 .2-13.2 .5c11.3 9.4 21.6 19.9 30.7 31.5h43.9c71 0 128.6 57.2 129.3 128H480c0 .8 0 1.5 0 2.3c0 10.8-2.8 20.9-7.6 29.7H609.3zM432 256c61.9 0 112-50.1 112-112s-50.1-112-112-112c-24.8 0-47.7 8.1-66.3 21.7c5.2 9.8 9.3 20.3 12.4 31.2C392.3 71.9 411.2 64 432 64c44.2 0 80 35.8 80 80s-35.8 80-80 80c-25.2 0-47.6-11.6-62.3-29.8c-4.7 10.3-10.4 19.9-17 28.9C373 243.4 401 256 432 256z"/></svg>