<?xml version="1.0" encoding="utf-8"?>
<!-- Generator: Adobe Illustrator 24.2.1, SVG Export Plug-In . SVG Version: 6.00 Build 0)  -->
<svg version="1.1" id="alert" xmlns="http://www.w3.org/2000/svg" xmlns:xlink="http://www.w3.org/1999/xlink" x="0px" y="0px"
     viewBox="0 0 448 448" fill="currentColor" xml:space="preserve">
<path d="M256,343.8v-47.5c0-4.5-3.5-8.2-8-8.2h-48c-4.5,0-8,3.8-8,8.2v47.5c0,4.5,3.5,8.2,8,8.2h48C252.5,352,256,348.2,256,343.8z
	 M255.5,250.2l4.5-114.8c0-1.5-0.8-3.5-2.5-4.8c-1.5-1.2-3.8-2.8-6-2.8h-55c-2.2,0-4.5,1.5-6,2.8c-1.8,1.2-2.5,3.8-2.5,5.2
	l4.2,114.2c0,3.2,3.8,5.8,8.5,5.8H247C251.5,256,255.2,253.5,255.5,250.2z M252,16.8l192,352c5.5,9.8,5.2,21.8-0.5,31.5
	S427.2,416,416,416H32c-11.2,0-21.8-6-27.5-15.8s-6-21.8-0.5-31.5l192-352C201.5,6.5,212.2,0,224,0S246.5,6.5,252,16.8z"/>
</svg>
