<svg viewBox="0 0 100 100" fill="none" width="100" xmlns="http://www.w3.org/2000/svg">
    <g clip-path="url(#a)">
        <path d="M89.474 0H10.526A10.483 10.483 0 0 0 0 10.526v78.948A10.483 10.483 0 0 0 10.526 100h78.948C95.204 100 100 95.322 100 89.474V10.526A10.483 10.483 0 0 0 89.474 0ZM60 56.608l4.678 5.38c-4.912 3.977-10.526 6.2-16.14 6.2-11.111 0-18.129-7.37-16.491-17.779C33.684 40 43.157 32.632 54.269 32.632c5.38 0 10.41 2.105 13.918 5.965l-6.55 5.38c-1.87-2.456-5.029-4.094-8.538-4.094-6.666 0-11.813 4.328-12.865 10.526-.936 6.2 2.807 10.527 9.59 10.527 3.275 0 6.784-1.287 10.176-4.328Z" fill="currentColor"/>
    </g>
    <defs>
        <clipPath id="a">
            <path fill="#fff" d="M0 0h100v100H0z"/>
        </clipPath>
    </defs>
</svg>