<?xml version="1.0" encoding="UTF-8"?>
<svg width="256px" height="256px" viewBox="0 0 256 256" version="1.1" xmlns="http://www.w3.org/2000/svg" xmlns:xlink="http://www.w3.org/1999/xlink">
    <!-- Generator: Sketch 50 (54983) - http://www.bohemiancoding.com/sketch -->
    <title>default-plugin</title>
    <desc>Created with Sketch.</desc>
    <defs></defs>
    <g id="default-plugin" stroke="none" stroke-width="1" fill="none" fill-rule="evenodd">
        <g id="Group" transform="translate(-1.000000, -1.000000)">
            <g id="Group-2" transform="translate(0.670522, 0.970457)">
                <circle id="Oval" fill="#F0F0F0" cx="128.329478" cy="128.029543" r="128"></circle>
                <path d="M143.204136,75.9682405 C143.204136,73.9539627 143.940123,72.2108388 145.412093,70.7388686 C146.884063,69.2668984 148.627187,68.5309116 150.641465,68.5309116 C152.655742,68.5309116 154.398866,69.2668984 155.870836,70.7388686 C157.342807,72.2108388 158.078793,73.9539627 158.078793,75.9682405 L158.078793,101.998892 L143.204136,101.998892 L143.204136,75.9682405 Z M169.234787,105.717556 C170.319398,105.717556 171.210327,106.066181 171.907577,106.763431 C172.604827,107.46068 172.953451,108.351609 172.953451,109.436221 L172.953451,116.873549 C172.953451,117.958161 172.604827,118.84909 171.907577,119.54634 C171.210327,120.243589 170.319398,120.592214 169.234787,120.592214 L165.516122,120.592214 L165.516122,128.029543 C165.516122,137.016316 162.688387,144.918478 157.032919,151.736029 C151.377451,158.553579 144.288747,162.814551 135.766807,164.518938 L135.766807,187.528174 L120.892149,187.528174 L120.892149,164.518938 C112.370208,162.814551 105.281504,158.553579 99.6260366,151.736029 C93.9705689,144.918478 91.1428333,137.016316 91.1428333,128.029543 L91.1428333,120.592214 L87.4241689,120.592214 C86.3395572,120.592214 85.4486284,120.243589 84.7513788,119.54634 C84.0541292,118.84909 83.7055044,117.958161 83.7055044,116.873549 L83.7055044,109.436221 C83.7055044,108.351609 84.0541292,107.46068 84.7513788,106.763431 C85.4486284,106.066181 86.3395572,105.717556 87.4241689,105.717556 L169.234787,105.717556 Z M113.45482,101.998892 L98.5801622,101.998892 L98.5801622,75.9682405 C98.5801622,73.9539627 99.3161491,72.2108388 100.788119,70.7388686 C102.260089,69.2668984 104.003213,68.5309116 106.017491,68.5309116 C108.031769,68.5309116 109.774893,69.2668984 111.246863,70.7388686 C112.718833,72.2108388 113.45482,73.9539627 113.45482,75.9682405 L113.45482,101.998892 Z" id="" fill="#BEBEBE"></path>
            </g>
        </g>
    </g>
</svg>